G04 ================== begin FILE IDENTIFICATION RECORD ==================*
G04 Layout Name:  C:/tmp/20_066534b/worklib/02_066534b_top/physical/08_066534b.brd*
G04 Film Name:    fab3*
G04 File Format:  Gerber RS274X*
G04 File Origin:  Cadence Allegro 17.4-S032*
G04 Origin Date:  Tue Feb 21 15:03:36 2023*
G04 *
G04 Layer:  DRAWING FORMAT/FAB3*
G04 Layer:  BOARD GEOMETRY/OUTLINE*
G04 Layer:  BOARD GEOMETRY/DESIGN_OUTLINE*
G04 Layer:  MANUFACTURING/NCLEGEND-1-2*
G04 Layer:  DRAWING FORMAT/CSIZE2*
G04 *
G04 Offset:    (0.00 0.00)*
G04 Mirror:    No*
G04 Mode:      Positive*
G04 Rotation:  0*
G04 FullContactRelief:  No*
G04 UndefLineWidth:     8.00*
G04 ================== end FILE IDENTIFICATION RECORD ====================*
%FSLAX25Y25*MOIN*%
%IR0*IPPOS*OFA0.00000B0.00000*MIA0B0*SFA1.00000B1.00000*%
%AMMACRO10*
1,1,.008,.025,0.0*
20,1,.008,.025,0.0,-.025,0.0,0.0*
1,1,.008,-.025,0.0*
1,1,.008,0.0,.025*
20,1,.008,0.0,.025,0.0,-.025,0.0*
1,1,.008,0.0,-.025*
%
%ADD10MACRO10*%
%ADD11C,.012*%
%ADD12C,.008*%
G75*
%LPD*%
G75*
G54D10*
X103244Y98149D03*
Y93426D03*
Y96574D03*
X95370Y90276D03*
X103244Y91851D03*
X95370Y98149D03*
X96945Y91851D03*
Y98149D03*
X101669Y96574D03*
X96945D03*
X100094Y93426D03*
X96945D03*
X95370D03*
X100094Y91851D03*
X95370D03*
Y96574D03*
X96945Y90276D03*
X101669D03*
X100094D03*
X103244D03*
X100094Y99724D03*
X95370D03*
X96945D03*
X668950Y270909D03*
G54D11*
G01X1232500Y-390000D02*
Y-415000D01*
X1239000D01*
X1241500Y-413700D01*
X1243300Y-412000D01*
X1245000Y-409500D01*
X1246300Y-406500D01*
X1246500Y-402500D01*
X1246300Y-398200D01*
X1245000Y-395500D01*
X1243300Y-392700D01*
X1241500Y-391200D01*
X1239000Y-390000D01*
X1232500D01*
G01X1235800Y-375200D02*
X1246500D01*
G01X1232300Y-384000D02*
X1241000Y-359000D01*
X1249800Y-384000D01*
G01X1257300Y-402000D02*
X1265000D01*
G01X1270000Y-390000D02*
X1257300D01*
Y-415000D01*
X1270000D01*
G01X1261000Y-384000D02*
Y-359000D01*
X1277000Y-384000D01*
Y-359000D01*
G01X1279500Y-390000D02*
X1287500Y-415000D01*
X1295500Y-390000D01*
G01X1288300Y-384000D02*
X1297000Y-359000D01*
X1305800Y-384000D01*
G01X1307800Y-415000D02*
X1315300D01*
G01X1311500Y-390000D02*
Y-415000D01*
G01X1307800Y-390000D02*
X1315300D01*
G01X1291800Y-375200D02*
X1302500D01*
G01X1342500Y-392000D02*
X1340500Y-390700D01*
X1338300Y-390000D01*
X1335800D01*
X1333000Y-391200D01*
X1330800Y-393200D01*
X1329300Y-395700D01*
X1328000Y-399700D01*
X1327500Y-403700D01*
X1328300Y-407500D01*
X1329300Y-410000D01*
X1331000Y-412500D01*
X1333300Y-414200D01*
X1335500Y-415000D01*
X1337800D01*
X1339800Y-414200D01*
X1341800Y-413000D01*
X1343500Y-411200D01*
G01X1318000Y-359000D02*
Y-384000D01*
X1332000D01*
G01X1353300Y-402000D02*
X1361000D01*
G01X1366000Y-390000D02*
X1353300D01*
Y-415000D01*
X1366000D01*
G01X1343500Y-373200D02*
Y-369700D01*
X1344300Y-366500D01*
X1345800Y-363500D01*
X1347800Y-361000D01*
X1350000Y-359500D01*
X1353000Y-359000D01*
X1356000Y-359500D01*
X1358300Y-361000D01*
X1360300Y-363500D01*
X1361800Y-366500D01*
X1362500Y-369700D01*
Y-373200D01*
X1361800Y-376500D01*
X1360300Y-379500D01*
X1358300Y-382000D01*
X1356000Y-383500D01*
X1353000Y-384000D01*
X1350000Y-383500D01*
X1347800Y-382000D01*
X1345500Y-379200D01*
X1344300Y-376500D01*
X1343500Y-373200D01*
G01X1388300Y-361500D02*
X1386300Y-359700D01*
X1383500Y-359000D01*
X1381000D01*
X1378300Y-360200D01*
X1376000Y-362000D01*
X1374000Y-364500D01*
X1372800Y-367000D01*
X1372000Y-369700D01*
Y-372700D01*
X1372500Y-376000D01*
X1374000Y-379000D01*
X1376000Y-381500D01*
X1378300Y-383000D01*
X1382000Y-384000D01*
X1385500Y-383200D01*
X1388000Y-381500D01*
X1390000Y-379000D01*
Y-371500D01*
X1383000D01*
G01X1389000Y-393000D02*
X1387000Y-390700D01*
X1384800Y-390000D01*
X1382500D01*
X1380300Y-391200D01*
X1378800Y-393200D01*
X1378300Y-396200D01*
X1379000Y-399200D01*
X1381300Y-400700D01*
X1385300Y-401700D01*
X1388000Y-403200D01*
X1389500Y-405700D01*
X1390300Y-408700D01*
X1389300Y-411700D01*
X1387300Y-413700D01*
X1384800Y-415000D01*
X1382300D01*
X1379500Y-413700D01*
X1377000Y-411700D01*
G54D12*
G01X-522875Y-375000D02*
X-515000Y-350000D01*
X-507125Y-375000D01*
G01X-509960Y-366250D02*
X-520040D01*
G01X-525000Y-150000D02*
X-495000D01*
G01X-512480Y63334D02*
X-511220Y64583D01*
X-510275Y66666D01*
X-509645Y69584D01*
X-510275Y72083D01*
X-511535Y73750D01*
X-513740Y75000D01*
X-522245D01*
Y50000D01*
X-511850D01*
X-509645Y51666D01*
X-508385Y54167D01*
X-507755Y57083D01*
X-508385Y59999D01*
X-510275Y62500D01*
X-512480Y63334D01*
X-522245D01*
G01X-532000Y275500D02*
Y274500D01*
G01X-512000Y275500D02*
X-532000D01*
G01Y274500D02*
X-512000D01*
G01X-533000Y276500D02*
Y273500D01*
G01X-513000Y276500D02*
X-533000D01*
G01Y273500D02*
X-513000D01*
G01X-534000Y277500D02*
Y272500D01*
G01X-514000Y277500D02*
X-534000D01*
G01Y272500D02*
X-514000D01*
G01X-535000Y278500D02*
Y271500D01*
G01X-515000Y278500D02*
X-535000D01*
G01Y271500D02*
X-515000D01*
G01X-508070Y497916D02*
X-509960Y499167D01*
X-512165Y500000D01*
X-514685D01*
X-517520Y498750D01*
X-519725Y496667D01*
X-521300Y494166D01*
X-522560Y490000D01*
X-522875Y486250D01*
X-522245Y482500D01*
X-521300Y480000D01*
X-519410Y477499D01*
X-517205Y475833D01*
X-515000Y475000D01*
X-512795D01*
X-510590Y475833D01*
X-508700Y477083D01*
X-507125Y478749D01*
G01X-495000Y700000D02*
X-525000D01*
G01X-521930Y900000D02*
Y925000D01*
X-515630D01*
X-513110Y923750D01*
X-511220Y922083D01*
X-509645Y919584D01*
X-508385Y916666D01*
X-508070Y912500D01*
X-508385Y908333D01*
X-509645Y905416D01*
X-511220Y902916D01*
X-513110Y901250D01*
X-515630Y900000D01*
X-521930D01*
G01X1130000Y-525000D02*
X-495000D01*
Y1075000D01*
G01X-511000Y280000D02*
Y270000D01*
G01D02*
X-501000Y275000D01*
G01X-512000Y268500D02*
X-499500Y275000D01*
G01X-512000Y274500D02*
Y268500D01*
G01X-513000Y267000D02*
X-498000Y275000D01*
G01X-513000Y273500D02*
Y267000D01*
G01X-514000Y265500D02*
X-496500Y275000D01*
G01X-514000Y272500D02*
Y265500D01*
G01X-515000Y264000D02*
X-495000Y275000D01*
G01X-515000Y271500D02*
Y264000D01*
G01X-506500Y275000D02*
X-507500D01*
G01X-508000Y276000D02*
Y274000D01*
G01X-505500Y275000D02*
X-508000Y276000D01*
G01Y274000D02*
X-505500Y275000D01*
G01X-509000Y277000D02*
Y273000D01*
G01X-504000Y275000D02*
X-509000Y277000D01*
G01Y273000D02*
X-504000Y275000D01*
G01X-510000Y278500D02*
Y271500D01*
G01X-502500Y275000D02*
X-510000Y278500D01*
G01Y271500D02*
X-502500Y275000D01*
G01X-501000D02*
X-511000Y280000D01*
G01X-512000Y281500D02*
Y275500D01*
G01X-499500Y275000D02*
X-512000Y281500D01*
G01X-513000Y283000D02*
Y276500D01*
G01X-498000Y275000D02*
X-513000Y283000D01*
G01X-514000Y284500D02*
Y277500D01*
G01X-496500Y275000D02*
X-514000Y284500D01*
G01X-515000Y286000D02*
Y278500D01*
G01X-495000Y275000D02*
X-515000Y286000D01*
G01X-495000Y1075000D02*
X1605000D01*
Y-325000D01*
G01X-266220Y-560000D02*
Y-535000D01*
X-277875Y-552917D01*
X-262125D01*
G01X-266220Y1085000D02*
Y1110000D01*
X-277875Y1092083D01*
X-262125D01*
G01X-55000Y200000D02*
Y-10000D01*
X250000D01*
Y200000D01*
X-55000D01*
G01X5000Y-555000D02*
Y-525000D01*
G01Y1105000D02*
Y1075000D01*
G01X273070Y-555000D02*
X274960Y-557917D01*
X277480Y-559583D01*
X280315Y-560000D01*
X282835Y-559583D01*
X285355Y-557501D01*
X286930Y-555000D01*
X287245Y-552500D01*
X286615Y-549584D01*
X284410Y-547500D01*
X282205Y-546666D01*
X279370D01*
G01X282205D02*
X284095Y-545417D01*
X285670Y-543334D01*
X286300Y-540834D01*
X285670Y-538333D01*
X284095Y-536250D01*
X281260Y-535000D01*
X278425Y-535417D01*
X275590Y-537084D01*
G01X273070Y1090000D02*
X274960Y1087083D01*
X277480Y1085417D01*
X280315Y1085000D01*
X282835Y1085417D01*
X285355Y1087499D01*
X286930Y1090000D01*
X287245Y1092500D01*
X286615Y1095416D01*
X284410Y1097500D01*
X282205Y1098334D01*
X279370D01*
G01X282205D02*
X284095Y1099583D01*
X285670Y1101666D01*
X286300Y1104166D01*
X285670Y1106667D01*
X284095Y1108750D01*
X281260Y1110000D01*
X278425Y1109583D01*
X275590Y1107916D01*
G01X558500Y-565000D02*
Y-545000D01*
G01X557500Y-564000D02*
Y-544000D01*
G01X556500Y-563000D02*
Y-543000D01*
G01X555500Y-562000D02*
Y-542000D01*
G01X551500Y-565000D02*
X558500D01*
G01X551500Y-545000D02*
Y-565000D01*
G01X552500Y-564000D02*
X557500D01*
G01X552500Y-544000D02*
Y-564000D01*
G01X553500Y-563000D02*
X556500D01*
G01X553500Y-543000D02*
Y-563000D01*
G01X554500Y-562000D02*
X555500D01*
G01X554500Y-542000D02*
Y-562000D01*
G01X555000Y-536500D02*
Y-537500D01*
G01X566000Y-545000D02*
X555000Y-525000D01*
G01X558500Y-545000D02*
X566000D01*
G01X564500Y-544000D02*
X555000Y-526500D01*
G01X557500Y-544000D02*
X564500D01*
G01X563000Y-543000D02*
X555000Y-528000D01*
G01X556500Y-543000D02*
X563000D01*
G01X561500Y-542000D02*
X555000Y-529500D01*
G01X555500Y-542000D02*
X561500D01*
G01X560000Y-541000D02*
X555000Y-531000D01*
G01X558500Y-540000D02*
X555000Y-532500D01*
G01X557000Y-539000D02*
X555000Y-534000D01*
G01X556000Y-538000D02*
X555000Y-535500D01*
G01X544000Y-545000D02*
X551500D01*
G01X555000Y-525000D02*
X544000Y-545000D01*
G01X545500Y-544000D02*
X552500D01*
G01X555000Y-526500D02*
X545500Y-544000D01*
G01X547000Y-543000D02*
X553500D01*
G01X555000Y-528000D02*
X547000Y-543000D01*
G01X548500Y-542000D02*
X554500D01*
G01X555000Y-529500D02*
X548500Y-542000D01*
G01X550000Y-541000D02*
X560000D01*
G01X555000Y-531000D02*
X550000Y-541000D01*
G01X551500Y-540000D02*
X558500D01*
G01X555000Y-532500D02*
X551500Y-540000D01*
G01X553000Y-539000D02*
X557000D01*
G01X555000Y-534000D02*
X553000Y-539000D01*
G01X554000Y-538000D02*
X556000D01*
G01X555000Y-535500D02*
X554000Y-538000D01*
G01X555000Y1086500D02*
Y1087500D01*
G01Y1085500D02*
X556000Y1088000D01*
G01X555000Y1084000D02*
X557000Y1089000D01*
G01X555000Y1082500D02*
X558500Y1090000D01*
G01X555000Y1081000D02*
X560000Y1091000D01*
G01X555000Y1079500D02*
X561500Y1092000D01*
G01X555000Y1078000D02*
X563000Y1093000D01*
G01X555000Y1076500D02*
X564500Y1094000D01*
G01X555000Y1075000D02*
X566000Y1095000D01*
G01X554000Y1088000D02*
X555000Y1085500D01*
G01X553000Y1089000D02*
X555000Y1084000D01*
G01X551500Y1090000D02*
X555000Y1082500D01*
G01X550000Y1091000D02*
X555000Y1081000D01*
G01X548500Y1092000D02*
X555000Y1079500D01*
G01X547000Y1093000D02*
X555000Y1078000D01*
G01X545500Y1094000D02*
X555000Y1076500D01*
G01X544000Y1095000D02*
X555000Y1075000D01*
G01X558500Y1095000D02*
Y1115000D01*
G01X566000Y1095000D02*
X558500D01*
G01X555500Y1092000D02*
Y1112000D01*
G01X561500Y1092000D02*
X555500D01*
G01X556500Y1093000D02*
Y1113000D01*
G01X563000Y1093000D02*
X556500D01*
G01X557500Y1094000D02*
Y1114000D01*
G01X564500Y1094000D02*
X557500D01*
G01X551500Y1095000D02*
X544000D01*
G01X551500Y1115000D02*
Y1095000D01*
G01X556000Y1088000D02*
X554000D01*
G01X557000Y1089000D02*
X553000D01*
G01X558500Y1090000D02*
X551500D01*
G01X560000Y1091000D02*
X550000D01*
G01X554500Y1092000D02*
X548500D01*
G01X554500Y1112000D02*
Y1092000D01*
G01X553500Y1093000D02*
X547000D01*
G01X553500Y1113000D02*
Y1093000D01*
G01X552500Y1094000D02*
X545500D01*
G01X552500Y1114000D02*
Y1094000D01*
G01X555500Y1112000D02*
X554500D01*
G01X556500Y1113000D02*
X553500D01*
G01X557500Y1114000D02*
X552500D01*
G01X558500Y1115000D02*
X551500D01*
G01X624000Y258409D02*
Y359000D01*
X1309100D01*
Y258409D01*
X624000D01*
G01X635005Y289659D02*
Y302159D01*
X640895D01*
G01X638725Y296117D02*
X635005D01*
G01X648490Y302159D02*
X652210D01*
G01X650350D02*
Y289659D01*
G01X648490D02*
X652210D01*
G01X663680Y295909D02*
X666780D01*
Y292159D01*
X665850Y290909D01*
X664765Y290076D01*
X663215Y289659D01*
X661665Y290076D01*
X660580Y290909D01*
X659650Y292159D01*
X659030Y293617D01*
X658720Y295284D01*
Y296742D01*
X659030Y297992D01*
X659650Y299451D01*
X660580Y300701D01*
X661510Y301534D01*
X662750Y302159D01*
X663835D01*
X665075Y301742D01*
X666005Y300909D01*
G01X671740Y302159D02*
Y293201D01*
X672360Y291325D01*
X673600Y290076D01*
X675150Y289659D01*
X676700Y290076D01*
X677940Y291325D01*
X678560Y293201D01*
Y302159D01*
G01X684450Y289659D02*
Y302159D01*
X688325D01*
X689565Y301534D01*
X690340Y300701D01*
X690650Y299034D01*
X690340Y297367D01*
X689410Y296326D01*
X688325Y295701D01*
X684450D01*
G01X688325D02*
X690650Y289659D01*
G01X703050D02*
X696850D01*
Y302159D01*
X703050D01*
G01X700570Y296117D02*
X696850D01*
G01X624000Y283409D02*
X1309100D01*
G01X624000Y308409D02*
X1309100D01*
G01X624000Y333409D02*
X1309100D01*
G01X713900Y308409D02*
Y258409D01*
G01X797910Y264659D02*
Y277159D01*
X792175Y268201D01*
X799925D01*
G01X808450Y264242D02*
X808140Y264451D01*
Y264867D01*
X808450Y265076D01*
X808760Y264867D01*
Y264451D01*
X808450Y264242D01*
G01X820850Y277159D02*
X819610Y276742D01*
X818680Y275701D01*
X818060Y274451D01*
X817595Y272784D01*
X817440Y270909D01*
X817595Y269034D01*
X818060Y267367D01*
X818680Y266117D01*
X819610Y265076D01*
X820850Y264659D01*
X822090Y265076D01*
X823020Y266117D01*
X823640Y267367D01*
X824105Y269034D01*
X824260Y270909D01*
X824105Y272784D01*
X823640Y274451D01*
X823020Y275701D01*
X822090Y276742D01*
X820850Y277159D01*
G01X786595Y291325D02*
X787835Y290284D01*
X789230Y289659D01*
X790470D01*
X791710Y290284D01*
X792640Y291325D01*
X793105Y292784D01*
X792795Y294242D01*
X792020Y295492D01*
X790625Y296326D01*
X788765Y296742D01*
X787680Y297576D01*
X787215Y299034D01*
X787525Y300492D01*
X788300Y301534D01*
X789385Y302159D01*
X790470D01*
X791555Y301742D01*
X792485Y300701D01*
G01X800390Y302159D02*
X804110D01*
G01X802250D02*
Y289659D01*
G01X800390D02*
X804110D01*
G01X811705Y302159D02*
X817595D01*
X811705Y289659D01*
X817595D01*
G01X830150D02*
X823950D01*
Y302159D01*
X830150D01*
G01X827670Y296117D02*
X823950D01*
G01X808140Y340250D02*
Y352750D01*
X811240D01*
X812480Y352125D01*
X813410Y351292D01*
X814185Y350042D01*
X814805Y348583D01*
X814960Y346500D01*
X814805Y344417D01*
X814185Y342958D01*
X813410Y341708D01*
X812480Y340875D01*
X811240Y340250D01*
X808140D01*
G01X820850D02*
Y352750D01*
X824725D01*
X825965Y352125D01*
X826740Y351292D01*
X827050Y349625D01*
X826740Y347958D01*
X825810Y346917D01*
X824725Y346292D01*
X820850D01*
G01X824725D02*
X827050Y340250D01*
G01X834490Y352750D02*
X838210D01*
G01X836350D02*
Y340250D01*
G01X834490D02*
X838210D01*
G01X845650Y352750D02*
Y340250D01*
X851850D01*
G01X858050Y352750D02*
Y340250D01*
X864250D01*
G01X889360Y351708D02*
X888430Y352333D01*
X887345Y352750D01*
X886105D01*
X884710Y352125D01*
X883625Y351083D01*
X882850Y349833D01*
X882230Y347750D01*
X882075Y345875D01*
X882385Y344000D01*
X882850Y342750D01*
X883780Y341500D01*
X884865Y340667D01*
X885950Y340250D01*
X887035D01*
X888120Y340667D01*
X889050Y341291D01*
X889825Y342125D01*
G01X895095Y340250D02*
Y352750D01*
G01X901605D02*
Y340250D01*
G01Y346500D02*
X895095D01*
G01X906875Y340250D02*
X910750Y352750D01*
X914625Y340250D01*
G01X913230Y344625D02*
X908270D01*
G01X920050Y340250D02*
Y352750D01*
X923925D01*
X925165Y352125D01*
X925940Y351292D01*
X926250Y349625D01*
X925940Y347958D01*
X925010Y346917D01*
X923925Y346292D01*
X920050D01*
G01X923925D02*
X926250Y340250D01*
G01X935550Y352750D02*
Y340250D01*
G01X931985Y352750D02*
X939115D01*
G01X947950Y339833D02*
X947640Y340042D01*
Y340458D01*
X947950Y340667D01*
X948260Y340458D01*
Y340042D01*
X947950Y339833D01*
G01Y345458D02*
X947640Y345667D01*
Y346083D01*
X947950Y346292D01*
X948260Y346083D01*
Y345667D01*
X947950Y345458D01*
G01X972750Y352750D02*
Y340250D01*
G01X969185Y352750D02*
X976315D01*
G01X985150Y340250D02*
X983910Y340458D01*
X982825Y341291D01*
X981895Y342542D01*
X981275Y344000D01*
X980965Y345667D01*
Y347333D01*
X981275Y349000D01*
X981895Y350458D01*
X982825Y351708D01*
X983910Y352542D01*
X985150Y352750D01*
X986390Y352542D01*
X987475Y351708D01*
X988405Y350458D01*
X989025Y349000D01*
X989335Y347333D01*
Y345667D01*
X989025Y344000D01*
X988405Y342542D01*
X987475Y341291D01*
X986390Y340458D01*
X985150Y340250D01*
G01X994450D02*
Y352750D01*
X998170D01*
X999410Y352125D01*
X1000340Y350667D01*
X1000650Y349000D01*
X1000340Y347333D01*
X999565Y346083D01*
X998170Y345458D01*
X994450D01*
G01X1022350Y352750D02*
Y340250D01*
G01X1020180Y348583D02*
X1024520D01*
G01X1034750Y340250D02*
X1033820Y340458D01*
X1032890Y341291D01*
X1032270Y342750D01*
X1031960Y344417D01*
X1032270Y346083D01*
X1032890Y347542D01*
X1033820Y348375D01*
X1034750Y348583D01*
X1035680Y348375D01*
X1036610Y347542D01*
X1037230Y346083D01*
X1037385Y344417D01*
X1037230Y342750D01*
X1036610Y341291D01*
X1035680Y340458D01*
X1034750Y340250D01*
G01X1056450Y352750D02*
Y340250D01*
X1062650D01*
G01X1069005Y350667D02*
X1069935Y351916D01*
X1071020Y352542D01*
X1072260Y352750D01*
X1073810Y352333D01*
X1074895Y351292D01*
X1075205Y350042D01*
X1075050Y348791D01*
X1074430Y347750D01*
X1071330Y345667D01*
X1069935Y344208D01*
X1069005Y342125D01*
X1068695Y340250D01*
X1075205D01*
G01X1079700Y336083D02*
X1089000D01*
G01X1097680Y346500D02*
X1100780D01*
Y342750D01*
X1099850Y341500D01*
X1098765Y340667D01*
X1097215Y340250D01*
X1095665Y340667D01*
X1094580Y341500D01*
X1093650Y342750D01*
X1093030Y344208D01*
X1092720Y345875D01*
Y347333D01*
X1093030Y348583D01*
X1093650Y350042D01*
X1094580Y351292D01*
X1095510Y352125D01*
X1096750Y352750D01*
X1097835D01*
X1099075Y352333D01*
X1100005Y351500D01*
G01X1105585Y340250D02*
Y352750D01*
X1112715Y340250D01*
Y352750D01*
G01X1118140Y340250D02*
Y352750D01*
X1121240D01*
X1122480Y352125D01*
X1123410Y351292D01*
X1124185Y350042D01*
X1124805Y348583D01*
X1124960Y346500D01*
X1124805Y344417D01*
X1124185Y342958D01*
X1123410Y341708D01*
X1122480Y340875D01*
X1121240Y340250D01*
X1118140D01*
G01X824015Y-539167D02*
X825905Y-536667D01*
X828110Y-535417D01*
X830630Y-535000D01*
X833780Y-535833D01*
X835985Y-537917D01*
X836615Y-540416D01*
X836300Y-542917D01*
X835040Y-545000D01*
X828740Y-549167D01*
X825905Y-552083D01*
X824015Y-556251D01*
X823385Y-560000D01*
X836615D01*
G01X833405Y314659D02*
Y327159D01*
X839295D01*
G01X837125Y321117D02*
X833405D01*
G01X846890Y327159D02*
X850610D01*
G01X848750D02*
Y314659D01*
G01X846890D02*
X850610D01*
G01X857585D02*
Y327159D01*
X864715Y314659D01*
Y327159D01*
G01X871690D02*
X875410D01*
G01X873550D02*
Y314659D01*
G01X871690D02*
X875410D01*
G01X882695Y316325D02*
X883935Y315284D01*
X885330Y314659D01*
X886570D01*
X887810Y315284D01*
X888740Y316325D01*
X889205Y317784D01*
X888895Y319242D01*
X888120Y320492D01*
X886725Y321326D01*
X884865Y321742D01*
X883780Y322576D01*
X883315Y324034D01*
X883625Y325492D01*
X884400Y326534D01*
X885485Y327159D01*
X886570D01*
X887655Y326742D01*
X888585Y325701D01*
G01X895095Y314659D02*
Y327159D01*
G01X901605D02*
Y314659D01*
G01Y320909D02*
X895095D01*
G01X913850Y314659D02*
X907650D01*
Y327159D01*
X913850D01*
G01X911370Y321117D02*
X907650D01*
G01X919740Y314659D02*
Y327159D01*
X922840D01*
X924080Y326534D01*
X925010Y325701D01*
X925785Y324451D01*
X926405Y322992D01*
X926560Y320909D01*
X926405Y318826D01*
X925785Y317367D01*
X925010Y316117D01*
X924080Y315284D01*
X922840Y314659D01*
X919740D01*
G01X944695D02*
Y327159D01*
G01X951205D02*
Y314659D01*
G01Y320909D02*
X944695D01*
G01X960350Y314659D02*
X959110Y314867D01*
X958025Y315700D01*
X957095Y316951D01*
X956475Y318409D01*
X956165Y320076D01*
Y321742D01*
X956475Y323409D01*
X957095Y324867D01*
X958025Y326117D01*
X959110Y326951D01*
X960350Y327159D01*
X961590Y326951D01*
X962675Y326117D01*
X963605Y324867D01*
X964225Y323409D01*
X964535Y321742D01*
Y320076D01*
X964225Y318409D01*
X963605Y316951D01*
X962675Y315700D01*
X961590Y314867D01*
X960350Y314659D01*
G01X969650Y327159D02*
Y314659D01*
X975850D01*
G01X988250D02*
X982050D01*
Y327159D01*
X988250D01*
G01X985770Y321117D02*
X982050D01*
G01X994295Y316325D02*
X995535Y315284D01*
X996930Y314659D01*
X998170D01*
X999410Y315284D01*
X1000340Y316325D01*
X1000805Y317784D01*
X1000495Y319242D01*
X999720Y320492D01*
X998325Y321326D01*
X996465Y321742D01*
X995380Y322576D01*
X994915Y324034D01*
X995225Y325492D01*
X996000Y326534D01*
X997085Y327159D01*
X998170D01*
X999255Y326742D01*
X1000185Y325701D01*
G01X1020490Y327159D02*
X1024210D01*
G01X1022350D02*
Y314659D01*
G01X1020490D02*
X1024210D01*
G01X1031185D02*
Y327159D01*
X1038315Y314659D01*
Y327159D01*
G01X1055520Y314659D02*
Y327159D01*
X1059550Y316742D01*
X1063580Y327159D01*
Y314659D01*
G01X1070090Y327159D02*
X1073810D01*
G01X1071950D02*
Y314659D01*
G01X1070090D02*
X1073810D01*
G01X1081250Y327159D02*
Y314659D01*
X1087450D01*
G01X1093495Y316325D02*
X1094735Y315284D01*
X1096130Y314659D01*
X1097370D01*
X1098610Y315284D01*
X1099540Y316325D01*
X1100005Y317784D01*
X1099695Y319242D01*
X1098920Y320492D01*
X1097525Y321326D01*
X1095665Y321742D01*
X1094580Y322576D01*
X1094115Y324034D01*
X1094425Y325492D01*
X1095200Y326534D01*
X1096285Y327159D01*
X1097370D01*
X1098455Y326742D01*
X1099385Y325701D01*
G01X824015Y1105833D02*
X825905Y1108333D01*
X828110Y1109583D01*
X830630Y1110000D01*
X833780Y1109167D01*
X835985Y1107083D01*
X836615Y1104584D01*
X836300Y1102083D01*
X835040Y1100000D01*
X828740Y1095833D01*
X825905Y1092917D01*
X824015Y1088749D01*
X823385Y1085000D01*
X836615D01*
G01X887440Y391667D02*
X888060Y392292D01*
X888525Y393333D01*
X888835Y394792D01*
X888525Y396042D01*
X887905Y396875D01*
X886820Y397500D01*
X882635D01*
Y385000D01*
X887750D01*
X888835Y385833D01*
X889455Y387083D01*
X889765Y388542D01*
X889455Y390000D01*
X888525Y391250D01*
X887440Y391667D01*
X882635D01*
G01X899840D02*
X900460Y392292D01*
X900925Y393333D01*
X901235Y394792D01*
X900925Y396042D01*
X900305Y396875D01*
X899220Y397500D01*
X895035D01*
Y385000D01*
X900150D01*
X901235Y385833D01*
X901855Y387083D01*
X902165Y388542D01*
X901855Y390000D01*
X900925Y391250D01*
X899840Y391667D01*
X895035D01*
G01X907125Y397500D02*
X911000Y385000D01*
X914875Y397500D01*
G01X921540D02*
X925260D01*
G01X923400D02*
Y385000D01*
G01X921540D02*
X925260D01*
G01X931925D02*
X935800Y397500D01*
X939675Y385000D01*
G01X938280Y389375D02*
X933320D01*
G01X903000Y308409D02*
Y258409D01*
G01X932450Y264659D02*
Y277159D01*
X936170D01*
X937410Y276534D01*
X938340Y275076D01*
X938650Y273409D01*
X938340Y271742D01*
X937565Y270492D01*
X936170Y269867D01*
X932450D01*
G01X944850Y277159D02*
Y264659D01*
X951050D01*
G01X956475D02*
X960350Y277159D01*
X964225Y264659D01*
G01X962830Y269034D02*
X957870D01*
G01X972750Y277159D02*
Y264659D01*
G01X969185Y277159D02*
X976315D01*
G01X988250Y264659D02*
X982050D01*
Y277159D01*
X988250D01*
G01X985770Y271117D02*
X982050D01*
G01X994140Y264659D02*
Y277159D01*
X997240D01*
X998480Y276534D01*
X999410Y275701D01*
X1000185Y274451D01*
X1000805Y272992D01*
X1000960Y270909D01*
X1000805Y268826D01*
X1000185Y267367D01*
X999410Y266117D01*
X998480Y265284D01*
X997240Y264659D01*
X994140D01*
G01X932450Y289659D02*
Y302159D01*
X936170D01*
X937410Y301534D01*
X938340Y300076D01*
X938650Y298409D01*
X938340Y296742D01*
X937565Y295492D01*
X936170Y294867D01*
X932450D01*
G01X944850Y302159D02*
Y289659D01*
X951050D01*
G01X956475D02*
X960350Y302159D01*
X964225Y289659D01*
G01X962830Y294034D02*
X957870D01*
G01X972750Y302159D02*
Y289659D01*
G01X969185Y302159D02*
X976315D01*
G01X988250Y289659D02*
X982050D01*
Y302159D01*
X988250D01*
G01X985770Y296117D02*
X982050D01*
G01X994140Y289659D02*
Y302159D01*
X997240D01*
X998480Y301534D01*
X999410Y300701D01*
X1000185Y299451D01*
X1000805Y297992D01*
X1000960Y295909D01*
X1000805Y293826D01*
X1000185Y292367D01*
X999410Y291117D01*
X998480Y290284D01*
X997240Y289659D01*
X994140D01*
G01X1030100Y308409D02*
Y258409D01*
G01X1056450Y289659D02*
X1055210Y289867D01*
X1054125Y290700D01*
X1053195Y291951D01*
X1052575Y293409D01*
X1052265Y295076D01*
Y296742D01*
X1052575Y298409D01*
X1053195Y299867D01*
X1054125Y301117D01*
X1055210Y301951D01*
X1056450Y302159D01*
X1057690Y301951D01*
X1058775Y301117D01*
X1059705Y299867D01*
X1060325Y298409D01*
X1060635Y296742D01*
Y295076D01*
X1060325Y293409D01*
X1059705Y291951D01*
X1058775Y290700D01*
X1057690Y289867D01*
X1056450Y289659D01*
G01X1057690Y292992D02*
X1059550Y289659D01*
G01X1068850Y302159D02*
Y289659D01*
G01X1065285Y302159D02*
X1072415D01*
G01X1081250Y289659D02*
Y295284D01*
X1078150Y302159D01*
G01X1084350D02*
X1081250Y295284D01*
G01X1059705Y275076D02*
X1060635Y276325D01*
X1061720Y276951D01*
X1062960Y277159D01*
X1064510Y276742D01*
X1065595Y275701D01*
X1065905Y274451D01*
X1065750Y273200D01*
X1065130Y272159D01*
X1062030Y270076D01*
X1060635Y268617D01*
X1059705Y266534D01*
X1059395Y264659D01*
X1065905D01*
G01X1071640Y267159D02*
X1072570Y265700D01*
X1073810Y264867D01*
X1075205Y264659D01*
X1076445Y264867D01*
X1077685Y265909D01*
X1078460Y267159D01*
X1078615Y268409D01*
X1078305Y269867D01*
X1077220Y270909D01*
X1076135Y271326D01*
X1074740D01*
G01X1076135D02*
X1077065Y271951D01*
X1077840Y272992D01*
X1078150Y274242D01*
X1077840Y275492D01*
X1077065Y276534D01*
X1075670Y277159D01*
X1074275Y276951D01*
X1072880Y276117D01*
G01X1105000Y-555000D02*
Y-525000D01*
G01X1107600Y308409D02*
Y258409D01*
G01X1121550Y302159D02*
Y289659D01*
G01X1117985Y302159D02*
X1125115D01*
G01X1133950Y289659D02*
X1132710Y289867D01*
X1131625Y290700D01*
X1130695Y291951D01*
X1130075Y293409D01*
X1129765Y295076D01*
Y296742D01*
X1130075Y298409D01*
X1130695Y299867D01*
X1131625Y301117D01*
X1132710Y301951D01*
X1133950Y302159D01*
X1135190Y301951D01*
X1136275Y301117D01*
X1137205Y299867D01*
X1137825Y298409D01*
X1138135Y296742D01*
Y295076D01*
X1137825Y293409D01*
X1137205Y291951D01*
X1136275Y290700D01*
X1135190Y289867D01*
X1133950Y289659D01*
G01X1143250Y302159D02*
Y289659D01*
X1149450D01*
G01X1161850D02*
X1155650D01*
Y302159D01*
X1161850D01*
G01X1159370Y296117D02*
X1155650D01*
G01X1168050Y289659D02*
Y302159D01*
X1171925D01*
X1173165Y301534D01*
X1173940Y300701D01*
X1174250Y299034D01*
X1173940Y297367D01*
X1173010Y296326D01*
X1171925Y295701D01*
X1168050D01*
G01X1171925D02*
X1174250Y289659D01*
G01X1179675D02*
X1183550Y302159D01*
X1187425Y289659D01*
G01X1186030Y294034D02*
X1181070D01*
G01X1192385Y289659D02*
Y302159D01*
X1199515Y289659D01*
Y302159D01*
G01X1211760Y301117D02*
X1210830Y301742D01*
X1209745Y302159D01*
X1208505D01*
X1207110Y301534D01*
X1206025Y300492D01*
X1205250Y299242D01*
X1204630Y297159D01*
X1204475Y295284D01*
X1204785Y293409D01*
X1205250Y292159D01*
X1206180Y290909D01*
X1207265Y290076D01*
X1208350Y289659D01*
X1209435D01*
X1210520Y290076D01*
X1211450Y290700D01*
X1212225Y291534D01*
G01X1223850Y289659D02*
X1217650D01*
Y302159D01*
X1223850D01*
G01X1221370Y296117D02*
X1217650D01*
G01X1230360Y289242D02*
X1235940Y302159D01*
G01X1241985Y289659D02*
Y302159D01*
X1249115Y289659D01*
Y302159D01*
G01X1257950Y289659D02*
X1256710Y289867D01*
X1255625Y290700D01*
X1254695Y291951D01*
X1254075Y293409D01*
X1253765Y295076D01*
Y296742D01*
X1254075Y298409D01*
X1254695Y299867D01*
X1255625Y301117D01*
X1256710Y301951D01*
X1257950Y302159D01*
X1259190Y301951D01*
X1260275Y301117D01*
X1261205Y299867D01*
X1261825Y298409D01*
X1262135Y296742D01*
Y295076D01*
X1261825Y293409D01*
X1261205Y291951D01*
X1260275Y290700D01*
X1259190Y289867D01*
X1257950Y289659D01*
G01X1270350Y302159D02*
Y289659D01*
G01X1266785Y302159D02*
X1273915D01*
G01X1285850Y289659D02*
X1279650D01*
Y302159D01*
X1285850D01*
G01X1283370Y296117D02*
X1279650D01*
G01X1291895Y291325D02*
X1293135Y290284D01*
X1294530Y289659D01*
X1295770D01*
X1297010Y290284D01*
X1297940Y291325D01*
X1298405Y292784D01*
X1298095Y294242D01*
X1297320Y295492D01*
X1295925Y296326D01*
X1294065Y296742D01*
X1292980Y297576D01*
X1292515Y299034D01*
X1292825Y300492D01*
X1293600Y301534D01*
X1294685Y302159D01*
X1295770D01*
X1296855Y301742D01*
X1297785Y300701D01*
G01X1105000Y1105000D02*
Y1075000D01*
G01X1605000Y-325000D02*
Y-525000D01*
X1130000D01*
G01X1125197Y267500D02*
Y275000D01*
X1127063D01*
X1127810Y274625D01*
X1128370Y274125D01*
X1128837Y273375D01*
X1129210Y272500D01*
X1129303Y271250D01*
X1129210Y270000D01*
X1128837Y269125D01*
X1128370Y268375D01*
X1127810Y267875D01*
X1127063Y267500D01*
X1125197D01*
G01X1133630Y275000D02*
X1135870D01*
G01X1134750D02*
Y267500D01*
G01X1133630D02*
X1135870D01*
G01X1139917D02*
X1142250Y275000D01*
X1144583Y267500D01*
G01X1143743Y270125D02*
X1140757D01*
G01X1154823Y267500D02*
Y275000D01*
X1157250Y268750D01*
X1159677Y275000D01*
Y267500D01*
G01X1162417D02*
X1164750Y275000D01*
X1167083Y267500D01*
G01X1166243Y270125D02*
X1163257D01*
G01X1170290Y267500D02*
X1174210Y275000D01*
G01X1170290D02*
X1174210Y267500D01*
G01X1178070Y267250D02*
X1181430Y275000D01*
G01X1192790Y268500D02*
X1193537Y267875D01*
X1194377Y267500D01*
X1195123D01*
X1195870Y267875D01*
X1196430Y268500D01*
X1196710Y269375D01*
X1196523Y270250D01*
X1196057Y271000D01*
X1195217Y271500D01*
X1194097Y271750D01*
X1193443Y272250D01*
X1193163Y273125D01*
X1193350Y274000D01*
X1193817Y274625D01*
X1194470Y275000D01*
X1195123D01*
X1195777Y274750D01*
X1196337Y274125D01*
G01X1204117Y267500D02*
X1200383D01*
Y275000D01*
X1204117D01*
G01X1202623Y271375D02*
X1200383D01*
G01X1211617Y267500D02*
X1207883D01*
Y275000D01*
X1211617D01*
G01X1210123Y271375D02*
X1207883D01*
G01X1222603Y267500D02*
Y275000D01*
X1226897Y267500D01*
Y275000D01*
G01X1232250Y267500D02*
X1231503Y267625D01*
X1230850Y268125D01*
X1230290Y268875D01*
X1229917Y269750D01*
X1229730Y270750D01*
Y271750D01*
X1229917Y272750D01*
X1230290Y273625D01*
X1230850Y274375D01*
X1231503Y274875D01*
X1232250Y275000D01*
X1232997Y274875D01*
X1233650Y274375D01*
X1234210Y273625D01*
X1234583Y272750D01*
X1234770Y271750D01*
Y270750D01*
X1234583Y269750D01*
X1234210Y268875D01*
X1233650Y268125D01*
X1232997Y267625D01*
X1232250Y267500D01*
G01X1239750Y275000D02*
Y267500D01*
G01X1237603Y275000D02*
X1241897D01*
G01X1249117Y267500D02*
X1245383D01*
Y275000D01*
X1249117D01*
G01X1247623Y271375D02*
X1245383D01*
G01X1262250Y267500D02*
Y275000D01*
X1261130Y273500D01*
G01Y267500D02*
X1263370D01*
G01X1267697Y268625D02*
X1268257Y268000D01*
X1268910Y267625D01*
X1269750Y267500D01*
X1270590Y267750D01*
X1271243Y268250D01*
X1271710Y269125D01*
X1271803Y270125D01*
X1271617Y271125D01*
X1271150Y271750D01*
X1270497Y272250D01*
X1269843Y272375D01*
X1269190Y272250D01*
X1268350Y271750D01*
X1268630Y275000D01*
X1271150D01*
G01X1155000Y-525000D02*
Y-350000D01*
G01Y-500000D02*
X1605000D01*
G01X1155000Y-425000D02*
X1605000D01*
G01X1155000Y-342500D02*
Y-322500D01*
X1161000D01*
X1163000Y-323500D01*
X1164500Y-325833D01*
X1165000Y-328500D01*
X1164500Y-331167D01*
X1163250Y-333167D01*
X1161000Y-334167D01*
X1155000D01*
G01X1175000Y-342500D02*
Y-322500D01*
X1181250D01*
X1183250Y-323500D01*
X1184500Y-324833D01*
X1185000Y-327500D01*
X1184500Y-330167D01*
X1183000Y-331833D01*
X1181250Y-332834D01*
X1175000D01*
G01X1181250D02*
X1185000Y-342500D01*
G01X1197000Y-322500D02*
X1203000D01*
G01X1200000D02*
Y-342500D01*
G01X1197000D02*
X1203000D01*
G01X1213500D02*
Y-322500D01*
X1220000Y-339167D01*
X1226500Y-322500D01*
Y-342500D01*
G01X1233750D02*
X1240000Y-322500D01*
X1246250Y-342500D01*
G01X1244000Y-335500D02*
X1236000D01*
G01X1255000Y-342500D02*
Y-322500D01*
X1261250D01*
X1263250Y-323500D01*
X1264500Y-324833D01*
X1265000Y-327500D01*
X1264500Y-330167D01*
X1263000Y-331833D01*
X1261250Y-332834D01*
X1255000D01*
G01X1261250D02*
X1265000Y-342500D01*
G01X1280000D02*
Y-333500D01*
X1275000Y-322500D01*
G01X1285000D02*
X1280000Y-333500D01*
G01X1314750Y-339834D02*
X1316750Y-341500D01*
X1319000Y-342500D01*
X1321000D01*
X1323000Y-341500D01*
X1324500Y-339834D01*
X1325250Y-337500D01*
X1324750Y-335167D01*
X1323500Y-333167D01*
X1321250Y-331833D01*
X1318250Y-331167D01*
X1316500Y-329834D01*
X1315750Y-327500D01*
X1316250Y-325167D01*
X1317500Y-323500D01*
X1319250Y-322500D01*
X1321000D01*
X1322750Y-323167D01*
X1324250Y-324833D01*
G01X1337000Y-322500D02*
X1343000D01*
G01X1340000D02*
Y-342500D01*
G01X1337000D02*
X1343000D01*
G01X1354500D02*
Y-322500D01*
X1359500D01*
X1361500Y-323500D01*
X1363000Y-324833D01*
X1364250Y-326833D01*
X1365250Y-329167D01*
X1365500Y-332500D01*
X1365250Y-335834D01*
X1364250Y-338167D01*
X1363000Y-340167D01*
X1361500Y-341500D01*
X1359500Y-342500D01*
X1354500D01*
G01X1385000D02*
X1375000D01*
Y-322500D01*
X1385000D01*
G01X1381000Y-332166D02*
X1375000D01*
G01X1155000Y-350000D02*
X1605000D01*
G01X1165900Y-516434D02*
X1166700Y-517100D01*
X1167600Y-517500D01*
X1168400D01*
X1169200Y-517100D01*
X1169800Y-516434D01*
X1170100Y-515500D01*
X1169900Y-514567D01*
X1169400Y-513767D01*
X1168500Y-513233D01*
X1167300Y-512967D01*
X1166600Y-512433D01*
X1166300Y-511500D01*
X1166500Y-510567D01*
X1167000Y-509900D01*
X1167700Y-509500D01*
X1168400D01*
X1169100Y-509767D01*
X1169700Y-510433D01*
G01X1178200Y-510167D02*
X1177600Y-509767D01*
X1176900Y-509500D01*
X1176100D01*
X1175200Y-509900D01*
X1174500Y-510567D01*
X1174000Y-511367D01*
X1173600Y-512700D01*
X1173500Y-513900D01*
X1173700Y-515100D01*
X1174000Y-515900D01*
X1174600Y-516700D01*
X1175300Y-517233D01*
X1176000Y-517500D01*
X1176700D01*
X1177400Y-517233D01*
X1178000Y-516833D01*
X1178500Y-516300D01*
G01X1181500Y-517500D02*
X1184000Y-509500D01*
X1186500Y-517500D01*
G01X1185600Y-514700D02*
X1182400D01*
G01X1190000Y-509500D02*
Y-517500D01*
X1194000D01*
G01X1202000D02*
X1198000D01*
Y-509500D01*
X1202000D01*
G01X1200400Y-513367D02*
X1198000D01*
G01X1185500Y-466667D02*
X1184000Y-465667D01*
X1182250Y-465000D01*
X1180250D01*
X1178000Y-466000D01*
X1176250Y-467667D01*
X1175000Y-469667D01*
X1174000Y-473000D01*
X1173750Y-476000D01*
X1174250Y-479000D01*
X1175000Y-481000D01*
X1176500Y-483000D01*
X1178250Y-484333D01*
X1180000Y-485000D01*
X1181750D01*
X1183500Y-484333D01*
X1185000Y-483334D01*
X1186250Y-482001D01*
G01X1165900Y-443934D02*
X1166700Y-444600D01*
X1167600Y-445000D01*
X1168400D01*
X1169200Y-444600D01*
X1169800Y-443934D01*
X1170100Y-443000D01*
X1169900Y-442067D01*
X1169400Y-441267D01*
X1168500Y-440733D01*
X1167300Y-440467D01*
X1166600Y-439933D01*
X1166300Y-439000D01*
X1166500Y-438067D01*
X1167000Y-437400D01*
X1167700Y-437000D01*
X1168400D01*
X1169100Y-437267D01*
X1169700Y-437933D01*
G01X1174800Y-437000D02*
X1177200D01*
G01X1176000D02*
Y-445000D01*
G01X1174800D02*
X1177200D01*
G01X1182100Y-437000D02*
X1185900D01*
X1182100Y-445000D01*
X1185900D01*
G01X1194000D02*
X1190000D01*
Y-437000D01*
X1194000D01*
G01X1192400Y-440867D02*
X1190000D01*
G01X1220000Y-404000D02*
X1182000D01*
G01X1220000Y-405000D02*
X1180000D01*
G01X1165000Y-397000D02*
X1170000D01*
G01X1165000Y-396000D02*
X1170000D01*
G01X1165000Y-400000D02*
X1170000D01*
G01X1165000Y-399000D02*
X1170000D01*
G01X1165000Y-398000D02*
X1170000D01*
G01X1165000Y-403000D02*
X1170000D01*
G01X1165000Y-402000D02*
X1170000D01*
G01X1165000Y-401000D02*
X1170000D01*
G01X1165000Y-405000D02*
X1170000D01*
G01X1165000Y-404000D02*
X1170000D01*
G01X1220000Y-406000D02*
X1178000D01*
G01X1220000Y-407000D02*
X1176000D01*
G01X1220000Y-408000D02*
X1174000D01*
G01X1220000Y-409000D02*
X1172000D01*
G01X1165000Y-406000D02*
X1170000D01*
G01X1165000Y-409000D02*
X1170000D01*
G01X1165000Y-408000D02*
X1170000D01*
G01X1165000Y-407000D02*
X1170000D01*
G01X1165000Y-414000D02*
X1220000D01*
G01X1165000Y-413000D02*
X1220000D01*
G01X1165000Y-412000D02*
X1220000D01*
G01X1165000Y-411000D02*
X1220000D01*
G01X1165000Y-410000D02*
X1220000D01*
G01X1170000Y-365000D02*
Y-410000D01*
X1215000Y-387500D01*
X1170000Y-365000D01*
G01X1165000Y-360000D02*
X1220000D01*
Y-415000D01*
X1165000D01*
Y-360000D01*
G01Y-375000D02*
X1170000D01*
G01X1165000Y-394000D02*
X1170000D01*
G01X1165000Y-393000D02*
X1170000D01*
G01X1165000Y-395000D02*
X1170000D01*
G01X1165000Y-392000D02*
X1170000D01*
G01X1165000Y-391000D02*
X1170000D01*
G01X1165000Y-390000D02*
X1170000D01*
G01X1165000Y-389000D02*
X1170000D01*
G01X1165000Y-388000D02*
X1170000D01*
G01X1165000Y-387000D02*
X1170000D01*
G01X1165000Y-386000D02*
X1170000D01*
G01X1165000Y-385000D02*
X1170000D01*
G01X1165000Y-384000D02*
X1170000D01*
G01X1165000Y-383000D02*
X1170000D01*
G01X1165000Y-382000D02*
X1170000D01*
G01X1165000Y-381000D02*
X1170000D01*
G01X1165000Y-380000D02*
X1170000D01*
G01X1165000Y-379000D02*
X1170000D01*
G01X1165000Y-378000D02*
X1170000D01*
G01X1165000Y-377000D02*
X1170000D01*
G01X1165000Y-376000D02*
X1170000D01*
G01X1172000Y-366000D02*
X1220000D01*
G01X1174000Y-367000D02*
X1220000D01*
G01X1176000Y-368000D02*
X1220000D01*
G01X1178000Y-369000D02*
X1220000D01*
G01X1180000Y-370000D02*
X1220000D01*
G01X1182000Y-371000D02*
X1220000D01*
G01X1165000Y-374000D02*
X1170000D01*
G01X1165000Y-373000D02*
X1170000D01*
G01X1165000Y-372000D02*
X1170000D01*
G01X1165000Y-371000D02*
X1170000D01*
G01X1165000Y-370000D02*
X1170000D01*
G01X1165000Y-369000D02*
X1170000D01*
G01X1165000Y-368000D02*
X1170000D01*
G01X1165000Y-367000D02*
X1170000D01*
G01X1165000Y-366000D02*
X1170000D01*
G01X1165000Y-365000D02*
X1220000D01*
G01X1165000Y-364000D02*
X1220000D01*
G01X1165000Y-363000D02*
X1220000D01*
G01X1165000Y-362000D02*
X1220000D01*
G01X1165000Y-361000D02*
X1220000D01*
G01Y-396000D02*
X1198000D01*
G01X1220000Y-397000D02*
X1196000D01*
G01X1220000Y-398000D02*
X1194000D01*
G01X1220000Y-399000D02*
X1192000D01*
G01X1220000Y-400000D02*
X1190000D01*
G01X1220000Y-401000D02*
X1188000D01*
G01X1220000Y-402000D02*
X1186000D01*
G01X1220000Y-403000D02*
X1184000D01*
G01X1190000Y-375000D02*
X1220000D01*
G01X1192000Y-376000D02*
X1220000D01*
G01X1194000Y-377000D02*
X1220000D01*
G01X1196000Y-378000D02*
X1220000D01*
G01X1198000Y-379000D02*
X1220000D01*
G01X1200000Y-380000D02*
X1220000D01*
G01X1202000Y-381000D02*
X1220000D01*
G01X1202000Y-394000D02*
X1220000D01*
G01X1200000Y-395000D02*
X1220000D01*
G01X1186000Y-373000D02*
X1220000D01*
G01X1188000Y-374000D02*
X1220000D01*
G01X1184000Y-372000D02*
X1220000D01*
G01X1210250Y-468333D02*
X1211750Y-466334D01*
X1213500Y-465333D01*
X1215500Y-465000D01*
X1218000Y-465667D01*
X1219750Y-467333D01*
X1220250Y-469333D01*
X1220000Y-471334D01*
X1219000Y-473000D01*
X1214000Y-476333D01*
X1211750Y-478667D01*
X1210250Y-482001D01*
X1209750Y-485000D01*
X1220250D01*
G01X1238000D02*
Y-465000D01*
X1228750Y-479333D01*
X1241250D01*
G01X1249500Y-481000D02*
X1251000Y-483334D01*
X1253000Y-484667D01*
X1255250Y-485000D01*
X1257250Y-484667D01*
X1259250Y-483000D01*
X1260500Y-481000D01*
X1260750Y-479000D01*
X1260250Y-476667D01*
X1258500Y-475000D01*
X1256750Y-474333D01*
X1254500D01*
G01X1256750D02*
X1258250Y-473333D01*
X1259500Y-471667D01*
X1260000Y-469667D01*
X1259500Y-467667D01*
X1258250Y-466000D01*
X1256000Y-465000D01*
X1253750Y-465333D01*
X1251500Y-466667D01*
G01X1269500Y-482001D02*
X1271000Y-483667D01*
X1272750Y-484667D01*
X1275000Y-485000D01*
X1277250Y-484333D01*
X1279000Y-483000D01*
X1280250Y-480667D01*
X1280500Y-478000D01*
X1280000Y-475334D01*
X1278750Y-473667D01*
X1277000Y-472334D01*
X1275250Y-472000D01*
X1273500Y-472334D01*
X1271250Y-473667D01*
X1272000Y-465000D01*
X1278750D01*
G01X1289500Y-482001D02*
X1291000Y-483667D01*
X1292750Y-484667D01*
X1295000Y-485000D01*
X1297250Y-484333D01*
X1299000Y-483000D01*
X1300250Y-480667D01*
X1300500Y-478000D01*
X1300000Y-475334D01*
X1298750Y-473667D01*
X1297000Y-472334D01*
X1295250Y-472000D01*
X1293500Y-472334D01*
X1291250Y-473667D01*
X1292000Y-465000D01*
X1298750D01*
G01X1205000Y-500000D02*
Y-425000D01*
G01X1221100Y-445000D02*
Y-437000D01*
X1224900D01*
G01X1223500Y-440867D02*
X1221100D01*
G01X1228900Y-443934D02*
X1229700Y-444600D01*
X1230600Y-445000D01*
X1231400D01*
X1232200Y-444600D01*
X1232800Y-443934D01*
X1233100Y-443000D01*
X1232900Y-442067D01*
X1232400Y-441267D01*
X1231500Y-440733D01*
X1230300Y-440467D01*
X1229600Y-439933D01*
X1229300Y-439000D01*
X1229500Y-438067D01*
X1230000Y-437400D01*
X1230700Y-437000D01*
X1231400D01*
X1232100Y-437267D01*
X1232700Y-437933D01*
G01X1241200Y-437667D02*
X1240600Y-437267D01*
X1239900Y-437000D01*
X1239100D01*
X1238200Y-437400D01*
X1237500Y-438067D01*
X1237000Y-438867D01*
X1236600Y-440200D01*
X1236500Y-441400D01*
X1236700Y-442600D01*
X1237000Y-443400D01*
X1237600Y-444200D01*
X1238300Y-444733D01*
X1239000Y-445000D01*
X1239700D01*
X1240400Y-444733D01*
X1241000Y-444333D01*
X1241500Y-443800D01*
G01X1244400Y-445000D02*
Y-437000D01*
X1247000Y-443667D01*
X1249600Y-437000D01*
Y-445000D01*
G01X1260700D02*
Y-437000D01*
X1265300Y-445000D01*
Y-437000D01*
G01X1271000Y-445000D02*
X1270200Y-444867D01*
X1269500Y-444333D01*
X1268900Y-443533D01*
X1268500Y-442600D01*
X1268300Y-441533D01*
Y-440467D01*
X1268500Y-439400D01*
X1268900Y-438467D01*
X1269500Y-437667D01*
X1270200Y-437133D01*
X1271000Y-437000D01*
X1271800Y-437133D01*
X1272500Y-437667D01*
X1273100Y-438467D01*
X1273500Y-439400D01*
X1273700Y-440467D01*
Y-441533D01*
X1273500Y-442600D01*
X1273100Y-443533D01*
X1272500Y-444333D01*
X1271800Y-444867D01*
X1271000Y-445000D01*
G01X1220000Y-387500D02*
X1215000D01*
G01X1204000Y-382000D02*
X1220000D01*
G01X1206000Y-383000D02*
X1220000D01*
G01X1208000Y-384000D02*
X1220000D01*
G01X1210000Y-385000D02*
X1220000D01*
G01X1212000Y-386000D02*
X1220000D01*
G01X1214000Y-387000D02*
X1220000D01*
G01X1214000Y-388000D02*
X1220000D01*
G01X1212000Y-389000D02*
X1220000D01*
G01X1210000Y-390000D02*
X1220000D01*
G01X1208000Y-391000D02*
X1220000D01*
G01X1206000Y-392000D02*
X1220000D01*
G01X1204000Y-393000D02*
X1220000D01*
G01X1243750Y-517500D02*
Y-507500D01*
X1242250Y-509500D01*
G01Y-517500D02*
X1245250D01*
G01X1251500Y-517833D02*
X1256000Y-507500D01*
G01X1263750Y-517500D02*
Y-507500D01*
X1262250Y-509500D01*
G01Y-517500D02*
X1265250D01*
G01X1305000Y-525000D02*
Y-425000D01*
G01X1310800Y-445000D02*
Y-437000D01*
X1312800D01*
X1313600Y-437400D01*
X1314200Y-437933D01*
X1314700Y-438733D01*
X1315100Y-439667D01*
X1315200Y-441000D01*
X1315100Y-442333D01*
X1314700Y-443267D01*
X1314200Y-444067D01*
X1313600Y-444600D01*
X1312800Y-445000D01*
X1310800D01*
G01X1319000D02*
Y-437000D01*
X1321500D01*
X1322300Y-437400D01*
X1322800Y-437933D01*
X1323000Y-439000D01*
X1322800Y-440067D01*
X1322200Y-440733D01*
X1321500Y-441133D01*
X1319000D01*
G01X1321500D02*
X1323000Y-445000D01*
G01X1326500D02*
X1329000Y-437000D01*
X1331500Y-445000D01*
G01X1330600Y-442200D02*
X1327400D01*
G01X1334000Y-437000D02*
X1335400Y-445000D01*
X1337000Y-437000D01*
X1338600Y-445000D01*
X1340000Y-437000D01*
G01X1343800D02*
X1346200D01*
G01X1345000D02*
Y-445000D01*
G01X1343800D02*
X1346200D01*
G01X1350700D02*
Y-437000D01*
X1355300Y-445000D01*
Y-437000D01*
G01X1361600Y-441000D02*
X1363600D01*
Y-443400D01*
X1363000Y-444200D01*
X1362300Y-444733D01*
X1361300Y-445000D01*
X1360300Y-444733D01*
X1359600Y-444200D01*
X1359000Y-443400D01*
X1358600Y-442467D01*
X1358400Y-441400D01*
Y-440467D01*
X1358600Y-439667D01*
X1359000Y-438733D01*
X1359600Y-437933D01*
X1360200Y-437400D01*
X1361000Y-437000D01*
X1361700D01*
X1362500Y-437267D01*
X1363100Y-437800D01*
G01X1374700Y-445000D02*
Y-437000D01*
X1379300Y-445000D01*
Y-437000D01*
G01X1382800D02*
Y-442733D01*
X1383200Y-443934D01*
X1384000Y-444733D01*
X1385000Y-445000D01*
X1386000Y-444733D01*
X1386800Y-443934D01*
X1387200Y-442733D01*
Y-437000D01*
G01X1390400Y-445000D02*
Y-437000D01*
X1393000Y-443667D01*
X1395600Y-437000D01*
Y-445000D01*
G01X1401800Y-440733D02*
X1402200Y-440333D01*
X1402500Y-439667D01*
X1402700Y-438733D01*
X1402500Y-437933D01*
X1402100Y-437400D01*
X1401400Y-437000D01*
X1398700D01*
Y-445000D01*
X1402000D01*
X1402700Y-444467D01*
X1403100Y-443667D01*
X1403300Y-442733D01*
X1403100Y-441800D01*
X1402500Y-441000D01*
X1401800Y-440733D01*
X1398700D01*
G01X1411000Y-445000D02*
X1407000D01*
Y-437000D01*
X1411000D01*
G01X1409400Y-440867D02*
X1407000D01*
G01X1415000Y-445000D02*
Y-437000D01*
X1417500D01*
X1418300Y-437400D01*
X1418800Y-437933D01*
X1419000Y-439000D01*
X1418800Y-440067D01*
X1418200Y-440733D01*
X1417500Y-441133D01*
X1415000D01*
G01X1417500D02*
X1419000Y-445000D01*
G01X1322500Y-465000D02*
X1320500Y-465667D01*
X1319000Y-467333D01*
X1318000Y-469333D01*
X1317250Y-472000D01*
X1317000Y-475000D01*
X1317250Y-478000D01*
X1318000Y-480667D01*
X1319000Y-482667D01*
X1320500Y-484333D01*
X1322500Y-485000D01*
X1324500Y-484333D01*
X1326000Y-482667D01*
X1327000Y-480667D01*
X1327750Y-478000D01*
X1328000Y-475000D01*
X1327750Y-472000D01*
X1327000Y-469333D01*
X1326000Y-467333D01*
X1324500Y-465667D01*
X1322500Y-465000D01*
G01X1338250Y-482667D02*
X1340000Y-484333D01*
X1342000Y-485000D01*
X1344000Y-484333D01*
X1345750Y-482334D01*
X1347000Y-479333D01*
X1347500Y-476333D01*
Y-472667D01*
X1347000Y-469667D01*
X1345750Y-467000D01*
X1344250Y-465667D01*
X1342500Y-465000D01*
X1340500Y-465667D01*
X1339000Y-467000D01*
X1338000Y-469000D01*
X1337500Y-471667D01*
X1338000Y-474000D01*
X1339250Y-476333D01*
X1340750Y-477667D01*
X1342500Y-478000D01*
X1344500Y-477334D01*
X1346000Y-475667D01*
X1347500Y-472667D01*
G01X1359250Y-478334D02*
X1365750D01*
G01X1382500Y-465000D02*
X1380500Y-465667D01*
X1379000Y-467333D01*
X1378000Y-469333D01*
X1377250Y-472000D01*
X1377000Y-475000D01*
X1377250Y-478000D01*
X1378000Y-480667D01*
X1379000Y-482667D01*
X1380500Y-484333D01*
X1382500Y-485000D01*
X1384500Y-484333D01*
X1386000Y-482667D01*
X1387000Y-480667D01*
X1387750Y-478000D01*
X1388000Y-475000D01*
X1387750Y-472000D01*
X1387000Y-469333D01*
X1386000Y-467333D01*
X1384500Y-465667D01*
X1382500Y-465000D01*
G01X1397750Y-476667D02*
X1399500Y-474333D01*
X1401000Y-473000D01*
X1403000Y-472334D01*
X1404750Y-473000D01*
X1406000Y-474333D01*
X1407000Y-476333D01*
X1407250Y-478667D01*
X1407000Y-480667D01*
X1406000Y-482667D01*
X1404500Y-484333D01*
X1402750Y-485000D01*
X1400750Y-484333D01*
X1399000Y-482334D01*
X1398000Y-479333D01*
X1397750Y-476000D01*
X1398250Y-471667D01*
X1399000Y-469333D01*
X1400250Y-467000D01*
X1402000Y-465333D01*
X1403750Y-465000D01*
X1405500Y-465667D01*
X1406750Y-467333D01*
G01X1417750Y-476667D02*
X1419500Y-474333D01*
X1421000Y-473000D01*
X1423000Y-472334D01*
X1424750Y-473000D01*
X1426000Y-474333D01*
X1427000Y-476333D01*
X1427250Y-478667D01*
X1427000Y-480667D01*
X1426000Y-482667D01*
X1424500Y-484333D01*
X1422750Y-485000D01*
X1420750Y-484333D01*
X1419000Y-482334D01*
X1418000Y-479333D01*
X1417750Y-476000D01*
X1418250Y-471667D01*
X1419000Y-469333D01*
X1420250Y-467000D01*
X1422000Y-465333D01*
X1423750Y-465000D01*
X1425500Y-465667D01*
X1426750Y-467333D01*
G01X1437000Y-482001D02*
X1438500Y-483667D01*
X1440250Y-484667D01*
X1442500Y-485000D01*
X1444750Y-484333D01*
X1446500Y-483000D01*
X1447750Y-480667D01*
X1448000Y-478000D01*
X1447500Y-475334D01*
X1446250Y-473667D01*
X1444500Y-472334D01*
X1442750Y-472000D01*
X1441000Y-472334D01*
X1438750Y-473667D01*
X1439500Y-465000D01*
X1446250D01*
G01X1457000Y-481000D02*
X1458500Y-483334D01*
X1460500Y-484667D01*
X1462750Y-485000D01*
X1464750Y-484667D01*
X1466750Y-483000D01*
X1468000Y-481000D01*
X1468250Y-479000D01*
X1467750Y-476667D01*
X1466000Y-475000D01*
X1464250Y-474333D01*
X1462000D01*
G01X1464250D02*
X1465750Y-473333D01*
X1467000Y-471667D01*
X1467500Y-469667D01*
X1467000Y-467667D01*
X1465750Y-466000D01*
X1463500Y-465000D01*
X1461250Y-465333D01*
X1459000Y-466667D01*
G01X1485500Y-485000D02*
Y-465000D01*
X1476250Y-479333D01*
X1488750D01*
G01X1380000Y-560000D02*
Y-535000D01*
X1376220Y-540000D01*
G01Y-560000D02*
X1383779D01*
G01X1380000Y1085000D02*
Y1110000D01*
X1376220Y1105000D01*
G01Y1085000D02*
X1383779D01*
G01X1426000Y-407000D02*
X1427400Y-415000D01*
X1429000Y-407000D01*
X1430600Y-415000D01*
X1432000Y-407000D01*
G01X1435800D02*
X1438200D01*
G01X1437000D02*
Y-415000D01*
G01X1435800D02*
X1438200D01*
G01X1443000Y-407000D02*
Y-415000D01*
X1447000D01*
G01X1450400D02*
Y-407000D01*
X1453000Y-413667D01*
X1455600Y-407000D01*
Y-415000D01*
G01X1459800Y-407000D02*
X1462200D01*
G01X1461000D02*
Y-415000D01*
G01X1459800D02*
X1462200D01*
G01X1466700D02*
Y-407000D01*
X1471300Y-415000D01*
Y-407000D01*
G01X1477600Y-411000D02*
X1479600D01*
Y-413400D01*
X1479000Y-414200D01*
X1478300Y-414733D01*
X1477300Y-415000D01*
X1476300Y-414733D01*
X1475600Y-414200D01*
X1475000Y-413400D01*
X1474600Y-412467D01*
X1474400Y-411400D01*
Y-410467D01*
X1474600Y-409667D01*
X1475000Y-408733D01*
X1475600Y-407933D01*
X1476200Y-407400D01*
X1477000Y-407000D01*
X1477700D01*
X1478500Y-407267D01*
X1479100Y-407800D01*
G01X1485000Y-407000D02*
Y-415000D01*
G01X1482700Y-407000D02*
X1487300D01*
G01X1493000Y-415000D02*
X1492200Y-414867D01*
X1491500Y-414333D01*
X1490900Y-413533D01*
X1490500Y-412600D01*
X1490300Y-411533D01*
Y-410467D01*
X1490500Y-409400D01*
X1490900Y-408467D01*
X1491500Y-407667D01*
X1492200Y-407133D01*
X1493000Y-407000D01*
X1493800Y-407133D01*
X1494500Y-407667D01*
X1495100Y-408467D01*
X1495500Y-409400D01*
X1495700Y-410467D01*
Y-411533D01*
X1495500Y-412600D01*
X1495100Y-413533D01*
X1494500Y-414333D01*
X1493800Y-414867D01*
X1493000Y-415000D01*
G01X1498700D02*
Y-407000D01*
X1503300Y-415000D01*
Y-407000D01*
G01X1508800Y-416467D02*
X1509200Y-414733D01*
G01X1522400Y-415000D02*
Y-407000D01*
X1525000Y-413667D01*
X1527600Y-407000D01*
Y-415000D01*
G01X1530500D02*
X1533000Y-407000D01*
X1535500Y-415000D01*
G01X1534600Y-412200D02*
X1531400D01*
G01X1549000Y-407000D02*
X1548200Y-407267D01*
X1547600Y-407933D01*
X1547200Y-408733D01*
X1546900Y-409800D01*
X1546800Y-411000D01*
X1546900Y-412200D01*
X1547200Y-413267D01*
X1547600Y-414067D01*
X1548200Y-414733D01*
X1549000Y-415000D01*
X1549800Y-414733D01*
X1550400Y-414067D01*
X1550800Y-413267D01*
X1551100Y-412200D01*
X1551200Y-411000D01*
X1551100Y-409800D01*
X1550800Y-408733D01*
X1550400Y-407933D01*
X1549800Y-407267D01*
X1549000Y-407000D01*
G01X1557000Y-415000D02*
Y-407000D01*
X1555800Y-408600D01*
G01Y-415000D02*
X1558200D01*
G01X1565000D02*
X1565700Y-414867D01*
X1566500Y-414467D01*
X1567000Y-413800D01*
X1567200Y-412867D01*
X1567000Y-411934D01*
X1566400Y-411133D01*
X1565500Y-410733D01*
X1564500D01*
X1563900Y-410467D01*
X1563400Y-409800D01*
X1563200Y-408867D01*
X1563500Y-407933D01*
X1564200Y-407267D01*
X1565000Y-407000D01*
X1565800Y-407267D01*
X1566500Y-407933D01*
X1566800Y-408867D01*
X1566600Y-409800D01*
X1566100Y-410467D01*
X1565500Y-410733D01*
X1564500D01*
X1563600Y-411133D01*
X1563000Y-411934D01*
X1562800Y-412867D01*
X1563000Y-413800D01*
X1563500Y-414467D01*
X1564300Y-414867D01*
X1565000Y-415000D01*
G01X1573000D02*
X1573700Y-414867D01*
X1574500Y-414467D01*
X1575000Y-413800D01*
X1575200Y-412867D01*
X1575000Y-411934D01*
X1574400Y-411133D01*
X1573500Y-410733D01*
X1572500D01*
X1571900Y-410467D01*
X1571400Y-409800D01*
X1571200Y-408867D01*
X1571500Y-407933D01*
X1572200Y-407267D01*
X1573000Y-407000D01*
X1573800Y-407267D01*
X1574500Y-407933D01*
X1574800Y-408867D01*
X1574600Y-409800D01*
X1574100Y-410467D01*
X1573500Y-410733D01*
X1572500D01*
X1571600Y-411133D01*
X1571000Y-411934D01*
X1570800Y-412867D01*
X1571000Y-413800D01*
X1571500Y-414467D01*
X1572300Y-414867D01*
X1573000Y-415000D01*
G01X1580800D02*
X1581000Y-413267D01*
X1581300Y-411800D01*
X1581700Y-410467D01*
X1582200Y-409000D01*
X1583000Y-407000D01*
X1579000D01*
G01X1441000Y-400000D02*
X1441700Y-399867D01*
X1442500Y-399467D01*
X1443000Y-398800D01*
X1443200Y-397867D01*
X1443000Y-396934D01*
X1442400Y-396133D01*
X1441500Y-395733D01*
X1440500D01*
X1439900Y-395467D01*
X1439400Y-394800D01*
X1439200Y-393867D01*
X1439500Y-392933D01*
X1440200Y-392267D01*
X1441000Y-392000D01*
X1441800Y-392267D01*
X1442500Y-392933D01*
X1442800Y-393867D01*
X1442600Y-394800D01*
X1442100Y-395467D01*
X1441500Y-395733D01*
X1440500D01*
X1439600Y-396133D01*
X1439000Y-396934D01*
X1438800Y-397867D01*
X1439000Y-398800D01*
X1439500Y-399467D01*
X1440300Y-399867D01*
X1441000Y-400000D01*
G01X1449000Y-392000D02*
X1448200Y-392267D01*
X1447600Y-392933D01*
X1447200Y-393733D01*
X1446900Y-394800D01*
X1446800Y-396000D01*
X1446900Y-397200D01*
X1447200Y-398267D01*
X1447600Y-399067D01*
X1448200Y-399733D01*
X1449000Y-400000D01*
X1449800Y-399733D01*
X1450400Y-399067D01*
X1450800Y-398267D01*
X1451100Y-397200D01*
X1451200Y-396000D01*
X1451100Y-394800D01*
X1450800Y-393733D01*
X1450400Y-392933D01*
X1449800Y-392267D01*
X1449000Y-392000D01*
G01X1458200Y-400000D02*
Y-392000D01*
X1454500Y-397733D01*
X1459500D01*
G01X1470000Y-392000D02*
X1471400Y-400000D01*
X1473000Y-392000D01*
X1474600Y-400000D01*
X1476000Y-392000D01*
G01X1481000Y-400000D02*
X1480200Y-399867D01*
X1479500Y-399333D01*
X1478900Y-398533D01*
X1478500Y-397600D01*
X1478300Y-396533D01*
Y-395467D01*
X1478500Y-394400D01*
X1478900Y-393467D01*
X1479500Y-392667D01*
X1480200Y-392133D01*
X1481000Y-392000D01*
X1481800Y-392133D01*
X1482500Y-392667D01*
X1483100Y-393467D01*
X1483500Y-394400D01*
X1483700Y-395467D01*
Y-396533D01*
X1483500Y-397600D01*
X1483100Y-398533D01*
X1482500Y-399333D01*
X1481800Y-399867D01*
X1481000Y-400000D01*
G01X1489800Y-395733D02*
X1490200Y-395333D01*
X1490500Y-394667D01*
X1490700Y-393733D01*
X1490500Y-392933D01*
X1490100Y-392400D01*
X1489400Y-392000D01*
X1486700D01*
Y-400000D01*
X1490000D01*
X1490700Y-399467D01*
X1491100Y-398667D01*
X1491300Y-397733D01*
X1491100Y-396800D01*
X1490500Y-396000D01*
X1489800Y-395733D01*
X1486700D01*
G01X1494800Y-392000D02*
Y-397733D01*
X1495200Y-398934D01*
X1496000Y-399733D01*
X1497000Y-400000D01*
X1498000Y-399733D01*
X1498800Y-398934D01*
X1499200Y-397733D01*
Y-392000D01*
G01X1503000Y-400000D02*
Y-392000D01*
X1505500D01*
X1506300Y-392400D01*
X1506800Y-392933D01*
X1507000Y-394000D01*
X1506800Y-395067D01*
X1506200Y-395733D01*
X1505500Y-396133D01*
X1503000D01*
G01X1505500D02*
X1507000Y-400000D01*
G01X1510700D02*
Y-392000D01*
X1515300Y-400000D01*
Y-392000D01*
G01X1526900Y-398934D02*
X1527700Y-399600D01*
X1528600Y-400000D01*
X1529400D01*
X1530200Y-399600D01*
X1530800Y-398934D01*
X1531100Y-398000D01*
X1530900Y-397067D01*
X1530400Y-396267D01*
X1529500Y-395733D01*
X1528300Y-395467D01*
X1527600Y-394933D01*
X1527300Y-394000D01*
X1527500Y-393067D01*
X1528000Y-392400D01*
X1528700Y-392000D01*
X1529400D01*
X1530100Y-392267D01*
X1530700Y-392933D01*
G01X1537000Y-392000D02*
Y-400000D01*
G01X1534700Y-392000D02*
X1539300D01*
G01X1543000Y-400000D02*
Y-392000D01*
X1545500D01*
X1546300Y-392400D01*
X1546800Y-392933D01*
X1547000Y-394000D01*
X1546800Y-395067D01*
X1546200Y-395733D01*
X1545500Y-396133D01*
X1543000D01*
G01X1545500D02*
X1547000Y-400000D01*
G01X1555000D02*
X1551000D01*
Y-392000D01*
X1555000D01*
G01X1553400Y-395867D02*
X1551000D01*
G01X1563000Y-400000D02*
X1559000D01*
Y-392000D01*
X1563000D01*
G01X1561400Y-395867D02*
X1559000D01*
G01X1569000Y-392000D02*
Y-400000D01*
G01X1566700Y-392000D02*
X1571300D01*
G01X1455000Y-500000D02*
Y-525000D01*
G01X1460900Y-516434D02*
X1461700Y-517100D01*
X1462600Y-517500D01*
X1463400D01*
X1464200Y-517100D01*
X1464800Y-516434D01*
X1465100Y-515500D01*
X1464900Y-514567D01*
X1464400Y-513767D01*
X1463500Y-513233D01*
X1462300Y-512967D01*
X1461600Y-512433D01*
X1461300Y-511500D01*
X1461500Y-510567D01*
X1462000Y-509900D01*
X1462700Y-509500D01*
X1463400D01*
X1464100Y-509767D01*
X1464700Y-510433D01*
G01X1468900Y-517500D02*
Y-509500D01*
G01X1473100D02*
Y-517500D01*
G01Y-513500D02*
X1468900D01*
G01X1481000Y-517500D02*
X1477000D01*
Y-509500D01*
X1481000D01*
G01X1479400Y-513367D02*
X1477000D01*
G01X1489000Y-517500D02*
X1485000D01*
Y-509500D01*
X1489000D01*
G01X1487400Y-513367D02*
X1485000D01*
G01X1495000Y-509500D02*
Y-517500D01*
G01X1492700Y-509500D02*
X1497300D01*
G01X1467250Y-385000D02*
Y-375000D01*
X1469750D01*
X1470750Y-375500D01*
X1471500Y-376167D01*
X1472125Y-377167D01*
X1472625Y-378334D01*
X1472750Y-380000D01*
X1472625Y-381667D01*
X1472125Y-382833D01*
X1471500Y-383834D01*
X1470750Y-384500D01*
X1469750Y-385000D01*
X1467250D01*
G01X1478500Y-375000D02*
X1481500D01*
G01X1480000D02*
Y-385000D01*
G01X1478500D02*
X1481500D01*
G01X1486875Y-375000D02*
X1490000Y-385000D01*
X1493125Y-375000D01*
G01X1498500D02*
X1501500D01*
G01X1500000D02*
Y-385000D01*
G01X1498500D02*
X1501500D01*
G01X1507375Y-383667D02*
X1508375Y-384500D01*
X1509500Y-385000D01*
X1510500D01*
X1511500Y-384500D01*
X1512250Y-383667D01*
X1512625Y-382500D01*
X1512375Y-381334D01*
X1511750Y-380333D01*
X1510625Y-379667D01*
X1509125Y-379333D01*
X1508250Y-378667D01*
X1507875Y-377500D01*
X1508125Y-376333D01*
X1508750Y-375500D01*
X1509625Y-375000D01*
X1510500D01*
X1511375Y-375333D01*
X1512125Y-376167D01*
G01X1518500Y-375000D02*
X1521500D01*
G01X1520000D02*
Y-385000D01*
G01X1518500D02*
X1521500D01*
G01X1530000D02*
X1529000Y-384833D01*
X1528125Y-384167D01*
X1527375Y-383167D01*
X1526875Y-382000D01*
X1526625Y-380667D01*
Y-379333D01*
X1526875Y-378000D01*
X1527375Y-376833D01*
X1528125Y-375833D01*
X1529000Y-375167D01*
X1530000Y-375000D01*
X1531000Y-375167D01*
X1531875Y-375833D01*
X1532625Y-376833D01*
X1533125Y-378000D01*
X1533375Y-379333D01*
Y-380667D01*
X1533125Y-382000D01*
X1532625Y-383167D01*
X1531875Y-384167D01*
X1531000Y-384833D01*
X1530000Y-385000D01*
G01X1537125D02*
Y-375000D01*
X1542875Y-385000D01*
Y-375000D01*
G01X1491250Y-360000D02*
X1493000Y-370000D01*
X1495000Y-360000D01*
X1497000Y-370000D01*
X1498750Y-360000D01*
G01X1501250D02*
X1503000Y-370000D01*
X1505000Y-360000D01*
X1507000Y-370000D01*
X1508750Y-360000D01*
G01X1511750Y-370000D02*
Y-360000D01*
X1515000Y-368333D01*
X1518250Y-360000D01*
Y-370000D01*
G01X1513250Y-516000D02*
X1514000Y-517167D01*
X1515000Y-517833D01*
X1516125Y-518000D01*
X1517125Y-517833D01*
X1518125Y-517000D01*
X1518750Y-516000D01*
X1518875Y-515000D01*
X1518625Y-513834D01*
X1517750Y-513000D01*
X1516875Y-512667D01*
X1515750D01*
G01X1516875D02*
X1517625Y-512167D01*
X1518250Y-511334D01*
X1518500Y-510333D01*
X1518250Y-509333D01*
X1517625Y-508500D01*
X1516500Y-508000D01*
X1515375Y-508167D01*
X1514250Y-508833D01*
G01X1538000Y-517500D02*
X1537200Y-517367D01*
X1536500Y-516833D01*
X1535900Y-516033D01*
X1535500Y-515100D01*
X1535300Y-514033D01*
Y-512967D01*
X1535500Y-511900D01*
X1535900Y-510967D01*
X1536500Y-510167D01*
X1537200Y-509633D01*
X1538000Y-509500D01*
X1538800Y-509633D01*
X1539500Y-510167D01*
X1540100Y-510967D01*
X1540500Y-511900D01*
X1540700Y-512967D01*
Y-514033D01*
X1540500Y-515100D01*
X1540100Y-516033D01*
X1539500Y-516833D01*
X1538800Y-517367D01*
X1538000Y-517500D01*
G01X1544100D02*
Y-509500D01*
X1547900D01*
G01X1546500Y-513367D02*
X1544100D01*
G01X1558500Y-515500D02*
X1559250Y-516667D01*
X1560250Y-517333D01*
X1561375Y-517500D01*
X1562375Y-517333D01*
X1563375Y-516500D01*
X1564000Y-515500D01*
X1564125Y-514500D01*
X1563875Y-513334D01*
X1563000Y-512500D01*
X1562125Y-512167D01*
X1561000D01*
G01X1562125D02*
X1562875Y-511667D01*
X1563500Y-510834D01*
X1563750Y-509833D01*
X1563500Y-508833D01*
X1562875Y-508000D01*
X1561750Y-507500D01*
X1560625Y-507667D01*
X1559500Y-508333D01*
G01X1555000Y-500000D02*
Y-425000D01*
G01X1568500Y-445000D02*
Y-437000D01*
X1571000D01*
X1571800Y-437400D01*
X1572300Y-437933D01*
X1572500Y-439000D01*
X1572300Y-440067D01*
X1571700Y-440733D01*
X1571000Y-441133D01*
X1568500D01*
G01X1571000D02*
X1572500Y-445000D01*
G01X1580500D02*
X1576500D01*
Y-437000D01*
X1580500D01*
G01X1578900Y-440867D02*
X1576500D01*
G01X1584000Y-437000D02*
X1586500Y-445000D01*
X1589000Y-437000D01*
G01X1582000Y-474333D02*
X1583000Y-473333D01*
X1583750Y-471667D01*
X1584250Y-469333D01*
X1583750Y-467333D01*
X1582750Y-466000D01*
X1581000Y-465000D01*
X1574250D01*
Y-485000D01*
X1582500D01*
X1584250Y-483667D01*
X1585250Y-481667D01*
X1585750Y-479333D01*
X1585250Y-477000D01*
X1583750Y-475000D01*
X1582000Y-474333D01*
X1574250D01*
G01X1605000Y-150000D02*
X1635000D01*
G01X1611000Y275000D02*
X1621000Y270000D01*
G01Y280000D02*
X1611000Y275000D01*
G01X1609500D02*
X1622000Y268500D01*
G01Y281500D02*
X1609500Y275000D01*
G01X1608000D02*
X1623000Y267000D01*
G01Y283000D02*
X1608000Y275000D01*
G01X1606500D02*
X1624000Y265500D01*
G01Y284500D02*
X1606500Y275000D01*
G01X1605000D02*
X1625000Y264000D01*
G01Y286000D02*
X1605000Y275000D01*
G01Y700000D02*
X1635000D01*
G01X1617125Y-375000D02*
X1625000Y-350000D01*
X1632875Y-375000D01*
G01X1630040Y-366250D02*
X1619960D01*
G01X1627520Y63334D02*
X1628780Y64583D01*
X1629725Y66666D01*
X1630355Y69584D01*
X1629725Y72083D01*
X1628465Y73750D01*
X1626260Y75000D01*
X1617755D01*
Y50000D01*
X1628150D01*
X1630355Y51666D01*
X1631615Y54167D01*
X1632245Y57083D01*
X1631615Y59999D01*
X1629725Y62500D01*
X1627520Y63334D01*
X1617755D01*
G01X1621000Y270000D02*
Y280000D01*
G01X1622000Y268500D02*
Y274500D01*
G01X1623000Y267000D02*
Y273500D01*
G01X1624000Y265500D02*
Y272500D01*
G01X1625000Y264000D02*
Y271500D01*
G01X1616500Y275000D02*
X1617500D01*
G01X1618000Y274000D02*
Y276000D01*
G01X1615500Y275000D02*
X1618000Y274000D01*
G01Y276000D02*
X1615500Y275000D01*
G01X1619000Y273000D02*
Y277000D01*
G01X1614000Y275000D02*
X1619000Y273000D01*
G01Y277000D02*
X1614000Y275000D01*
G01X1620000Y271500D02*
Y278500D01*
G01X1612500Y275000D02*
X1620000Y271500D01*
G01Y278500D02*
X1612500Y275000D01*
G01X1622000Y274500D02*
X1642000D01*
G01X1622000Y275500D02*
Y281500D01*
G01X1642000Y275500D02*
X1622000D01*
G01X1623000Y273500D02*
X1643000D01*
G01X1623000Y276500D02*
Y283000D01*
G01X1643000Y276500D02*
X1623000D01*
G01X1624000Y272500D02*
X1644000D01*
G01X1624000Y277500D02*
Y284500D01*
G01X1644000Y277500D02*
X1624000D01*
G01X1625000Y271500D02*
X1645000D01*
G01X1625000Y278500D02*
Y286000D01*
G01X1645000Y278500D02*
X1625000D01*
G01X1631930Y497916D02*
X1630040Y499167D01*
X1627835Y500000D01*
X1625315D01*
X1622480Y498750D01*
X1620275Y496667D01*
X1618700Y494166D01*
X1617440Y490000D01*
X1617125Y486250D01*
X1617755Y482500D01*
X1618700Y480000D01*
X1620590Y477499D01*
X1622795Y475833D01*
X1625000Y475000D01*
X1627205D01*
X1629410Y475833D01*
X1631300Y477083D01*
X1632875Y478749D01*
G01X1618070Y900000D02*
Y925000D01*
X1624370D01*
X1626890Y923750D01*
X1628780Y922083D01*
X1630355Y919584D01*
X1631615Y916666D01*
X1631930Y912500D01*
X1631615Y908333D01*
X1630355Y905416D01*
X1628780Y902916D01*
X1626890Y901250D01*
X1624370Y900000D01*
X1618070D01*
G01X1642000Y274500D02*
Y275500D01*
G01X1643000Y273500D02*
Y276500D01*
G01X1644000Y272500D02*
Y277500D01*
G01X1645000Y271500D02*
Y278500D01*
M02*
