G04 ================== begin FILE IDENTIFICATION RECORD ==================*
G04 Layout Name:  C:/tmp/20_066534b/worklib/02_066534b_top/physical/08_066534b.brd*
G04 Film Name:    l2_gnd*
G04 File Format:  Gerber RS274X*
G04 File Origin:  Cadence Allegro 17.4-S032*
G04 Origin Date:  Tue Feb 21 15:03:36 2023*
G04 *
G04 Layer:  BOARD GEOMETRY/LYR_2*
G04 Layer:  VIA CLASS/L2_GND*
G04 Layer:  PIN/L2_GND*
G04 Layer:  ETCH/L2_GND*
G04 Layer:  BOARD GEOMETRY/TOOLING_CORNERS*
G04 Layer:  BOARD GEOMETRY/ROOT_NUMBER*
G04 *
G04 Offset:    (0.00 0.00)*
G04 Mirror:    No*
G04 Mode:      Positive*
G04 Rotation:  0*
G04 FullContactRelief:  No*
G04 UndefLineWidth:     8.00*
G04 ================== end FILE IDENTIFICATION RECORD ====================*
%FSLAX25Y25*MOIN*%
%IR0*IPPOS*OFA0.00000B0.00000*MIA0B0*SFA1.00000B1.00000*%
%ADD10C,.02*%
%ADD13C,.042*%
%ADD11C,.065*%
%ADD12C,.008*%
%ADD14C,.012*%
%ADD15C,.05*%
%ADD16C,.03604*%
%ADD18C,.07904*%
%ADD17C,.08904*%
G75*
%LPD*%
G75*
G36*
G01X14276Y194996D02*
X244996D01*
Y177500D01*
X170232D01*
G03X168818Y176914I0J-1999D01*
G01X153154Y161250D01*
X31250D01*
G03X29836Y160664I0J-1999D01*
G01X28172Y159000D01*
X-3500D01*
G03X-4914Y158414I0J-1999D01*
G01X-9414Y153914D01*
G03X-10000Y152500I1413J-1414D01*
G01Y150500D01*
X-13500Y147000D01*
Y33500D01*
X-10000Y30000D01*
Y28000D01*
G03X-9414Y26586I1999J0D01*
G01X-2414Y19586D01*
G03X-1000Y19000I1414J1413D01*
G01X12172D01*
X19086Y12086D01*
G03X20500Y11500I1414J1413D01*
G01X90172D01*
X94086Y7586D01*
G03X95500Y7000I1414J1413D01*
G01X244996D01*
Y-4996D01*
X9276D01*
G02X8917Y-4418I-1J400D01*
G03X9952Y0I-8917J4419D01*
G03X-9952I-9952J0D01*
G03X-8917Y-4418I9952J1D01*
G02X-9276Y-4996I-358J-178D01*
G01X-49996D01*
Y194996D01*
X-4276D01*
G02X-3917Y194418I1J-400D01*
G03X-4952Y190000I8917J-4419D01*
G03X5000Y180048I9952J0D01*
G03X14601Y187379I0J9952D01*
G02X15317Y187498I385J-106D01*
G03X19000Y185548I3683J2503D01*
G03Y194452I0J4452D01*
G03X15317Y192502I0J-4453D01*
G02X14601Y192621I-331J225D01*
G03X13917Y194418I-9599J-2625D01*
G02X14276Y194996I358J178D01*
G37*
G36*
G01X214952Y20000D02*
G03X195048I-9952J0D01*
G03X199460Y11732I9953J0D01*
G02X199238Y11000I-223J-332D01*
G01X96328D01*
X92414Y14914D01*
G03X91000Y15500I-1414J-1413D01*
G01X21328D01*
X14414Y22414D01*
G03X13000Y23000I-1414J-1413D01*
G01X-172D01*
X-6000Y28828D01*
Y31000D01*
X-3500Y33500D01*
Y147000D01*
X-6000Y149500D01*
Y151672D01*
X-2672Y155000D01*
X29000D01*
G03X30414Y155586I0J1999D01*
G01X32078Y157250D01*
X153982D01*
G03X155395Y157835I0J1999D01*
G01X171060Y173500D01*
X244996D01*
Y11000D01*
X210762D01*
G02X210540Y11732I1J400D01*
G03X214952Y20000I-5541J8268D01*
G37*
%LPC*%
G75*
G36*
G01X-43319Y47228D02*
G03Y47772I-293J272D01*
G02X-43802Y49000I1320J1228D01*
G02X-42000Y50802I1802J0D01*
G02X-40772Y50319I0J-1803D01*
G03X-40228I272J293D01*
G02X-39000Y50802I1228J-1320D01*
G02X-37198Y49000I0J-1802D01*
G02X-37681Y47772I-1803J0D01*
G03Y47228I293J-272D01*
G02X-37198Y46000I-1320J-1228D01*
G02X-39000Y44198I-1802J0D01*
G02X-40228Y44681I0J1803D01*
G03X-40772I-272J-293D01*
G02X-42000Y44198I-1228J1320D01*
G02X-43802Y46000I0J1802D01*
G02X-43319Y47228I1803J0D01*
G37*
G36*
G01X-29809Y100131D02*
G03X-29372Y100596I43J398D01*
G02X-29398Y100898I1776J305D01*
G02X-27596Y99096I1802J0D01*
G02X-27787Y99106I-1J1802D01*
G03X-28224Y98641I-43J-398D01*
G02X-28198Y98339I-1776J-305D01*
G02X-28224Y98037I-1802J3D01*
G03X-27787Y97572I394J-67D01*
G02X-27596Y97582I190J-1792D01*
G02Y93978I0J-1802D01*
G02X-27787Y93988I-1J1802D01*
G03X-28224Y93523I-43J-398D01*
G02X-28198Y93220I-1776J-305D01*
G02X-30000Y95022I-1802J0D01*
G02X-29809Y95012I1J-1802D01*
G03X-29372Y95477I43J398D01*
G02X-29398Y95780I1776J305D01*
G02X-29372Y96082I1802J-3D01*
G03X-29809Y96547I-394J67D01*
G02X-30000Y96537I-190J1792D01*
G02Y100141I0J1802D01*
G02X-29809Y100131I1J-1802D01*
G37*
G36*
G01X-19819Y113728D02*
G03Y114272I-293J272D01*
G02X-20302Y115500I1320J1228D01*
G02X-16698I1802J0D01*
G02X-17181Y114272I-1803J0D01*
G03Y113728I293J-272D01*
G02X-16698Y112500I-1320J-1228D01*
G02X-20302I-1802J0D01*
G02X-19819Y113728I1803J0D01*
G37*
G36*
G01X-17594Y188432D02*
G03Y189068I-242J318D01*
G02X-18302Y190500I1094J1432D01*
G02X-16500Y192302I1802J0D01*
G02X-15068Y191594I0J-1802D01*
G03X-14432I318J242D01*
G02X-13000Y192302I1432J-1094D01*
G02X-11198Y190500I0J-1802D01*
G02X-11906Y189068I-1802J0D01*
G03Y188432I242J-318D01*
G02X-11198Y187000I-1094J-1432D01*
G02X-13000Y185198I-1802J0D01*
G02X-14432Y185906I0J1802D01*
G03X-15068I-318J-242D01*
G02X-16500Y185198I-1432J1094D01*
G02X-18302Y187000I0J1802D01*
G02X-17594Y188432I1802J0D01*
G37*
G36*
G01X152246Y141363D02*
G02X151198Y143000I755J1637D01*
G02X154802I1802J0D01*
G02X153754Y141363I-1803J0D01*
G03Y140637I167J-363D01*
G02X154802Y139000I-755J-1637D01*
G02X151198I-1802J0D01*
G02X152246Y140637I1803J0D01*
G03Y141363I-167J363D01*
G37*
G36*
G01X192108Y139194D02*
Y139200D01*
G02X195712I1802J0D01*
G02X194075Y137406I-1802J0D01*
G03X193712Y137006I37J-398D01*
G01Y137000D01*
Y136994D01*
G03X194075Y136594I400J-2D01*
G02X195677Y135155I-165J-1794D01*
G03X196414Y135032I392J79D01*
G02X205000Y139952I8586J-5032D01*
G02Y120048I0J-9952D01*
G02X196169Y125412I0J9951D01*
G03X195468Y125429I-355J-184D01*
G02X194075Y124540I-1558J905D01*
G03X193712Y124140I37J-398D01*
G01Y124134D01*
Y124128D01*
G03X194075Y123728I400J-2D01*
G02X195712Y121934I-165J-1794D01*
G02X192108I-1802J0D01*
G01Y121940D01*
G03X191745Y122340I-400J2D01*
G02Y125928I165J1794D01*
G03X192108Y126328I-37J398D01*
G01Y126334D01*
G02X192110Y126422I1802J3D01*
G03X191747Y126839I-399J19D01*
G02X190108Y128634I163J1795D01*
G02X191047Y130216I1802J0D01*
G03Y130918I-192J351D01*
G02X190108Y132500I863J1582D01*
G02X191747Y134295I1802J0D01*
G03X192110Y134712I-36J398D01*
G02X192108Y134800I1800J85D01*
G01Y134806D01*
G03X191745Y135206I-400J2D01*
G02Y138794I165J1794D01*
G03X192108Y139194I-37J398D01*
G37*
G36*
G01X92226Y114004D02*
X94033Y115811D01*
G02X95307Y116338I1273J-1274D01*
G02X97108Y114537I0J-1801D01*
G02X96581Y113263I-1801J-1D01*
G01X95302Y111984D01*
Y111817D01*
G03X95927Y111487I400J0D01*
G02X96945Y111802I1018J-1487D01*
G02X98747Y110000I0J-1802D01*
G02X98146Y108657I-1801J0D01*
G01Y99724D01*
G02X96965Y98523I-1201J0D01*
G03X96571Y98129I6J-400D01*
G02X96277Y97362I-1201J21D01*
G02X96572Y96574I-907J-789D01*
G02X96220Y95724I-1202J0D01*
G01X95688Y95193D01*
G03X95821Y94540I283J-282D01*
G02X96572Y93426I-451J-1114D01*
G02X96277Y92638I-1202J1D01*
G02X96571Y91871I-907J-788D01*
G03X96965Y91477I400J6D01*
G02X97730Y91186I-19J-1201D01*
G01X99244Y92701D01*
G02X100094Y93052I849J-851D01*
G02X101295Y91871I0J-1201D01*
G03X101689Y91477I400J6D01*
G02X101828Y91467I-17J-1201D01*
G03X102053Y91692I27J198D01*
G02X102042Y91851I1191J162D01*
G02X102337Y92638I1201J-2D01*
G02X102042Y93426I907J789D01*
G02X103244Y94628I1202J0D01*
G01X105074D01*
G02X105924Y94276I0J-1202D01*
G01X107498Y92702D01*
X107990D01*
G03X108355Y93265I0J400D01*
G02X108198Y94000I1645J736D01*
G01Y94018D01*
X108199Y94102D01*
X106928Y95372D01*
X103244D01*
G02X102042Y96574I0J1202D01*
G02X102337Y97362I1202J-1D01*
G02X102042Y98149I906J789D01*
G02X103244Y99350I1202J-1D01*
G01X103650D01*
X111649Y107350D01*
G02X112499Y107702I850J-850D01*
G01X121564D01*
G02X122907Y108302I1343J-1203D01*
G02Y104698I0J-1802D01*
G02X121564Y105298I0J1803D01*
G01X112997D01*
X106156Y98458D01*
G03X106439Y97776I283J-282D01*
G01X107426D01*
G02X107741Y97733I-4J-1202D01*
G03X108242Y98173I105J386D01*
G02X108226Y98416I1786J240D01*
G02X111830I1802J0D01*
G02X110047Y96614I-1802J0D01*
G03X109768Y95931I4J-400D01*
G01X109898Y95801D01*
X109982Y95802D01*
X110000D01*
G02X111802Y94000I0J-1802D01*
G01Y93973D01*
G03X112485Y93684I400J-7D01*
G01X112699Y93898D01*
X112698Y93982D01*
Y94000D01*
G02X114500Y92198I1802J0D01*
G01X114482D01*
X114398Y92199D01*
X113835Y91636D01*
G03X114118Y90954I283J-282D01*
G01X121564D01*
G02X122907Y91554I1343J-1203D01*
G02Y87950I0J-1802D01*
G02X121564Y88550I0J1803D01*
G01X106248D01*
G02X105398Y88902I0J1202D01*
G01X104787Y89514D01*
G03X104446Y89373I-141J-142D01*
G01Y89254D01*
X111898Y81801D01*
X111982Y81802D01*
X112000D01*
G02X110198Y80000I0J-1802D01*
G01Y80018D01*
X110199Y80102D01*
X107384Y82917D01*
G03X106702Y82634I-282J-283D01*
G01Y81343D01*
G02X107302Y80000I-1203J-1343D01*
G02X103698I-1802J0D01*
G02X104298Y81343I1803J0D01*
G01Y83170D01*
X101978Y85491D01*
G03X101296Y85208I-282J-283D01*
G01Y81094D01*
G02X100944Y80244I-1202J0D01*
G01X100801Y80102D01*
X100802Y80018D01*
Y80000D01*
G02X97198I-1802J0D01*
G02X98723Y81781I1802J0D01*
G01X98892Y81807D01*
Y85116D01*
G03X98210Y85399I-400J0D01*
G01X93925Y81114D01*
X94013Y80979D01*
G02X94302Y80000I-1514J-979D01*
G02X90698I-1802J0D01*
G02X91299Y81344I1803J0D01*
G02X91298Y81388I1201J49D01*
G02X91650Y82238I1202J0D01*
G01X91708Y82295D01*
G03X91621Y82927I-283J283D01*
G02X90698Y84500I879J1573D01*
G02X91415Y85939I1803J0D01*
G01X91495Y85999D01*
Y86298D01*
X90998D01*
X88702Y84002D01*
Y81343D01*
G02X89302Y80000I-1203J-1343D01*
G02X85698I-1802J0D01*
G02X86298Y81343I1803J0D01*
G01Y84500D01*
G02X86650Y85350I1202J0D01*
G01X88917Y87616D01*
G03X88634Y88298I-283J282D01*
G01X82498D01*
X81801Y87602D01*
X81802Y87518D01*
Y87500D01*
G02X80000Y89302I-1802J0D01*
G01X80018D01*
X80102Y89301D01*
X81150Y90350D01*
G02X82000Y90702I850J-850D01*
G01X91501D01*
X92342Y91542D01*
G03X92059Y92224I-283J282D01*
G01X83074D01*
G02X82224Y92576I0J1202D01*
G01X77589Y97212D01*
X71843D01*
G02X70500Y96611I-1343J1200D01*
G02Y100215I0J1802D01*
G02X71843Y99614I0J-1801D01*
G01X78087D01*
G02X78937Y99263I1J-1202D01*
G01X80057Y98143D01*
G03X80732Y98348I283J283D01*
G02X82500Y99802I1768J-348D01*
G02X83932Y99094I0J-1802D01*
G03X84568I318J242D01*
G02X86000Y99802I1432J-1094D01*
G02X87802Y98000I0J-1802D01*
G02X87679Y97347I-1802J1D01*
G03X88052Y96802I373J-145D01*
G01X92546D01*
X92661Y97165D01*
G02X92501Y97299I689J985D01*
G01X91102Y98699D01*
X91018Y98698D01*
X91000D01*
G02Y102302I0J1802D01*
G02X91735Y102145I-1J-1802D01*
G03X92298Y102510I163J365D01*
G01Y102769D01*
X92239Y102828D01*
G02X91698Y104114I1261J1287D01*
G01Y108730D01*
G03X90972Y108960I-400J-1D01*
G02X89500Y108198I-1472J1041D01*
G02Y111802I0J1802D01*
G02X90972Y111040I0J-1803D01*
G03X91698Y111270I326J231D01*
G01Y112730D01*
G02X92226Y114004I1801J0D01*
G37*
G36*
G01X152246Y71362D02*
G02X151198Y72999I755J1637D01*
G02X154802I1802J0D01*
G02X153754Y71362I-1803J0D01*
G03Y70636I167J-363D01*
G02X154802Y68999I-755J-1637D01*
G02X151198I-1802J0D01*
G02X152246Y70636I1803J0D01*
G03Y71362I-167J363D01*
G37*
G36*
G01X192108Y69193D02*
Y69199D01*
G02X195712I1802J0D01*
G02X194075Y67405I-1802J0D01*
G03X193712Y67005I37J-398D01*
G01Y66999D01*
Y66993D01*
G03X194075Y66593I400J-2D01*
G02X195712Y64799I-165J-1794D01*
G02X194073Y63004I-1802J0D01*
G03X193710Y62587I36J-398D01*
G02X193712Y62499I-1800J-85D01*
G02X192773Y60917I-1802J0D01*
G03Y60215I192J-351D01*
G02X193712Y58633I-863J-1582D01*
G02X193710Y58545I-1802J-3D01*
G03X194073Y58128I399J-19D01*
G02X195712Y56333I-163J-1795D01*
G02X194075Y54539I-1802J0D01*
G03X193712Y54139I37J-398D01*
G01Y54133D01*
Y54127D01*
G03X194075Y53727I400J-2D01*
G02X195712Y51933I-165J-1794D01*
G02X192108I-1802J0D01*
G01Y51939D01*
G03X191745Y52339I-400J2D01*
G02Y55927I165J1794D01*
G03X192108Y56327I-37J398D01*
G01Y56333D01*
G02X192110Y56421I1802J3D01*
G03X191747Y56838I-399J19D01*
G02X190108Y58633I163J1795D01*
G02X191047Y60215I1802J0D01*
G03Y60917I-192J351D01*
G02X190108Y62499I863J1582D01*
G02X191747Y64294I1802J0D01*
G03X192110Y64711I-36J398D01*
G02X192108Y64799I1800J85D01*
G01Y64805D01*
G03X191745Y65205I-400J2D01*
G02Y68793I165J1794D01*
G03X192108Y69193I-37J398D01*
G37*
G36*
G01X109730Y146435D02*
G03X110270I270J295D01*
G02X114730I2230J-2434D01*
G03X115270I270J295D01*
G02X117500Y147302I2230J-2434D01*
G02X120802Y144000I0J-3302D01*
G02X119935Y141770I-3301J0D01*
G03Y141230I295J-270D01*
G02X120802Y139000I-2434J-2230D01*
G02X117500Y135698I-3302J0D01*
G02X115270Y136565I0J3301D01*
G03X114730I-270J-295D01*
G02X110270I-2230J2434D01*
G03X109730I-270J-295D01*
G02X105270I-2230J2434D01*
G03X104730I-270J-295D01*
G02X100270I-2230J2434D01*
G03X99730I-270J-295D01*
G02X95270I-2230J2434D01*
G03X94730I-270J-295D01*
G02X90270I-2230J2434D01*
G03X89730I-270J-295D01*
G02X85270I-2230J2434D01*
G03X84730I-270J-295D01*
G02X82500Y135698I-2230J2434D01*
G02X79198Y139000I0J3302D01*
G02X80065Y141230I3301J0D01*
G03Y141770I-295J270D01*
G02X79198Y144000I2434J2230D01*
G02X82500Y147302I3302J0D01*
G02X84730Y146435I0J-3301D01*
G03X85270I270J295D01*
G02X89730I2230J-2434D01*
G03X90270I270J295D01*
G02X94730I2230J-2434D01*
G03X95270I270J295D01*
G02X99730I2230J-2434D01*
G03X100270I270J295D01*
G02X104730I2230J-2434D01*
G03X105270I270J295D01*
G02X109730I2230J-2434D01*
G37*
G36*
G01X181Y113728D02*
G03Y114272I-293J272D01*
G02X-302Y115500I1320J1228D01*
G02X3302I1802J0D01*
G02X2819Y114272I-1803J0D01*
G03Y113728I293J-272D01*
G02X3302Y112500I-1320J-1228D01*
G02X-302I-1802J0D01*
G02X181Y113728I1803J0D01*
G37*
G36*
G01X109520Y110850D02*
G02X110370Y111202I850J-850D01*
G01X119157D01*
G02X120500Y111802I1343J-1203D01*
G02Y108198I0J-1802D01*
G02X119157Y108798I0J1803D01*
G01X110868D01*
X100944Y98874D01*
G02X100094Y98522I-850J850D01*
G02X98892Y99724I0J1202D01*
G02X99244Y100574I1202J0D01*
G01X109520Y110850D01*
G37*
G36*
G01X194627Y100263D02*
G03X194173Y100717I-395J59D01*
G02X193910Y100698I-261J1783D01*
G02X195712Y102500I0J1802D01*
G02X195693Y102237I-1802J-2D01*
G03X196147Y101783I395J-59D01*
G02X196410Y101802I261J-1783D01*
G02X198212Y100000I0J-1802D01*
G02X198195Y99753I-1803J0D01*
G03X198613Y99299I396J-54D01*
G02X198710Y99302I104J-1799D01*
G02X200512Y97500I0J-1802D01*
G02X200495Y97256I-1802J3D01*
G03X200895Y96802I396J-54D01*
G01X200910D01*
G02X202712Y95000I0J-1802D01*
G02X202693Y94737I-1802J-2D01*
G03X203147Y94283I395J-59D01*
G02X203410Y94302I261J-1783D01*
G02X205212Y92500I0J-1802D01*
G02X205193Y92237I-1802J-2D01*
G03X205647Y91783I395J-59D01*
G02X205910Y91802I261J-1783D01*
G02X207712Y90000I0J-1802D01*
G02X207693Y89737I-1802J-2D01*
G03X208147Y89283I395J-59D01*
G02X208410Y89302I261J-1783D01*
G02X210212Y87500I0J-1802D01*
G02X210193Y87237I-1802J-2D01*
G03X210647Y86783I395J-59D01*
G02X210910Y86802I261J-1783D01*
G02X209108Y85000I0J-1802D01*
G02X209127Y85263I1802J2D01*
G03X208673Y85717I-395J59D01*
G02X208410Y85698I-261J1783D01*
G02X206608Y87500I0J1802D01*
G02X206627Y87763I1802J2D01*
G03X206173Y88217I-395J59D01*
G02X205910Y88198I-261J1783D01*
G02X204108Y90000I0J1802D01*
G02X204127Y90263I1802J2D01*
G03X203673Y90717I-395J59D01*
G02X203410Y90698I-261J1783D01*
G02X201608Y92500I0J1802D01*
G02X201627Y92763I1802J2D01*
G03X201173Y93217I-395J59D01*
G02X200910Y93198I-261J1783D01*
G02X199108Y95000I0J1802D01*
G02X199125Y95244I1802J-3D01*
G03X198725Y95698I-396J54D01*
G01X198710D01*
G02X196908Y97500I0J1802D01*
G02X196925Y97747I1803J0D01*
G03X196507Y98201I-396J54D01*
G02X196410Y98198I-104J1799D01*
G02X194608Y100000I0J1802D01*
G02X194627Y100263I1802J2D01*
G37*
G36*
G01X9673Y86952D02*
G03X9670Y87580I-249J313D01*
G02X8977Y89000I1108J1420D01*
G02X12581I1802J0D01*
G02X11902Y87591I-1801J0D01*
G03X11905Y86963I249J-313D01*
G02X12598Y85543I-1108J-1420D01*
G02X8994I-1802J0D01*
G02X9673Y86952I1801J0D01*
G37*
G36*
G01X85681Y47728D02*
G03Y48272I-293J272D01*
G02X85198Y49500I1320J1228D01*
G02X87000Y51302I1802J0D01*
G02X88228Y50819I0J-1803D01*
G03X88772I272J293D01*
G02X90000Y51302I1228J-1320D01*
G02X91802Y49500I0J-1802D01*
G02X91319Y48272I-1803J0D01*
G03Y47728I293J-272D01*
G02X91802Y46500I-1320J-1228D01*
G02X90000Y44698I-1802J0D01*
G02X88772Y45181I0J1803D01*
G03X88228I-272J-293D01*
G02X87000Y44698I-1228J1320D01*
G02X85198Y46500I0J1802D01*
G02X85681Y47728I1803J0D01*
G37*
G36*
G01X34239Y44383D02*
G03X33694Y44837I-391J85D01*
G02X33000Y44698I-694J1663D01*
G02Y48302I0J1802D01*
G02X34228Y47819I0J-1803D01*
G03X34772I272J293D01*
G02X36000Y48302I1228J-1320D01*
G02X37802Y46500I0J-1802D01*
G02X37298Y45250I-1802J0D01*
G02Y42750I-1298J-1250D01*
G02X37802Y41500I-1298J-1250D01*
G02X34198I-1802J0D01*
G02X34702Y42750I1802J0D01*
G02X34198Y44000I1298J1250D01*
G02X34239Y44383I1802J1D01*
G37*
G36*
G01X123750Y38298D02*
G02X125000Y38802I1250J-1298D01*
G02Y35198I0J-1802D01*
G02X123750Y35702I0J1802D01*
G02X122500Y35198I-1250J1298D01*
G02Y38802I0J1802D01*
G02X123750Y38298I0J-1802D01*
G37*
G36*
G01X50728Y35319D02*
G03X51272I272J293D01*
G02X53728I1228J-1320D01*
G03X54272I272J293D01*
G02X55500Y35802I1228J-1320D01*
G02Y32198I0J-1802D01*
G02X54272Y32681I0J1803D01*
G03X53728I-272J-293D01*
G02X51272I-1228J1320D01*
G03X50728I-272J-293D01*
G02X48272I-1228J1320D01*
G03X47728I-272J-293D01*
G02X46500Y32198I-1228J1320D01*
G02Y35802I0J1802D01*
G02X47728Y35319I0J-1803D01*
G03X48272I272J293D01*
G02X50728I1228J-1320D01*
G37*
G36*
G01X158712Y18760D02*
G03Y19040I-143J140D01*
G02X158198Y20300I1287J1260D01*
G02X161802I1802J0D01*
G02X161288Y19040I-1801J0D01*
G03Y18760I143J-140D01*
G02X161802Y17500I-1287J-1260D01*
G02X158198I-1802J0D01*
G02X158712Y18760I1801J0D01*
G37*
G36*
G01X115772Y14181D02*
G03X115228I-272J-293D01*
G02X114000Y13698I-1228J1320D01*
G02Y17302I0J1802D01*
G02X115228Y16819I0J-1803D01*
G03X115772I272J293D01*
G02X117000Y17302I1228J-1320D01*
G02Y13698I0J-1802D01*
G02X115772Y14181I0J1803D01*
G37*
G36*
G01X4498Y26464D02*
Y58536D01*
X7464Y61502D01*
X24536D01*
X27502Y58536D01*
Y26464D01*
X24536Y23498D01*
X7464D01*
X4498Y26464D01*
G37*
G54D16*
X-28850Y151500D03*
X-45500Y140953D03*
X19000Y163500D03*
X29000D03*
X-45500Y134453D03*
X-24400Y135953D03*
Y140953D03*
X-28734Y85543D03*
X-7000Y178000D03*
X69000Y170000D03*
X130000D03*
X79000Y167000D03*
X-33000Y88102D03*
X59000Y166000D03*
X174500Y135001D03*
X45500Y139000D03*
X136999Y57500D03*
X137000Y51000D03*
X45500Y132500D03*
X44000Y73000D03*
X21496Y134453D03*
Y140953D03*
X47200Y149346D03*
X48457Y64500D03*
X156406Y47316D03*
X11850Y151003D03*
X58350Y48500D03*
X71961Y113000D03*
X70500Y67000D03*
X64500Y123100D03*
X70500Y57500D03*
X128500Y143500D03*
X109807Y114537D03*
X89307D03*
X122907Y123248D03*
X114500Y98500D03*
X122907Y98126D03*
X122500Y77500D03*
X179000Y130501D03*
X170000Y135001D03*
Y130501D03*
X179000Y135001D03*
X174560Y130567D03*
X69000Y109000D03*
X146364Y51066D03*
X179000Y126001D03*
X170000Y65000D03*
X174500D03*
X179000D03*
X170000Y60500D03*
X179000D03*
X170000Y56000D03*
X174560Y60566D03*
X174500Y56000D03*
X167670Y73762D03*
X174500Y126001D03*
X167670Y47370D03*
Y117371D03*
X179000Y56000D03*
X146364Y121067D03*
X167670Y143763D03*
X170000Y126001D03*
X156406Y117317D03*
X162393Y140000D03*
Y69999D03*
X160791Y132356D03*
G54D18*
X27500Y127000D03*
Y107000D03*
X48457Y127000D03*
Y107000D03*
G54D17*
X125000Y190000D03*
X135000D03*
X145000D03*
X155000D03*
X165000D03*
X175000D03*
X185000D03*
X195000D03*
X125000Y0D03*
X115000D03*
X105000D03*
X95000D03*
X85000D03*
X75000D03*
X65000D03*
X55000D03*
X195000D03*
X185000D03*
X175000D03*
X165000D03*
X155000D03*
X145000D03*
X29000Y190000D03*
X39000D03*
X49000D03*
X59000D03*
X69000D03*
X79000D03*
X89000D03*
X99000D03*
X109000D03*
X231125Y25000D03*
Y115000D03*
Y125000D03*
Y135000D03*
Y145000D03*
Y155000D03*
Y165000D03*
Y35000D03*
Y45000D03*
Y55000D03*
Y65000D03*
Y75000D03*
Y85000D03*
Y95000D03*
Y105000D03*
X221125Y25000D03*
Y115000D03*
Y125000D03*
Y135000D03*
Y145000D03*
Y155000D03*
Y165000D03*
Y35000D03*
Y45000D03*
Y55000D03*
Y65000D03*
Y75000D03*
Y85000D03*
Y95000D03*
Y105000D03*
%LPD*%
G75*
G36*
G01X8500Y59000D02*
X23500D01*
X25000Y57500D01*
Y56811D01*
X24820Y56793D01*
G03Y53207I180J-1793D01*
G01X25000Y53189D01*
Y27500D01*
X23500Y26000D01*
X8500D01*
X7000Y27500D01*
Y57500D01*
X8500Y59000D01*
G37*
G54D10*
G01X95307Y114537D02*
X93500Y112730D01*
Y104114D01*
X-45000Y15000D03*
Y25000D03*
Y55000D03*
Y65000D03*
Y75000D03*
Y165000D03*
Y175000D03*
Y185000D03*
X-35000Y5000D03*
X-32400Y27436D03*
X-41500Y32686D03*
X-35500D03*
X-35000Y25000D03*
X-32400Y52436D03*
Y47436D03*
Y57436D03*
X-28796Y117750D03*
X-24600Y130953D03*
X-35150Y151500D03*
X-30868Y183000D03*
X-25000Y173000D03*
X-29000Y176000D03*
Y173000D03*
X-25000Y176000D03*
X-36948Y175484D03*
X-30868Y189000D03*
X-35000Y190000D03*
X-15000Y5000D03*
Y35000D03*
Y25000D03*
X-2500Y35000D03*
X0Y25000D03*
X-15000Y55000D03*
Y45000D03*
X-2500Y55000D03*
Y45000D03*
X-15000Y75000D03*
Y65000D03*
X-2500Y75000D03*
Y65000D03*
X-17396Y82984D03*
X-15000Y85000D03*
Y95000D03*
X396Y82984D03*
X-2500Y95000D03*
Y85000D03*
X-17396Y103457D03*
X-15000Y105000D03*
X396Y103457D03*
X-2500Y105000D03*
X-15000Y125000D03*
X-2500D03*
X15000Y0D03*
X22500Y17500D03*
X17500Y31500D03*
X20500D03*
Y28000D03*
X17500D03*
X15600Y47436D03*
X15000Y75000D03*
X5000D03*
X15600Y57436D03*
X15000Y85000D03*
X15246Y114000D03*
X15000Y105000D03*
X7600Y130953D03*
X5000Y125000D03*
X18150Y151003D03*
X25000Y0D03*
X35000D03*
X33000Y32000D03*
X36000D03*
Y35000D03*
X35000Y25000D03*
X40000Y17500D03*
X23500Y31500D03*
Y28000D03*
X36000Y37500D03*
X34500Y56846D03*
X25000Y75000D03*
Y65000D03*
X35000Y75000D03*
Y65000D03*
X25000Y85000D03*
X35000Y105000D03*
Y162500D03*
Y145000D03*
X45000Y0D03*
X62000Y22950D03*
X45000Y25000D03*
X54150Y47800D03*
X59759Y77500D03*
X64747Y69500D03*
X52557Y83668D03*
X52500Y87500D03*
Y79500D03*
X65500Y97000D03*
X64500Y109900D03*
X45000Y162500D03*
X55000D03*
X65000D03*
X45000Y145000D03*
X75500Y28500D03*
X69500D03*
Y33500D03*
X72500Y31000D03*
X75500Y33500D03*
X66100Y18500D03*
X78900D03*
X72500Y36000D03*
X75500Y38500D03*
X69500D03*
X68300Y44750D03*
X76700D03*
X70500Y98413D03*
X80000Y87500D03*
X82500Y98000D03*
X70864Y103500D03*
X71750Y143046D03*
X75000Y162500D03*
X85000D03*
X103500Y18500D03*
Y21500D03*
X105500Y39950D03*
X101200Y36750D03*
X91000Y62107D03*
X99000D03*
X108000Y62900D03*
X87500Y80000D03*
X92500D03*
Y84500D03*
X105500Y80000D03*
X99000D03*
X95307Y114537D03*
X91000Y100500D03*
X96945Y110000D03*
X89307Y127737D03*
X95307D03*
X102307Y128530D03*
X95000Y162500D03*
X115000Y62900D03*
X114500Y94000D03*
X110000D03*
X122907Y89752D03*
X112000Y80000D03*
X120500Y110000D03*
X122907Y106500D03*
X109807Y127737D03*
X135000Y0D03*
X146608Y25000D03*
X146504Y19000D03*
X145000Y15000D03*
X135000Y45000D03*
X145000D03*
X146500Y57613D03*
X146560Y64566D03*
X146500Y127614D03*
X146560Y134567D03*
X132500Y162500D03*
X142500D03*
X161969Y51030D03*
X160791Y62355D03*
X160000Y80000D03*
X170000D03*
X161969Y121031D03*
X160000Y110000D03*
X170000D03*
X152500Y162500D03*
X160000Y170000D03*
X170000Y180000D03*
X165000Y165000D03*
X175000Y15000D03*
Y25000D03*
X185000D03*
Y15000D03*
X184500Y50000D03*
X185000Y70000D03*
Y140000D03*
X175000Y155000D03*
X185000D03*
Y180000D03*
X175000Y165000D03*
X185000D03*
X215000Y0D03*
X195000Y25000D03*
Y15000D03*
X215000D03*
X202500Y50000D03*
X210000D03*
Y57500D03*
X215000Y90000D03*
Y97500D03*
X200000Y120000D03*
X215000Y122500D03*
X197500Y140000D03*
X195000Y155000D03*
X205000D03*
X215000D03*
X195000Y180000D03*
X205000D03*
X215000D03*
X210000Y185000D03*
X195000Y165000D03*
X205000D03*
X215000D03*
X205000Y190000D03*
X215000D03*
X225000Y0D03*
X235000D03*
X225000Y15000D03*
X235000D03*
X225000Y180000D03*
X235000D03*
X220000Y185000D03*
X230000D03*
X225000Y190000D03*
X235000D03*
X242500Y180000D03*
X240000Y185000D03*
X242500Y190000D03*
G54D11*
X49000D03*
X105000Y0D03*
X115000D03*
X221125Y25000D03*
X231125D03*
Y95000D03*
X221125D03*
X231125Y165000D03*
X221125D03*
G54D12*
G01X56000Y269000D02*
X55000Y268667D01*
X54250Y267833D01*
X53750Y266833D01*
X53375Y265500D01*
X53250Y264000D01*
X53375Y262500D01*
X53750Y261167D01*
X54250Y260166D01*
X55000Y259333D01*
X56000Y259000D01*
X57000Y259333D01*
X57750Y260166D01*
X58250Y261167D01*
X58625Y262500D01*
X58750Y264000D01*
X58625Y265500D01*
X58250Y266833D01*
X57750Y267833D01*
X57000Y268667D01*
X56000Y269000D01*
G01X66000Y259000D02*
X66875Y259167D01*
X67875Y259667D01*
X68500Y260500D01*
X68750Y261667D01*
X68500Y262833D01*
X67750Y263833D01*
X66625Y264333D01*
X65375D01*
X64625Y264667D01*
X64000Y265500D01*
X63750Y266667D01*
X64125Y267833D01*
X65000Y268667D01*
X66000Y269000D01*
X67000Y268667D01*
X67875Y267833D01*
X68250Y266667D01*
X68000Y265500D01*
X67375Y264667D01*
X66625Y264333D01*
X65375D01*
X64250Y263833D01*
X63500Y262833D01*
X63250Y261667D01*
X63500Y260500D01*
X64125Y259667D01*
X65125Y259167D01*
X66000Y259000D01*
G01X74375Y262333D02*
X77625D01*
G01X144375D02*
X147625D01*
G01X156000Y269000D02*
X155000Y268667D01*
X154250Y267833D01*
X153750Y266833D01*
X153375Y265500D01*
X153250Y264000D01*
X153375Y262500D01*
X153750Y261167D01*
X154250Y260166D01*
X155000Y259333D01*
X156000Y259000D01*
X157000Y259333D01*
X157750Y260166D01*
X158250Y261167D01*
X158625Y262500D01*
X158750Y264000D01*
X158625Y265500D01*
X158250Y266833D01*
X157750Y267833D01*
X157000Y268667D01*
X156000Y269000D01*
G01X165750Y259000D02*
X166000Y261167D01*
X166375Y263000D01*
X166875Y264667D01*
X167500Y266500D01*
X168500Y269000D01*
X163500D01*
G01X86000D02*
X85000Y268667D01*
X84250Y267833D01*
X83750Y266833D01*
X83375Y265500D01*
X83250Y264000D01*
X83375Y262500D01*
X83750Y261167D01*
X84250Y260166D01*
X85000Y259333D01*
X86000Y259000D01*
X87000Y259333D01*
X87750Y260166D01*
X88250Y261167D01*
X88625Y262500D01*
X88750Y264000D01*
X88625Y265500D01*
X88250Y266833D01*
X87750Y267833D01*
X87000Y268667D01*
X86000Y269000D01*
G01X93625Y263166D02*
X94500Y264333D01*
X95250Y265000D01*
X96250Y265333D01*
X97125Y265000D01*
X97750Y264333D01*
X98250Y263333D01*
X98375Y262167D01*
X98250Y261167D01*
X97750Y260166D01*
X97000Y259333D01*
X96125Y259000D01*
X95125Y259333D01*
X94250Y260333D01*
X93750Y261833D01*
X93625Y263500D01*
X93875Y265666D01*
X94250Y266833D01*
X94875Y268000D01*
X95750Y268833D01*
X96625Y269000D01*
X97500Y268667D01*
X98125Y267833D01*
G01X103625Y263166D02*
X104500Y264333D01*
X105250Y265000D01*
X106250Y265333D01*
X107125Y265000D01*
X107750Y264333D01*
X108250Y263333D01*
X108375Y262167D01*
X108250Y261167D01*
X107750Y260166D01*
X107000Y259333D01*
X106125Y259000D01*
X105125Y259333D01*
X104250Y260333D01*
X103750Y261833D01*
X103625Y263500D01*
X103875Y265666D01*
X104250Y266833D01*
X104875Y268000D01*
X105750Y268833D01*
X106625Y269000D01*
X107500Y268667D01*
X108125Y267833D01*
G01X113250Y260500D02*
X114000Y259667D01*
X114875Y259167D01*
X116000Y259000D01*
X117125Y259333D01*
X118000Y260000D01*
X118625Y261167D01*
X118750Y262500D01*
X118500Y263833D01*
X117875Y264667D01*
X117000Y265333D01*
X116125Y265500D01*
X115250Y265333D01*
X114125Y264667D01*
X114500Y269000D01*
X117875D01*
G01X123250Y261000D02*
X124000Y259833D01*
X125000Y259167D01*
X126125Y259000D01*
X127125Y259167D01*
X128125Y260000D01*
X128750Y261000D01*
X128875Y262000D01*
X128625Y263166D01*
X127750Y264000D01*
X126875Y264333D01*
X125750D01*
G01X126875D02*
X127625Y264833D01*
X128250Y265666D01*
X128500Y266667D01*
X128250Y267667D01*
X127625Y268500D01*
X126500Y269000D01*
X125375Y268833D01*
X124250Y268167D01*
G01X137500Y259000D02*
Y269000D01*
X132875Y261833D01*
X139125D01*
G01X83500Y289000D02*
Y279000D01*
X88500D01*
G01X93625Y287333D02*
X94375Y288333D01*
X95250Y288833D01*
X96250Y289000D01*
X97500Y288667D01*
X98375Y287833D01*
X98625Y286833D01*
X98500Y285833D01*
X98000Y285000D01*
X95500Y283333D01*
X94375Y282167D01*
X93625Y280500D01*
X93375Y279000D01*
X98625D01*
G01X116750Y284000D02*
X119250D01*
Y281000D01*
X118500Y280000D01*
X117625Y279333D01*
X116375Y279000D01*
X115125Y279333D01*
X114250Y280000D01*
X113500Y281000D01*
X113000Y282167D01*
X112750Y283500D01*
Y284667D01*
X113000Y285666D01*
X113500Y286833D01*
X114250Y287833D01*
X115000Y288500D01*
X116000Y289000D01*
X116875D01*
X117875Y288667D01*
X118625Y288000D01*
G01X123125Y279000D02*
Y289000D01*
X128875Y279000D01*
Y289000D01*
G01X133250Y279000D02*
Y289000D01*
X135750D01*
X136750Y288500D01*
X137500Y287833D01*
X138125Y286833D01*
X138625Y285666D01*
X138750Y284000D01*
X138625Y282333D01*
X138125Y281167D01*
X137500Y280166D01*
X136750Y279500D01*
X135750Y279000D01*
X133250D01*
G01X88500Y239000D02*
Y249000D01*
X91625D01*
X92625Y248500D01*
X93250Y247833D01*
X93500Y246500D01*
X93250Y245167D01*
X92500Y244333D01*
X91625Y243833D01*
X88500D01*
G01X91625D02*
X93500Y239000D01*
G01X103500D02*
X98500D01*
Y249000D01*
X103500D01*
G01X101500Y244167D02*
X98500D01*
G01X107875Y249000D02*
X111000Y239000D01*
X114125Y249000D01*
G01X132000Y244333D02*
X132500Y244833D01*
X132875Y245666D01*
X133125Y246833D01*
X132875Y247833D01*
X132375Y248500D01*
X131500Y249000D01*
X128125D01*
Y239000D01*
X132250D01*
X133125Y239667D01*
X133625Y240667D01*
X133875Y241833D01*
X133625Y243000D01*
X132875Y244000D01*
X132000Y244333D01*
X128125D01*
G01X70500Y98413D02*
X78087D01*
X83074Y93426D01*
X95370D01*
G01X80000Y87500D02*
X82000Y89500D01*
X91999D01*
X94350Y91851D01*
X95370D01*
G01X82500Y98000D02*
X84900Y95600D01*
X94396D01*
X95370Y96574D01*
G01X122907Y106500D02*
X112499D01*
X104148Y98149D01*
X103244D01*
G01Y93426D02*
X105074D01*
X107000Y91500D01*
X112000D01*
X114500Y94000D01*
G01X103244Y96574D02*
X107426D01*
X110000Y94000D01*
G01X87500Y80000D02*
Y84500D01*
X90500Y87500D01*
X92594D01*
X95370Y90276D01*
G01X122907Y89752D02*
X106248D01*
X104149Y91851D01*
X103244D01*
G01X91000Y100500D02*
X93351Y98149D01*
X95370D01*
G01X100094Y91851D02*
X98500Y90257D01*
Y87388D01*
X92500Y81388D01*
Y80000D01*
G01Y84500D02*
X96945Y88945D01*
Y90276D01*
G01X105500Y80000D02*
Y83668D01*
X101669Y87499D01*
Y90276D01*
G01X100094D02*
Y81094D01*
X99000Y80000D01*
G01X112000D02*
X103244Y88756D01*
Y90276D01*
G01X120500Y110000D02*
X110370D01*
X100094Y99724D01*
G01X93500Y104114D02*
Y101594D01*
X95370Y99724D01*
G01X96945D02*
Y110000D01*
X103244Y98149D03*
Y93426D03*
Y96574D03*
X95370Y90276D03*
X103244Y91851D03*
X95370Y98149D03*
X96945Y91851D03*
Y98149D03*
X101669Y96574D03*
X96945D03*
X100094Y93426D03*
X96945D03*
X95370D03*
X100094Y91851D03*
X95370D03*
Y96574D03*
X96945Y90276D03*
X101669D03*
X100094D03*
X103244D03*
X100094Y99724D03*
X95370D03*
X96945D03*
G54D13*
X117500Y144000D03*
G54D14*
G01X49000Y185348D02*
Y190000D01*
G01X44348D02*
X49000D01*
G01D02*
X53652D01*
G01X105000Y0D02*
Y4652D01*
G01X100348Y0D02*
X105000D01*
G01D02*
X109652D01*
G01X115000D02*
Y4652D01*
G01X110348Y0D02*
X115000D01*
G01D02*
X119652D01*
G01X117500Y144000D02*
Y147502D01*
G01Y144000D02*
X121002D01*
G01X221125Y20348D02*
Y25000D01*
G01D02*
Y29652D01*
G01X216473Y25000D02*
X221125D01*
G01D02*
X225777D01*
G01X231125Y20348D02*
Y25000D01*
G01D02*
Y29652D01*
G01X226473Y25000D02*
X231125D01*
G01D02*
X235777D01*
G01X221125Y90348D02*
Y95000D01*
G01D02*
Y99652D01*
G01X216473Y95000D02*
X221125D01*
G01D02*
X225777D01*
G01X231125Y90348D02*
Y95000D01*
G01D02*
Y99652D01*
G01X226473Y95000D02*
X231125D01*
G01D02*
X235777D01*
G01X231125Y160348D02*
Y165000D01*
G01X221125Y160348D02*
Y165000D01*
G01X231125D02*
Y169652D01*
G01X226473Y165000D02*
X231125D01*
G01D02*
X235777D01*
G01X221125D02*
Y169652D01*
G01X216473Y165000D02*
X221125D01*
G01D02*
X225777D01*
G54D15*
G01X-67500Y-12500D02*
X-32500D01*
G01X-67500Y202500D02*
X-32500D01*
G01X-57500Y-22500D02*
Y12500D01*
G01Y212500D02*
Y177500D01*
G01X262500Y-12500D02*
X227500D01*
G01X262500Y202500D02*
X227500D01*
G01X252500Y-22500D02*
Y12500D01*
G01Y212500D02*
Y177500D01*
M02*
