G04 ================== begin FILE IDENTIFICATION RECORD ==================*
G04 Layout Name:  C:/tmp/20_066534b/worklib/02_066534b_top/physical/08_066534b.brd*
G04 Film Name:    l4_secondary*
G04 File Format:  Gerber RS274X*
G04 File Origin:  Cadence Allegro 17.4-S032*
G04 Origin Date:  Tue Feb 21 15:03:36 2023*
G04 *
G04 Layer:  VIA CLASS/BOTTOM*
G04 Layer:  PIN/BOTTOM*
G04 Layer:  ETCH/BOTTOM*
G04 Layer:  PACKAGE GEOMETRY/ETCH_BOTTOM*
G04 Layer:  BOARD GEOMETRY/LYR_BOTTOM*
G04 Layer:  BOARD GEOMETRY/TOOLING_CORNERS*
G04 Layer:  BOARD GEOMETRY/ROOT_NUMBER*
G04 *
G04 Offset:    (0.00 0.00)*
G04 Mirror:    No*
G04 Mode:      Positive*
G04 Rotation:  0*
G04 FullContactRelief:  No*
G04 UndefLineWidth:     8.00*
G04 ================== end FILE IDENTIFICATION RECORD ====================*
%FSLAX25Y25*MOIN*%
%IR0*IPPOS*OFA0.00000B0.00000*MIA0B0*SFA1.00000B1.00000*%
%ADD10C,.02*%
%ADD16C,.042*%
%ADD13C,.055*%
%ADD12C,.065*%
%ADD15R,.042X.042*%
%ADD14R,.065X.065*%
%AMMACRO11*
4,1,36,0.0,-.02,
.003473,-.019696,
.00684,-.018794,
.01,-.017321,
.012856,-.015321,
.015321,-.012856,
.017321,-.01,
.018794,-.00684,
.019696,-.003473,
.02,0.0,
.019696,.003473,
.018794,.00684,
.017321,.01,
.015321,.012856,
.012856,.015321,
.01,.017321,
.00684,.018794,
.003473,.019696,
0.0,.02,
-.003473,.019696,
-.00684,.018794,
-.01,.017321,
-.012856,.015321,
-.015321,.012856,
-.017321,.01,
-.018794,.00684,
-.019696,.003473,
-.02,0.0,
-.019696,-.003473,
-.018794,-.00684,
-.017321,-.01,
-.015321,-.012856,
-.012856,-.015321,
-.01,-.017321,
-.00684,-.018794,
-.003473,-.019696,
0.0,-.02,
0.0*
%
%ADD11MACRO11*%
%ADD17C,.012*%
%ADD18C,.03*%
%ADD19C,.05*%
%ADD20C,.008*%
%ADD23C,.03604*%
%ADD22C,.07904*%
%ADD21C,.08904*%
G75*
%LPD*%
G75*
G36*
G01X-25398Y138834D02*
G02X-24890Y139219I400J0D01*
G03X-24400Y139151I490J1734D01*
G03X-22598Y140953I0J1802D01*
G01Y140971D01*
X-22599Y141055D01*
X-19400Y144253D01*
G03X-19048Y145103I-850J850D01*
G01Y149412D01*
X-8661Y159798D01*
X26500D01*
G03X27350Y160150I0J1202D01*
G01X28898Y161699D01*
X28982Y161698D01*
X29000D01*
G03X30802Y163500I0J1802D01*
G03X30645Y164235I-1802J-1D01*
G02X31010Y164798I365J163D01*
G01X57657D01*
G03X59000Y164198I1343J1203D01*
G03X60802Y166000I0J1802D01*
G01Y166027D01*
G02X61485Y166316I400J7D01*
G01X61650Y166150D01*
G03X62500Y165798I850J850D01*
G01X77657D01*
G03X79000Y165198I1343J1203D01*
G03Y168802I0J1802D01*
G03X77657Y168202I0J-1803D01*
G01X70701D01*
G02X70392Y168855I0J400D01*
G03X70802Y170000I-1392J1144D01*
G03X70709Y170572I-1802J1D01*
G02X71088Y171098I379J126D01*
G01X127202D01*
X128199Y170102D01*
X128198Y170018D01*
Y170000D01*
G03X130000Y171802I1802J0D01*
G01X129982D01*
X129898Y171801D01*
X129683Y172016D01*
G02X129966Y172698I283J282D01*
G01X158900D01*
G03X159750Y173050I0J1202D01*
G01X172817Y186117D01*
X172947Y186050D01*
G03X175000Y185548I2054J3950D01*
G03X170548Y190000I0J4452D01*
G03X171050Y187947I4452J1D01*
G01X171117Y187817D01*
X158402Y175102D01*
X152766D01*
G02X152483Y175784I0J400D01*
G01X162817Y186117D01*
X162947Y186050D01*
G03X165000Y185548I2054J3950D01*
G03X160548Y190000I0J4452D01*
G03X161050Y187947I4452J1D01*
G01X161117Y187817D01*
X150002Y176702D01*
X143870D01*
X143746Y177058D01*
G03X143850Y177150I-743J945D01*
G01X152817Y186117D01*
X152947Y186050D01*
G03X155000Y185548I2054J3950D01*
G03X150548Y190000I0J4452D01*
G03X151050Y187947I4452J1D01*
G01X151117Y187817D01*
X142502Y179202D01*
X-5657D01*
G03X-7000Y179802I-1343J-1203D01*
G03X-8802Y178000I0J-1802D01*
G03X-8645Y177265I1802J1D01*
G02X-9010Y176702I-365J-163D01*
G01X-10500D01*
G03X-11350Y176350I0J-1202D01*
G01X-12316Y175383D01*
G02X-12998Y175666I-282J283D01*
G01Y182878D01*
X-9998Y185878D01*
Y191622D01*
X-11878Y193502D01*
X-17622D01*
X-19502Y191622D01*
Y188803D01*
G03X-20002Y187000I3001J-1803D01*
G01Y176450D01*
X-28450Y168002D01*
X-33500D01*
G03X-35976Y166976I0J-3501D01*
G01X-43476Y159476D01*
G03X-44502Y157000I2475J-2476D01*
G01Y143587D01*
G02X-44990Y143197I-400J0D01*
G03X-45498Y143254I-509J-2244D01*
G01X-45500D01*
G03X-47802Y140953I0J-2302D01*
G01Y82000D01*
G03X-47127Y80373I2301J1D01*
G01X-30302Y63547D01*
Y20500D01*
G03X-29627Y18873I2301J1D01*
G01X-21627Y10873D01*
G03X-20000Y10198I1628J1626D01*
G01X-3339D01*
G02X-3210Y9420I-1J-400D01*
G03X-9952Y0I3210J-9420D01*
G03X-8917Y-4418I9952J1D01*
G02X-9275Y-4996I-358J-178D01*
G01X-49996D01*
Y194996D01*
X-4275D01*
G02X-3917Y194418I0J-400D01*
G03X-4952Y190000I8917J-4419D01*
G03X5000Y180048I9952J0D01*
G03X14601Y187379I0J9952D01*
G02X15317Y187498I385J-106D01*
G03X19000Y185548I3683J2503D01*
G03Y194452I0J4452D01*
G03X15317Y192502I0J-4453D01*
G02X14601Y192621I-331J225D01*
G03X13917Y194418I-9599J-2625D01*
G02X14275Y194996I358J178D01*
G01X244996D01*
Y177500D01*
X170232D01*
G03X168818Y176914I0J-1999D01*
G01X153154Y161250D01*
X31250D01*
G03X29836Y160664I0J-1999D01*
G01X28172Y159000D01*
X-3500D01*
G03X-4914Y158414I0J-1999D01*
G01X-9414Y153914D01*
G03X-10000Y152500I1413J-1414D01*
G01Y150500D01*
X-13500Y147000D01*
Y33500D01*
X-10000Y30000D01*
Y28000D01*
G03X-9414Y26586I1999J0D01*
G01X-4512Y21684D01*
G02X-4795Y21002I-283J-282D01*
G01X-16550D01*
X-19498Y23950D01*
Y66500D01*
G03X-20524Y68976I-3501J0D01*
G01X-37498Y85950D01*
Y89936D01*
G02X-36816Y90219I400J0D01*
G01X-34801Y88204D01*
X-34802Y88120D01*
Y88102D01*
G03X-33000Y86300I1802J0D01*
G03X-31427Y87223I0J1802D01*
G02X-30795Y87310I349J-196D01*
G01X-30152Y86667D01*
X-30241Y86531D01*
G03X-30536Y85543I1507J-988D01*
G03X-26932I1802J0D01*
G03X-27534Y86887I-1801J0D01*
G03X-27532Y86948I-1200J70D01*
G03X-27884Y87798I-1202J0D01*
G01X-31764Y91677D01*
G02X-31623Y92018I142J141D01*
G01X-31346D01*
X-31287Y91959D01*
G03X-30000Y91418I1287J1260D01*
G03X-28198Y93220I0J1802D01*
G03X-28224Y93523I-1802J-2D01*
G02X-27787Y93988I394J67D01*
G03X-27599Y93978I190J1792D01*
G01X-27596D01*
G03Y97582I0J1802D01*
G01X-27599D01*
G03X-27787Y97572I2J-1802D01*
G02X-28224Y98037I-43J398D01*
G03X-28198Y98339I-1776J305D01*
G03X-28224Y98641I-1802J-3D01*
G02X-27787Y99106I394J67D01*
G03X-27599Y99096I190J1792D01*
G01X-27596D01*
G03X-25794Y100898I0J1802D01*
G01Y100916D01*
X-25795Y101000D01*
X-23650Y103144D01*
G03X-23298Y103994I-850J850D01*
G01Y119000D01*
G03X-23650Y119850I-1202J0D01*
G01X-27798Y123998D01*
Y137170D01*
G02X-27456Y137310I200J0D01*
G03X-27450Y137303I913J777D01*
G01X-26201Y136055D01*
X-26202Y135971D01*
Y135953D01*
G03X-24400Y137755I1802J0D01*
G01X-24418D01*
X-24502Y137754D01*
X-25398Y138651D01*
Y138834D01*
G37*
G36*
G01X-30998Y102789D02*
Y120571D01*
G02X-30316Y120854I400J0D01*
G01X-27702Y118239D01*
Y105604D01*
X-30646Y102660D01*
G03X-30655Y102650I888J-808D01*
G01X-30998Y102789D01*
G37*
G36*
G01X-31753Y156798D02*
X-31383D01*
G02X-31242Y156457I-1J-200D01*
G01X-33800Y153900D01*
G03X-34152Y153050I850J-850D01*
G01Y148048D01*
X-35466Y146733D01*
G02X-36148Y147016I-282J283D01*
G01Y152403D01*
X-31753Y156798D01*
G37*
G36*
G01X181089Y11000D02*
G02X180806Y11683I0J400D01*
G01X181502Y12378D01*
Y114834D01*
G02X182184Y115117I400J0D01*
G01X192708Y104592D01*
Y103843D01*
G03Y101157I1203J-1343D01*
G01Y70542D01*
G03X192108Y69199I1203J-1343D01*
G01Y69193D01*
G02X191745Y68793I-400J-2D01*
G03Y65205I165J-1794D01*
G02X192108Y64805I-37J-398D01*
G01Y64799D01*
G03X192110Y64711I1802J-3D01*
G02X191747Y64294I-399J-19D01*
G03X190108Y62499I163J-1795D01*
G03X191047Y60917I1802J0D01*
G02Y60215I-192J-351D01*
G03X190108Y58633I863J-1582D01*
G03X191747Y56838I1802J0D01*
G02X192110Y56421I-36J-398D01*
G03X192108Y56333I1800J-85D01*
G01Y56327D01*
G02X191745Y55927I-400J-2D01*
G03Y52339I165J-1794D01*
G02X192108Y51939I-37J-398D01*
G01Y51933D01*
G03X193910Y50131I1802J0D01*
G03X195310Y50798I0J1803D01*
G01X196499D01*
G03X197349Y51150I0J1202D01*
G01X211760Y65561D01*
G03X212112Y66411I-850J850D01*
G01Y83657D01*
G03Y86343I-1203J1343D01*
G01Y104934D01*
G03X211760Y105784I-1202J0D01*
G01X195711Y121832D01*
X195712Y121916D01*
Y121934D01*
G03X194075Y123728I-1802J0D01*
G02X193712Y124128I37J398D01*
G01Y124140D01*
G02X194075Y124540I400J2D01*
G03X195468Y125429I-165J1794D01*
G02X196169Y125412I346J-201D01*
G03X205000Y120048I8831J4587D01*
G03Y139952I0J9952D01*
G03X196414Y135032I0J-9952D01*
G02X195677Y135155I-345J202D01*
G03X194075Y136594I-1767J-355D01*
G02X193712Y136994I37J398D01*
G01Y137006D01*
G02X194075Y137406I400J2D01*
G03X195712Y139200I-165J1794D01*
G03X193910Y141002I-1802J0D01*
G03X192567Y140402I0J-1803D01*
G01X189700D01*
G03X188850Y140050I0J-1202D01*
G01X182184Y133383D01*
G02X181502Y133666I-282J283D01*
G01Y136122D01*
X179622Y138002D01*
X164878D01*
X162998Y136122D01*
Y72191D01*
G02X162561Y71793I-400J0D01*
G03X162393Y71801I-170J-1794D01*
G03Y68197I0J-1802D01*
G03X162561Y68205I-2J1802D01*
G02X162998Y67807I37J-398D01*
G01Y24122D01*
X161878Y23002D01*
X108878D01*
X106498Y20622D01*
Y11878D01*
X106694Y11683D01*
G02X106411Y11000I-283J-283D01*
G01X96328D01*
X92414Y14914D01*
G03X91000Y15500I-1414J-1413D01*
G01X73100D01*
G03X73000Y15502I-120J-3500D01*
G01X46000D01*
G03X45900Y15500I20J-3502D01*
G01X21328D01*
X14414Y22414D01*
G03X13000Y23000I-1414J-1413D01*
G01X-172D01*
X-6000Y28828D01*
Y31000D01*
X-3500Y33500D01*
Y147000D01*
X-6000Y149500D01*
Y151672D01*
X-2672Y155000D01*
X29000D01*
G03X30414Y155586I0J1999D01*
G01X32078Y157250D01*
X153982D01*
G03X155395Y157835I0J1999D01*
G01X171060Y173500D01*
X244996D01*
Y11000D01*
X210762D01*
G02X210540Y11732I1J400D01*
G03X214952Y20000I-5541J8268D01*
G03X195048I-9952J0D01*
G03X199460Y11732I9953J0D01*
G02X199238Y11000I-223J-332D01*
G01X181089D01*
G37*
G36*
G01X-11500Y186500D02*
X-15500Y182500D01*
X-18000D01*
Y191000D01*
X-17000Y192000D01*
X-12500D01*
X-11500Y191000D01*
Y186500D01*
G37*
G36*
G01X9275Y-4996D02*
G02X8917Y-4418I0J400D01*
G03X9952Y0I-8917J4419D01*
G03X3210Y9420I-9952J0D01*
G02X3339Y10198I130J378D01*
G01X6547D01*
X14073Y2673D01*
G03X15700Y1998I1628J1626D01*
G01X44800D01*
G03X46427Y2673I-1J2301D01*
G01X48453Y4698D01*
X50540D01*
G02X50842Y4037I-1J-400D01*
G03X50548Y3250I908J-788D01*
G01Y-3250D01*
G03X51750Y-4452I1202J0D01*
G01X58250D01*
G03X59452Y-3250I0J1202D01*
G01Y3250D01*
G03X59158Y4037I-1202J-1D01*
G02X59460Y4698I303J261D01*
G01X61047D01*
X61943Y3802D01*
G02X61935Y3229I-283J-283D01*
G03X60548Y0I3065J-3229D01*
G03X69452I4452J0D01*
G03X67394Y3754I-4453J0D01*
G01X67302Y3813D01*
Y4000D01*
G03X66627Y5627I-2301J-1D01*
G01X64439Y7816D01*
G02X64722Y8498I283J282D01*
G01X71550D01*
X74926Y5122D01*
G02X74673Y4440I-282J-283D01*
G03X70548Y0I327J-4440D01*
G03X75000Y-4452I4452J0D01*
G03X79440Y-327I0J4452D01*
G02X80122Y-74I399J-29D01*
G01X80579Y-531D01*
X80588Y-598D01*
G03X85000Y-4452I4412J598D01*
G03X89452Y0I0J4452D01*
G03X85598Y4412I-4452J0D01*
G01X85531Y4421D01*
X79135Y10817D01*
G02X79417Y11500I283J283D01*
G01X90172D01*
X94086Y7586D01*
G03X95500Y7000I1414J1413D01*
G01X244996D01*
Y-4996D01*
X9275D01*
G37*
G36*
G01X158198Y20301D02*
Y20300D01*
G03X158712Y19040I1801J0D01*
G02Y18760I-143J-140D01*
G03X158198Y17500I1287J-1260D01*
G03X161802I1802J0D01*
G03X161288Y18760I-1801J0D01*
G02Y19040I143J140D01*
G03X161802Y20300I-1287J1260D01*
G01Y20301D01*
G03X161679Y20955I-1802J0D01*
G02X162051Y21500I373J145D01*
G01X162500D01*
X164500Y23500D01*
Y135500D01*
X165500Y136500D01*
X179000D01*
X180000Y135500D01*
Y13000D01*
X178000Y11000D01*
X109500D01*
X108000Y12500D01*
Y20000D01*
X109500Y21500D01*
X157949D01*
G02X158321Y20955I-1J-400D01*
G03X158198Y20301I1679J-654D01*
G37*
%LPC*%
G75*
G36*
G01X104548Y186750D02*
Y193250D01*
G02X105750Y194452I1202J0D01*
G01X112250D01*
G02X113452Y193250I0J-1202D01*
G01Y186750D01*
G02X112250Y185548I-1202J0D01*
G01X105750D01*
G02X104548Y186750I0J1202D01*
G37*
G36*
G01X190548D02*
Y193250D01*
G02X191750Y194452I1202J0D01*
G01X198250D01*
G02X199452Y193250I0J-1202D01*
G01Y186750D01*
G02X198250Y185548I-1202J0D01*
G01X191750D01*
G02X190548Y186750I0J1202D01*
G37*
G36*
G01X-43319Y47228D02*
G03Y47772I-293J272D01*
G02X-43802Y49000I1320J1228D01*
G02X-42000Y50802I1802J0D01*
G02X-40772Y50319I0J-1803D01*
G03X-40228I272J293D01*
G02X-39000Y50802I1228J-1320D01*
G02X-37198Y49000I0J-1802D01*
G02X-37681Y47772I-1803J0D01*
G03Y47228I293J-272D01*
G02X-37198Y46000I-1320J-1228D01*
G02X-39000Y44198I-1802J0D01*
G02X-40228Y44681I0J1803D01*
G03X-40772I-272J-293D01*
G02X-42000Y44198I-1228J1320D01*
G02X-43802Y46000I0J1802D01*
G02X-43319Y47228I1803J0D01*
G37*
G36*
G01X-19819Y113728D02*
G03Y114272I-293J272D01*
G02X-20302Y115500I1320J1228D01*
G02X-16698I1802J0D01*
G02X-17181Y114272I-1803J0D01*
G03Y113728I293J-272D01*
G02X-16698Y112500I-1320J-1228D01*
G02X-20302I-1802J0D01*
G02X-19819Y113728I1803J0D01*
G37*
G36*
G01X65726Y155774D02*
G02X67000Y156302I1274J-1273D01*
G01X96000D01*
G02X97274Y155774I0J-1801D01*
G01X103774Y149274D01*
G02X104302Y148000I-1273J-1274D01*
G01Y146767D01*
G02X104730Y146435I-1803J-2766D01*
G03X105270I270J295D01*
G02X109730I2230J-2434D01*
G03X110270I270J295D01*
G02X114730I2230J-2434D01*
G03X115270I270J295D01*
G02X117500Y147302I2230J-2434D01*
G02X120802Y144000I0J-3302D01*
G02X119935Y141770I-3301J0D01*
G03Y141230I295J-270D01*
G02X120802Y139000I-2434J-2230D01*
G02X118702Y135924I-3303J0D01*
G01Y133500D01*
G02X118350Y132650I-1202J0D01*
G01X116702Y131002D01*
Y119703D01*
G03X117401Y119438I400J0D01*
G02X117450Y119491I906J-789D01*
G01X121106Y123146D01*
X121105Y123230D01*
Y123248D01*
G02X122907Y121446I1802J0D01*
G01X122889D01*
X122805Y121447D01*
X119502Y118143D01*
Y112119D01*
G03X120010Y111734I400J0D01*
G02X120500Y111802I490J-1734D01*
G02X122302Y110000I0J-1802D01*
G02X121761Y108713I-1801J0D01*
G01X121702Y108654D01*
Y108549D01*
G03X122248Y108177I400J0D01*
G02X122907Y108302I659J-1677D01*
G02X124709Y106500I0J-1802D01*
G01Y106482D01*
X124708Y106398D01*
X126850Y104257D01*
G02X127202Y103407I-850J-850D01*
G01Y87000D01*
G02X126850Y86150I-1202J0D01*
G01X120202Y79502D01*
Y69498D01*
X136898Y52801D01*
X136982Y52802D01*
X137000D01*
G02X135198Y51000I0J-1802D01*
G01Y51018D01*
X135199Y51102D01*
X118150Y68150D01*
G02X117798Y69000I850J850D01*
G01Y80000D01*
G02X118150Y80850I1202J0D01*
G01X124798Y87498D01*
Y88132D01*
G03X124128Y88426I-400J0D01*
G02X122907Y87950I-1220J1326D01*
G02Y91554I0J1802D01*
G02X124128Y91078I1J-1802D01*
G03X124798Y91372I270J294D01*
G01Y96506D01*
G03X124128Y96800I-400J0D01*
G02X122907Y96324I-1220J1326D01*
G02X121105Y98126I0J1802D01*
G01Y98144D01*
X121106Y98228D01*
X120184Y99150D01*
G03X119502Y98867I-282J-283D01*
G01Y97800D01*
G02X119150Y96950I-1202J0D01*
G01X116301Y94102D01*
X116302Y94018D01*
Y94000D01*
G02X114500Y95802I-1802J0D01*
G01X114518D01*
X114602Y95801D01*
X114816Y96015D01*
G03X114527Y96698I-282J283D01*
G01X114500D01*
G02X116302Y98500I0J1802D01*
G01Y98473D01*
G03X116985Y98184I400J-7D01*
G01X117098Y98298D01*
Y108938D01*
G03X116399Y109203I-400J0D01*
G02X116350Y109150I-906J789D01*
G01X109150Y101950D01*
G02X108300Y101598I-850J850D01*
G01X93088D01*
G03X92709Y101072I0J-400D01*
G02X92802Y100500I-1709J-571D01*
G02X89198I-1802J0D01*
G02X89291Y101072I1802J1D01*
G03X88912Y101598I-379J126D01*
G01X88798D01*
X87202Y100002D01*
Y99343D01*
G02X87802Y98000I-1203J-1343D01*
G02X86000Y96198I-1802J0D01*
G02X84568Y96906I0J1802D01*
G03X83932I-318J-242D01*
G02X82500Y96198I-1432J1094D01*
G02X81765Y96355I1J1802D01*
G03X81202Y95990I-163J-365D01*
G01Y88843D01*
G02X81802Y87500I-1203J-1343D01*
G02X80000Y85698I-1802J0D01*
G02X79510Y85766I0J1802D01*
G03X79002Y85381I-108J-385D01*
G01Y74300D01*
G02X78650Y73450I-1202J0D01*
G01X72301Y67102D01*
X72302Y67018D01*
Y67000D01*
G02X70500Y65198I-1802J0D01*
G02X69765Y65355I1J1802D01*
G03X69202Y64990I-163J-365D01*
G01Y60498D01*
X70398Y59301D01*
X70482Y59302D01*
X70500D01*
G02X72302Y57500I0J-1802D01*
G02X72179Y56847I-1802J1D01*
G03X72552Y56302I373J-145D01*
G01X74254D01*
X76698Y58746D01*
Y65920D01*
G02X77226Y67194I1801J0D01*
G01X84306Y74274D01*
G02X85580Y74802I1274J-1273D01*
G01X91254D01*
X97726Y81274D01*
G02X99000Y81802I1274J-1273D01*
G02X100802Y80000I0J-1802D01*
G02X100274Y78726I-1801J0D01*
G01X93274Y71726D01*
G02X93194Y71651I-1272J1276D01*
G03X93327Y71302I133J-149D01*
G01X94254D01*
X104226Y81274D01*
G02X105500Y81802I1274J-1273D01*
G02X107302Y80000I0J-1802D01*
G02X106774Y78726I-1801J0D01*
G01X96274Y68226D01*
G02X96194Y68151I-1272J1276D01*
G03X96327Y67802I133J-149D01*
G01X97254D01*
X110726Y81274D01*
G02X112000Y81802I1274J-1273D01*
G02X113802Y80000I0J-1802D01*
G02X113274Y78726I-1801J0D01*
G01X99274Y64726D01*
G02X98000Y64198I-1274J1273D01*
G01X89246D01*
X88302Y63254D01*
Y56000D01*
G02X87774Y54726I-1801J0D01*
G01X79324Y46276D01*
G02X78050Y45748I-1274J1273D01*
G01X64950D01*
G02X63676Y46276I0J1801D01*
G01X60804Y49148D01*
G03X60127Y48799I-283J-283D01*
G02X60152Y48500I-1777J-299D01*
G02X58350Y50302I-1802J0D01*
G02X58649Y50277I0J-1802D01*
G03X58998Y50954I66J394D01*
G01X52526Y57426D01*
G02X51998Y58700I1273J1274D01*
G01Y73301D01*
G02X52526Y74575I1801J0D01*
G01X54698Y76747D01*
Y87754D01*
X52226Y90226D01*
G02X51698Y91500I1273J1274D01*
G01Y103704D01*
G03X51037Y104007I-400J0D01*
G02X49658Y103235I-2581J2993D01*
G01Y65843D01*
G02X50259Y64500I-1200J-1343D01*
G02X46655I-1802J0D01*
G02X47256Y65843I1801J0D01*
G01Y103235D01*
G02X45864Y104018I1201J3765D01*
G03X45202Y103716I-262J-302D01*
G01Y74343D01*
G02X45802Y73000I-1203J-1343D01*
G02X42198I-1802J0D01*
G02X42798Y74343I1803J0D01*
G01Y122544D01*
G02X43150Y123394I1202J0D01*
G01X44943Y125186D01*
X44883Y125313D01*
G02X44505Y127000I3574J1687D01*
G02X48457Y130952I3952J0D01*
G02X51037Y129993I-1J-3952D01*
G03X51698Y130296I261J303D01*
G01Y141000D01*
G02X52226Y142274I1801J0D01*
G01X65726Y155774D01*
G37*
G36*
G01X30000Y140202D02*
X44157D01*
G02X45500Y140802I1343J-1203D01*
G02Y137198I0J-1802D01*
G02X44157Y137798I0J1803D01*
G01X30498D01*
X27083Y134384D01*
G03X27366Y133702I283J-282D01*
G01X44157D01*
G02X45500Y134302I1343J-1203D01*
G02Y130698I0J-1802D01*
G02X44157Y131298I0J1803D01*
G01X29434D01*
G03X29256Y130540I0J-400D01*
G02X31452Y127000I-1755J-3540D01*
G02X27500Y123048I-3952J0D01*
G02X23549Y126895I0J3952D01*
G03X22867Y127168I-400J-10D01*
G01X11980Y116281D01*
Y90343D01*
G02X12581Y89000I-1200J-1343D01*
G02X11902Y87591I-1801J0D01*
G03X11905Y86963I249J-313D01*
G02X12598Y85543I-1108J-1420D01*
G02X8994I-1802J0D01*
G01Y85561D01*
X8995Y85645D01*
X7150Y87489D01*
G02X6798Y88339I850J850D01*
G01Y117000D01*
G02X7150Y117850I1202J0D01*
G01X21318Y132017D01*
G03X21119Y132691I-283J283D01*
G02X19694Y134453I377J1762D01*
G02X21496Y136255I1802J0D01*
G02X23258Y134830I0J-1802D01*
G03X23932Y134631I391J84D01*
G01X29150Y139850D01*
G02X30000Y140202I850J-850D01*
G37*
G36*
G01X152246Y141363D02*
G02X151198Y143000I755J1637D01*
G02X154802I1802J0D01*
G02X154799Y142900I-1802J4D01*
G01X154898Y142802D01*
X155400D01*
G02X156250Y142450I0J-1202D01*
G01X158450Y140250D01*
G02X158802Y139400I-850J-850D01*
G01Y133880D01*
G03X159490Y133603I400J0D01*
G02X160791Y134158I1301J-1247D01*
G02Y130554I0J-1802D01*
G02X159490Y131109I0J1802D01*
G03X158802Y130832I-288J-277D01*
G01Y123837D01*
G02X158450Y122987I-1202J0D01*
G01X150302Y114840D01*
Y73160D01*
X150379Y73084D01*
X151192D01*
X151216Y73255D01*
G02X153000Y74801I1784J-256D01*
G02X154802Y72999I0J-1802D01*
G02X153754Y71362I-1803J0D01*
G03Y70636I167J-363D01*
G02X154802Y68999I-755J-1637D01*
G02X153000Y67197I-1802J0D01*
G02X151234Y68639I0J1802D01*
G01X151202Y68798D01*
X149500D01*
G02X148650Y69150I0J1202D01*
G01X146650Y71150D01*
G02X146298Y72000I850J850D01*
G01Y116000D01*
G02X146650Y116850I1202J0D01*
G01X154798Y124998D01*
Y137299D01*
G03X154145Y137608I-400J0D01*
G02X153000Y137198I-1144J1392D01*
G02X151198Y139000I0J1802D01*
G02X152246Y140637I1803J0D01*
G03Y141363I-167J363D01*
G37*
G36*
G01X155204Y48659D02*
Y115974D01*
G02X154604Y117317I1203J1343D01*
G02X158208I1802J0D01*
G02X157608Y115974I-1803J0D01*
G01Y48659D01*
G02X158208Y47316I-1203J-1343D01*
G02X154604I-1802J0D01*
G02X155204Y48659I1803J0D01*
G37*
G36*
G01X181Y113728D02*
G03Y114272I-293J272D01*
G02X-302Y115500I1320J1228D01*
G02X3302I1802J0D01*
G02X2819Y114272I-1803J0D01*
G03Y113728I293J-272D01*
G02X3302Y112500I-1320J-1228D01*
G02X-302I-1802J0D01*
G02X181Y113728I1803J0D01*
G37*
G36*
G01X121298Y71999D02*
Y76157D01*
G02X120698Y77500I1203J1343D01*
G02X124302I1802J0D01*
G02X123702Y76157I-1803J0D01*
G01Y72497D01*
X136897Y59301D01*
X136981Y59302D01*
X136999D01*
G02X135197Y57500I0J-1802D01*
G01Y57518D01*
X135198Y57602D01*
X121650Y71149D01*
G02X121298Y71999I850J850D01*
G37*
G36*
G01X85681Y47728D02*
G03Y48272I-293J272D01*
G02X85198Y49500I1320J1228D01*
G02X87000Y51302I1802J0D01*
G02X88228Y50819I0J-1803D01*
G03X88772I272J293D01*
G02X90000Y51302I1228J-1320D01*
G02X91802Y49500I0J-1802D01*
G02X91319Y48272I-1803J0D01*
G03Y47728I293J-272D01*
G02X91802Y46500I-1320J-1228D01*
G02X90000Y44698I-1802J0D01*
G02X88772Y45181I0J1803D01*
G03X88228I-272J-293D01*
G02X87000Y44698I-1228J1320D01*
G02X85198Y46500I0J1802D01*
G02X85681Y47728I1803J0D01*
G37*
G36*
G01X34239Y44383D02*
G03X33694Y44837I-391J85D01*
G02X33000Y44698I-694J1663D01*
G02Y48302I0J1802D01*
G02X34228Y47819I0J-1803D01*
G03X34772I272J293D01*
G02X36000Y48302I1228J-1320D01*
G02X37802Y46500I0J-1802D01*
G02X37298Y45250I-1802J0D01*
G02Y42750I-1298J-1250D01*
G02X37802Y41500I-1298J-1250D01*
G02X34198I-1802J0D01*
G02X34702Y42750I1802J0D01*
G02X34198Y44000I1298J1250D01*
G02X34239Y44383I1802J1D01*
G37*
G36*
G01X123750Y38298D02*
G02X125000Y38802I1250J-1298D01*
G02Y35198I0J-1802D01*
G02X123750Y35702I0J1802D01*
G02X122500Y35198I-1250J1298D01*
G02Y38802I0J1802D01*
G02X123750Y38298I0J-1802D01*
G37*
G36*
G01X50728Y35319D02*
G03X51272I272J293D01*
G02X53728I1228J-1320D01*
G03X54272I272J293D01*
G02X55500Y35802I1228J-1320D01*
G02Y32198I0J-1802D01*
G02X54272Y32681I0J1803D01*
G03X53728I-272J-293D01*
G02X51272I-1228J1320D01*
G03X50728I-272J-293D01*
G02X48272I-1228J1320D01*
G03X47728I-272J-293D01*
G02X46500Y32198I-1228J1320D01*
G02Y35802I0J1802D01*
G02X47728Y35319I0J-1803D01*
G03X48272I272J293D01*
G02X50728I1228J-1320D01*
G37*
G36*
G01X18728Y32819D02*
G03X19272I272J293D01*
G02X21728I1228J-1320D01*
G03X22272I272J293D01*
G02X23500Y33302I1228J-1320D01*
G02X25302Y31500I0J-1802D01*
G02X24594Y30068I-1802J0D01*
G03Y29432I242J-318D01*
G02X25302Y28000I-1094J-1432D01*
G02X23500Y26198I-1802J0D01*
G02X22272Y26681I0J1803D01*
G03X21728I-272J-293D01*
G02X19272I-1228J1320D01*
G03X18728I-272J-293D01*
G02X17500Y26198I-1228J1320D01*
G02X15698Y28000I0J1802D01*
G02X16406Y29432I1802J0D01*
G03Y30068I-242J318D01*
G02X15698Y31500I1094J1432D01*
G02X17500Y33302I1802J0D01*
G02X18728Y32819I0J-1803D01*
G37*
G36*
G01X226674Y21750D02*
Y28250D01*
G02X227875Y29452I1201J1D01*
G01X234375D01*
G02X235576Y28250I-1J-1202D01*
G01Y21750D01*
G02X234375Y20548I-1201J-1D01*
G01X227875D01*
G02X226674Y21750I1J1202D01*
G37*
G36*
G01X140548Y-3250D02*
Y3250D01*
G02X141750Y4452I1202J0D01*
G01X148250D01*
G02X149452Y3250I0J-1202D01*
G01Y-3250D01*
G02X148250Y-4452I-1202J0D01*
G01X141750D01*
G02X140548Y-3250I0J1202D01*
G37*
G54D23*
X15600Y57436D03*
X21496Y140953D03*
X15600Y47436D03*
X47200Y149346D03*
X11850Y151003D03*
X128500Y143500D03*
X110000Y94000D03*
X110028Y98416D03*
X87500Y80000D03*
X146364Y51066D03*
Y121067D03*
X167670Y143763D03*
X92500Y80000D03*
Y84500D03*
X162393Y140000D03*
X167670Y73762D03*
X146504Y19000D03*
X145000Y15000D03*
X175000D03*
Y25000D03*
X170000Y110000D03*
Y80000D03*
G54D22*
X27500Y107000D03*
G54D21*
X125000Y190000D03*
X135000D03*
X145000D03*
X185000D03*
X29000D03*
X39000D03*
X49000D03*
X59000D03*
X69000D03*
X79000D03*
X89000D03*
X99000D03*
X231125Y115000D03*
Y125000D03*
Y135000D03*
Y145000D03*
Y155000D03*
Y165000D03*
Y35000D03*
Y45000D03*
Y55000D03*
Y65000D03*
Y75000D03*
Y85000D03*
Y95000D03*
Y105000D03*
X221125Y25000D03*
Y115000D03*
Y125000D03*
Y135000D03*
Y145000D03*
Y155000D03*
Y165000D03*
Y35000D03*
Y45000D03*
Y55000D03*
Y65000D03*
Y75000D03*
Y85000D03*
Y95000D03*
Y105000D03*
X155000Y0D03*
X165000D03*
X175000D03*
X185000D03*
X195000D03*
X95000D03*
X105000D03*
X115000D03*
X125000D03*
%LPD*%
G75*
G36*
G01X73246Y146698D02*
X79598D01*
G02X79912Y146050I0J-400D01*
G03X79733Y145802I2585J-2054D01*
G01X79000D01*
G03X77726Y145274I0J-1801D01*
G01X67726Y135274D01*
G03X67198Y134000I1273J-1274D01*
G01Y109000D01*
G03X70802I1802J0D01*
G01Y110933D01*
G02X71339Y111309I400J0D01*
G03X71961Y111198I623J1691D01*
G03Y114802I0J1802D01*
G03X71339Y114691I1J-1802D01*
G02X70802Y115067I-137J376D01*
G01Y133254D01*
X79000Y141453D01*
X79204Y141248D01*
X79200Y141160D01*
G03X79198Y141100I1200J-70D01*
G01Y136900D01*
G03X80400Y135698I1202J0D01*
G01X81298D01*
Y110911D01*
X70602Y100214D01*
X70518Y100215D01*
X70500D01*
G03X72302Y98413I0J-1802D01*
G01Y98431D01*
X72301Y98515D01*
X74316Y100530D01*
G02X74998Y100247I282J-283D01*
G01Y76698D01*
X67150Y68850D01*
G03X66798Y68000I850J-850D01*
G01Y60000D01*
G03X67150Y59150I1202J0D01*
G01X68699Y57602D01*
X68698Y57518D01*
Y57500D01*
G03X68705Y57342I1802J1D01*
G02X68024Y57024I-398J-35D01*
G01X62802Y62246D01*
Y69255D01*
X67774Y74227D01*
G03X68302Y75501I-1273J1274D01*
G01Y89500D01*
G03X67774Y90774I-1801J0D01*
G01X63302Y95246D01*
Y121048D01*
G02X63847Y121421I400J0D01*
G03X64500Y121298I654J1679D01*
G03Y124902I0J1802D01*
G03X63847Y124779I1J-1802D01*
G02X63302Y125152I-145J373D01*
G01Y136754D01*
X73246Y146698D01*
G37*
G36*
G01X58302Y88500D02*
G03X58295Y88659I-1802J0D01*
G02X58976Y88977I398J35D01*
G01X60758Y87195D01*
Y77086D01*
X56226Y72555D01*
G03X55971Y72234I1274J-1274D01*
G01X55912Y72140D01*
X55602D01*
Y72555D01*
X57774Y74727D01*
G03X58302Y76001I-1273J1274D01*
G01Y88500D01*
G37*
G36*
G01X98702Y135924D02*
G03X99730Y136565I-1204J3075D01*
G02X100270I270J-295D01*
G03X101298Y135924I2232J2434D01*
G01Y133500D01*
G03X101650Y132650I1202J0D01*
G01X104298Y130002D01*
Y111498D01*
X101802Y109002D01*
X99064D01*
G02X98679Y109510I0J400D01*
G03X98747Y110000I-1734J490D01*
G01Y110018D01*
X98746Y110102D01*
X99850Y111205D01*
G03X100202Y112055I-850J850D01*
G01Y131000D01*
G03X99850Y131850I-1202J0D01*
G01X98702Y132998D01*
Y135924D01*
G37*
G36*
G01X93702D02*
G03X94730Y136565I-1204J3075D01*
G02X95270I270J-295D01*
G03X96298Y135924I2232J2434D01*
G01Y132500D01*
G03X96650Y131650I1202J0D01*
G01X97798Y130502D01*
Y112553D01*
X97047Y111801D01*
X96963Y111802D01*
X96945D01*
G03X95143Y110000I0J-1802D01*
G03X95211Y109510I1802J0D01*
G02X94826Y109002I-385J-108D01*
G01X91619D01*
G02X91234Y109510I0J400D01*
G03X91302Y110000I-1734J490D01*
G01Y110018D01*
X91301Y110102D01*
X93350Y112150D01*
G03X93702Y113000I-850J850D01*
G01Y113311D01*
X93983D01*
X94042Y113254D01*
G03X95307Y112735I1265J1282D01*
G03Y116339I0J1802D01*
G03X94320Y116045I0J-1802D01*
G02X93702Y116380I-218J335D01*
G01Y135924D01*
G37*
G36*
G01X103702D02*
G03X104730Y136565I-1204J3075D01*
G02X105270I270J-295D01*
G03X106298Y135924I2232J2434D01*
G01Y134000D01*
G03X106650Y133150I1202J0D01*
G01X111048Y128752D01*
Y116572D01*
G02X110496Y116202I-400J0D01*
G03X109807Y116339I-689J-1664D01*
G03Y112735I0J-1802D01*
G03X110496Y112872I0J1801D01*
G02X111048Y112502I152J-370D01*
G01Y111774D01*
X106476Y107202D01*
X104366D01*
G02X104083Y107884I0J400D01*
G01X106350Y110150D01*
G03X106702Y111000I-850J850D01*
G01Y130500D01*
G03X106350Y131350I-1202J0D01*
G01X103702Y133998D01*
Y135924D01*
G37*
G36*
G01X89730Y136565D02*
G02X90270I270J-295D01*
G03X91298Y135924I2232J2434D01*
G01Y116059D01*
G02X90609Y115782I-400J0D01*
G03X89307Y116339I-1303J-1245D01*
G03X87911Y115677I0J-1803D01*
G02X87202Y115930I-309J253D01*
G01Y127502D01*
X88350Y128650D01*
G03X88702Y129500I-850J850D01*
G01Y135924D01*
G03X89730Y136565I-1204J3075D01*
G37*
G54D10*
G01X105500Y80000D02*
X95000Y69500D01*
X87000D01*
X82500Y65000D01*
Y57000D01*
X76500Y51000D01*
X66500D01*
X57500Y60000D01*
Y71281D01*
X62559Y76340D01*
Y87941D01*
X57500Y93000D01*
Y139000D01*
X70000Y151500D01*
X94000D01*
X97500Y148000D01*
Y144000D01*
G01X112000Y80000D02*
X98000Y66000D01*
X88500D01*
X86500Y64000D01*
Y56000D01*
X78050Y47550D01*
X64950D01*
X53800Y58700D01*
Y73301D01*
X56500Y76001D01*
Y88500D01*
X53500Y91500D01*
Y141000D01*
X67000Y154500D01*
X96000D01*
X102500Y148000D01*
Y144000D01*
G01X92500D02*
Y146500D01*
X90500Y148500D01*
X72500D01*
X61500Y137500D01*
Y94500D01*
X66500Y89500D01*
Y75501D01*
X61000Y70001D01*
Y61500D01*
X68000Y54500D01*
X75000D01*
X78500Y58000D01*
Y65920D01*
X85580Y73000D01*
X92000D01*
X99000Y80000D01*
G01X69000Y109000D02*
Y134000D01*
X79000Y144000D01*
X82500D01*
X-45000Y15000D03*
Y25000D03*
X-42000Y46000D03*
Y49000D03*
X-45000Y55000D03*
Y65000D03*
Y75000D03*
X-45500Y134453D03*
Y140953D03*
X-45000Y165000D03*
Y175000D03*
Y185000D03*
X-35000Y5000D03*
X-32400Y27436D03*
X-41500Y32686D03*
X-35500D03*
X-35000Y25000D03*
X-39000Y46000D03*
Y49000D03*
X-32400Y52436D03*
Y47436D03*
Y57436D03*
X-30000Y93220D03*
X-28734Y85543D03*
X-27596Y95780D03*
X-30000Y98339D03*
X-33000Y88102D03*
X-28796Y117750D03*
X-27596Y100898D03*
X-24600Y130953D03*
X-24400Y135953D03*
Y140953D03*
X-35150Y151500D03*
X-28850D03*
X-30868Y183000D03*
X-25000Y173000D03*
X-29000Y176000D03*
Y173000D03*
X-25000Y176000D03*
X-36948Y175484D03*
X-30868Y189000D03*
X-35000Y190000D03*
X-15000Y5000D03*
Y35000D03*
Y25000D03*
X-2500Y35000D03*
X0Y25000D03*
X-15000Y55000D03*
Y45000D03*
X-2500Y55000D03*
Y45000D03*
X-15000Y75000D03*
Y65000D03*
X-2500Y75000D03*
Y65000D03*
X-17396Y82984D03*
X-15000Y85000D03*
Y95000D03*
X396Y82984D03*
X-2500Y95000D03*
Y85000D03*
X-18500Y115500D03*
Y112500D03*
X-17396Y103457D03*
X-15000Y105000D03*
X396Y103457D03*
X-2500Y105000D03*
X-15000Y125000D03*
X-2500D03*
X-7000Y178000D03*
X-16500Y190500D03*
Y187000D03*
X-13000Y190500D03*
Y187000D03*
X15000Y0D03*
X22500Y17500D03*
X17500Y31500D03*
X20500D03*
Y28000D03*
X17500D03*
X15600Y47436D03*
X15000Y75000D03*
X5000D03*
X15600Y57436D03*
X15000Y85000D03*
X10796Y85543D03*
X10779Y89000D03*
X1500Y115500D03*
Y112500D03*
X15246Y114000D03*
X15000Y105000D03*
X21496Y134453D03*
Y140953D03*
X7600Y130953D03*
X5000Y125000D03*
X11850Y151003D03*
X18150D03*
X19000Y163500D03*
X25000Y0D03*
X35000D03*
X33000Y32000D03*
X36000D03*
Y35000D03*
X35000Y25000D03*
X40000Y17500D03*
X23500Y31500D03*
Y28000D03*
X36000Y44000D03*
Y41500D03*
X33000Y46500D03*
X36000D03*
Y37500D03*
X34500Y56846D03*
X25000Y55000D03*
Y75000D03*
Y65000D03*
X35000Y75000D03*
Y65000D03*
X44000Y73000D03*
X25000Y85000D03*
X35000Y105000D03*
Y162500D03*
Y145000D03*
X29000Y163500D03*
X45000Y0D03*
X55500Y34000D03*
X52500D03*
X49500D03*
X46500D03*
X62000Y22950D03*
X45000Y25000D03*
X58350Y48500D03*
X54150Y47800D03*
X59759Y77500D03*
X64747Y69500D03*
X48457Y64500D03*
X52557Y83668D03*
X52500Y87500D03*
Y79500D03*
X65500Y97000D03*
X64500Y109900D03*
Y123100D03*
X45500Y139000D03*
Y132500D03*
X47200Y149346D03*
X45000Y162500D03*
X55000D03*
X65000D03*
X45000Y145000D03*
X59000Y166000D03*
X75500Y28500D03*
X69500D03*
Y33500D03*
X72500Y31000D03*
X75500Y33500D03*
X66100Y18500D03*
X78900D03*
X87000Y46500D03*
Y49500D03*
X72500Y36000D03*
X75500Y38500D03*
X69500D03*
X68300Y44750D03*
X76700D03*
X70500Y57500D03*
Y67000D03*
Y98413D03*
X80000Y87500D03*
X82500Y98000D03*
X86000D03*
X71961Y113000D03*
X69000Y109000D03*
X70864Y103500D03*
X71750Y143046D03*
X75000Y162500D03*
X85000D03*
X69000Y170000D03*
X79000Y167000D03*
X103500Y18500D03*
Y21500D03*
X90000Y46500D03*
Y49500D03*
X105500Y39950D03*
X101200Y36750D03*
X91000Y62107D03*
X99000D03*
X108000Y62900D03*
X87500Y80000D03*
X92500D03*
Y84500D03*
X105500Y80000D03*
X99000D03*
X89307Y114537D03*
X95307D03*
X91000Y100500D03*
X89500Y110000D03*
X96945D03*
X89307Y127737D03*
X95307D03*
X102307Y128530D03*
X95000Y162500D03*
X117000Y15500D03*
X114000D03*
X122500Y37000D03*
X125000D03*
X122500Y77500D03*
X115000Y62900D03*
X122907Y98126D03*
X114500Y94000D03*
X110000D03*
X110028Y98416D03*
X122907Y89752D03*
X114500Y98500D03*
X112000Y80000D03*
X120500Y110000D03*
X122907Y106500D03*
X109807Y114537D03*
X122907Y123248D03*
X109807Y127737D03*
X128500Y143500D03*
X130000Y170000D03*
X135000Y0D03*
X146608Y25000D03*
X146504Y19000D03*
X145000Y15000D03*
X137000Y51000D03*
X146364Y51066D03*
X135000Y45000D03*
X145000D03*
X136999Y57500D03*
X146500Y57613D03*
X146560Y64566D03*
X146364Y121067D03*
X146500Y127614D03*
X146560Y134567D03*
X132500Y162500D03*
X142500D03*
X160000Y20300D03*
Y17500D03*
X161969Y51030D03*
X156406Y47316D03*
X167670Y47370D03*
X170000Y56000D03*
X162393Y69999D03*
X160791Y62355D03*
X153000Y68999D03*
Y72999D03*
X167670Y73762D03*
X170000Y60500D03*
Y65000D03*
X160000Y80000D03*
X170000D03*
X161969Y121031D03*
X160000Y110000D03*
X170000D03*
X156406Y117317D03*
X167670Y117371D03*
X160791Y132356D03*
X162393Y140000D03*
X153000Y139000D03*
Y143000D03*
X170000Y126001D03*
Y130501D03*
Y135001D03*
X152500Y162500D03*
X167670Y143763D03*
X160000Y170000D03*
X170000Y180000D03*
X165000Y165000D03*
X175000Y15000D03*
Y25000D03*
X185000D03*
Y15000D03*
X184500Y50000D03*
X193910Y51933D03*
X191910Y54133D03*
X193910Y56333D03*
X179000Y56000D03*
X174500D03*
X185000Y70000D03*
X191910Y58633D03*
Y62499D03*
X193910Y64799D03*
X191910Y66999D03*
X193910Y69199D03*
X179000Y60500D03*
Y65000D03*
X174500D03*
X174560Y60566D03*
X193910Y102500D03*
X185000Y140000D03*
X193910Y121934D03*
X191910Y124134D03*
X193910Y126334D03*
X191910Y128634D03*
Y132500D03*
X193910Y134800D03*
X191910Y137000D03*
X193910Y139200D03*
X179000Y126001D03*
X174500D03*
X179000Y130501D03*
Y135001D03*
X174500D03*
X174560Y130567D03*
X175000Y155000D03*
X185000D03*
Y180000D03*
X175000Y165000D03*
X185000D03*
X215000Y0D03*
X195000Y25000D03*
Y15000D03*
X215000D03*
X202500Y50000D03*
X210000D03*
Y57500D03*
X215000Y90000D03*
Y97500D03*
X210910Y85000D03*
X208410Y87500D03*
X205910Y90000D03*
X203410Y92500D03*
X200910Y95000D03*
X198710Y97500D03*
X196410Y100000D03*
X200000Y120000D03*
X215000Y122500D03*
X197500Y140000D03*
X195000Y155000D03*
X205000D03*
X215000D03*
X195000Y180000D03*
X205000D03*
X215000D03*
X210000Y185000D03*
X195000Y165000D03*
X205000D03*
X215000D03*
X205000Y190000D03*
X215000D03*
X225000Y0D03*
X235000D03*
X225000Y15000D03*
X235000D03*
X225000Y180000D03*
X235000D03*
X220000Y185000D03*
X230000D03*
X225000Y190000D03*
X235000D03*
X242500Y180000D03*
X240000Y185000D03*
X242500Y190000D03*
G54D20*
G01X56000Y269000D02*
X55000Y268667D01*
X54250Y267833D01*
X53750Y266833D01*
X53375Y265500D01*
X53250Y264000D01*
X53375Y262500D01*
X53750Y261167D01*
X54250Y260166D01*
X55000Y259333D01*
X56000Y259000D01*
X57000Y259333D01*
X57750Y260166D01*
X58250Y261167D01*
X58625Y262500D01*
X58750Y264000D01*
X58625Y265500D01*
X58250Y266833D01*
X57750Y267833D01*
X57000Y268667D01*
X56000Y269000D01*
G01X66000Y259000D02*
X66875Y259167D01*
X67875Y259667D01*
X68500Y260500D01*
X68750Y261667D01*
X68500Y262833D01*
X67750Y263833D01*
X66625Y264333D01*
X65375D01*
X64625Y264667D01*
X64000Y265500D01*
X63750Y266667D01*
X64125Y267833D01*
X65000Y268667D01*
X66000Y269000D01*
X67000Y268667D01*
X67875Y267833D01*
X68250Y266667D01*
X68000Y265500D01*
X67375Y264667D01*
X66625Y264333D01*
X65375D01*
X64250Y263833D01*
X63500Y262833D01*
X63250Y261667D01*
X63500Y260500D01*
X64125Y259667D01*
X65125Y259167D01*
X66000Y259000D01*
G01X74375Y262333D02*
X77625D01*
G01X144375D02*
X147625D01*
G01X156000Y269000D02*
X155000Y268667D01*
X154250Y267833D01*
X153750Y266833D01*
X153375Y265500D01*
X153250Y264000D01*
X153375Y262500D01*
X153750Y261167D01*
X154250Y260166D01*
X155000Y259333D01*
X156000Y259000D01*
X157000Y259333D01*
X157750Y260166D01*
X158250Y261167D01*
X158625Y262500D01*
X158750Y264000D01*
X158625Y265500D01*
X158250Y266833D01*
X157750Y267833D01*
X157000Y268667D01*
X156000Y269000D01*
G01X163625Y267333D02*
X164375Y268333D01*
X165250Y268833D01*
X166250Y269000D01*
X167500Y268667D01*
X168375Y267833D01*
X168625Y266833D01*
X168500Y265833D01*
X168000Y265000D01*
X165500Y263333D01*
X164375Y262167D01*
X163625Y260500D01*
X163375Y259000D01*
X168625D01*
G01X53500Y289000D02*
Y279000D01*
X58500D01*
G01X67500D02*
Y289000D01*
X62875Y281833D01*
X69125D01*
G01X83375Y280333D02*
X84375Y279500D01*
X85500Y279000D01*
X86500D01*
X87500Y279500D01*
X88250Y280333D01*
X88625Y281500D01*
X88375Y282666D01*
X87750Y283667D01*
X86625Y284333D01*
X85125Y284667D01*
X84250Y285333D01*
X83875Y286500D01*
X84125Y287667D01*
X84750Y288500D01*
X85625Y289000D01*
X86500D01*
X87375Y288667D01*
X88125Y287833D01*
G01X98500Y279000D02*
X93500D01*
Y289000D01*
X98500D01*
G01X96500Y284167D02*
X93500D01*
G01X108750Y288167D02*
X108000Y288667D01*
X107125Y289000D01*
X106125D01*
X105000Y288500D01*
X104125Y287667D01*
X103500Y286667D01*
X103000Y285000D01*
X102875Y283500D01*
X103125Y282000D01*
X103500Y281000D01*
X104250Y280000D01*
X105125Y279333D01*
X106000Y279000D01*
X106875D01*
X107750Y279333D01*
X108500Y279833D01*
X109125Y280500D01*
G01X116000Y279000D02*
X115000Y279167D01*
X114125Y279833D01*
X113375Y280833D01*
X112875Y282000D01*
X112625Y283333D01*
Y284667D01*
X112875Y286000D01*
X113375Y287167D01*
X114125Y288167D01*
X115000Y288833D01*
X116000Y289000D01*
X117000Y288833D01*
X117875Y288167D01*
X118625Y287167D01*
X119125Y286000D01*
X119375Y284667D01*
Y283333D01*
X119125Y282000D01*
X118625Y280833D01*
X117875Y279833D01*
X117000Y279167D01*
X116000Y279000D01*
G01X123125D02*
Y289000D01*
X128875Y279000D01*
Y289000D01*
G01X133250Y279000D02*
Y289000D01*
X135750D01*
X136750Y288500D01*
X137500Y287833D01*
X138125Y286833D01*
X138625Y285666D01*
X138750Y284000D01*
X138625Y282333D01*
X138125Y281167D01*
X137500Y280166D01*
X136750Y279500D01*
X135750Y279000D01*
X133250D01*
G01X142875D02*
X146000Y289000D01*
X149125Y279000D01*
G01X148000Y282500D02*
X144000D01*
G01X153500Y279000D02*
Y289000D01*
X156625D01*
X157625Y288500D01*
X158250Y287833D01*
X158500Y286500D01*
X158250Y285167D01*
X157500Y284333D01*
X156625Y283833D01*
X153500D01*
G01X156625D02*
X158500Y279000D01*
G01X166000D02*
Y283500D01*
X163500Y289000D01*
G01X168500D02*
X166000Y283500D01*
G01X86000Y269000D02*
X85000Y268667D01*
X84250Y267833D01*
X83750Y266833D01*
X83375Y265500D01*
X83250Y264000D01*
X83375Y262500D01*
X83750Y261167D01*
X84250Y260166D01*
X85000Y259333D01*
X86000Y259000D01*
X87000Y259333D01*
X87750Y260166D01*
X88250Y261167D01*
X88625Y262500D01*
X88750Y264000D01*
X88625Y265500D01*
X88250Y266833D01*
X87750Y267833D01*
X87000Y268667D01*
X86000Y269000D01*
G01X93625Y263166D02*
X94500Y264333D01*
X95250Y265000D01*
X96250Y265333D01*
X97125Y265000D01*
X97750Y264333D01*
X98250Y263333D01*
X98375Y262167D01*
X98250Y261167D01*
X97750Y260166D01*
X97000Y259333D01*
X96125Y259000D01*
X95125Y259333D01*
X94250Y260333D01*
X93750Y261833D01*
X93625Y263500D01*
X93875Y265666D01*
X94250Y266833D01*
X94875Y268000D01*
X95750Y268833D01*
X96625Y269000D01*
X97500Y268667D01*
X98125Y267833D01*
G01X103625Y263166D02*
X104500Y264333D01*
X105250Y265000D01*
X106250Y265333D01*
X107125Y265000D01*
X107750Y264333D01*
X108250Y263333D01*
X108375Y262167D01*
X108250Y261167D01*
X107750Y260166D01*
X107000Y259333D01*
X106125Y259000D01*
X105125Y259333D01*
X104250Y260333D01*
X103750Y261833D01*
X103625Y263500D01*
X103875Y265666D01*
X104250Y266833D01*
X104875Y268000D01*
X105750Y268833D01*
X106625Y269000D01*
X107500Y268667D01*
X108125Y267833D01*
G01X113250Y260500D02*
X114000Y259667D01*
X114875Y259167D01*
X116000Y259000D01*
X117125Y259333D01*
X118000Y260000D01*
X118625Y261167D01*
X118750Y262500D01*
X118500Y263833D01*
X117875Y264667D01*
X117000Y265333D01*
X116125Y265500D01*
X115250Y265333D01*
X114125Y264667D01*
X114500Y269000D01*
X117875D01*
G01X123250Y261000D02*
X124000Y259833D01*
X125000Y259167D01*
X126125Y259000D01*
X127125Y259167D01*
X128125Y260000D01*
X128750Y261000D01*
X128875Y262000D01*
X128625Y263166D01*
X127750Y264000D01*
X126875Y264333D01*
X125750D01*
G01X126875D02*
X127625Y264833D01*
X128250Y265666D01*
X128500Y266667D01*
X128250Y267667D01*
X127625Y268500D01*
X126500Y269000D01*
X125375Y268833D01*
X124250Y268167D01*
G01X137500Y259000D02*
Y269000D01*
X132875Y261833D01*
X139125D01*
G01X88500Y239000D02*
Y249000D01*
X91625D01*
X92625Y248500D01*
X93250Y247833D01*
X93500Y246500D01*
X93250Y245167D01*
X92500Y244333D01*
X91625Y243833D01*
X88500D01*
G01X91625D02*
X93500Y239000D01*
G01X103500D02*
X98500D01*
Y249000D01*
X103500D01*
G01X101500Y244167D02*
X98500D01*
G01X107875Y249000D02*
X111000Y239000D01*
X114125Y249000D01*
G01X132000Y244333D02*
X132500Y244833D01*
X132875Y245666D01*
X133125Y246833D01*
X132875Y247833D01*
X132375Y248500D01*
X131500Y249000D01*
X128125D01*
Y239000D01*
X132250D01*
X133125Y239667D01*
X133625Y240667D01*
X133875Y241833D01*
X133625Y243000D01*
X132875Y244000D01*
X132000Y244333D01*
X128125D01*
G01X130000Y170000D02*
X127700Y172300D01*
X-9174D01*
X-26974Y154500D01*
X-29001D01*
X-31350Y152151D01*
Y146887D01*
X-33800Y144437D01*
Y94799D01*
X-32221Y93220D01*
X-30000D01*
G01X175000Y190000D02*
X158900Y173900D01*
X-9837D01*
X-27337Y156400D01*
X-29600D01*
X-32950Y153050D01*
Y147550D01*
X-35500Y145000D01*
Y93714D01*
X-28734Y86948D01*
Y85543D01*
G01X69000Y170000D02*
X-9211D01*
X-26650Y152561D01*
Y148850D01*
X-32200Y143300D01*
Y96980D01*
X-31000Y95780D01*
X-27596D01*
G01X-30000Y98339D02*
Y101500D01*
X-29796Y101704D01*
Y101810D01*
X-26500Y105106D01*
Y118737D01*
X-30600Y122837D01*
Y142637D01*
X-25050Y148187D01*
Y151898D01*
X-8548Y168400D01*
X61100D01*
X62500Y167000D01*
X79000D01*
G01X-33000Y88102D02*
X-37350Y92452D01*
Y152901D01*
X-32251Y158000D01*
X-28000D01*
X-10500Y175500D01*
X150500D01*
X165000Y190000D01*
G01X-27596Y100898D02*
X-24500Y103994D01*
Y119000D01*
X-29000Y123500D01*
Y141728D01*
X-23450Y147278D01*
Y151235D01*
X-8685Y166000D01*
X59000D01*
G01X19000Y163500D02*
X-8922D01*
X-21850Y150572D01*
Y146615D01*
X-26600Y141865D01*
Y138153D01*
X-24400Y135953D01*
G01X29000Y163500D02*
X26500Y161000D01*
X-9159D01*
X-20249Y149910D01*
Y146199D01*
X-20250Y146198D01*
Y145103D01*
X-24400Y140953D01*
G01X-7000Y178000D02*
X143000D01*
X155000Y190000D01*
G01X10796Y85543D02*
X8000Y88339D01*
Y117000D01*
X30000Y139000D01*
X45500D01*
G01Y132500D02*
X26500D01*
X10779Y116779D01*
Y89000D01*
G01X44000Y73000D02*
Y122544D01*
X48457Y127001D01*
Y127000D01*
G01Y64500D02*
Y107000D01*
G01X70500Y57500D02*
X68000Y60000D01*
Y68000D01*
X76200Y76200D01*
Y101200D01*
X86000Y111000D01*
Y128000D01*
X87500Y129500D01*
Y139000D01*
G01X70500Y67000D02*
X77800Y74300D01*
Y100300D01*
X85300Y107800D01*
X102300D01*
X105500Y111000D01*
Y130500D01*
X102500Y133500D01*
Y139000D01*
G01X82500D02*
Y110413D01*
X70500Y98413D01*
G01X80000Y87500D02*
Y100000D01*
X86000Y106000D01*
X106974D01*
X112250Y111276D01*
Y129250D01*
X107500Y134000D01*
Y139000D01*
G01X112500D02*
Y133000D01*
X113900Y131600D01*
Y110663D01*
X107637Y104400D01*
X87163D01*
X82500Y99737D01*
Y98000D01*
G01X86000D02*
Y100500D01*
X88300Y102800D01*
X108300D01*
X115500Y110000D01*
Y131500D01*
X117500Y133500D01*
Y139000D01*
G01X89500Y110000D02*
X92500Y113000D01*
Y139000D01*
G01X97500D02*
Y132500D01*
X99000Y131000D01*
Y112055D01*
X96945Y110000D01*
G01X122907Y106500D02*
X126000Y103407D01*
Y87000D01*
X119000Y80000D01*
Y69000D01*
X137000Y51000D01*
G01X122500Y77500D02*
Y71999D01*
X136999Y57500D01*
G01X120500Y110000D02*
Y100533D01*
X122907Y98126D01*
G01Y123248D02*
X118300Y118641D01*
Y97800D01*
X114500Y94000D01*
G01X153000Y68999D02*
X151999Y70000D01*
X149500D01*
X147500Y72000D01*
Y116000D01*
X156000Y124500D01*
Y138737D01*
X154737Y140000D01*
X154000D01*
X153000Y139000D01*
G01Y72999D02*
X151883Y71882D01*
X149881D01*
X149101Y72662D01*
Y115338D01*
X157600Y123837D01*
Y139400D01*
X155400Y141600D01*
X154400D01*
X153000Y143000D01*
G01X156406Y117317D02*
Y47316D01*
G01X208410Y87500D02*
Y66674D01*
X195869Y54133D01*
X191910D01*
G01X203410Y92500D02*
Y66909D01*
X195134Y58633D01*
X191910D01*
G01X200910Y95000D02*
Y66910D01*
X196499Y62499D01*
X191910D01*
G01X196410Y100000D02*
Y68587D01*
X194822Y66999D01*
X191910D01*
G01X208410Y87500D02*
Y104168D01*
X191500Y121078D01*
Y122500D01*
X191910Y122910D01*
Y124134D01*
G01X193910Y126334D02*
X190998D01*
X189710Y125046D01*
Y120605D01*
X205910Y104405D01*
Y90000D01*
G01X191910Y128634D02*
X190634D01*
X188110Y126110D01*
Y119942D01*
X203410Y104642D01*
Y92500D01*
G01X191910Y132500D02*
X186510Y127100D01*
Y119279D01*
X200910Y104879D01*
Y95000D01*
G01X193910Y134800D02*
X190800D01*
X184910Y128910D01*
Y118616D01*
X198710Y104816D01*
Y97500D01*
G01X191910Y137000D02*
X190000D01*
X183310Y130310D01*
Y117953D01*
X196410Y104853D01*
Y100000D01*
G01X193910Y139200D02*
X189700D01*
X181500Y131000D01*
Y117500D01*
X193910Y105090D01*
Y102500D01*
G01X210910Y85000D02*
Y66411D01*
X196499Y52000D01*
X193977D01*
X193910Y51933D01*
G01X205910Y90000D02*
Y66909D01*
X195334Y56333D01*
X193910D01*
G01Y64799D02*
X195799D01*
X198710Y67710D01*
Y97500D01*
G01X193910Y69199D02*
Y102500D01*
G01Y121934D02*
X210910Y104934D01*
Y85000D01*
G54D11*
X0Y0D03*
X5000Y190000D03*
X205000Y20000D03*
Y130000D03*
G54D12*
X19000Y190000D03*
X29000D03*
X39000D03*
X65000Y0D03*
X49000Y190000D03*
X59000D03*
X85000Y0D03*
X75000D03*
X69000Y190000D03*
X79000D03*
X89000D03*
X105000Y0D03*
X95000D03*
X99000Y190000D03*
X125000Y0D03*
X115000D03*
X125000Y190000D03*
X135000D03*
X145000D03*
X175000Y0D03*
X165000D03*
X155000D03*
Y190000D03*
X165000D03*
X175000D03*
X195000Y0D03*
X185000D03*
Y190000D03*
X231125Y35000D03*
X221125D03*
Y25000D03*
X231125Y55000D03*
X221125D03*
X231125Y45000D03*
X221125D03*
X231125Y75000D03*
X221125D03*
X231125Y65000D03*
X221125D03*
X231125Y95000D03*
X221125D03*
X231125Y85000D03*
X221125D03*
X231125Y115000D03*
X221125D03*
X231125Y105000D03*
X221125D03*
Y145000D03*
Y135000D03*
Y125000D03*
X231125Y145000D03*
Y135000D03*
Y125000D03*
Y165000D03*
X221125D03*
Y155000D03*
X231125D03*
G54D13*
X27500Y107000D03*
Y127000D03*
X48457Y107000D03*
Y127000D03*
G54D14*
X55000Y0D03*
X109000Y190000D03*
X145000Y0D03*
X195000Y190000D03*
X231125Y25000D03*
G54D15*
X82500Y139000D03*
G54D16*
X87500D03*
Y144000D03*
X82500D03*
X107500Y139000D03*
Y144000D03*
X97500Y139000D03*
X102500D03*
Y144000D03*
X97500D03*
X92500Y139000D03*
Y144000D03*
X117500Y139000D03*
Y144000D03*
X112500Y139000D03*
Y144000D03*
G54D17*
G01X49000Y185348D02*
Y190000D01*
G01X44348D02*
X49000D01*
G01D02*
X53652D01*
G01X105000Y0D02*
Y4652D01*
G01X100348Y0D02*
X105000D01*
G01D02*
X109652D01*
G01X115000D02*
Y4652D01*
G01X110348Y0D02*
X115000D01*
G01D02*
X119652D01*
G01X117500Y144000D02*
Y147502D01*
G01Y144000D02*
X121002D01*
G01X231125Y20348D02*
Y25000D01*
G01D02*
Y29652D01*
G01X226473Y25000D02*
X231125D01*
G01D02*
X235777D01*
G01X221125Y20348D02*
Y25000D01*
G01D02*
Y29652D01*
G01X216473Y25000D02*
X221125D01*
G01D02*
X225777D01*
G01X221125Y90348D02*
Y95000D01*
G01D02*
Y99652D01*
G01X216473Y95000D02*
X221125D01*
G01D02*
X225777D01*
G01X231125Y90348D02*
Y95000D01*
G01D02*
Y99652D01*
G01X226473Y95000D02*
X231125D01*
G01D02*
X235777D01*
G01X221125Y160348D02*
Y165000D01*
G01X231125Y160348D02*
Y165000D01*
G01X221125D02*
Y169652D01*
G01X216473Y165000D02*
X221125D01*
G01D02*
X225777D01*
G01X231125D02*
Y169652D01*
G01X226473Y165000D02*
X231125D01*
G01D02*
X235777D01*
G54D18*
G01X-45500Y134453D02*
Y82000D01*
X-28000Y64500D01*
Y20500D01*
X-20000Y12500D01*
X7500D01*
X15700Y4300D01*
X44800D01*
X47500Y7000D01*
X62000D01*
X65000Y4000D01*
Y0D01*
G01X-45500Y134453D02*
Y140953D01*
G01X-16500Y187000D02*
Y175000D01*
X-27000Y164500D01*
X-33500D01*
X-41000Y157000D01*
Y84500D01*
X-23000Y66500D01*
Y22500D01*
X-18000Y17500D01*
X9500D01*
X18000Y9000D01*
X43000D01*
X46000Y12000D01*
X73000D01*
X85000Y0D01*
G54D19*
G01X-67500Y-12500D02*
X-32500D01*
G01X-67500Y202500D02*
X-32500D01*
G01X-57500Y-22500D02*
Y12500D01*
G01Y212500D02*
Y177500D01*
G01X262500Y-12500D02*
X227500D01*
G01X262500Y202500D02*
X227500D01*
G01X252500Y-22500D02*
Y12500D01*
G01Y212500D02*
Y177500D01*
M02*
