G04 ================== begin FILE IDENTIFICATION RECORD ==================*
G04 Layout Name:  C:/tmp/20_066534b/worklib/02_066534b_top/physical/08_066534b.brd*
G04 Film Name:    mask_prm*
G04 File Format:  Gerber RS274X*
G04 File Origin:  Cadence Allegro 17.4-S032*
G04 Origin Date:  Tue Feb 21 15:03:36 2023*
G04 *
G04 Layer:  VIA CLASS/SOLDERMASK_TOP*
G04 Layer:  PIN/SOLDERMASK_TOP*
G04 Layer:  PACKAGE GEOMETRY/SOLDERMASK_TOP*
G04 Layer:  BOARD GEOMETRY/TOOLING_CORNERS*
G04 Layer:  BOARD GEOMETRY/SOLDERMASK_TOP*
G04 Layer:  BOARD GEOMETRY/ROOT_NUMBER*
G04 *
G04 Offset:    (0.00 0.00)*
G04 Mirror:    No*
G04 Mode:      Positive*
G04 Rotation:  0*
G04 FullContactRelief:  No*
G04 UndefLineWidth:     8.00*
G04 ================== end FILE IDENTIFICATION RECORD ====================*
%FSLAX25Y25*MOIN*%
%IR0*IPPOS*OFA0.00000B0.00000*MIA0B0*SFA1.00000B1.00000*%
%ADD37C,.01*%
%ADD22C,.07*%
%ADD10C,.08*%
%ADD33C,.047*%
%ADD27R,.07X.07*%
%ADD32R,.047X.047*%
%AMMACRO26*
4,1,25,.0305,-.0499,
.0182,-.0499,
.0182,-.0575,
-.0182,-.0575,
-.0182,-.0499,
-.0305,-.0499,
-.0305,.027,
-.030037,.032296,
-.028661,.037432,
-.026414,.04225,
-.023364,.046605,
-.019605,.050364,
-.01525,.053414,
-.010432,.055661,
-.005296,.057037,
0.0,.0575,
.005296,.057037,
.010432,.055661,
.01525,.053414,
.019605,.050364,
.023364,.046605,
.026414,.04225,
.028661,.037432,
.030037,.032296,
.0305,.027,
.0305,-.0499,
0.0*
%
%ADD26MACRO26*%
%ADD30R,.1X.127*%
%ADD18O,.041X.014*%
%ADD36R,.062X.05*%
%ADD29R,.052X.06*%
%ADD12R,.073X.03*%
%ADD41O,.039X.014*%
%ADD39R,.041X.053*%
%ADD31R,.05X.062*%
%ADD28R,.065X.03*%
%ADD11R,.044X.042*%
%ADD42O,.014X.039*%
%ADD14R,.042X.044*%
%ADD34R,.055X.033*%
%ADD24R,.023X.064*%
%ADD21R,.043X.045*%
%ADD40R,.045X.043*%
%ADD23R,.028X.033*%
%ADD20R,.044X.036*%
%ADD17R,.073X.061*%
%ADD16R,.036X.044*%
%ADD19C,.145*%
%ADD15R,.091X.029*%
%ADD13R,.075X.018*%
%ADD35R,.036X.068*%
%ADD43R,.126X.126*%
%ADD38R,.099X.035*%
%AMMACRO25*
4,1,25,-.0305,.0499,
-.0182,.0499,
-.0182,.0575,
.0182,.0575,
.0182,.0499,
.0305,.0499,
.0305,-.027,
.030037,-.032296,
.028661,-.037432,
.026414,-.04225,
.023364,-.046605,
.019605,-.050364,
.01525,-.053414,
.010432,-.055661,
.005296,-.057037,
0.0,-.0575,
-.005296,-.057037,
-.010432,-.055661,
-.01525,-.053414,
-.019605,-.050364,
-.023364,-.046605,
-.026414,-.04225,
-.028661,-.037432,
-.030037,-.032296,
-.0305,-.027,
-.0305,.0499,
0.0*
%
%ADD25MACRO25*%
%ADD44C,.05*%
%ADD45C,.008*%
G75*
%LPD*%
G75*
G54D10*
X-44796Y4D03*
X-45000Y190000D03*
X240000Y0D03*
G54D20*
X-14000Y175484D03*
Y182176D03*
X35000Y113154D03*
Y119846D03*
X47500Y56846D03*
Y50154D03*
G54D11*
X-41500Y36136D03*
Y42436D03*
X-35500Y36136D03*
Y42436D03*
X18500Y35936D03*
Y42236D03*
X32500Y35936D03*
Y42236D03*
X54150Y44150D03*
Y37850D03*
X56307Y83668D03*
Y89968D03*
X64500Y113350D03*
Y119650D03*
X56000Y113350D03*
Y119650D03*
X75500Y143046D03*
Y149346D03*
X98000Y29250D03*
Y22950D03*
X108000Y66350D03*
Y72650D03*
X95307Y117987D03*
X89307D03*
X95307Y124287D03*
X89307D03*
X123550Y18850D03*
Y25150D03*
X115000Y66350D03*
Y72650D03*
X109807Y117987D03*
Y124287D03*
G54D21*
X19000Y179700D03*
Y174300D03*
X29000Y179700D03*
Y174300D03*
X47500Y43700D03*
Y38300D03*
X59000Y179700D03*
Y174300D03*
X69000Y179700D03*
Y174300D03*
X79000Y179700D03*
Y174300D03*
G54D12*
X-27400Y27436D03*
Y32436D03*
Y37436D03*
Y42436D03*
Y47436D03*
Y52436D03*
Y57436D03*
Y62436D03*
X10400Y27436D03*
Y32436D03*
Y37436D03*
Y42436D03*
Y47436D03*
Y52436D03*
Y57436D03*
Y62436D03*
G54D30*
X72500Y33500D03*
G54D13*
X-22496Y82984D03*
Y85543D03*
Y88102D03*
Y90661D03*
Y93220D03*
Y95780D03*
Y98339D03*
Y100898D03*
Y103457D03*
Y106016D03*
X5496Y98339D03*
Y95780D03*
Y93220D03*
Y90661D03*
Y88102D03*
Y85543D03*
Y82984D03*
Y106016D03*
Y103457D03*
Y100898D03*
G54D40*
X126957Y51000D03*
X132357D03*
X150360Y57613D03*
Y64566D03*
Y134567D03*
Y127614D03*
X155760Y57613D03*
Y64566D03*
Y134567D03*
Y127614D03*
G54D31*
X74914Y103500D03*
X82000D03*
X126957Y64630D03*
Y73004D03*
Y81378D03*
Y89752D03*
Y98126D03*
Y106500D03*
Y114874D03*
Y123248D03*
X134043Y64630D03*
Y73004D03*
Y81378D03*
Y89752D03*
Y98126D03*
Y106500D03*
Y114874D03*
Y123248D03*
G54D22*
X19000Y190000D03*
X29000D03*
X39000D03*
X65000Y0D03*
X49000Y190000D03*
X59000D03*
X85000Y0D03*
X75000D03*
X69000Y190000D03*
X79000D03*
X89000D03*
X105000Y0D03*
X95000D03*
X99000Y190000D03*
X125000Y0D03*
X115000D03*
X125000Y190000D03*
X135000D03*
X145000D03*
X175000Y0D03*
X165000D03*
X155000D03*
Y190000D03*
X165000D03*
X175000D03*
X195000Y0D03*
X185000D03*
Y190000D03*
X231125Y35000D03*
X221125D03*
Y25000D03*
X231125Y55000D03*
X221125D03*
X231125Y45000D03*
X221125D03*
X231125Y75000D03*
X221125D03*
X231125Y65000D03*
X221125D03*
X231125Y95000D03*
X221125D03*
X231125Y85000D03*
X221125D03*
X231125Y115000D03*
X221125D03*
X231125Y105000D03*
X221125D03*
Y145000D03*
Y135000D03*
Y125000D03*
X231125Y145000D03*
Y135000D03*
Y125000D03*
Y165000D03*
X221125D03*
Y155000D03*
X231125D03*
G54D23*
X27370Y35936D03*
X23630D03*
X27370Y42236D03*
X23630D03*
G54D14*
X-22496Y114000D03*
X-28796D03*
X-35150Y147453D03*
X-28850D03*
X-27218Y183000D03*
X-20918D03*
X-27218Y189000D03*
X-20918D03*
X11796Y114000D03*
X5496D03*
X18150Y147453D03*
X11850D03*
X62650Y18500D03*
X56350D03*
X62000Y48500D03*
X64747Y73637D03*
X57150Y149346D03*
X50850D03*
X82350Y18500D03*
X68300Y48500D03*
X76700D03*
X83000D03*
X71047Y73637D03*
X88650Y18500D03*
X149954Y19000D03*
X156254D03*
G54D41*
X164914Y53676D03*
Y55645D03*
Y57613D03*
Y59582D03*
Y61550D03*
Y63519D03*
Y65487D03*
Y67456D03*
Y123677D03*
Y125646D03*
Y127614D03*
Y129583D03*
Y131551D03*
Y133520D03*
Y135488D03*
Y137457D03*
X184206Y55645D03*
Y53676D03*
Y67456D03*
Y65487D03*
Y63519D03*
Y61550D03*
Y59582D03*
Y57613D03*
Y137457D03*
Y135488D03*
Y133520D03*
Y131551D03*
Y129583D03*
Y127614D03*
Y125646D03*
Y123677D03*
G54D32*
X82500Y139000D03*
G54D15*
X-18500Y130953D03*
Y135953D03*
Y140953D03*
Y145953D03*
X1500Y130953D03*
Y135953D03*
Y140953D03*
Y145953D03*
G54D24*
X41392Y56846D03*
X38608D03*
X131062Y143500D03*
X133846D03*
G54D42*
X171607Y50920D03*
X169639D03*
X167670D03*
Y70212D03*
X169639D03*
X171607D03*
Y120921D03*
X169639D03*
X167670D03*
Y140213D03*
X169639D03*
X171607D03*
X181450Y50920D03*
X179481D03*
X177513D03*
X175544D03*
X173576D03*
Y70212D03*
X175544D03*
X177513D03*
X179481D03*
X181450D03*
Y120921D03*
X179481D03*
X177513D03*
X175544D03*
X173576D03*
Y140213D03*
X175544D03*
X177513D03*
X179481D03*
X181450D03*
G54D33*
X87500Y139000D03*
Y144000D03*
X82500D03*
X107500Y139000D03*
Y144000D03*
X97500Y139000D03*
X102500D03*
Y144000D03*
X97500D03*
X92500Y139000D03*
Y144000D03*
X117500Y139000D03*
Y144000D03*
X112500Y139000D03*
Y144000D03*
G54D25*
X27500Y109700D03*
X48457D03*
G54D43*
X174560Y60566D03*
Y130567D03*
G54D16*
X-28654Y134453D03*
X-35346D03*
X-28654Y140953D03*
X-35346D03*
X11654Y134453D03*
X18346D03*
X11654Y140953D03*
X18346D03*
X63154Y149346D03*
X75111Y113000D03*
X81803D03*
X69846Y149346D03*
X126957Y57500D03*
X127154Y135500D03*
X149758Y25000D03*
X149714Y51066D03*
X133649Y57500D03*
X149714Y121067D03*
X133846Y135500D03*
X156450Y25000D03*
X156406Y51066D03*
Y121067D03*
G54D34*
X105500Y33000D03*
Y29250D03*
Y36750D03*
X115500Y33000D03*
Y29250D03*
Y36750D03*
G54D44*
G01X-67500Y-12500D02*
X-32500D01*
G01X-67500Y202500D02*
X-32500D01*
G01X-57500Y-22500D02*
Y12500D01*
G01Y212500D02*
Y177500D01*
G01X262500Y-12500D02*
X227500D01*
G01X262500Y202500D02*
X227500D01*
G01X252500Y-22500D02*
Y12500D01*
G01Y212500D02*
Y177500D01*
G54D35*
X107700Y20000D03*
Y46000D03*
X115500Y20000D03*
Y46000D03*
G54D17*
X-27000Y174500D03*
G54D26*
X27500Y124300D03*
X48457D03*
G54D45*
G01X23375Y280333D02*
X24375Y279500D01*
X25500Y279000D01*
X26500D01*
X27500Y279500D01*
X28250Y280333D01*
X28625Y281500D01*
X28375Y282666D01*
X27750Y283667D01*
X26625Y284333D01*
X25125Y284667D01*
X24250Y285333D01*
X23875Y286500D01*
X24125Y287667D01*
X24750Y288500D01*
X25625Y289000D01*
X26500D01*
X27375Y288667D01*
X28125Y287833D01*
G01X36000Y279000D02*
X35000Y279167D01*
X34125Y279833D01*
X33375Y280833D01*
X32875Y282000D01*
X32625Y283333D01*
Y284667D01*
X32875Y286000D01*
X33375Y287167D01*
X34125Y288167D01*
X35000Y288833D01*
X36000Y289000D01*
X37000Y288833D01*
X37875Y288167D01*
X38625Y287167D01*
X39125Y286000D01*
X39375Y284667D01*
Y283333D01*
X39125Y282000D01*
X38625Y280833D01*
X37875Y279833D01*
X37000Y279167D01*
X36000Y279000D01*
G01X43500Y289000D02*
Y279000D01*
X48500D01*
G01X53250D02*
Y289000D01*
X55750D01*
X56750Y288500D01*
X57500Y287833D01*
X58125Y286833D01*
X58625Y285666D01*
X58750Y284000D01*
X58625Y282333D01*
X58125Y281167D01*
X57500Y280166D01*
X56750Y279500D01*
X55750Y279000D01*
X53250D01*
G01X68500D02*
X63500D01*
Y289000D01*
X68500D01*
G01X66500Y284167D02*
X63500D01*
G01X73500Y279000D02*
Y289000D01*
X76625D01*
X77625Y288500D01*
X78250Y287833D01*
X78500Y286500D01*
X78250Y285167D01*
X77500Y284333D01*
X76625Y283833D01*
X73500D01*
G01X76625D02*
X78500Y279000D01*
G01X82750D02*
Y289000D01*
X86000Y280667D01*
X89250Y289000D01*
Y279000D01*
G01X92875D02*
X96000Y289000D01*
X99125Y279000D01*
G01X98000Y282500D02*
X94000D01*
G01X103375Y280333D02*
X104375Y279500D01*
X105500Y279000D01*
X106500D01*
X107500Y279500D01*
X108250Y280333D01*
X108625Y281500D01*
X108375Y282666D01*
X107750Y283667D01*
X106625Y284333D01*
X105125Y284667D01*
X104250Y285333D01*
X103875Y286500D01*
X104125Y287667D01*
X104750Y288500D01*
X105625Y289000D01*
X106500D01*
X107375Y288667D01*
X108125Y287833D01*
G01X113250Y279000D02*
Y289000D01*
G01X118000D02*
X113250Y282833D01*
G01X118750Y279000D02*
X115375Y285666D01*
G01X133500Y279000D02*
Y289000D01*
X136500D01*
X137500Y288500D01*
X138250Y287333D01*
X138500Y286000D01*
X138250Y284667D01*
X137625Y283667D01*
X136500Y283166D01*
X133500D01*
G01X143500Y279000D02*
Y289000D01*
X146625D01*
X147625Y288500D01*
X148250Y287833D01*
X148500Y286500D01*
X148250Y285167D01*
X147500Y284333D01*
X146625Y283833D01*
X143500D01*
G01X146625D02*
X148500Y279000D01*
G01X154500Y289000D02*
X157500D01*
G01X156000D02*
Y279000D01*
G01X154500D02*
X157500D01*
G01X162750D02*
Y289000D01*
X166000Y280667D01*
X169250Y289000D01*
Y279000D01*
G01X172875D02*
X176000Y289000D01*
X179125Y279000D01*
G01X178000Y282500D02*
X174000D01*
G01X183500Y279000D02*
Y289000D01*
X186625D01*
X187625Y288500D01*
X188250Y287833D01*
X188500Y286500D01*
X188250Y285167D01*
X187500Y284333D01*
X186625Y283833D01*
X183500D01*
G01X186625D02*
X188500Y279000D01*
G01X196000D02*
Y283500D01*
X193500Y289000D01*
G01X198500D02*
X196000Y283500D01*
G01X56000Y269000D02*
X55000Y268667D01*
X54250Y267833D01*
X53750Y266833D01*
X53375Y265500D01*
X53250Y264000D01*
X53375Y262500D01*
X53750Y261167D01*
X54250Y260166D01*
X55000Y259333D01*
X56000Y259000D01*
X57000Y259333D01*
X57750Y260166D01*
X58250Y261167D01*
X58625Y262500D01*
X58750Y264000D01*
X58625Y265500D01*
X58250Y266833D01*
X57750Y267833D01*
X57000Y268667D01*
X56000Y269000D01*
G01X66000Y259000D02*
X66875Y259167D01*
X67875Y259667D01*
X68500Y260500D01*
X68750Y261667D01*
X68500Y262833D01*
X67750Y263833D01*
X66625Y264333D01*
X65375D01*
X64625Y264667D01*
X64000Y265500D01*
X63750Y266667D01*
X64125Y267833D01*
X65000Y268667D01*
X66000Y269000D01*
X67000Y268667D01*
X67875Y267833D01*
X68250Y266667D01*
X68000Y265500D01*
X67375Y264667D01*
X66625Y264333D01*
X65375D01*
X64250Y263833D01*
X63500Y262833D01*
X63250Y261667D01*
X63500Y260500D01*
X64125Y259667D01*
X65125Y259167D01*
X66000Y259000D01*
G01X74375Y262333D02*
X77625D01*
G01X144375D02*
X147625D01*
G01X156000Y269000D02*
X155000Y268667D01*
X154250Y267833D01*
X153750Y266833D01*
X153375Y265500D01*
X153250Y264000D01*
X153375Y262500D01*
X153750Y261167D01*
X154250Y260166D01*
X155000Y259333D01*
X156000Y259000D01*
X157000Y259333D01*
X157750Y260166D01*
X158250Y261167D01*
X158625Y262500D01*
X158750Y264000D01*
X158625Y265500D01*
X158250Y266833D01*
X157750Y267833D01*
X157000Y268667D01*
X156000Y269000D01*
G01X167500Y259000D02*
Y269000D01*
X162875Y261833D01*
X169125D01*
G01X86000Y269000D02*
X85000Y268667D01*
X84250Y267833D01*
X83750Y266833D01*
X83375Y265500D01*
X83250Y264000D01*
X83375Y262500D01*
X83750Y261167D01*
X84250Y260166D01*
X85000Y259333D01*
X86000Y259000D01*
X87000Y259333D01*
X87750Y260166D01*
X88250Y261167D01*
X88625Y262500D01*
X88750Y264000D01*
X88625Y265500D01*
X88250Y266833D01*
X87750Y267833D01*
X87000Y268667D01*
X86000Y269000D01*
G01X93625Y263166D02*
X94500Y264333D01*
X95250Y265000D01*
X96250Y265333D01*
X97125Y265000D01*
X97750Y264333D01*
X98250Y263333D01*
X98375Y262167D01*
X98250Y261167D01*
X97750Y260166D01*
X97000Y259333D01*
X96125Y259000D01*
X95125Y259333D01*
X94250Y260333D01*
X93750Y261833D01*
X93625Y263500D01*
X93875Y265666D01*
X94250Y266833D01*
X94875Y268000D01*
X95750Y268833D01*
X96625Y269000D01*
X97500Y268667D01*
X98125Y267833D01*
G01X103625Y263166D02*
X104500Y264333D01*
X105250Y265000D01*
X106250Y265333D01*
X107125Y265000D01*
X107750Y264333D01*
X108250Y263333D01*
X108375Y262167D01*
X108250Y261167D01*
X107750Y260166D01*
X107000Y259333D01*
X106125Y259000D01*
X105125Y259333D01*
X104250Y260333D01*
X103750Y261833D01*
X103625Y263500D01*
X103875Y265666D01*
X104250Y266833D01*
X104875Y268000D01*
X105750Y268833D01*
X106625Y269000D01*
X107500Y268667D01*
X108125Y267833D01*
G01X113250Y260500D02*
X114000Y259667D01*
X114875Y259167D01*
X116000Y259000D01*
X117125Y259333D01*
X118000Y260000D01*
X118625Y261167D01*
X118750Y262500D01*
X118500Y263833D01*
X117875Y264667D01*
X117000Y265333D01*
X116125Y265500D01*
X115250Y265333D01*
X114125Y264667D01*
X114500Y269000D01*
X117875D01*
G01X123250Y261000D02*
X124000Y259833D01*
X125000Y259167D01*
X126125Y259000D01*
X127125Y259167D01*
X128125Y260000D01*
X128750Y261000D01*
X128875Y262000D01*
X128625Y263166D01*
X127750Y264000D01*
X126875Y264333D01*
X125750D01*
G01X126875D02*
X127625Y264833D01*
X128250Y265666D01*
X128500Y266667D01*
X128250Y267667D01*
X127625Y268500D01*
X126500Y269000D01*
X125375Y268833D01*
X124250Y268167D01*
G01X137500Y259000D02*
Y269000D01*
X132875Y261833D01*
X139125D01*
G01X88500Y239000D02*
Y249000D01*
X91625D01*
X92625Y248500D01*
X93250Y247833D01*
X93500Y246500D01*
X93250Y245167D01*
X92500Y244333D01*
X91625Y243833D01*
X88500D01*
G01X91625D02*
X93500Y239000D01*
G01X103500D02*
X98500D01*
Y249000D01*
X103500D01*
G01X101500Y244167D02*
X98500D01*
G01X107875Y249000D02*
X111000Y239000D01*
X114125Y249000D01*
G01X132000Y244333D02*
X132500Y244833D01*
X132875Y245666D01*
X133125Y246833D01*
X132875Y247833D01*
X132375Y248500D01*
X131500Y249000D01*
X128125D01*
Y239000D01*
X132250D01*
X133125Y239667D01*
X133625Y240667D01*
X133875Y241833D01*
X133625Y243000D01*
X132875Y244000D01*
X132000Y244333D01*
X128125D01*
G54D36*
X99000Y65957D03*
Y73043D03*
X91000Y65957D03*
Y73043D03*
X102307Y117594D03*
Y124680D03*
G54D18*
X-20918Y177453D03*
Y175484D03*
Y173516D03*
Y171547D03*
X-33082D03*
Y173516D03*
Y175484D03*
Y177453D03*
G54D27*
X55000Y0D03*
X109000Y190000D03*
X145000Y0D03*
X195000Y190000D03*
X231125Y25000D03*
G54D19*
X0Y0D03*
X5000Y190000D03*
X205000Y20000D03*
Y130000D03*
G54D28*
X62000Y26000D03*
Y31000D03*
Y36000D03*
Y41000D03*
X83000Y26000D03*
Y31000D03*
Y36000D03*
Y41000D03*
G54D37*
X94583Y89488D03*
Y91063D03*
Y92638D03*
Y94213D03*
Y95787D03*
Y97362D03*
Y98937D03*
X96157Y89488D03*
Y91063D03*
Y92638D03*
Y94213D03*
Y95787D03*
Y97362D03*
Y98937D03*
X97732Y89488D03*
Y91063D03*
Y92638D03*
Y94213D03*
Y95787D03*
Y97362D03*
Y98937D03*
X99307Y89488D03*
Y91063D03*
Y92638D03*
Y94213D03*
Y95787D03*
Y97362D03*
Y98937D03*
X100882Y89488D03*
Y91063D03*
Y92638D03*
Y94213D03*
Y95787D03*
Y97362D03*
Y98937D03*
X102457Y89488D03*
Y91063D03*
Y92638D03*
Y94213D03*
Y95787D03*
Y97362D03*
Y98937D03*
X104031Y89488D03*
Y91063D03*
Y92638D03*
Y94213D03*
Y95787D03*
Y97362D03*
Y98937D03*
X94583Y100512D03*
X96157D03*
X97732D03*
X99307D03*
X100882D03*
X102457D03*
X104031D03*
G54D38*
X109000Y165000D03*
Y175000D03*
Y170000D03*
X122504Y165000D03*
Y175000D03*
Y170000D03*
G54D29*
X63567Y81306D03*
Y89968D03*
X71047D03*
Y81306D03*
G54D39*
X123550Y33000D03*
X136450D03*
X143550D03*
X156450D03*
M02*
