G04 ================== begin FILE IDENTIFICATION RECORD ==================*
G04 Layout Name:  C:/tmp/20_066534b/worklib/02_066534b_top/physical/08_066534b.brd*
G04 Film Name:    paste_prm*
G04 File Format:  Gerber RS274X*
G04 File Origin:  Cadence Allegro 17.4-S032*
G04 Origin Date:  Tue Feb 21 15:03:36 2023*
G04 *
G04 Layer:  VIA CLASS/PASTEMASK_TOP*
G04 Layer:  PIN/PASTEMASK_TOP*
G04 Layer:  PACKAGE GEOMETRY/PASTEMASK_TOP*
G04 Layer:  BOARD GEOMETRY/PASTEMASK_TOP*
G04 Layer:  BOARD GEOMETRY/TOOLING_CORNERS*
G04 Layer:  BOARD GEOMETRY/ROOT_NUMBER*
G04 *
G04 Offset:    (0.00 0.00)*
G04 Mirror:    No*
G04 Mode:      Positive*
G04 Rotation:  0*
G04 FullContactRelief:  No*
G04 UndefLineWidth:     8.00*
G04 ================== end FILE IDENTIFICATION RECORD ====================*
%FSLAX25Y25*MOIN*%
%IR0*IPPOS*OFA0.00000B0.00000*MIA0B0*SFA1.00000B1.00000*%
%ADD10C,.04*%
%ADD27R,.095X.122*%
%AMMACRO23*
4,1,25,.028,-.027,
.027575,-.031862,
.026311,-.036577,
.024249,-.041,
.021449,-.044998,
.017998,-.048449,
.014,-.051249,
.009577,-.053311,
.004862,-.054575,
0.0,-.055,
-.004862,-.054575,
-.009577,-.053311,
-.014,-.051249,
-.017998,-.048449,
-.021449,-.044998,
-.024249,-.041,
-.026311,-.036577,
-.027575,-.031862,
-.028,-.027,
-.028,.0474,
-.0157,.0474,
-.0157,.055,
.0157,.055,
.0157,.0474,
.028,.0474,
.028,-.027,
0.0*
%
%ADD23MACRO23*%
%ADD36O,.035X.012*%
%ADD37O,.012X.035*%
%ADD18O,.037X.012*%
%ADD13R,.07X.013*%
%ADD25R,.06X.025*%
%ADD30R,.031X.063*%
%ADD29R,.05X.028*%
%ADD20R,.038X.04*%
%ADD35R,.04X.038*%
%ADD33R,.094X.03*%
%ADD21R,.023X.028*%
%ADD19R,.039X.031*%
%ADD16R,.031X.039*%
%ADD15R,.086X.024*%
%ADD38R,.122X.122*%
%ADD31R,.057X.045*%
%ADD26R,.047X.055*%
%ADD12R,.068X.025*%
%ADD34R,.036X.048*%
%ADD32C,.008*%
%ADD28R,.045X.057*%
%ADD11R,.039X.037*%
%ADD14R,.037X.039*%
%ADD22R,.018X.059*%
%ADD17R,.069X.057*%
%AMMACRO24*
4,1,25,-.028,.027,
-.027575,.031862,
-.026311,.036577,
-.024249,.041,
-.021449,.044998,
-.017998,.048449,
-.014,.051249,
-.009577,.053311,
-.004862,.054575,
0.0,.055,
.004862,.054575,
.009577,.053311,
.014,.051249,
.017998,.048449,
.021449,.044998,
.024249,.041,
.026311,.036577,
.027575,.031862,
.028,.027,
.028,-.0474,
.0157,-.0474,
.0157,-.055,
-.0157,-.055,
-.0157,-.0474,
-.028,-.0474,
-.028,.027,
0.0*
%
%ADD24MACRO24*%
%ADD39C,.05*%
G75*
%LPD*%
G75*
G36*
G01X25150Y122500D02*
Y118200D01*
X29850D01*
Y122500D01*
X25150D01*
G37*
G36*
G01Y115800D02*
Y111500D01*
X29850D01*
Y115800D01*
X25150D01*
G37*
G36*
G01X46107Y122500D02*
Y118200D01*
X50807D01*
Y122500D01*
X46107D01*
G37*
G36*
G01Y115800D02*
Y111500D01*
X50807D01*
Y115800D01*
X46107D01*
G37*
G54D10*
X-44796Y4D03*
X-45000Y190000D03*
X240000Y0D03*
G54D11*
X-41500Y36136D03*
Y42436D03*
X-35500Y36136D03*
Y42436D03*
X18500Y35936D03*
Y42236D03*
X32500Y35936D03*
Y42236D03*
X54150Y44150D03*
Y37850D03*
X56307Y83668D03*
Y89968D03*
X64500Y113350D03*
Y119650D03*
X56000Y113350D03*
Y119650D03*
X75500Y143046D03*
Y149346D03*
X98000Y29250D03*
Y22950D03*
X108000Y66350D03*
Y72650D03*
X95307Y117987D03*
X89307D03*
X95307Y124287D03*
X89307D03*
X123550Y18850D03*
Y25150D03*
X115000Y66350D03*
Y72650D03*
X109807Y117987D03*
Y124287D03*
G54D20*
X19000Y179700D03*
Y174300D03*
X29000Y179700D03*
Y174300D03*
X47500Y43700D03*
Y38300D03*
X59000Y179700D03*
Y174300D03*
X69000Y179700D03*
Y174300D03*
X79000Y179700D03*
Y174300D03*
G54D12*
X-27400Y27436D03*
Y32436D03*
Y37436D03*
Y42436D03*
Y47436D03*
Y52436D03*
Y57436D03*
Y62436D03*
X10400Y27436D03*
Y32436D03*
Y37436D03*
Y42436D03*
Y47436D03*
Y52436D03*
Y57436D03*
Y62436D03*
G54D21*
X27370Y35936D03*
X23630D03*
X27370Y42236D03*
X23630D03*
G54D30*
X107700Y20000D03*
Y46000D03*
X115500Y20000D03*
Y46000D03*
G54D22*
X41392Y56846D03*
X38608D03*
X131062Y143500D03*
X133846D03*
G54D31*
X99000Y65957D03*
Y73043D03*
X91000Y65957D03*
Y73043D03*
X102307Y117594D03*
Y124680D03*
G54D13*
X-22496Y82984D03*
Y85543D03*
Y88102D03*
Y90661D03*
Y93220D03*
Y95780D03*
Y98339D03*
Y100898D03*
Y103457D03*
Y106016D03*
X5496Y98339D03*
Y95780D03*
Y93220D03*
Y90661D03*
Y88102D03*
Y85543D03*
Y82984D03*
Y106016D03*
Y103457D03*
Y100898D03*
G54D14*
X-22496Y114000D03*
X-28796D03*
X-35150Y147453D03*
X-28850D03*
X-27218Y183000D03*
X-20918D03*
X-27218Y189000D03*
X-20918D03*
X11796Y114000D03*
X5496D03*
X18150Y147453D03*
X11850D03*
X62650Y18500D03*
X56350D03*
X62000Y48500D03*
X64747Y73637D03*
X57150Y149346D03*
X50850D03*
X82350Y18500D03*
X68300Y48500D03*
X76700D03*
X83000D03*
X71047Y73637D03*
X88650Y18500D03*
X149954Y19000D03*
X156254D03*
G54D32*
G01X28500Y279000D02*
Y289000D01*
X31500D01*
X32500Y288500D01*
X33250Y287333D01*
X33500Y286000D01*
X33250Y284667D01*
X32625Y283667D01*
X31500Y283166D01*
X28500D01*
G01X37875Y279000D02*
X41000Y289000D01*
X44125Y279000D01*
G01X43000Y282500D02*
X39000D01*
G01X48375Y280333D02*
X49375Y279500D01*
X50500Y279000D01*
X51500D01*
X52500Y279500D01*
X53250Y280333D01*
X53625Y281500D01*
X53375Y282666D01*
X52750Y283667D01*
X51625Y284333D01*
X50125Y284667D01*
X49250Y285333D01*
X48875Y286500D01*
X49125Y287667D01*
X49750Y288500D01*
X50625Y289000D01*
X51500D01*
X52375Y288667D01*
X53125Y287833D01*
G01X61000Y289000D02*
Y279000D01*
G01X58125Y289000D02*
X63875D01*
G01X73500Y279000D02*
X68500D01*
Y289000D01*
X73500D01*
G01X71500Y284167D02*
X68500D01*
G01X77750Y279000D02*
Y289000D01*
X81000Y280667D01*
X84250Y289000D01*
Y279000D01*
G01X87875D02*
X91000Y289000D01*
X94125Y279000D01*
G01X93000Y282500D02*
X89000D01*
G01X98375Y280333D02*
X99375Y279500D01*
X100500Y279000D01*
X101500D01*
X102500Y279500D01*
X103250Y280333D01*
X103625Y281500D01*
X103375Y282666D01*
X102750Y283667D01*
X101625Y284333D01*
X100125Y284667D01*
X99250Y285333D01*
X98875Y286500D01*
X99125Y287667D01*
X99750Y288500D01*
X100625Y289000D01*
X101500D01*
X102375Y288667D01*
X103125Y287833D01*
G01X108250Y279000D02*
Y289000D01*
G01X113000D02*
X108250Y282833D01*
G01X113750Y279000D02*
X110375Y285666D01*
G01X128500Y279000D02*
Y289000D01*
X131500D01*
X132500Y288500D01*
X133250Y287333D01*
X133500Y286000D01*
X133250Y284667D01*
X132625Y283667D01*
X131500Y283166D01*
X128500D01*
G01X138500Y279000D02*
Y289000D01*
X141625D01*
X142625Y288500D01*
X143250Y287833D01*
X143500Y286500D01*
X143250Y285167D01*
X142500Y284333D01*
X141625Y283833D01*
X138500D01*
G01X141625D02*
X143500Y279000D01*
G01X149500Y289000D02*
X152500D01*
G01X151000D02*
Y279000D01*
G01X149500D02*
X152500D01*
G01X157750D02*
Y289000D01*
X161000Y280667D01*
X164250Y289000D01*
Y279000D01*
G01X167875D02*
X171000Y289000D01*
X174125Y279000D01*
G01X173000Y282500D02*
X169000D01*
G01X178500Y279000D02*
Y289000D01*
X181625D01*
X182625Y288500D01*
X183250Y287833D01*
X183500Y286500D01*
X183250Y285167D01*
X182500Y284333D01*
X181625Y283833D01*
X178500D01*
G01X181625D02*
X183500Y279000D01*
G01X191000D02*
Y283500D01*
X188500Y289000D01*
G01X193500D02*
X191000Y283500D01*
G01X56000Y269000D02*
X55000Y268667D01*
X54250Y267833D01*
X53750Y266833D01*
X53375Y265500D01*
X53250Y264000D01*
X53375Y262500D01*
X53750Y261167D01*
X54250Y260166D01*
X55000Y259333D01*
X56000Y259000D01*
X57000Y259333D01*
X57750Y260166D01*
X58250Y261167D01*
X58625Y262500D01*
X58750Y264000D01*
X58625Y265500D01*
X58250Y266833D01*
X57750Y267833D01*
X57000Y268667D01*
X56000Y269000D01*
G01X66000Y259000D02*
X66875Y259167D01*
X67875Y259667D01*
X68500Y260500D01*
X68750Y261667D01*
X68500Y262833D01*
X67750Y263833D01*
X66625Y264333D01*
X65375D01*
X64625Y264667D01*
X64000Y265500D01*
X63750Y266667D01*
X64125Y267833D01*
X65000Y268667D01*
X66000Y269000D01*
X67000Y268667D01*
X67875Y267833D01*
X68250Y266667D01*
X68000Y265500D01*
X67375Y264667D01*
X66625Y264333D01*
X65375D01*
X64250Y263833D01*
X63500Y262833D01*
X63250Y261667D01*
X63500Y260500D01*
X64125Y259667D01*
X65125Y259167D01*
X66000Y259000D01*
G01X74375Y262333D02*
X77625D01*
G01X144375D02*
X147625D01*
G01X156000Y269000D02*
X155000Y268667D01*
X154250Y267833D01*
X153750Y266833D01*
X153375Y265500D01*
X153250Y264000D01*
X153375Y262500D01*
X153750Y261167D01*
X154250Y260166D01*
X155000Y259333D01*
X156000Y259000D01*
X157000Y259333D01*
X157750Y260166D01*
X158250Y261167D01*
X158625Y262500D01*
X158750Y264000D01*
X158625Y265500D01*
X158250Y266833D01*
X157750Y267833D01*
X157000Y268667D01*
X156000Y269000D01*
G01X163875Y260166D02*
X164750Y259333D01*
X165750Y259000D01*
X166750Y259333D01*
X167625Y260333D01*
X168250Y261833D01*
X168500Y263333D01*
Y265167D01*
X168250Y266667D01*
X167625Y268000D01*
X166875Y268667D01*
X166000Y269000D01*
X165000Y268667D01*
X164250Y268000D01*
X163750Y267000D01*
X163500Y265666D01*
X163750Y264500D01*
X164375Y263333D01*
X165125Y262666D01*
X166000Y262500D01*
X167000Y262833D01*
X167750Y263667D01*
X168500Y265167D01*
G01X86000Y269000D02*
X85000Y268667D01*
X84250Y267833D01*
X83750Y266833D01*
X83375Y265500D01*
X83250Y264000D01*
X83375Y262500D01*
X83750Y261167D01*
X84250Y260166D01*
X85000Y259333D01*
X86000Y259000D01*
X87000Y259333D01*
X87750Y260166D01*
X88250Y261167D01*
X88625Y262500D01*
X88750Y264000D01*
X88625Y265500D01*
X88250Y266833D01*
X87750Y267833D01*
X87000Y268667D01*
X86000Y269000D01*
G01X93625Y263166D02*
X94500Y264333D01*
X95250Y265000D01*
X96250Y265333D01*
X97125Y265000D01*
X97750Y264333D01*
X98250Y263333D01*
X98375Y262167D01*
X98250Y261167D01*
X97750Y260166D01*
X97000Y259333D01*
X96125Y259000D01*
X95125Y259333D01*
X94250Y260333D01*
X93750Y261833D01*
X93625Y263500D01*
X93875Y265666D01*
X94250Y266833D01*
X94875Y268000D01*
X95750Y268833D01*
X96625Y269000D01*
X97500Y268667D01*
X98125Y267833D01*
G01X103625Y263166D02*
X104500Y264333D01*
X105250Y265000D01*
X106250Y265333D01*
X107125Y265000D01*
X107750Y264333D01*
X108250Y263333D01*
X108375Y262167D01*
X108250Y261167D01*
X107750Y260166D01*
X107000Y259333D01*
X106125Y259000D01*
X105125Y259333D01*
X104250Y260333D01*
X103750Y261833D01*
X103625Y263500D01*
X103875Y265666D01*
X104250Y266833D01*
X104875Y268000D01*
X105750Y268833D01*
X106625Y269000D01*
X107500Y268667D01*
X108125Y267833D01*
G01X113250Y260500D02*
X114000Y259667D01*
X114875Y259167D01*
X116000Y259000D01*
X117125Y259333D01*
X118000Y260000D01*
X118625Y261167D01*
X118750Y262500D01*
X118500Y263833D01*
X117875Y264667D01*
X117000Y265333D01*
X116125Y265500D01*
X115250Y265333D01*
X114125Y264667D01*
X114500Y269000D01*
X117875D01*
G01X123250Y261000D02*
X124000Y259833D01*
X125000Y259167D01*
X126125Y259000D01*
X127125Y259167D01*
X128125Y260000D01*
X128750Y261000D01*
X128875Y262000D01*
X128625Y263166D01*
X127750Y264000D01*
X126875Y264333D01*
X125750D01*
G01X126875D02*
X127625Y264833D01*
X128250Y265666D01*
X128500Y266667D01*
X128250Y267667D01*
X127625Y268500D01*
X126500Y269000D01*
X125375Y268833D01*
X124250Y268167D01*
G01X137500Y259000D02*
Y269000D01*
X132875Y261833D01*
X139125D01*
G01X88500Y239000D02*
Y249000D01*
X91625D01*
X92625Y248500D01*
X93250Y247833D01*
X93500Y246500D01*
X93250Y245167D01*
X92500Y244333D01*
X91625Y243833D01*
X88500D01*
G01X91625D02*
X93500Y239000D01*
G01X103500D02*
X98500D01*
Y249000D01*
X103500D01*
G01X101500Y244167D02*
X98500D01*
G01X107875Y249000D02*
X111000Y239000D01*
X114125Y249000D01*
G01X132000Y244333D02*
X132500Y244833D01*
X132875Y245666D01*
X133125Y246833D01*
X132875Y247833D01*
X132375Y248500D01*
X131500Y249000D01*
X128125D01*
Y239000D01*
X132250D01*
X133125Y239667D01*
X133625Y240667D01*
X133875Y241833D01*
X133625Y243000D01*
X132875Y244000D01*
X132000Y244333D01*
X128125D01*
X94583Y89488D03*
Y91063D03*
Y92638D03*
Y94213D03*
Y95787D03*
Y97362D03*
Y98937D03*
X96157Y89488D03*
Y91063D03*
Y92638D03*
Y94213D03*
Y95787D03*
Y97362D03*
Y98937D03*
X97732Y89488D03*
Y91063D03*
Y92638D03*
Y94213D03*
Y95787D03*
Y97362D03*
Y98937D03*
X99307Y89488D03*
Y91063D03*
Y92638D03*
Y94213D03*
Y95787D03*
Y97362D03*
Y98937D03*
X100882Y89488D03*
Y91063D03*
Y92638D03*
Y94213D03*
Y95787D03*
Y97362D03*
Y98937D03*
X102457Y89488D03*
Y91063D03*
Y92638D03*
Y94213D03*
Y95787D03*
Y97362D03*
Y98937D03*
X104031Y89488D03*
Y91063D03*
Y92638D03*
Y94213D03*
Y95787D03*
Y97362D03*
Y98937D03*
X94583Y100512D03*
X96157D03*
X97732D03*
X99307D03*
X100882D03*
X102457D03*
X104031D03*
G54D23*
X27500Y109700D03*
X48457D03*
G54D24*
X27500Y124300D03*
X48457D03*
G54D15*
X-18500Y130953D03*
Y135953D03*
Y140953D03*
Y145953D03*
X1500Y130953D03*
Y135953D03*
Y140953D03*
Y145953D03*
G54D33*
X109000Y165000D03*
Y175000D03*
Y170000D03*
X122504Y165000D03*
Y175000D03*
Y170000D03*
G54D34*
X123550Y33000D03*
X136450D03*
X143550D03*
X156450D03*
G54D16*
X-28654Y134453D03*
X-35346D03*
X-28654Y140953D03*
X-35346D03*
X11654Y134453D03*
X18346D03*
X11654Y140953D03*
X18346D03*
X63154Y149346D03*
X75111Y113000D03*
X81803D03*
X69846Y149346D03*
X126957Y57500D03*
X127154Y135500D03*
X149758Y25000D03*
X149714Y51066D03*
X133649Y57500D03*
X149714Y121067D03*
X133846Y135500D03*
X156450Y25000D03*
X156406Y51066D03*
Y121067D03*
G54D25*
X62000Y26000D03*
Y31000D03*
Y36000D03*
Y41000D03*
X83000Y26000D03*
Y31000D03*
Y36000D03*
Y41000D03*
G54D17*
X-27000Y174500D03*
G54D26*
X63567Y81306D03*
Y89968D03*
X71047D03*
Y81306D03*
G54D35*
X126957Y51000D03*
X132357D03*
X150360Y57613D03*
Y64566D03*
Y134567D03*
Y127614D03*
X155760Y57613D03*
Y64566D03*
Y134567D03*
Y127614D03*
G54D18*
X-20918Y177453D03*
Y175484D03*
Y173516D03*
Y171547D03*
X-33082D03*
Y173516D03*
Y175484D03*
Y177453D03*
G54D36*
X164914Y53676D03*
Y55645D03*
Y57613D03*
Y59582D03*
Y61550D03*
Y63519D03*
Y65487D03*
Y67456D03*
Y123677D03*
Y125646D03*
Y127614D03*
Y129583D03*
Y131551D03*
Y133520D03*
Y135488D03*
Y137457D03*
X184206Y55645D03*
Y53676D03*
Y67456D03*
Y65487D03*
Y63519D03*
Y61550D03*
Y59582D03*
Y57613D03*
Y137457D03*
Y135488D03*
Y133520D03*
Y131551D03*
Y129583D03*
Y127614D03*
Y125646D03*
Y123677D03*
G54D27*
X72500Y33500D03*
G54D28*
X74914Y103500D03*
X82000D03*
X126957Y64630D03*
Y73004D03*
Y81378D03*
Y89752D03*
Y98126D03*
Y106500D03*
Y114874D03*
Y123248D03*
X134043Y64630D03*
Y73004D03*
Y81378D03*
Y89752D03*
Y98126D03*
Y106500D03*
Y114874D03*
Y123248D03*
G54D19*
X-14000Y175484D03*
Y182176D03*
X35000Y113154D03*
Y119846D03*
X47500Y56846D03*
Y50154D03*
G54D37*
X171607Y50920D03*
X169639D03*
X167670D03*
Y70212D03*
X169639D03*
X171607D03*
Y120921D03*
X169639D03*
X167670D03*
Y140213D03*
X169639D03*
X171607D03*
X181450Y50920D03*
X179481D03*
X177513D03*
X175544D03*
X173576D03*
Y70212D03*
X175544D03*
X177513D03*
X179481D03*
X181450D03*
Y120921D03*
X179481D03*
X177513D03*
X175544D03*
X173576D03*
Y140213D03*
X175544D03*
X177513D03*
X179481D03*
X181450D03*
G54D38*
X174560Y60566D03*
Y130567D03*
G54D29*
X105500Y33000D03*
Y29250D03*
Y36750D03*
X115500Y33000D03*
Y29250D03*
Y36750D03*
G54D39*
G01X-67500Y-12500D02*
X-32500D01*
G01X-67500Y202500D02*
X-32500D01*
G01X-57500Y-22500D02*
Y12500D01*
G01Y212500D02*
Y177500D01*
G01X262500Y-12500D02*
X227500D01*
G01X262500Y202500D02*
X227500D01*
G01X252500Y-22500D02*
Y12500D01*
G01Y212500D02*
Y177500D01*
M02*
