G04 ================== begin FILE IDENTIFICATION RECORD ==================*
G04 Layout Name:  C:/tmp/20_066534b/worklib/02_066534b_top/physical/08_066534b.brd*
G04 Film Name:    silk_prm*
G04 File Format:  Gerber RS274X*
G04 File Origin:  Cadence Allegro 17.4-S032*
G04 Origin Date:  Tue Feb 21 15:03:36 2023*
G04 *
G04 Layer:  PACKAGE GEOMETRY/SILKSCREEN_TOP*
G04 Layer:  BOARD GEOMETRY/TOOLING_CORNERS*
G04 Layer:  BOARD GEOMETRY/SILKSCREEN_TOP*
G04 Layer:  BOARD GEOMETRY/ROOT_NUMBER*
G04 Layer:  REF DES/SILKSCREEN_TOP*
G04 Layer:  MANUFACTURING/SILK_DETAIL_TOP*
G04 *
G04 Offset:    (0.00 0.00)*
G04 Mirror:    No*
G04 Mode:      Positive*
G04 Rotation:  0*
G04 FullContactRelief:  No*
G04 UndefLineWidth:     8.00*
G04 ================== end FILE IDENTIFICATION RECORD ====================*
%FSLAX25Y25*MOIN*%
%IR0*IPPOS*OFA0.00000B0.00000*MIA0B0*SFA1.00000B1.00000*%
%ADD10C,.05*%
%ADD11C,.008*%
%ADD12C,.006*%
G75*
%LPD*%
G75*
G36*
G01X-26000Y66686D02*
G02I-1500J0D01*
G37*
G36*
G01X-20780Y109666D02*
G03I-1500J0D01*
G37*
G36*
G01X-36933Y177453D02*
G03I-1499J0D01*
G37*
G36*
G01X-18000Y150153D02*
G02I-1500J0D01*
G37*
G36*
G01X35441Y52500D02*
X36441D01*
Y61192D01*
X35441D01*
Y52500D01*
G37*
G36*
G01X62000Y44250D02*
G02I-1500J0D01*
G37*
G36*
G01X78059Y81700D02*
G03I-1500J0D01*
G37*
G36*
G01X109586Y104748D02*
G03I-1499J0D01*
G37*
G36*
G01X121000Y26350D02*
G03I-1500J0D01*
G37*
G36*
G01X132500Y40500D02*
X127500Y43000D01*
Y38000D01*
X132500Y40500D01*
G37*
G36*
G01X152000D02*
X147000Y43000D01*
Y38000D01*
X152000Y40500D01*
G37*
G36*
G01X137013Y147846D02*
X136013D01*
Y139154D01*
X137013D01*
Y147846D01*
G37*
G36*
G01X163265Y47771D02*
G02I-1500J0D01*
G37*
G36*
G01Y117772D02*
G02I-1500J0D01*
G37*
G54D10*
G01X-67500Y-12500D02*
X-32500D01*
G01X-67500Y202500D02*
X-32500D01*
G01X-57500Y-22500D02*
Y12500D01*
G01Y212500D02*
Y177500D01*
G01X262500Y-12500D02*
X227500D01*
G01X262500Y202500D02*
X227500D01*
G01X252500Y-22500D02*
Y12500D01*
G01Y212500D02*
Y177500D01*
G54D11*
G01X7500Y24686D02*
Y23436D01*
X-24500D01*
Y24686D01*
G01X7500Y65186D02*
Y66436D01*
X-24500D01*
Y65186D01*
G01X-17568Y169063D02*
Y179937D01*
X-36432D01*
Y169063D01*
X-17568D01*
G01X3504Y80834D02*
Y78736D01*
X-20504D01*
Y80834D01*
G01X3504Y108166D02*
Y110264D01*
X-6516D01*
X-8500Y108280D01*
X-10484Y110264D01*
X-20504D01*
Y108166D01*
G01X500Y128253D02*
Y127453D01*
X-17500D01*
Y128253D01*
G01X500Y148653D02*
Y149453D01*
X-17500D01*
Y148653D01*
G01X116000Y184250D02*
X12000D01*
Y195750D01*
X116000D01*
Y184250D01*
G01X15600Y170800D02*
Y183200D01*
X22400D01*
Y170800D01*
X15600D01*
G01X36441Y52500D02*
X43559D01*
Y61192D01*
X36441D01*
Y52500D01*
G01X31800Y131300D02*
Y102700D01*
X23200D01*
Y131300D01*
X31800D01*
G01X25600Y170800D02*
Y183200D01*
X32400D01*
Y170800D01*
X25600D01*
G01X23375Y280333D02*
X24375Y279500D01*
X25500Y279000D01*
X26500D01*
X27500Y279500D01*
X28250Y280333D01*
X28625Y281500D01*
X28375Y282666D01*
X27750Y283667D01*
X26625Y284333D01*
X25125Y284667D01*
X24250Y285333D01*
X23875Y286500D01*
X24125Y287667D01*
X24750Y288500D01*
X25625Y289000D01*
X26500D01*
X27375Y288667D01*
X28125Y287833D01*
G01X34500Y289000D02*
X37500D01*
G01X36000D02*
Y279000D01*
G01X34500D02*
X37500D01*
G01X43500Y289000D02*
Y279000D01*
X48500D01*
G01X53250D02*
Y289000D01*
G01X58000D02*
X53250Y282833D01*
G01X58750Y279000D02*
X55375Y285666D01*
G01X63375Y280333D02*
X64375Y279500D01*
X65500Y279000D01*
X66500D01*
X67500Y279500D01*
X68250Y280333D01*
X68625Y281500D01*
X68375Y282666D01*
X67750Y283667D01*
X66625Y284333D01*
X65125Y284667D01*
X64250Y285333D01*
X63875Y286500D01*
X64125Y287667D01*
X64750Y288500D01*
X65625Y289000D01*
X66500D01*
X67375Y288667D01*
X68125Y287833D01*
G01X78750Y288167D02*
X78000Y288667D01*
X77125Y289000D01*
X76125D01*
X75000Y288500D01*
X74125Y287667D01*
X73500Y286667D01*
X73000Y285000D01*
X72875Y283500D01*
X73125Y282000D01*
X73500Y281000D01*
X74250Y280000D01*
X75125Y279333D01*
X76000Y279000D01*
X76875D01*
X77750Y279333D01*
X78500Y279833D01*
X79125Y280500D01*
G01X83500Y279000D02*
Y289000D01*
X86625D01*
X87625Y288500D01*
X88250Y287833D01*
X88500Y286500D01*
X88250Y285167D01*
X87500Y284333D01*
X86625Y283833D01*
X83500D01*
G01X86625D02*
X88500Y279000D01*
G01X98500D02*
X93500D01*
Y289000D01*
X98500D01*
G01X96500Y284167D02*
X93500D01*
G01X108500Y279000D02*
X103500D01*
Y289000D01*
X108500D01*
G01X106500Y284167D02*
X103500D01*
G01X113125Y279000D02*
Y289000D01*
X118875Y279000D01*
Y289000D01*
G01X133500Y279000D02*
Y289000D01*
X136500D01*
X137500Y288500D01*
X138250Y287333D01*
X138500Y286000D01*
X138250Y284667D01*
X137625Y283667D01*
X136500Y283166D01*
X133500D01*
G01X143500Y279000D02*
Y289000D01*
X146625D01*
X147625Y288500D01*
X148250Y287833D01*
X148500Y286500D01*
X148250Y285167D01*
X147500Y284333D01*
X146625Y283833D01*
X143500D01*
G01X146625D02*
X148500Y279000D01*
G01X154500Y289000D02*
X157500D01*
G01X156000D02*
Y279000D01*
G01X154500D02*
X157500D01*
G01X162750D02*
Y289000D01*
X166000Y280667D01*
X169250Y289000D01*
Y279000D01*
G01X172875D02*
X176000Y289000D01*
X179125Y279000D01*
G01X178000Y282500D02*
X174000D01*
G01X183500Y279000D02*
Y289000D01*
X186625D01*
X187625Y288500D01*
X188250Y287833D01*
X188500Y286500D01*
X188250Y285167D01*
X187500Y284333D01*
X186625Y283833D01*
X183500D01*
G01X186625D02*
X188500Y279000D01*
G01X196000D02*
Y283500D01*
X193500Y289000D01*
G01X198500D02*
X196000Y283500D01*
G01X48000Y5750D02*
X132000D01*
Y-5750D01*
X48000D01*
Y5750D01*
G01X81500Y23250D02*
Y22500D01*
X63500D01*
Y23250D01*
G01X81500Y43750D02*
Y44500D01*
X63500D01*
Y43750D01*
G01X44100Y34800D02*
Y47200D01*
X50900D01*
Y34800D01*
X44100D01*
G01X59717Y77056D02*
X74897D01*
Y94218D01*
X59717D01*
Y77056D01*
G01X52757Y131300D02*
Y102700D01*
X44157D01*
Y131300D01*
X52757D01*
G01X55600Y170800D02*
Y183200D01*
X62400D01*
Y170800D01*
X55600D01*
G01X56000Y269000D02*
X55000Y268667D01*
X54250Y267833D01*
X53750Y266833D01*
X53375Y265500D01*
X53250Y264000D01*
X53375Y262500D01*
X53750Y261167D01*
X54250Y260166D01*
X55000Y259333D01*
X56000Y259000D01*
X57000Y259333D01*
X57750Y260166D01*
X58250Y261167D01*
X58625Y262500D01*
X58750Y264000D01*
X58625Y265500D01*
X58250Y266833D01*
X57750Y267833D01*
X57000Y268667D01*
X56000Y269000D01*
G01X66000Y259000D02*
X66875Y259167D01*
X67875Y259667D01*
X68500Y260500D01*
X68750Y261667D01*
X68500Y262833D01*
X67750Y263833D01*
X66625Y264333D01*
X65375D01*
X64625Y264667D01*
X64000Y265500D01*
X63750Y266667D01*
X64125Y267833D01*
X65000Y268667D01*
X66000Y269000D01*
X67000Y268667D01*
X67875Y267833D01*
X68250Y266667D01*
X68000Y265500D01*
X67375Y264667D01*
X66625Y264333D01*
X65375D01*
X64250Y263833D01*
X63500Y262833D01*
X63250Y261667D01*
X63500Y260500D01*
X64125Y259667D01*
X65125Y259167D01*
X66000Y259000D01*
G01X74375Y262333D02*
X77625D01*
G01X144375D02*
X147625D01*
G01X156000Y269000D02*
X155000Y268667D01*
X154250Y267833D01*
X153750Y266833D01*
X153375Y265500D01*
X153250Y264000D01*
X153375Y262500D01*
X153750Y261167D01*
X154250Y260166D01*
X155000Y259333D01*
X156000Y259000D01*
X157000Y259333D01*
X157750Y260166D01*
X158250Y261167D01*
X158625Y262500D01*
X158750Y264000D01*
X158625Y265500D01*
X158250Y266833D01*
X157750Y267833D01*
X157000Y268667D01*
X156000Y269000D01*
G01X163250Y261000D02*
X164000Y259833D01*
X165000Y259167D01*
X166125Y259000D01*
X167125Y259167D01*
X168125Y260000D01*
X168750Y261000D01*
X168875Y262000D01*
X168625Y263166D01*
X167750Y264000D01*
X166875Y264333D01*
X165750D01*
G01X166875D02*
X167625Y264833D01*
X168250Y265666D01*
X168500Y266667D01*
X168250Y267667D01*
X167625Y268500D01*
X166500Y269000D01*
X165375Y268833D01*
X164250Y268167D01*
G01X79000Y149250D02*
Y133750D01*
X89000D01*
Y130500D01*
X111000D01*
Y133750D01*
X121000D01*
Y149250D01*
X111000D01*
Y152500D01*
X89000D01*
Y149250D01*
X79000D01*
G01X65600Y170800D02*
Y183200D01*
X72400D01*
Y170800D01*
X65600D01*
G01X75600D02*
Y183200D01*
X82400D01*
Y170800D01*
X75600D01*
G01X86000Y269000D02*
X85000Y268667D01*
X84250Y267833D01*
X83750Y266833D01*
X83375Y265500D01*
X83250Y264000D01*
X83375Y262500D01*
X83750Y261167D01*
X84250Y260166D01*
X85000Y259333D01*
X86000Y259000D01*
X87000Y259333D01*
X87750Y260166D01*
X88250Y261167D01*
X88625Y262500D01*
X88750Y264000D01*
X88625Y265500D01*
X88250Y266833D01*
X87750Y267833D01*
X87000Y268667D01*
X86000Y269000D01*
G01X93625Y263166D02*
X94500Y264333D01*
X95250Y265000D01*
X96250Y265333D01*
X97125Y265000D01*
X97750Y264333D01*
X98250Y263333D01*
X98375Y262167D01*
X98250Y261167D01*
X97750Y260166D01*
X97000Y259333D01*
X96125Y259000D01*
X95125Y259333D01*
X94250Y260333D01*
X93750Y261833D01*
X93625Y263500D01*
X93875Y265666D01*
X94250Y266833D01*
X94875Y268000D01*
X95750Y268833D01*
X96625Y269000D01*
X97500Y268667D01*
X98125Y267833D01*
G01X103625Y263166D02*
X104500Y264333D01*
X105250Y265000D01*
X106250Y265333D01*
X107125Y265000D01*
X107750Y264333D01*
X108250Y263333D01*
X108375Y262167D01*
X108250Y261167D01*
X107750Y260166D01*
X107000Y259333D01*
X106125Y259000D01*
X105125Y259333D01*
X104250Y260333D01*
X103750Y261833D01*
X103625Y263500D01*
X103875Y265666D01*
X104250Y266833D01*
X104875Y268000D01*
X105750Y268833D01*
X106625Y269000D01*
X107500Y268667D01*
X108125Y267833D01*
G01X113250Y260500D02*
X114000Y259667D01*
X114875Y259167D01*
X116000Y259000D01*
X117125Y259333D01*
X118000Y260000D01*
X118625Y261167D01*
X118750Y262500D01*
X118500Y263833D01*
X117875Y264667D01*
X117000Y265333D01*
X116125Y265500D01*
X115250Y265333D01*
X114125Y264667D01*
X114500Y269000D01*
X117875D01*
G01X123250Y261000D02*
X124000Y259833D01*
X125000Y259167D01*
X126125Y259000D01*
X127125Y259167D01*
X128125Y260000D01*
X128750Y261000D01*
X128875Y262000D01*
X128625Y263166D01*
X127750Y264000D01*
X126875Y264333D01*
X125750D01*
G01X126875D02*
X127625Y264833D01*
X128250Y265666D01*
X128500Y266667D01*
X128250Y267667D01*
X127625Y268500D01*
X126500Y269000D01*
X125375Y268833D01*
X124250Y268167D01*
G01X137500Y259000D02*
Y269000D01*
X132875Y261833D01*
X139125D01*
G01X115050Y26350D02*
Y25900D01*
X105950D01*
Y26350D01*
G01X118550Y24650D02*
Y15350D01*
X104650D01*
Y24650D01*
X118550D01*
G01X106500Y13000D02*
X109500D01*
G01X105950Y39650D02*
Y40100D01*
X115050D01*
Y39650D01*
G01X118550Y50650D02*
Y41350D01*
X104650D01*
Y50650D01*
X118550D01*
G01X106000Y52500D02*
X109000D01*
G01X106315Y86811D02*
X92299D01*
G01X106315Y103189D02*
Y86811D01*
G01X92299D02*
Y103189D01*
G01D02*
X106315D01*
G01X102800Y162000D02*
Y178000D01*
G01X108000Y162000D02*
X102800D01*
G01Y178000D02*
X108000D01*
G01X88500Y239000D02*
Y249000D01*
X91625D01*
X92625Y248500D01*
X93250Y247833D01*
X93500Y246500D01*
X93250Y245167D01*
X92500Y244333D01*
X91625Y243833D01*
X88500D01*
G01X91625D02*
X93500Y239000D01*
G01X103500D02*
X98500D01*
Y249000D01*
X103500D01*
G01X101500Y244167D02*
X98500D01*
G01X107875Y249000D02*
X111000Y239000D01*
X114125Y249000D01*
G01X132000Y244333D02*
X132500Y244833D01*
X132875Y245666D01*
X133125Y246833D01*
X132875Y247833D01*
X132375Y248500D01*
X131500Y249000D01*
X128125D01*
Y239000D01*
X132250D01*
X133125Y239667D01*
X133625Y240667D01*
X133875Y241833D01*
X133625Y243000D01*
X132875Y244000D01*
X132000Y244333D01*
X128125D01*
G01X108000Y11500D02*
Y14500D01*
G01X137750Y28350D02*
X120250D01*
Y37650D01*
X137750D01*
X139750Y35650D01*
Y30350D01*
X137750Y28350D01*
G01X107500Y51000D02*
Y54000D01*
G01X123457Y54400D02*
X135857D01*
Y47600D01*
X123457D01*
Y54400D01*
G01X135000Y40500D02*
X125000D01*
G01X128704Y178000D02*
Y162000D01*
G01X108000Y161500D02*
Y162000D01*
G01X123504Y161500D02*
X108000D01*
G01X123504Y162000D02*
Y161500D01*
G01X128704Y162000D02*
X123504D01*
G01Y178000D02*
X128704D01*
G01X123504Y178500D02*
Y178000D01*
G01X108000Y178500D02*
X123504D01*
G01X108000Y178000D02*
Y178500D01*
G01X202000Y184250D02*
X118000D01*
Y195750D01*
X202000D01*
Y184250D01*
G01X138000Y5750D02*
X202000D01*
Y-5750D01*
X138000D01*
Y5750D01*
G01X157750Y28350D02*
X140250D01*
Y37650D01*
X157750D01*
X159750Y35650D01*
Y30350D01*
X157750Y28350D01*
G01X146860Y61013D02*
X159260D01*
Y54213D01*
X146860D01*
Y61013D01*
G01X132500Y38000D02*
Y43000D01*
G01X154500Y40500D02*
X144500D01*
G01X146860Y67966D02*
X159260D01*
Y61166D01*
X146860D01*
Y67966D01*
G01Y137967D02*
X159260D01*
Y131167D01*
X146860D01*
Y137967D01*
G01Y131014D02*
X159260D01*
Y124214D01*
X146860D01*
Y131014D01*
G01X136013Y147846D02*
X128895D01*
Y139154D01*
X136013D01*
Y147846D01*
G01X163717Y51576D02*
Y51298D01*
X165292Y49723D01*
X165570D01*
G01X152000Y38000D02*
Y43000D01*
G01X165570Y71409D02*
X165292D01*
X163717Y69834D01*
Y69556D01*
G01Y121577D02*
Y121299D01*
X165292Y119724D01*
X165570D01*
G01Y141410D02*
X165292D01*
X163717Y139835D01*
Y139557D01*
G01X183550Y49723D02*
X183828D01*
X185403Y51298D01*
Y51576D01*
G01Y69556D02*
Y69834D01*
X183828Y71409D01*
X183550D01*
G01Y119724D02*
X183828D01*
X185403Y121299D01*
Y121577D01*
G01Y139557D02*
Y139835D01*
X183828Y141410D01*
X183550D01*
G01X248125Y167750D02*
Y171000D01*
X236125D01*
Y169750D01*
X216375D01*
Y20250D01*
X236125D01*
Y19000D01*
X248125D01*
Y22750D01*
X249000D01*
G01Y167250D02*
X248125D01*
Y167750D01*
G54D12*
G01X-42842Y47679D02*
X-42997Y47449D01*
X-43100Y47181D01*
Y46874D01*
X-42945Y46529D01*
X-42687Y46261D01*
X-42377Y46069D01*
X-41860Y45916D01*
X-41395Y45878D01*
X-40930Y45954D01*
X-40620Y46069D01*
X-40310Y46299D01*
X-40103Y46568D01*
X-40000Y46836D01*
Y47104D01*
X-40103Y47373D01*
X-40258Y47603D01*
X-40465Y47794D01*
G01X-42583Y49208D02*
X-42893Y49438D01*
X-43048Y49706D01*
X-43100Y50013D01*
X-42997Y50396D01*
X-42738Y50664D01*
X-42428Y50741D01*
X-42118Y50703D01*
X-41860Y50549D01*
X-41343Y49783D01*
X-40982Y49438D01*
X-40465Y49208D01*
X-40000Y49131D01*
Y50741D01*
G01Y53036D02*
X-40052Y53304D01*
X-40207Y53611D01*
X-40465Y53803D01*
X-40827Y53879D01*
X-41188Y53803D01*
X-41498Y53573D01*
X-41653Y53228D01*
Y52844D01*
X-41757Y52614D01*
X-42015Y52423D01*
X-42377Y52346D01*
X-42738Y52461D01*
X-42997Y52729D01*
X-43100Y53036D01*
X-42997Y53343D01*
X-42738Y53611D01*
X-42377Y53726D01*
X-42015Y53649D01*
X-41757Y53458D01*
X-41653Y53228D01*
Y52844D01*
X-41498Y52499D01*
X-41188Y52269D01*
X-40827Y52193D01*
X-40465Y52269D01*
X-40207Y52461D01*
X-40052Y52768D01*
X-40000Y53036D01*
G01X-46367Y133453D02*
Y136553D01*
X-45408D01*
X-45102Y136398D01*
X-44910Y136191D01*
X-44833Y135778D01*
X-44910Y135365D01*
X-45140Y135106D01*
X-45408Y134951D01*
X-46367D01*
G01X-45408D02*
X-44833Y133453D01*
G01X-43343Y134073D02*
X-43113Y133711D01*
X-42807Y133505D01*
X-42462Y133453D01*
X-42155Y133505D01*
X-41848Y133763D01*
X-41657Y134073D01*
X-41618Y134383D01*
X-41695Y134745D01*
X-41963Y135003D01*
X-42232Y135106D01*
X-42577D01*
G01X-42232D02*
X-42002Y135261D01*
X-41810Y135520D01*
X-41733Y135830D01*
X-41810Y136140D01*
X-42002Y136398D01*
X-42347Y136553D01*
X-42692Y136501D01*
X-43037Y136295D01*
G01X-39400Y136553D02*
X-39707Y136450D01*
X-39937Y136191D01*
X-40090Y135881D01*
X-40205Y135468D01*
X-40243Y135003D01*
X-40205Y134538D01*
X-40090Y134125D01*
X-39937Y133815D01*
X-39707Y133556D01*
X-39400Y133453D01*
X-39093Y133556D01*
X-38863Y133815D01*
X-38710Y134125D01*
X-38595Y134538D01*
X-38557Y135003D01*
X-38595Y135468D01*
X-38710Y135881D01*
X-38863Y136191D01*
X-39093Y136450D01*
X-39400Y136553D01*
G01X-45867Y139953D02*
Y143053D01*
X-44908D01*
X-44602Y142898D01*
X-44410Y142691D01*
X-44333Y142278D01*
X-44410Y141865D01*
X-44640Y141606D01*
X-44908Y141451D01*
X-45867D01*
G01X-44908D02*
X-44333Y139953D01*
G01X-42843Y140573D02*
X-42613Y140211D01*
X-42307Y140005D01*
X-41962Y139953D01*
X-41655Y140005D01*
X-41348Y140263D01*
X-41157Y140573D01*
X-41118Y140883D01*
X-41195Y141245D01*
X-41463Y141503D01*
X-41732Y141606D01*
X-42077D01*
G01X-41732D02*
X-41502Y141761D01*
X-41310Y142020D01*
X-41233Y142330D01*
X-41310Y142640D01*
X-41502Y142898D01*
X-41847Y143053D01*
X-42192Y143001D01*
X-42537Y142795D01*
G01X-38900Y139953D02*
Y143053D01*
X-39360Y142433D01*
G01Y139953D02*
X-38440D01*
G01X-44757Y148795D02*
X-44987Y148950D01*
X-45255Y149053D01*
X-45562D01*
X-45907Y148898D01*
X-46175Y148640D01*
X-46367Y148330D01*
X-46520Y147813D01*
X-46558Y147348D01*
X-46482Y146883D01*
X-46367Y146573D01*
X-46137Y146263D01*
X-45868Y146056D01*
X-45600Y145953D01*
X-45332D01*
X-45063Y146056D01*
X-44833Y146211D01*
X-44642Y146418D01*
G01X-43228Y148536D02*
X-42998Y148846D01*
X-42730Y149001D01*
X-42423Y149053D01*
X-42040Y148950D01*
X-41772Y148691D01*
X-41695Y148381D01*
X-41733Y148071D01*
X-41887Y147813D01*
X-42653Y147296D01*
X-42998Y146935D01*
X-43228Y146418D01*
X-43305Y145953D01*
X-41695D01*
G01X-40128Y147245D02*
X-39860Y147606D01*
X-39630Y147813D01*
X-39323Y147916D01*
X-39055Y147813D01*
X-38863Y147606D01*
X-38710Y147296D01*
X-38672Y146935D01*
X-38710Y146625D01*
X-38863Y146315D01*
X-39093Y146056D01*
X-39362Y145953D01*
X-39668Y146056D01*
X-39937Y146366D01*
X-40090Y146831D01*
X-40128Y147348D01*
X-40052Y148020D01*
X-39937Y148381D01*
X-39745Y148743D01*
X-39477Y149001D01*
X-39208Y149053D01*
X-38940Y148950D01*
X-38748Y148691D01*
G01X-36842Y47679D02*
X-36997Y47449D01*
X-37100Y47181D01*
Y46874D01*
X-36945Y46529D01*
X-36687Y46261D01*
X-36377Y46069D01*
X-35860Y45916D01*
X-35395Y45878D01*
X-34930Y45954D01*
X-34620Y46069D01*
X-34310Y46299D01*
X-34103Y46568D01*
X-34000Y46836D01*
Y47104D01*
X-34103Y47373D01*
X-34258Y47603D01*
X-34465Y47794D01*
G01X-34620Y49093D02*
X-34258Y49323D01*
X-34052Y49629D01*
X-34000Y49974D01*
X-34052Y50281D01*
X-34310Y50588D01*
X-34620Y50779D01*
X-34930Y50818D01*
X-35292Y50741D01*
X-35550Y50473D01*
X-35653Y50204D01*
Y49859D01*
G01Y50204D02*
X-35808Y50434D01*
X-36067Y50626D01*
X-36377Y50703D01*
X-36687Y50626D01*
X-36945Y50434D01*
X-37100Y50089D01*
X-37048Y49744D01*
X-36842Y49399D01*
G01X-37100Y53036D02*
X-36997Y52729D01*
X-36738Y52499D01*
X-36428Y52346D01*
X-36015Y52231D01*
X-35550Y52193D01*
X-35085Y52231D01*
X-34672Y52346D01*
X-34362Y52499D01*
X-34103Y52729D01*
X-34000Y53036D01*
X-34103Y53343D01*
X-34362Y53573D01*
X-34672Y53726D01*
X-35085Y53841D01*
X-35550Y53879D01*
X-36015Y53841D01*
X-36428Y53726D01*
X-36738Y53573D01*
X-36997Y53343D01*
X-37100Y53036D01*
G01X-27757Y120342D02*
X-27987Y120497D01*
X-28255Y120600D01*
X-28562D01*
X-28907Y120445D01*
X-29175Y120187D01*
X-29367Y119877D01*
X-29520Y119360D01*
X-29558Y118895D01*
X-29482Y118430D01*
X-29367Y118120D01*
X-29137Y117810D01*
X-28868Y117603D01*
X-28600Y117500D01*
X-28332D01*
X-28063Y117603D01*
X-27833Y117758D01*
X-27642Y117965D01*
G01X-26343D02*
X-26113Y117707D01*
X-25845Y117552D01*
X-25500Y117500D01*
X-25155Y117603D01*
X-24887Y117810D01*
X-24695Y118172D01*
X-24657Y118585D01*
X-24733Y118998D01*
X-24925Y119257D01*
X-25193Y119463D01*
X-25462Y119515D01*
X-25730Y119463D01*
X-26075Y119257D01*
X-25960Y120600D01*
X-24925D01*
G01X-22400Y117500D02*
X-22132Y117552D01*
X-21825Y117707D01*
X-21633Y117965D01*
X-21557Y118327D01*
X-21633Y118688D01*
X-21863Y118998D01*
X-22208Y119153D01*
X-22592D01*
X-22822Y119257D01*
X-23013Y119515D01*
X-23090Y119877D01*
X-22975Y120238D01*
X-22707Y120497D01*
X-22400Y120600D01*
X-22093Y120497D01*
X-21825Y120238D01*
X-21710Y119877D01*
X-21787Y119515D01*
X-21978Y119257D01*
X-22208Y119153D01*
X-22592D01*
X-22937Y118998D01*
X-23167Y118688D01*
X-23243Y118327D01*
X-23167Y117965D01*
X-22975Y117707D01*
X-22668Y117552D01*
X-22400Y117500D01*
G01X-36757Y184842D02*
X-36987Y184997D01*
X-37255Y185100D01*
X-37562D01*
X-37907Y184945D01*
X-38175Y184687D01*
X-38367Y184377D01*
X-38520Y183860D01*
X-38558Y183395D01*
X-38482Y182930D01*
X-38367Y182620D01*
X-38137Y182310D01*
X-37868Y182103D01*
X-37600Y182000D01*
X-37332D01*
X-37063Y182103D01*
X-36833Y182258D01*
X-36642Y182465D01*
G01X-35228Y184583D02*
X-34998Y184893D01*
X-34730Y185048D01*
X-34423Y185100D01*
X-34040Y184997D01*
X-33772Y184738D01*
X-33695Y184428D01*
X-33733Y184118D01*
X-33887Y183860D01*
X-34653Y183343D01*
X-34998Y182982D01*
X-35228Y182465D01*
X-35305Y182000D01*
X-33695D01*
G01X-31400D02*
Y185100D01*
X-31860Y184480D01*
G01Y182000D02*
X-30940D01*
G01X-29393Y168100D02*
Y165878D01*
X-29240Y165413D01*
X-28933Y165103D01*
X-28550Y165000D01*
X-28167Y165103D01*
X-27860Y165413D01*
X-27707Y165878D01*
Y168100D01*
G01X-24990Y165000D02*
Y168100D01*
X-26408Y165878D01*
X-24492D01*
G01X-36757Y190842D02*
X-36987Y190997D01*
X-37255Y191100D01*
X-37562D01*
X-37907Y190945D01*
X-38175Y190687D01*
X-38367Y190377D01*
X-38520Y189860D01*
X-38558Y189395D01*
X-38482Y188930D01*
X-38367Y188620D01*
X-38137Y188310D01*
X-37868Y188103D01*
X-37600Y188000D01*
X-37332D01*
X-37063Y188103D01*
X-36833Y188258D01*
X-36642Y188465D01*
G01X-35228Y190583D02*
X-34998Y190893D01*
X-34730Y191048D01*
X-34423Y191100D01*
X-34040Y190997D01*
X-33772Y190738D01*
X-33695Y190428D01*
X-33733Y190118D01*
X-33887Y189860D01*
X-34653Y189343D01*
X-34998Y188982D01*
X-35228Y188465D01*
X-35305Y188000D01*
X-33695D01*
G01X-31400Y191100D02*
X-31707Y190997D01*
X-31937Y190738D01*
X-32090Y190428D01*
X-32205Y190015D01*
X-32243Y189550D01*
X-32205Y189085D01*
X-32090Y188672D01*
X-31937Y188362D01*
X-31707Y188103D01*
X-31400Y188000D01*
X-31093Y188103D01*
X-30863Y188362D01*
X-30710Y188672D01*
X-30595Y189085D01*
X-30557Y189550D01*
X-30595Y190015D01*
X-30710Y190428D01*
X-30863Y190738D01*
X-31093Y190997D01*
X-31400Y191100D01*
G01X-9893Y22036D02*
Y19814D01*
X-9740Y19349D01*
X-9433Y19039D01*
X-9050Y18936D01*
X-8667Y19039D01*
X-8360Y19349D01*
X-8207Y19814D01*
Y22036D01*
G01X-6027Y18936D02*
X-5950Y19608D01*
X-5835Y20176D01*
X-5682Y20693D01*
X-5490Y21261D01*
X-5183Y22036D01*
X-6717D01*
G01X-10893Y77600D02*
Y75378D01*
X-10740Y74913D01*
X-10433Y74603D01*
X-10050Y74500D01*
X-9667Y74603D01*
X-9360Y74913D01*
X-9207Y75378D01*
Y77600D01*
G01X-7678Y75792D02*
X-7410Y76153D01*
X-7180Y76360D01*
X-6873Y76463D01*
X-6605Y76360D01*
X-6413Y76153D01*
X-6260Y75843D01*
X-6222Y75482D01*
X-6260Y75172D01*
X-6413Y74862D01*
X-6643Y74603D01*
X-6912Y74500D01*
X-7218Y74603D01*
X-7487Y74913D01*
X-7640Y75378D01*
X-7678Y75895D01*
X-7602Y76567D01*
X-7487Y76928D01*
X-7295Y77290D01*
X-7027Y77548D01*
X-6758Y77600D01*
X-6490Y77497D01*
X-6298Y77238D01*
G01X-10508Y122953D02*
X-9550Y126053D01*
X-8592Y122953D01*
G01X-8937Y124038D02*
X-10163D01*
G01X-6450Y122953D02*
Y126053D01*
X-6910Y125433D01*
G01Y122953D02*
X-5990D01*
G01X-8000Y175133D02*
X-11100D01*
Y176092D01*
X-10945Y176398D01*
X-10738Y176590D01*
X-10325Y176667D01*
X-9912Y176590D01*
X-9653Y176360D01*
X-9498Y176092D01*
Y175133D01*
G01Y176092D02*
X-8000Y176667D01*
G01X-10583Y178272D02*
X-10893Y178502D01*
X-11048Y178770D01*
X-11100Y179077D01*
X-10997Y179460D01*
X-10738Y179728D01*
X-10428Y179805D01*
X-10118Y179767D01*
X-9860Y179613D01*
X-9343Y178847D01*
X-8982Y178502D01*
X-8465Y178272D01*
X-8000Y178195D01*
Y179805D01*
G01X-8362Y181448D02*
X-8103Y181717D01*
X-8000Y182023D01*
X-8103Y182330D01*
X-8413Y182598D01*
X-8878Y182790D01*
X-9343Y182867D01*
X-9912D01*
X-10377Y182790D01*
X-10790Y182598D01*
X-10997Y182368D01*
X-11100Y182100D01*
X-10997Y181793D01*
X-10790Y181563D01*
X-10480Y181410D01*
X-10067Y181333D01*
X-9705Y181410D01*
X-9343Y181602D01*
X-9137Y181832D01*
X-9085Y182100D01*
X-9188Y182407D01*
X-9447Y182637D01*
X-9912Y182867D01*
G01X17158Y47479D02*
X17003Y47249D01*
X16900Y46981D01*
Y46674D01*
X17055Y46329D01*
X17313Y46061D01*
X17623Y45869D01*
X18140Y45716D01*
X18605Y45678D01*
X19070Y45754D01*
X19380Y45869D01*
X19690Y46099D01*
X19897Y46368D01*
X20000Y46636D01*
Y46904D01*
X19897Y47173D01*
X19742Y47403D01*
X19535Y47594D01*
G01X19380Y48893D02*
X19742Y49123D01*
X19948Y49429D01*
X20000Y49774D01*
X19948Y50081D01*
X19690Y50388D01*
X19380Y50579D01*
X19070Y50618D01*
X18708Y50541D01*
X18450Y50273D01*
X18347Y50004D01*
Y49659D01*
G01Y50004D02*
X18192Y50234D01*
X17933Y50426D01*
X17623Y50503D01*
X17313Y50426D01*
X17055Y50234D01*
X16900Y49889D01*
X16952Y49544D01*
X17158Y49199D01*
G01X17417Y52108D02*
X17107Y52338D01*
X16952Y52606D01*
X16900Y52913D01*
X17003Y53296D01*
X17262Y53564D01*
X17572Y53641D01*
X17882Y53603D01*
X18140Y53449D01*
X18657Y52683D01*
X19018Y52338D01*
X19535Y52108D01*
X20000Y52031D01*
Y53641D01*
G01X6743Y120342D02*
X6513Y120497D01*
X6245Y120600D01*
X5938D01*
X5593Y120445D01*
X5325Y120187D01*
X5133Y119877D01*
X4980Y119360D01*
X4942Y118895D01*
X5018Y118430D01*
X5133Y118120D01*
X5363Y117810D01*
X5632Y117603D01*
X5900Y117500D01*
X6168D01*
X6437Y117603D01*
X6667Y117758D01*
X6858Y117965D01*
G01X8157D02*
X8387Y117707D01*
X8655Y117552D01*
X9000Y117500D01*
X9345Y117603D01*
X9613Y117810D01*
X9805Y118172D01*
X9843Y118585D01*
X9767Y118998D01*
X9575Y119257D01*
X9307Y119463D01*
X9038Y119515D01*
X8770Y119463D01*
X8425Y119257D01*
X8540Y120600D01*
X9575D01*
G01X11448Y117862D02*
X11717Y117603D01*
X12023Y117500D01*
X12330Y117603D01*
X12598Y117913D01*
X12790Y118378D01*
X12867Y118843D01*
Y119412D01*
X12790Y119877D01*
X12598Y120290D01*
X12368Y120497D01*
X12100Y120600D01*
X11793Y120497D01*
X11563Y120290D01*
X11410Y119980D01*
X11333Y119567D01*
X11410Y119205D01*
X11602Y118843D01*
X11832Y118637D01*
X12100Y118585D01*
X12407Y118688D01*
X12637Y118947D01*
X12867Y119412D01*
G01X21000Y107483D02*
X17900D01*
Y108442D01*
X18055Y108748D01*
X18262Y108940D01*
X18675Y109017D01*
X19088Y108940D01*
X19347Y108710D01*
X19502Y108442D01*
Y107483D01*
G01Y108442D02*
X21000Y109017D01*
G01X18158Y112193D02*
X18003Y111963D01*
X17900Y111695D01*
Y111388D01*
X18055Y111043D01*
X18313Y110775D01*
X18623Y110583D01*
X19140Y110430D01*
X19605Y110392D01*
X20070Y110468D01*
X20380Y110583D01*
X20690Y110813D01*
X20897Y111082D01*
X21000Y111350D01*
Y111618D01*
X20897Y111887D01*
X20742Y112117D01*
X20535Y112308D01*
G01X21000Y113492D02*
X17900Y114450D01*
X21000Y115408D01*
G01X19915Y115063D02*
Y113837D01*
G01X17900Y116783D02*
X21000D01*
Y118317D01*
G01X22033Y119500D02*
Y121800D01*
G01X21000Y122945D02*
X17900Y124555D01*
G01Y122945D02*
X21000Y124555D01*
G01X21133Y133453D02*
Y136553D01*
X22092D01*
X22398Y136398D01*
X22590Y136191D01*
X22667Y135778D01*
X22590Y135365D01*
X22360Y135106D01*
X22092Y134951D01*
X21133D01*
G01X22092D02*
X22667Y133453D01*
G01X24157Y134073D02*
X24387Y133711D01*
X24693Y133505D01*
X25038Y133453D01*
X25345Y133505D01*
X25652Y133763D01*
X25843Y134073D01*
X25882Y134383D01*
X25805Y134745D01*
X25537Y135003D01*
X25268Y135106D01*
X24923D01*
G01X25268D02*
X25498Y135261D01*
X25690Y135520D01*
X25767Y135830D01*
X25690Y136140D01*
X25498Y136398D01*
X25153Y136553D01*
X24808Y136501D01*
X24463Y136295D01*
G01X28560Y133453D02*
Y136553D01*
X27142Y134331D01*
X29058D01*
G01X21133Y139953D02*
Y143053D01*
X22092D01*
X22398Y142898D01*
X22590Y142691D01*
X22667Y142278D01*
X22590Y141865D01*
X22360Y141606D01*
X22092Y141451D01*
X21133D01*
G01X22092D02*
X22667Y139953D01*
G01X24157Y140573D02*
X24387Y140211D01*
X24693Y140005D01*
X25038Y139953D01*
X25345Y140005D01*
X25652Y140263D01*
X25843Y140573D01*
X25882Y140883D01*
X25805Y141245D01*
X25537Y141503D01*
X25268Y141606D01*
X24923D01*
G01X25268D02*
X25498Y141761D01*
X25690Y142020D01*
X25767Y142330D01*
X25690Y142640D01*
X25498Y142898D01*
X25153Y143053D01*
X24808Y143001D01*
X24463Y142795D01*
G01X27257Y140573D02*
X27487Y140211D01*
X27793Y140005D01*
X28138Y139953D01*
X28445Y140005D01*
X28752Y140263D01*
X28943Y140573D01*
X28982Y140883D01*
X28905Y141245D01*
X28637Y141503D01*
X28368Y141606D01*
X28023D01*
G01X28368D02*
X28598Y141761D01*
X28790Y142020D01*
X28867Y142330D01*
X28790Y142640D01*
X28598Y142898D01*
X28253Y143053D01*
X27908Y143001D01*
X27563Y142795D01*
G01X23243Y149795D02*
X23013Y149950D01*
X22745Y150053D01*
X22438D01*
X22093Y149898D01*
X21825Y149640D01*
X21633Y149330D01*
X21480Y148813D01*
X21442Y148348D01*
X21518Y147883D01*
X21633Y147573D01*
X21863Y147263D01*
X22132Y147056D01*
X22400Y146953D01*
X22668D01*
X22937Y147056D01*
X23167Y147211D01*
X23358Y147418D01*
G01X24657Y147573D02*
X24887Y147211D01*
X25193Y147005D01*
X25538Y146953D01*
X25845Y147005D01*
X26152Y147263D01*
X26343Y147573D01*
X26382Y147883D01*
X26305Y148245D01*
X26037Y148503D01*
X25768Y148606D01*
X25423D01*
G01X25768D02*
X25998Y148761D01*
X26190Y149020D01*
X26267Y149330D01*
X26190Y149640D01*
X25998Y149898D01*
X25653Y150053D01*
X25308Y150001D01*
X24963Y149795D01*
G01X29060Y146953D02*
Y150053D01*
X27642Y147831D01*
X29558D01*
G01X10950Y179500D02*
Y182600D01*
X10490Y181980D01*
G01Y179500D02*
X11410D01*
G01X14050Y182600D02*
X13743Y182497D01*
X13513Y182238D01*
X13360Y181928D01*
X13245Y181515D01*
X13207Y181050D01*
X13245Y180585D01*
X13360Y180172D01*
X13513Y179862D01*
X13743Y179603D01*
X14050Y179500D01*
X14357Y179603D01*
X14587Y179862D01*
X14740Y180172D01*
X14855Y180585D01*
X14893Y181050D01*
X14855Y181515D01*
X14740Y181928D01*
X14587Y182238D01*
X14357Y182497D01*
X14050Y182600D01*
G01X15133Y167120D02*
X15325Y166810D01*
X15555Y166603D01*
X15823Y166500D01*
X16130Y166603D01*
X16360Y166810D01*
X16590Y167120D01*
X16667Y167533D01*
Y169600D01*
G01X18233Y166500D02*
Y169600D01*
X19153D01*
X19460Y169445D01*
X19690Y169083D01*
X19767Y168670D01*
X19690Y168257D01*
X19498Y167947D01*
X19153Y167792D01*
X18233D01*
G01X22023Y166500D02*
X22100Y167172D01*
X22215Y167740D01*
X22368Y168257D01*
X22560Y168825D01*
X22867Y169600D01*
X21333D01*
G01X24717Y30236D02*
X23183D01*
Y33336D01*
X24717D01*
G01X24103Y31838D02*
X23183D01*
G01X26322Y32819D02*
X26552Y33129D01*
X26820Y33284D01*
X27127Y33336D01*
X27510Y33233D01*
X27778Y32974D01*
X27855Y32664D01*
X27817Y32354D01*
X27663Y32096D01*
X26897Y31579D01*
X26552Y31218D01*
X26322Y30701D01*
X26245Y30236D01*
X27855D01*
G01X31158Y47479D02*
X31003Y47249D01*
X30900Y46981D01*
Y46674D01*
X31055Y46329D01*
X31313Y46061D01*
X31623Y45869D01*
X32140Y45716D01*
X32605Y45678D01*
X33070Y45754D01*
X33380Y45869D01*
X33690Y46099D01*
X33897Y46368D01*
X34000Y46636D01*
Y46904D01*
X33897Y47173D01*
X33742Y47403D01*
X33535Y47594D01*
G01X33380Y48893D02*
X33742Y49123D01*
X33948Y49429D01*
X34000Y49774D01*
X33948Y50081D01*
X33690Y50388D01*
X33380Y50579D01*
X33070Y50618D01*
X32708Y50541D01*
X32450Y50273D01*
X32347Y50004D01*
Y49659D01*
G01Y50004D02*
X32192Y50234D01*
X31933Y50426D01*
X31623Y50503D01*
X31313Y50426D01*
X31055Y50234D01*
X30900Y49889D01*
X30952Y49544D01*
X31158Y49199D01*
G01X33535Y51993D02*
X33793Y52223D01*
X33948Y52491D01*
X34000Y52836D01*
X33897Y53181D01*
X33690Y53449D01*
X33328Y53641D01*
X32915Y53679D01*
X32502Y53603D01*
X32243Y53411D01*
X32037Y53143D01*
X31985Y52874D01*
X32037Y52606D01*
X32243Y52261D01*
X30900Y52376D01*
Y53411D01*
G01X42380Y35583D02*
X42690Y35775D01*
X42897Y36005D01*
X43000Y36273D01*
X42897Y36580D01*
X42690Y36810D01*
X42380Y37040D01*
X41967Y37117D01*
X39900D01*
G01X43000Y38683D02*
X39900D01*
Y39603D01*
X40055Y39910D01*
X40417Y40140D01*
X40830Y40217D01*
X41243Y40140D01*
X41553Y39948D01*
X41708Y39603D01*
Y38683D01*
G01X43000Y42550D02*
X39900D01*
X40520Y42090D01*
G01X43000D02*
Y43010D01*
G01X40417Y44922D02*
X40107Y45152D01*
X39952Y45420D01*
X39900Y45727D01*
X40003Y46110D01*
X40262Y46378D01*
X40572Y46455D01*
X40882Y46417D01*
X41140Y46263D01*
X41657Y45497D01*
X42018Y45152D01*
X42535Y44922D01*
X43000Y44845D01*
Y46455D01*
G01X24717Y44736D02*
X23183D01*
Y47836D01*
X24717D01*
G01X24103Y46338D02*
X23183D01*
G01X26207Y45356D02*
X26437Y44994D01*
X26743Y44788D01*
X27088Y44736D01*
X27395Y44788D01*
X27702Y45046D01*
X27893Y45356D01*
X27932Y45666D01*
X27855Y46028D01*
X27587Y46286D01*
X27318Y46389D01*
X26973D01*
G01X27318D02*
X27548Y46544D01*
X27740Y46803D01*
X27817Y47113D01*
X27740Y47423D01*
X27548Y47681D01*
X27203Y47836D01*
X26858Y47784D01*
X26513Y47578D01*
G01X33843Y62342D02*
X33613Y62497D01*
X33345Y62600D01*
X33038D01*
X32693Y62445D01*
X32425Y62187D01*
X32233Y61877D01*
X32080Y61360D01*
X32042Y60895D01*
X32118Y60430D01*
X32233Y60120D01*
X32463Y59810D01*
X32732Y59603D01*
X33000Y59500D01*
X33268D01*
X33537Y59603D01*
X33767Y59758D01*
X33958Y59965D01*
G01X36057Y63500D02*
Y66600D01*
X36823D01*
X37130Y66445D01*
X37360Y66238D01*
X37552Y65928D01*
X37705Y65567D01*
X37743Y65050D01*
X37705Y64533D01*
X37552Y64172D01*
X37360Y63862D01*
X37130Y63655D01*
X36823Y63500D01*
X36057D01*
G01X39195Y63913D02*
X39502Y63655D01*
X39847Y63500D01*
X40153D01*
X40460Y63655D01*
X40690Y63913D01*
X40805Y64275D01*
X40728Y64637D01*
X40537Y64947D01*
X40192Y65153D01*
X39732Y65257D01*
X39463Y65463D01*
X39348Y65825D01*
X39425Y66187D01*
X39617Y66445D01*
X39885Y66600D01*
X40153D01*
X40422Y66497D01*
X40652Y66238D01*
G01X42372Y66083D02*
X42602Y66393D01*
X42870Y66548D01*
X43177Y66600D01*
X43560Y66497D01*
X43828Y66238D01*
X43905Y65928D01*
X43867Y65618D01*
X43713Y65360D01*
X42947Y64843D01*
X42602Y64482D01*
X42372Y63965D01*
X42295Y63500D01*
X43905D01*
G01X42000Y106983D02*
X38900D01*
Y107942D01*
X39055Y108248D01*
X39262Y108440D01*
X39675Y108517D01*
X40088Y108440D01*
X40347Y108210D01*
X40502Y107942D01*
Y106983D01*
G01Y107942D02*
X42000Y108517D01*
G01X38900Y110850D02*
X42000D01*
G01X38900Y109968D02*
Y111732D01*
G01Y113490D02*
Y114410D01*
G01Y113950D02*
X42000D01*
G01Y113490D02*
Y114410D01*
G01Y116092D02*
X38900Y117050D01*
X42000Y118008D01*
G01X40915Y117663D02*
Y116437D01*
G01X43033Y119000D02*
Y121300D01*
G01X42000Y122445D02*
X38900Y124055D01*
G01Y122445D02*
X42000Y124055D01*
G01X36500Y124583D02*
X33400D01*
Y125542D01*
X33555Y125848D01*
X33762Y126040D01*
X34175Y126117D01*
X34588Y126040D01*
X34847Y125810D01*
X35002Y125542D01*
Y124583D01*
G01Y125542D02*
X36500Y126117D01*
G01X33658Y129293D02*
X33503Y129063D01*
X33400Y128795D01*
Y128488D01*
X33555Y128143D01*
X33813Y127875D01*
X34123Y127683D01*
X34640Y127530D01*
X35105Y127492D01*
X35570Y127568D01*
X35880Y127683D01*
X36190Y127913D01*
X36397Y128182D01*
X36500Y128450D01*
Y128718D01*
X36397Y128987D01*
X36242Y129217D01*
X36035Y129408D01*
G01X36500Y130592D02*
X33400Y131550D01*
X36500Y132508D01*
G01X35415Y132163D02*
Y130937D01*
G01X33400Y133883D02*
X36500D01*
Y135417D01*
G01X25133Y167120D02*
X25325Y166810D01*
X25555Y166603D01*
X25823Y166500D01*
X26130Y166603D01*
X26360Y166810D01*
X26590Y167120D01*
X26667Y167533D01*
Y169600D01*
G01X28233Y166500D02*
Y169600D01*
X29153D01*
X29460Y169445D01*
X29690Y169083D01*
X29767Y168670D01*
X29690Y168257D01*
X29498Y167947D01*
X29153Y167792D01*
X28233D01*
G01X32100Y166500D02*
X32368Y166552D01*
X32675Y166707D01*
X32867Y166965D01*
X32943Y167327D01*
X32867Y167688D01*
X32637Y167998D01*
X32292Y168153D01*
X31908D01*
X31678Y168257D01*
X31487Y168515D01*
X31410Y168877D01*
X31525Y169238D01*
X31793Y169497D01*
X32100Y169600D01*
X32407Y169497D01*
X32675Y169238D01*
X32790Y168877D01*
X32713Y168515D01*
X32522Y168257D01*
X32292Y168153D01*
X31908D01*
X31563Y167998D01*
X31333Y167688D01*
X31257Y167327D01*
X31333Y166965D01*
X31525Y166707D01*
X31832Y166552D01*
X32100Y166500D01*
G01X57593Y14842D02*
X57363Y14997D01*
X57095Y15100D01*
X56788D01*
X56443Y14945D01*
X56175Y14687D01*
X55983Y14377D01*
X55830Y13860D01*
X55792Y13395D01*
X55868Y12930D01*
X55983Y12620D01*
X56213Y12310D01*
X56482Y12103D01*
X56750Y12000D01*
X57018D01*
X57287Y12103D01*
X57517Y12258D01*
X57708Y12465D01*
G01X59122Y14583D02*
X59352Y14893D01*
X59620Y15048D01*
X59927Y15100D01*
X60310Y14997D01*
X60578Y14738D01*
X60655Y14428D01*
X60617Y14118D01*
X60463Y13860D01*
X59697Y13343D01*
X59352Y12982D01*
X59122Y12465D01*
X59045Y12000D01*
X60655D01*
G01X62107Y12620D02*
X62337Y12258D01*
X62643Y12052D01*
X62988Y12000D01*
X63295Y12052D01*
X63602Y12310D01*
X63793Y12620D01*
X63832Y12930D01*
X63755Y13292D01*
X63487Y13550D01*
X63218Y13653D01*
X62873D01*
G01X63218D02*
X63448Y13808D01*
X63640Y14067D01*
X63717Y14377D01*
X63640Y14687D01*
X63448Y14945D01*
X63103Y15100D01*
X62758Y15048D01*
X62413Y14842D01*
G01X55000Y7000D02*
Y10100D01*
X54540Y9480D01*
G01Y7000D02*
X55460D01*
G01X52658Y28743D02*
X52503Y28513D01*
X52400Y28245D01*
Y27938D01*
X52555Y27593D01*
X52813Y27325D01*
X53123Y27133D01*
X53640Y26980D01*
X54105Y26942D01*
X54570Y27018D01*
X54880Y27133D01*
X55190Y27363D01*
X55397Y27632D01*
X55500Y27900D01*
Y28168D01*
X55397Y28437D01*
X55242Y28667D01*
X55035Y28858D01*
G01X52917Y30272D02*
X52607Y30502D01*
X52452Y30770D01*
X52400Y31077D01*
X52503Y31460D01*
X52762Y31728D01*
X53072Y31805D01*
X53382Y31767D01*
X53640Y31613D01*
X54157Y30847D01*
X54518Y30502D01*
X55035Y30272D01*
X55500Y30195D01*
Y31805D01*
G01Y34023D02*
X54828Y34100D01*
X54260Y34215D01*
X53743Y34368D01*
X53175Y34560D01*
X52400Y34867D01*
Y33333D01*
G01X63243Y54842D02*
X63013Y54997D01*
X62745Y55100D01*
X62438D01*
X62093Y54945D01*
X61825Y54687D01*
X61633Y54377D01*
X61480Y53860D01*
X61442Y53395D01*
X61518Y52930D01*
X61633Y52620D01*
X61863Y52310D01*
X62132Y52103D01*
X62400Y52000D01*
X62668D01*
X62937Y52103D01*
X63167Y52258D01*
X63358Y52465D01*
G01X64772Y54583D02*
X65002Y54893D01*
X65270Y55048D01*
X65577Y55100D01*
X65960Y54997D01*
X66228Y54738D01*
X66305Y54428D01*
X66267Y54118D01*
X66113Y53860D01*
X65347Y53343D01*
X65002Y52982D01*
X64772Y52465D01*
X64695Y52000D01*
X66305D01*
G01X67872Y54583D02*
X68102Y54893D01*
X68370Y55048D01*
X68677Y55100D01*
X69060Y54997D01*
X69328Y54738D01*
X69405Y54428D01*
X69367Y54118D01*
X69213Y53860D01*
X68447Y53343D01*
X68102Y52982D01*
X67872Y52465D01*
X67795Y52000D01*
X69405D01*
G01X54000Y50133D02*
X50900D01*
Y51092D01*
X51055Y51398D01*
X51262Y51590D01*
X51675Y51667D01*
X52088Y51590D01*
X52347Y51360D01*
X52502Y51092D01*
Y50133D01*
G01Y51092D02*
X54000Y51667D01*
G01X53380Y53157D02*
X53742Y53387D01*
X53948Y53693D01*
X54000Y54038D01*
X53948Y54345D01*
X53690Y54652D01*
X53380Y54843D01*
X53070Y54882D01*
X52708Y54805D01*
X52450Y54537D01*
X52347Y54268D01*
Y53923D01*
G01Y54268D02*
X52192Y54498D01*
X51933Y54690D01*
X51623Y54767D01*
X51313Y54690D01*
X51055Y54498D01*
X50900Y54153D01*
X50952Y53808D01*
X51158Y53463D01*
G01X53535Y56257D02*
X53793Y56487D01*
X53948Y56755D01*
X54000Y57100D01*
X53897Y57445D01*
X53690Y57713D01*
X53328Y57905D01*
X52915Y57943D01*
X52502Y57867D01*
X52243Y57675D01*
X52037Y57407D01*
X51985Y57138D01*
X52037Y56870D01*
X52243Y56525D01*
X50900Y56640D01*
Y57675D01*
G01X45042Y60000D02*
X46000Y63100D01*
X46958Y60000D01*
G01X46613Y61085D02*
X45387D01*
G01X65243Y69842D02*
X65013Y69997D01*
X64745Y70100D01*
X64438D01*
X64093Y69945D01*
X63825Y69687D01*
X63633Y69377D01*
X63480Y68860D01*
X63442Y68395D01*
X63518Y67930D01*
X63633Y67620D01*
X63863Y67310D01*
X64132Y67103D01*
X64400Y67000D01*
X64668D01*
X64937Y67103D01*
X65167Y67258D01*
X65358Y67465D01*
G01X67500Y67000D02*
Y70100D01*
X67040Y69480D01*
G01Y67000D02*
X67960D01*
G01X70600D02*
Y70100D01*
X70140Y69480D01*
G01Y67000D02*
X71060D01*
G01X54658Y73743D02*
X54503Y73513D01*
X54400Y73245D01*
Y72938D01*
X54555Y72593D01*
X54813Y72325D01*
X55123Y72133D01*
X55640Y71980D01*
X56105Y71942D01*
X56570Y72018D01*
X56880Y72133D01*
X57190Y72363D01*
X57397Y72632D01*
X57500Y72900D01*
Y73168D01*
X57397Y73437D01*
X57242Y73667D01*
X57035Y73858D01*
G01X57500Y76000D02*
X54400D01*
X55020Y75540D01*
G01X57500D02*
Y76460D01*
G01X57035Y78257D02*
X57293Y78487D01*
X57448Y78755D01*
X57500Y79100D01*
X57397Y79445D01*
X57190Y79713D01*
X56828Y79905D01*
X56415Y79943D01*
X56002Y79867D01*
X55743Y79675D01*
X55537Y79407D01*
X55485Y79138D01*
X55537Y78870D01*
X55743Y78525D01*
X54400Y78640D01*
Y79675D01*
G01X63158Y125693D02*
X63003Y125463D01*
X62900Y125195D01*
Y124888D01*
X63055Y124543D01*
X63313Y124275D01*
X63623Y124083D01*
X64140Y123930D01*
X64605Y123892D01*
X65070Y123968D01*
X65380Y124083D01*
X65690Y124313D01*
X65897Y124582D01*
X66000Y124850D01*
Y125118D01*
X65897Y125387D01*
X65742Y125617D01*
X65535Y125808D01*
G01X62900Y127183D02*
X66000D01*
Y128717D01*
G01Y130283D02*
X62900D01*
Y131203D01*
X63055Y131510D01*
X63417Y131740D01*
X63830Y131817D01*
X64243Y131740D01*
X64553Y131548D01*
X64708Y131203D01*
Y130283D01*
G01X66000Y133422D02*
X62900D01*
Y134878D01*
G01X64398Y134342D02*
Y133422D01*
G01X54658Y125693D02*
X54503Y125463D01*
X54400Y125195D01*
Y124888D01*
X54555Y124543D01*
X54813Y124275D01*
X55123Y124083D01*
X55640Y123930D01*
X56105Y123892D01*
X56570Y123968D01*
X56880Y124083D01*
X57190Y124313D01*
X57397Y124582D01*
X57500Y124850D01*
Y125118D01*
X57397Y125387D01*
X57242Y125617D01*
X57035Y125808D01*
G01X54400Y127950D02*
X57500D01*
G01X54400Y127068D02*
Y128832D01*
G01Y130590D02*
Y131510D01*
G01Y131050D02*
X57500D01*
G01Y130590D02*
Y131510D01*
G01Y133192D02*
X54400Y134150D01*
X57500Y135108D01*
G01X56415Y134763D02*
Y133537D01*
G01X53717Y153000D02*
X52183D01*
Y156100D01*
X53717D01*
G01X53103Y154602D02*
X52183D01*
G01X56050Y153000D02*
Y156100D01*
X55590Y155480D01*
G01Y153000D02*
X56510D01*
G01X62633D02*
Y156100D01*
X63592D01*
X63898Y155945D01*
X64090Y155738D01*
X64167Y155325D01*
X64090Y154912D01*
X63860Y154653D01*
X63592Y154498D01*
X62633D01*
G01X63592D02*
X64167Y153000D01*
G01X65657Y153620D02*
X65887Y153258D01*
X66193Y153052D01*
X66538Y153000D01*
X66845Y153052D01*
X67152Y153310D01*
X67343Y153620D01*
X67382Y153930D01*
X67305Y154292D01*
X67037Y154550D01*
X66768Y154653D01*
X66423D01*
G01X66768D02*
X66998Y154808D01*
X67190Y155067D01*
X67267Y155377D01*
X67190Y155687D01*
X66998Y155945D01*
X66653Y156100D01*
X66308Y156048D01*
X65963Y155842D01*
G01X68872Y155583D02*
X69102Y155893D01*
X69370Y156048D01*
X69677Y156100D01*
X70060Y155997D01*
X70328Y155738D01*
X70405Y155428D01*
X70367Y155118D01*
X70213Y154860D01*
X69447Y154343D01*
X69102Y153982D01*
X68872Y153465D01*
X68795Y153000D01*
X70405D01*
G01X46683Y179000D02*
Y182100D01*
X47603D01*
X47910Y181945D01*
X48140Y181583D01*
X48217Y181170D01*
X48140Y180757D01*
X47948Y180447D01*
X47603Y180292D01*
X46683D01*
G01X50550Y179000D02*
X50818Y179052D01*
X51125Y179207D01*
X51317Y179465D01*
X51393Y179827D01*
X51317Y180188D01*
X51087Y180498D01*
X50742Y180653D01*
X50358D01*
X50128Y180757D01*
X49937Y181015D01*
X49860Y181377D01*
X49975Y181738D01*
X50243Y181997D01*
X50550Y182100D01*
X50857Y181997D01*
X51125Y181738D01*
X51240Y181377D01*
X51163Y181015D01*
X50972Y180757D01*
X50742Y180653D01*
X50358D01*
X50013Y180498D01*
X49783Y180188D01*
X49707Y179827D01*
X49783Y179465D01*
X49975Y179207D01*
X50282Y179052D01*
X50550Y179000D01*
G01X53633Y167120D02*
X53825Y166810D01*
X54055Y166603D01*
X54323Y166500D01*
X54630Y166603D01*
X54860Y166810D01*
X55090Y167120D01*
X55167Y167533D01*
Y169600D01*
G01X56733Y166500D02*
Y169600D01*
X57653D01*
X57960Y169445D01*
X58190Y169083D01*
X58267Y168670D01*
X58190Y168257D01*
X57998Y167947D01*
X57653Y167792D01*
X56733D01*
G01X59948Y166862D02*
X60217Y166603D01*
X60523Y166500D01*
X60830Y166603D01*
X61098Y166913D01*
X61290Y167378D01*
X61367Y167843D01*
Y168412D01*
X61290Y168877D01*
X61098Y169290D01*
X60868Y169497D01*
X60600Y169600D01*
X60293Y169497D01*
X60063Y169290D01*
X59910Y168980D01*
X59833Y168567D01*
X59910Y168205D01*
X60102Y167843D01*
X60332Y167637D01*
X60600Y167585D01*
X60907Y167688D01*
X61137Y167947D01*
X61367Y168412D01*
G01X63583Y167120D02*
X63775Y166810D01*
X64005Y166603D01*
X64273Y166500D01*
X64580Y166603D01*
X64810Y166810D01*
X65040Y167120D01*
X65117Y167533D01*
Y169600D01*
G01X66683Y166500D02*
Y169600D01*
X67603D01*
X67910Y169445D01*
X68140Y169083D01*
X68217Y168670D01*
X68140Y168257D01*
X67948Y167947D01*
X67603Y167792D01*
X66683D01*
G01X70550Y166500D02*
Y169600D01*
X70090Y168980D01*
G01Y166500D02*
X71010D01*
G01X73650Y169600D02*
X73343Y169497D01*
X73113Y169238D01*
X72960Y168928D01*
X72845Y168515D01*
X72807Y168050D01*
X72845Y167585D01*
X72960Y167172D01*
X73113Y166862D01*
X73343Y166603D01*
X73650Y166500D01*
X73957Y166603D01*
X74187Y166862D01*
X74340Y167172D01*
X74455Y167585D01*
X74493Y168050D01*
X74455Y168515D01*
X74340Y168928D01*
X74187Y169238D01*
X73957Y169497D01*
X73650Y169600D01*
G01X83093Y14842D02*
X82863Y14997D01*
X82595Y15100D01*
X82288D01*
X81943Y14945D01*
X81675Y14687D01*
X81483Y14377D01*
X81330Y13860D01*
X81292Y13395D01*
X81368Y12930D01*
X81483Y12620D01*
X81713Y12310D01*
X81982Y12103D01*
X82250Y12000D01*
X82518D01*
X82787Y12103D01*
X83017Y12258D01*
X83208Y12465D01*
G01X84622Y14583D02*
X84852Y14893D01*
X85120Y15048D01*
X85427Y15100D01*
X85810Y14997D01*
X86078Y14738D01*
X86155Y14428D01*
X86117Y14118D01*
X85963Y13860D01*
X85197Y13343D01*
X84852Y12982D01*
X84622Y12465D01*
X84545Y12000D01*
X86155D01*
G01X87607Y12465D02*
X87837Y12207D01*
X88105Y12052D01*
X88450Y12000D01*
X88795Y12103D01*
X89063Y12310D01*
X89255Y12672D01*
X89293Y13085D01*
X89217Y13498D01*
X89025Y13757D01*
X88757Y13963D01*
X88488Y14015D01*
X88220Y13963D01*
X87875Y13757D01*
X87990Y15100D01*
X89025D01*
G01X70107Y21100D02*
Y18878D01*
X70260Y18413D01*
X70567Y18103D01*
X70950Y18000D01*
X71333Y18103D01*
X71640Y18413D01*
X71793Y18878D01*
Y21100D01*
G01X73207Y18465D02*
X73437Y18207D01*
X73705Y18052D01*
X74050Y18000D01*
X74395Y18103D01*
X74663Y18310D01*
X74855Y18672D01*
X74893Y19085D01*
X74817Y19498D01*
X74625Y19757D01*
X74357Y19963D01*
X74088Y20015D01*
X73820Y19963D01*
X73475Y19757D01*
X73590Y21100D01*
X74625D01*
G01X77243Y54842D02*
X77013Y54997D01*
X76745Y55100D01*
X76438D01*
X76093Y54945D01*
X75825Y54687D01*
X75633Y54377D01*
X75480Y53860D01*
X75442Y53395D01*
X75518Y52930D01*
X75633Y52620D01*
X75863Y52310D01*
X76132Y52103D01*
X76400Y52000D01*
X76668D01*
X76937Y52103D01*
X77167Y52258D01*
X77358Y52465D01*
G01X78772Y54583D02*
X79002Y54893D01*
X79270Y55048D01*
X79577Y55100D01*
X79960Y54997D01*
X80228Y54738D01*
X80305Y54428D01*
X80267Y54118D01*
X80113Y53860D01*
X79347Y53343D01*
X79002Y52982D01*
X78772Y52465D01*
X78695Y52000D01*
X80305D01*
G01X83060D02*
Y55100D01*
X81642Y52878D01*
X83558D01*
G01X75893Y98980D02*
X75663Y99135D01*
X75395Y99238D01*
X75088D01*
X74743Y99083D01*
X74475Y98825D01*
X74283Y98515D01*
X74130Y97998D01*
X74092Y97533D01*
X74168Y97068D01*
X74283Y96758D01*
X74513Y96448D01*
X74782Y96241D01*
X75050Y96138D01*
X75318D01*
X75587Y96241D01*
X75817Y96396D01*
X76008Y96603D01*
G01X78150Y96138D02*
Y99238D01*
X77690Y98618D01*
G01Y96138D02*
X78610D01*
G01X81250Y99238D02*
X80943Y99135D01*
X80713Y98876D01*
X80560Y98566D01*
X80445Y98153D01*
X80407Y97688D01*
X80445Y97223D01*
X80560Y96810D01*
X80713Y96500D01*
X80943Y96241D01*
X81250Y96138D01*
X81557Y96241D01*
X81787Y96500D01*
X81940Y96810D01*
X82055Y97223D01*
X82093Y97688D01*
X82055Y98153D01*
X81940Y98566D01*
X81787Y98876D01*
X81557Y99135D01*
X81250Y99238D01*
G01X67450Y95500D02*
Y96895D01*
X66683Y98600D01*
G01X68217D02*
X67450Y96895D01*
G01X70550Y95500D02*
Y98600D01*
X70090Y97980D01*
G01Y95500D02*
X71010D01*
G01X73783Y116863D02*
Y119963D01*
X74742D01*
X75048Y119808D01*
X75240Y119601D01*
X75317Y119188D01*
X75240Y118775D01*
X75010Y118516D01*
X74742Y118361D01*
X73783D01*
G01X74742D02*
X75317Y116863D01*
G01X76807Y117483D02*
X77037Y117121D01*
X77343Y116915D01*
X77688Y116863D01*
X77995Y116915D01*
X78302Y117173D01*
X78493Y117483D01*
X78532Y117793D01*
X78455Y118155D01*
X78187Y118413D01*
X77918Y118516D01*
X77573D01*
G01X77918D02*
X78148Y118671D01*
X78340Y118930D01*
X78417Y119240D01*
X78340Y119550D01*
X78148Y119808D01*
X77803Y119963D01*
X77458Y119911D01*
X77113Y119705D01*
G01X80022Y118155D02*
X80290Y118516D01*
X80520Y118723D01*
X80827Y118826D01*
X81095Y118723D01*
X81287Y118516D01*
X81440Y118206D01*
X81478Y117845D01*
X81440Y117535D01*
X81287Y117225D01*
X81057Y116966D01*
X80788Y116863D01*
X80482Y116966D01*
X80213Y117276D01*
X80060Y117741D01*
X80022Y118258D01*
X80098Y118930D01*
X80213Y119291D01*
X80405Y119653D01*
X80673Y119911D01*
X80942Y119963D01*
X81210Y119860D01*
X81402Y119601D01*
G01X82500Y129833D02*
Y132933D01*
X82040Y132313D01*
G01Y129833D02*
X82960D01*
G01X81272Y152916D02*
X81502Y153226D01*
X81770Y153381D01*
X82077Y153433D01*
X82460Y153330D01*
X82728Y153071D01*
X82805Y152761D01*
X82767Y152451D01*
X82613Y152193D01*
X81847Y151676D01*
X81502Y151315D01*
X81272Y150798D01*
X81195Y150333D01*
X82805D01*
G01X74158Y155243D02*
X74003Y155013D01*
X73900Y154745D01*
Y154438D01*
X74055Y154093D01*
X74313Y153825D01*
X74623Y153633D01*
X75140Y153480D01*
X75605Y153442D01*
X76070Y153518D01*
X76380Y153633D01*
X76690Y153863D01*
X76897Y154132D01*
X77000Y154400D01*
Y154668D01*
X76897Y154937D01*
X76742Y155167D01*
X76535Y155358D01*
G01X76380Y156657D02*
X76742Y156887D01*
X76948Y157193D01*
X77000Y157538D01*
X76948Y157845D01*
X76690Y158152D01*
X76380Y158343D01*
X76070Y158382D01*
X75708Y158305D01*
X75450Y158037D01*
X75347Y157768D01*
Y157423D01*
G01Y157768D02*
X75192Y157998D01*
X74933Y158190D01*
X74623Y158267D01*
X74313Y158190D01*
X74055Y157998D01*
X73900Y157653D01*
X73952Y157308D01*
X74158Y156963D01*
G01X77000Y160600D02*
X73900D01*
X74520Y160140D01*
G01X77000D02*
Y161060D01*
G01X76083Y167120D02*
X76275Y166810D01*
X76505Y166603D01*
X76773Y166500D01*
X77080Y166603D01*
X77310Y166810D01*
X77540Y167120D01*
X77617Y167533D01*
Y169600D01*
G01X79183Y166500D02*
Y169600D01*
X80103D01*
X80410Y169445D01*
X80640Y169083D01*
X80717Y168670D01*
X80640Y168257D01*
X80448Y167947D01*
X80103Y167792D01*
X79183D01*
G01X83050Y166500D02*
Y169600D01*
X82590Y168980D01*
G01Y166500D02*
X83510D01*
G01X86150D02*
Y169600D01*
X85690Y168980D01*
G01Y166500D02*
X86610D01*
G01X87683Y7500D02*
Y10600D01*
X88603D01*
X88910Y10445D01*
X89140Y10083D01*
X89217Y9670D01*
X89140Y9257D01*
X88948Y8947D01*
X88603Y8792D01*
X87683D01*
G01X90707Y7965D02*
X90937Y7707D01*
X91205Y7552D01*
X91550Y7500D01*
X91895Y7603D01*
X92163Y7810D01*
X92355Y8172D01*
X92393Y8585D01*
X92317Y8998D01*
X92125Y9257D01*
X91857Y9463D01*
X91588Y9515D01*
X91320Y9463D01*
X90975Y9257D01*
X91090Y10600D01*
X92125D01*
G01X97743Y19342D02*
X97513Y19497D01*
X97245Y19600D01*
X96938D01*
X96593Y19445D01*
X96325Y19187D01*
X96133Y18877D01*
X95980Y18360D01*
X95942Y17895D01*
X96018Y17430D01*
X96133Y17120D01*
X96363Y16810D01*
X96632Y16603D01*
X96900Y16500D01*
X97168D01*
X97437Y16603D01*
X97667Y16758D01*
X97858Y16965D01*
G01X99272Y17792D02*
X99540Y18153D01*
X99770Y18360D01*
X100077Y18463D01*
X100345Y18360D01*
X100537Y18153D01*
X100690Y17843D01*
X100728Y17482D01*
X100690Y17172D01*
X100537Y16862D01*
X100307Y16603D01*
X100038Y16500D01*
X99732Y16603D01*
X99463Y16913D01*
X99310Y17378D01*
X99272Y17895D01*
X99348Y18567D01*
X99463Y18928D01*
X99655Y19290D01*
X99923Y19548D01*
X100192Y19600D01*
X100460Y19497D01*
X100652Y19238D01*
G01X103100Y16500D02*
Y19600D01*
X102640Y18980D01*
G01Y16500D02*
X103560D01*
G01X91658Y24243D02*
X91503Y24013D01*
X91400Y23745D01*
Y23438D01*
X91555Y23093D01*
X91813Y22825D01*
X92123Y22633D01*
X92640Y22480D01*
X93105Y22442D01*
X93570Y22518D01*
X93880Y22633D01*
X94190Y22863D01*
X94397Y23132D01*
X94500Y23400D01*
Y23668D01*
X94397Y23937D01*
X94242Y24167D01*
X94035Y24358D01*
G01X93208Y25772D02*
X92847Y26040D01*
X92640Y26270D01*
X92537Y26577D01*
X92640Y26845D01*
X92847Y27037D01*
X93157Y27190D01*
X93518Y27228D01*
X93828Y27190D01*
X94138Y27037D01*
X94397Y26807D01*
X94500Y26538D01*
X94397Y26232D01*
X94087Y25963D01*
X93622Y25810D01*
X93105Y25772D01*
X92433Y25848D01*
X92072Y25963D01*
X91710Y26155D01*
X91452Y26423D01*
X91400Y26692D01*
X91503Y26960D01*
X91762Y27152D01*
G01X91917Y28872D02*
X91607Y29102D01*
X91452Y29370D01*
X91400Y29677D01*
X91503Y30060D01*
X91762Y30328D01*
X92072Y30405D01*
X92382Y30367D01*
X92640Y30213D01*
X93157Y29447D01*
X93518Y29102D01*
X94035Y28872D01*
X94500Y28795D01*
Y30405D01*
G01X98607Y42600D02*
Y40378D01*
X98760Y39913D01*
X99067Y39603D01*
X99450Y39500D01*
X99833Y39603D01*
X100140Y39913D01*
X100293Y40378D01*
Y42600D01*
G01X102550Y39500D02*
X102818Y39552D01*
X103125Y39707D01*
X103317Y39965D01*
X103393Y40327D01*
X103317Y40688D01*
X103087Y40998D01*
X102742Y41153D01*
X102358D01*
X102128Y41257D01*
X101937Y41515D01*
X101860Y41877D01*
X101975Y42238D01*
X102243Y42497D01*
X102550Y42600D01*
X102857Y42497D01*
X103125Y42238D01*
X103240Y41877D01*
X103163Y41515D01*
X102972Y41257D01*
X102742Y41153D01*
X102358D01*
X102013Y40998D01*
X101783Y40688D01*
X101707Y40327D01*
X101783Y39965D01*
X101975Y39707D01*
X102282Y39552D01*
X102550Y39500D01*
G01X97743Y48842D02*
X97513Y48997D01*
X97245Y49100D01*
X96938D01*
X96593Y48945D01*
X96325Y48687D01*
X96133Y48377D01*
X95980Y47860D01*
X95942Y47395D01*
X96018Y46930D01*
X96133Y46620D01*
X96363Y46310D01*
X96632Y46103D01*
X96900Y46000D01*
X97168D01*
X97437Y46103D01*
X97667Y46258D01*
X97858Y46465D01*
G01X99272Y47292D02*
X99540Y47653D01*
X99770Y47860D01*
X100077Y47963D01*
X100345Y47860D01*
X100537Y47653D01*
X100690Y47343D01*
X100728Y46982D01*
X100690Y46672D01*
X100537Y46362D01*
X100307Y46103D01*
X100038Y46000D01*
X99732Y46103D01*
X99463Y46413D01*
X99310Y46878D01*
X99272Y47395D01*
X99348Y48067D01*
X99463Y48428D01*
X99655Y48790D01*
X99923Y49048D01*
X100192Y49100D01*
X100460Y48997D01*
X100652Y48738D01*
G01X103100Y49100D02*
X102793Y48997D01*
X102563Y48738D01*
X102410Y48428D01*
X102295Y48015D01*
X102257Y47550D01*
X102295Y47085D01*
X102410Y46672D01*
X102563Y46362D01*
X102793Y46103D01*
X103100Y46000D01*
X103407Y46103D01*
X103637Y46362D01*
X103790Y46672D01*
X103905Y47085D01*
X103943Y47550D01*
X103905Y48015D01*
X103790Y48428D01*
X103637Y48738D01*
X103407Y48997D01*
X103100Y49100D01*
G01X106158Y56743D02*
X106003Y56513D01*
X105900Y56245D01*
Y55938D01*
X106055Y55593D01*
X106313Y55325D01*
X106623Y55133D01*
X107140Y54980D01*
X107605Y54942D01*
X108070Y55018D01*
X108380Y55133D01*
X108690Y55363D01*
X108897Y55632D01*
X109000Y55900D01*
Y56168D01*
X108897Y56437D01*
X108742Y56667D01*
X108535Y56858D01*
G01X109000Y59000D02*
X105900D01*
X106520Y58540D01*
G01X109000D02*
Y59460D01*
G01X108380Y61257D02*
X108742Y61487D01*
X108948Y61793D01*
X109000Y62138D01*
X108948Y62445D01*
X108690Y62752D01*
X108380Y62943D01*
X108070Y62982D01*
X107708Y62905D01*
X107450Y62637D01*
X107347Y62368D01*
Y62023D01*
G01Y62368D02*
X107192Y62598D01*
X106933Y62790D01*
X106623Y62867D01*
X106313Y62790D01*
X106055Y62598D01*
X105900Y62253D01*
X105952Y61908D01*
X106158Y61563D01*
G01X96658Y56243D02*
X96503Y56013D01*
X96400Y55745D01*
Y55438D01*
X96555Y55093D01*
X96813Y54825D01*
X97123Y54633D01*
X97640Y54480D01*
X98105Y54442D01*
X98570Y54518D01*
X98880Y54633D01*
X99190Y54863D01*
X99397Y55132D01*
X99500Y55400D01*
Y55668D01*
X99397Y55937D01*
X99242Y56167D01*
X99035Y56358D01*
G01X99500Y58500D02*
X96400D01*
X97020Y58040D01*
G01X99500D02*
Y58960D01*
G01X98208Y60872D02*
X97847Y61140D01*
X97640Y61370D01*
X97537Y61677D01*
X97640Y61945D01*
X97847Y62137D01*
X98157Y62290D01*
X98518Y62328D01*
X98828Y62290D01*
X99138Y62137D01*
X99397Y61907D01*
X99500Y61638D01*
X99397Y61332D01*
X99087Y61063D01*
X98622Y60910D01*
X98105Y60872D01*
X97433Y60948D01*
X97072Y61063D01*
X96710Y61255D01*
X96452Y61523D01*
X96400Y61792D01*
X96503Y62060D01*
X96762Y62252D01*
G01X88658Y56243D02*
X88503Y56013D01*
X88400Y55745D01*
Y55438D01*
X88555Y55093D01*
X88813Y54825D01*
X89123Y54633D01*
X89640Y54480D01*
X90105Y54442D01*
X90570Y54518D01*
X90880Y54633D01*
X91190Y54863D01*
X91397Y55132D01*
X91500Y55400D01*
Y55668D01*
X91397Y55937D01*
X91242Y56167D01*
X91035Y56358D01*
G01X91500Y58500D02*
X88400D01*
X89020Y58040D01*
G01X91500D02*
Y58960D01*
G01Y61523D02*
X90828Y61600D01*
X90260Y61715D01*
X89743Y61868D01*
X89175Y62060D01*
X88400Y62367D01*
Y60833D01*
G01X97107Y84600D02*
Y82378D01*
X97260Y81913D01*
X97567Y81603D01*
X97950Y81500D01*
X98333Y81603D01*
X98640Y81913D01*
X98793Y82378D01*
Y84600D01*
G01X100207Y82120D02*
X100437Y81758D01*
X100743Y81552D01*
X101088Y81500D01*
X101395Y81552D01*
X101702Y81810D01*
X101893Y82120D01*
X101932Y82430D01*
X101855Y82792D01*
X101587Y83050D01*
X101318Y83153D01*
X100973D01*
G01X101318D02*
X101548Y83308D01*
X101740Y83567D01*
X101817Y83877D01*
X101740Y84187D01*
X101548Y84445D01*
X101203Y84600D01*
X100858Y84548D01*
X100513Y84342D01*
G01X93658Y108243D02*
X93503Y108013D01*
X93400Y107745D01*
Y107438D01*
X93555Y107093D01*
X93813Y106825D01*
X94123Y106633D01*
X94640Y106480D01*
X95105Y106442D01*
X95570Y106518D01*
X95880Y106633D01*
X96190Y106863D01*
X96397Y107132D01*
X96500Y107400D01*
Y107668D01*
X96397Y107937D01*
X96242Y108167D01*
X96035Y108358D01*
G01X96500Y110500D02*
X93400D01*
X94020Y110040D01*
G01X96500D02*
Y110960D01*
G01Y113600D02*
X96448Y113868D01*
X96293Y114175D01*
X96035Y114367D01*
X95673Y114443D01*
X95312Y114367D01*
X95002Y114137D01*
X94847Y113792D01*
Y113408D01*
X94743Y113178D01*
X94485Y112987D01*
X94123Y112910D01*
X93762Y113025D01*
X93503Y113293D01*
X93400Y113600D01*
X93503Y113907D01*
X93762Y114175D01*
X94123Y114290D01*
X94485Y114213D01*
X94743Y114022D01*
X94847Y113792D01*
Y113408D01*
X95002Y113063D01*
X95312Y112833D01*
X95673Y112757D01*
X96035Y112833D01*
X96293Y113025D01*
X96448Y113332D01*
X96500Y113600D01*
G01X88158Y108243D02*
X88003Y108013D01*
X87900Y107745D01*
Y107438D01*
X88055Y107093D01*
X88313Y106825D01*
X88623Y106633D01*
X89140Y106480D01*
X89605Y106442D01*
X90070Y106518D01*
X90380Y106633D01*
X90690Y106863D01*
X90897Y107132D01*
X91000Y107400D01*
Y107668D01*
X90897Y107937D01*
X90742Y108167D01*
X90535Y108358D01*
G01X91000Y110500D02*
X87900D01*
X88520Y110040D01*
G01X91000D02*
Y110960D01*
G01X90638Y112948D02*
X90897Y113217D01*
X91000Y113523D01*
X90897Y113830D01*
X90587Y114098D01*
X90122Y114290D01*
X89657Y114367D01*
X89088D01*
X88623Y114290D01*
X88210Y114098D01*
X88003Y113868D01*
X87900Y113600D01*
X88003Y113293D01*
X88210Y113063D01*
X88520Y112910D01*
X88933Y112833D01*
X89295Y112910D01*
X89657Y113102D01*
X89863Y113332D01*
X89915Y113600D01*
X89812Y113907D01*
X89553Y114137D01*
X89088Y114367D01*
G01X100658Y108243D02*
X100503Y108013D01*
X100400Y107745D01*
Y107438D01*
X100555Y107093D01*
X100813Y106825D01*
X101123Y106633D01*
X101640Y106480D01*
X102105Y106442D01*
X102570Y106518D01*
X102880Y106633D01*
X103190Y106863D01*
X103397Y107132D01*
X103500Y107400D01*
Y107668D01*
X103397Y107937D01*
X103242Y108167D01*
X103035Y108358D01*
G01X103500Y110500D02*
X100400D01*
X101020Y110040D01*
G01X103500D02*
Y110960D01*
G01Y114060D02*
X100400D01*
X102622Y112642D01*
Y114558D01*
G01X101500Y167683D02*
X98400D01*
Y168603D01*
X98555Y168910D01*
X98917Y169140D01*
X99330Y169217D01*
X99743Y169140D01*
X100053Y168948D01*
X100208Y168603D01*
Y167683D01*
G01X101500Y171473D02*
X100828Y171550D01*
X100260Y171665D01*
X99743Y171818D01*
X99175Y172010D01*
X98400Y172317D01*
Y170783D01*
G01X125000Y7000D02*
X125268Y7052D01*
X125575Y7207D01*
X125767Y7465D01*
X125843Y7827D01*
X125767Y8188D01*
X125537Y8498D01*
X125192Y8653D01*
X124808D01*
X124578Y8757D01*
X124387Y9015D01*
X124310Y9377D01*
X124425Y9738D01*
X124693Y9997D01*
X125000Y10100D01*
X125307Y9997D01*
X125575Y9738D01*
X125690Y9377D01*
X125613Y9015D01*
X125422Y8757D01*
X125192Y8653D01*
X124808D01*
X124463Y8498D01*
X124233Y8188D01*
X124157Y7827D01*
X124233Y7465D01*
X124425Y7207D01*
X124732Y7052D01*
X125000Y7000D01*
G01X126658Y19743D02*
X126503Y19513D01*
X126400Y19245D01*
Y18938D01*
X126555Y18593D01*
X126813Y18325D01*
X127123Y18133D01*
X127640Y17980D01*
X128105Y17942D01*
X128570Y18018D01*
X128880Y18133D01*
X129190Y18363D01*
X129397Y18632D01*
X129500Y18900D01*
Y19168D01*
X129397Y19437D01*
X129242Y19667D01*
X129035Y19858D01*
G01X128208Y21272D02*
X127847Y21540D01*
X127640Y21770D01*
X127537Y22077D01*
X127640Y22345D01*
X127847Y22537D01*
X128157Y22690D01*
X128518Y22728D01*
X128828Y22690D01*
X129138Y22537D01*
X129397Y22307D01*
X129500Y22038D01*
X129397Y21732D01*
X129087Y21463D01*
X128622Y21310D01*
X128105Y21272D01*
X127433Y21348D01*
X127072Y21463D01*
X126710Y21655D01*
X126452Y21923D01*
X126400Y22192D01*
X126503Y22460D01*
X126762Y22652D01*
G01X129500Y25560D02*
X126400D01*
X128622Y24142D01*
Y26058D01*
G01X122042Y38500D02*
X123000Y41600D01*
X123958Y38500D01*
G01X123613Y39585D02*
X122387D01*
G01X112158Y56743D02*
X112003Y56513D01*
X111900Y56245D01*
Y55938D01*
X112055Y55593D01*
X112313Y55325D01*
X112623Y55133D01*
X113140Y54980D01*
X113605Y54942D01*
X114070Y55018D01*
X114380Y55133D01*
X114690Y55363D01*
X114897Y55632D01*
X115000Y55900D01*
Y56168D01*
X114897Y56437D01*
X114742Y56667D01*
X114535Y56858D01*
G01X115000Y59000D02*
X111900D01*
X112520Y58540D01*
G01X115000D02*
Y59460D01*
G01X112417Y61372D02*
X112107Y61602D01*
X111952Y61870D01*
X111900Y62177D01*
X112003Y62560D01*
X112262Y62828D01*
X112572Y62905D01*
X112882Y62867D01*
X113140Y62713D01*
X113657Y61947D01*
X114018Y61602D01*
X114535Y61372D01*
X115000Y61295D01*
Y62905D01*
G01X125133Y44120D02*
X125325Y43810D01*
X125555Y43603D01*
X125823Y43500D01*
X126130Y43603D01*
X126360Y43810D01*
X126590Y44120D01*
X126667Y44533D01*
Y46600D01*
G01X128233Y43500D02*
Y46600D01*
X129153D01*
X129460Y46445D01*
X129690Y46083D01*
X129767Y45670D01*
X129690Y45257D01*
X129498Y44947D01*
X129153Y44792D01*
X128233D01*
G01X131257Y43965D02*
X131487Y43707D01*
X131755Y43552D01*
X132100Y43500D01*
X132445Y43603D01*
X132713Y43810D01*
X132905Y44172D01*
X132943Y44585D01*
X132867Y44998D01*
X132675Y45257D01*
X132407Y45463D01*
X132138Y45515D01*
X131870Y45463D01*
X131525Y45257D01*
X131640Y46600D01*
X132675D01*
G01X116133Y55500D02*
Y58600D01*
X117092D01*
X117398Y58445D01*
X117590Y58238D01*
X117667Y57825D01*
X117590Y57412D01*
X117360Y57153D01*
X117092Y56998D01*
X116133D01*
G01X117092D02*
X117667Y55500D01*
G01X119272Y58083D02*
X119502Y58393D01*
X119770Y58548D01*
X120077Y58600D01*
X120460Y58497D01*
X120728Y58238D01*
X120805Y57928D01*
X120767Y57618D01*
X120613Y57360D01*
X119847Y56843D01*
X119502Y56482D01*
X119272Y55965D01*
X119195Y55500D01*
X120805D01*
G01X123023D02*
X123100Y56172D01*
X123215Y56740D01*
X123368Y57257D01*
X123560Y57825D01*
X123867Y58600D01*
X122333D01*
G01X120293Y64842D02*
X120063Y64997D01*
X119795Y65100D01*
X119488D01*
X119143Y64945D01*
X118875Y64687D01*
X118683Y64377D01*
X118530Y63860D01*
X118492Y63395D01*
X118568Y62930D01*
X118683Y62620D01*
X118913Y62310D01*
X119182Y62103D01*
X119450Y62000D01*
X119718D01*
X119987Y62103D01*
X120217Y62258D01*
X120408Y62465D01*
G01X122550Y62000D02*
Y65100D01*
X122090Y64480D01*
G01Y62000D02*
X123010D01*
G01X120293Y73842D02*
X120063Y73997D01*
X119795Y74100D01*
X119488D01*
X119143Y73945D01*
X118875Y73687D01*
X118683Y73377D01*
X118530Y72860D01*
X118492Y72395D01*
X118568Y71930D01*
X118683Y71620D01*
X118913Y71310D01*
X119182Y71103D01*
X119450Y71000D01*
X119718D01*
X119987Y71103D01*
X120217Y71258D01*
X120408Y71465D01*
G01X121822Y73583D02*
X122052Y73893D01*
X122320Y74048D01*
X122627Y74100D01*
X123010Y73997D01*
X123278Y73738D01*
X123355Y73428D01*
X123317Y73118D01*
X123163Y72860D01*
X122397Y72343D01*
X122052Y71982D01*
X121822Y71465D01*
X121745Y71000D01*
X123355D01*
G01X120293Y82842D02*
X120063Y82997D01*
X119795Y83100D01*
X119488D01*
X119143Y82945D01*
X118875Y82687D01*
X118683Y82377D01*
X118530Y81860D01*
X118492Y81395D01*
X118568Y80930D01*
X118683Y80620D01*
X118913Y80310D01*
X119182Y80103D01*
X119450Y80000D01*
X119718D01*
X119987Y80103D01*
X120217Y80258D01*
X120408Y80465D01*
G01X121707Y80620D02*
X121937Y80258D01*
X122243Y80052D01*
X122588Y80000D01*
X122895Y80052D01*
X123202Y80310D01*
X123393Y80620D01*
X123432Y80930D01*
X123355Y81292D01*
X123087Y81550D01*
X122818Y81653D01*
X122473D01*
G01X122818D02*
X123048Y81808D01*
X123240Y82067D01*
X123317Y82377D01*
X123240Y82687D01*
X123048Y82945D01*
X122703Y83100D01*
X122358Y83048D01*
X122013Y82842D01*
G01X120293Y91342D02*
X120063Y91497D01*
X119795Y91600D01*
X119488D01*
X119143Y91445D01*
X118875Y91187D01*
X118683Y90877D01*
X118530Y90360D01*
X118492Y89895D01*
X118568Y89430D01*
X118683Y89120D01*
X118913Y88810D01*
X119182Y88603D01*
X119450Y88500D01*
X119718D01*
X119987Y88603D01*
X120217Y88758D01*
X120408Y88965D01*
G01X123010Y88500D02*
Y91600D01*
X121592Y89378D01*
X123508D01*
G01X120293Y99842D02*
X120063Y99997D01*
X119795Y100100D01*
X119488D01*
X119143Y99945D01*
X118875Y99687D01*
X118683Y99377D01*
X118530Y98860D01*
X118492Y98395D01*
X118568Y97930D01*
X118683Y97620D01*
X118913Y97310D01*
X119182Y97103D01*
X119450Y97000D01*
X119718D01*
X119987Y97103D01*
X120217Y97258D01*
X120408Y97465D01*
G01X121707D02*
X121937Y97207D01*
X122205Y97052D01*
X122550Y97000D01*
X122895Y97103D01*
X123163Y97310D01*
X123355Y97672D01*
X123393Y98085D01*
X123317Y98498D01*
X123125Y98757D01*
X122857Y98963D01*
X122588Y99015D01*
X122320Y98963D01*
X121975Y98757D01*
X122090Y100100D01*
X123125D01*
G01X108158Y110793D02*
X108003Y110563D01*
X107900Y110295D01*
Y109988D01*
X108055Y109643D01*
X108313Y109375D01*
X108623Y109183D01*
X109140Y109030D01*
X109605Y108992D01*
X110070Y109068D01*
X110380Y109183D01*
X110690Y109413D01*
X110897Y109682D01*
X111000Y109950D01*
Y110218D01*
X110897Y110487D01*
X110742Y110717D01*
X110535Y110908D01*
G01X110638Y112398D02*
X110897Y112667D01*
X111000Y112973D01*
X110897Y113280D01*
X110587Y113548D01*
X110122Y113740D01*
X109657Y113817D01*
X109088D01*
X108623Y113740D01*
X108210Y113548D01*
X108003Y113318D01*
X107900Y113050D01*
X108003Y112743D01*
X108210Y112513D01*
X108520Y112360D01*
X108933Y112283D01*
X109295Y112360D01*
X109657Y112552D01*
X109863Y112782D01*
X109915Y113050D01*
X109812Y113357D01*
X109553Y113587D01*
X109088Y113817D01*
G01X120293Y107842D02*
X120063Y107997D01*
X119795Y108100D01*
X119488D01*
X119143Y107945D01*
X118875Y107687D01*
X118683Y107377D01*
X118530Y106860D01*
X118492Y106395D01*
X118568Y105930D01*
X118683Y105620D01*
X118913Y105310D01*
X119182Y105103D01*
X119450Y105000D01*
X119718D01*
X119987Y105103D01*
X120217Y105258D01*
X120408Y105465D01*
G01X121822Y106292D02*
X122090Y106653D01*
X122320Y106860D01*
X122627Y106963D01*
X122895Y106860D01*
X123087Y106653D01*
X123240Y106343D01*
X123278Y105982D01*
X123240Y105672D01*
X123087Y105362D01*
X122857Y105103D01*
X122588Y105000D01*
X122282Y105103D01*
X122013Y105413D01*
X121860Y105878D01*
X121822Y106395D01*
X121898Y107067D01*
X122013Y107428D01*
X122205Y107790D01*
X122473Y108048D01*
X122742Y108100D01*
X123010Y107997D01*
X123202Y107738D01*
G01X120293Y115842D02*
X120063Y115997D01*
X119795Y116100D01*
X119488D01*
X119143Y115945D01*
X118875Y115687D01*
X118683Y115377D01*
X118530Y114860D01*
X118492Y114395D01*
X118568Y113930D01*
X118683Y113620D01*
X118913Y113310D01*
X119182Y113103D01*
X119450Y113000D01*
X119718D01*
X119987Y113103D01*
X120217Y113258D01*
X120408Y113465D01*
G01X122473Y113000D02*
X122550Y113672D01*
X122665Y114240D01*
X122818Y114757D01*
X123010Y115325D01*
X123317Y116100D01*
X121783D01*
G01X126042Y142500D02*
X127000Y145600D01*
X127958Y142500D01*
G01X127613Y143585D02*
X126387D01*
G01X115683Y129000D02*
Y132100D01*
X116603D01*
X116910Y131945D01*
X117140Y131583D01*
X117217Y131170D01*
X117140Y130757D01*
X116948Y130447D01*
X116603Y130292D01*
X115683D01*
G01X118707Y129620D02*
X118937Y129258D01*
X119243Y129052D01*
X119588Y129000D01*
X119895Y129052D01*
X120202Y129310D01*
X120393Y129620D01*
X120432Y129930D01*
X120355Y130292D01*
X120087Y130550D01*
X119818Y130653D01*
X119473D01*
G01X119818D02*
X120048Y130808D01*
X120240Y131067D01*
X120317Y131377D01*
X120240Y131687D01*
X120048Y131945D01*
X119703Y132100D01*
X119358Y132048D01*
X119013Y131842D01*
G01X120293Y124842D02*
X120063Y124997D01*
X119795Y125100D01*
X119488D01*
X119143Y124945D01*
X118875Y124687D01*
X118683Y124377D01*
X118530Y123860D01*
X118492Y123395D01*
X118568Y122930D01*
X118683Y122620D01*
X118913Y122310D01*
X119182Y122103D01*
X119450Y122000D01*
X119718D01*
X119987Y122103D01*
X120217Y122258D01*
X120408Y122465D01*
G01X122550Y122000D02*
X122818Y122052D01*
X123125Y122207D01*
X123317Y122465D01*
X123393Y122827D01*
X123317Y123188D01*
X123087Y123498D01*
X122742Y123653D01*
X122358D01*
X122128Y123757D01*
X121937Y124015D01*
X121860Y124377D01*
X121975Y124738D01*
X122243Y124997D01*
X122550Y125100D01*
X122857Y124997D01*
X123125Y124738D01*
X123240Y124377D01*
X123163Y124015D01*
X122972Y123757D01*
X122742Y123653D01*
X122358D01*
X122013Y123498D01*
X121783Y123188D01*
X121707Y122827D01*
X121783Y122465D01*
X121975Y122207D01*
X122282Y122052D01*
X122550Y122000D01*
G01X127133Y128957D02*
Y132057D01*
X128092D01*
X128398Y131902D01*
X128590Y131695D01*
X128667Y131282D01*
X128590Y130869D01*
X128360Y130610D01*
X128092Y130455D01*
X127133D01*
G01X128092D02*
X128667Y128957D01*
G01X130272Y131540D02*
X130502Y131850D01*
X130770Y132005D01*
X131077Y132057D01*
X131460Y131954D01*
X131728Y131695D01*
X131805Y131385D01*
X131767Y131075D01*
X131613Y130817D01*
X130847Y130300D01*
X130502Y129939D01*
X130272Y129422D01*
X130195Y128957D01*
X131805D01*
G01X134100D02*
X134368Y129009D01*
X134675Y129164D01*
X134867Y129422D01*
X134943Y129784D01*
X134867Y130145D01*
X134637Y130455D01*
X134292Y130610D01*
X133908D01*
X133678Y130714D01*
X133487Y130972D01*
X133410Y131334D01*
X133525Y131695D01*
X133793Y131954D01*
X134100Y132057D01*
X134407Y131954D01*
X134675Y131695D01*
X134790Y131334D01*
X134713Y130972D01*
X134522Y130714D01*
X134292Y130610D01*
X133908D01*
X133563Y130455D01*
X133333Y130145D01*
X133257Y129784D01*
X133333Y129422D01*
X133525Y129164D01*
X133832Y129009D01*
X134100Y128957D01*
G01X115950Y150333D02*
Y153433D01*
X115490Y152813D01*
G01Y150333D02*
X116410D01*
G01X118322Y151625D02*
X118590Y151986D01*
X118820Y152193D01*
X119127Y152296D01*
X119395Y152193D01*
X119587Y151986D01*
X119740Y151676D01*
X119778Y151315D01*
X119740Y151005D01*
X119587Y150695D01*
X119357Y150436D01*
X119088Y150333D01*
X118782Y150436D01*
X118513Y150746D01*
X118360Y151211D01*
X118322Y151728D01*
X118398Y152400D01*
X118513Y152761D01*
X118705Y153123D01*
X118973Y153381D01*
X119242Y153433D01*
X119510Y153330D01*
X119702Y153071D01*
G01X128557Y149000D02*
Y152100D01*
X129323D01*
X129630Y151945D01*
X129860Y151738D01*
X130052Y151428D01*
X130205Y151067D01*
X130243Y150550D01*
X130205Y150033D01*
X130052Y149672D01*
X129860Y149362D01*
X129630Y149155D01*
X129323Y149000D01*
X128557D01*
G01X131695Y149413D02*
X132002Y149155D01*
X132347Y149000D01*
X132653D01*
X132960Y149155D01*
X133190Y149413D01*
X133305Y149775D01*
X133228Y150137D01*
X133037Y150447D01*
X132692Y150653D01*
X132232Y150757D01*
X131963Y150963D01*
X131848Y151325D01*
X131925Y151687D01*
X132117Y151945D01*
X132385Y152100D01*
X132653D01*
X132922Y151997D01*
X133152Y151738D01*
G01X135600Y149000D02*
Y152100D01*
X135140Y151480D01*
G01Y149000D02*
X136060D01*
G01X109000Y180170D02*
Y183270D01*
X108540Y182650D01*
G01Y180170D02*
X109460D01*
G01X124500Y180500D02*
X124768Y180552D01*
X125075Y180707D01*
X125267Y180965D01*
X125343Y181327D01*
X125267Y181688D01*
X125037Y181998D01*
X124692Y182153D01*
X124308D01*
X124078Y182257D01*
X123887Y182515D01*
X123810Y182877D01*
X123925Y183238D01*
X124193Y183497D01*
X124500Y183600D01*
X124807Y183497D01*
X125075Y183238D01*
X125190Y182877D01*
X125113Y182515D01*
X124922Y182257D01*
X124692Y182153D01*
X124308D01*
X123963Y181998D01*
X123733Y181688D01*
X123657Y181327D01*
X123733Y180965D01*
X123925Y180707D01*
X124232Y180552D01*
X124500Y180500D01*
G01X144000Y7000D02*
Y10100D01*
X143540Y9480D01*
G01Y7000D02*
X144460D01*
G01X132107Y24000D02*
Y27100D01*
X132873D01*
X133180Y26945D01*
X133410Y26738D01*
X133602Y26428D01*
X133755Y26067D01*
X133793Y25550D01*
X133755Y25033D01*
X133602Y24672D01*
X133410Y24362D01*
X133180Y24155D01*
X132873Y24000D01*
X132107D01*
G01X136050D02*
Y27100D01*
X135590Y26480D01*
G01Y24000D02*
X136510D01*
G01X141107D02*
Y27100D01*
X141873D01*
X142180Y26945D01*
X142410Y26738D01*
X142602Y26428D01*
X142755Y26067D01*
X142793Y25550D01*
X142755Y25033D01*
X142602Y24672D01*
X142410Y24362D01*
X142180Y24155D01*
X141873Y24000D01*
X141107D01*
G01X144322Y26583D02*
X144552Y26893D01*
X144820Y27048D01*
X145127Y27100D01*
X145510Y26997D01*
X145778Y26738D01*
X145855Y26428D01*
X145817Y26118D01*
X145663Y25860D01*
X144897Y25343D01*
X144552Y24982D01*
X144322Y24465D01*
X144245Y24000D01*
X145855D01*
G01X137843Y41342D02*
X137613Y41497D01*
X137345Y41600D01*
X137038D01*
X136693Y41445D01*
X136425Y41187D01*
X136233Y40877D01*
X136080Y40360D01*
X136042Y39895D01*
X136118Y39430D01*
X136233Y39120D01*
X136463Y38810D01*
X136732Y38603D01*
X137000Y38500D01*
X137268D01*
X137537Y38603D01*
X137767Y38758D01*
X137958Y38965D01*
G01X142042Y38500D02*
X143000Y41600D01*
X143958Y38500D01*
G01X143613Y39585D02*
X142387D01*
G01X138133Y57620D02*
X138325Y57310D01*
X138555Y57103D01*
X138823Y57000D01*
X139130Y57103D01*
X139360Y57310D01*
X139590Y57620D01*
X139667Y58033D01*
Y60100D01*
G01X141233Y57000D02*
Y60100D01*
X142153D01*
X142460Y59945D01*
X142690Y59583D01*
X142767Y59170D01*
X142690Y58757D01*
X142498Y58447D01*
X142153Y58292D01*
X141233D01*
G01X144372Y59583D02*
X144602Y59893D01*
X144870Y60048D01*
X145177Y60100D01*
X145560Y59997D01*
X145828Y59738D01*
X145905Y59428D01*
X145867Y59118D01*
X145713Y58860D01*
X144947Y58343D01*
X144602Y57982D01*
X144372Y57465D01*
X144295Y57000D01*
X145905D01*
G01X138633Y49500D02*
Y52600D01*
X139592D01*
X139898Y52445D01*
X140090Y52238D01*
X140167Y51825D01*
X140090Y51412D01*
X139860Y51153D01*
X139592Y50998D01*
X138633D01*
G01X139592D02*
X140167Y49500D01*
G01X142500D02*
Y52600D01*
X142040Y51980D01*
G01Y49500D02*
X142960D01*
G01X144948Y49862D02*
X145217Y49603D01*
X145523Y49500D01*
X145830Y49603D01*
X146098Y49913D01*
X146290Y50378D01*
X146367Y50843D01*
Y51412D01*
X146290Y51877D01*
X146098Y52290D01*
X145868Y52497D01*
X145600Y52600D01*
X145293Y52497D01*
X145063Y52290D01*
X144910Y51980D01*
X144833Y51567D01*
X144910Y51205D01*
X145102Y50843D01*
X145332Y50637D01*
X145600Y50585D01*
X145907Y50688D01*
X146137Y50947D01*
X146367Y51412D01*
G01X138633Y64120D02*
X138825Y63810D01*
X139055Y63603D01*
X139323Y63500D01*
X139630Y63603D01*
X139860Y63810D01*
X140090Y64120D01*
X140167Y64533D01*
Y66600D01*
G01X141733Y63500D02*
Y66600D01*
X142653D01*
X142960Y66445D01*
X143190Y66083D01*
X143267Y65670D01*
X143190Y65257D01*
X142998Y64947D01*
X142653Y64792D01*
X141733D01*
G01X145600Y63500D02*
Y66600D01*
X145140Y65980D01*
G01Y63500D02*
X146060D01*
G01X138633Y119500D02*
Y122600D01*
X139592D01*
X139898Y122445D01*
X140090Y122238D01*
X140167Y121825D01*
X140090Y121412D01*
X139860Y121153D01*
X139592Y120998D01*
X138633D01*
G01X139592D02*
X140167Y119500D01*
G01X141772Y122083D02*
X142002Y122393D01*
X142270Y122548D01*
X142577Y122600D01*
X142960Y122497D01*
X143228Y122238D01*
X143305Y121928D01*
X143267Y121618D01*
X143113Y121360D01*
X142347Y120843D01*
X142002Y120482D01*
X141772Y119965D01*
X141695Y119500D01*
X143305D01*
G01X145600Y122600D02*
X145293Y122497D01*
X145063Y122238D01*
X144910Y121928D01*
X144795Y121515D01*
X144757Y121050D01*
X144795Y120585D01*
X144910Y120172D01*
X145063Y119862D01*
X145293Y119603D01*
X145600Y119500D01*
X145907Y119603D01*
X146137Y119862D01*
X146290Y120172D01*
X146405Y120585D01*
X146443Y121050D01*
X146405Y121515D01*
X146290Y121928D01*
X146137Y122238D01*
X145907Y122497D01*
X145600Y122600D01*
G01X139843Y145342D02*
X139613Y145497D01*
X139345Y145600D01*
X139038D01*
X138693Y145445D01*
X138425Y145187D01*
X138233Y144877D01*
X138080Y144360D01*
X138042Y143895D01*
X138118Y143430D01*
X138233Y143120D01*
X138463Y142810D01*
X138732Y142603D01*
X139000Y142500D01*
X139268D01*
X139537Y142603D01*
X139767Y142758D01*
X139958Y142965D01*
G01X138133Y134120D02*
X138325Y133810D01*
X138555Y133603D01*
X138823Y133500D01*
X139130Y133603D01*
X139360Y133810D01*
X139590Y134120D01*
X139667Y134533D01*
Y136600D01*
G01X141233Y133500D02*
Y136600D01*
X142153D01*
X142460Y136445D01*
X142690Y136083D01*
X142767Y135670D01*
X142690Y135257D01*
X142498Y134947D01*
X142153Y134792D01*
X141233D01*
G01X144257Y134120D02*
X144487Y133758D01*
X144793Y133552D01*
X145138Y133500D01*
X145445Y133552D01*
X145752Y133810D01*
X145943Y134120D01*
X145982Y134430D01*
X145905Y134792D01*
X145637Y135050D01*
X145368Y135153D01*
X145023D01*
G01X145368D02*
X145598Y135308D01*
X145790Y135567D01*
X145867Y135877D01*
X145790Y136187D01*
X145598Y136445D01*
X145253Y136600D01*
X144908Y136548D01*
X144563Y136342D01*
G01X138133Y127120D02*
X138325Y126810D01*
X138555Y126603D01*
X138823Y126500D01*
X139130Y126603D01*
X139360Y126810D01*
X139590Y127120D01*
X139667Y127533D01*
Y129600D01*
G01X141233Y126500D02*
Y129600D01*
X142153D01*
X142460Y129445D01*
X142690Y129083D01*
X142767Y128670D01*
X142690Y128257D01*
X142498Y127947D01*
X142153Y127792D01*
X141233D01*
G01X145560Y126500D02*
Y129600D01*
X144142Y127378D01*
X146058D01*
G01X148700Y164600D02*
X148393Y164497D01*
X148163Y164238D01*
X148010Y163928D01*
X147895Y163515D01*
X147857Y163050D01*
X147895Y162585D01*
X148010Y162172D01*
X148163Y161862D01*
X148393Y161603D01*
X148700Y161500D01*
X149007Y161603D01*
X149237Y161862D01*
X149390Y162172D01*
X149505Y162585D01*
X149543Y163050D01*
X149505Y163515D01*
X149390Y163928D01*
X149237Y164238D01*
X149007Y164497D01*
X148700Y164600D01*
G01X151800Y161500D02*
X152068Y161552D01*
X152375Y161707D01*
X152567Y161965D01*
X152643Y162327D01*
X152567Y162688D01*
X152337Y162998D01*
X151992Y163153D01*
X151608D01*
X151378Y163257D01*
X151187Y163515D01*
X151110Y163877D01*
X151225Y164238D01*
X151493Y164497D01*
X151800Y164600D01*
X152107Y164497D01*
X152375Y164238D01*
X152490Y163877D01*
X152413Y163515D01*
X152222Y163257D01*
X151992Y163153D01*
X151608D01*
X151263Y162998D01*
X151033Y162688D01*
X150957Y162327D01*
X151033Y161965D01*
X151225Y161707D01*
X151532Y161552D01*
X151800Y161500D01*
G01X154402Y162533D02*
X155398D01*
G01X158000Y164600D02*
X157693Y164497D01*
X157463Y164238D01*
X157310Y163928D01*
X157195Y163515D01*
X157157Y163050D01*
X157195Y162585D01*
X157310Y162172D01*
X157463Y161862D01*
X157693Y161603D01*
X158000Y161500D01*
X158307Y161603D01*
X158537Y161862D01*
X158690Y162172D01*
X158805Y162585D01*
X158843Y163050D01*
X158805Y163515D01*
X158690Y163928D01*
X158537Y164238D01*
X158307Y164497D01*
X158000Y164600D01*
G01X160372Y162792D02*
X160640Y163153D01*
X160870Y163360D01*
X161177Y163463D01*
X161445Y163360D01*
X161637Y163153D01*
X161790Y162843D01*
X161828Y162482D01*
X161790Y162172D01*
X161637Y161862D01*
X161407Y161603D01*
X161138Y161500D01*
X160832Y161603D01*
X160563Y161913D01*
X160410Y162378D01*
X160372Y162895D01*
X160448Y163567D01*
X160563Y163928D01*
X160755Y164290D01*
X161023Y164548D01*
X161292Y164600D01*
X161560Y164497D01*
X161752Y164238D01*
G01X163472Y162792D02*
X163740Y163153D01*
X163970Y163360D01*
X164277Y163463D01*
X164545Y163360D01*
X164737Y163153D01*
X164890Y162843D01*
X164928Y162482D01*
X164890Y162172D01*
X164737Y161862D01*
X164507Y161603D01*
X164238Y161500D01*
X163932Y161603D01*
X163663Y161913D01*
X163510Y162378D01*
X163472Y162895D01*
X163548Y163567D01*
X163663Y163928D01*
X163855Y164290D01*
X164123Y164548D01*
X164392Y164600D01*
X164660Y164497D01*
X164852Y164238D01*
G01X166457Y161965D02*
X166687Y161707D01*
X166955Y161552D01*
X167300Y161500D01*
X167645Y161603D01*
X167913Y161810D01*
X168105Y162172D01*
X168143Y162585D01*
X168067Y162998D01*
X167875Y163257D01*
X167607Y163463D01*
X167338Y163515D01*
X167070Y163463D01*
X166725Y163257D01*
X166840Y164600D01*
X167875D01*
G01X169557Y162120D02*
X169787Y161758D01*
X170093Y161552D01*
X170438Y161500D01*
X170745Y161552D01*
X171052Y161810D01*
X171243Y162120D01*
X171282Y162430D01*
X171205Y162792D01*
X170937Y163050D01*
X170668Y163153D01*
X170323D01*
G01X170668D02*
X170898Y163308D01*
X171090Y163567D01*
X171167Y163877D01*
X171090Y164187D01*
X170898Y164445D01*
X170553Y164600D01*
X170208Y164548D01*
X169863Y164342D01*
G01X173960Y161500D02*
Y164600D01*
X172542Y162378D01*
X174458D01*
G01X178933Y161500D02*
Y164600D01*
X179892D01*
X180198Y164445D01*
X180390Y164238D01*
X180467Y163825D01*
X180390Y163412D01*
X180160Y163153D01*
X179892Y162998D01*
X178933D01*
G01X179892D02*
X180467Y161500D01*
G01X183567D02*
X182033D01*
Y164600D01*
X183567D01*
G01X182953Y163102D02*
X182033D01*
G01X184942Y164600D02*
X185900Y161500D01*
X186858Y164600D01*
G01X192407Y163153D02*
X192560Y163308D01*
X192675Y163567D01*
X192752Y163928D01*
X192675Y164238D01*
X192522Y164445D01*
X192253Y164600D01*
X191218D01*
Y161500D01*
X192483D01*
X192752Y161707D01*
X192905Y162017D01*
X192982Y162378D01*
X192905Y162740D01*
X192675Y163050D01*
X192407Y163153D01*
X191218D01*
G01X197572Y164600D02*
X199028D01*
X197572Y161500D01*
X199028D01*
G01X132500Y165000D02*
X129400D01*
X130020Y164540D01*
G01X132500D02*
Y165460D01*
G01X167683Y7500D02*
Y10600D01*
X168603D01*
X168910Y10445D01*
X169140Y10083D01*
X169217Y9670D01*
X169140Y9257D01*
X168948Y8947D01*
X168603Y8792D01*
X167683D01*
G01X172010Y7500D02*
Y10600D01*
X170592Y8378D01*
X172508D01*
G01X161243Y20342D02*
X161013Y20497D01*
X160745Y20600D01*
X160438D01*
X160093Y20445D01*
X159825Y20187D01*
X159633Y19877D01*
X159480Y19360D01*
X159442Y18895D01*
X159518Y18430D01*
X159633Y18120D01*
X159863Y17810D01*
X160132Y17603D01*
X160400Y17500D01*
X160668D01*
X160937Y17603D01*
X161167Y17758D01*
X161358Y17965D01*
G01X162772Y18792D02*
X163040Y19153D01*
X163270Y19360D01*
X163577Y19463D01*
X163845Y19360D01*
X164037Y19153D01*
X164190Y18843D01*
X164228Y18482D01*
X164190Y18172D01*
X164037Y17862D01*
X163807Y17603D01*
X163538Y17500D01*
X163232Y17603D01*
X162963Y17913D01*
X162810Y18378D01*
X162772Y18895D01*
X162848Y19567D01*
X162963Y19928D01*
X163155Y20290D01*
X163423Y20548D01*
X163692Y20600D01*
X163960Y20497D01*
X164152Y20238D01*
G01X165757Y18120D02*
X165987Y17758D01*
X166293Y17552D01*
X166638Y17500D01*
X166945Y17552D01*
X167252Y17810D01*
X167443Y18120D01*
X167482Y18430D01*
X167405Y18792D01*
X167137Y19050D01*
X166868Y19153D01*
X166523D01*
G01X166868D02*
X167098Y19308D01*
X167290Y19567D01*
X167367Y19877D01*
X167290Y20187D01*
X167098Y20445D01*
X166753Y20600D01*
X166408Y20548D01*
X166063Y20342D01*
G01X159633Y23500D02*
Y26600D01*
X160592D01*
X160898Y26445D01*
X161090Y26238D01*
X161167Y25825D01*
X161090Y25412D01*
X160860Y25153D01*
X160592Y24998D01*
X159633D01*
G01X160592D02*
X161167Y23500D01*
G01X162657Y24120D02*
X162887Y23758D01*
X163193Y23552D01*
X163538Y23500D01*
X163845Y23552D01*
X164152Y23810D01*
X164343Y24120D01*
X164382Y24430D01*
X164305Y24792D01*
X164037Y25050D01*
X163768Y25153D01*
X163423D01*
G01X163768D02*
X163998Y25308D01*
X164190Y25567D01*
X164267Y25877D01*
X164190Y26187D01*
X163998Y26445D01*
X163653Y26600D01*
X163308Y26548D01*
X162963Y26342D01*
G01X166523Y23500D02*
X166600Y24172D01*
X166715Y24740D01*
X166868Y25257D01*
X167060Y25825D01*
X167367Y26600D01*
X165833D01*
G01X157843Y41342D02*
X157613Y41497D01*
X157345Y41600D01*
X157038D01*
X156693Y41445D01*
X156425Y41187D01*
X156233Y40877D01*
X156080Y40360D01*
X156042Y39895D01*
X156118Y39430D01*
X156233Y39120D01*
X156463Y38810D01*
X156732Y38603D01*
X157000Y38500D01*
X157268D01*
X157537Y38603D01*
X157767Y38758D01*
X157958Y38965D01*
G01X172167Y77747D02*
Y75525D01*
X172320Y75060D01*
X172627Y74750D01*
X173010Y74647D01*
X173393Y74750D01*
X173700Y75060D01*
X173853Y75525D01*
Y77747D01*
G01X176110Y74647D02*
Y77747D01*
X175650Y77127D01*
G01Y74647D02*
X176570D01*
G01X172167Y147748D02*
Y145526D01*
X172320Y145061D01*
X172627Y144751D01*
X173010Y144648D01*
X173393Y144751D01*
X173700Y145061D01*
X173853Y145526D01*
Y147748D01*
G01X175382Y147231D02*
X175612Y147541D01*
X175880Y147696D01*
X176187Y147748D01*
X176570Y147645D01*
X176838Y147386D01*
X176915Y147076D01*
X176877Y146766D01*
X176723Y146508D01*
X175957Y145991D01*
X175612Y145630D01*
X175382Y145113D01*
X175305Y144648D01*
X176915D01*
G01X164292Y173500D02*
X165250Y176600D01*
X166208Y173500D01*
G01X165863Y174585D02*
X164637D01*
G01X167507Y173500D02*
Y176600D01*
X168273D01*
X168580Y176445D01*
X168810Y176238D01*
X169002Y175928D01*
X169155Y175567D01*
X169193Y175050D01*
X169155Y174533D01*
X169002Y174172D01*
X168810Y173862D01*
X168580Y173655D01*
X168273Y173500D01*
X167507D01*
G01X170607Y173965D02*
X170837Y173707D01*
X171105Y173552D01*
X171450Y173500D01*
X171795Y173603D01*
X172063Y173810D01*
X172255Y174172D01*
X172293Y174585D01*
X172217Y174998D01*
X172025Y175257D01*
X171757Y175463D01*
X171488Y175515D01*
X171220Y175463D01*
X170875Y175257D01*
X170990Y176600D01*
X172025D01*
G01X173898Y173862D02*
X174167Y173603D01*
X174473Y173500D01*
X174780Y173603D01*
X175048Y173913D01*
X175240Y174378D01*
X175317Y174843D01*
Y175412D01*
X175240Y175877D01*
X175048Y176290D01*
X174818Y176497D01*
X174550Y176600D01*
X174243Y176497D01*
X174013Y176290D01*
X173860Y175980D01*
X173783Y175567D01*
X173860Y175205D01*
X174052Y174843D01*
X174282Y174637D01*
X174550Y174585D01*
X174857Y174688D01*
X175087Y174947D01*
X175317Y175412D01*
G01X178110Y173500D02*
Y176600D01*
X176692Y174378D01*
X178608D01*
G01X180750Y176600D02*
X180443Y176497D01*
X180213Y176238D01*
X180060Y175928D01*
X179945Y175515D01*
X179907Y175050D01*
X179945Y174585D01*
X180060Y174172D01*
X180213Y173862D01*
X180443Y173603D01*
X180750Y173500D01*
X181057Y173603D01*
X181287Y173862D01*
X181440Y174172D01*
X181555Y174585D01*
X181593Y175050D01*
X181555Y175515D01*
X181440Y175928D01*
X181287Y176238D01*
X181057Y176497D01*
X180750Y176600D01*
G01X155683Y167000D02*
Y170100D01*
X156603D01*
X156910Y169945D01*
X157140Y169583D01*
X157217Y169170D01*
X157140Y168757D01*
X156948Y168447D01*
X156603Y168292D01*
X155683D01*
G01X158783Y167000D02*
Y170100D01*
X159742D01*
X160048Y169945D01*
X160240Y169738D01*
X160317Y169325D01*
X160240Y168912D01*
X160010Y168653D01*
X159742Y168498D01*
X158783D01*
G01X159742D02*
X160317Y167000D01*
G01X162190Y170100D02*
X163110D01*
G01X162650D02*
Y167000D01*
G01X162190D02*
X163110D01*
G01X164753D02*
Y170100D01*
X165750Y167517D01*
X166747Y170100D01*
Y167000D01*
G01X167892D02*
X168850Y170100D01*
X169808Y167000D01*
G01X169463Y168085D02*
X168237D01*
G01X171183Y167000D02*
Y170100D01*
X172142D01*
X172448Y169945D01*
X172640Y169738D01*
X172717Y169325D01*
X172640Y168912D01*
X172410Y168653D01*
X172142Y168498D01*
X171183D01*
G01X172142D02*
X172717Y167000D01*
G01X175050D02*
Y168395D01*
X174283Y170100D01*
G01X175817D02*
X175050Y168395D01*
G01X180445Y167413D02*
X180752Y167155D01*
X181097Y167000D01*
X181403D01*
X181710Y167155D01*
X181940Y167413D01*
X182055Y167775D01*
X181978Y168137D01*
X181787Y168447D01*
X181442Y168653D01*
X180982Y168757D01*
X180713Y168963D01*
X180598Y169325D01*
X180675Y169687D01*
X180867Y169945D01*
X181135Y170100D01*
X181403D01*
X181672Y169997D01*
X181902Y169738D01*
G01X183890Y170100D02*
X184810D01*
G01X184350D02*
Y167000D01*
G01X183890D02*
X184810D01*
G01X186607D02*
Y170100D01*
X187373D01*
X187680Y169945D01*
X187910Y169738D01*
X188102Y169428D01*
X188255Y169067D01*
X188293Y168550D01*
X188255Y168033D01*
X188102Y167672D01*
X187910Y167362D01*
X187680Y167155D01*
X187373Y167000D01*
X186607D01*
G01X191317D02*
X189783D01*
Y170100D01*
X191317D01*
G01X190703Y168602D02*
X189783D01*
G01X157683Y180000D02*
Y183100D01*
X158603D01*
X158910Y182945D01*
X159140Y182583D01*
X159217Y182170D01*
X159140Y181757D01*
X158948Y181447D01*
X158603Y181292D01*
X157683D01*
G01X160898Y180362D02*
X161167Y180103D01*
X161473Y180000D01*
X161780Y180103D01*
X162048Y180413D01*
X162240Y180878D01*
X162317Y181343D01*
Y181912D01*
X162240Y182377D01*
X162048Y182790D01*
X161818Y182997D01*
X161550Y183100D01*
X161243Y182997D01*
X161013Y182790D01*
X160860Y182480D01*
X160783Y182067D01*
X160860Y181705D01*
X161052Y181343D01*
X161282Y181137D01*
X161550Y181085D01*
X161857Y181188D01*
X162087Y181447D01*
X162317Y181912D01*
G01X194272Y8792D02*
X194540Y9153D01*
X194770Y9360D01*
X195077Y9463D01*
X195345Y9360D01*
X195537Y9153D01*
X195690Y8843D01*
X195728Y8482D01*
X195690Y8172D01*
X195537Y7862D01*
X195307Y7603D01*
X195038Y7500D01*
X194732Y7603D01*
X194463Y7913D01*
X194310Y8378D01*
X194272Y8895D01*
X194348Y9567D01*
X194463Y9928D01*
X194655Y10290D01*
X194923Y10548D01*
X195192Y10600D01*
X195460Y10497D01*
X195652Y10238D01*
G01X212417Y24272D02*
X212107Y24502D01*
X211952Y24770D01*
X211900Y25077D01*
X212003Y25460D01*
X212262Y25728D01*
X212572Y25805D01*
X212882Y25767D01*
X213140Y25613D01*
X213657Y24847D01*
X214018Y24502D01*
X214535Y24272D01*
X215000Y24195D01*
Y25805D01*
G01X213795Y92683D02*
X210695D01*
Y93603D01*
X210850Y93910D01*
X211212Y94140D01*
X211625Y94217D01*
X212038Y94140D01*
X212348Y93948D01*
X212503Y93603D01*
Y92683D01*
G01X213795Y96550D02*
X210695D01*
X211315Y96090D01*
G01X213795D02*
Y97010D01*
G01X214175Y162607D02*
X214537Y162837D01*
X214743Y163143D01*
X214795Y163488D01*
X214743Y163795D01*
X214485Y164102D01*
X214175Y164293D01*
X213865Y164332D01*
X213503Y164255D01*
X213245Y163987D01*
X213142Y163718D01*
Y163373D01*
G01Y163718D02*
X212987Y163948D01*
X212728Y164140D01*
X212418Y164217D01*
X212108Y164140D01*
X211850Y163948D01*
X211695Y163603D01*
X211747Y163258D01*
X211953Y162913D01*
G01X211695Y166550D02*
X211798Y166243D01*
X212057Y166013D01*
X212367Y165860D01*
X212780Y165745D01*
X213245Y165707D01*
X213710Y165745D01*
X214123Y165860D01*
X214433Y166013D01*
X214692Y166243D01*
X214795Y166550D01*
X214692Y166857D01*
X214433Y167087D01*
X214123Y167240D01*
X213710Y167355D01*
X213245Y167393D01*
X212780Y167355D01*
X212367Y167240D01*
X212057Y167087D01*
X211798Y166857D01*
X211695Y166550D01*
G01X195000Y179670D02*
Y182770D01*
X194540Y182150D01*
G01Y179670D02*
X195460D01*
G01X234285Y18920D02*
X231185D01*
X231805Y18460D01*
G01X234285D02*
Y19380D01*
G01X231212Y171472D02*
X230902Y171702D01*
X230747Y171970D01*
X230695Y172277D01*
X230798Y172660D01*
X231057Y172928D01*
X231367Y173005D01*
X231677Y172967D01*
X231935Y172813D01*
X232452Y172047D01*
X232813Y171702D01*
X233330Y171472D01*
X233795Y171395D01*
Y173005D01*
G01X233433Y174648D02*
X233692Y174917D01*
X233795Y175223D01*
X233692Y175530D01*
X233382Y175798D01*
X232917Y175990D01*
X232452Y176067D01*
X231883D01*
X231418Y175990D01*
X231005Y175798D01*
X230798Y175568D01*
X230695Y175300D01*
X230798Y174993D01*
X231005Y174763D01*
X231315Y174610D01*
X231728Y174533D01*
X232090Y174610D01*
X232452Y174802D01*
X232658Y175032D01*
X232710Y175300D01*
X232607Y175607D01*
X232348Y175837D01*
X231883Y176067D01*
M02*
