G04 ================== begin FILE IDENTIFICATION RECORD ==================*
G04 Layout Name:  C:/tmp/20_066534b/worklib/02_066534b_top/physical/08_066534b.brd*
G04 Film Name:    fab1*
G04 File Format:  Gerber RS274X*
G04 File Origin:  Cadence Allegro 17.4-S032*
G04 Origin Date:  Tue Feb 21 15:03:34 2023*
G04 *
G04 Layer:  DRAWING FORMAT/DSIZE*
G04 Layer:  MANUFACTURING/NCLEGEND-1-4*
G04 Layer:  BOARD GEOMETRY/DESIGN_OUTLINE*
G04 Layer:  DRAWING FORMAT/OUTLINE*
G04 Layer:  BOARD GEOMETRY/OUTLINE*
G04 Layer:  BOARD GEOMETRY/DIMENSION*
G04 Layer:  BOARD GEOMETRY/FAB_NOTES*
G04 *
G04 Offset:    (0.00 0.00)*
G04 Mirror:    No*
G04 Mode:      Positive*
G04 Rotation:  0*
G04 FullContactRelief:  No*
G04 UndefLineWidth:     8.00*
G04 ================== end FILE IDENTIFICATION RECORD ====================*
%FSLAX25Y25*MOIN*%
%IR0*IPPOS*OFA0.00000B0.00000*MIA0B0*SFA1.00000B1.00000*%
%AMMACRO14*
1,1,.008,.010355,-.025*
20,1,.008,.010355,-.025,-.010355,-.025,0.0*
1,1,.008,-.010355,-.025*
20,1,.008,-.010355,-.025,-.025,-.010355,0.0*
1,1,.008,-.025,-.010355*
20,1,.008,-.025,-.010355,-.025,.010355,0.0*
1,1,.008,-.025,.010355*
20,1,.008,-.025,.010355,-.010355,.025,0.0*
1,1,.008,-.010355,.025*
20,1,.008,-.010355,.025,.010355,.025,0.0*
1,1,.008,.010355,.025*
20,1,.008,.010355,.025,.025,.010355,0.0*
1,1,.008,.025,.010355*
20,1,.008,.025,.010355,.025,-.010355,0.0*
1,1,.008,.025,-.010355*
20,1,.008,.025,-.010355,.010355,-.025,0.0*
1,1,.008,.010355,-.025*
%
%ADD14MACRO14*%
%AMMACRO10*
1,1,.008,.025,.025*
20,1,.008,.025,.025,.025,-.025,0.0*
1,1,.008,.025,-.025*
20,1,.008,.025,-.025,-.025,-.025,0.0*
1,1,.008,-.025,-.025*
20,1,.008,-.025,-.025,-.025,.025,0.0*
1,1,.008,-.025,.025*
20,1,.008,-.025,.025,.025,.025,0.0*
1,1,.008,.025,.025*
%
%ADD10MACRO10*%
%AMMACRO13*
1,1,.008,.025,0.0*
20,1,.008,.025,0.0,0.0,-.025,0.0*
1,1,.008,0.0,-.025*
20,1,.008,0.0,-.025,-.025,0.0,0.0*
1,1,.008,-.025,0.0*
20,1,.008,-.025,0.0,0.0,.025,0.0*
1,1,.008,0.0,.025*
20,1,.008,0.0,.025,.025,0.0,0.0*
1,1,.008,.025,0.0*
%
%ADD13MACRO13*%
%AMMACRO11*
1,1,.008,-.04167,-.05*
20,1,.008,-.04167,-.05,0.0,.05,0.0*
1,1,.008,0.0,.05*
20,1,.008,0.0,.05,.04167,-.05,0.0*
1,1,.008,.04167,-.05*
1,1,.008,.02667,-.015*
20,1,.008,.02667,-.015,-.02667,-.015,0.0*
1,1,.008,-.02667,-.015*
%
%ADD11MACRO11*%
%AMMACRO12*
1,1,.008,0.0,.0225*
20,1,.008,0.0,.0225,.019486,-.01125,0.0*
1,1,.008,.019486,-.01125*
20,1,.008,.019486,-.01125,-.019486,-.01125,0.0*
1,1,.008,-.019486,-.01125*
20,1,.008,-.019486,-.01125,0.0,.0225,0.0*
1,1,.008,0.0,.0225*
%
%ADD12MACRO12*%
%ADD15C,.008*%
G75*
%LPD*%
G75*
G36*
G01X-40000Y254500D02*
X-55000Y252000D01*
X-40000Y249500D01*
Y254500D01*
G37*
G36*
G01X235000Y249500D02*
X250000Y252000D01*
X235000Y254500D01*
Y249500D01*
G37*
G36*
G01X285500Y5000D02*
X288000Y-10000D01*
X290500Y5000D01*
X285500D01*
G37*
G36*
G01X290500Y185000D02*
X288000Y200000D01*
X285500Y185000D01*
X290500D01*
G37*
G36*
G01X1168500Y-287714D02*
X1218528D01*
Y-237686D01*
X1168500D01*
Y-287714D01*
G37*
G36*
G01X1237099Y-265353D02*
G02Y-287714I-2326J-11180D01*
G01X1227245D01*
Y-265353D01*
X1237099D01*
G37*
G36*
G01X1231414Y-260047D02*
X1232917Y-255499D01*
X1240521D01*
X1242026Y-260047D01*
X1246195D01*
X1238804Y-237686D01*
X1234635D01*
X1227245Y-260047D01*
X1231414D01*
G37*
G36*
G01X1265524Y-265353D02*
Y-267248D01*
X1272535Y-287714D01*
X1276704D01*
X1283716Y-267248D01*
Y-265353D01*
X1279547D01*
X1274620Y-279733D01*
X1269693Y-265353D01*
X1265524D01*
G37*
G36*
G01X1247711D02*
Y-287714D01*
X1264387D01*
Y-284682D01*
X1251880D01*
Y-278050D01*
X1263250D01*
Y-275018D01*
X1251880D01*
Y-268385D01*
X1264387D01*
Y-265353D01*
X1247711D01*
G37*
G36*
G01X1248469Y-260047D02*
X1252638D01*
Y-244266D01*
X1262636Y-260047D01*
X1266805D01*
Y-237686D01*
X1262636D01*
Y-253468D01*
X1252638Y-237686D01*
X1248469D01*
Y-260047D01*
G37*
G36*
G01X1273248D02*
X1274751Y-255499D01*
X1282355D01*
X1283860Y-260047D01*
X1288029D01*
X1280638Y-237686D01*
X1276469D01*
X1269079Y-260047D01*
X1273248D01*
G37*
G36*
G01X1307369Y-272039D02*
X1311910D01*
G03X1293380Y-274828I-9055J-2789D01*
G01Y-278239D01*
G03X1311910Y-281029I9475J0D01*
G01X1307368D01*
G02X1297549Y-278240I-4513J2790D01*
G01Y-274826D01*
G02X1307369Y-272039I5306J-2D01*
G37*
G36*
G01X1305732Y-250572D02*
G03X1324682I9475J0D01*
G01Y-247161D01*
G03X1305732I-9475J0D01*
G01Y-250572D01*
G37*
G36*
G01X1290303Y-237686D02*
Y-260047D01*
X1305463D01*
Y-255878D01*
X1294472D01*
Y-237686D01*
X1290303D01*
G37*
G36*
G01X1343359Y-271903D02*
X1347403D01*
G03X1329960Y-273001I-8607J-2361D01*
G03X1334437Y-277860I5048J159D01*
G01X1341896Y-278691D01*
G02X1343248Y-281347I-355J-1853D01*
G02X1334233Y-281150I-4454J2566D01*
G01X1330189D01*
G03X1347631Y-280052I8607J2361D01*
G03X1343154Y-275192I-5047J-157D01*
G01X1335696Y-274362D01*
G02X1334344Y-271706I356J1853D01*
G02X1343359Y-271903I4454J-2565D01*
G37*
G36*
G01X1313202Y-265353D02*
Y-287714D01*
X1329499D01*
Y-284682D01*
X1317371D01*
Y-278050D01*
X1328362D01*
Y-275018D01*
X1317371D01*
Y-268385D01*
X1329499D01*
Y-265353D01*
X1313202D01*
G37*
G36*
G01X1341208Y-245906D02*
G03X1330746Y-247156I-5156J-1255D01*
G01Y-250572D01*
G03X1341358Y-252088I5414J-2D01*
G01Y-251709D01*
X1336810D01*
Y-248677D01*
X1345527D01*
Y-260047D01*
X1341358D01*
Y-258422D01*
G02X1326577Y-250572I-5306J7850D01*
G01Y-247161D01*
G02X1345444Y-245907I9475J0D01*
G01X1341208D01*
Y-245906D01*
G37*
%LPC*%
G75*
G36*
G01X1209053Y-262700D02*
X1177975Y-244887D01*
Y-280513D01*
X1209053Y-262700D01*
G37*
G36*
G01X1236196Y-269143D02*
G02Y-283924I-1295J-7390D01*
G01X1231414D01*
Y-269143D01*
X1236196D01*
G37*
G36*
G01X1236720Y-243993D02*
X1239183Y-251448D01*
Y-252846D01*
X1234256D01*
Y-251448D01*
X1236720Y-243993D01*
G37*
G36*
G01X1278554D02*
X1281017Y-251448D01*
Y-252846D01*
X1276090D01*
Y-251448D01*
X1278554Y-243993D01*
G37*
G36*
G01X1309901Y-250573D02*
G03X1320513Y-250572I5306J1D01*
G01Y-247161D01*
G03X1309901I-5306J0D01*
G01Y-250573D01*
G37*
%LPD*%
G75*
G36*
G01X1285800Y-287714D02*
Y-265353D01*
X1289969D01*
Y-287714D01*
X1285800D01*
G37*
G54D10*
X-45000Y15000D03*
Y25000D03*
X-42000Y46000D03*
Y49000D03*
X-45000Y55000D03*
Y65000D03*
Y75000D03*
X-45500Y134453D03*
Y140953D03*
X-45000Y165000D03*
Y175000D03*
Y185000D03*
X-35000Y5000D03*
X-32400Y27436D03*
X-41500Y32686D03*
X-35500D03*
X-35000Y25000D03*
X-39000Y46000D03*
Y49000D03*
X-32400Y52436D03*
Y47436D03*
Y57436D03*
X-30000Y93220D03*
X-28734Y85543D03*
X-27596Y95780D03*
X-30000Y98339D03*
X-33000Y88102D03*
X-28796Y117750D03*
X-27596Y100898D03*
X-24600Y130953D03*
X-24400Y135953D03*
Y140953D03*
X-35150Y151500D03*
X-28850D03*
X-30868Y183000D03*
X-25000Y173000D03*
X-29000Y176000D03*
Y173000D03*
X-25000Y176000D03*
X-36948Y175484D03*
X-30868Y189000D03*
X-35000Y190000D03*
X-15000Y5000D03*
Y35000D03*
Y25000D03*
X-2500Y35000D03*
X0Y25000D03*
X-15000Y55000D03*
Y45000D03*
X-2500Y55000D03*
Y45000D03*
X-15000Y75000D03*
Y65000D03*
X-2500Y75000D03*
Y65000D03*
X-17396Y82984D03*
X-15000Y85000D03*
Y95000D03*
X396Y82984D03*
X-2500Y95000D03*
Y85000D03*
X-18500Y115500D03*
Y112500D03*
X-17396Y103457D03*
X-15000Y105000D03*
X396Y103457D03*
X-2500Y105000D03*
X-15000Y125000D03*
X-2500D03*
X-7000Y178000D03*
X-16500Y190500D03*
Y187000D03*
X-13000Y190500D03*
Y187000D03*
X15000Y0D03*
X22500Y17500D03*
X17500Y31500D03*
X20500D03*
Y28000D03*
X17500D03*
X15600Y47436D03*
X15000Y75000D03*
X5000D03*
X15600Y57436D03*
X15000Y85000D03*
X10796Y85543D03*
X10779Y89000D03*
X1500Y115500D03*
Y112500D03*
X15246Y114000D03*
X15000Y105000D03*
X21496Y134453D03*
Y140953D03*
X7600Y130953D03*
X5000Y125000D03*
X11850Y151003D03*
X18150D03*
X19000Y163500D03*
X25000Y0D03*
X35000D03*
X33000Y32000D03*
X36000D03*
Y35000D03*
X35000Y25000D03*
X40000Y17500D03*
X23500Y31500D03*
Y28000D03*
X36000Y44000D03*
Y41500D03*
X33000Y46500D03*
X36000D03*
Y37500D03*
X34500Y56846D03*
X25000Y55000D03*
Y75000D03*
Y65000D03*
X35000Y75000D03*
Y65000D03*
X44000Y73000D03*
X25000Y85000D03*
X35000Y105000D03*
Y162500D03*
Y145000D03*
X29000Y163500D03*
X45000Y0D03*
X55500Y34000D03*
X52500D03*
X49500D03*
X46500D03*
X62000Y22950D03*
X45000Y25000D03*
X58350Y48500D03*
X54150Y47800D03*
X59759Y77500D03*
X64747Y69500D03*
X48457Y64500D03*
X52557Y83668D03*
X52500Y87500D03*
Y79500D03*
X65500Y97000D03*
X64500Y109900D03*
Y123100D03*
X45500Y139000D03*
Y132500D03*
X47200Y149346D03*
X45000Y162500D03*
X55000D03*
X65000D03*
X45000Y145000D03*
X59000Y166000D03*
X75500Y28500D03*
X69500D03*
Y33500D03*
X72500Y31000D03*
X75500Y33500D03*
X66100Y18500D03*
X78900D03*
X87000Y46500D03*
Y49500D03*
X72500Y36000D03*
X75500Y38500D03*
X69500D03*
X68300Y44750D03*
X76700D03*
X70500Y57500D03*
Y67000D03*
Y98413D03*
X80000Y87500D03*
X82500Y98000D03*
X86000D03*
X71961Y113000D03*
X69000Y109000D03*
X70864Y103500D03*
X71750Y143046D03*
X75000Y162500D03*
X85000D03*
X69000Y170000D03*
X79000Y167000D03*
X103500Y18500D03*
Y21500D03*
X90000Y46500D03*
Y49500D03*
X105500Y39950D03*
X101200Y36750D03*
X91000Y62107D03*
X99000D03*
X108000Y62900D03*
X87500Y80000D03*
X92500D03*
Y84500D03*
X105500Y80000D03*
X99000D03*
X89307Y114537D03*
X95307D03*
X91000Y100500D03*
X89500Y110000D03*
X96945D03*
X89307Y127737D03*
X95307D03*
X102307Y128530D03*
X95000Y162500D03*
X117000Y15500D03*
X114000D03*
X122500Y37000D03*
X125000D03*
X122500Y77500D03*
X115000Y62900D03*
X122907Y98126D03*
X114500Y94000D03*
X110000D03*
X110028Y98416D03*
X122907Y89752D03*
X114500Y98500D03*
X112000Y80000D03*
X120500Y110000D03*
X122907Y106500D03*
X109807Y114537D03*
X122907Y123248D03*
X109807Y127737D03*
X128500Y143500D03*
X130000Y170000D03*
X135000Y0D03*
X146608Y25000D03*
X146504Y19000D03*
X145000Y15000D03*
X137000Y51000D03*
X146364Y51066D03*
X135000Y45000D03*
X145000D03*
X136999Y57500D03*
X146500Y57613D03*
X146560Y64566D03*
X146364Y121067D03*
X146500Y127614D03*
X146560Y134567D03*
X132500Y162500D03*
X142500D03*
X160000Y20300D03*
Y17500D03*
X161969Y51030D03*
X156406Y47316D03*
X167670Y47370D03*
X170000Y56000D03*
X162393Y69999D03*
X160791Y62355D03*
X153000Y68999D03*
Y72999D03*
X167670Y73762D03*
X170000Y60500D03*
Y65000D03*
X160000Y80000D03*
X170000D03*
X161969Y121031D03*
X160000Y110000D03*
X170000D03*
X156406Y117317D03*
X167670Y117371D03*
X160791Y132356D03*
X162393Y140000D03*
X153000Y139000D03*
Y143000D03*
X170000Y126001D03*
Y130501D03*
Y135001D03*
X152500Y162500D03*
X167670Y143763D03*
X160000Y170000D03*
X170000Y180000D03*
X165000Y165000D03*
X175000Y15000D03*
Y25000D03*
X185000D03*
Y15000D03*
X184500Y50000D03*
X193910Y51933D03*
X191910Y54133D03*
X193910Y56333D03*
X179000Y56000D03*
X174500D03*
X185000Y70000D03*
X191910Y58633D03*
Y62499D03*
X193910Y64799D03*
X191910Y66999D03*
X193910Y69199D03*
X179000Y60500D03*
Y65000D03*
X174500D03*
X174560Y60566D03*
X193910Y102500D03*
X185000Y140000D03*
X193910Y121934D03*
X191910Y124134D03*
X193910Y126334D03*
X191910Y128634D03*
Y132500D03*
X193910Y134800D03*
X191910Y137000D03*
X193910Y139200D03*
X179000Y126001D03*
X174500D03*
X179000Y130501D03*
Y135001D03*
X174500D03*
X174560Y130567D03*
X175000Y155000D03*
X185000D03*
Y180000D03*
X175000Y165000D03*
X185000D03*
X215000Y0D03*
X195000Y25000D03*
Y15000D03*
X215000D03*
X202500Y50000D03*
X210000D03*
Y57500D03*
X215000Y90000D03*
Y97500D03*
X210910Y85000D03*
X208410Y87500D03*
X205910Y90000D03*
X203410Y92500D03*
X200910Y95000D03*
X198710Y97500D03*
X196410Y100000D03*
X200000Y120000D03*
X215000Y122500D03*
X197500Y140000D03*
X195000Y155000D03*
X205000D03*
X215000D03*
X195000Y180000D03*
X205000D03*
X215000D03*
X210000Y185000D03*
X195000Y165000D03*
X205000D03*
X215000D03*
X205000Y190000D03*
X215000D03*
X225000Y0D03*
X235000D03*
X225000Y15000D03*
X235000D03*
X225000Y180000D03*
X235000D03*
X220000Y185000D03*
X230000D03*
X225000Y190000D03*
X235000D03*
X242500Y180000D03*
X240000Y185000D03*
X242500Y190000D03*
X668950Y270909D03*
G54D11*
X0Y0D03*
X5000Y190000D03*
X205000Y20000D03*
Y130000D03*
X668950Y170909D03*
G54D12*
X19000Y190000D03*
X29000D03*
X39000D03*
X65000Y0D03*
X55000D03*
X49000Y190000D03*
X59000D03*
X85000Y0D03*
X75000D03*
X69000Y190000D03*
X79000D03*
X89000D03*
X105000Y0D03*
X95000D03*
X99000Y190000D03*
X109000D03*
X125000Y0D03*
X115000D03*
X125000Y190000D03*
X145000Y0D03*
X135000Y190000D03*
X145000D03*
X175000Y0D03*
X165000D03*
X155000D03*
Y190000D03*
X165000D03*
X175000D03*
X195000Y0D03*
X185000D03*
Y190000D03*
X195000D03*
X231125Y35000D03*
X221125D03*
Y25000D03*
X231125D03*
Y55000D03*
X221125D03*
X231125Y45000D03*
X221125D03*
X231125Y75000D03*
X221125D03*
X231125Y65000D03*
X221125D03*
X231125Y95000D03*
X221125D03*
X231125Y85000D03*
X221125D03*
X231125Y115000D03*
X221125D03*
X231125Y105000D03*
X221125D03*
Y145000D03*
Y135000D03*
Y125000D03*
X231125Y145000D03*
Y135000D03*
Y125000D03*
Y165000D03*
X221125D03*
Y155000D03*
X231125D03*
X668950Y195909D03*
G54D13*
X27500Y107000D03*
Y127000D03*
X48457Y107000D03*
Y127000D03*
X668950Y220909D03*
G54D14*
X82500Y139000D03*
X87500D03*
Y144000D03*
X82500D03*
X107500Y139000D03*
Y144000D03*
X97500Y139000D03*
X102500D03*
Y144000D03*
X97500D03*
X92500Y139000D03*
Y144000D03*
X117500Y139000D03*
Y144000D03*
X112500Y139000D03*
Y144000D03*
X668950Y245909D03*
G54D15*
G01X-522875Y-375000D02*
X-515000Y-350000D01*
X-507125Y-375000D01*
G01X-509960Y-366250D02*
X-520040D01*
G01X-495000Y-150000D02*
X-525000D01*
G01X-512480Y63334D02*
X-511220Y64583D01*
X-510275Y66666D01*
X-509645Y69584D01*
X-510275Y72083D01*
X-511535Y73750D01*
X-513740Y75000D01*
X-522245D01*
Y50000D01*
X-511850D01*
X-509645Y51666D01*
X-508385Y54167D01*
X-507755Y57083D01*
X-508385Y59999D01*
X-510275Y62500D01*
X-512480Y63334D01*
X-522245D01*
G01X-532000Y274500D02*
Y275500D01*
X-512000D01*
Y281500D01*
X-499500Y275000D01*
X-512000Y268500D01*
Y274500D01*
X-532000D01*
G01X-533000Y273500D02*
Y276500D01*
X-513000D01*
Y283000D01*
X-498000Y275000D01*
X-513000Y267000D01*
Y273500D01*
X-533000D01*
G01X-534000Y272500D02*
Y277500D01*
X-514000D01*
Y284500D01*
X-496500Y275000D01*
X-514000Y265500D01*
Y272500D01*
X-534000D01*
G01X-535000Y271500D02*
Y278500D01*
X-515000D01*
Y286000D01*
X-495000Y275000D01*
X-515000Y264000D01*
Y271500D01*
X-535000D01*
G01X-508070Y497916D02*
X-509960Y499167D01*
X-512165Y500000D01*
X-514685D01*
X-517520Y498750D01*
X-519725Y496667D01*
X-521300Y494166D01*
X-522560Y490000D01*
X-522875Y486250D01*
X-522245Y482500D01*
X-521300Y480000D01*
X-519410Y477499D01*
X-517205Y475833D01*
X-515000Y475000D01*
X-512795D01*
X-510590Y475833D01*
X-508700Y477083D01*
X-507125Y478749D01*
G01X-525000Y700000D02*
X-495000D01*
G01X-521930Y900000D02*
Y925000D01*
X-515630D01*
X-513110Y923750D01*
X-511220Y922083D01*
X-509645Y919584D01*
X-508385Y916666D01*
X-508070Y912500D01*
X-508385Y908333D01*
X-509645Y905416D01*
X-511220Y902916D01*
X-513110Y901250D01*
X-515630Y900000D01*
X-521930D01*
G01X-495000Y1075000D02*
Y-525000D01*
X760000D01*
G01X-511000Y270000D02*
Y280000D01*
X-501000Y275000D01*
X-511000Y270000D01*
G01X-507500Y275000D02*
X-506500D01*
G01X-508000Y274000D02*
Y276000D01*
X-505500Y275000D01*
X-508000Y274000D01*
G01X-509000Y273000D02*
Y277000D01*
X-504000Y275000D01*
X-509000Y273000D01*
G01X-510000Y271500D02*
Y278500D01*
X-502500Y275000D01*
X-510000Y271500D01*
G01X760000Y1075000D02*
X-495000D01*
G01X-266220Y-560000D02*
Y-535000D01*
X-277875Y-552917D01*
X-262125D01*
G01X-266220Y1085000D02*
Y1110000D01*
X-277875Y1092083D01*
X-262125D01*
G01X-192745Y204167D02*
X-191815Y205416D01*
X-190730Y206042D01*
X-189490Y206250D01*
X-187940Y205833D01*
X-186855Y204792D01*
X-186545Y203542D01*
X-186700Y202291D01*
X-187320Y201250D01*
X-190420Y199167D01*
X-191815Y197708D01*
X-192745Y195625D01*
X-193055Y193750D01*
X-186545D01*
G01X-177400Y193333D02*
X-177710Y193542D01*
Y193958D01*
X-177400Y194167D01*
X-177090Y193958D01*
Y193542D01*
X-177400Y193333D01*
G01X-165000Y206250D02*
X-166240Y205833D01*
X-167170Y204792D01*
X-167790Y203542D01*
X-168255Y201875D01*
X-168410Y200000D01*
X-168255Y198125D01*
X-167790Y196458D01*
X-167170Y195208D01*
X-166240Y194167D01*
X-165000Y193750D01*
X-163760Y194167D01*
X-162830Y195208D01*
X-162210Y196458D01*
X-161745Y198125D01*
X-161590Y200000D01*
X-161745Y201875D01*
X-162210Y203542D01*
X-162830Y204792D01*
X-163760Y205833D01*
X-165000Y206250D01*
G01X-152600D02*
X-153840Y205833D01*
X-154770Y204792D01*
X-155390Y203542D01*
X-155855Y201875D01*
X-156010Y200000D01*
X-155855Y198125D01*
X-155390Y196458D01*
X-154770Y195208D01*
X-153840Y194167D01*
X-152600Y193750D01*
X-151360Y194167D01*
X-150430Y195208D01*
X-149810Y196458D01*
X-149345Y198125D01*
X-149190Y200000D01*
X-149345Y201875D01*
X-149810Y203542D01*
X-150430Y204792D01*
X-151360Y205833D01*
X-152600Y206250D01*
G01X-140200D02*
X-141440Y205833D01*
X-142370Y204792D01*
X-142990Y203542D01*
X-143455Y201875D01*
X-143610Y200000D01*
X-143455Y198125D01*
X-142990Y196458D01*
X-142370Y195208D01*
X-141440Y194167D01*
X-140200Y193750D01*
X-138960Y194167D01*
X-138030Y195208D01*
X-137410Y196458D01*
X-136945Y198125D01*
X-136790Y200000D01*
X-136945Y201875D01*
X-137410Y203542D01*
X-138030Y204792D01*
X-138960Y205833D01*
X-140200Y206250D01*
G01X-189515Y-18333D02*
X-185485D01*
G01X-177100Y-22667D02*
X-177410Y-22458D01*
Y-22042D01*
X-177100Y-21833D01*
X-176790Y-22042D01*
Y-22458D01*
X-177100Y-22667D01*
G01X-164700Y-22250D02*
Y-9750D01*
X-166560Y-12250D01*
G01Y-22250D02*
X-162840D01*
G01X-152300Y-9750D02*
X-153540Y-10167D01*
X-154470Y-11208D01*
X-155090Y-12458D01*
X-155555Y-14125D01*
X-155710Y-16000D01*
X-155555Y-17875D01*
X-155090Y-19542D01*
X-154470Y-20792D01*
X-153540Y-21833D01*
X-152300Y-22250D01*
X-151060Y-21833D01*
X-150130Y-20792D01*
X-149510Y-19542D01*
X-149045Y-17875D01*
X-148890Y-16000D01*
X-149045Y-14125D01*
X-149510Y-12458D01*
X-150130Y-11208D01*
X-151060Y-10167D01*
X-152300Y-9750D01*
G01X-139900D02*
X-141140Y-10167D01*
X-142070Y-11208D01*
X-142690Y-12458D01*
X-143155Y-14125D01*
X-143310Y-16000D01*
X-143155Y-17875D01*
X-142690Y-19542D01*
X-142070Y-20792D01*
X-141140Y-21833D01*
X-139900Y-22250D01*
X-138660Y-21833D01*
X-137730Y-20792D01*
X-137110Y-19542D01*
X-136645Y-17875D01*
X-136490Y-16000D01*
X-136645Y-14125D01*
X-137110Y-12458D01*
X-137730Y-11208D01*
X-138660Y-10167D01*
X-139900Y-9750D01*
G01X-152795Y5792D02*
X-152020Y8500D01*
G01X-150005D02*
X-150780Y5792D01*
G01X-127995D02*
X-127220Y8500D01*
G01X-125205D02*
X-125980Y5792D01*
G01X-140000Y6250D02*
X-141240Y5833D01*
X-142170Y4792D01*
X-142790Y3542D01*
X-143255Y1875D01*
X-143410Y0D01*
X-143255Y-1875D01*
X-142790Y-3542D01*
X-142170Y-4792D01*
X-141240Y-5833D01*
X-140000Y-6250D01*
X-138760Y-5833D01*
X-137830Y-4792D01*
X-137210Y-3542D01*
X-136745Y-1875D01*
X-136590Y0D01*
X-136745Y1875D01*
X-137210Y3542D01*
X-137830Y4792D01*
X-138760Y5833D01*
X-140000Y6250D01*
G01X-60000Y-10000D02*
X-90000D01*
X-110000Y-16000D01*
X-125875D01*
G01X-5000Y0D02*
X-125975D01*
G01X-60000Y200000D02*
X-126175D01*
G01X-56167Y-135015D02*
Y-130985D01*
G01X-48333Y-123100D02*
X-48542Y-123410D01*
X-48958D01*
X-49167Y-123100D01*
X-48958Y-122790D01*
X-48542D01*
X-48333Y-123100D01*
G01X-50625Y-114110D02*
X-49583Y-113180D01*
X-48958Y-112095D01*
X-48750Y-110700D01*
X-49167Y-109305D01*
X-50000Y-108220D01*
X-51458Y-107445D01*
X-53125Y-107290D01*
X-54792Y-107600D01*
X-55833Y-108375D01*
X-56667Y-109460D01*
X-56875Y-110545D01*
X-56667Y-111630D01*
X-55833Y-113025D01*
X-61250Y-112560D01*
Y-108375D01*
G01X-50625Y-101710D02*
X-49583Y-100780D01*
X-48958Y-99695D01*
X-48750Y-98300D01*
X-49167Y-96905D01*
X-50000Y-95820D01*
X-51458Y-95045D01*
X-53125Y-94890D01*
X-54792Y-95200D01*
X-55833Y-95975D01*
X-56667Y-97060D01*
X-56875Y-98145D01*
X-56667Y-99230D01*
X-55833Y-100625D01*
X-61250Y-100160D01*
Y-95975D01*
G01Y-85900D02*
X-60833Y-87140D01*
X-59792Y-88070D01*
X-58542Y-88690D01*
X-56875Y-89155D01*
X-55000Y-89310D01*
X-53125Y-89155D01*
X-51458Y-88690D01*
X-50208Y-88070D01*
X-49167Y-87140D01*
X-48750Y-85900D01*
X-49167Y-84660D01*
X-50208Y-83730D01*
X-51458Y-83110D01*
X-53125Y-82645D01*
X-55000Y-82490D01*
X-56875Y-82645D01*
X-58542Y-83110D01*
X-59792Y-83730D01*
X-60833Y-84660D01*
X-61250Y-85900D01*
G01X-55000Y-15000D02*
Y-71875D01*
G01Y200000D02*
Y-10000D01*
X250000D01*
Y200000D01*
X-55000D01*
G01Y205000D02*
Y257000D01*
G01X46675Y252000D02*
X-55000D01*
G01X-10292Y-100795D02*
X-13000Y-100020D01*
G01Y-98005D02*
X-10292Y-98780D01*
G01Y-75995D02*
X-13000Y-75220D01*
G01Y-73205D02*
X-10292Y-73980D01*
G01X-6250Y-86000D02*
X-5833Y-87240D01*
X-4792Y-88170D01*
X-3542Y-88790D01*
X-1875Y-89255D01*
X0Y-89410D01*
X1875Y-89255D01*
X3542Y-88790D01*
X4792Y-88170D01*
X5833Y-87240D01*
X6250Y-86000D01*
X5833Y-84760D01*
X4792Y-83830D01*
X3542Y-83210D01*
X1875Y-82745D01*
X0Y-82590D01*
X-1875Y-82745D01*
X-3542Y-83210D01*
X-4792Y-83830D01*
X-5833Y-84760D01*
X-6250Y-86000D01*
G01X5000Y-525000D02*
Y-555000D01*
G01X0Y-5000D02*
Y-71975D01*
G01X5000Y1075000D02*
Y1105000D01*
G01X59925Y218333D02*
X58375Y220417D01*
X57600Y222500D01*
Y230833D01*
X58375Y232917D01*
X59925Y235000D01*
G01X70000Y222500D02*
Y235000D01*
X73875D01*
X75115Y234375D01*
X75890Y233542D01*
X76200Y231875D01*
X75890Y230208D01*
X74960Y229167D01*
X73875Y228542D01*
X70000D01*
G01X73875D02*
X76200Y222500D01*
G01X88600D02*
X82400D01*
Y235000D01*
X88600D01*
G01X86120Y228958D02*
X82400D01*
G01X94955Y222500D02*
Y235000D01*
X100845D01*
G01X98675Y228958D02*
X94955D01*
G01X111075Y218333D02*
X112625Y220417D01*
X113400Y222500D01*
Y230833D01*
X112625Y232917D01*
X111075Y235000D01*
G01X57290Y248250D02*
X58220Y246791D01*
X59460Y245958D01*
X60855Y245750D01*
X62095Y245958D01*
X63335Y247000D01*
X64110Y248250D01*
X64265Y249500D01*
X63955Y250958D01*
X62870Y252000D01*
X61785Y252417D01*
X60390D01*
G01X61785D02*
X62715Y253042D01*
X63490Y254083D01*
X63800Y255333D01*
X63490Y256583D01*
X62715Y257625D01*
X61320Y258250D01*
X59925Y258042D01*
X58530Y257208D01*
G01X73100Y245333D02*
X72790Y245542D01*
Y245958D01*
X73100Y246167D01*
X73410Y245958D01*
Y245542D01*
X73100Y245333D01*
G01X85500Y258250D02*
X84260Y257833D01*
X83330Y256792D01*
X82710Y255542D01*
X82245Y253875D01*
X82090Y252000D01*
X82245Y250125D01*
X82710Y248458D01*
X83330Y247208D01*
X84260Y246167D01*
X85500Y245750D01*
X86740Y246167D01*
X87670Y247208D01*
X88290Y248458D01*
X88755Y250125D01*
X88910Y252000D01*
X88755Y253875D01*
X88290Y255542D01*
X87670Y256792D01*
X86740Y257833D01*
X85500Y258250D01*
G01X94490Y247625D02*
X95420Y246583D01*
X96505Y245958D01*
X97900Y245750D01*
X99295Y246167D01*
X100380Y247000D01*
X101155Y248458D01*
X101310Y250125D01*
X101000Y251792D01*
X100225Y252833D01*
X99140Y253667D01*
X98055Y253875D01*
X96970Y253667D01*
X95575Y252833D01*
X96040Y258250D01*
X100225D01*
G01X110300D02*
X109060Y257833D01*
X108130Y256792D01*
X107510Y255542D01*
X107045Y253875D01*
X106890Y252000D01*
X107045Y250125D01*
X107510Y248458D01*
X108130Y247208D01*
X109060Y246167D01*
X110300Y245750D01*
X111540Y246167D01*
X112470Y247208D01*
X113090Y248458D01*
X113555Y250125D01*
X113710Y252000D01*
X113555Y253875D01*
X113090Y255542D01*
X112470Y256792D01*
X111540Y257833D01*
X110300Y258250D01*
G01X124325Y252000D02*
X250000D01*
G01X245833Y-138745D02*
X244584Y-137815D01*
X243958Y-136730D01*
X243750Y-135490D01*
X244167Y-133940D01*
X245208Y-132855D01*
X246458Y-132545D01*
X247709Y-132700D01*
X248750Y-133320D01*
X250833Y-136420D01*
X252292Y-137815D01*
X254375Y-138745D01*
X256250Y-139055D01*
Y-132545D01*
G01X256667Y-123400D02*
X256458Y-123710D01*
X256042D01*
X255833Y-123400D01*
X256042Y-123090D01*
X256458D01*
X256667Y-123400D01*
G01X254375Y-114410D02*
X255417Y-113480D01*
X256042Y-112395D01*
X256250Y-111000D01*
X255833Y-109605D01*
X255000Y-108520D01*
X253542Y-107745D01*
X251875Y-107590D01*
X250208Y-107900D01*
X249167Y-108675D01*
X248333Y-109760D01*
X248125Y-110845D01*
X248333Y-111930D01*
X249167Y-113325D01*
X243750Y-112860D01*
Y-108675D01*
G01Y-98600D02*
X244167Y-99840D01*
X245208Y-100770D01*
X246458Y-101390D01*
X248125Y-101855D01*
X250000Y-102010D01*
X251875Y-101855D01*
X253542Y-101390D01*
X254792Y-100770D01*
X255833Y-99840D01*
X256250Y-98600D01*
X255833Y-97360D01*
X254792Y-96430D01*
X253542Y-95810D01*
X251875Y-95345D01*
X250000Y-95190D01*
X248125Y-95345D01*
X246458Y-95810D01*
X245208Y-96430D01*
X244167Y-97360D01*
X243750Y-98600D01*
G01Y-86200D02*
X244167Y-87440D01*
X245208Y-88370D01*
X246458Y-88990D01*
X248125Y-89455D01*
X250000Y-89610D01*
X251875Y-89455D01*
X253542Y-88990D01*
X254792Y-88370D01*
X255833Y-87440D01*
X256250Y-86200D01*
X255833Y-84960D01*
X254792Y-84030D01*
X253542Y-83410D01*
X251875Y-82945D01*
X250000Y-82790D01*
X248125Y-82945D01*
X246458Y-83410D01*
X245208Y-84030D01*
X244167Y-84960D01*
X243750Y-86200D01*
G01X250000Y-15000D02*
Y-72175D01*
G01X255000Y-10000D02*
X293000D01*
G01X250000Y205000D02*
Y257000D01*
G01X255000Y200000D02*
X293000D01*
G01X273070Y-555000D02*
X274960Y-557917D01*
X277480Y-559583D01*
X280315Y-560000D01*
X282835Y-559583D01*
X285355Y-557501D01*
X286930Y-555000D01*
X287245Y-552500D01*
X286615Y-549584D01*
X284410Y-547500D01*
X282205Y-546666D01*
X279370D01*
G01X282205D02*
X284095Y-545417D01*
X285670Y-543334D01*
X286300Y-540834D01*
X285670Y-538333D01*
X284095Y-536250D01*
X281260Y-535000D01*
X278425Y-535417D01*
X275590Y-537084D01*
G01X273070Y1090000D02*
X274960Y1087083D01*
X277480Y1085417D01*
X280315Y1085000D01*
X282835Y1085417D01*
X285355Y1087499D01*
X286930Y1090000D01*
X287245Y1092500D01*
X286615Y1095416D01*
X284410Y1097500D01*
X282205Y1098334D01*
X279370D01*
G01X282205D02*
X284095Y1099583D01*
X285670Y1101666D01*
X286300Y1104166D01*
X285670Y1106667D01*
X284095Y1108750D01*
X281260Y1110000D01*
X278425Y1109583D01*
X275590Y1107916D01*
G01X288000Y58675D02*
Y-10000D01*
G01X283833Y69755D02*
X282584Y70685D01*
X281958Y71770D01*
X281750Y73010D01*
X282167Y74560D01*
X283208Y75645D01*
X284458Y75955D01*
X285709Y75800D01*
X286750Y75180D01*
X288833Y72080D01*
X290292Y70685D01*
X292375Y69755D01*
X294250Y69445D01*
Y75955D01*
G01X294667Y85100D02*
X294458Y84790D01*
X294042D01*
X293833Y85100D01*
X294042Y85410D01*
X294458D01*
X294667Y85100D01*
G01X294250Y97500D02*
X281750D01*
X284250Y95640D01*
G01X294250D02*
Y99360D01*
G01X281750Y109900D02*
X282167Y108660D01*
X283208Y107730D01*
X284458Y107110D01*
X286125Y106645D01*
X288000Y106490D01*
X289875Y106645D01*
X291542Y107110D01*
X292792Y107730D01*
X293833Y108660D01*
X294250Y109900D01*
X293833Y111140D01*
X292792Y112070D01*
X291542Y112690D01*
X289875Y113155D01*
X288000Y113310D01*
X286125Y113155D01*
X284458Y112690D01*
X283208Y112070D01*
X282167Y111140D01*
X281750Y109900D01*
G01Y122300D02*
X282167Y121060D01*
X283208Y120130D01*
X284458Y119510D01*
X286125Y119045D01*
X288000Y118890D01*
X289875Y119045D01*
X291542Y119510D01*
X292792Y120130D01*
X293833Y121060D01*
X294250Y122300D01*
X293833Y123540D01*
X292792Y124470D01*
X291542Y125090D01*
X289875Y125555D01*
X288000Y125710D01*
X286125Y125555D01*
X284458Y125090D01*
X283208Y124470D01*
X282167Y123540D01*
X281750Y122300D01*
G01X288000Y136325D02*
Y200000D01*
G01X319667Y74925D02*
X317583Y73375D01*
X315500Y72600D01*
X307167D01*
X305083Y73375D01*
X303000Y74925D01*
G01X315500Y85000D02*
X303000D01*
Y88875D01*
X303625Y90115D01*
X304458Y90890D01*
X306125Y91200D01*
X307792Y90890D01*
X308833Y89960D01*
X309458Y88875D01*
Y85000D01*
G01Y88875D02*
X315500Y91200D01*
G01Y103600D02*
Y97400D01*
X303000D01*
Y103600D01*
G01X309042Y101120D02*
Y97400D01*
G01X315500Y109955D02*
X303000D01*
Y115845D01*
G01X309042Y113675D02*
Y109955D01*
G01X319667Y126075D02*
X317583Y127625D01*
X315500Y128400D01*
X307167D01*
X305083Y127625D01*
X303000Y126075D01*
G01X558500Y-565000D02*
X551500D01*
Y-545000D01*
X544000D01*
X555000Y-525000D01*
X566000Y-545000D01*
X558500D01*
Y-565000D01*
G01X557500Y-564000D02*
X552500D01*
Y-544000D01*
X545500D01*
X555000Y-526500D01*
X564500Y-544000D01*
X557500D01*
Y-564000D01*
G01X556500Y-563000D02*
X553500D01*
Y-543000D01*
X547000D01*
X555000Y-528000D01*
X563000Y-543000D01*
X556500D01*
Y-563000D01*
G01X555500Y-562000D02*
X554500D01*
Y-542000D01*
X548500D01*
X555000Y-529500D01*
X561500Y-542000D01*
X555500D01*
Y-562000D01*
G01X555000Y-537500D02*
Y-536500D01*
G01X560000Y-541000D02*
X550000D01*
X555000Y-531000D01*
X560000Y-541000D01*
G01X558500Y-540000D02*
X551500D01*
X555000Y-532500D01*
X558500Y-540000D01*
G01X557000Y-539000D02*
X553000D01*
X555000Y-534000D01*
X557000Y-539000D01*
G01X556000Y-538000D02*
X554000D01*
X555000Y-535500D01*
X556000Y-538000D01*
G01X555000Y1087500D02*
Y1086500D01*
G01X554000Y1088000D02*
X556000D01*
X555000Y1085500D01*
X554000Y1088000D01*
G01X553000Y1089000D02*
X557000D01*
X555000Y1084000D01*
X553000Y1089000D01*
G01X551500Y1090000D02*
X558500D01*
X555000Y1082500D01*
X551500Y1090000D01*
G01X550000Y1091000D02*
X560000D01*
X555000Y1081000D01*
X550000Y1091000D01*
G01X554500Y1112000D02*
X555500D01*
Y1092000D01*
X561500D01*
X555000Y1079500D01*
X548500Y1092000D01*
X554500D01*
Y1112000D01*
G01X553500Y1113000D02*
X556500D01*
Y1093000D01*
X563000D01*
X555000Y1078000D01*
X547000Y1093000D01*
X553500D01*
Y1113000D01*
G01X552500Y1114000D02*
X557500D01*
Y1094000D01*
X564500D01*
X555000Y1076500D01*
X545500Y1094000D01*
X552500D01*
Y1114000D01*
G01X551500Y1115000D02*
X558500D01*
Y1095000D01*
X566000D01*
X555000Y1075000D01*
X544000Y1095000D01*
X551500D01*
Y1115000D01*
G01X624000Y158409D02*
Y359000D01*
X1309100D01*
Y158409D01*
X624000D01*
G01Y183409D02*
X1309100D01*
G01X624000Y208409D02*
X1309100D01*
G01X624000Y233409D02*
X1309100D01*
G01X624000Y258409D02*
X1309100D01*
G01X635005Y289659D02*
Y302159D01*
X640895D01*
G01X638725Y296117D02*
X635005D01*
G01X648490Y302159D02*
X652210D01*
G01X650350D02*
Y289659D01*
G01X648490D02*
X652210D01*
G01X663680Y295909D02*
X666780D01*
Y292159D01*
X665850Y290909D01*
X664765Y290076D01*
X663215Y289659D01*
X661665Y290076D01*
X660580Y290909D01*
X659650Y292159D01*
X659030Y293617D01*
X658720Y295284D01*
Y296742D01*
X659030Y297992D01*
X659650Y299451D01*
X660580Y300701D01*
X661510Y301534D01*
X662750Y302159D01*
X663835D01*
X665075Y301742D01*
X666005Y300909D01*
G01X671740Y302159D02*
Y293201D01*
X672360Y291325D01*
X673600Y290076D01*
X675150Y289659D01*
X676700Y290076D01*
X677940Y291325D01*
X678560Y293201D01*
Y302159D01*
G01X684450Y289659D02*
Y302159D01*
X688325D01*
X689565Y301534D01*
X690340Y300701D01*
X690650Y299034D01*
X690340Y297367D01*
X689410Y296326D01*
X688325Y295701D01*
X684450D01*
G01X688325D02*
X690650Y289659D01*
G01X703050D02*
X696850D01*
Y302159D01*
X703050D01*
G01X700570Y296117D02*
X696850D01*
G01X624000Y283409D02*
X1309100D01*
G01X624000Y308409D02*
X1309100D01*
G01X624000Y333409D02*
X1309100D01*
G01X624000Y349000D02*
Y359000D01*
X634000D01*
G01X713900Y308409D02*
Y158409D01*
G01X760000Y-525000D02*
X1605000D01*
Y-200000D01*
G01Y1000000D02*
Y1075000D01*
X760000D01*
G01X785000Y-525000D02*
Y-225000D01*
X1605000D01*
G01X785000Y-500000D02*
X1605000D01*
G01X793600Y-440000D02*
Y-432000D01*
X797400D01*
G01X796000Y-435867D02*
X793600D01*
G01X802300Y-432000D02*
X804700D01*
G01X803500D02*
Y-440000D01*
G01X802300D02*
X804700D01*
G01X809200D02*
Y-432000D01*
X813800Y-440000D01*
Y-432000D01*
G01X818300D02*
X820700D01*
G01X819500D02*
Y-440000D01*
G01X818300D02*
X820700D01*
G01X825400Y-438934D02*
X826200Y-439600D01*
X827100Y-440000D01*
X827900D01*
X828700Y-439600D01*
X829300Y-438934D01*
X829600Y-438000D01*
X829400Y-437067D01*
X828900Y-436267D01*
X828000Y-435733D01*
X826800Y-435467D01*
X826100Y-434933D01*
X825800Y-434000D01*
X826000Y-433067D01*
X826500Y-432400D01*
X827200Y-432000D01*
X827900D01*
X828600Y-432267D01*
X829200Y-432933D01*
G01X833400Y-440000D02*
Y-432000D01*
G01X837600D02*
Y-440000D01*
G01Y-436000D02*
X833400D01*
G01X785000Y-425000D02*
X1605000D01*
G01X792900Y-340000D02*
Y-332000D01*
X795500Y-338667D01*
X798100Y-332000D01*
Y-340000D01*
G01X801000D02*
X803500Y-332000D01*
X806000Y-340000D01*
G01X805100Y-337200D02*
X801900D01*
G01X811500Y-332000D02*
Y-340000D01*
G01X809200Y-332000D02*
X813800D01*
G01X821500Y-340000D02*
X817500D01*
Y-332000D01*
X821500D01*
G01X819900Y-335867D02*
X817500D01*
G01X825500Y-340000D02*
Y-332000D01*
X828000D01*
X828800Y-332400D01*
X829300Y-332933D01*
X829500Y-334000D01*
X829300Y-335067D01*
X828700Y-335733D01*
X828000Y-336133D01*
X825500D01*
G01X828000D02*
X829500Y-340000D01*
G01X834300Y-332000D02*
X836700D01*
G01X835500D02*
Y-340000D01*
G01X834300D02*
X836700D01*
G01X841000D02*
X843500Y-332000D01*
X846000Y-340000D01*
G01X845100Y-337200D02*
X841900D01*
G01X849500Y-332000D02*
Y-340000D01*
X853500D01*
G01X1155000Y-325000D02*
X785000D01*
G01Y-217500D02*
Y-197500D01*
X791000D01*
X793000Y-198500D01*
X794500Y-200833D01*
X795000Y-203500D01*
X794500Y-206167D01*
X793250Y-208167D01*
X791000Y-209167D01*
X785000D01*
G01X805000Y-217500D02*
Y-197500D01*
X811250D01*
X813250Y-198500D01*
X814500Y-199833D01*
X815000Y-202500D01*
X814500Y-205167D01*
X813000Y-206833D01*
X811250Y-207834D01*
X805000D01*
G01X811250D02*
X815000Y-217500D01*
G01X827000Y-197500D02*
X833000D01*
G01X830000D02*
Y-217500D01*
G01X827000D02*
X833000D01*
G01X843500D02*
Y-197500D01*
X850000Y-214167D01*
X856500Y-197500D01*
Y-217500D01*
G01X863750D02*
X870000Y-197500D01*
X876250Y-217500D01*
G01X874000Y-210500D02*
X866000D01*
G01X885000Y-217500D02*
Y-197500D01*
X891250D01*
X893250Y-198500D01*
X894500Y-199833D01*
X895000Y-202500D01*
X894500Y-205167D01*
X893000Y-206833D01*
X891250Y-207834D01*
X885000D01*
G01X891250D02*
X895000Y-217500D01*
G01X910000D02*
Y-208500D01*
X905000Y-197500D01*
G01X915000D02*
X910000Y-208500D01*
G01X944750Y-214834D02*
X946750Y-216500D01*
X949000Y-217500D01*
X951000D01*
X953000Y-216500D01*
X954500Y-214834D01*
X955250Y-212500D01*
X954750Y-210167D01*
X953500Y-208167D01*
X951250Y-206833D01*
X948250Y-206167D01*
X946500Y-204834D01*
X945750Y-202500D01*
X946250Y-200167D01*
X947500Y-198500D01*
X949250Y-197500D01*
X951000D01*
X952750Y-198167D01*
X954250Y-199833D01*
G01X967000Y-197500D02*
X973000D01*
G01X970000D02*
Y-217500D01*
G01X967000D02*
X973000D01*
G01X984500D02*
Y-197500D01*
X989500D01*
X991500Y-198500D01*
X993000Y-199833D01*
X994250Y-201833D01*
X995250Y-204167D01*
X995500Y-207500D01*
X995250Y-210834D01*
X994250Y-213167D01*
X993000Y-215167D01*
X991500Y-216500D01*
X989500Y-217500D01*
X984500D01*
G01X1015000D02*
X1005000D01*
Y-197500D01*
X1015000D01*
G01X1011000Y-207166D02*
X1005000D01*
G01X790627Y-236200D02*
Y-240715D01*
X790940Y-241660D01*
X791567Y-242290D01*
X792350Y-242500D01*
X793133Y-242290D01*
X793760Y-241660D01*
X794073Y-240715D01*
Y-236200D01*
G01X796848Y-242500D02*
Y-236200D01*
X800452Y-242500D01*
Y-236200D01*
G01X803383D02*
Y-242500D01*
X806517D01*
G01X812817D02*
X809683D01*
Y-236200D01*
X812817D01*
G01X811563Y-239245D02*
X809683D01*
G01X815905Y-241660D02*
X816532Y-242185D01*
X817237Y-242500D01*
X817863D01*
X818490Y-242185D01*
X818960Y-241660D01*
X819195Y-240925D01*
X819038Y-240190D01*
X818647Y-239560D01*
X817942Y-239140D01*
X817002Y-238930D01*
X816453Y-238510D01*
X816218Y-237775D01*
X816375Y-237040D01*
X816767Y-236515D01*
X817315Y-236200D01*
X817863D01*
X818412Y-236410D01*
X818882Y-236935D01*
G01X822205Y-241660D02*
X822832Y-242185D01*
X823537Y-242500D01*
X824163D01*
X824790Y-242185D01*
X825260Y-241660D01*
X825495Y-240925D01*
X825338Y-240190D01*
X824947Y-239560D01*
X824242Y-239140D01*
X823302Y-238930D01*
X822753Y-238510D01*
X822518Y-237775D01*
X822675Y-237040D01*
X823067Y-236515D01*
X823615Y-236200D01*
X824163D01*
X824712Y-236410D01*
X825182Y-236935D01*
G01X836450Y-242500D02*
X835823Y-242395D01*
X835275Y-241975D01*
X834805Y-241345D01*
X834492Y-240610D01*
X834335Y-239770D01*
Y-238930D01*
X834492Y-238090D01*
X834805Y-237355D01*
X835275Y-236725D01*
X835823Y-236305D01*
X836450Y-236200D01*
X837077Y-236305D01*
X837625Y-236725D01*
X838095Y-237355D01*
X838408Y-238090D01*
X838565Y-238930D01*
Y-239770D01*
X838408Y-240610D01*
X838095Y-241345D01*
X837625Y-241975D01*
X837077Y-242395D01*
X836450Y-242500D01*
G01X842750Y-236200D02*
Y-242500D01*
G01X840948Y-236200D02*
X844552D01*
G01X847405Y-242500D02*
Y-236200D01*
G01X850695D02*
Y-242500D01*
G01Y-239350D02*
X847405D01*
G01X856917Y-242500D02*
X853783D01*
Y-236200D01*
X856917D01*
G01X855663Y-239245D02*
X853783D01*
G01X860083Y-242500D02*
Y-236200D01*
X862042D01*
X862668Y-236515D01*
X863060Y-236935D01*
X863217Y-237775D01*
X863060Y-238615D01*
X862590Y-239140D01*
X862042Y-239455D01*
X860083D01*
G01X862042D02*
X863217Y-242500D01*
G01X865600Y-236200D02*
X866697Y-242500D01*
X867950Y-236200D01*
X869203Y-242500D01*
X870300Y-236200D01*
G01X873310D02*
X875190D01*
G01X874250D02*
Y-242500D01*
G01X873310D02*
X875190D01*
G01X878905Y-241660D02*
X879532Y-242185D01*
X880237Y-242500D01*
X880863D01*
X881490Y-242185D01*
X881960Y-241660D01*
X882195Y-240925D01*
X882038Y-240190D01*
X881647Y-239560D01*
X880942Y-239140D01*
X880002Y-238930D01*
X879453Y-238510D01*
X879218Y-237775D01*
X879375Y-237040D01*
X879767Y-236515D01*
X880315Y-236200D01*
X880863D01*
X881412Y-236410D01*
X881882Y-236935D01*
G01X888417Y-242500D02*
X885283D01*
Y-236200D01*
X888417D01*
G01X887163Y-239245D02*
X885283D01*
G01X897805Y-241660D02*
X898432Y-242185D01*
X899137Y-242500D01*
X899763D01*
X900390Y-242185D01*
X900860Y-241660D01*
X901095Y-240925D01*
X900938Y-240190D01*
X900547Y-239560D01*
X899842Y-239140D01*
X898902Y-238930D01*
X898353Y-238510D01*
X898118Y-237775D01*
X898275Y-237040D01*
X898667Y-236515D01*
X899215Y-236200D01*
X899763D01*
X900312Y-236410D01*
X900782Y-236935D01*
G01X904183Y-242500D02*
Y-236200D01*
X906063D01*
X906690Y-236515D01*
X907160Y-237250D01*
X907317Y-238090D01*
X907160Y-238930D01*
X906768Y-239560D01*
X906063Y-239875D01*
X904183D01*
G01X913617Y-242500D02*
X910483D01*
Y-236200D01*
X913617D01*
G01X912363Y-239245D02*
X910483D01*
G01X920073Y-236725D02*
X919603Y-236410D01*
X919055Y-236200D01*
X918428D01*
X917723Y-236515D01*
X917175Y-237040D01*
X916783Y-237670D01*
X916470Y-238720D01*
X916392Y-239665D01*
X916548Y-240610D01*
X916783Y-241240D01*
X917253Y-241870D01*
X917802Y-242290D01*
X918350Y-242500D01*
X918898D01*
X919447Y-242290D01*
X919917Y-241975D01*
X920308Y-241555D01*
G01X923710Y-236200D02*
X925590D01*
G01X924650D02*
Y-242500D01*
G01X923710D02*
X925590D01*
G01X929462D02*
Y-236200D01*
X932438D01*
G01X931342Y-239245D02*
X929462D01*
G01X936310Y-236200D02*
X938190D01*
G01X937250D02*
Y-242500D01*
G01X936310D02*
X938190D01*
G01X945117D02*
X941983D01*
Y-236200D01*
X945117D01*
G01X943863Y-239245D02*
X941983D01*
G01X948127Y-242500D02*
Y-236200D01*
X949693D01*
X950320Y-236515D01*
X950790Y-236935D01*
X951182Y-237565D01*
X951495Y-238300D01*
X951573Y-239350D01*
X951495Y-240400D01*
X951182Y-241135D01*
X950790Y-241765D01*
X950320Y-242185D01*
X949693Y-242500D01*
X948127D01*
G01X783650Y164659D02*
Y177159D01*
X781790Y174659D01*
G01Y164659D02*
X785510D01*
G01X793105Y175076D02*
X794035Y176325D01*
X795120Y176951D01*
X796360Y177159D01*
X797910Y176742D01*
X798995Y175701D01*
X799305Y174451D01*
X799150Y173200D01*
X798530Y172159D01*
X795430Y170076D01*
X794035Y168617D01*
X793105Y166534D01*
X792795Y164659D01*
X799305D01*
G01X805040Y166534D02*
X805970Y165492D01*
X807055Y164867D01*
X808450Y164659D01*
X809845Y165076D01*
X810930Y165909D01*
X811705Y167367D01*
X811860Y169034D01*
X811550Y170701D01*
X810775Y171742D01*
X809690Y172576D01*
X808605Y172784D01*
X807520Y172576D01*
X806125Y171742D01*
X806590Y177159D01*
X810775D01*
G01X820850Y164242D02*
X820540Y164451D01*
Y164867D01*
X820850Y165076D01*
X821160Y164867D01*
Y164451D01*
X820850Y164242D01*
G01X833250Y177159D02*
X832010Y176742D01*
X831080Y175701D01*
X830460Y174451D01*
X829995Y172784D01*
X829840Y170909D01*
X829995Y169034D01*
X830460Y167367D01*
X831080Y166117D01*
X832010Y165076D01*
X833250Y164659D01*
X834490Y165076D01*
X835420Y166117D01*
X836040Y167367D01*
X836505Y169034D01*
X836660Y170909D01*
X836505Y172784D01*
X836040Y174451D01*
X835420Y175701D01*
X834490Y176742D01*
X833250Y177159D01*
G01X791710Y189659D02*
Y202159D01*
X785975Y193201D01*
X793725D01*
G01X798840Y191534D02*
X799770Y190492D01*
X800855Y189867D01*
X802250Y189659D01*
X803645Y190076D01*
X804730Y190909D01*
X805505Y192367D01*
X805660Y194034D01*
X805350Y195701D01*
X804575Y196742D01*
X803490Y197576D01*
X802405Y197784D01*
X801320Y197576D01*
X799925Y196742D01*
X800390Y202159D01*
X804575D01*
G01X814650Y189242D02*
X814340Y189451D01*
Y189867D01*
X814650Y190076D01*
X814960Y189867D01*
Y189451D01*
X814650Y189242D01*
G01X827050Y202159D02*
X825810Y201742D01*
X824880Y200701D01*
X824260Y199451D01*
X823795Y197784D01*
X823640Y195909D01*
X823795Y194034D01*
X824260Y192367D01*
X824880Y191117D01*
X825810Y190076D01*
X827050Y189659D01*
X828290Y190076D01*
X829220Y191117D01*
X829840Y192367D01*
X830305Y194034D01*
X830460Y195909D01*
X830305Y197784D01*
X829840Y199451D01*
X829220Y200701D01*
X828290Y201742D01*
X827050Y202159D01*
G01X786440Y217159D02*
X787370Y215700D01*
X788610Y214867D01*
X790005Y214659D01*
X791245Y214867D01*
X792485Y215909D01*
X793260Y217159D01*
X793415Y218409D01*
X793105Y219867D01*
X792020Y220909D01*
X790935Y221326D01*
X789540D01*
G01X790935D02*
X791865Y221951D01*
X792640Y222992D01*
X792950Y224242D01*
X792640Y225492D01*
X791865Y226534D01*
X790470Y227159D01*
X789075Y226951D01*
X787680Y226117D01*
G01X798840Y216534D02*
X799770Y215492D01*
X800855Y214867D01*
X802250Y214659D01*
X803645Y215076D01*
X804730Y215909D01*
X805505Y217367D01*
X805660Y219034D01*
X805350Y220701D01*
X804575Y221742D01*
X803490Y222576D01*
X802405Y222784D01*
X801320Y222576D01*
X799925Y221742D01*
X800390Y227159D01*
X804575D01*
G01X814650Y214242D02*
X814340Y214451D01*
Y214867D01*
X814650Y215076D01*
X814960Y214867D01*
Y214451D01*
X814650Y214242D01*
G01X827050Y227159D02*
X825810Y226742D01*
X824880Y225701D01*
X824260Y224451D01*
X823795Y222784D01*
X823640Y220909D01*
X823795Y219034D01*
X824260Y217367D01*
X824880Y216117D01*
X825810Y215076D01*
X827050Y214659D01*
X828290Y215076D01*
X829220Y216117D01*
X829840Y217367D01*
X830305Y219034D01*
X830460Y220909D01*
X830305Y222784D01*
X829840Y224451D01*
X829220Y225701D01*
X828290Y226742D01*
X827050Y227159D01*
G01X786905Y250076D02*
X787835Y251325D01*
X788920Y251951D01*
X790160Y252159D01*
X791710Y251742D01*
X792795Y250701D01*
X793105Y249451D01*
X792950Y248200D01*
X792330Y247159D01*
X789230Y245076D01*
X787835Y243617D01*
X786905Y241534D01*
X786595Y239659D01*
X793105D01*
G01X802250D02*
X803335Y239867D01*
X804575Y240492D01*
X805350Y241534D01*
X805660Y242992D01*
X805350Y244450D01*
X804420Y245701D01*
X803025Y246326D01*
X801475D01*
X800545Y246742D01*
X799770Y247784D01*
X799460Y249242D01*
X799925Y250701D01*
X801010Y251742D01*
X802250Y252159D01*
X803490Y251742D01*
X804575Y250701D01*
X805040Y249242D01*
X804730Y247784D01*
X803955Y246742D01*
X803025Y246326D01*
X801475D01*
X800080Y245701D01*
X799150Y244450D01*
X798840Y242992D01*
X799150Y241534D01*
X799925Y240492D01*
X801165Y239867D01*
X802250Y239659D01*
G01X814650Y239242D02*
X814340Y239451D01*
Y239867D01*
X814650Y240076D01*
X814960Y239867D01*
Y239451D01*
X814650Y239242D01*
G01X827050Y252159D02*
X825810Y251742D01*
X824880Y250701D01*
X824260Y249451D01*
X823795Y247784D01*
X823640Y245909D01*
X823795Y244034D01*
X824260Y242367D01*
X824880Y241117D01*
X825810Y240076D01*
X827050Y239659D01*
X828290Y240076D01*
X829220Y241117D01*
X829840Y242367D01*
X830305Y244034D01*
X830460Y245909D01*
X830305Y247784D01*
X829840Y249451D01*
X829220Y250701D01*
X828290Y251742D01*
X827050Y252159D01*
G01X789850Y264659D02*
Y277159D01*
X787990Y274659D01*
G01Y264659D02*
X791710D01*
G01X802250Y277159D02*
X801010Y276742D01*
X800080Y275701D01*
X799460Y274451D01*
X798995Y272784D01*
X798840Y270909D01*
X798995Y269034D01*
X799460Y267367D01*
X800080Y266117D01*
X801010Y265076D01*
X802250Y264659D01*
X803490Y265076D01*
X804420Y266117D01*
X805040Y267367D01*
X805505Y269034D01*
X805660Y270909D01*
X805505Y272784D01*
X805040Y274451D01*
X804420Y275701D01*
X803490Y276742D01*
X802250Y277159D01*
G01X814650Y264242D02*
X814340Y264451D01*
Y264867D01*
X814650Y265076D01*
X814960Y264867D01*
Y264451D01*
X814650Y264242D01*
G01X827050Y277159D02*
X825810Y276742D01*
X824880Y275701D01*
X824260Y274451D01*
X823795Y272784D01*
X823640Y270909D01*
X823795Y269034D01*
X824260Y267367D01*
X824880Y266117D01*
X825810Y265076D01*
X827050Y264659D01*
X828290Y265076D01*
X829220Y266117D01*
X829840Y267367D01*
X830305Y269034D01*
X830460Y270909D01*
X830305Y272784D01*
X829840Y274451D01*
X829220Y275701D01*
X828290Y276742D01*
X827050Y277159D01*
G01X786595Y291325D02*
X787835Y290284D01*
X789230Y289659D01*
X790470D01*
X791710Y290284D01*
X792640Y291325D01*
X793105Y292784D01*
X792795Y294242D01*
X792020Y295492D01*
X790625Y296326D01*
X788765Y296742D01*
X787680Y297576D01*
X787215Y299034D01*
X787525Y300492D01*
X788300Y301534D01*
X789385Y302159D01*
X790470D01*
X791555Y301742D01*
X792485Y300701D01*
G01X800390Y302159D02*
X804110D01*
G01X802250D02*
Y289659D01*
G01X800390D02*
X804110D01*
G01X811705Y302159D02*
X817595D01*
X811705Y289659D01*
X817595D01*
G01X830150D02*
X823950D01*
Y302159D01*
X830150D01*
G01X827670Y296117D02*
X823950D01*
G01X1605000Y975000D02*
X785000D01*
G01Y1050000D02*
Y975000D01*
G01X1605000Y1000000D02*
X785000D01*
G01Y1075000D02*
Y1000000D01*
G01X1605000Y1025000D02*
X785000D01*
G01X1605000Y1050000D02*
X785000D01*
G01X803300Y-517500D02*
Y-509500D01*
X805300D01*
X806100Y-509900D01*
X806700Y-510433D01*
X807200Y-511233D01*
X807600Y-512167D01*
X807700Y-513500D01*
X807600Y-514833D01*
X807200Y-515767D01*
X806700Y-516567D01*
X806100Y-517100D01*
X805300Y-517500D01*
X803300D01*
G01X813500D02*
X812700Y-517367D01*
X812000Y-516833D01*
X811400Y-516033D01*
X811000Y-515100D01*
X810800Y-514033D01*
Y-512967D01*
X811000Y-511900D01*
X811400Y-510967D01*
X812000Y-510167D01*
X812700Y-509633D01*
X813500Y-509500D01*
X814300Y-509633D01*
X815000Y-510167D01*
X815600Y-510967D01*
X816000Y-511900D01*
X816200Y-512967D01*
Y-514033D01*
X816000Y-515100D01*
X815600Y-516033D01*
X815000Y-516833D01*
X814300Y-517367D01*
X813500Y-517500D01*
G01X827200D02*
Y-509500D01*
X831800Y-517500D01*
Y-509500D01*
G01X837500Y-517500D02*
X836700Y-517367D01*
X836000Y-516833D01*
X835400Y-516033D01*
X835000Y-515100D01*
X834800Y-514033D01*
Y-512967D01*
X835000Y-511900D01*
X835400Y-510967D01*
X836000Y-510167D01*
X836700Y-509633D01*
X837500Y-509500D01*
X838300Y-509633D01*
X839000Y-510167D01*
X839600Y-510967D01*
X840000Y-511900D01*
X840200Y-512967D01*
Y-514033D01*
X840000Y-515100D01*
X839600Y-516033D01*
X839000Y-516833D01*
X838300Y-517367D01*
X837500Y-517500D01*
G01X845500Y-509500D02*
Y-517500D01*
G01X843200Y-509500D02*
X847800D01*
G01X859400Y-516434D02*
X860200Y-517100D01*
X861100Y-517500D01*
X861900D01*
X862700Y-517100D01*
X863300Y-516434D01*
X863600Y-515500D01*
X863400Y-514567D01*
X862900Y-513767D01*
X862000Y-513233D01*
X860800Y-512967D01*
X860100Y-512433D01*
X859800Y-511500D01*
X860000Y-510567D01*
X860500Y-509900D01*
X861200Y-509500D01*
X861900D01*
X862600Y-509767D01*
X863200Y-510433D01*
G01X871700Y-510167D02*
X871100Y-509767D01*
X870400Y-509500D01*
X869600D01*
X868700Y-509900D01*
X868000Y-510567D01*
X867500Y-511367D01*
X867100Y-512700D01*
X867000Y-513900D01*
X867200Y-515100D01*
X867500Y-515900D01*
X868100Y-516700D01*
X868800Y-517233D01*
X869500Y-517500D01*
X870200D01*
X870900Y-517233D01*
X871500Y-516833D01*
X872000Y-516300D01*
G01X875000Y-517500D02*
X877500Y-509500D01*
X880000Y-517500D01*
G01X879100Y-514700D02*
X875900D01*
G01X883500Y-509500D02*
Y-517500D01*
X887500D01*
G01X895500D02*
X891500D01*
Y-509500D01*
X895500D01*
G01X893900Y-513367D02*
X891500D01*
G01X907300Y-517500D02*
Y-509500D01*
X909300D01*
X910100Y-509900D01*
X910700Y-510433D01*
X911200Y-511233D01*
X911600Y-512167D01*
X911700Y-513500D01*
X911600Y-514833D01*
X911200Y-515767D01*
X910700Y-516567D01*
X910100Y-517100D01*
X909300Y-517500D01*
X907300D01*
G01X914500Y-509500D02*
X915900Y-517500D01*
X917500Y-509500D01*
X919100Y-517500D01*
X920500Y-509500D01*
G01X926100Y-513500D02*
X928100D01*
Y-515900D01*
X927500Y-516700D01*
X926800Y-517233D01*
X925800Y-517500D01*
X924800Y-517233D01*
X924100Y-516700D01*
X923500Y-515900D01*
X923100Y-514967D01*
X922900Y-513900D01*
Y-512967D01*
X923100Y-512167D01*
X923500Y-511233D01*
X924100Y-510433D01*
X924700Y-509900D01*
X925500Y-509500D01*
X926200D01*
X927000Y-509767D01*
X927600Y-510300D01*
G01X798127Y-255000D02*
Y-248700D01*
X799693D01*
X800320Y-249015D01*
X800790Y-249435D01*
X801182Y-250065D01*
X801495Y-250800D01*
X801573Y-251850D01*
X801495Y-252900D01*
X801182Y-253635D01*
X800790Y-254265D01*
X800320Y-254685D01*
X799693Y-255000D01*
X798127D01*
G01X805210Y-248700D02*
X807090D01*
G01X806150D02*
Y-255000D01*
G01X805210D02*
X807090D01*
G01X810413D02*
Y-248700D01*
X812450Y-253950D01*
X814487Y-248700D01*
Y-255000D01*
G01X820317D02*
X817183D01*
Y-248700D01*
X820317D01*
G01X819063Y-251745D02*
X817183D01*
G01X823248Y-255000D02*
Y-248700D01*
X826852Y-255000D01*
Y-248700D01*
G01X829705Y-254160D02*
X830332Y-254685D01*
X831037Y-255000D01*
X831663D01*
X832290Y-254685D01*
X832760Y-254160D01*
X832995Y-253425D01*
X832838Y-252690D01*
X832447Y-252060D01*
X831742Y-251640D01*
X830802Y-251430D01*
X830253Y-251010D01*
X830018Y-250275D01*
X830175Y-249540D01*
X830567Y-249015D01*
X831115Y-248700D01*
X831663D01*
X832212Y-248910D01*
X832682Y-249435D01*
G01X836710Y-248700D02*
X838590D01*
G01X837650D02*
Y-255000D01*
G01X836710D02*
X838590D01*
G01X843950D02*
X843323Y-254895D01*
X842775Y-254475D01*
X842305Y-253845D01*
X841992Y-253110D01*
X841835Y-252270D01*
Y-251430D01*
X841992Y-250590D01*
X842305Y-249855D01*
X842775Y-249225D01*
X843323Y-248805D01*
X843950Y-248700D01*
X844577Y-248805D01*
X845125Y-249225D01*
X845595Y-249855D01*
X845908Y-250590D01*
X846065Y-251430D01*
Y-252270D01*
X845908Y-253110D01*
X845595Y-253845D01*
X845125Y-254475D01*
X844577Y-254895D01*
X843950Y-255000D01*
G01X848448D02*
Y-248700D01*
X852052Y-255000D01*
Y-248700D01*
G01X854905Y-254160D02*
X855532Y-254685D01*
X856237Y-255000D01*
X856863D01*
X857490Y-254685D01*
X857960Y-254160D01*
X858195Y-253425D01*
X858038Y-252690D01*
X857647Y-252060D01*
X856942Y-251640D01*
X856002Y-251430D01*
X855453Y-251010D01*
X855218Y-250275D01*
X855375Y-249540D01*
X855767Y-249015D01*
X856315Y-248700D01*
X856863D01*
X857412Y-248910D01*
X857882Y-249435D01*
G01X867192Y-255000D02*
X869150Y-248700D01*
X871108Y-255000D01*
G01X870403Y-252795D02*
X867897D01*
G01X873883Y-255000D02*
Y-248700D01*
X875842D01*
X876468Y-249015D01*
X876860Y-249435D01*
X877017Y-250275D01*
X876860Y-251115D01*
X876390Y-251640D01*
X875842Y-251955D01*
X873883D01*
G01X875842D02*
X877017Y-255000D01*
G01X883317D02*
X880183D01*
Y-248700D01*
X883317D01*
G01X882063Y-251745D02*
X880183D01*
G01X893410Y-248700D02*
X895290D01*
G01X894350D02*
Y-255000D01*
G01X893410D02*
X895290D01*
G01X898848D02*
Y-248700D01*
X902452Y-255000D01*
Y-248700D01*
G01X912310D02*
X914190D01*
G01X913250D02*
Y-255000D01*
G01X912310D02*
X914190D01*
G01X917748D02*
Y-248700D01*
X921352Y-255000D01*
Y-248700D01*
G01X927573Y-249225D02*
X927103Y-248910D01*
X926555Y-248700D01*
X925928D01*
X925223Y-249015D01*
X924675Y-249540D01*
X924283Y-250170D01*
X923970Y-251220D01*
X923892Y-252165D01*
X924048Y-253110D01*
X924283Y-253740D01*
X924753Y-254370D01*
X925302Y-254790D01*
X925850Y-255000D01*
X926398D01*
X926947Y-254790D01*
X927417Y-254475D01*
X927808Y-254055D01*
G01X930505Y-255000D02*
Y-248700D01*
G01X933795D02*
Y-255000D01*
G01Y-251850D02*
X930505D01*
G01X940017Y-255000D02*
X936883D01*
Y-248700D01*
X940017D01*
G01X938763Y-251745D02*
X936883D01*
G01X943105Y-254160D02*
X943732Y-254685D01*
X944437Y-255000D01*
X945063D01*
X945690Y-254685D01*
X946160Y-254160D01*
X946395Y-253425D01*
X946238Y-252690D01*
X945847Y-252060D01*
X945142Y-251640D01*
X944202Y-251430D01*
X943653Y-251010D01*
X943418Y-250275D01*
X943575Y-249540D01*
X943967Y-249015D01*
X944515Y-248700D01*
X945063D01*
X945612Y-248910D01*
X946082Y-249435D01*
G01X808140Y340250D02*
Y352750D01*
X811240D01*
X812480Y352125D01*
X813410Y351292D01*
X814185Y350042D01*
X814805Y348583D01*
X814960Y346500D01*
X814805Y344417D01*
X814185Y342958D01*
X813410Y341708D01*
X812480Y340875D01*
X811240Y340250D01*
X808140D01*
G01X820850D02*
Y352750D01*
X824725D01*
X825965Y352125D01*
X826740Y351292D01*
X827050Y349625D01*
X826740Y347958D01*
X825810Y346917D01*
X824725Y346292D01*
X820850D01*
G01X824725D02*
X827050Y340250D01*
G01X834490Y352750D02*
X838210D01*
G01X836350D02*
Y340250D01*
G01X834490D02*
X838210D01*
G01X845650Y352750D02*
Y340250D01*
X851850D01*
G01X858050Y352750D02*
Y340250D01*
X864250D01*
G01X889360Y351708D02*
X888430Y352333D01*
X887345Y352750D01*
X886105D01*
X884710Y352125D01*
X883625Y351083D01*
X882850Y349833D01*
X882230Y347750D01*
X882075Y345875D01*
X882385Y344000D01*
X882850Y342750D01*
X883780Y341500D01*
X884865Y340667D01*
X885950Y340250D01*
X887035D01*
X888120Y340667D01*
X889050Y341291D01*
X889825Y342125D01*
G01X895095Y340250D02*
Y352750D01*
G01X901605D02*
Y340250D01*
G01Y346500D02*
X895095D01*
G01X906875Y340250D02*
X910750Y352750D01*
X914625Y340250D01*
G01X913230Y344625D02*
X908270D01*
G01X920050Y340250D02*
Y352750D01*
X923925D01*
X925165Y352125D01*
X925940Y351292D01*
X926250Y349625D01*
X925940Y347958D01*
X925010Y346917D01*
X923925Y346292D01*
X920050D01*
G01X923925D02*
X926250Y340250D01*
G01X935550Y352750D02*
Y340250D01*
G01X931985Y352750D02*
X939115D01*
G01X947950Y339833D02*
X947640Y340042D01*
Y340458D01*
X947950Y340667D01*
X948260Y340458D01*
Y340042D01*
X947950Y339833D01*
G01Y345458D02*
X947640Y345667D01*
Y346083D01*
X947950Y346292D01*
X948260Y346083D01*
Y345667D01*
X947950Y345458D01*
G01X972750Y352750D02*
Y340250D01*
G01X969185Y352750D02*
X976315D01*
G01X985150Y340250D02*
X983910Y340458D01*
X982825Y341291D01*
X981895Y342542D01*
X981275Y344000D01*
X980965Y345667D01*
Y347333D01*
X981275Y349000D01*
X981895Y350458D01*
X982825Y351708D01*
X983910Y352542D01*
X985150Y352750D01*
X986390Y352542D01*
X987475Y351708D01*
X988405Y350458D01*
X989025Y349000D01*
X989335Y347333D01*
Y345667D01*
X989025Y344000D01*
X988405Y342542D01*
X987475Y341291D01*
X986390Y340458D01*
X985150Y340250D01*
G01X994450D02*
Y352750D01*
X998170D01*
X999410Y352125D01*
X1000340Y350667D01*
X1000650Y349000D01*
X1000340Y347333D01*
X999565Y346083D01*
X998170Y345458D01*
X994450D01*
G01X1022350Y352750D02*
Y340250D01*
G01X1020180Y348583D02*
X1024520D01*
G01X1034750Y340250D02*
X1033820Y340458D01*
X1032890Y341291D01*
X1032270Y342750D01*
X1031960Y344417D01*
X1032270Y346083D01*
X1032890Y347542D01*
X1033820Y348375D01*
X1034750Y348583D01*
X1035680Y348375D01*
X1036610Y347542D01*
X1037230Y346083D01*
X1037385Y344417D01*
X1037230Y342750D01*
X1036610Y341291D01*
X1035680Y340458D01*
X1034750Y340250D01*
G01X1060790Y346917D02*
X1061410Y347542D01*
X1061875Y348583D01*
X1062185Y350042D01*
X1061875Y351292D01*
X1061255Y352125D01*
X1060170Y352750D01*
X1055985D01*
Y340250D01*
X1061100D01*
X1062185Y341083D01*
X1062805Y342333D01*
X1063115Y343792D01*
X1062805Y345250D01*
X1061875Y346500D01*
X1060790Y346917D01*
X1055985D01*
G01X1071950Y340250D02*
X1070710Y340458D01*
X1069625Y341291D01*
X1068695Y342542D01*
X1068075Y344000D01*
X1067765Y345667D01*
Y347333D01*
X1068075Y349000D01*
X1068695Y350458D01*
X1069625Y351708D01*
X1070710Y352542D01*
X1071950Y352750D01*
X1073190Y352542D01*
X1074275Y351708D01*
X1075205Y350458D01*
X1075825Y349000D01*
X1076135Y347333D01*
Y345667D01*
X1075825Y344000D01*
X1075205Y342542D01*
X1074275Y341291D01*
X1073190Y340458D01*
X1071950Y340250D01*
G01X1084350Y352750D02*
Y340250D01*
G01X1080785Y352750D02*
X1087915D01*
G01X1096750D02*
Y340250D01*
G01X1093185Y352750D02*
X1100315D01*
G01X1109150Y340250D02*
X1107910Y340458D01*
X1106825Y341291D01*
X1105895Y342542D01*
X1105275Y344000D01*
X1104965Y345667D01*
Y347333D01*
X1105275Y349000D01*
X1105895Y350458D01*
X1106825Y351708D01*
X1107910Y352542D01*
X1109150Y352750D01*
X1110390Y352542D01*
X1111475Y351708D01*
X1112405Y350458D01*
X1113025Y349000D01*
X1113335Y347333D01*
Y345667D01*
X1113025Y344000D01*
X1112405Y342542D01*
X1111475Y341291D01*
X1110390Y340458D01*
X1109150Y340250D01*
G01X1117520D02*
Y352750D01*
X1121550Y342333D01*
X1125580Y352750D01*
Y340250D01*
G01X811000Y987833D02*
X811500Y988333D01*
X811875Y989166D01*
X812125Y990333D01*
X811875Y991333D01*
X811375Y992000D01*
X810500Y992500D01*
X807125D01*
Y982500D01*
X811250D01*
X812125Y983167D01*
X812625Y984167D01*
X812875Y985333D01*
X812625Y986500D01*
X811875Y987500D01*
X811000Y987833D01*
X807125D01*
G01X806875Y1007500D02*
X810000Y1017500D01*
X813125Y1007500D01*
G01X812000Y1011000D02*
X808000D01*
G01X797500Y1032500D02*
Y1042500D01*
X800625D01*
X801625Y1042000D01*
X802250Y1041333D01*
X802500Y1040000D01*
X802250Y1038667D01*
X801500Y1037833D01*
X800625Y1037333D01*
X797500D01*
G01X800625D02*
X802500Y1032500D01*
G01X812500D02*
X807500D01*
Y1042500D01*
X812500D01*
G01X810500Y1037667D02*
X807500D01*
G01X816875Y1042500D02*
X820000Y1032500D01*
X823125Y1042500D01*
G01X824015Y-539167D02*
X825905Y-536667D01*
X828110Y-535417D01*
X830630Y-535000D01*
X833780Y-535833D01*
X835985Y-537917D01*
X836615Y-540416D01*
X836300Y-542917D01*
X835040Y-545000D01*
X828740Y-549167D01*
X825905Y-552083D01*
X824015Y-556251D01*
X823385Y-560000D01*
X836615D01*
G01X833405Y314659D02*
Y327159D01*
X839295D01*
G01X837125Y321117D02*
X833405D01*
G01X846890Y327159D02*
X850610D01*
G01X848750D02*
Y314659D01*
G01X846890D02*
X850610D01*
G01X857585D02*
Y327159D01*
X864715Y314659D01*
Y327159D01*
G01X871690D02*
X875410D01*
G01X873550D02*
Y314659D01*
G01X871690D02*
X875410D01*
G01X882695Y316325D02*
X883935Y315284D01*
X885330Y314659D01*
X886570D01*
X887810Y315284D01*
X888740Y316325D01*
X889205Y317784D01*
X888895Y319242D01*
X888120Y320492D01*
X886725Y321326D01*
X884865Y321742D01*
X883780Y322576D01*
X883315Y324034D01*
X883625Y325492D01*
X884400Y326534D01*
X885485Y327159D01*
X886570D01*
X887655Y326742D01*
X888585Y325701D01*
G01X895095Y314659D02*
Y327159D01*
G01X901605D02*
Y314659D01*
G01Y320909D02*
X895095D01*
G01X913850Y314659D02*
X907650D01*
Y327159D01*
X913850D01*
G01X911370Y321117D02*
X907650D01*
G01X919740Y314659D02*
Y327159D01*
X922840D01*
X924080Y326534D01*
X925010Y325701D01*
X925785Y324451D01*
X926405Y322992D01*
X926560Y320909D01*
X926405Y318826D01*
X925785Y317367D01*
X925010Y316117D01*
X924080Y315284D01*
X922840Y314659D01*
X919740D01*
G01X944695D02*
Y327159D01*
G01X951205D02*
Y314659D01*
G01Y320909D02*
X944695D01*
G01X960350Y314659D02*
X959110Y314867D01*
X958025Y315700D01*
X957095Y316951D01*
X956475Y318409D01*
X956165Y320076D01*
Y321742D01*
X956475Y323409D01*
X957095Y324867D01*
X958025Y326117D01*
X959110Y326951D01*
X960350Y327159D01*
X961590Y326951D01*
X962675Y326117D01*
X963605Y324867D01*
X964225Y323409D01*
X964535Y321742D01*
Y320076D01*
X964225Y318409D01*
X963605Y316951D01*
X962675Y315700D01*
X961590Y314867D01*
X960350Y314659D01*
G01X969650Y327159D02*
Y314659D01*
X975850D01*
G01X988250D02*
X982050D01*
Y327159D01*
X988250D01*
G01X985770Y321117D02*
X982050D01*
G01X994295Y316325D02*
X995535Y315284D01*
X996930Y314659D01*
X998170D01*
X999410Y315284D01*
X1000340Y316325D01*
X1000805Y317784D01*
X1000495Y319242D01*
X999720Y320492D01*
X998325Y321326D01*
X996465Y321742D01*
X995380Y322576D01*
X994915Y324034D01*
X995225Y325492D01*
X996000Y326534D01*
X997085Y327159D01*
X998170D01*
X999255Y326742D01*
X1000185Y325701D01*
G01X1020490Y327159D02*
X1024210D01*
G01X1022350D02*
Y314659D01*
G01X1020490D02*
X1024210D01*
G01X1031185D02*
Y327159D01*
X1038315Y314659D01*
Y327159D01*
G01X1055520Y314659D02*
Y327159D01*
X1059550Y316742D01*
X1063580Y327159D01*
Y314659D01*
G01X1070090Y327159D02*
X1073810D01*
G01X1071950D02*
Y314659D01*
G01X1070090D02*
X1073810D01*
G01X1081250Y327159D02*
Y314659D01*
X1087450D01*
G01X1093495Y316325D02*
X1094735Y315284D01*
X1096130Y314659D01*
X1097370D01*
X1098610Y315284D01*
X1099540Y316325D01*
X1100005Y317784D01*
X1099695Y319242D01*
X1098920Y320492D01*
X1097525Y321326D01*
X1095665Y321742D01*
X1094580Y322576D01*
X1094115Y324034D01*
X1094425Y325492D01*
X1095200Y326534D01*
X1096285Y327159D01*
X1097370D01*
X1098455Y326742D01*
X1099385Y325701D01*
G01X835000Y1025000D02*
Y975000D01*
G01Y1050000D02*
Y1000000D01*
G01X824015Y1105833D02*
X825905Y1108333D01*
X828110Y1109583D01*
X830630Y1110000D01*
X833780Y1109167D01*
X835985Y1107083D01*
X836615Y1104584D01*
X836300Y1102083D01*
X835040Y1100000D01*
X828740Y1095833D01*
X825905Y1092917D01*
X824015Y1088749D01*
X823385Y1085000D01*
X836615D01*
G01X858135Y379000D02*
Y391500D01*
X865265Y379000D01*
Y391500D01*
G01X874100Y379000D02*
X872860Y379208D01*
X871775Y380041D01*
X870845Y381292D01*
X870225Y382750D01*
X869915Y384417D01*
Y386083D01*
X870225Y387750D01*
X870845Y389208D01*
X871775Y390458D01*
X872860Y391292D01*
X874100Y391500D01*
X875340Y391292D01*
X876425Y390458D01*
X877355Y389208D01*
X877975Y387750D01*
X878285Y386083D01*
Y384417D01*
X877975Y382750D01*
X877355Y381292D01*
X876425Y380041D01*
X875340Y379208D01*
X874100Y379000D01*
G01X882935D02*
Y391500D01*
X890065Y379000D01*
Y391500D01*
G01X908200Y379000D02*
Y391500D01*
X911920D01*
X913160Y390875D01*
X914090Y389417D01*
X914400Y387750D01*
X914090Y386083D01*
X913315Y384833D01*
X911920Y384208D01*
X908200D01*
G01X920600Y391500D02*
Y379000D01*
X926800D01*
G01X932225D02*
X936100Y391500D01*
X939975Y379000D01*
G01X938580Y383375D02*
X933620D01*
G01X948500Y391500D02*
Y379000D01*
G01X944935Y391500D02*
X952065D01*
G01X964000Y379000D02*
X957800D01*
Y391500D01*
X964000D01*
G01X961520Y385458D02*
X957800D01*
G01X969890Y379000D02*
Y391500D01*
X972990D01*
X974230Y390875D01*
X975160Y390042D01*
X975935Y388792D01*
X976555Y387333D01*
X976710Y385250D01*
X976555Y383167D01*
X975935Y381708D01*
X975160Y380458D01*
X974230Y379625D01*
X972990Y379000D01*
X969890D01*
G01X985700Y378583D02*
X985390Y378792D01*
Y379208D01*
X985700Y379417D01*
X986010Y379208D01*
Y378792D01*
X985700Y378583D01*
G01Y384208D02*
X985390Y384417D01*
Y384833D01*
X985700Y385042D01*
X986010Y384833D01*
Y384417D01*
X985700Y384208D01*
G01X1008795Y383167D02*
X1012515D01*
G01X1010500Y385875D02*
Y380458D01*
G01X1020110Y378583D02*
X1025690Y391500D01*
G01X1033285Y383167D02*
X1037315D01*
G01X1044755Y389417D02*
X1045685Y390666D01*
X1046770Y391292D01*
X1048010Y391500D01*
X1049560Y391083D01*
X1050645Y390042D01*
X1050955Y388792D01*
X1050800Y387541D01*
X1050180Y386500D01*
X1047080Y384417D01*
X1045685Y382958D01*
X1044755Y380875D01*
X1044445Y379000D01*
X1050955D01*
G01X1056070D02*
Y391500D01*
X1060100Y381083D01*
X1064130Y391500D01*
Y379000D01*
G01X1070640Y391500D02*
X1074360D01*
G01X1072500D02*
Y379000D01*
G01X1070640D02*
X1074360D01*
G01X1081800Y391500D02*
Y379000D01*
X1088000D01*
G01X1094045Y380666D02*
X1095285Y379625D01*
X1096680Y379000D01*
X1097920D01*
X1099160Y379625D01*
X1100090Y380666D01*
X1100555Y382125D01*
X1100245Y383583D01*
X1099470Y384833D01*
X1098075Y385667D01*
X1096215Y386083D01*
X1095130Y386917D01*
X1094665Y388375D01*
X1094975Y389833D01*
X1095750Y390875D01*
X1096835Y391500D01*
X1097920D01*
X1099005Y391083D01*
X1099935Y390042D01*
G01X883400Y399000D02*
Y411500D01*
X887120D01*
X888360Y410875D01*
X889290Y409417D01*
X889600Y407750D01*
X889290Y406083D01*
X888515Y404833D01*
X887120Y404208D01*
X883400D01*
G01X895800Y411500D02*
Y399000D01*
X902000D01*
G01X907425D02*
X911300Y411500D01*
X915175Y399000D01*
G01X913780Y403375D02*
X908820D01*
G01X923700Y411500D02*
Y399000D01*
G01X920135Y411500D02*
X927265D01*
G01X939200Y399000D02*
X933000D01*
Y411500D01*
X939200D01*
G01X936720Y405458D02*
X933000D01*
G01X945090Y399000D02*
Y411500D01*
X948190D01*
X949430Y410875D01*
X950360Y410042D01*
X951135Y408792D01*
X951755Y407333D01*
X951910Y405250D01*
X951755Y403167D01*
X951135Y401708D01*
X950360Y400458D01*
X949430Y399625D01*
X948190Y399000D01*
X945090D01*
G01X960900Y398583D02*
X960590Y398792D01*
Y399208D01*
X960900Y399417D01*
X961210Y399208D01*
Y398792D01*
X960900Y398583D01*
G01Y404208D02*
X960590Y404417D01*
Y404833D01*
X960900Y405042D01*
X961210Y404833D01*
Y404417D01*
X960900Y404208D01*
G01X983995Y403167D02*
X987715D01*
G01X985700Y405875D02*
Y400458D01*
G01X995310Y398583D02*
X1000890Y411500D01*
G01X1008485Y403167D02*
X1012515D01*
G01X1019490Y401500D02*
X1020420Y400041D01*
X1021660Y399208D01*
X1023055Y399000D01*
X1024295Y399208D01*
X1025535Y400250D01*
X1026310Y401500D01*
X1026465Y402750D01*
X1026155Y404208D01*
X1025070Y405250D01*
X1023985Y405667D01*
X1022590D01*
G01X1023985D02*
X1024915Y406292D01*
X1025690Y407333D01*
X1026000Y408583D01*
X1025690Y409833D01*
X1024915Y410875D01*
X1023520Y411500D01*
X1022125Y411292D01*
X1020730Y410458D01*
G01X1031270Y399000D02*
Y411500D01*
X1035300Y401083D01*
X1039330Y411500D01*
Y399000D01*
G01X1045840Y411500D02*
X1049560D01*
G01X1047700D02*
Y399000D01*
G01X1045840D02*
X1049560D01*
G01X1057000Y411500D02*
Y399000D01*
X1063200D01*
G01X1069245Y400666D02*
X1070485Y399625D01*
X1071880Y399000D01*
X1073120D01*
X1074360Y399625D01*
X1075290Y400666D01*
X1075755Y402125D01*
X1075445Y403583D01*
X1074670Y404833D01*
X1073275Y405667D01*
X1071415Y406083D01*
X1070330Y406917D01*
X1069865Y408375D01*
X1070175Y409833D01*
X1070950Y410875D01*
X1072035Y411500D01*
X1073120D01*
X1074205Y411083D01*
X1075135Y410042D01*
G01X883090Y431500D02*
Y422542D01*
X883710Y420666D01*
X884950Y419417D01*
X886500Y419000D01*
X888050Y419417D01*
X889290Y420666D01*
X889910Y422542D01*
Y431500D01*
G01X895335Y419000D02*
Y431500D01*
X902465Y419000D01*
Y431500D01*
G01X908200D02*
Y419000D01*
X914400D01*
G01X926800D02*
X920600D01*
Y431500D01*
X926800D01*
G01X924320Y425458D02*
X920600D01*
G01X932845Y420666D02*
X934085Y419625D01*
X935480Y419000D01*
X936720D01*
X937960Y419625D01*
X938890Y420666D01*
X939355Y422125D01*
X939045Y423583D01*
X938270Y424833D01*
X936875Y425667D01*
X935015Y426083D01*
X933930Y426917D01*
X933465Y428375D01*
X933775Y429833D01*
X934550Y430875D01*
X935635Y431500D01*
X936720D01*
X937805Y431083D01*
X938735Y430042D01*
G01X945245Y420666D02*
X946485Y419625D01*
X947880Y419000D01*
X949120D01*
X950360Y419625D01*
X951290Y420666D01*
X951755Y422125D01*
X951445Y423583D01*
X950670Y424833D01*
X949275Y425667D01*
X947415Y426083D01*
X946330Y426917D01*
X945865Y428375D01*
X946175Y429833D01*
X946950Y430875D01*
X948035Y431500D01*
X949120D01*
X950205Y431083D01*
X951135Y430042D01*
G01X970045Y420666D02*
X971285Y419625D01*
X972680Y419000D01*
X973920D01*
X975160Y419625D01*
X976090Y420666D01*
X976555Y422125D01*
X976245Y423583D01*
X975470Y424833D01*
X974075Y425667D01*
X972215Y426083D01*
X971130Y426917D01*
X970665Y428375D01*
X970975Y429833D01*
X971750Y430875D01*
X972835Y431500D01*
X973920D01*
X975005Y431083D01*
X975935Y430042D01*
G01X982600Y419000D02*
Y431500D01*
X986320D01*
X987560Y430875D01*
X988490Y429417D01*
X988800Y427750D01*
X988490Y426083D01*
X987715Y424833D01*
X986320Y424208D01*
X982600D01*
G01X1001200Y419000D02*
X995000D01*
Y431500D01*
X1001200D01*
G01X998720Y425458D02*
X995000D01*
G01X1013910Y430458D02*
X1012980Y431083D01*
X1011895Y431500D01*
X1010655D01*
X1009260Y430875D01*
X1008175Y429833D01*
X1007400Y428583D01*
X1006780Y426500D01*
X1006625Y424625D01*
X1006935Y422750D01*
X1007400Y421500D01*
X1008330Y420250D01*
X1009415Y419417D01*
X1010500Y419000D01*
X1011585D01*
X1012670Y419417D01*
X1013600Y420041D01*
X1014375Y420875D01*
G01X1021040Y431500D02*
X1024760D01*
G01X1022900D02*
Y419000D01*
G01X1021040D02*
X1024760D01*
G01X1032355D02*
Y431500D01*
X1038245D01*
G01X1036075Y425458D02*
X1032355D01*
G01X1045840Y431500D02*
X1049560D01*
G01X1047700D02*
Y419000D01*
G01X1045840D02*
X1049560D01*
G01X1063200D02*
X1057000D01*
Y431500D01*
X1063200D01*
G01X1060720Y425458D02*
X1057000D01*
G01X1069090Y419000D02*
Y431500D01*
X1072190D01*
X1073430Y430875D01*
X1074360Y430042D01*
X1075135Y428792D01*
X1075755Y427333D01*
X1075910Y425250D01*
X1075755Y423167D01*
X1075135Y421708D01*
X1074360Y420458D01*
X1073430Y419625D01*
X1072190Y419000D01*
X1069090D01*
G01X895645Y459000D02*
Y471500D01*
G01X902155D02*
Y459000D01*
G01Y465250D02*
X895645D01*
G01X911300Y459000D02*
X910060Y459208D01*
X908975Y460041D01*
X908045Y461292D01*
X907425Y462750D01*
X907115Y464417D01*
Y466083D01*
X907425Y467750D01*
X908045Y469208D01*
X908975Y470458D01*
X910060Y471292D01*
X911300Y471500D01*
X912540Y471292D01*
X913625Y470458D01*
X914555Y469208D01*
X915175Y467750D01*
X915485Y466083D01*
Y464417D01*
X915175Y462750D01*
X914555Y461292D01*
X913625Y460041D01*
X912540Y459208D01*
X911300Y459000D01*
G01X920600Y471500D02*
Y459000D01*
X926800D01*
G01X939200D02*
X933000D01*
Y471500D01*
X939200D01*
G01X936720Y465458D02*
X933000D01*
G01X960900Y471500D02*
Y459000D01*
G01X957335Y471500D02*
X964465D01*
G01X973300Y459000D02*
X972060Y459208D01*
X970975Y460041D01*
X970045Y461292D01*
X969425Y462750D01*
X969115Y464417D01*
Y466083D01*
X969425Y467750D01*
X970045Y469208D01*
X970975Y470458D01*
X972060Y471292D01*
X973300Y471500D01*
X974540Y471292D01*
X975625Y470458D01*
X976555Y469208D01*
X977175Y467750D01*
X977485Y466083D01*
Y464417D01*
X977175Y462750D01*
X976555Y461292D01*
X975625Y460041D01*
X974540Y459208D01*
X973300Y459000D01*
G01X982600Y471500D02*
Y459000D01*
X988800D01*
G01X1001200D02*
X995000D01*
Y471500D01*
X1001200D01*
G01X998720Y465458D02*
X995000D01*
G01X1007400Y459000D02*
Y471500D01*
X1011275D01*
X1012515Y470875D01*
X1013290Y470042D01*
X1013600Y468375D01*
X1013290Y466708D01*
X1012360Y465667D01*
X1011275Y465042D01*
X1007400D01*
G01X1011275D02*
X1013600Y459000D01*
G01X1019025D02*
X1022900Y471500D01*
X1026775Y459000D01*
G01X1025380Y463375D02*
X1020420D01*
G01X1031735Y459000D02*
Y471500D01*
X1038865Y459000D01*
Y471500D01*
G01X1051110Y470458D02*
X1050180Y471083D01*
X1049095Y471500D01*
X1047855D01*
X1046460Y470875D01*
X1045375Y469833D01*
X1044600Y468583D01*
X1043980Y466500D01*
X1043825Y464625D01*
X1044135Y462750D01*
X1044600Y461500D01*
X1045530Y460250D01*
X1046615Y459417D01*
X1047700Y459000D01*
X1048785D01*
X1049870Y459417D01*
X1050800Y460041D01*
X1051575Y460875D01*
G01X1063200Y459000D02*
X1057000D01*
Y471500D01*
X1063200D01*
G01X1060720Y465458D02*
X1057000D01*
G01X889500Y451000D02*
X1069500D01*
G01X889500Y449000D02*
X1069500D01*
G01X907185Y164659D02*
Y177159D01*
X914315Y164659D01*
Y177159D01*
G01X923150Y164659D02*
X921910Y164867D01*
X920825Y165700D01*
X919895Y166951D01*
X919275Y168409D01*
X918965Y170076D01*
Y171742D01*
X919275Y173409D01*
X919895Y174867D01*
X920825Y176117D01*
X921910Y176951D01*
X923150Y177159D01*
X924390Y176951D01*
X925475Y176117D01*
X926405Y174867D01*
X927025Y173409D01*
X927335Y171742D01*
Y170076D01*
X927025Y168409D01*
X926405Y166951D01*
X925475Y165700D01*
X924390Y164867D01*
X923150Y164659D01*
G01X931985D02*
Y177159D01*
X939115Y164659D01*
Y177159D01*
G01X945935Y168826D02*
X949965D01*
G01X957250Y164659D02*
Y177159D01*
X960970D01*
X962210Y176534D01*
X963140Y175076D01*
X963450Y173409D01*
X963140Y171742D01*
X962365Y170492D01*
X960970Y169867D01*
X957250D01*
G01X969650Y177159D02*
Y164659D01*
X975850D01*
G01X981275D02*
X985150Y177159D01*
X989025Y164659D01*
G01X987630Y169034D02*
X982670D01*
G01X997550Y177159D02*
Y164659D01*
G01X993985Y177159D02*
X1001115D01*
G01X1013050Y164659D02*
X1006850D01*
Y177159D01*
X1013050D01*
G01X1010570Y171117D02*
X1006850D01*
G01X1018940Y164659D02*
Y177159D01*
X1022040D01*
X1023280Y176534D01*
X1024210Y175701D01*
X1024985Y174451D01*
X1025605Y172992D01*
X1025760Y170909D01*
X1025605Y168826D01*
X1024985Y167367D01*
X1024210Y166117D01*
X1023280Y165284D01*
X1022040Y164659D01*
X1018940D01*
G01X903000Y308409D02*
Y158409D01*
G01X932450Y189659D02*
Y202159D01*
X936170D01*
X937410Y201534D01*
X938340Y200076D01*
X938650Y198409D01*
X938340Y196742D01*
X937565Y195492D01*
X936170Y194867D01*
X932450D01*
G01X944850Y202159D02*
Y189659D01*
X951050D01*
G01X956475D02*
X960350Y202159D01*
X964225Y189659D01*
G01X962830Y194034D02*
X957870D01*
G01X972750Y202159D02*
Y189659D01*
G01X969185Y202159D02*
X976315D01*
G01X988250Y189659D02*
X982050D01*
Y202159D01*
X988250D01*
G01X985770Y196117D02*
X982050D01*
G01X994140Y189659D02*
Y202159D01*
X997240D01*
X998480Y201534D01*
X999410Y200701D01*
X1000185Y199451D01*
X1000805Y197992D01*
X1000960Y195909D01*
X1000805Y193826D01*
X1000185Y192367D01*
X999410Y191117D01*
X998480Y190284D01*
X997240Y189659D01*
X994140D01*
G01X932450Y214659D02*
Y227159D01*
X936170D01*
X937410Y226534D01*
X938340Y225076D01*
X938650Y223409D01*
X938340Y221742D01*
X937565Y220492D01*
X936170Y219867D01*
X932450D01*
G01X944850Y227159D02*
Y214659D01*
X951050D01*
G01X956475D02*
X960350Y227159D01*
X964225Y214659D01*
G01X962830Y219034D02*
X957870D01*
G01X972750Y227159D02*
Y214659D01*
G01X969185Y227159D02*
X976315D01*
G01X988250Y214659D02*
X982050D01*
Y227159D01*
X988250D01*
G01X985770Y221117D02*
X982050D01*
G01X994140Y214659D02*
Y227159D01*
X997240D01*
X998480Y226534D01*
X999410Y225701D01*
X1000185Y224451D01*
X1000805Y222992D01*
X1000960Y220909D01*
X1000805Y218826D01*
X1000185Y217367D01*
X999410Y216117D01*
X998480Y215284D01*
X997240Y214659D01*
X994140D01*
G01X932450Y239659D02*
Y252159D01*
X936170D01*
X937410Y251534D01*
X938340Y250076D01*
X938650Y248409D01*
X938340Y246742D01*
X937565Y245492D01*
X936170Y244867D01*
X932450D01*
G01X944850Y252159D02*
Y239659D01*
X951050D01*
G01X956475D02*
X960350Y252159D01*
X964225Y239659D01*
G01X962830Y244034D02*
X957870D01*
G01X972750Y252159D02*
Y239659D01*
G01X969185Y252159D02*
X976315D01*
G01X988250Y239659D02*
X982050D01*
Y252159D01*
X988250D01*
G01X985770Y246117D02*
X982050D01*
G01X994140Y239659D02*
Y252159D01*
X997240D01*
X998480Y251534D01*
X999410Y250701D01*
X1000185Y249451D01*
X1000805Y247992D01*
X1000960Y245909D01*
X1000805Y243826D01*
X1000185Y242367D01*
X999410Y241117D01*
X998480Y240284D01*
X997240Y239659D01*
X994140D01*
G01X932450Y264659D02*
Y277159D01*
X936170D01*
X937410Y276534D01*
X938340Y275076D01*
X938650Y273409D01*
X938340Y271742D01*
X937565Y270492D01*
X936170Y269867D01*
X932450D01*
G01X944850Y277159D02*
Y264659D01*
X951050D01*
G01X956475D02*
X960350Y277159D01*
X964225Y264659D01*
G01X962830Y269034D02*
X957870D01*
G01X972750Y277159D02*
Y264659D01*
G01X969185Y277159D02*
X976315D01*
G01X988250Y264659D02*
X982050D01*
Y277159D01*
X988250D01*
G01X985770Y271117D02*
X982050D01*
G01X994140Y264659D02*
Y277159D01*
X997240D01*
X998480Y276534D01*
X999410Y275701D01*
X1000185Y274451D01*
X1000805Y272992D01*
X1000960Y270909D01*
X1000805Y268826D01*
X1000185Y267367D01*
X999410Y266117D01*
X998480Y265284D01*
X997240Y264659D01*
X994140D01*
G01X932450Y289659D02*
Y302159D01*
X936170D01*
X937410Y301534D01*
X938340Y300076D01*
X938650Y298409D01*
X938340Y296742D01*
X937565Y295492D01*
X936170Y294867D01*
X932450D01*
G01X944850Y302159D02*
Y289659D01*
X951050D01*
G01X956475D02*
X960350Y302159D01*
X964225Y289659D01*
G01X962830Y294034D02*
X957870D01*
G01X972750Y302159D02*
Y289659D01*
G01X969185Y302159D02*
X976315D01*
G01X988250Y289659D02*
X982050D01*
Y302159D01*
X988250D01*
G01X985770Y296117D02*
X982050D01*
G01X994140Y289659D02*
Y302159D01*
X997240D01*
X998480Y301534D01*
X999410Y300701D01*
X1000185Y299451D01*
X1000805Y297992D01*
X1000960Y295909D01*
X1000805Y293826D01*
X1000185Y292367D01*
X999410Y291117D01*
X998480Y290284D01*
X997240Y289659D01*
X994140D01*
G01X960000Y-525000D02*
Y-225000D01*
G01X965700Y-496000D02*
Y-488000D01*
X970300Y-496000D01*
Y-488000D01*
G01X974200Y-496267D02*
X977800Y-488000D01*
G01X981500Y-496000D02*
X984000Y-488000D01*
X986500Y-496000D01*
G01X985600Y-493200D02*
X982400D01*
G01X965500Y-471000D02*
X968000Y-463000D01*
X970500Y-471000D01*
G01X969600Y-468200D02*
X966400D01*
G01X976000Y-471267D02*
X975800Y-471133D01*
Y-470867D01*
X976000Y-470733D01*
X976200Y-470867D01*
Y-471133D01*
X976000Y-471267D01*
G01X994200Y-463667D02*
X993600Y-463267D01*
X992900Y-463000D01*
X992100D01*
X991200Y-463400D01*
X990500Y-464067D01*
X990000Y-464867D01*
X989600Y-466200D01*
X989500Y-467400D01*
X989700Y-468600D01*
X990000Y-469400D01*
X990600Y-470200D01*
X991300Y-470733D01*
X992000Y-471000D01*
X992700D01*
X993400Y-470733D01*
X994000Y-470333D01*
X994500Y-469800D01*
G01X997500Y-471000D02*
X1000000Y-463000D01*
X1002500Y-471000D01*
G01X1001600Y-468200D02*
X998400D01*
G01X1008000Y-463000D02*
Y-471000D01*
G01X1005700Y-463000D02*
X1010300D01*
G01X1013500Y-471000D02*
X1016000Y-463000D01*
X1018500Y-471000D01*
G01X1017600Y-468200D02*
X1014400D01*
G01X1022000Y-471000D02*
Y-463000D01*
X1024400D01*
X1025200Y-463400D01*
X1025800Y-464333D01*
X1026000Y-465400D01*
X1025800Y-466467D01*
X1025300Y-467267D01*
X1024400Y-467667D01*
X1022000D01*
G01X1029500Y-471000D02*
X1032000Y-463000D01*
X1034500Y-471000D01*
G01X1033600Y-468200D02*
X1030400D01*
G01X1037700Y-471000D02*
Y-463000D01*
X1042300Y-471000D01*
Y-463000D01*
G01X1048600Y-467000D02*
X1050600D01*
Y-469400D01*
X1050000Y-470200D01*
X1049300Y-470733D01*
X1048300Y-471000D01*
X1047300Y-470733D01*
X1046600Y-470200D01*
X1046000Y-469400D01*
X1045600Y-468467D01*
X1045400Y-467400D01*
Y-466467D01*
X1045600Y-465667D01*
X1046000Y-464733D01*
X1046600Y-463933D01*
X1047200Y-463400D01*
X1048000Y-463000D01*
X1048700D01*
X1049500Y-463267D01*
X1050100Y-463800D01*
G01X960000Y-475000D02*
X1155000D01*
G01X965800Y-446000D02*
Y-438000D01*
G01X969600D02*
X965800Y-442934D01*
G01X970200Y-446000D02*
X967500Y-440667D01*
G01X976000Y-446267D02*
X975800Y-446133D01*
Y-445867D01*
X976000Y-445733D01*
X976200Y-445867D01*
Y-446133D01*
X976000Y-446267D01*
G01X989400Y-446000D02*
Y-438000D01*
X992000Y-444667D01*
X994600Y-438000D01*
Y-446000D01*
G01X1000000D02*
X999200Y-445867D01*
X998500Y-445333D01*
X997900Y-444533D01*
X997500Y-443600D01*
X997300Y-442533D01*
Y-441467D01*
X997500Y-440400D01*
X997900Y-439467D01*
X998500Y-438667D01*
X999200Y-438133D01*
X1000000Y-438000D01*
X1000800Y-438133D01*
X1001500Y-438667D01*
X1002100Y-439467D01*
X1002500Y-440400D01*
X1002700Y-441467D01*
Y-442533D01*
X1002500Y-443600D01*
X1002100Y-444533D01*
X1001500Y-445333D01*
X1000800Y-445867D01*
X1000000Y-446000D01*
G01X1008000D02*
Y-442400D01*
X1006000Y-438000D01*
G01X1010000D02*
X1008000Y-442400D01*
G01X1016000Y-446000D02*
X1015200Y-445867D01*
X1014500Y-445333D01*
X1013900Y-444533D01*
X1013500Y-443600D01*
X1013300Y-442533D01*
Y-441467D01*
X1013500Y-440400D01*
X1013900Y-439467D01*
X1014500Y-438667D01*
X1015200Y-438133D01*
X1016000Y-438000D01*
X1016800Y-438133D01*
X1017500Y-438667D01*
X1018100Y-439467D01*
X1018500Y-440400D01*
X1018700Y-441467D01*
Y-442533D01*
X1018500Y-443600D01*
X1018100Y-444533D01*
X1017500Y-445333D01*
X1016800Y-445867D01*
X1016000Y-446000D01*
G01X1155000Y-450000D02*
X960000D01*
G01X965800Y-421000D02*
Y-413000D01*
G01X969600D02*
X965800Y-417934D01*
G01X970200Y-421000D02*
X967500Y-415667D01*
G01X976000Y-421267D02*
X975800Y-421133D01*
Y-420867D01*
X976000Y-420733D01*
X976200Y-420867D01*
Y-421133D01*
X976000Y-421267D01*
G01X990000Y-419400D02*
X990500Y-420200D01*
X991100Y-420733D01*
X991800Y-421000D01*
X992600Y-420733D01*
X993200Y-420200D01*
X993800Y-419400D01*
X994000Y-418333D01*
Y-413000D01*
G01X997500Y-421000D02*
X1000000Y-413000D01*
X1002500Y-421000D01*
G01X1001600Y-418200D02*
X998400D01*
G01X1008800Y-416733D02*
X1009200Y-416333D01*
X1009500Y-415667D01*
X1009700Y-414733D01*
X1009500Y-413933D01*
X1009100Y-413400D01*
X1008400Y-413000D01*
X1005700D01*
Y-421000D01*
X1009000D01*
X1009700Y-420467D01*
X1010100Y-419667D01*
X1010300Y-418733D01*
X1010100Y-417800D01*
X1009500Y-417000D01*
X1008800Y-416733D01*
X1005700D01*
G01X1013500Y-421000D02*
X1016000Y-413000D01*
X1018500Y-421000D01*
G01X1017600Y-418200D02*
X1014400D01*
G01X1024000Y-413000D02*
Y-421000D01*
G01X1021700Y-413000D02*
X1026300D01*
G01X1029500Y-421000D02*
X1032000Y-413000D01*
X1034500Y-421000D01*
G01X1033600Y-418200D02*
X1030400D01*
G01X1037700Y-421000D02*
Y-413000D01*
X1042300Y-421000D01*
Y-413000D01*
G01X965700Y-396000D02*
Y-388000D01*
X970300Y-396000D01*
Y-388000D01*
G01X974200Y-396267D02*
X977800Y-388000D01*
G01X981500Y-396000D02*
X984000Y-388000D01*
X986500Y-396000D01*
G01X985600Y-393200D02*
X982400D01*
G01X960000Y-400000D02*
X1155000D01*
G01X960000Y-375000D02*
X1155000D01*
G01X965400Y-371000D02*
Y-363000D01*
X968000Y-369667D01*
X970600Y-363000D01*
Y-371000D01*
G01X976000Y-371267D02*
X975800Y-371133D01*
Y-370867D01*
X976000Y-370733D01*
X976200Y-370867D01*
Y-371133D01*
X976000Y-371267D01*
G01X992000Y-371000D02*
Y-367400D01*
X990000Y-363000D01*
G01X994000D02*
X992000Y-367400D01*
G01X997500Y-371000D02*
X1000000Y-363000D01*
X1002500Y-371000D01*
G01X1001600Y-368200D02*
X998400D01*
G01X1005700Y-371000D02*
Y-363000D01*
X1010300Y-371000D01*
Y-363000D01*
G01X965700Y-346000D02*
Y-338000D01*
X970300Y-346000D01*
Y-338000D01*
G01X974200Y-346267D02*
X977800Y-338000D01*
G01X981500Y-346000D02*
X984000Y-338000D01*
X986500Y-346000D01*
G01X985600Y-343200D02*
X982400D01*
G01X960000Y-350000D02*
X1155000D01*
G01X965700Y-321000D02*
Y-313000D01*
X970300Y-321000D01*
Y-313000D01*
G01X974200Y-321267D02*
X977800Y-313000D01*
G01X981500Y-321000D02*
X984000Y-313000D01*
X986500Y-321000D01*
G01X985600Y-318200D02*
X982400D01*
G01X965400Y-296000D02*
Y-288000D01*
X968000Y-294667D01*
X970600Y-288000D01*
Y-296000D01*
G01X976000Y-296267D02*
X975800Y-296133D01*
Y-295867D01*
X976000Y-295733D01*
X976200Y-295867D01*
Y-296133D01*
X976000Y-296267D01*
G01X989500Y-288000D02*
X992000Y-296000D01*
X994500Y-288000D01*
G01X997500Y-296000D02*
X1000000Y-288000D01*
X1002500Y-296000D01*
G01X1001600Y-293200D02*
X998400D01*
G01X1006000Y-288000D02*
Y-296000D01*
X1010000D01*
G01X1018000D02*
X1014000D01*
Y-288000D01*
X1018000D01*
G01X1016400Y-291867D02*
X1014000D01*
G01X960000Y-300000D02*
X1605000D01*
G01X965700Y-271000D02*
Y-263000D01*
X970300Y-271000D01*
Y-263000D01*
G01X974200Y-271267D02*
X977800Y-263000D01*
G01X981500Y-271000D02*
X984000Y-263000D01*
X986500Y-271000D01*
G01X985600Y-268200D02*
X982400D01*
G01X960000Y-275000D02*
X1155000D01*
G01X960000Y-250000D02*
X1155000D01*
G01X977750Y991667D02*
X977000Y992167D01*
X976125Y992500D01*
X975125D01*
X974000Y992000D01*
X973125Y991167D01*
X972500Y990167D01*
X972000Y988500D01*
X971875Y987000D01*
X972125Y985500D01*
X972500Y984500D01*
X973250Y983500D01*
X974125Y982833D01*
X975000Y982500D01*
X975875D01*
X976750Y982833D01*
X977500Y983333D01*
X978125Y984000D01*
G01X982375Y982500D02*
Y992500D01*
G01X987625D02*
Y982500D01*
G01Y987500D02*
X982375D01*
G01X991875Y982500D02*
X995000Y992500D01*
X998125Y982500D01*
G01X997000Y986000D02*
X993000D01*
G01X1002125Y982500D02*
Y992500D01*
X1007875Y982500D01*
Y992500D01*
G01X1015750Y987500D02*
X1018250D01*
Y984500D01*
X1017500Y983500D01*
X1016625Y982833D01*
X1015375Y982500D01*
X1014125Y982833D01*
X1013250Y983500D01*
X1012500Y984500D01*
X1012000Y985667D01*
X1011750Y987000D01*
Y988167D01*
X1012000Y989166D01*
X1012500Y990333D01*
X1013250Y991333D01*
X1014000Y992000D01*
X1015000Y992500D01*
X1015875D01*
X1016875Y992167D01*
X1017625Y991500D01*
G01X1027500Y982500D02*
X1022500D01*
Y992500D01*
X1027500D01*
G01X1025500Y987667D02*
X1022500D01*
G01X1032375Y983833D02*
X1033375Y983000D01*
X1034500Y982500D01*
X1035500D01*
X1036500Y983000D01*
X1037250Y983833D01*
X1037625Y985000D01*
X1037375Y986166D01*
X1036750Y987167D01*
X1035625Y987833D01*
X1034125Y988167D01*
X1033250Y988833D01*
X1032875Y990000D01*
X1033125Y991167D01*
X1033750Y992000D01*
X1034625Y992500D01*
X1035500D01*
X1036375Y992167D01*
X1037125Y991333D01*
G01X1051875Y982500D02*
X1055000Y992500D01*
X1058125Y982500D01*
G01X1057000Y986000D02*
X1053000D01*
G01X1062375Y983833D02*
X1063375Y983000D01*
X1064500Y982500D01*
X1065500D01*
X1066500Y983000D01*
X1067250Y983833D01*
X1067625Y985000D01*
X1067375Y986166D01*
X1066750Y987167D01*
X1065625Y987833D01*
X1064125Y988167D01*
X1063250Y988833D01*
X1062875Y990000D01*
X1063125Y991167D01*
X1063750Y992000D01*
X1064625Y992500D01*
X1065500D01*
X1066375Y992167D01*
X1067125Y991333D01*
G01X1082500Y982500D02*
Y992500D01*
X1085500D01*
X1086500Y992000D01*
X1087250Y990833D01*
X1087500Y989500D01*
X1087250Y988167D01*
X1086625Y987167D01*
X1085500Y986666D01*
X1082500D01*
G01X1097500Y982500D02*
X1092500D01*
Y992500D01*
X1097500D01*
G01X1095500Y987667D02*
X1092500D01*
G01X1102500Y982500D02*
Y992500D01*
X1105625D01*
X1106625Y992000D01*
X1107250Y991333D01*
X1107500Y990000D01*
X1107250Y988667D01*
X1106500Y987833D01*
X1105625Y987333D01*
X1102500D01*
G01X1105625D02*
X1107500Y982500D01*
G01X1127500D02*
X1122500D01*
Y992500D01*
X1127500D01*
G01X1125500Y987667D02*
X1122500D01*
G01X1137750Y991667D02*
X1137000Y992167D01*
X1136125Y992500D01*
X1135125D01*
X1134000Y992000D01*
X1133125Y991167D01*
X1132500Y990167D01*
X1132000Y988500D01*
X1131875Y987000D01*
X1132125Y985500D01*
X1132500Y984500D01*
X1133250Y983500D01*
X1134125Y982833D01*
X1135000Y982500D01*
X1135875D01*
X1136750Y982833D01*
X1137500Y983333D01*
X1138125Y984000D01*
G01X1142500Y982500D02*
Y992500D01*
X1145625D01*
X1146625Y992000D01*
X1147250Y991333D01*
X1147500Y990000D01*
X1147250Y988667D01*
X1146500Y987833D01*
X1145625Y987333D01*
X1142500D01*
G01X1145625D02*
X1147500Y982500D01*
G01X1153375Y985833D02*
X1156625D01*
G01X1165000Y982500D02*
Y992500D01*
X1163500Y990500D01*
G01Y982500D02*
X1166500D01*
G01X1175000D02*
Y992500D01*
X1173500Y990500D01*
G01Y982500D02*
X1176500D01*
G01X1182250Y984500D02*
X1183000Y983333D01*
X1184000Y982667D01*
X1185125Y982500D01*
X1186125Y982667D01*
X1187125Y983500D01*
X1187750Y984500D01*
X1187875Y985500D01*
X1187625Y986666D01*
X1186750Y987500D01*
X1185875Y987833D01*
X1184750D01*
G01X1185875D02*
X1186625Y988333D01*
X1187250Y989166D01*
X1187500Y990167D01*
X1187250Y991167D01*
X1186625Y992000D01*
X1185500Y992500D01*
X1184375Y992333D01*
X1183250Y991667D01*
G01X1195000Y992500D02*
X1194000Y992167D01*
X1193250Y991333D01*
X1192750Y990333D01*
X1192375Y989000D01*
X1192250Y987500D01*
X1192375Y986000D01*
X1192750Y984667D01*
X1193250Y983666D01*
X1194000Y982833D01*
X1195000Y982500D01*
X1196000Y982833D01*
X1196750Y983666D01*
X1197250Y984667D01*
X1197625Y986000D01*
X1197750Y987500D01*
X1197625Y989000D01*
X1197250Y990333D01*
X1196750Y991333D01*
X1196000Y992167D01*
X1195000Y992500D01*
G01X1206500Y982500D02*
Y992500D01*
X1201875Y985333D01*
X1208125D01*
G01X1212250Y984000D02*
X1213000Y983167D01*
X1213875Y982667D01*
X1215000Y982500D01*
X1216125Y982833D01*
X1217000Y983500D01*
X1217625Y984667D01*
X1217750Y986000D01*
X1217500Y987333D01*
X1216875Y988167D01*
X1216000Y988833D01*
X1215125Y989000D01*
X1214250Y988833D01*
X1213125Y988167D01*
X1213500Y992500D01*
X1216875D01*
G01X998000Y-242500D02*
X1000500Y-234500D01*
X1003000Y-242500D01*
G01X1002100Y-239700D02*
X998900D01*
G01X1006500Y-242500D02*
Y-234500D01*
X1008900D01*
X1009700Y-234900D01*
X1010300Y-235833D01*
X1010500Y-236900D01*
X1010300Y-237967D01*
X1009800Y-238767D01*
X1008900Y-239167D01*
X1006500D01*
G01X1014500Y-242500D02*
Y-234500D01*
X1016900D01*
X1017700Y-234900D01*
X1018300Y-235833D01*
X1018500Y-236900D01*
X1018300Y-237967D01*
X1017800Y-238767D01*
X1016900Y-239167D01*
X1014500D01*
G01X1022500Y-242500D02*
Y-234500D01*
X1025000D01*
X1025800Y-234900D01*
X1026300Y-235433D01*
X1026500Y-236500D01*
X1026300Y-237567D01*
X1025700Y-238233D01*
X1025000Y-238633D01*
X1022500D01*
G01X1025000D02*
X1026500Y-242500D01*
G01X1032500D02*
X1031700Y-242367D01*
X1031000Y-241833D01*
X1030400Y-241033D01*
X1030000Y-240100D01*
X1029800Y-239033D01*
Y-237967D01*
X1030000Y-236900D01*
X1030400Y-235967D01*
X1031000Y-235167D01*
X1031700Y-234633D01*
X1032500Y-234500D01*
X1033300Y-234633D01*
X1034000Y-235167D01*
X1034600Y-235967D01*
X1035000Y-236900D01*
X1035200Y-237967D01*
Y-239033D01*
X1035000Y-240100D01*
X1034600Y-241033D01*
X1034000Y-241833D01*
X1033300Y-242367D01*
X1032500Y-242500D01*
G01X1038000Y-234500D02*
X1040500Y-242500D01*
X1043000Y-234500D01*
G01X1046000Y-242500D02*
X1048500Y-234500D01*
X1051000Y-242500D01*
G01X1050100Y-239700D02*
X1046900D01*
G01X1054500Y-234500D02*
Y-242500D01*
X1058500D01*
G01X1030100Y308409D02*
Y158409D01*
G01X1023500Y1017500D02*
X1026500D01*
G01X1025000D02*
Y1007500D01*
G01X1023500D02*
X1026500D01*
G01X1032125D02*
Y1017500D01*
X1037875Y1007500D01*
Y1017500D01*
G01X1043500D02*
X1046500D01*
G01X1045000D02*
Y1007500D01*
G01X1043500D02*
X1046500D01*
G01X1055000Y1017500D02*
Y1007500D01*
G01X1052125Y1017500D02*
X1057875D01*
G01X1063500D02*
X1066500D01*
G01X1065000D02*
Y1007500D01*
G01X1063500D02*
X1066500D01*
G01X1071875D02*
X1075000Y1017500D01*
X1078125Y1007500D01*
G01X1077000Y1011000D02*
X1073000D01*
G01X1082500Y1017500D02*
Y1007500D01*
X1087500D01*
G01X1102500D02*
Y1017500D01*
X1105625D01*
X1106625Y1017000D01*
X1107250Y1016333D01*
X1107500Y1015000D01*
X1107250Y1013667D01*
X1106500Y1012833D01*
X1105625Y1012333D01*
X1102500D01*
G01X1105625D02*
X1107500Y1007500D01*
G01X1117500D02*
X1112500D01*
Y1017500D01*
X1117500D01*
G01X1115500Y1012667D02*
X1112500D01*
G01X1122500Y1017500D02*
Y1007500D01*
X1127500D01*
G01X1137500D02*
X1132500D01*
Y1017500D01*
X1137500D01*
G01X1135500Y1012667D02*
X1132500D01*
G01X1141875Y1007500D02*
X1145000Y1017500D01*
X1148125Y1007500D01*
G01X1147000Y1011000D02*
X1143000D01*
G01X1152375Y1008833D02*
X1153375Y1008000D01*
X1154500Y1007500D01*
X1155500D01*
X1156500Y1008000D01*
X1157250Y1008833D01*
X1157625Y1010000D01*
X1157375Y1011166D01*
X1156750Y1012167D01*
X1155625Y1012833D01*
X1154125Y1013167D01*
X1153250Y1013833D01*
X1152875Y1015000D01*
X1153125Y1016167D01*
X1153750Y1017000D01*
X1154625Y1017500D01*
X1155500D01*
X1156375Y1017167D01*
X1157125Y1016333D01*
G01X1167500Y1007500D02*
X1162500D01*
Y1017500D01*
X1167500D01*
G01X1165500Y1012667D02*
X1162500D01*
G01X1053040Y267159D02*
X1053970Y265700D01*
X1055210Y264867D01*
X1056605Y264659D01*
X1057845Y264867D01*
X1059085Y265909D01*
X1059860Y267159D01*
X1060015Y268409D01*
X1059705Y269867D01*
X1058620Y270909D01*
X1057535Y271326D01*
X1056140D01*
G01X1057535D02*
X1058465Y271951D01*
X1059240Y272992D01*
X1059550Y274242D01*
X1059240Y275492D01*
X1058465Y276534D01*
X1057070Y277159D01*
X1055675Y276951D01*
X1054280Y276117D01*
G01X1065440Y266534D02*
X1066370Y265492D01*
X1067455Y264867D01*
X1068850Y264659D01*
X1070245Y265076D01*
X1071330Y265909D01*
X1072105Y267367D01*
X1072260Y269034D01*
X1071950Y270701D01*
X1071175Y271742D01*
X1070090Y272576D01*
X1069005Y272784D01*
X1067920Y272576D01*
X1066525Y271742D01*
X1066990Y277159D01*
X1071175D01*
G01X1083110Y264659D02*
Y277159D01*
X1077375Y268201D01*
X1085125D01*
G01X1056450Y289659D02*
X1055210Y289867D01*
X1054125Y290700D01*
X1053195Y291951D01*
X1052575Y293409D01*
X1052265Y295076D01*
Y296742D01*
X1052575Y298409D01*
X1053195Y299867D01*
X1054125Y301117D01*
X1055210Y301951D01*
X1056450Y302159D01*
X1057690Y301951D01*
X1058775Y301117D01*
X1059705Y299867D01*
X1060325Y298409D01*
X1060635Y296742D01*
Y295076D01*
X1060325Y293409D01*
X1059705Y291951D01*
X1058775Y290700D01*
X1057690Y289867D01*
X1056450Y289659D01*
G01X1057690Y292992D02*
X1059550Y289659D01*
G01X1068850Y302159D02*
Y289659D01*
G01X1065285Y302159D02*
X1072415D01*
G01X1081250Y289659D02*
Y295284D01*
X1078150Y302159D01*
G01X1084350D02*
X1081250Y295284D01*
G01X1042250Y1032500D02*
Y1042500D01*
X1044750D01*
X1045750Y1042000D01*
X1046500Y1041333D01*
X1047125Y1040333D01*
X1047625Y1039166D01*
X1047750Y1037500D01*
X1047625Y1035833D01*
X1047125Y1034667D01*
X1046500Y1033666D01*
X1045750Y1033000D01*
X1044750Y1032500D01*
X1042250D01*
G01X1057500D02*
X1052500D01*
Y1042500D01*
X1057500D01*
G01X1055500Y1037667D02*
X1052500D01*
G01X1062375Y1033833D02*
X1063375Y1033000D01*
X1064500Y1032500D01*
X1065500D01*
X1066500Y1033000D01*
X1067250Y1033833D01*
X1067625Y1035000D01*
X1067375Y1036166D01*
X1066750Y1037167D01*
X1065625Y1037833D01*
X1064125Y1038167D01*
X1063250Y1038833D01*
X1062875Y1040000D01*
X1063125Y1041167D01*
X1063750Y1042000D01*
X1064625Y1042500D01*
X1065500D01*
X1066375Y1042167D01*
X1067125Y1041333D01*
G01X1077750Y1041667D02*
X1077000Y1042167D01*
X1076125Y1042500D01*
X1075125D01*
X1074000Y1042000D01*
X1073125Y1041167D01*
X1072500Y1040167D01*
X1072000Y1038500D01*
X1071875Y1037000D01*
X1072125Y1035500D01*
X1072500Y1034500D01*
X1073250Y1033500D01*
X1074125Y1032833D01*
X1075000Y1032500D01*
X1075875D01*
X1076750Y1032833D01*
X1077500Y1033333D01*
X1078125Y1034000D01*
G01X1082500Y1032500D02*
Y1042500D01*
X1085625D01*
X1086625Y1042000D01*
X1087250Y1041333D01*
X1087500Y1040000D01*
X1087250Y1038667D01*
X1086500Y1037833D01*
X1085625Y1037333D01*
X1082500D01*
G01X1085625D02*
X1087500Y1032500D01*
G01X1093500Y1042500D02*
X1096500D01*
G01X1095000D02*
Y1032500D01*
G01X1093500D02*
X1096500D01*
G01X1102500D02*
Y1042500D01*
X1105500D01*
X1106500Y1042000D01*
X1107250Y1040833D01*
X1107500Y1039500D01*
X1107250Y1038167D01*
X1106625Y1037167D01*
X1105500Y1036666D01*
X1102500D01*
G01X1115000Y1042500D02*
Y1032500D01*
G01X1112125Y1042500D02*
X1117875D01*
G01X1123500D02*
X1126500D01*
G01X1125000D02*
Y1032500D01*
G01X1123500D02*
X1126500D01*
G01X1135000D02*
X1134000Y1032667D01*
X1133125Y1033333D01*
X1132375Y1034333D01*
X1131875Y1035500D01*
X1131625Y1036833D01*
Y1038167D01*
X1131875Y1039500D01*
X1132375Y1040667D01*
X1133125Y1041667D01*
X1134000Y1042333D01*
X1135000Y1042500D01*
X1136000Y1042333D01*
X1136875Y1041667D01*
X1137625Y1040667D01*
X1138125Y1039500D01*
X1138375Y1038167D01*
Y1036833D01*
X1138125Y1035500D01*
X1137625Y1034333D01*
X1136875Y1033333D01*
X1136000Y1032667D01*
X1135000Y1032500D01*
G01X1142125D02*
Y1042500D01*
X1147875Y1032500D01*
Y1042500D01*
G01X1052500Y1057500D02*
Y1067500D01*
X1055625D01*
X1056625Y1067000D01*
X1057250Y1066333D01*
X1057500Y1065000D01*
X1057250Y1063667D01*
X1056500Y1062833D01*
X1055625Y1062333D01*
X1052500D01*
G01X1055625D02*
X1057500Y1057500D01*
G01X1067500D02*
X1062500D01*
Y1067500D01*
X1067500D01*
G01X1065500Y1062667D02*
X1062500D01*
G01X1071875Y1067500D02*
X1075000Y1057500D01*
X1078125Y1067500D01*
G01X1083500D02*
X1086500D01*
G01X1085000D02*
Y1057500D01*
G01X1083500D02*
X1086500D01*
G01X1092375Y1058833D02*
X1093375Y1058000D01*
X1094500Y1057500D01*
X1095500D01*
X1096500Y1058000D01*
X1097250Y1058833D01*
X1097625Y1060000D01*
X1097375Y1061166D01*
X1096750Y1062167D01*
X1095625Y1062833D01*
X1094125Y1063167D01*
X1093250Y1063833D01*
X1092875Y1065000D01*
X1093125Y1066167D01*
X1093750Y1067000D01*
X1094625Y1067500D01*
X1095500D01*
X1096375Y1067167D01*
X1097125Y1066333D01*
G01X1103500Y1067500D02*
X1106500D01*
G01X1105000D02*
Y1057500D01*
G01X1103500D02*
X1106500D01*
G01X1115000D02*
X1114000Y1057667D01*
X1113125Y1058333D01*
X1112375Y1059333D01*
X1111875Y1060500D01*
X1111625Y1061833D01*
Y1063167D01*
X1111875Y1064500D01*
X1112375Y1065667D01*
X1113125Y1066667D01*
X1114000Y1067333D01*
X1115000Y1067500D01*
X1116000Y1067333D01*
X1116875Y1066667D01*
X1117625Y1065667D01*
X1118125Y1064500D01*
X1118375Y1063167D01*
Y1061833D01*
X1118125Y1060500D01*
X1117625Y1059333D01*
X1116875Y1058333D01*
X1116000Y1057667D01*
X1115000Y1057500D01*
G01X1122125D02*
Y1067500D01*
X1127875Y1057500D01*
Y1067500D01*
G01X1132375Y1058833D02*
X1133375Y1058000D01*
X1134500Y1057500D01*
X1135500D01*
X1136500Y1058000D01*
X1137250Y1058833D01*
X1137625Y1060000D01*
X1137375Y1061166D01*
X1136750Y1062167D01*
X1135625Y1062833D01*
X1134125Y1063167D01*
X1133250Y1063833D01*
X1132875Y1065000D01*
X1133125Y1066167D01*
X1133750Y1067000D01*
X1134625Y1067500D01*
X1135500D01*
X1136375Y1067167D01*
X1137125Y1066333D01*
G01X1070710Y164659D02*
Y177159D01*
X1064975Y168201D01*
X1072725D01*
G01X1059705Y194867D02*
X1060790Y196326D01*
X1061720Y197159D01*
X1062960Y197576D01*
X1064045Y197159D01*
X1064820Y196326D01*
X1065440Y195076D01*
X1065595Y193617D01*
X1065440Y192367D01*
X1064820Y191117D01*
X1063890Y190076D01*
X1062805Y189659D01*
X1061565Y190076D01*
X1060480Y191325D01*
X1059860Y193201D01*
X1059705Y195284D01*
X1060015Y197992D01*
X1060480Y199451D01*
X1061255Y200909D01*
X1062340Y201951D01*
X1063425Y202159D01*
X1064510Y201742D01*
X1065285Y200701D01*
G01X1072105Y200076D02*
X1073035Y201325D01*
X1074120Y201951D01*
X1075360Y202159D01*
X1076910Y201742D01*
X1077995Y200701D01*
X1078305Y199451D01*
X1078150Y198200D01*
X1077530Y197159D01*
X1074430Y195076D01*
X1073035Y193617D01*
X1072105Y191534D01*
X1071795Y189659D01*
X1078305D01*
G01X1070710Y214659D02*
Y227159D01*
X1064975Y218201D01*
X1072725D01*
G01X1062650Y239659D02*
Y252159D01*
X1060790Y249659D01*
G01Y239659D02*
X1064510D01*
G01X1072105Y244867D02*
X1073190Y246326D01*
X1074120Y247159D01*
X1075360Y247576D01*
X1076445Y247159D01*
X1077220Y246326D01*
X1077840Y245076D01*
X1077995Y243617D01*
X1077840Y242367D01*
X1077220Y241117D01*
X1076290Y240076D01*
X1075205Y239659D01*
X1073965Y240076D01*
X1072880Y241325D01*
X1072260Y243201D01*
X1072105Y245284D01*
X1072415Y247992D01*
X1072880Y249451D01*
X1073655Y250909D01*
X1074740Y251951D01*
X1075825Y252159D01*
X1076910Y251742D01*
X1077685Y250701D01*
G01X1090000Y-225000D02*
Y-525000D01*
G01X1094700Y-496000D02*
Y-488000D01*
X1099300Y-496000D01*
Y-488000D01*
G01X1103200Y-496267D02*
X1106800Y-488000D01*
G01X1110500Y-496000D02*
X1113000Y-488000D01*
X1115500Y-496000D01*
G01X1114600Y-493200D02*
X1111400D01*
G01X1095100Y-464333D02*
X1095700Y-463533D01*
X1096400Y-463133D01*
X1097200Y-463000D01*
X1098200Y-463267D01*
X1098900Y-463933D01*
X1099100Y-464733D01*
X1099000Y-465534D01*
X1098600Y-466200D01*
X1096600Y-467533D01*
X1095700Y-468467D01*
X1095100Y-469800D01*
X1094900Y-471000D01*
X1099100D01*
G01X1106200D02*
Y-463000D01*
X1102500Y-468733D01*
X1107500D01*
G01X1110400Y-471000D02*
Y-463000D01*
X1113000Y-469667D01*
X1115600Y-463000D01*
Y-471000D01*
G01X1118500D02*
X1121000Y-463000D01*
X1123500Y-471000D01*
G01X1122600Y-468200D02*
X1119400D01*
G01X1129000Y-471000D02*
Y-467400D01*
X1127000Y-463000D01*
G01X1131000D02*
X1129000Y-467400D01*
G01X1135100Y-464333D02*
X1135700Y-463533D01*
X1136400Y-463133D01*
X1137200Y-463000D01*
X1138200Y-463267D01*
X1138900Y-463933D01*
X1139100Y-464733D01*
X1139000Y-465534D01*
X1138600Y-466200D01*
X1136600Y-467533D01*
X1135700Y-468467D01*
X1135100Y-469800D01*
X1134900Y-471000D01*
X1139100D01*
G01X1145000D02*
Y-463000D01*
X1143800Y-464600D01*
G01Y-471000D02*
X1146200D01*
G01X1095100Y-439333D02*
X1095700Y-438533D01*
X1096400Y-438133D01*
X1097200Y-438000D01*
X1098200Y-438267D01*
X1098900Y-438933D01*
X1099100Y-439733D01*
X1099000Y-440534D01*
X1098600Y-441200D01*
X1096600Y-442533D01*
X1095700Y-443467D01*
X1095100Y-444800D01*
X1094900Y-446000D01*
X1099100D01*
G01X1106200D02*
Y-438000D01*
X1102500Y-443733D01*
X1107500D01*
G01X1110400Y-446000D02*
Y-438000D01*
X1113000Y-444667D01*
X1115600Y-438000D01*
Y-446000D01*
G01X1118500D02*
X1121000Y-438000D01*
X1123500Y-446000D01*
G01X1122600Y-443200D02*
X1119400D01*
G01X1129000Y-446000D02*
Y-442400D01*
X1127000Y-438000D01*
G01X1131000D02*
X1129000Y-442400D01*
G01X1135100Y-439333D02*
X1135700Y-438533D01*
X1136400Y-438133D01*
X1137200Y-438000D01*
X1138200Y-438267D01*
X1138900Y-438933D01*
X1139100Y-439733D01*
X1139000Y-440534D01*
X1138600Y-441200D01*
X1136600Y-442533D01*
X1135700Y-443467D01*
X1135100Y-444800D01*
X1134900Y-446000D01*
X1139100D01*
G01X1145000D02*
Y-438000D01*
X1143800Y-439600D01*
G01Y-446000D02*
X1146200D01*
G01X1095100Y-414333D02*
X1095700Y-413533D01*
X1096400Y-413133D01*
X1097200Y-413000D01*
X1098200Y-413267D01*
X1098900Y-413933D01*
X1099100Y-414733D01*
X1099000Y-415534D01*
X1098600Y-416200D01*
X1096600Y-417533D01*
X1095700Y-418467D01*
X1095100Y-419800D01*
X1094900Y-421000D01*
X1099100D01*
G01X1106200D02*
Y-413000D01*
X1102500Y-418733D01*
X1107500D01*
G01X1110400Y-421000D02*
Y-413000D01*
X1113000Y-419667D01*
X1115600Y-413000D01*
Y-421000D01*
G01X1118500D02*
X1121000Y-413000D01*
X1123500Y-421000D01*
G01X1122600Y-418200D02*
X1119400D01*
G01X1129000Y-421000D02*
Y-417400D01*
X1127000Y-413000D01*
G01X1131000D02*
X1129000Y-417400D01*
G01X1135100Y-414333D02*
X1135700Y-413533D01*
X1136400Y-413133D01*
X1137200Y-413000D01*
X1138200Y-413267D01*
X1138900Y-413933D01*
X1139100Y-414733D01*
X1139000Y-415534D01*
X1138600Y-416200D01*
X1136600Y-417533D01*
X1135700Y-418467D01*
X1135100Y-419800D01*
X1134900Y-421000D01*
X1139100D01*
G01X1145000D02*
Y-413000D01*
X1143800Y-414600D01*
G01Y-421000D02*
X1146200D01*
G01X1094700Y-396000D02*
Y-388000D01*
X1099300Y-396000D01*
Y-388000D01*
G01X1103200Y-396267D02*
X1106800Y-388000D01*
G01X1110500Y-396000D02*
X1113000Y-388000D01*
X1115500Y-396000D01*
G01X1114600Y-393200D02*
X1111400D01*
G01X1095100Y-364333D02*
X1095700Y-363533D01*
X1096400Y-363133D01*
X1097200Y-363000D01*
X1098200Y-363267D01*
X1098900Y-363933D01*
X1099100Y-364733D01*
X1099000Y-365534D01*
X1098600Y-366200D01*
X1096600Y-367533D01*
X1095700Y-368467D01*
X1095100Y-369800D01*
X1094900Y-371000D01*
X1099100D01*
G01X1106200D02*
Y-363000D01*
X1102500Y-368733D01*
X1107500D01*
G01X1110400Y-371000D02*
Y-363000D01*
X1113000Y-369667D01*
X1115600Y-363000D01*
Y-371000D01*
G01X1118500D02*
X1121000Y-363000D01*
X1123500Y-371000D01*
G01X1122600Y-368200D02*
X1119400D01*
G01X1129000Y-371000D02*
Y-367400D01*
X1127000Y-363000D01*
G01X1131000D02*
X1129000Y-367400D01*
G01X1135100Y-364333D02*
X1135700Y-363533D01*
X1136400Y-363133D01*
X1137200Y-363000D01*
X1138200Y-363267D01*
X1138900Y-363933D01*
X1139100Y-364733D01*
X1139000Y-365534D01*
X1138600Y-366200D01*
X1136600Y-367533D01*
X1135700Y-368467D01*
X1135100Y-369800D01*
X1134900Y-371000D01*
X1139100D01*
G01X1145000D02*
Y-363000D01*
X1143800Y-364600D01*
G01Y-371000D02*
X1146200D01*
G01X1094700Y-346000D02*
Y-338000D01*
X1099300Y-346000D01*
Y-338000D01*
G01X1103200Y-346267D02*
X1106800Y-338000D01*
G01X1110500Y-346000D02*
X1113000Y-338000D01*
X1115500Y-346000D01*
G01X1114600Y-343200D02*
X1111400D01*
G01X1094700Y-321000D02*
Y-313000D01*
X1099300Y-321000D01*
Y-313000D01*
G01X1103200Y-321267D02*
X1106800Y-313000D01*
G01X1110500Y-321000D02*
X1113000Y-313000D01*
X1115500Y-321000D01*
G01X1114600Y-318200D02*
X1111400D01*
G01X1095100Y-289333D02*
X1095700Y-288533D01*
X1096400Y-288133D01*
X1097200Y-288000D01*
X1098200Y-288267D01*
X1098900Y-288933D01*
X1099100Y-289733D01*
X1099000Y-290534D01*
X1098600Y-291200D01*
X1096600Y-292533D01*
X1095700Y-293467D01*
X1095100Y-294800D01*
X1094900Y-296000D01*
X1099100D01*
G01X1106200D02*
Y-288000D01*
X1102500Y-293733D01*
X1107500D01*
G01X1110400Y-296000D02*
Y-288000D01*
X1113000Y-294667D01*
X1115600Y-288000D01*
Y-296000D01*
G01X1118500D02*
X1121000Y-288000D01*
X1123500Y-296000D01*
G01X1122600Y-293200D02*
X1119400D01*
G01X1129000Y-296000D02*
Y-292400D01*
X1127000Y-288000D01*
G01X1131000D02*
X1129000Y-292400D01*
G01X1135100Y-289333D02*
X1135700Y-288533D01*
X1136400Y-288133D01*
X1137200Y-288000D01*
X1138200Y-288267D01*
X1138900Y-288933D01*
X1139100Y-289733D01*
X1139000Y-290534D01*
X1138600Y-291200D01*
X1136600Y-292533D01*
X1135700Y-293467D01*
X1135100Y-294800D01*
X1134900Y-296000D01*
X1139100D01*
G01X1145000D02*
Y-288000D01*
X1143800Y-289600D01*
G01Y-296000D02*
X1146200D01*
G01X1094700Y-271000D02*
Y-263000D01*
X1099300Y-271000D01*
Y-263000D01*
G01X1103200Y-271267D02*
X1106800Y-263000D01*
G01X1110500Y-271000D02*
X1113000Y-263000D01*
X1115500Y-271000D01*
G01X1114600Y-268200D02*
X1111400D01*
G01X1105000Y-525000D02*
Y-555000D01*
G01X1110800Y-242500D02*
Y-234500D01*
X1112800D01*
X1113600Y-234900D01*
X1114200Y-235433D01*
X1114700Y-236233D01*
X1115100Y-237167D01*
X1115200Y-238500D01*
X1115100Y-239833D01*
X1114700Y-240767D01*
X1114200Y-241567D01*
X1113600Y-242100D01*
X1112800Y-242500D01*
X1110800D01*
G01X1118500D02*
X1121000Y-234500D01*
X1123500Y-242500D01*
G01X1122600Y-239700D02*
X1119400D01*
G01X1129000Y-234500D02*
Y-242500D01*
G01X1126700Y-234500D02*
X1131300D01*
G01X1139000Y-242500D02*
X1135000D01*
Y-234500D01*
X1139000D01*
G01X1137400Y-238367D02*
X1135000D01*
G01X1107600Y308409D02*
Y158409D01*
G01X1121550Y302159D02*
Y289659D01*
G01X1117985Y302159D02*
X1125115D01*
G01X1133950Y289659D02*
X1132710Y289867D01*
X1131625Y290700D01*
X1130695Y291951D01*
X1130075Y293409D01*
X1129765Y295076D01*
Y296742D01*
X1130075Y298409D01*
X1130695Y299867D01*
X1131625Y301117D01*
X1132710Y301951D01*
X1133950Y302159D01*
X1135190Y301951D01*
X1136275Y301117D01*
X1137205Y299867D01*
X1137825Y298409D01*
X1138135Y296742D01*
Y295076D01*
X1137825Y293409D01*
X1137205Y291951D01*
X1136275Y290700D01*
X1135190Y289867D01*
X1133950Y289659D01*
G01X1143250Y302159D02*
Y289659D01*
X1149450D01*
G01X1161850D02*
X1155650D01*
Y302159D01*
X1161850D01*
G01X1159370Y296117D02*
X1155650D01*
G01X1168050Y289659D02*
Y302159D01*
X1171925D01*
X1173165Y301534D01*
X1173940Y300701D01*
X1174250Y299034D01*
X1173940Y297367D01*
X1173010Y296326D01*
X1171925Y295701D01*
X1168050D01*
G01X1171925D02*
X1174250Y289659D01*
G01X1179675D02*
X1183550Y302159D01*
X1187425Y289659D01*
G01X1186030Y294034D02*
X1181070D01*
G01X1192385Y289659D02*
Y302159D01*
X1199515Y289659D01*
Y302159D01*
G01X1211760Y301117D02*
X1210830Y301742D01*
X1209745Y302159D01*
X1208505D01*
X1207110Y301534D01*
X1206025Y300492D01*
X1205250Y299242D01*
X1204630Y297159D01*
X1204475Y295284D01*
X1204785Y293409D01*
X1205250Y292159D01*
X1206180Y290909D01*
X1207265Y290076D01*
X1208350Y289659D01*
X1209435D01*
X1210520Y290076D01*
X1211450Y290700D01*
X1212225Y291534D01*
G01X1223850Y289659D02*
X1217650D01*
Y302159D01*
X1223850D01*
G01X1221370Y296117D02*
X1217650D01*
G01X1230360Y289242D02*
X1235940Y302159D01*
G01X1241985Y289659D02*
Y302159D01*
X1249115Y289659D01*
Y302159D01*
G01X1257950Y289659D02*
X1256710Y289867D01*
X1255625Y290700D01*
X1254695Y291951D01*
X1254075Y293409D01*
X1253765Y295076D01*
Y296742D01*
X1254075Y298409D01*
X1254695Y299867D01*
X1255625Y301117D01*
X1256710Y301951D01*
X1257950Y302159D01*
X1259190Y301951D01*
X1260275Y301117D01*
X1261205Y299867D01*
X1261825Y298409D01*
X1262135Y296742D01*
Y295076D01*
X1261825Y293409D01*
X1261205Y291951D01*
X1260275Y290700D01*
X1259190Y289867D01*
X1257950Y289659D01*
G01X1270350Y302159D02*
Y289659D01*
G01X1266785Y302159D02*
X1273915D01*
G01X1285850Y289659D02*
X1279650D01*
Y302159D01*
X1285850D01*
G01X1283370Y296117D02*
X1279650D01*
G01X1291895Y291325D02*
X1293135Y290284D01*
X1294530Y289659D01*
X1295770D01*
X1297010Y290284D01*
X1297940Y291325D01*
X1298405Y292784D01*
X1298095Y294242D01*
X1297320Y295492D01*
X1295925Y296326D01*
X1294065Y296742D01*
X1292980Y297576D01*
X1292515Y299034D01*
X1292825Y300492D01*
X1293600Y301534D01*
X1294685Y302159D01*
X1295770D01*
X1296855Y301742D01*
X1297785Y300701D01*
G01X1105000Y1075000D02*
Y1105000D01*
G01X1155000Y-525000D02*
Y-225000D01*
G01X1160390Y264500D02*
Y277000D01*
X1163490D01*
X1164730Y276375D01*
X1165660Y275542D01*
X1166435Y274292D01*
X1167055Y272833D01*
X1167210Y270750D01*
X1167055Y268667D01*
X1166435Y267208D01*
X1165660Y265958D01*
X1164730Y265125D01*
X1163490Y264500D01*
X1160390D01*
G01X1174340Y277000D02*
X1178060D01*
G01X1176200D02*
Y264500D01*
G01X1174340D02*
X1178060D01*
G01X1184725D02*
X1188600Y277000D01*
X1192475Y264500D01*
G01X1191080Y268875D02*
X1186120D01*
G01X1209370Y264500D02*
Y277000D01*
X1213400Y266583D01*
X1217430Y277000D01*
Y264500D01*
G01X1221925D02*
X1225800Y277000D01*
X1229675Y264500D01*
G01X1228280Y268875D02*
X1223320D01*
G01X1234945Y264500D02*
X1241455Y277000D01*
G01X1234945D02*
X1241455Y264500D01*
G01X1165900Y-516434D02*
X1166700Y-517100D01*
X1167600Y-517500D01*
X1168400D01*
X1169200Y-517100D01*
X1169800Y-516434D01*
X1170100Y-515500D01*
X1169900Y-514567D01*
X1169400Y-513767D01*
X1168500Y-513233D01*
X1167300Y-512967D01*
X1166600Y-512433D01*
X1166300Y-511500D01*
X1166500Y-510567D01*
X1167000Y-509900D01*
X1167700Y-509500D01*
X1168400D01*
X1169100Y-509767D01*
X1169700Y-510433D01*
G01X1178200Y-510167D02*
X1177600Y-509767D01*
X1176900Y-509500D01*
X1176100D01*
X1175200Y-509900D01*
X1174500Y-510567D01*
X1174000Y-511367D01*
X1173600Y-512700D01*
X1173500Y-513900D01*
X1173700Y-515100D01*
X1174000Y-515900D01*
X1174600Y-516700D01*
X1175300Y-517233D01*
X1176000Y-517500D01*
X1176700D01*
X1177400Y-517233D01*
X1178000Y-516833D01*
X1178500Y-516300D01*
G01X1181500Y-517500D02*
X1184000Y-509500D01*
X1186500Y-517500D01*
G01X1185600Y-514700D02*
X1182400D01*
G01X1190000Y-509500D02*
Y-517500D01*
X1194000D01*
G01X1202000D02*
X1198000D01*
Y-509500D01*
X1202000D01*
G01X1200400Y-513367D02*
X1198000D01*
G01X1185500Y-466667D02*
X1184000Y-465667D01*
X1182250Y-465000D01*
X1180250D01*
X1178000Y-466000D01*
X1176250Y-467667D01*
X1175000Y-469667D01*
X1174000Y-473000D01*
X1173750Y-476000D01*
X1174250Y-479000D01*
X1175000Y-481000D01*
X1176500Y-483000D01*
X1178250Y-484333D01*
X1180000Y-485000D01*
X1181750D01*
X1183500Y-484333D01*
X1185000Y-483334D01*
X1186250Y-482001D01*
G01X1165900Y-443934D02*
X1166700Y-444600D01*
X1167600Y-445000D01*
X1168400D01*
X1169200Y-444600D01*
X1169800Y-443934D01*
X1170100Y-443000D01*
X1169900Y-442067D01*
X1169400Y-441267D01*
X1168500Y-440733D01*
X1167300Y-440467D01*
X1166600Y-439933D01*
X1166300Y-439000D01*
X1166500Y-438067D01*
X1167000Y-437400D01*
X1167700Y-437000D01*
X1168400D01*
X1169100Y-437267D01*
X1169700Y-437933D01*
G01X1174800Y-437000D02*
X1177200D01*
G01X1176000D02*
Y-445000D01*
G01X1174800D02*
X1177200D01*
G01X1182100Y-437000D02*
X1185900D01*
X1182100Y-445000D01*
X1185900D01*
G01X1194000D02*
X1190000D01*
Y-437000D01*
X1194000D01*
G01X1192400Y-440867D02*
X1190000D01*
G01X1168000Y-313000D02*
Y-321000D01*
G01X1165700Y-313000D02*
X1170300D01*
G01X1174800D02*
X1177200D01*
G01X1176000D02*
Y-321000D01*
G01X1174800D02*
X1177200D01*
G01X1184000Y-313000D02*
Y-321000D01*
G01X1181700Y-313000D02*
X1186300D01*
G01X1190000D02*
Y-321000D01*
X1194000D01*
G01X1202000D02*
X1198000D01*
Y-313000D01*
X1202000D01*
G01X1200400Y-316867D02*
X1198000D01*
G01X1210250Y-468333D02*
X1211750Y-466334D01*
X1213500Y-465333D01*
X1215500Y-465000D01*
X1218000Y-465667D01*
X1219750Y-467333D01*
X1220250Y-469333D01*
X1220000Y-471334D01*
X1219000Y-473000D01*
X1214000Y-476333D01*
X1211750Y-478667D01*
X1210250Y-482001D01*
X1209750Y-485000D01*
X1220250D01*
G01X1238000D02*
Y-465000D01*
X1228750Y-479333D01*
X1241250D01*
G01X1249500Y-481000D02*
X1251000Y-483334D01*
X1253000Y-484667D01*
X1255250Y-485000D01*
X1257250Y-484667D01*
X1259250Y-483000D01*
X1260500Y-481000D01*
X1260750Y-479000D01*
X1260250Y-476667D01*
X1258500Y-475000D01*
X1256750Y-474333D01*
X1254500D01*
G01X1256750D02*
X1258250Y-473333D01*
X1259500Y-471667D01*
X1260000Y-469667D01*
X1259500Y-467667D01*
X1258250Y-466000D01*
X1256000Y-465000D01*
X1253750Y-465333D01*
X1251500Y-466667D01*
G01X1269500Y-482001D02*
X1271000Y-483667D01*
X1272750Y-484667D01*
X1275000Y-485000D01*
X1277250Y-484333D01*
X1279000Y-483000D01*
X1280250Y-480667D01*
X1280500Y-478000D01*
X1280000Y-475334D01*
X1278750Y-473667D01*
X1277000Y-472334D01*
X1275250Y-472000D01*
X1273500Y-472334D01*
X1271250Y-473667D01*
X1272000Y-465000D01*
X1278750D01*
G01X1289500Y-482001D02*
X1291000Y-483667D01*
X1292750Y-484667D01*
X1295000Y-485000D01*
X1297250Y-484333D01*
X1299000Y-483000D01*
X1300250Y-480667D01*
X1300500Y-478000D01*
X1300000Y-475334D01*
X1298750Y-473667D01*
X1297000Y-472334D01*
X1295250Y-472000D01*
X1293500Y-472334D01*
X1291250Y-473667D01*
X1292000Y-465000D01*
X1298750D01*
G01X1205000Y-500000D02*
Y-425000D01*
G01X1221100Y-445000D02*
Y-437000D01*
X1224900D01*
G01X1223500Y-440867D02*
X1221100D01*
G01X1228900Y-443934D02*
X1229700Y-444600D01*
X1230600Y-445000D01*
X1231400D01*
X1232200Y-444600D01*
X1232800Y-443934D01*
X1233100Y-443000D01*
X1232900Y-442067D01*
X1232400Y-441267D01*
X1231500Y-440733D01*
X1230300Y-440467D01*
X1229600Y-439933D01*
X1229300Y-439000D01*
X1229500Y-438067D01*
X1230000Y-437400D01*
X1230700Y-437000D01*
X1231400D01*
X1232100Y-437267D01*
X1232700Y-437933D01*
G01X1241200Y-437667D02*
X1240600Y-437267D01*
X1239900Y-437000D01*
X1239100D01*
X1238200Y-437400D01*
X1237500Y-438067D01*
X1237000Y-438867D01*
X1236600Y-440200D01*
X1236500Y-441400D01*
X1236700Y-442600D01*
X1237000Y-443400D01*
X1237600Y-444200D01*
X1238300Y-444733D01*
X1239000Y-445000D01*
X1239700D01*
X1240400Y-444733D01*
X1241000Y-444333D01*
X1241500Y-443800D01*
G01X1244400Y-445000D02*
Y-437000D01*
X1247000Y-443667D01*
X1249600Y-437000D01*
Y-445000D01*
G01X1260700D02*
Y-437000D01*
X1265300Y-445000D01*
Y-437000D01*
G01X1271000Y-445000D02*
X1270200Y-444867D01*
X1269500Y-444333D01*
X1268900Y-443533D01*
X1268500Y-442600D01*
X1268300Y-441533D01*
Y-440467D01*
X1268500Y-439400D01*
X1268900Y-438467D01*
X1269500Y-437667D01*
X1270200Y-437133D01*
X1271000Y-437000D01*
X1271800Y-437133D01*
X1272500Y-437667D01*
X1273100Y-438467D01*
X1273500Y-439400D01*
X1273700Y-440467D01*
Y-441533D01*
X1273500Y-442600D01*
X1273100Y-443533D01*
X1272500Y-444333D01*
X1271800Y-444867D01*
X1271000Y-445000D01*
G01X1227400Y-409000D02*
X1218000D01*
Y-390200D01*
X1227400D01*
G01X1223640Y-399286D02*
X1218000D01*
G01X1235625Y-390200D02*
X1241500Y-409000D01*
X1247375Y-390200D01*
G01X1254425Y-409000D02*
X1260300Y-390200D01*
X1266175Y-409000D01*
G01X1264060Y-402420D02*
X1256540D01*
G01X1274400Y-390200D02*
Y-409000D01*
X1283800D01*
G01X1292730Y-390200D02*
Y-403673D01*
X1293670Y-406494D01*
X1295550Y-408373D01*
X1297900Y-409000D01*
X1300250Y-408373D01*
X1302130Y-406494D01*
X1303070Y-403673D01*
Y-390200D01*
G01X1310825Y-409000D02*
X1316700Y-390200D01*
X1322575Y-409000D01*
G01X1320460Y-402420D02*
X1312940D01*
G01X1335500Y-390200D02*
Y-409000D01*
G01X1330095Y-390200D02*
X1340905D01*
G01X1351480D02*
X1357120D01*
G01X1354300D02*
Y-409000D01*
G01X1351480D02*
X1357120D01*
G01X1373100D02*
X1371220Y-408687D01*
X1369575Y-407434D01*
X1368165Y-405553D01*
X1367225Y-403360D01*
X1366755Y-400853D01*
Y-398347D01*
X1367225Y-395840D01*
X1368165Y-393647D01*
X1369575Y-391767D01*
X1371220Y-390513D01*
X1373100Y-390200D01*
X1374980Y-390513D01*
X1376625Y-391767D01*
X1378035Y-393647D01*
X1378975Y-395840D01*
X1379445Y-398347D01*
Y-400853D01*
X1378975Y-403360D01*
X1378035Y-405553D01*
X1376625Y-407434D01*
X1374980Y-408687D01*
X1373100Y-409000D01*
G01X1386495D02*
Y-390200D01*
X1397305Y-409000D01*
Y-390200D01*
G01X1431380Y-398973D02*
X1432320Y-398033D01*
X1433025Y-396467D01*
X1433495Y-394273D01*
X1433025Y-392393D01*
X1432085Y-391140D01*
X1430440Y-390200D01*
X1424095D01*
Y-409000D01*
X1431850D01*
X1433495Y-407747D01*
X1434435Y-405867D01*
X1434905Y-403673D01*
X1434435Y-401480D01*
X1433025Y-399600D01*
X1431380Y-398973D01*
X1424095D01*
G01X1448300Y-409000D02*
X1446420Y-408687D01*
X1444775Y-407434D01*
X1443365Y-405553D01*
X1442425Y-403360D01*
X1441955Y-400853D01*
Y-398347D01*
X1442425Y-395840D01*
X1443365Y-393647D01*
X1444775Y-391767D01*
X1446420Y-390513D01*
X1448300Y-390200D01*
X1450180Y-390513D01*
X1451825Y-391767D01*
X1453235Y-393647D01*
X1454175Y-395840D01*
X1454645Y-398347D01*
Y-400853D01*
X1454175Y-403360D01*
X1453235Y-405553D01*
X1451825Y-407434D01*
X1450180Y-408687D01*
X1448300Y-409000D01*
G01X1461225D02*
X1467100Y-390200D01*
X1472975Y-409000D01*
G01X1470860Y-402420D02*
X1463340D01*
G01X1481200Y-409000D02*
Y-390200D01*
X1487075D01*
X1488955Y-391140D01*
X1490130Y-392393D01*
X1490600Y-394900D01*
X1490130Y-397407D01*
X1488720Y-398973D01*
X1487075Y-399914D01*
X1481200D01*
G01X1487075D02*
X1490600Y-409000D01*
G01X1499530D02*
Y-390200D01*
X1504230D01*
X1506110Y-391140D01*
X1507520Y-392393D01*
X1508695Y-394273D01*
X1509635Y-396467D01*
X1509870Y-399600D01*
X1509635Y-402734D01*
X1508695Y-404927D01*
X1507520Y-406807D01*
X1506110Y-408060D01*
X1504230Y-409000D01*
X1499530D01*
G01X1537835Y-390200D02*
X1546765D01*
X1537835Y-409000D01*
X1546765D01*
G01X1243750Y-517500D02*
Y-507500D01*
X1242250Y-509500D01*
G01Y-517500D02*
X1245250D01*
G01X1251500Y-517833D02*
X1256000Y-507500D01*
G01X1263750Y-517500D02*
Y-507500D01*
X1262250Y-509500D01*
G01Y-517500D02*
X1265250D01*
G01X1249025Y-376500D02*
X1254900Y-357700D01*
X1260775Y-376500D01*
G01X1258660Y-369920D02*
X1251140D01*
G01X1268530Y-376500D02*
Y-357700D01*
X1273230D01*
X1275110Y-358640D01*
X1276520Y-359893D01*
X1277695Y-361773D01*
X1278635Y-363967D01*
X1278870Y-367100D01*
X1278635Y-370234D01*
X1277695Y-372427D01*
X1276520Y-374307D01*
X1275110Y-375560D01*
X1273230Y-376500D01*
X1268530D01*
G01X1287330Y-373681D02*
X1288740Y-375247D01*
X1290385Y-376187D01*
X1292500Y-376500D01*
X1294615Y-375873D01*
X1296260Y-374620D01*
X1297435Y-372427D01*
X1297670Y-369920D01*
X1297200Y-367414D01*
X1296025Y-365847D01*
X1294380Y-364594D01*
X1292735Y-364280D01*
X1291090Y-364594D01*
X1288975Y-365847D01*
X1289680Y-357700D01*
X1296025D01*
G01X1307305Y-374307D02*
X1308950Y-375873D01*
X1310830Y-376500D01*
X1312710Y-375873D01*
X1314355Y-373994D01*
X1315530Y-371173D01*
X1316000Y-368353D01*
Y-364907D01*
X1315530Y-362087D01*
X1314355Y-359580D01*
X1312945Y-358327D01*
X1311300Y-357700D01*
X1309420Y-358327D01*
X1308010Y-359580D01*
X1307070Y-361460D01*
X1306600Y-363967D01*
X1307070Y-366160D01*
X1308245Y-368353D01*
X1309655Y-369607D01*
X1311300Y-369920D01*
X1313180Y-369294D01*
X1314590Y-367727D01*
X1316000Y-364907D01*
G01X1332920Y-376500D02*
Y-357700D01*
X1324225Y-371173D01*
X1335975D01*
G01X1348900Y-357700D02*
X1347020Y-358327D01*
X1345610Y-359893D01*
X1344670Y-361773D01*
X1343965Y-364280D01*
X1343730Y-367100D01*
X1343965Y-369920D01*
X1344670Y-372427D01*
X1345610Y-374307D01*
X1347020Y-375873D01*
X1348900Y-376500D01*
X1350780Y-375873D01*
X1352190Y-374307D01*
X1353130Y-372427D01*
X1353835Y-369920D01*
X1354070Y-367100D01*
X1353835Y-364280D01*
X1353130Y-361773D01*
X1352190Y-359893D01*
X1350780Y-358327D01*
X1348900Y-357700D01*
G01X1391670Y-359267D02*
X1390260Y-358327D01*
X1388615Y-357700D01*
X1386735D01*
X1384620Y-358640D01*
X1382975Y-360207D01*
X1381800Y-362087D01*
X1380860Y-365220D01*
X1380625Y-368040D01*
X1381095Y-370860D01*
X1381800Y-372740D01*
X1383210Y-374620D01*
X1384855Y-375873D01*
X1386500Y-376500D01*
X1388145D01*
X1389790Y-375873D01*
X1391200Y-374934D01*
X1392375Y-373681D01*
G01X1400130Y-357700D02*
Y-371173D01*
X1401070Y-373994D01*
X1402950Y-375873D01*
X1405300Y-376500D01*
X1407650Y-375873D01*
X1409530Y-373994D01*
X1410470Y-371173D01*
Y-357700D01*
G01X1419165Y-373994D02*
X1421045Y-375560D01*
X1423160Y-376500D01*
X1425040D01*
X1426920Y-375560D01*
X1428330Y-373994D01*
X1429035Y-371800D01*
X1428565Y-369607D01*
X1427390Y-367727D01*
X1425275Y-366473D01*
X1422455Y-365847D01*
X1420810Y-364594D01*
X1420105Y-362400D01*
X1420575Y-360207D01*
X1421750Y-358640D01*
X1423395Y-357700D01*
X1425040D01*
X1426685Y-358327D01*
X1428095Y-359893D01*
G01X1442900Y-357700D02*
Y-376500D01*
G01X1437495Y-357700D02*
X1448305D01*
G01X1461700Y-376500D02*
X1459820Y-376187D01*
X1458175Y-374934D01*
X1456765Y-373053D01*
X1455825Y-370860D01*
X1455355Y-368353D01*
Y-365847D01*
X1455825Y-363340D01*
X1456765Y-361147D01*
X1458175Y-359267D01*
X1459820Y-358013D01*
X1461700Y-357700D01*
X1463580Y-358013D01*
X1465225Y-359267D01*
X1466635Y-361147D01*
X1467575Y-363340D01*
X1468045Y-365847D01*
Y-368353D01*
X1467575Y-370860D01*
X1466635Y-373053D01*
X1465225Y-374934D01*
X1463580Y-376187D01*
X1461700Y-376500D01*
G01X1474390D02*
Y-357700D01*
X1480500Y-373367D01*
X1486610Y-357700D01*
Y-376500D01*
G01X1504000D02*
X1494600D01*
Y-357700D01*
X1504000D01*
G01X1500240Y-366786D02*
X1494600D01*
G01X1513400Y-376500D02*
Y-357700D01*
X1519275D01*
X1521155Y-358640D01*
X1522330Y-359893D01*
X1522800Y-362400D01*
X1522330Y-364907D01*
X1520920Y-366473D01*
X1519275Y-367414D01*
X1513400D01*
G01X1519275D02*
X1522800Y-376500D01*
G01X1281535Y-342500D02*
Y-323700D01*
X1290465D01*
G01X1287175Y-332786D02*
X1281535D01*
G01X1298925Y-342500D02*
X1304800Y-323700D01*
X1310675Y-342500D01*
G01X1308560Y-335920D02*
X1301040D01*
G01X1325480Y-332473D02*
X1326420Y-331533D01*
X1327125Y-329967D01*
X1327595Y-327773D01*
X1327125Y-325893D01*
X1326185Y-324640D01*
X1324540Y-323700D01*
X1318195D01*
Y-342500D01*
X1325950D01*
X1327595Y-341247D01*
X1328535Y-339367D01*
X1329005Y-337173D01*
X1328535Y-334980D01*
X1327125Y-333100D01*
X1325480Y-332473D01*
X1318195D01*
G01X1337700Y-342500D02*
Y-323700D01*
X1343575D01*
X1345455Y-324640D01*
X1346630Y-325893D01*
X1347100Y-328400D01*
X1346630Y-330907D01*
X1345220Y-332473D01*
X1343575Y-333414D01*
X1337700D01*
G01X1343575D02*
X1347100Y-342500D01*
G01X1358380Y-323700D02*
X1364020D01*
G01X1361200D02*
Y-342500D01*
G01X1358380D02*
X1364020D01*
G01X1385170Y-325267D02*
X1383760Y-324327D01*
X1382115Y-323700D01*
X1380235D01*
X1378120Y-324640D01*
X1376475Y-326207D01*
X1375300Y-328087D01*
X1374360Y-331220D01*
X1374125Y-334040D01*
X1374595Y-336860D01*
X1375300Y-338740D01*
X1376710Y-340620D01*
X1378355Y-341873D01*
X1380000Y-342500D01*
X1381645D01*
X1383290Y-341873D01*
X1384700Y-340934D01*
X1385875Y-339681D01*
G01X1392925Y-342500D02*
X1398800Y-323700D01*
X1404675Y-342500D01*
G01X1402560Y-335920D02*
X1395040D01*
G01X1417600Y-323700D02*
Y-342500D01*
G01X1412195Y-323700D02*
X1423005D01*
G01X1433580D02*
X1439220D01*
G01X1436400D02*
Y-342500D01*
G01X1433580D02*
X1439220D01*
G01X1455200D02*
X1453320Y-342187D01*
X1451675Y-340934D01*
X1450265Y-339053D01*
X1449325Y-336860D01*
X1448855Y-334353D01*
Y-331847D01*
X1449325Y-329340D01*
X1450265Y-327147D01*
X1451675Y-325267D01*
X1453320Y-324013D01*
X1455200Y-323700D01*
X1457080Y-324013D01*
X1458725Y-325267D01*
X1460135Y-327147D01*
X1461075Y-329340D01*
X1461545Y-331847D01*
Y-334353D01*
X1461075Y-336860D01*
X1460135Y-339053D01*
X1458725Y-340934D01*
X1457080Y-342187D01*
X1455200Y-342500D01*
G01X1468595D02*
Y-323700D01*
X1479405Y-342500D01*
Y-323700D01*
G01X1305000Y-525000D02*
Y-425000D01*
G01X1310800Y-445000D02*
Y-437000D01*
X1312800D01*
X1313600Y-437400D01*
X1314200Y-437933D01*
X1314700Y-438733D01*
X1315100Y-439667D01*
X1315200Y-441000D01*
X1315100Y-442333D01*
X1314700Y-443267D01*
X1314200Y-444067D01*
X1313600Y-444600D01*
X1312800Y-445000D01*
X1310800D01*
G01X1319000D02*
Y-437000D01*
X1321500D01*
X1322300Y-437400D01*
X1322800Y-437933D01*
X1323000Y-439000D01*
X1322800Y-440067D01*
X1322200Y-440733D01*
X1321500Y-441133D01*
X1319000D01*
G01X1321500D02*
X1323000Y-445000D01*
G01X1326500D02*
X1329000Y-437000D01*
X1331500Y-445000D01*
G01X1330600Y-442200D02*
X1327400D01*
G01X1334000Y-437000D02*
X1335400Y-445000D01*
X1337000Y-437000D01*
X1338600Y-445000D01*
X1340000Y-437000D01*
G01X1343800D02*
X1346200D01*
G01X1345000D02*
Y-445000D01*
G01X1343800D02*
X1346200D01*
G01X1350700D02*
Y-437000D01*
X1355300Y-445000D01*
Y-437000D01*
G01X1361600Y-441000D02*
X1363600D01*
Y-443400D01*
X1363000Y-444200D01*
X1362300Y-444733D01*
X1361300Y-445000D01*
X1360300Y-444733D01*
X1359600Y-444200D01*
X1359000Y-443400D01*
X1358600Y-442467D01*
X1358400Y-441400D01*
Y-440467D01*
X1358600Y-439667D01*
X1359000Y-438733D01*
X1359600Y-437933D01*
X1360200Y-437400D01*
X1361000Y-437000D01*
X1361700D01*
X1362500Y-437267D01*
X1363100Y-437800D01*
G01X1374700Y-445000D02*
Y-437000D01*
X1379300Y-445000D01*
Y-437000D01*
G01X1382800D02*
Y-442733D01*
X1383200Y-443934D01*
X1384000Y-444733D01*
X1385000Y-445000D01*
X1386000Y-444733D01*
X1386800Y-443934D01*
X1387200Y-442733D01*
Y-437000D01*
G01X1390400Y-445000D02*
Y-437000D01*
X1393000Y-443667D01*
X1395600Y-437000D01*
Y-445000D01*
G01X1401800Y-440733D02*
X1402200Y-440333D01*
X1402500Y-439667D01*
X1402700Y-438733D01*
X1402500Y-437933D01*
X1402100Y-437400D01*
X1401400Y-437000D01*
X1398700D01*
Y-445000D01*
X1402000D01*
X1402700Y-444467D01*
X1403100Y-443667D01*
X1403300Y-442733D01*
X1403100Y-441800D01*
X1402500Y-441000D01*
X1401800Y-440733D01*
X1398700D01*
G01X1411000Y-445000D02*
X1407000D01*
Y-437000D01*
X1411000D01*
G01X1409400Y-440867D02*
X1407000D01*
G01X1415000Y-445000D02*
Y-437000D01*
X1417500D01*
X1418300Y-437400D01*
X1418800Y-437933D01*
X1419000Y-439000D01*
X1418800Y-440067D01*
X1418200Y-440733D01*
X1417500Y-441133D01*
X1415000D01*
G01X1417500D02*
X1419000Y-445000D01*
G01X1322500Y-465000D02*
X1320500Y-465667D01*
X1319000Y-467333D01*
X1318000Y-469333D01*
X1317250Y-472000D01*
X1317000Y-475000D01*
X1317250Y-478000D01*
X1318000Y-480667D01*
X1319000Y-482667D01*
X1320500Y-484333D01*
X1322500Y-485000D01*
X1324500Y-484333D01*
X1326000Y-482667D01*
X1327000Y-480667D01*
X1327750Y-478000D01*
X1328000Y-475000D01*
X1327750Y-472000D01*
X1327000Y-469333D01*
X1326000Y-467333D01*
X1324500Y-465667D01*
X1322500Y-465000D01*
G01X1338250Y-482667D02*
X1340000Y-484333D01*
X1342000Y-485000D01*
X1344000Y-484333D01*
X1345750Y-482334D01*
X1347000Y-479333D01*
X1347500Y-476333D01*
Y-472667D01*
X1347000Y-469667D01*
X1345750Y-467000D01*
X1344250Y-465667D01*
X1342500Y-465000D01*
X1340500Y-465667D01*
X1339000Y-467000D01*
X1338000Y-469000D01*
X1337500Y-471667D01*
X1338000Y-474000D01*
X1339250Y-476333D01*
X1340750Y-477667D01*
X1342500Y-478000D01*
X1344500Y-477334D01*
X1346000Y-475667D01*
X1347500Y-472667D01*
G01X1380000Y-560000D02*
Y-535000D01*
X1376220Y-540000D01*
G01Y-560000D02*
X1383779D01*
G01X1359250Y-478334D02*
X1365750D01*
G01X1382500Y-465000D02*
X1380500Y-465667D01*
X1379000Y-467333D01*
X1378000Y-469333D01*
X1377250Y-472000D01*
X1377000Y-475000D01*
X1377250Y-478000D01*
X1378000Y-480667D01*
X1379000Y-482667D01*
X1380500Y-484333D01*
X1382500Y-485000D01*
X1384500Y-484333D01*
X1386000Y-482667D01*
X1387000Y-480667D01*
X1387750Y-478000D01*
X1388000Y-475000D01*
X1387750Y-472000D01*
X1387000Y-469333D01*
X1386000Y-467333D01*
X1384500Y-465667D01*
X1382500Y-465000D01*
G01X1397750Y-476667D02*
X1399500Y-474333D01*
X1401000Y-473000D01*
X1403000Y-472334D01*
X1404750Y-473000D01*
X1406000Y-474333D01*
X1407000Y-476333D01*
X1407250Y-478667D01*
X1407000Y-480667D01*
X1406000Y-482667D01*
X1404500Y-484333D01*
X1402750Y-485000D01*
X1400750Y-484333D01*
X1399000Y-482334D01*
X1398000Y-479333D01*
X1397750Y-476000D01*
X1398250Y-471667D01*
X1399000Y-469333D01*
X1400250Y-467000D01*
X1402000Y-465333D01*
X1403750Y-465000D01*
X1405500Y-465667D01*
X1406750Y-467333D01*
G01X1417750Y-476667D02*
X1419500Y-474333D01*
X1421000Y-473000D01*
X1423000Y-472334D01*
X1424750Y-473000D01*
X1426000Y-474333D01*
X1427000Y-476333D01*
X1427250Y-478667D01*
X1427000Y-480667D01*
X1426000Y-482667D01*
X1424500Y-484333D01*
X1422750Y-485000D01*
X1420750Y-484333D01*
X1419000Y-482334D01*
X1418000Y-479333D01*
X1417750Y-476000D01*
X1418250Y-471667D01*
X1419000Y-469333D01*
X1420250Y-467000D01*
X1422000Y-465333D01*
X1423750Y-465000D01*
X1425500Y-465667D01*
X1426750Y-467333D01*
G01X1437000Y-482001D02*
X1438500Y-483667D01*
X1440250Y-484667D01*
X1442500Y-485000D01*
X1444750Y-484333D01*
X1446500Y-483000D01*
X1447750Y-480667D01*
X1448000Y-478000D01*
X1447500Y-475334D01*
X1446250Y-473667D01*
X1444500Y-472334D01*
X1442750Y-472000D01*
X1441000Y-472334D01*
X1438750Y-473667D01*
X1439500Y-465000D01*
X1446250D01*
G01X1457000Y-481000D02*
X1458500Y-483334D01*
X1460500Y-484667D01*
X1462750Y-485000D01*
X1464750Y-484667D01*
X1466750Y-483000D01*
X1468000Y-481000D01*
X1468250Y-479000D01*
X1467750Y-476667D01*
X1466000Y-475000D01*
X1464250Y-474333D01*
X1462000D01*
G01X1464250D02*
X1465750Y-473333D01*
X1467000Y-471667D01*
X1467500Y-469667D01*
X1467000Y-467667D01*
X1465750Y-466000D01*
X1463500Y-465000D01*
X1461250Y-465333D01*
X1459000Y-466667D01*
G01X1485500Y-485000D02*
Y-465000D01*
X1476250Y-479333D01*
X1488750D01*
G01X1372625Y990833D02*
X1373375Y991833D01*
X1374250Y992333D01*
X1375250Y992500D01*
X1376500Y992167D01*
X1377375Y991333D01*
X1377625Y990333D01*
X1377500Y989333D01*
X1377000Y988500D01*
X1374500Y986833D01*
X1373375Y985667D01*
X1372625Y984000D01*
X1372375Y982500D01*
X1377625D01*
G01X1385000Y992500D02*
X1384000Y992167D01*
X1383250Y991333D01*
X1382750Y990333D01*
X1382375Y989000D01*
X1382250Y987500D01*
X1382375Y986000D01*
X1382750Y984667D01*
X1383250Y983666D01*
X1384000Y982833D01*
X1385000Y982500D01*
X1386000Y982833D01*
X1386750Y983666D01*
X1387250Y984667D01*
X1387625Y986000D01*
X1387750Y987500D01*
X1387625Y989000D01*
X1387250Y990333D01*
X1386750Y991333D01*
X1386000Y992167D01*
X1385000Y992500D01*
G01X1392625Y982500D02*
Y992500D01*
X1397375D01*
G01X1395625Y987667D02*
X1392625D01*
G01X1407500Y982500D02*
X1402500D01*
Y992500D01*
X1407500D01*
G01X1405500Y987667D02*
X1402500D01*
G01X1416000Y987833D02*
X1416500Y988333D01*
X1416875Y989166D01*
X1417125Y990333D01*
X1416875Y991333D01*
X1416375Y992000D01*
X1415500Y992500D01*
X1412125D01*
Y982500D01*
X1416250D01*
X1417125Y983167D01*
X1417625Y984167D01*
X1417875Y985333D01*
X1417625Y986500D01*
X1416875Y987500D01*
X1416000Y987833D01*
X1412125D01*
G01X1422625Y990833D02*
X1423375Y991833D01*
X1424250Y992333D01*
X1425250Y992500D01*
X1426500Y992167D01*
X1427375Y991333D01*
X1427625Y990333D01*
X1427500Y989333D01*
X1427000Y988500D01*
X1424500Y986833D01*
X1423375Y985667D01*
X1422625Y984000D01*
X1422375Y982500D01*
X1427625D01*
G01X1432250Y984500D02*
X1433000Y983333D01*
X1434000Y982667D01*
X1435125Y982500D01*
X1436125Y982667D01*
X1437125Y983500D01*
X1437750Y984500D01*
X1437875Y985500D01*
X1437625Y986666D01*
X1436750Y987500D01*
X1435875Y987833D01*
X1434750D01*
G01X1435875D02*
X1436625Y988333D01*
X1437250Y989166D01*
X1437500Y990167D01*
X1437250Y991167D01*
X1436625Y992000D01*
X1435500Y992500D01*
X1434375Y992333D01*
X1433250Y991667D01*
G01X1355000Y1025000D02*
Y975000D01*
G01Y1050000D02*
Y1000000D01*
G01X1372625Y1015833D02*
X1373375Y1016833D01*
X1374250Y1017333D01*
X1375250Y1017500D01*
X1376500Y1017167D01*
X1377375Y1016333D01*
X1377625Y1015333D01*
X1377500Y1014333D01*
X1377000Y1013500D01*
X1374500Y1011833D01*
X1373375Y1010667D01*
X1372625Y1009000D01*
X1372375Y1007500D01*
X1377625D01*
G01X1386500D02*
Y1017500D01*
X1381875Y1010333D01*
X1388125D01*
G01X1391750Y1007500D02*
Y1017500D01*
X1395000Y1009167D01*
X1398250Y1017500D01*
Y1007500D01*
G01X1401875D02*
X1405000Y1017500D01*
X1408125Y1007500D01*
G01X1407000Y1011000D02*
X1403000D01*
G01X1415000Y1007500D02*
Y1012000D01*
X1412500Y1017500D01*
G01X1417500D02*
X1415000Y1012000D01*
G01X1422625Y1015833D02*
X1423375Y1016833D01*
X1424250Y1017333D01*
X1425250Y1017500D01*
X1426500Y1017167D01*
X1427375Y1016333D01*
X1427625Y1015333D01*
X1427500Y1014333D01*
X1427000Y1013500D01*
X1424500Y1011833D01*
X1423375Y1010667D01*
X1422625Y1009000D01*
X1422375Y1007500D01*
X1427625D01*
G01X1435000D02*
Y1017500D01*
X1433500Y1015500D01*
G01Y1007500D02*
X1436500D01*
G01X1380000Y1085000D02*
Y1110000D01*
X1376220Y1105000D01*
G01Y1085000D02*
X1383779D01*
G01X1391000Y-282000D02*
X1392400Y-290000D01*
X1394000Y-282000D01*
X1395600Y-290000D01*
X1397000Y-282000D01*
G01X1400800D02*
X1403200D01*
G01X1402000D02*
Y-290000D01*
G01X1400800D02*
X1403200D01*
G01X1408000Y-282000D02*
Y-290000D01*
X1412000D01*
G01X1415400D02*
Y-282000D01*
X1418000Y-288667D01*
X1420600Y-282000D01*
Y-290000D01*
G01X1424800Y-282000D02*
X1427200D01*
G01X1426000D02*
Y-290000D01*
G01X1424800D02*
X1427200D01*
G01X1431700D02*
Y-282000D01*
X1436300Y-290000D01*
Y-282000D01*
G01X1442600Y-286000D02*
X1444600D01*
Y-288400D01*
X1444000Y-289200D01*
X1443300Y-289733D01*
X1442300Y-290000D01*
X1441300Y-289733D01*
X1440600Y-289200D01*
X1440000Y-288400D01*
X1439600Y-287467D01*
X1439400Y-286400D01*
Y-285467D01*
X1439600Y-284667D01*
X1440000Y-283733D01*
X1440600Y-282933D01*
X1441200Y-282400D01*
X1442000Y-282000D01*
X1442700D01*
X1443500Y-282267D01*
X1444100Y-282800D01*
G01X1450000Y-282000D02*
Y-290000D01*
G01X1447700Y-282000D02*
X1452300D01*
G01X1458000Y-290000D02*
X1457200Y-289867D01*
X1456500Y-289333D01*
X1455900Y-288533D01*
X1455500Y-287600D01*
X1455300Y-286533D01*
Y-285467D01*
X1455500Y-284400D01*
X1455900Y-283467D01*
X1456500Y-282667D01*
X1457200Y-282133D01*
X1458000Y-282000D01*
X1458800Y-282133D01*
X1459500Y-282667D01*
X1460100Y-283467D01*
X1460500Y-284400D01*
X1460700Y-285467D01*
Y-286533D01*
X1460500Y-287600D01*
X1460100Y-288533D01*
X1459500Y-289333D01*
X1458800Y-289867D01*
X1458000Y-290000D01*
G01X1463700D02*
Y-282000D01*
X1468300Y-290000D01*
Y-282000D01*
G01X1473800Y-291467D02*
X1474200Y-289733D01*
G01X1487400Y-290000D02*
Y-282000D01*
X1490000Y-288667D01*
X1492600Y-282000D01*
Y-290000D01*
G01X1495500D02*
X1498000Y-282000D01*
X1500500Y-290000D01*
G01X1499600Y-287200D02*
X1496400D01*
G01X1514000Y-282000D02*
X1513200Y-282267D01*
X1512600Y-282933D01*
X1512200Y-283733D01*
X1511900Y-284800D01*
X1511800Y-286000D01*
X1511900Y-287200D01*
X1512200Y-288267D01*
X1512600Y-289067D01*
X1513200Y-289733D01*
X1514000Y-290000D01*
X1514800Y-289733D01*
X1515400Y-289067D01*
X1515800Y-288267D01*
X1516100Y-287200D01*
X1516200Y-286000D01*
X1516100Y-284800D01*
X1515800Y-283733D01*
X1515400Y-282933D01*
X1514800Y-282267D01*
X1514000Y-282000D01*
G01X1522000Y-290000D02*
Y-282000D01*
X1520800Y-283600D01*
G01Y-290000D02*
X1523200D01*
G01X1530000D02*
X1530700Y-289867D01*
X1531500Y-289467D01*
X1532000Y-288800D01*
X1532200Y-287867D01*
X1532000Y-286934D01*
X1531400Y-286133D01*
X1530500Y-285733D01*
X1529500D01*
X1528900Y-285467D01*
X1528400Y-284800D01*
X1528200Y-283867D01*
X1528500Y-282933D01*
X1529200Y-282267D01*
X1530000Y-282000D01*
X1530800Y-282267D01*
X1531500Y-282933D01*
X1531800Y-283867D01*
X1531600Y-284800D01*
X1531100Y-285467D01*
X1530500Y-285733D01*
X1529500D01*
X1528600Y-286133D01*
X1528000Y-286934D01*
X1527800Y-287867D01*
X1528000Y-288800D01*
X1528500Y-289467D01*
X1529300Y-289867D01*
X1530000Y-290000D01*
G01X1538000D02*
X1538700Y-289867D01*
X1539500Y-289467D01*
X1540000Y-288800D01*
X1540200Y-287867D01*
X1540000Y-286934D01*
X1539400Y-286133D01*
X1538500Y-285733D01*
X1537500D01*
X1536900Y-285467D01*
X1536400Y-284800D01*
X1536200Y-283867D01*
X1536500Y-282933D01*
X1537200Y-282267D01*
X1538000Y-282000D01*
X1538800Y-282267D01*
X1539500Y-282933D01*
X1539800Y-283867D01*
X1539600Y-284800D01*
X1539100Y-285467D01*
X1538500Y-285733D01*
X1537500D01*
X1536600Y-286133D01*
X1536000Y-286934D01*
X1535800Y-287867D01*
X1536000Y-288800D01*
X1536500Y-289467D01*
X1537300Y-289867D01*
X1538000Y-290000D01*
G01X1545800D02*
X1546000Y-288267D01*
X1546300Y-286800D01*
X1546700Y-285467D01*
X1547200Y-284000D01*
X1548000Y-282000D01*
X1544000D01*
G01X1387250Y1032500D02*
Y1042500D01*
X1389750D01*
X1390750Y1042000D01*
X1391500Y1041333D01*
X1392125Y1040333D01*
X1392625Y1039166D01*
X1392750Y1037500D01*
X1392625Y1035833D01*
X1392125Y1034667D01*
X1391500Y1033666D01*
X1390750Y1033000D01*
X1389750Y1032500D01*
X1387250D01*
G01X1396875D02*
X1400000Y1042500D01*
X1403125Y1032500D01*
G01X1402000Y1036000D02*
X1398000D01*
G01X1410000Y1042500D02*
Y1032500D01*
G01X1407125Y1042500D02*
X1412875D01*
G01X1422500Y1032500D02*
X1417500D01*
Y1042500D01*
X1422500D01*
G01X1420500Y1037667D02*
X1417500D01*
G01X1406000Y-275000D02*
X1406700Y-274867D01*
X1407500Y-274467D01*
X1408000Y-273800D01*
X1408200Y-272867D01*
X1408000Y-271934D01*
X1407400Y-271133D01*
X1406500Y-270733D01*
X1405500D01*
X1404900Y-270467D01*
X1404400Y-269800D01*
X1404200Y-268867D01*
X1404500Y-267933D01*
X1405200Y-267267D01*
X1406000Y-267000D01*
X1406800Y-267267D01*
X1407500Y-267933D01*
X1407800Y-268867D01*
X1407600Y-269800D01*
X1407100Y-270467D01*
X1406500Y-270733D01*
X1405500D01*
X1404600Y-271133D01*
X1404000Y-271934D01*
X1403800Y-272867D01*
X1404000Y-273800D01*
X1404500Y-274467D01*
X1405300Y-274867D01*
X1406000Y-275000D01*
G01X1414000Y-267000D02*
X1413200Y-267267D01*
X1412600Y-267933D01*
X1412200Y-268733D01*
X1411900Y-269800D01*
X1411800Y-271000D01*
X1411900Y-272200D01*
X1412200Y-273267D01*
X1412600Y-274067D01*
X1413200Y-274733D01*
X1414000Y-275000D01*
X1414800Y-274733D01*
X1415400Y-274067D01*
X1415800Y-273267D01*
X1416100Y-272200D01*
X1416200Y-271000D01*
X1416100Y-269800D01*
X1415800Y-268733D01*
X1415400Y-267933D01*
X1414800Y-267267D01*
X1414000Y-267000D01*
G01X1423200Y-275000D02*
Y-267000D01*
X1419500Y-272733D01*
X1424500D01*
G01X1435000Y-267000D02*
X1436400Y-275000D01*
X1438000Y-267000D01*
X1439600Y-275000D01*
X1441000Y-267000D01*
G01X1446000Y-275000D02*
X1445200Y-274867D01*
X1444500Y-274333D01*
X1443900Y-273533D01*
X1443500Y-272600D01*
X1443300Y-271533D01*
Y-270467D01*
X1443500Y-269400D01*
X1443900Y-268467D01*
X1444500Y-267667D01*
X1445200Y-267133D01*
X1446000Y-267000D01*
X1446800Y-267133D01*
X1447500Y-267667D01*
X1448100Y-268467D01*
X1448500Y-269400D01*
X1448700Y-270467D01*
Y-271533D01*
X1448500Y-272600D01*
X1448100Y-273533D01*
X1447500Y-274333D01*
X1446800Y-274867D01*
X1446000Y-275000D01*
G01X1454800Y-270733D02*
X1455200Y-270333D01*
X1455500Y-269667D01*
X1455700Y-268733D01*
X1455500Y-267933D01*
X1455100Y-267400D01*
X1454400Y-267000D01*
X1451700D01*
Y-275000D01*
X1455000D01*
X1455700Y-274467D01*
X1456100Y-273667D01*
X1456300Y-272733D01*
X1456100Y-271800D01*
X1455500Y-271000D01*
X1454800Y-270733D01*
X1451700D01*
G01X1459800Y-267000D02*
Y-272733D01*
X1460200Y-273934D01*
X1461000Y-274733D01*
X1462000Y-275000D01*
X1463000Y-274733D01*
X1463800Y-273934D01*
X1464200Y-272733D01*
Y-267000D01*
G01X1468000Y-275000D02*
Y-267000D01*
X1470500D01*
X1471300Y-267400D01*
X1471800Y-267933D01*
X1472000Y-269000D01*
X1471800Y-270067D01*
X1471200Y-270733D01*
X1470500Y-271133D01*
X1468000D01*
G01X1470500D02*
X1472000Y-275000D01*
G01X1475700D02*
Y-267000D01*
X1480300Y-275000D01*
Y-267000D01*
G01X1491900Y-273934D02*
X1492700Y-274600D01*
X1493600Y-275000D01*
X1494400D01*
X1495200Y-274600D01*
X1495800Y-273934D01*
X1496100Y-273000D01*
X1495900Y-272067D01*
X1495400Y-271267D01*
X1494500Y-270733D01*
X1493300Y-270467D01*
X1492600Y-269933D01*
X1492300Y-269000D01*
X1492500Y-268067D01*
X1493000Y-267400D01*
X1493700Y-267000D01*
X1494400D01*
X1495100Y-267267D01*
X1495700Y-267933D01*
G01X1502000Y-267000D02*
Y-275000D01*
G01X1499700Y-267000D02*
X1504300D01*
G01X1508000Y-275000D02*
Y-267000D01*
X1510500D01*
X1511300Y-267400D01*
X1511800Y-267933D01*
X1512000Y-269000D01*
X1511800Y-270067D01*
X1511200Y-270733D01*
X1510500Y-271133D01*
X1508000D01*
G01X1510500D02*
X1512000Y-275000D01*
G01X1520000D02*
X1516000D01*
Y-267000D01*
X1520000D01*
G01X1518400Y-270867D02*
X1516000D01*
G01X1528000Y-275000D02*
X1524000D01*
Y-267000D01*
X1528000D01*
G01X1526400Y-270867D02*
X1524000D01*
G01X1534000Y-267000D02*
Y-275000D01*
G01X1531700Y-267000D02*
X1536300D01*
G01X1432250Y-260000D02*
Y-250000D01*
X1434750D01*
X1435750Y-250500D01*
X1436500Y-251167D01*
X1437125Y-252167D01*
X1437625Y-253334D01*
X1437750Y-255000D01*
X1437625Y-256667D01*
X1437125Y-257833D01*
X1436500Y-258834D01*
X1435750Y-259500D01*
X1434750Y-260000D01*
X1432250D01*
G01X1443500Y-250000D02*
X1446500D01*
G01X1445000D02*
Y-260000D01*
G01X1443500D02*
X1446500D01*
G01X1451875Y-250000D02*
X1455000Y-260000D01*
X1458125Y-250000D01*
G01X1463500D02*
X1466500D01*
G01X1465000D02*
Y-260000D01*
G01X1463500D02*
X1466500D01*
G01X1472375Y-258667D02*
X1473375Y-259500D01*
X1474500Y-260000D01*
X1475500D01*
X1476500Y-259500D01*
X1477250Y-258667D01*
X1477625Y-257500D01*
X1477375Y-256334D01*
X1476750Y-255333D01*
X1475625Y-254667D01*
X1474125Y-254333D01*
X1473250Y-253667D01*
X1472875Y-252500D01*
X1473125Y-251333D01*
X1473750Y-250500D01*
X1474625Y-250000D01*
X1475500D01*
X1476375Y-250333D01*
X1477125Y-251167D01*
G01X1483500Y-250000D02*
X1486500D01*
G01X1485000D02*
Y-260000D01*
G01X1483500D02*
X1486500D01*
G01X1495000D02*
X1494000Y-259833D01*
X1493125Y-259167D01*
X1492375Y-258167D01*
X1491875Y-257000D01*
X1491625Y-255667D01*
Y-254333D01*
X1491875Y-253000D01*
X1492375Y-251833D01*
X1493125Y-250833D01*
X1494000Y-250167D01*
X1495000Y-250000D01*
X1496000Y-250167D01*
X1496875Y-250833D01*
X1497625Y-251833D01*
X1498125Y-253000D01*
X1498375Y-254333D01*
Y-255667D01*
X1498125Y-257000D01*
X1497625Y-258167D01*
X1496875Y-259167D01*
X1496000Y-259833D01*
X1495000Y-260000D01*
G01X1502125D02*
Y-250000D01*
X1507875Y-260000D01*
Y-250000D01*
G01X1455000Y-500000D02*
Y-525000D01*
G01X1460900Y-516434D02*
X1461700Y-517100D01*
X1462600Y-517500D01*
X1463400D01*
X1464200Y-517100D01*
X1464800Y-516434D01*
X1465100Y-515500D01*
X1464900Y-514567D01*
X1464400Y-513767D01*
X1463500Y-513233D01*
X1462300Y-512967D01*
X1461600Y-512433D01*
X1461300Y-511500D01*
X1461500Y-510567D01*
X1462000Y-509900D01*
X1462700Y-509500D01*
X1463400D01*
X1464100Y-509767D01*
X1464700Y-510433D01*
G01X1468900Y-517500D02*
Y-509500D01*
G01X1473100D02*
Y-517500D01*
G01Y-513500D02*
X1468900D01*
G01X1481000Y-517500D02*
X1477000D01*
Y-509500D01*
X1481000D01*
G01X1479400Y-513367D02*
X1477000D01*
G01X1489000Y-517500D02*
X1485000D01*
Y-509500D01*
X1489000D01*
G01X1487400Y-513367D02*
X1485000D01*
G01X1495000Y-509500D02*
Y-517500D01*
G01X1492700Y-509500D02*
X1497300D01*
G01X1456250Y-235000D02*
X1458000Y-245000D01*
X1460000Y-235000D01*
X1462000Y-245000D01*
X1463750Y-235000D01*
G01X1466250D02*
X1468000Y-245000D01*
X1470000Y-235000D01*
X1472000Y-245000D01*
X1473750Y-235000D01*
G01X1476750Y-245000D02*
Y-235000D01*
X1480000Y-243333D01*
X1483250Y-235000D01*
Y-245000D01*
G01X1455000Y1025000D02*
Y975000D01*
G01Y1050000D02*
Y1000000D01*
G01X1476875Y1007500D02*
X1480000Y1017500D01*
X1483125Y1007500D01*
G01X1482000Y1011000D02*
X1478000D01*
G01X1490000Y1007167D02*
X1489750Y1007333D01*
Y1007667D01*
X1490000Y1007833D01*
X1490250Y1007667D01*
Y1007333D01*
X1490000Y1007167D01*
G01X1512750Y1016667D02*
X1512000Y1017167D01*
X1511125Y1017500D01*
X1510125D01*
X1509000Y1017000D01*
X1508125Y1016167D01*
X1507500Y1015167D01*
X1507000Y1013500D01*
X1506875Y1012000D01*
X1507125Y1010500D01*
X1507500Y1009500D01*
X1508250Y1008500D01*
X1509125Y1007833D01*
X1510000Y1007500D01*
X1510875D01*
X1511750Y1007833D01*
X1512500Y1008333D01*
X1513125Y1009000D01*
G01X1516875Y1007500D02*
X1520000Y1017500D01*
X1523125Y1007500D01*
G01X1522000Y1011000D02*
X1518000D01*
G01X1530000Y1017500D02*
Y1007500D01*
G01X1527125Y1017500D02*
X1532875D01*
G01X1536875Y1007500D02*
X1540000Y1017500D01*
X1543125Y1007500D01*
G01X1542000Y1011000D02*
X1538000D01*
G01X1547500Y1007500D02*
Y1017500D01*
X1550500D01*
X1551500Y1017000D01*
X1552250Y1015833D01*
X1552500Y1014500D01*
X1552250Y1013167D01*
X1551625Y1012167D01*
X1550500Y1011666D01*
X1547500D01*
G01X1556875Y1007500D02*
X1560000Y1017500D01*
X1563125Y1007500D01*
G01X1562000Y1011000D02*
X1558000D01*
G01X1567125Y1007500D02*
Y1017500D01*
X1572875Y1007500D01*
Y1017500D01*
G01X1580750Y1012500D02*
X1583250D01*
Y1009500D01*
X1582500Y1008500D01*
X1581625Y1007833D01*
X1580375Y1007500D01*
X1579125Y1007833D01*
X1578250Y1008500D01*
X1577500Y1009500D01*
X1577000Y1010667D01*
X1576750Y1012000D01*
Y1013167D01*
X1577000Y1014166D01*
X1577500Y1015333D01*
X1578250Y1016333D01*
X1579000Y1017000D01*
X1580000Y1017500D01*
X1580875D01*
X1581875Y1017167D01*
X1582625Y1016500D01*
G01X1491875Y1032500D02*
X1495000Y1042500D01*
X1498125Y1032500D01*
G01X1497000Y1036000D02*
X1493000D01*
G01X1502500Y1032500D02*
Y1042500D01*
X1505500D01*
X1506500Y1042000D01*
X1507250Y1040833D01*
X1507500Y1039500D01*
X1507250Y1038167D01*
X1506625Y1037167D01*
X1505500Y1036666D01*
X1502500D01*
G01X1512500Y1032500D02*
Y1042500D01*
X1515500D01*
X1516500Y1042000D01*
X1517250Y1040833D01*
X1517500Y1039500D01*
X1517250Y1038167D01*
X1516625Y1037167D01*
X1515500Y1036666D01*
X1512500D01*
G01X1522500Y1032500D02*
Y1042500D01*
X1525625D01*
X1526625Y1042000D01*
X1527250Y1041333D01*
X1527500Y1040000D01*
X1527250Y1038667D01*
X1526500Y1037833D01*
X1525625Y1037333D01*
X1522500D01*
G01X1525625D02*
X1527500Y1032500D01*
G01X1535000D02*
X1534000Y1032667D01*
X1533125Y1033333D01*
X1532375Y1034333D01*
X1531875Y1035500D01*
X1531625Y1036833D01*
Y1038167D01*
X1531875Y1039500D01*
X1532375Y1040667D01*
X1533125Y1041667D01*
X1534000Y1042333D01*
X1535000Y1042500D01*
X1536000Y1042333D01*
X1536875Y1041667D01*
X1537625Y1040667D01*
X1538125Y1039500D01*
X1538375Y1038167D01*
Y1036833D01*
X1538125Y1035500D01*
X1537625Y1034333D01*
X1536875Y1033333D01*
X1536000Y1032667D01*
X1535000Y1032500D01*
G01X1541875Y1042500D02*
X1545000Y1032500D01*
X1548125Y1042500D01*
G01X1557500Y1032500D02*
X1552500D01*
Y1042500D01*
X1557500D01*
G01X1555500Y1037667D02*
X1552500D01*
G01X1562250Y1032500D02*
Y1042500D01*
X1564750D01*
X1565750Y1042000D01*
X1566500Y1041333D01*
X1567125Y1040333D01*
X1567625Y1039166D01*
X1567750Y1037500D01*
X1567625Y1035833D01*
X1567125Y1034667D01*
X1566500Y1033666D01*
X1565750Y1033000D01*
X1564750Y1032500D01*
X1562250D01*
G01X1521250Y-517500D02*
Y-507500D01*
X1519750Y-509500D01*
G01Y-517500D02*
X1522750D01*
G01X1506750Y982500D02*
Y992500D01*
X1510000Y984167D01*
X1513250Y992500D01*
Y982500D01*
G01X1520000Y982167D02*
X1519750Y982333D01*
Y982667D01*
X1520000Y982833D01*
X1520250Y982667D01*
Y982333D01*
X1520000Y982167D01*
G01X1537375Y983833D02*
X1538375Y983000D01*
X1539500Y982500D01*
X1540500D01*
X1541500Y983000D01*
X1542250Y983833D01*
X1542625Y985000D01*
X1542375Y986166D01*
X1541750Y987167D01*
X1540625Y987833D01*
X1539125Y988167D01*
X1538250Y988833D01*
X1537875Y990000D01*
X1538125Y991167D01*
X1538750Y992000D01*
X1539625Y992500D01*
X1540500D01*
X1541375Y992167D01*
X1542125Y991333D01*
G01X1550000Y982500D02*
X1549000Y982667D01*
X1548125Y983333D01*
X1547375Y984333D01*
X1546875Y985500D01*
X1546625Y986833D01*
Y988167D01*
X1546875Y989500D01*
X1547375Y990667D01*
X1548125Y991667D01*
X1549000Y992333D01*
X1550000Y992500D01*
X1551000Y992333D01*
X1551875Y991667D01*
X1552625Y990667D01*
X1553125Y989500D01*
X1553375Y988167D01*
Y986833D01*
X1553125Y985500D01*
X1552625Y984333D01*
X1551875Y983333D01*
X1551000Y982667D01*
X1550000Y982500D01*
G01X1538000Y-517500D02*
X1537200Y-517367D01*
X1536500Y-516833D01*
X1535900Y-516033D01*
X1535500Y-515100D01*
X1535300Y-514033D01*
Y-512967D01*
X1535500Y-511900D01*
X1535900Y-510967D01*
X1536500Y-510167D01*
X1537200Y-509633D01*
X1538000Y-509500D01*
X1538800Y-509633D01*
X1539500Y-510167D01*
X1540100Y-510967D01*
X1540500Y-511900D01*
X1540700Y-512967D01*
Y-514033D01*
X1540500Y-515100D01*
X1540100Y-516033D01*
X1539500Y-516833D01*
X1538800Y-517367D01*
X1538000Y-517500D01*
G01X1544100D02*
Y-509500D01*
X1547900D01*
G01X1546500Y-513367D02*
X1544100D01*
G01X1558500Y-515500D02*
X1559250Y-516667D01*
X1560250Y-517333D01*
X1561375Y-517500D01*
X1562375Y-517333D01*
X1563375Y-516500D01*
X1564000Y-515500D01*
X1564125Y-514500D01*
X1563875Y-513334D01*
X1563000Y-512500D01*
X1562125Y-512167D01*
X1561000D01*
G01X1562125D02*
X1562875Y-511667D01*
X1563500Y-510834D01*
X1563750Y-509833D01*
X1563500Y-508833D01*
X1562875Y-508000D01*
X1561750Y-507500D01*
X1560625Y-507667D01*
X1559500Y-508333D01*
G01X1555000Y-500000D02*
Y-425000D01*
G01X1568500Y-445000D02*
Y-437000D01*
X1571000D01*
X1571800Y-437400D01*
X1572300Y-437933D01*
X1572500Y-439000D01*
X1572300Y-440067D01*
X1571700Y-440733D01*
X1571000Y-441133D01*
X1568500D01*
G01X1571000D02*
X1572500Y-445000D01*
G01X1580500D02*
X1576500D01*
Y-437000D01*
X1580500D01*
G01X1578900Y-440867D02*
X1576500D01*
G01X1584000Y-437000D02*
X1586500Y-445000D01*
X1589000Y-437000D01*
G01X1582000Y-474333D02*
X1583000Y-473333D01*
X1583750Y-471667D01*
X1584250Y-469333D01*
X1583750Y-467333D01*
X1582750Y-466000D01*
X1581000Y-465000D01*
X1574250D01*
Y-485000D01*
X1582500D01*
X1584250Y-483667D01*
X1585250Y-481667D01*
X1585750Y-479333D01*
X1585250Y-477000D01*
X1583750Y-475000D01*
X1582000Y-474333D01*
X1574250D01*
G01X1605000Y-200000D02*
Y1000000D01*
G01X1635000Y-150000D02*
X1605000D01*
G01X1621000Y280000D02*
Y270000D01*
X1611000Y275000D01*
X1621000Y280000D01*
G01X1642000Y275500D02*
Y274500D01*
X1622000D01*
Y268500D01*
X1609500Y275000D01*
X1622000Y281500D01*
Y275500D01*
X1642000D01*
G01X1643000Y276500D02*
Y273500D01*
X1623000D01*
Y267000D01*
X1608000Y275000D01*
X1623000Y283000D01*
Y276500D01*
X1643000D01*
G01X1644000Y277500D02*
Y272500D01*
X1624000D01*
Y265500D01*
X1606500Y275000D01*
X1624000Y284500D01*
Y277500D01*
X1644000D01*
G01X1645000Y278500D02*
Y271500D01*
X1625000D01*
Y264000D01*
X1605000Y275000D01*
X1625000Y286000D01*
Y278500D01*
X1645000D01*
G01X1635000Y700000D02*
X1605000D01*
G01X1617125Y-375000D02*
X1625000Y-350000D01*
X1632875Y-375000D01*
G01X1630040Y-366250D02*
X1619960D01*
G01X1627520Y63334D02*
X1628780Y64583D01*
X1629725Y66666D01*
X1630355Y69584D01*
X1629725Y72083D01*
X1628465Y73750D01*
X1626260Y75000D01*
X1617755D01*
Y50000D01*
X1628150D01*
X1630355Y51666D01*
X1631615Y54167D01*
X1632245Y57083D01*
X1631615Y59999D01*
X1629725Y62500D01*
X1627520Y63334D01*
X1617755D01*
G01X1617500Y275000D02*
X1616500D01*
G01X1618000Y276000D02*
Y274000D01*
X1615500Y275000D01*
X1618000Y276000D01*
G01X1619000Y277000D02*
Y273000D01*
X1614000Y275000D01*
X1619000Y277000D01*
G01X1620000Y278500D02*
Y271500D01*
X1612500Y275000D01*
X1620000Y278500D01*
G01X1631930Y497916D02*
X1630040Y499167D01*
X1627835Y500000D01*
X1625315D01*
X1622480Y498750D01*
X1620275Y496667D01*
X1618700Y494166D01*
X1617440Y490000D01*
X1617125Y486250D01*
X1617755Y482500D01*
X1618700Y480000D01*
X1620590Y477499D01*
X1622795Y475833D01*
X1625000Y475000D01*
X1627205D01*
X1629410Y475833D01*
X1631300Y477083D01*
X1632875Y478749D01*
G01X1618070Y900000D02*
Y925000D01*
X1624370D01*
X1626890Y923750D01*
X1628780Y922083D01*
X1630355Y919584D01*
X1631615Y916666D01*
X1631930Y912500D01*
X1631615Y908333D01*
X1630355Y905416D01*
X1628780Y902916D01*
X1626890Y901250D01*
X1624370Y900000D01*
X1618070D01*
G01X796900Y-317667D02*
X796773Y-317583D01*
Y-317417D01*
X796900Y-317333D01*
X797027Y-317417D01*
Y-317583D01*
X796900Y-317667D01*
G01X800670Y-317500D02*
X803330Y-312500D01*
G01X800670D02*
X803330Y-317500D01*
G01X805770D02*
X808430Y-312500D01*
G01X805770D02*
X808430Y-317500D01*
G01X810870D02*
X813530Y-312500D01*
G01X810870D02*
X813530Y-317500D01*
G01X815970D02*
X818630Y-312500D01*
G01X815970D02*
X818630Y-317500D01*
G01X826803Y-315833D02*
X828323D01*
G01X827500Y-314750D02*
Y-316917D01*
G01X831777Y-315833D02*
X833423D01*
G01X837700Y-317667D02*
X837573Y-317583D01*
Y-317417D01*
X837700Y-317333D01*
X837827Y-317417D01*
Y-317583D01*
X837700Y-317667D01*
G01X842800Y-312500D02*
X842293Y-312667D01*
X841913Y-313083D01*
X841660Y-313583D01*
X841470Y-314250D01*
X841407Y-315000D01*
X841470Y-315750D01*
X841660Y-316417D01*
X841913Y-316917D01*
X842293Y-317333D01*
X842800Y-317500D01*
X843307Y-317333D01*
X843687Y-316917D01*
X843940Y-316417D01*
X844130Y-315750D01*
X844193Y-315000D01*
X844130Y-314250D01*
X843940Y-313583D01*
X843687Y-313083D01*
X843307Y-312667D01*
X842800Y-312500D01*
G01X847900D02*
X847393Y-312667D01*
X847013Y-313083D01*
X846760Y-313583D01*
X846570Y-314250D01*
X846507Y-315000D01*
X846570Y-315750D01*
X846760Y-316417D01*
X847013Y-316917D01*
X847393Y-317333D01*
X847900Y-317500D01*
X848407Y-317333D01*
X848787Y-316917D01*
X849040Y-316417D01*
X849230Y-315750D01*
X849293Y-315000D01*
X849230Y-314250D01*
X849040Y-313583D01*
X848787Y-313083D01*
X848407Y-312667D01*
X847900Y-312500D01*
G01X851607Y-316750D02*
X851987Y-317167D01*
X852430Y-317417D01*
X853000Y-317500D01*
X853570Y-317333D01*
X854013Y-317000D01*
X854330Y-316417D01*
X854393Y-315750D01*
X854267Y-315083D01*
X853950Y-314667D01*
X853507Y-314333D01*
X853063Y-314250D01*
X852620Y-314333D01*
X852050Y-314667D01*
X852240Y-312500D01*
X853950D01*
G01X858100D02*
X857593Y-312667D01*
X857213Y-313083D01*
X856960Y-313583D01*
X856770Y-314250D01*
X856707Y-315000D01*
X856770Y-315750D01*
X856960Y-316417D01*
X857213Y-316917D01*
X857593Y-317333D01*
X858100Y-317500D01*
X858607Y-317333D01*
X858987Y-316917D01*
X859240Y-316417D01*
X859430Y-315750D01*
X859493Y-315000D01*
X859430Y-314250D01*
X859240Y-313583D01*
X858987Y-313083D01*
X858607Y-312667D01*
X858100Y-312500D01*
G01X796900Y-297667D02*
X796773Y-297583D01*
Y-297417D01*
X796900Y-297333D01*
X797027Y-297417D01*
Y-297583D01*
X796900Y-297667D01*
G01X800670Y-297500D02*
X803330Y-292500D01*
G01X800670D02*
X803330Y-297500D01*
G01X805770D02*
X808430Y-292500D01*
G01X805770D02*
X808430Y-297500D01*
G01X816603Y-295833D02*
X818123D01*
G01X817300Y-294750D02*
Y-296917D01*
G01X821577Y-295833D02*
X823223D01*
G01X827500Y-297667D02*
X827373Y-297583D01*
Y-297417D01*
X827500Y-297333D01*
X827627Y-297417D01*
Y-297583D01*
X827500Y-297667D01*
G01X832600Y-292500D02*
X832093Y-292667D01*
X831713Y-293083D01*
X831460Y-293583D01*
X831270Y-294250D01*
X831207Y-295000D01*
X831270Y-295750D01*
X831460Y-296417D01*
X831713Y-296917D01*
X832093Y-297333D01*
X832600Y-297500D01*
X833107Y-297333D01*
X833487Y-296917D01*
X833740Y-296417D01*
X833930Y-295750D01*
X833993Y-295000D01*
X833930Y-294250D01*
X833740Y-293583D01*
X833487Y-293083D01*
X833107Y-292667D01*
X832600Y-292500D01*
G01X837700Y-297500D02*
Y-292500D01*
X836940Y-293500D01*
G01Y-297500D02*
X838460D01*
G01X842800Y-292500D02*
X842293Y-292667D01*
X841913Y-293083D01*
X841660Y-293583D01*
X841470Y-294250D01*
X841407Y-295000D01*
X841470Y-295750D01*
X841660Y-296417D01*
X841913Y-296917D01*
X842293Y-297333D01*
X842800Y-297500D01*
X843307Y-297333D01*
X843687Y-296917D01*
X843940Y-296417D01*
X844130Y-295750D01*
X844193Y-295000D01*
X844130Y-294250D01*
X843940Y-293583D01*
X843687Y-293083D01*
X843307Y-292667D01*
X842800Y-292500D01*
G01X796900Y-307667D02*
X796773Y-307583D01*
Y-307417D01*
X796900Y-307333D01*
X797027Y-307417D01*
Y-307583D01*
X796900Y-307667D01*
G01X800670Y-307500D02*
X803330Y-302500D01*
G01X800670D02*
X803330Y-307500D01*
G01X805770D02*
X808430Y-302500D01*
G01X805770D02*
X808430Y-307500D01*
G01X810870D02*
X813530Y-302500D01*
G01X810870D02*
X813530Y-307500D01*
G01X821703Y-305833D02*
X823223D01*
G01X822400Y-304750D02*
Y-306917D01*
G01X826677Y-305833D02*
X828323D01*
G01X832600Y-307667D02*
X832473Y-307583D01*
Y-307417D01*
X832600Y-307333D01*
X832727Y-307417D01*
Y-307583D01*
X832600Y-307667D01*
G01X837700Y-302500D02*
X837193Y-302667D01*
X836813Y-303083D01*
X836560Y-303583D01*
X836370Y-304250D01*
X836307Y-305000D01*
X836370Y-305750D01*
X836560Y-306417D01*
X836813Y-306917D01*
X837193Y-307333D01*
X837700Y-307500D01*
X838207Y-307333D01*
X838587Y-306917D01*
X838840Y-306417D01*
X839030Y-305750D01*
X839093Y-305000D01*
X839030Y-304250D01*
X838840Y-303583D01*
X838587Y-303083D01*
X838207Y-302667D01*
X837700Y-302500D01*
G01X842800D02*
X842293Y-302667D01*
X841913Y-303083D01*
X841660Y-303583D01*
X841470Y-304250D01*
X841407Y-305000D01*
X841470Y-305750D01*
X841660Y-306417D01*
X841913Y-306917D01*
X842293Y-307333D01*
X842800Y-307500D01*
X843307Y-307333D01*
X843687Y-306917D01*
X843940Y-306417D01*
X844130Y-305750D01*
X844193Y-305000D01*
X844130Y-304250D01*
X843940Y-303583D01*
X843687Y-303083D01*
X843307Y-302667D01*
X842800Y-302500D01*
G01X846507Y-306750D02*
X846887Y-307167D01*
X847330Y-307417D01*
X847900Y-307500D01*
X848470Y-307333D01*
X848913Y-307000D01*
X849230Y-306417D01*
X849293Y-305750D01*
X849167Y-305083D01*
X848850Y-304667D01*
X848407Y-304333D01*
X847963Y-304250D01*
X847520Y-304333D01*
X846950Y-304667D01*
X847140Y-302500D01*
X848850D01*
G01X795507Y-285000D02*
Y-280000D01*
X796773D01*
X797280Y-280250D01*
X797660Y-280583D01*
X797977Y-281083D01*
X798230Y-281667D01*
X798293Y-282500D01*
X798230Y-283333D01*
X797977Y-283917D01*
X797660Y-284417D01*
X797280Y-284750D01*
X796773Y-285000D01*
X795507D01*
G01X803267D02*
X800733D01*
Y-280000D01*
X803267D01*
G01X802253Y-282417D02*
X800733D01*
G01X808493Y-280417D02*
X808113Y-280167D01*
X807670Y-280000D01*
X807163D01*
X806593Y-280250D01*
X806150Y-280667D01*
X805833Y-281167D01*
X805580Y-282000D01*
X805517Y-282750D01*
X805643Y-283500D01*
X805833Y-284000D01*
X806213Y-284500D01*
X806657Y-284833D01*
X807100Y-285000D01*
X807543D01*
X807987Y-284833D01*
X808367Y-284583D01*
X808683Y-284250D01*
G01X811440Y-280000D02*
X812960D01*
G01X812200D02*
Y-285000D01*
G01X811440D02*
X812960D01*
G01X815653D02*
Y-280000D01*
X817300Y-284167D01*
X818947Y-280000D01*
Y-285000D01*
G01X820817D02*
X822400Y-280000D01*
X823983Y-285000D01*
G01X823413Y-283250D02*
X821387D01*
G01X826233Y-280000D02*
Y-285000D01*
X828767D01*
G01X831270Y-284333D02*
X831777Y-284750D01*
X832347Y-285000D01*
X832853D01*
X833360Y-284750D01*
X833740Y-284333D01*
X833930Y-283750D01*
X833803Y-283167D01*
X833487Y-282667D01*
X832917Y-282333D01*
X832157Y-282167D01*
X831713Y-281833D01*
X831523Y-281250D01*
X831650Y-280667D01*
X831967Y-280250D01*
X832410Y-280000D01*
X832853D01*
X833297Y-280167D01*
X833677Y-280583D01*
G01X855697Y-285000D02*
Y-280000D01*
X858103D01*
G01X857217Y-282417D02*
X855697D01*
G01X860733Y-285000D02*
Y-280000D01*
X862317D01*
X862823Y-280250D01*
X863140Y-280583D01*
X863267Y-281250D01*
X863140Y-281917D01*
X862760Y-282333D01*
X862317Y-282583D01*
X860733D01*
G01X862317D02*
X863267Y-285000D01*
G01X865517D02*
X867100Y-280000D01*
X868683Y-285000D01*
G01X868113Y-283250D02*
X866087D01*
G01X873593Y-280417D02*
X873213Y-280167D01*
X872770Y-280000D01*
X872263D01*
X871693Y-280250D01*
X871250Y-280667D01*
X870933Y-281167D01*
X870680Y-282000D01*
X870617Y-282750D01*
X870743Y-283500D01*
X870933Y-284000D01*
X871313Y-284500D01*
X871757Y-284833D01*
X872200Y-285000D01*
X872643D01*
X873087Y-284833D01*
X873467Y-284583D01*
X873783Y-284250D01*
G01X877300Y-280000D02*
Y-285000D01*
G01X875843Y-280000D02*
X878757D01*
G01X881640D02*
X883160D01*
G01X882400D02*
Y-285000D01*
G01X881640D02*
X883160D01*
G01X887500D02*
X886993Y-284917D01*
X886550Y-284583D01*
X886170Y-284083D01*
X885917Y-283500D01*
X885790Y-282833D01*
Y-282167D01*
X885917Y-281500D01*
X886170Y-280917D01*
X886550Y-280417D01*
X886993Y-280083D01*
X887500Y-280000D01*
X888007Y-280083D01*
X888450Y-280417D01*
X888830Y-280917D01*
X889083Y-281500D01*
X889210Y-282167D01*
Y-282833D01*
X889083Y-283500D01*
X888830Y-284083D01*
X888450Y-284583D01*
X888007Y-284917D01*
X887500Y-285000D01*
G01X891143D02*
Y-280000D01*
X894057Y-285000D01*
Y-280000D01*
G01X896370Y-284333D02*
X896877Y-284750D01*
X897447Y-285000D01*
X897953D01*
X898460Y-284750D01*
X898840Y-284333D01*
X899030Y-283750D01*
X898903Y-283167D01*
X898587Y-282667D01*
X898017Y-282333D01*
X897257Y-282167D01*
X896813Y-281833D01*
X896623Y-281250D01*
X896750Y-280667D01*
X897067Y-280250D01*
X897510Y-280000D01*
X897953D01*
X898397Y-280167D01*
X898777Y-280583D01*
G01X846900Y-265000D02*
Y-270000D01*
G01X845443Y-265000D02*
X848357D01*
G01X852000Y-270000D02*
X851493Y-269917D01*
X851050Y-269583D01*
X850670Y-269083D01*
X850417Y-268500D01*
X850290Y-267833D01*
Y-267167D01*
X850417Y-266500D01*
X850670Y-265917D01*
X851050Y-265417D01*
X851493Y-265083D01*
X852000Y-265000D01*
X852507Y-265083D01*
X852950Y-265417D01*
X853330Y-265917D01*
X853583Y-266500D01*
X853710Y-267167D01*
Y-267833D01*
X853583Y-268500D01*
X853330Y-269083D01*
X852950Y-269583D01*
X852507Y-269917D01*
X852000Y-270000D01*
G01X855833Y-265000D02*
Y-270000D01*
X858367D01*
G01X863467D02*
X860933D01*
Y-265000D01*
X863467D01*
G01X862453Y-267417D02*
X860933D01*
G01X866033Y-270000D02*
Y-265000D01*
X867617D01*
X868123Y-265250D01*
X868440Y-265583D01*
X868567Y-266250D01*
X868440Y-266917D01*
X868060Y-267333D01*
X867617Y-267583D01*
X866033D01*
G01X867617D02*
X868567Y-270000D01*
G01X870817D02*
X872400Y-265000D01*
X873983Y-270000D01*
G01X873413Y-268250D02*
X871387D01*
G01X876043Y-270000D02*
Y-265000D01*
X878957Y-270000D01*
Y-265000D01*
G01X883993Y-265417D02*
X883613Y-265167D01*
X883170Y-265000D01*
X882663D01*
X882093Y-265250D01*
X881650Y-265667D01*
X881333Y-266167D01*
X881080Y-267000D01*
X881017Y-267750D01*
X881143Y-268500D01*
X881333Y-269000D01*
X881713Y-269500D01*
X882157Y-269833D01*
X882600Y-270000D01*
X883043D01*
X883487Y-269833D01*
X883867Y-269583D01*
X884183Y-269250D01*
G01X888967Y-270000D02*
X886433D01*
Y-265000D01*
X888967D01*
G01X887953Y-267417D02*
X886433D01*
G01X891470Y-269333D02*
X891977Y-269750D01*
X892547Y-270000D01*
X893053D01*
X893560Y-269750D01*
X893940Y-269333D01*
X894130Y-268750D01*
X894003Y-268167D01*
X893687Y-267667D01*
X893117Y-267333D01*
X892357Y-267167D01*
X891913Y-266833D01*
X891723Y-266250D01*
X891850Y-265667D01*
X892167Y-265250D01*
X892610Y-265000D01*
X893053D01*
X893497Y-265167D01*
X893877Y-265583D01*
G01X866203Y-295833D02*
X867723D01*
G01X866900Y-294750D02*
Y-296917D01*
G01X871177Y-295833D02*
X872823D01*
G01X877100Y-297500D02*
Y-292500D01*
X876340Y-293500D01*
G01Y-297500D02*
X877860D01*
G01X881060Y-297667D02*
X883340Y-292500D01*
G01X885907Y-296500D02*
X886287Y-297083D01*
X886793Y-297417D01*
X887363Y-297500D01*
X887870Y-297417D01*
X888377Y-297000D01*
X888693Y-296500D01*
X888757Y-296000D01*
X888630Y-295417D01*
X888187Y-295000D01*
X887743Y-294833D01*
X887173D01*
G01X887743D02*
X888123Y-294583D01*
X888440Y-294167D01*
X888567Y-293667D01*
X888440Y-293167D01*
X888123Y-292750D01*
X887553Y-292500D01*
X886983Y-292583D01*
X886413Y-292917D01*
G01X891197Y-293333D02*
X891577Y-292833D01*
X892020Y-292583D01*
X892527Y-292500D01*
X893160Y-292667D01*
X893603Y-293083D01*
X893730Y-293583D01*
X893667Y-294083D01*
X893413Y-294500D01*
X892147Y-295333D01*
X891577Y-295917D01*
X891197Y-296750D01*
X891070Y-297500D01*
X893730D01*
G01X918703Y-295833D02*
X920223D01*
G01X919400Y-294750D02*
Y-296917D01*
G01X923677Y-295833D02*
X925323D01*
G01X917817Y-285000D02*
X919400Y-280000D01*
X920983Y-285000D01*
G01X920413Y-283250D02*
X918387D01*
G01X923043Y-285000D02*
Y-280000D01*
X925957Y-285000D01*
Y-280000D01*
G01X929980Y-282500D02*
X931247D01*
Y-284000D01*
X930867Y-284500D01*
X930423Y-284833D01*
X929790Y-285000D01*
X929157Y-284833D01*
X928713Y-284500D01*
X928333Y-284000D01*
X928080Y-283417D01*
X927953Y-282750D01*
Y-282167D01*
X928080Y-281667D01*
X928333Y-281083D01*
X928713Y-280583D01*
X929093Y-280250D01*
X929600Y-280000D01*
X930043D01*
X930550Y-280167D01*
X930930Y-280500D01*
G01X933433Y-280000D02*
Y-285000D01*
X935967D01*
G01X941067D02*
X938533D01*
Y-280000D01*
X941067D01*
G01X940053Y-282417D02*
X938533D01*
G01X943570Y-284333D02*
X944077Y-284750D01*
X944647Y-285000D01*
X945153D01*
X945660Y-284750D01*
X946040Y-284333D01*
X946230Y-283750D01*
X946103Y-283167D01*
X945787Y-282667D01*
X945217Y-282333D01*
X944457Y-282167D01*
X944013Y-281833D01*
X943823Y-281250D01*
X943950Y-280667D01*
X944267Y-280250D01*
X944710Y-280000D01*
X945153D01*
X945597Y-280167D01*
X945977Y-280583D01*
G01X933197Y-293333D02*
X933577Y-292833D01*
X934020Y-292583D01*
X934527Y-292500D01*
X935160Y-292667D01*
X935603Y-293083D01*
X935730Y-293583D01*
X935667Y-294083D01*
X935413Y-294500D01*
X934147Y-295333D01*
X933577Y-295917D01*
X933197Y-296750D01*
X933070Y-297500D01*
X935730D01*
G01X968293Y-479417D02*
X967913Y-479167D01*
X967470Y-479000D01*
X966963D01*
X966393Y-479250D01*
X965950Y-479667D01*
X965633Y-480167D01*
X965380Y-481000D01*
X965317Y-481750D01*
X965443Y-482500D01*
X965633Y-483000D01*
X966013Y-483500D01*
X966457Y-483833D01*
X966900Y-484000D01*
X967343D01*
X967787Y-483833D01*
X968167Y-483583D01*
X968483Y-483250D01*
G01X970670Y-484000D02*
Y-479000D01*
G01X973330D02*
Y-484000D01*
G01Y-481500D02*
X970670D01*
G01X978367Y-484000D02*
X975833D01*
Y-479000D01*
X978367D01*
G01X977353Y-481417D02*
X975833D01*
G01X983593Y-479417D02*
X983213Y-479167D01*
X982770Y-479000D01*
X982263D01*
X981693Y-479250D01*
X981250Y-479667D01*
X980933Y-480167D01*
X980680Y-481000D01*
X980617Y-481750D01*
X980743Y-482500D01*
X980933Y-483000D01*
X981313Y-483500D01*
X981757Y-483833D01*
X982200Y-484000D01*
X982643D01*
X983087Y-483833D01*
X983467Y-483583D01*
X983783Y-483250D01*
G01X985907Y-484000D02*
Y-479000D01*
G01X988313D02*
X985907Y-482083D01*
G01X988693Y-484000D02*
X986983Y-480667D01*
G01X993667Y-484000D02*
X991133D01*
Y-479000D01*
X993667D01*
G01X992653Y-481417D02*
X991133D01*
G01X996233Y-484000D02*
Y-479000D01*
X997817D01*
X998323Y-479250D01*
X998640Y-479583D01*
X998767Y-480250D01*
X998640Y-480917D01*
X998260Y-481333D01*
X997817Y-481583D01*
X996233D01*
G01X997817D02*
X998767Y-484000D01*
G01X965633Y-459000D02*
Y-454000D01*
X967153D01*
X967660Y-454250D01*
X968040Y-454833D01*
X968167Y-455500D01*
X968040Y-456167D01*
X967723Y-456667D01*
X967153Y-456917D01*
X965633D01*
G01X972000Y-454000D02*
Y-459000D01*
G01X970543Y-454000D02*
X973457D01*
G01X975707Y-459000D02*
Y-454000D01*
X976973D01*
X977480Y-454250D01*
X977860Y-454583D01*
X978177Y-455083D01*
X978430Y-455667D01*
X978493Y-456500D01*
X978430Y-457333D01*
X978177Y-457917D01*
X977860Y-458417D01*
X977480Y-458750D01*
X976973Y-459000D01*
X975707D01*
G01X988567D02*
X986033D01*
Y-454000D01*
X988567D01*
G01X987553Y-456417D02*
X986033D01*
G01X990943Y-459000D02*
Y-454000D01*
X993857Y-459000D01*
Y-454000D01*
G01X997880Y-456500D02*
X999147D01*
Y-458000D01*
X998767Y-458500D01*
X998323Y-458833D01*
X997690Y-459000D01*
X997057Y-458833D01*
X996613Y-458500D01*
X996233Y-458000D01*
X995980Y-457417D01*
X995853Y-456750D01*
Y-456167D01*
X995980Y-455667D01*
X996233Y-455083D01*
X996613Y-454583D01*
X996993Y-454250D01*
X997500Y-454000D01*
X997943D01*
X998450Y-454167D01*
X998830Y-454500D01*
G01X1001840Y-454000D02*
X1003360D01*
G01X1002600D02*
Y-459000D01*
G01X1001840D02*
X1003360D01*
G01X1006243D02*
Y-454000D01*
X1009157Y-459000D01*
Y-454000D01*
G01X1014067Y-459000D02*
X1011533D01*
Y-454000D01*
X1014067D01*
G01X1013053Y-456417D02*
X1011533D01*
G01X1019167Y-459000D02*
X1016633D01*
Y-454000D01*
X1019167D01*
G01X1018153Y-456417D02*
X1016633D01*
G01X1021733Y-459000D02*
Y-454000D01*
X1023317D01*
X1023823Y-454250D01*
X1024140Y-454583D01*
X1024267Y-455250D01*
X1024140Y-455917D01*
X1023760Y-456333D01*
X1023317Y-456583D01*
X1021733D01*
G01X1023317D02*
X1024267Y-459000D01*
G01X965507Y-434000D02*
Y-429000D01*
X966773D01*
X967280Y-429250D01*
X967660Y-429583D01*
X967977Y-430083D01*
X968230Y-430667D01*
X968293Y-431500D01*
X968230Y-432333D01*
X967977Y-432917D01*
X967660Y-433417D01*
X967280Y-433750D01*
X966773Y-434000D01*
X965507D01*
G01X973267D02*
X970733D01*
Y-429000D01*
X973267D01*
G01X972253Y-431417D02*
X970733D01*
G01X975770Y-433333D02*
X976277Y-433750D01*
X976847Y-434000D01*
X977353D01*
X977860Y-433750D01*
X978240Y-433333D01*
X978430Y-432750D01*
X978303Y-432167D01*
X977987Y-431667D01*
X977417Y-431333D01*
X976657Y-431167D01*
X976213Y-430833D01*
X976023Y-430250D01*
X976150Y-429667D01*
X976467Y-429250D01*
X976910Y-429000D01*
X977353D01*
X977797Y-429167D01*
X978177Y-429583D01*
G01X981440Y-429000D02*
X982960D01*
G01X982200D02*
Y-434000D01*
G01X981440D02*
X982960D01*
G01X987680Y-431500D02*
X988947D01*
Y-433000D01*
X988567Y-433500D01*
X988123Y-433833D01*
X987490Y-434000D01*
X986857Y-433833D01*
X986413Y-433500D01*
X986033Y-433000D01*
X985780Y-432417D01*
X985653Y-431750D01*
Y-431167D01*
X985780Y-430667D01*
X986033Y-430083D01*
X986413Y-429583D01*
X986793Y-429250D01*
X987300Y-429000D01*
X987743D01*
X988250Y-429167D01*
X988630Y-429500D01*
G01X990943Y-434000D02*
Y-429000D01*
X993857Y-434000D01*
Y-429000D01*
G01X998767Y-434000D02*
X996233D01*
Y-429000D01*
X998767D01*
G01X997753Y-431417D02*
X996233D01*
G01X1001333Y-434000D02*
Y-429000D01*
X1002917D01*
X1003423Y-429250D01*
X1003740Y-429583D01*
X1003867Y-430250D01*
X1003740Y-430917D01*
X1003360Y-431333D01*
X1002917Y-431583D01*
X1001333D01*
G01X1002917D02*
X1003867Y-434000D01*
G01X965570Y-409000D02*
Y-404000D01*
G01X968230D02*
Y-409000D01*
G01Y-406500D02*
X965570D01*
G01X970417Y-409000D02*
X972000Y-404000D01*
X973583Y-409000D01*
G01X973013Y-407250D02*
X970987D01*
G01X975833Y-409000D02*
Y-404000D01*
X977417D01*
X977923Y-404250D01*
X978240Y-404583D01*
X978367Y-405250D01*
X978240Y-405917D01*
X977860Y-406333D01*
X977417Y-406583D01*
X975833D01*
G01X977417D02*
X978367Y-409000D01*
G01X980807D02*
Y-404000D01*
X982073D01*
X982580Y-404250D01*
X982960Y-404583D01*
X983277Y-405083D01*
X983530Y-405667D01*
X983593Y-406500D01*
X983530Y-407333D01*
X983277Y-407917D01*
X982960Y-408417D01*
X982580Y-408750D01*
X982073Y-409000D01*
X980807D01*
G01X985400Y-404000D02*
X986287Y-409000D01*
X987300Y-404000D01*
X988313Y-409000D01*
X989200Y-404000D01*
G01X990817Y-409000D02*
X992400Y-404000D01*
X993983Y-409000D01*
G01X993413Y-407250D02*
X991387D01*
G01X996233Y-409000D02*
Y-404000D01*
X997817D01*
X998323Y-404250D01*
X998640Y-404583D01*
X998767Y-405250D01*
X998640Y-405917D01*
X998260Y-406333D01*
X997817Y-406583D01*
X996233D01*
G01X997817D02*
X998767Y-409000D01*
G01X1003867D02*
X1001333D01*
Y-404000D01*
X1003867D01*
G01X1002853Y-406417D02*
X1001333D01*
G01X1011533Y-409000D02*
Y-404000D01*
X1013117D01*
X1013623Y-404250D01*
X1013940Y-404583D01*
X1014067Y-405250D01*
X1013940Y-405917D01*
X1013560Y-406333D01*
X1013117Y-406583D01*
X1011533D01*
G01X1013117D02*
X1014067Y-409000D01*
G01X1019167D02*
X1016633D01*
Y-404000D01*
X1019167D01*
G01X1018153Y-406417D02*
X1016633D01*
G01X1021733Y-404000D02*
Y-409000D01*
X1024267D01*
G01X1029367D02*
X1026833D01*
Y-404000D01*
X1029367D01*
G01X1028353Y-406417D02*
X1026833D01*
G01X1031617Y-409000D02*
X1033200Y-404000D01*
X1034783Y-409000D01*
G01X1034213Y-407250D02*
X1032187D01*
G01X1036970Y-408333D02*
X1037477Y-408750D01*
X1038047Y-409000D01*
X1038553D01*
X1039060Y-408750D01*
X1039440Y-408333D01*
X1039630Y-407750D01*
X1039503Y-407167D01*
X1039187Y-406667D01*
X1038617Y-406333D01*
X1037857Y-406167D01*
X1037413Y-405833D01*
X1037223Y-405250D01*
X1037350Y-404667D01*
X1037667Y-404250D01*
X1038110Y-404000D01*
X1038553D01*
X1038997Y-404167D01*
X1039377Y-404583D01*
G01X1044667Y-409000D02*
X1042133D01*
Y-404000D01*
X1044667D01*
G01X1043653Y-406417D02*
X1042133D01*
G01X966900Y-379000D02*
Y-384000D01*
G01X965443Y-379000D02*
X968357D01*
G01X973267Y-384000D02*
X970733D01*
Y-379000D01*
X973267D01*
G01X972253Y-381417D02*
X970733D01*
G01X975770Y-383333D02*
X976277Y-383750D01*
X976847Y-384000D01*
X977353D01*
X977860Y-383750D01*
X978240Y-383333D01*
X978430Y-382750D01*
X978303Y-382167D01*
X977987Y-381667D01*
X977417Y-381333D01*
X976657Y-381167D01*
X976213Y-380833D01*
X976023Y-380250D01*
X976150Y-379667D01*
X976467Y-379250D01*
X976910Y-379000D01*
X977353D01*
X977797Y-379167D01*
X978177Y-379583D01*
G01X982200Y-379000D02*
Y-384000D01*
G01X980743Y-379000D02*
X983657D01*
G01X991133Y-384000D02*
Y-379000D01*
X992653D01*
X993160Y-379250D01*
X993540Y-379833D01*
X993667Y-380500D01*
X993540Y-381167D01*
X993223Y-381667D01*
X992653Y-381917D01*
X991133D01*
G01X996233Y-384000D02*
Y-379000D01*
X997817D01*
X998323Y-379250D01*
X998640Y-379583D01*
X998767Y-380250D01*
X998640Y-380917D01*
X998260Y-381333D01*
X997817Y-381583D01*
X996233D01*
G01X997817D02*
X998767Y-384000D01*
G01X1002600D02*
X1002093Y-383917D01*
X1001650Y-383583D01*
X1001270Y-383083D01*
X1001017Y-382500D01*
X1000890Y-381833D01*
Y-381167D01*
X1001017Y-380500D01*
X1001270Y-379917D01*
X1001650Y-379417D01*
X1002093Y-379083D01*
X1002600Y-379000D01*
X1003107Y-379083D01*
X1003550Y-379417D01*
X1003930Y-379917D01*
X1004183Y-380500D01*
X1004310Y-381167D01*
Y-381833D01*
X1004183Y-382500D01*
X1003930Y-383083D01*
X1003550Y-383583D01*
X1003107Y-383917D01*
X1002600Y-384000D01*
G01X1009093Y-379417D02*
X1008713Y-379167D01*
X1008270Y-379000D01*
X1007763D01*
X1007193Y-379250D01*
X1006750Y-379667D01*
X1006433Y-380167D01*
X1006180Y-381000D01*
X1006117Y-381750D01*
X1006243Y-382500D01*
X1006433Y-383000D01*
X1006813Y-383500D01*
X1007257Y-383833D01*
X1007700Y-384000D01*
X1008143D01*
X1008587Y-383833D01*
X1008967Y-383583D01*
X1009283Y-383250D01*
G01X1014067Y-384000D02*
X1011533D01*
Y-379000D01*
X1014067D01*
G01X1013053Y-381417D02*
X1011533D01*
G01X1016570Y-383333D02*
X1017077Y-383750D01*
X1017647Y-384000D01*
X1018153D01*
X1018660Y-383750D01*
X1019040Y-383333D01*
X1019230Y-382750D01*
X1019103Y-382167D01*
X1018787Y-381667D01*
X1018217Y-381333D01*
X1017457Y-381167D01*
X1017013Y-380833D01*
X1016823Y-380250D01*
X1016950Y-379667D01*
X1017267Y-379250D01*
X1017710Y-379000D01*
X1018153D01*
X1018597Y-379167D01*
X1018977Y-379583D01*
G01X1021670Y-383333D02*
X1022177Y-383750D01*
X1022747Y-384000D01*
X1023253D01*
X1023760Y-383750D01*
X1024140Y-383333D01*
X1024330Y-382750D01*
X1024203Y-382167D01*
X1023887Y-381667D01*
X1023317Y-381333D01*
X1022557Y-381167D01*
X1022113Y-380833D01*
X1021923Y-380250D01*
X1022050Y-379667D01*
X1022367Y-379250D01*
X1022810Y-379000D01*
X1023253D01*
X1023697Y-379167D01*
X1024077Y-379583D01*
G01X968293Y-354417D02*
X967913Y-354167D01*
X967470Y-354000D01*
X966963D01*
X966393Y-354250D01*
X965950Y-354667D01*
X965633Y-355167D01*
X965380Y-356000D01*
X965317Y-356750D01*
X965443Y-357500D01*
X965633Y-358000D01*
X966013Y-358500D01*
X966457Y-358833D01*
X966900Y-359000D01*
X967343D01*
X967787Y-358833D01*
X968167Y-358583D01*
X968483Y-358250D01*
G01X972000Y-359000D02*
X971493Y-358917D01*
X971050Y-358583D01*
X970670Y-358083D01*
X970417Y-357500D01*
X970290Y-356833D01*
Y-356167D01*
X970417Y-355500D01*
X970670Y-354917D01*
X971050Y-354417D01*
X971493Y-354083D01*
X972000Y-354000D01*
X972507Y-354083D01*
X972950Y-354417D01*
X973330Y-354917D01*
X973583Y-355500D01*
X973710Y-356167D01*
Y-356833D01*
X973583Y-357500D01*
X973330Y-358083D01*
X972950Y-358583D01*
X972507Y-358917D01*
X972000Y-359000D01*
G01X975453D02*
Y-354000D01*
X977100Y-358167D01*
X978747Y-354000D01*
Y-359000D01*
G01X980933D02*
Y-354000D01*
X982453D01*
X982960Y-354250D01*
X983340Y-354833D01*
X983467Y-355500D01*
X983340Y-356167D01*
X983023Y-356667D01*
X982453Y-356917D01*
X980933D01*
G01X987300Y-359000D02*
X986793Y-358917D01*
X986350Y-358583D01*
X985970Y-358083D01*
X985717Y-357500D01*
X985590Y-356833D01*
Y-356167D01*
X985717Y-355500D01*
X985970Y-354917D01*
X986350Y-354417D01*
X986793Y-354083D01*
X987300Y-354000D01*
X987807Y-354083D01*
X988250Y-354417D01*
X988630Y-354917D01*
X988883Y-355500D01*
X989010Y-356167D01*
Y-356833D01*
X988883Y-357500D01*
X988630Y-358083D01*
X988250Y-358583D01*
X987807Y-358917D01*
X987300Y-359000D01*
G01X990943D02*
Y-354000D01*
X993857Y-359000D01*
Y-354000D01*
G01X998767Y-359000D02*
X996233D01*
Y-354000D01*
X998767D01*
G01X997753Y-356417D02*
X996233D01*
G01X1001143Y-359000D02*
Y-354000D01*
X1004057Y-359000D01*
Y-354000D01*
G01X1007700D02*
Y-359000D01*
G01X1006243Y-354000D02*
X1009157D01*
G01X1019167Y-359000D02*
X1016633D01*
Y-354000D01*
X1019167D01*
G01X1018153Y-356417D02*
X1016633D01*
G01X1021543Y-359000D02*
Y-354000D01*
X1024457Y-359000D01*
Y-354000D01*
G01X1028480Y-356500D02*
X1029747D01*
Y-358000D01*
X1029367Y-358500D01*
X1028923Y-358833D01*
X1028290Y-359000D01*
X1027657Y-358833D01*
X1027213Y-358500D01*
X1026833Y-358000D01*
X1026580Y-357417D01*
X1026453Y-356750D01*
Y-356167D01*
X1026580Y-355667D01*
X1026833Y-355083D01*
X1027213Y-354583D01*
X1027593Y-354250D01*
X1028100Y-354000D01*
X1028543D01*
X1029050Y-354167D01*
X1029430Y-354500D01*
G01X1032440Y-354000D02*
X1033960D01*
G01X1033200D02*
Y-359000D01*
G01X1032440D02*
X1033960D01*
G01X1036843D02*
Y-354000D01*
X1039757Y-359000D01*
Y-354000D01*
G01X1044667Y-359000D02*
X1042133D01*
Y-354000D01*
X1044667D01*
G01X1043653Y-356417D02*
X1042133D01*
G01X1049767Y-359000D02*
X1047233D01*
Y-354000D01*
X1049767D01*
G01X1048753Y-356417D02*
X1047233D01*
G01X1052333Y-359000D02*
Y-354000D01*
X1053917D01*
X1054423Y-354250D01*
X1054740Y-354583D01*
X1054867Y-355250D01*
X1054740Y-355917D01*
X1054360Y-356333D01*
X1053917Y-356583D01*
X1052333D01*
G01X1053917D02*
X1054867Y-359000D01*
G01X966900Y-329000D02*
Y-334000D01*
G01X965443Y-329000D02*
X968357D01*
G01X973267Y-334000D02*
X970733D01*
Y-329000D01*
X973267D01*
G01X972253Y-331417D02*
X970733D01*
G01X975770Y-333333D02*
X976277Y-333750D01*
X976847Y-334000D01*
X977353D01*
X977860Y-333750D01*
X978240Y-333333D01*
X978430Y-332750D01*
X978303Y-332167D01*
X977987Y-331667D01*
X977417Y-331333D01*
X976657Y-331167D01*
X976213Y-330833D01*
X976023Y-330250D01*
X976150Y-329667D01*
X976467Y-329250D01*
X976910Y-329000D01*
X977353D01*
X977797Y-329167D01*
X978177Y-329583D01*
G01X982200Y-329000D02*
Y-334000D01*
G01X980743Y-329000D02*
X983657D01*
G01X993667Y-334000D02*
X991133D01*
Y-329000D01*
X993667D01*
G01X992653Y-331417D02*
X991133D01*
G01X996043Y-334000D02*
Y-329000D01*
X998957Y-334000D01*
Y-329000D01*
G01X1002980Y-331500D02*
X1004247D01*
Y-333000D01*
X1003867Y-333500D01*
X1003423Y-333833D01*
X1002790Y-334000D01*
X1002157Y-333833D01*
X1001713Y-333500D01*
X1001333Y-333000D01*
X1001080Y-332417D01*
X1000953Y-331750D01*
Y-331167D01*
X1001080Y-330667D01*
X1001333Y-330083D01*
X1001713Y-329583D01*
X1002093Y-329250D01*
X1002600Y-329000D01*
X1003043D01*
X1003550Y-329167D01*
X1003930Y-329500D01*
G01X1006940Y-329000D02*
X1008460D01*
G01X1007700D02*
Y-334000D01*
G01X1006940D02*
X1008460D01*
G01X1011343D02*
Y-329000D01*
X1014257Y-334000D01*
Y-329000D01*
G01X1019167Y-334000D02*
X1016633D01*
Y-329000D01*
X1019167D01*
G01X1018153Y-331417D02*
X1016633D01*
G01X1024267Y-334000D02*
X1021733D01*
Y-329000D01*
X1024267D01*
G01X1023253Y-331417D02*
X1021733D01*
G01X1026833Y-334000D02*
Y-329000D01*
X1028417D01*
X1028923Y-329250D01*
X1029240Y-329583D01*
X1029367Y-330250D01*
X1029240Y-330917D01*
X1028860Y-331333D01*
X1028417Y-331583D01*
X1026833D01*
G01X1028417D02*
X1029367Y-334000D01*
G01X965570Y-309000D02*
Y-304000D01*
G01X968230D02*
Y-309000D01*
G01Y-306500D02*
X965570D01*
G01X970417Y-309000D02*
X972000Y-304000D01*
X973583Y-309000D01*
G01X973013Y-307250D02*
X970987D01*
G01X975833Y-309000D02*
Y-304000D01*
X977417D01*
X977923Y-304250D01*
X978240Y-304583D01*
X978367Y-305250D01*
X978240Y-305917D01*
X977860Y-306333D01*
X977417Y-306583D01*
X975833D01*
G01X977417D02*
X978367Y-309000D01*
G01X980807D02*
Y-304000D01*
X982073D01*
X982580Y-304250D01*
X982960Y-304583D01*
X983277Y-305083D01*
X983530Y-305667D01*
X983593Y-306500D01*
X983530Y-307333D01*
X983277Y-307917D01*
X982960Y-308417D01*
X982580Y-308750D01*
X982073Y-309000D01*
X980807D01*
G01X985400Y-304000D02*
X986287Y-309000D01*
X987300Y-304000D01*
X988313Y-309000D01*
X989200Y-304000D01*
G01X990817Y-309000D02*
X992400Y-304000D01*
X993983Y-309000D01*
G01X993413Y-307250D02*
X991387D01*
G01X996233Y-309000D02*
Y-304000D01*
X997817D01*
X998323Y-304250D01*
X998640Y-304583D01*
X998767Y-305250D01*
X998640Y-305917D01*
X998260Y-306333D01*
X997817Y-306583D01*
X996233D01*
G01X997817D02*
X998767Y-309000D01*
G01X1003867D02*
X1001333D01*
Y-304000D01*
X1003867D01*
G01X1002853Y-306417D02*
X1001333D01*
G01X1011470Y-308333D02*
X1011977Y-308750D01*
X1012547Y-309000D01*
X1013053D01*
X1013560Y-308750D01*
X1013940Y-308333D01*
X1014130Y-307750D01*
X1014003Y-307167D01*
X1013687Y-306667D01*
X1013117Y-306333D01*
X1012357Y-306167D01*
X1011913Y-305833D01*
X1011723Y-305250D01*
X1011850Y-304667D01*
X1012167Y-304250D01*
X1012610Y-304000D01*
X1013053D01*
X1013497Y-304167D01*
X1013877Y-304583D01*
G01X1017900Y-309000D02*
Y-306750D01*
X1016633Y-304000D01*
G01X1019167D02*
X1017900Y-306750D01*
G01X1021670Y-308333D02*
X1022177Y-308750D01*
X1022747Y-309000D01*
X1023253D01*
X1023760Y-308750D01*
X1024140Y-308333D01*
X1024330Y-307750D01*
X1024203Y-307167D01*
X1023887Y-306667D01*
X1023317Y-306333D01*
X1022557Y-306167D01*
X1022113Y-305833D01*
X1021923Y-305250D01*
X1022050Y-304667D01*
X1022367Y-304250D01*
X1022810Y-304000D01*
X1023253D01*
X1023697Y-304167D01*
X1024077Y-304583D01*
G01X1028100Y-304000D02*
Y-309000D01*
G01X1026643Y-304000D02*
X1029557D01*
G01X1034467Y-309000D02*
X1031933D01*
Y-304000D01*
X1034467D01*
G01X1033453Y-306417D02*
X1031933D01*
G01X1036653Y-309000D02*
Y-304000D01*
X1038300Y-308167D01*
X1039947Y-304000D01*
Y-309000D01*
G01X1042070Y-308333D02*
X1042577Y-308750D01*
X1043147Y-309000D01*
X1043653D01*
X1044160Y-308750D01*
X1044540Y-308333D01*
X1044730Y-307750D01*
X1044603Y-307167D01*
X1044287Y-306667D01*
X1043717Y-306333D01*
X1042957Y-306167D01*
X1042513Y-305833D01*
X1042323Y-305250D01*
X1042450Y-304667D01*
X1042767Y-304250D01*
X1043210Y-304000D01*
X1043653D01*
X1044097Y-304167D01*
X1044477Y-304583D01*
G01X965570Y-284000D02*
Y-279000D01*
G01X968230D02*
Y-284000D01*
G01Y-281500D02*
X965570D01*
G01X970417Y-284000D02*
X972000Y-279000D01*
X973583Y-284000D01*
G01X973013Y-282250D02*
X970987D01*
G01X975833Y-284000D02*
Y-279000D01*
X977417D01*
X977923Y-279250D01*
X978240Y-279583D01*
X978367Y-280250D01*
X978240Y-280917D01*
X977860Y-281333D01*
X977417Y-281583D01*
X975833D01*
G01X977417D02*
X978367Y-284000D01*
G01X980807D02*
Y-279000D01*
X982073D01*
X982580Y-279250D01*
X982960Y-279583D01*
X983277Y-280083D01*
X983530Y-280667D01*
X983593Y-281500D01*
X983530Y-282333D01*
X983277Y-282917D01*
X982960Y-283417D01*
X982580Y-283750D01*
X982073Y-284000D01*
X980807D01*
G01X985400Y-279000D02*
X986287Y-284000D01*
X987300Y-279000D01*
X988313Y-284000D01*
X989200Y-279000D01*
G01X990817Y-284000D02*
X992400Y-279000D01*
X993983Y-284000D01*
G01X993413Y-282250D02*
X991387D01*
G01X996233Y-284000D02*
Y-279000D01*
X997817D01*
X998323Y-279250D01*
X998640Y-279583D01*
X998767Y-280250D01*
X998640Y-280917D01*
X998260Y-281333D01*
X997817Y-281583D01*
X996233D01*
G01X997817D02*
X998767Y-284000D01*
G01X1003867D02*
X1001333D01*
Y-279000D01*
X1003867D01*
G01X1002853Y-281417D02*
X1001333D01*
G01X1011470Y-283333D02*
X1011977Y-283750D01*
X1012547Y-284000D01*
X1013053D01*
X1013560Y-283750D01*
X1013940Y-283333D01*
X1014130Y-282750D01*
X1014003Y-282167D01*
X1013687Y-281667D01*
X1013117Y-281333D01*
X1012357Y-281167D01*
X1011913Y-280833D01*
X1011723Y-280250D01*
X1011850Y-279667D01*
X1012167Y-279250D01*
X1012610Y-279000D01*
X1013053D01*
X1013497Y-279167D01*
X1013877Y-279583D01*
G01X1019167Y-284000D02*
X1016633D01*
Y-279000D01*
X1019167D01*
G01X1018153Y-281417D02*
X1016633D01*
G01X1021733Y-284000D02*
Y-279000D01*
X1023317D01*
X1023823Y-279250D01*
X1024140Y-279583D01*
X1024267Y-280250D01*
X1024140Y-280917D01*
X1023760Y-281333D01*
X1023317Y-281583D01*
X1021733D01*
G01X1023317D02*
X1024267Y-284000D01*
G01X1026517Y-279000D02*
X1028100Y-284000D01*
X1029683Y-279000D01*
G01X1032440D02*
X1033960D01*
G01X1033200D02*
Y-284000D01*
G01X1032440D02*
X1033960D01*
G01X1039693Y-279417D02*
X1039313Y-279167D01*
X1038870Y-279000D01*
X1038363D01*
X1037793Y-279250D01*
X1037350Y-279667D01*
X1037033Y-280167D01*
X1036780Y-281000D01*
X1036717Y-281750D01*
X1036843Y-282500D01*
X1037033Y-283000D01*
X1037413Y-283500D01*
X1037857Y-283833D01*
X1038300Y-284000D01*
X1038743D01*
X1039187Y-283833D01*
X1039567Y-283583D01*
X1039883Y-283250D01*
G01X1044667Y-284000D02*
X1042133D01*
Y-279000D01*
X1044667D01*
G01X1043653Y-281417D02*
X1042133D01*
G01X1047170Y-283333D02*
X1047677Y-283750D01*
X1048247Y-284000D01*
X1048753D01*
X1049260Y-283750D01*
X1049640Y-283333D01*
X1049830Y-282750D01*
X1049703Y-282167D01*
X1049387Y-281667D01*
X1048817Y-281333D01*
X1048057Y-281167D01*
X1047613Y-280833D01*
X1047423Y-280250D01*
X1047550Y-279667D01*
X1047867Y-279250D01*
X1048310Y-279000D01*
X1048753D01*
X1049197Y-279167D01*
X1049577Y-279583D01*
G01X966900Y-254000D02*
Y-259000D01*
G01X965443Y-254000D02*
X968357D01*
G01X973267Y-259000D02*
X970733D01*
Y-254000D01*
X973267D01*
G01X972253Y-256417D02*
X970733D01*
G01X975453Y-259000D02*
Y-254000D01*
X977100Y-258167D01*
X978747Y-254000D01*
Y-259000D01*
G01X980933D02*
Y-254000D01*
X982453D01*
X982960Y-254250D01*
X983340Y-254833D01*
X983467Y-255500D01*
X983340Y-256167D01*
X983023Y-256667D01*
X982453Y-256917D01*
X980933D01*
G01X986033Y-254000D02*
Y-259000D01*
X988567D01*
G01X990817D02*
X992400Y-254000D01*
X993983Y-259000D01*
G01X993413Y-257250D02*
X991387D01*
G01X997500Y-254000D02*
Y-259000D01*
G01X996043Y-254000D02*
X998957D01*
G01X1003867Y-259000D02*
X1001333D01*
Y-254000D01*
X1003867D01*
G01X1002853Y-256417D02*
X1001333D01*
G01X1014067Y-259000D02*
X1011533D01*
Y-254000D01*
X1014067D01*
G01X1013053Y-256417D02*
X1011533D01*
G01X1016443Y-259000D02*
Y-254000D01*
X1019357Y-259000D01*
Y-254000D01*
G01X1023380Y-256500D02*
X1024647D01*
Y-258000D01*
X1024267Y-258500D01*
X1023823Y-258833D01*
X1023190Y-259000D01*
X1022557Y-258833D01*
X1022113Y-258500D01*
X1021733Y-258000D01*
X1021480Y-257417D01*
X1021353Y-256750D01*
Y-256167D01*
X1021480Y-255667D01*
X1021733Y-255083D01*
X1022113Y-254583D01*
X1022493Y-254250D01*
X1023000Y-254000D01*
X1023443D01*
X1023950Y-254167D01*
X1024330Y-254500D01*
G01X1027340Y-254000D02*
X1028860D01*
G01X1028100D02*
Y-259000D01*
G01X1027340D02*
X1028860D01*
G01X1031743D02*
Y-254000D01*
X1034657Y-259000D01*
Y-254000D01*
G01X1039567Y-259000D02*
X1037033D01*
Y-254000D01*
X1039567D01*
G01X1038553Y-256417D02*
X1037033D01*
G01X1044667Y-259000D02*
X1042133D01*
Y-254000D01*
X1044667D01*
G01X1043653Y-256417D02*
X1042133D01*
G01X1047233Y-259000D02*
Y-254000D01*
X1048817D01*
X1049323Y-254250D01*
X1049640Y-254583D01*
X1049767Y-255250D01*
X1049640Y-255917D01*
X1049260Y-256333D01*
X1048817Y-256583D01*
X1047233D01*
G01X1048817D02*
X1049767Y-259000D01*
M02*
