G04 ================== begin FILE IDENTIFICATION RECORD ==================*
G04 Layout Name:  C:/tmp/20_066534b/worklib/02_066534b_top/physical/08_066534b.brd*
G04 Film Name:    mask_sec*
G04 File Format:  Gerber RS274X*
G04 File Origin:  Cadence Allegro 17.4-S032*
G04 Origin Date:  Tue Feb 21 15:03:36 2023*
G04 *
G04 Layer:  VIA CLASS/SOLDERMASK_BOTTOM*
G04 Layer:  PIN/SOLDERMASK_BOTTOM*
G04 Layer:  PACKAGE GEOMETRY/SOLDERMASK_BOTTOM*
G04 Layer:  BOARD GEOMETRY/TOOLING_CORNERS*
G04 Layer:  BOARD GEOMETRY/SOLDERMASK_BOTTOM*
G04 Layer:  BOARD GEOMETRY/ROOT_NUMBER*
G04 *
G04 Offset:    (0.00 0.00)*
G04 Mirror:    No*
G04 Mode:      Positive*
G04 Rotation:  0*
G04 FullContactRelief:  No*
G04 UndefLineWidth:     8.00*
G04 ================== end FILE IDENTIFICATION RECORD ====================*
%FSLAX25Y25*MOIN*%
%IR0*IPPOS*OFA0.00000B0.00000*MIA0B0*SFA1.00000B1.00000*%
%ADD13C,.06*%
%ADD12C,.07*%
%ADD10C,.016*%
%ADD16C,.047*%
%ADD14R,.07X.07*%
%ADD15R,.047X.047*%
%ADD11C,.145*%
%ADD17C,.05*%
%ADD18C,.008*%
G75*
%LPD*%
G75*
G54D10*
X-25000Y173000D03*
X-29000Y176000D03*
Y173000D03*
X-25000Y176000D03*
X75500Y28500D03*
X69500D03*
Y33500D03*
X72500Y31000D03*
X75500Y33500D03*
X72500Y36000D03*
X75500Y38500D03*
X69500D03*
X170000Y56000D03*
Y60500D03*
Y65000D03*
Y126001D03*
Y130501D03*
Y135001D03*
X179000Y56000D03*
X174500D03*
X179000Y60500D03*
Y65000D03*
X174500D03*
X174560Y60566D03*
X179000Y126001D03*
X174500D03*
X179000Y130501D03*
Y135001D03*
X174500D03*
X174560Y130567D03*
G54D11*
X0Y0D03*
X5000Y190000D03*
X205000Y20000D03*
Y130000D03*
G54D12*
X19000Y190000D03*
X29000D03*
X39000D03*
X65000Y0D03*
X49000Y190000D03*
X59000D03*
X85000Y0D03*
X75000D03*
X69000Y190000D03*
X79000D03*
X89000D03*
X105000Y0D03*
X95000D03*
X99000Y190000D03*
X125000Y0D03*
X115000D03*
X125000Y190000D03*
X135000D03*
X145000D03*
X175000Y0D03*
X165000D03*
X155000D03*
Y190000D03*
X165000D03*
X175000D03*
X195000Y0D03*
X185000D03*
Y190000D03*
X231125Y35000D03*
X221125D03*
Y25000D03*
X231125Y55000D03*
X221125D03*
X231125Y45000D03*
X221125D03*
X231125Y75000D03*
X221125D03*
X231125Y65000D03*
X221125D03*
X231125Y95000D03*
X221125D03*
X231125Y85000D03*
X221125D03*
X231125Y115000D03*
X221125D03*
X231125Y105000D03*
X221125D03*
Y145000D03*
Y135000D03*
Y125000D03*
X231125Y145000D03*
Y135000D03*
Y125000D03*
Y165000D03*
X221125D03*
Y155000D03*
X231125D03*
G54D13*
X27500Y107000D03*
Y127000D03*
X48457Y107000D03*
Y127000D03*
G54D14*
X55000Y0D03*
X109000Y190000D03*
X145000Y0D03*
X195000Y190000D03*
X231125Y25000D03*
G54D15*
X82500Y139000D03*
G54D16*
X87500D03*
Y144000D03*
X82500D03*
X107500Y139000D03*
Y144000D03*
X97500Y139000D03*
X102500D03*
Y144000D03*
X97500D03*
X92500Y139000D03*
Y144000D03*
X117500Y139000D03*
Y144000D03*
X112500Y139000D03*
Y144000D03*
G54D17*
G01X-67500Y-12500D02*
X-32500D01*
G01X-67500Y202500D02*
X-32500D01*
G01X-57500Y-22500D02*
Y12500D01*
G01Y212500D02*
Y177500D01*
G01X262500Y-12500D02*
X227500D01*
G01X262500Y202500D02*
X227500D01*
G01X252500Y-22500D02*
Y12500D01*
G01Y212500D02*
Y177500D01*
G54D18*
G01X13375Y280333D02*
X14375Y279500D01*
X15500Y279000D01*
X16500D01*
X17500Y279500D01*
X18250Y280333D01*
X18625Y281500D01*
X18375Y282666D01*
X17750Y283667D01*
X16625Y284333D01*
X15125Y284667D01*
X14250Y285333D01*
X13875Y286500D01*
X14125Y287667D01*
X14750Y288500D01*
X15625Y289000D01*
X16500D01*
X17375Y288667D01*
X18125Y287833D01*
G01X26000Y279000D02*
X25000Y279167D01*
X24125Y279833D01*
X23375Y280833D01*
X22875Y282000D01*
X22625Y283333D01*
Y284667D01*
X22875Y286000D01*
X23375Y287167D01*
X24125Y288167D01*
X25000Y288833D01*
X26000Y289000D01*
X27000Y288833D01*
X27875Y288167D01*
X28625Y287167D01*
X29125Y286000D01*
X29375Y284667D01*
Y283333D01*
X29125Y282000D01*
X28625Y280833D01*
X27875Y279833D01*
X27000Y279167D01*
X26000Y279000D01*
G01X33500Y289000D02*
Y279000D01*
X38500D01*
G01X43250D02*
Y289000D01*
X45750D01*
X46750Y288500D01*
X47500Y287833D01*
X48125Y286833D01*
X48625Y285666D01*
X48750Y284000D01*
X48625Y282333D01*
X48125Y281167D01*
X47500Y280166D01*
X46750Y279500D01*
X45750Y279000D01*
X43250D01*
G01X58500D02*
X53500D01*
Y289000D01*
X58500D01*
G01X56500Y284167D02*
X53500D01*
G01X63500Y279000D02*
Y289000D01*
X66625D01*
X67625Y288500D01*
X68250Y287833D01*
X68500Y286500D01*
X68250Y285167D01*
X67500Y284333D01*
X66625Y283833D01*
X63500D01*
G01X66625D02*
X68500Y279000D01*
G01X72750D02*
Y289000D01*
X76000Y280667D01*
X79250Y289000D01*
Y279000D01*
G01X82875D02*
X86000Y289000D01*
X89125Y279000D01*
G01X88000Y282500D02*
X84000D01*
G01X93375Y280333D02*
X94375Y279500D01*
X95500Y279000D01*
X96500D01*
X97500Y279500D01*
X98250Y280333D01*
X98625Y281500D01*
X98375Y282666D01*
X97750Y283667D01*
X96625Y284333D01*
X95125Y284667D01*
X94250Y285333D01*
X93875Y286500D01*
X94125Y287667D01*
X94750Y288500D01*
X95625Y289000D01*
X96500D01*
X97375Y288667D01*
X98125Y287833D01*
G01X103250Y279000D02*
Y289000D01*
G01X108000D02*
X103250Y282833D01*
G01X108750Y279000D02*
X105375Y285666D01*
G01X123375Y280333D02*
X124375Y279500D01*
X125500Y279000D01*
X126500D01*
X127500Y279500D01*
X128250Y280333D01*
X128625Y281500D01*
X128375Y282666D01*
X127750Y283667D01*
X126625Y284333D01*
X125125Y284667D01*
X124250Y285333D01*
X123875Y286500D01*
X124125Y287667D01*
X124750Y288500D01*
X125625Y289000D01*
X126500D01*
X127375Y288667D01*
X128125Y287833D01*
G01X138500Y279000D02*
X133500D01*
Y289000D01*
X138500D01*
G01X136500Y284167D02*
X133500D01*
G01X148750Y288167D02*
X148000Y288667D01*
X147125Y289000D01*
X146125D01*
X145000Y288500D01*
X144125Y287667D01*
X143500Y286667D01*
X143000Y285000D01*
X142875Y283500D01*
X143125Y282000D01*
X143500Y281000D01*
X144250Y280000D01*
X145125Y279333D01*
X146000Y279000D01*
X146875D01*
X147750Y279333D01*
X148500Y279833D01*
X149125Y280500D01*
G01X156000Y279000D02*
X155000Y279167D01*
X154125Y279833D01*
X153375Y280833D01*
X152875Y282000D01*
X152625Y283333D01*
Y284667D01*
X152875Y286000D01*
X153375Y287167D01*
X154125Y288167D01*
X155000Y288833D01*
X156000Y289000D01*
X157000Y288833D01*
X157875Y288167D01*
X158625Y287167D01*
X159125Y286000D01*
X159375Y284667D01*
Y283333D01*
X159125Y282000D01*
X158625Y280833D01*
X157875Y279833D01*
X157000Y279167D01*
X156000Y279000D01*
G01X163125D02*
Y289000D01*
X168875Y279000D01*
Y289000D01*
G01X173250Y279000D02*
Y289000D01*
X175750D01*
X176750Y288500D01*
X177500Y287833D01*
X178125Y286833D01*
X178625Y285666D01*
X178750Y284000D01*
X178625Y282333D01*
X178125Y281167D01*
X177500Y280166D01*
X176750Y279500D01*
X175750Y279000D01*
X173250D01*
G01X182875D02*
X186000Y289000D01*
X189125Y279000D01*
G01X188000Y282500D02*
X184000D01*
G01X193500Y279000D02*
Y289000D01*
X196625D01*
X197625Y288500D01*
X198250Y287833D01*
X198500Y286500D01*
X198250Y285167D01*
X197500Y284333D01*
X196625Y283833D01*
X193500D01*
G01X196625D02*
X198500Y279000D01*
G01X206000D02*
Y283500D01*
X203500Y289000D01*
G01X208500D02*
X206000Y283500D01*
G01X56000Y269000D02*
X55000Y268667D01*
X54250Y267833D01*
X53750Y266833D01*
X53375Y265500D01*
X53250Y264000D01*
X53375Y262500D01*
X53750Y261167D01*
X54250Y260166D01*
X55000Y259333D01*
X56000Y259000D01*
X57000Y259333D01*
X57750Y260166D01*
X58250Y261167D01*
X58625Y262500D01*
X58750Y264000D01*
X58625Y265500D01*
X58250Y266833D01*
X57750Y267833D01*
X57000Y268667D01*
X56000Y269000D01*
G01X66000Y259000D02*
X66875Y259167D01*
X67875Y259667D01*
X68500Y260500D01*
X68750Y261667D01*
X68500Y262833D01*
X67750Y263833D01*
X66625Y264333D01*
X65375D01*
X64625Y264667D01*
X64000Y265500D01*
X63750Y266667D01*
X64125Y267833D01*
X65000Y268667D01*
X66000Y269000D01*
X67000Y268667D01*
X67875Y267833D01*
X68250Y266667D01*
X68000Y265500D01*
X67375Y264667D01*
X66625Y264333D01*
X65375D01*
X64250Y263833D01*
X63500Y262833D01*
X63250Y261667D01*
X63500Y260500D01*
X64125Y259667D01*
X65125Y259167D01*
X66000Y259000D01*
G01X74375Y262333D02*
X77625D01*
G01X144375D02*
X147625D01*
G01X156000Y269000D02*
X155000Y268667D01*
X154250Y267833D01*
X153750Y266833D01*
X153375Y265500D01*
X153250Y264000D01*
X153375Y262500D01*
X153750Y261167D01*
X154250Y260166D01*
X155000Y259333D01*
X156000Y259000D01*
X157000Y259333D01*
X157750Y260166D01*
X158250Y261167D01*
X158625Y262500D01*
X158750Y264000D01*
X158625Y265500D01*
X158250Y266833D01*
X157750Y267833D01*
X157000Y268667D01*
X156000Y269000D01*
G01X163625Y263166D02*
X164500Y264333D01*
X165250Y265000D01*
X166250Y265333D01*
X167125Y265000D01*
X167750Y264333D01*
X168250Y263333D01*
X168375Y262167D01*
X168250Y261167D01*
X167750Y260166D01*
X167000Y259333D01*
X166125Y259000D01*
X165125Y259333D01*
X164250Y260333D01*
X163750Y261833D01*
X163625Y263500D01*
X163875Y265666D01*
X164250Y266833D01*
X164875Y268000D01*
X165750Y268833D01*
X166625Y269000D01*
X167500Y268667D01*
X168125Y267833D01*
G01X86000Y269000D02*
X85000Y268667D01*
X84250Y267833D01*
X83750Y266833D01*
X83375Y265500D01*
X83250Y264000D01*
X83375Y262500D01*
X83750Y261167D01*
X84250Y260166D01*
X85000Y259333D01*
X86000Y259000D01*
X87000Y259333D01*
X87750Y260166D01*
X88250Y261167D01*
X88625Y262500D01*
X88750Y264000D01*
X88625Y265500D01*
X88250Y266833D01*
X87750Y267833D01*
X87000Y268667D01*
X86000Y269000D01*
G01X93625Y263166D02*
X94500Y264333D01*
X95250Y265000D01*
X96250Y265333D01*
X97125Y265000D01*
X97750Y264333D01*
X98250Y263333D01*
X98375Y262167D01*
X98250Y261167D01*
X97750Y260166D01*
X97000Y259333D01*
X96125Y259000D01*
X95125Y259333D01*
X94250Y260333D01*
X93750Y261833D01*
X93625Y263500D01*
X93875Y265666D01*
X94250Y266833D01*
X94875Y268000D01*
X95750Y268833D01*
X96625Y269000D01*
X97500Y268667D01*
X98125Y267833D01*
G01X103625Y263166D02*
X104500Y264333D01*
X105250Y265000D01*
X106250Y265333D01*
X107125Y265000D01*
X107750Y264333D01*
X108250Y263333D01*
X108375Y262167D01*
X108250Y261167D01*
X107750Y260166D01*
X107000Y259333D01*
X106125Y259000D01*
X105125Y259333D01*
X104250Y260333D01*
X103750Y261833D01*
X103625Y263500D01*
X103875Y265666D01*
X104250Y266833D01*
X104875Y268000D01*
X105750Y268833D01*
X106625Y269000D01*
X107500Y268667D01*
X108125Y267833D01*
G01X113250Y260500D02*
X114000Y259667D01*
X114875Y259167D01*
X116000Y259000D01*
X117125Y259333D01*
X118000Y260000D01*
X118625Y261167D01*
X118750Y262500D01*
X118500Y263833D01*
X117875Y264667D01*
X117000Y265333D01*
X116125Y265500D01*
X115250Y265333D01*
X114125Y264667D01*
X114500Y269000D01*
X117875D01*
G01X123250Y261000D02*
X124000Y259833D01*
X125000Y259167D01*
X126125Y259000D01*
X127125Y259167D01*
X128125Y260000D01*
X128750Y261000D01*
X128875Y262000D01*
X128625Y263166D01*
X127750Y264000D01*
X126875Y264333D01*
X125750D01*
G01X126875D02*
X127625Y264833D01*
X128250Y265666D01*
X128500Y266667D01*
X128250Y267667D01*
X127625Y268500D01*
X126500Y269000D01*
X125375Y268833D01*
X124250Y268167D01*
G01X137500Y259000D02*
Y269000D01*
X132875Y261833D01*
X139125D01*
G01X88500Y239000D02*
Y249000D01*
X91625D01*
X92625Y248500D01*
X93250Y247833D01*
X93500Y246500D01*
X93250Y245167D01*
X92500Y244333D01*
X91625Y243833D01*
X88500D01*
G01X91625D02*
X93500Y239000D01*
G01X103500D02*
X98500D01*
Y249000D01*
X103500D01*
G01X101500Y244167D02*
X98500D01*
G01X107875Y249000D02*
X111000Y239000D01*
X114125Y249000D01*
G01X132000Y244333D02*
X132500Y244833D01*
X132875Y245666D01*
X133125Y246833D01*
X132875Y247833D01*
X132375Y248500D01*
X131500Y249000D01*
X128125D01*
Y239000D01*
X132250D01*
X133125Y239667D01*
X133625Y240667D01*
X133875Y241833D01*
X133625Y243000D01*
X132875Y244000D01*
X132000Y244333D01*
X128125D01*
M02*
