M48
INCH,LZ
T01C.004
T02C.01
T03C.028
T04C.035
T05C.045
T06C.125
;LEADER: 12 
;HEADER: 08_066534b 
;CODE  : ASCII 
;FILE  : ncdrill-1-4.drl for board 08_066534b.brd ... layers TOP and BOTTOM
;T02 Holesize 1. = 10.000000 Tolerance = +0.000000/-0.000000 PLATED MILS Quantity = 354
;T03 Holesize 2. = 28.000000 Tolerance = +0.000000/-0.000000 PLATED MILS Quantity = 16
;T04 Holesize 3. = 35.000000 Tolerance = +0.000000/-0.000000 PLATED MILS Quantity = 4
;T05 Holesize 4. = 45.000000 Tolerance = +0.000000/-0.000000 PLATED MILS Quantity = 62
;T06 Holesize 5. = 125.000000 Tolerance = +0.000000/-0.000000 NON_PLATED MILS Quantity = 4
%
G90
T02
X-0045Y0015
X-0035Y0005
X-0015
X0015Y0
X00225Y00175
X0025Y0
X0035Y0
X004Y00175
X0045Y0
X00661Y00185
X00789
X01035
X0114Y00155
X0117
X0135Y0
X0145Y0015
X0146504Y0019
X016Y00175
X0175Y0015
R02X001
X0215Y0
Y0015
X0225Y0
Y0015
X0235Y0
Y0015
X0195Y0025
R02X-001
X016Y00203
X0146608Y0025
X0125Y0037
X01225
X01035Y00215
X01012Y003675
X00755Y00385
R02Y-0005
X00725Y0036
Y0031
X00695Y00385
R02Y-0005
X0062Y002295
X00555Y0034
X00525
R02X-0003
X0045Y0025
X0036Y00375
Y0035
Y0032
X0035Y0025
X0033Y0032
X00235Y00315
Y0028
X00205Y00315
Y0028
X00175Y00315
Y0028
X0Y0025
X-00025Y0035
X-0015
Y0025
X-00324Y0027436
X-0035Y0025
X-00355Y0032686
X-00415
X-0045Y0025
Y0055
X-0042Y0046
Y0049
X-0039Y0046
Y0049
X-00324Y0047436
R02Y0005
X-0015Y0045
Y0055
X-00025Y0045
Y0055
X00156Y0047436
Y0057436
X0025Y0055
X0033Y00465
X00345Y0056846
X0036Y00415
Y0044
Y00465
X005415Y00478
X005835Y00485
X00683Y004475
X00705Y00575
X00767Y004475
X0087Y00465
Y00495
X009Y00465
Y00495
X01055Y003995
X0135Y0045
X0137Y0051
X0136999Y00575
X0145Y0045
X0146364Y0051066
X01465Y0057613
X0156406Y0047316
X0161969Y005103
X016767Y004737
X017Y0056
X01745
X0179
X01845Y005
X019191Y0054133
Y0058633
X019391Y0051933
Y0056333
X02025Y005
X021
Y00575
X019391Y0069199
Y0064799
X019191Y0066999
Y0062499
X0185Y007
X0179Y0065
Y00605
X017456Y0060566
X01745Y0065
X017
Y00605
X016767Y0073762
X0162393Y0069999
X0160791Y0062355
X0153Y0072999
Y0068999
X014656Y0064566
X01225Y00775
X0115Y00629
X0108
X0099Y0062107
X0091
X00705Y0067
X0064747Y00695
X0059759Y00775
X00525Y00795
X0048457Y00645
X0044Y0073
X0035Y0075
Y0065
X0025Y0075
Y0065
X0015Y0075
X0005
X-00025
Y0065
X-0015Y0075
Y0065
X-0045Y0075
Y0065
X-0033Y0088102
X-003Y009322
Y0098339
X-0028734Y0085543
X-0027596Y009578
X-0017396Y0082984
X-0015Y0085
Y0095
X-00025Y0085
Y0095
X0000396Y0082984
X0010796Y0085543
X0010779Y0089
X0015Y0085
X0025
X00525Y00875
X0052557Y0083668
X00655Y0097
X00705Y0098413
X008Y00875
X00825Y0098
X0086
X00875Y008
X00925
Y00845
X0099Y008
X01055
X011Y0094
X0110028Y0098416
X0112Y008
X01145Y0094
Y00985
X0122907Y0089752
Y0098126
X016Y008
X017
X019871Y00975
X020091Y0095
X020341Y00925
X020591Y009
X020841Y00875
X021091Y0085
X0215Y009
Y00975
X019641Y01
X019391Y01025
X017Y011
X016767Y0117371
X016Y011
X0156406Y0117317
X0122907Y01065
X01205Y011
X0109807Y0114537
X0096945Y011
X0095307Y0114537
X0091Y01005
X00895Y011
X0089307Y0114537
X0071961Y0113
X0070864Y01035
X0069Y0109
X00645Y01099
X0035Y0105
X0015246Y0114
X0015Y0105
X00015Y01155
Y01125
X0000396Y0103457
X-00025Y0105
X-0015
X-0017396Y0103457
X-00185Y01155
Y01125
X-0027596Y0100898
X-0028796Y011775
X-00455Y0134453
X-00246Y0130953
X-00244Y0135953
X-0015Y0125
X-00025
X0005
X00076Y0130953
X0021496Y0134453
X00455Y01325
Y0139
X00645Y01231
X0089307Y0127737
X0095307
X0102307Y012853
X0109807Y0127737
X0122907Y0123248
X0146364Y0121067
X01465Y0127614
X014656Y0134567
X0153Y0139
X0160791Y0132356
X0161969Y0121031
X017Y0126001
Y0130501
Y0135001
X01745Y0126001
Y0135001
X017456Y0130567
X0179Y0126001
Y0130501
Y0135001
X019191Y0124134
Y0128634
Y01325
Y0137
X019391Y0121934
Y0126334
Y01348
Y01392
X02Y012
X0215Y01225
Y0155
X0205
X01975Y014
X0195Y0155
X0185
Y014
X0175Y0155
X016767Y0143763
X0162393Y014
X0153Y0143
X01285Y01435
X007175Y0143046
X00472Y0149346
X0045Y0145
X0035
X0021496Y0140953
X001815Y0151003
X001185
X-00244Y0140953
X-002885Y01515
X-003515
X-00455Y0140953
X-0045Y0165
Y0175
X-0036948Y0175484
X-0029Y0173
Y0176
X-0025Y0173
Y0176
X-0007Y0178
X0019Y01635
X0029
X0035Y01625
R02X001
X0059Y0166
X0065Y01625
X0069Y017
X0075Y01625
X0079Y0167
X0085Y01625
X0095
X013Y017
X01325Y01625
R02X001
X016Y017
X0165Y0165
X0175
R04X001
X02425Y019
Y018
X024Y0185
X0235Y019
Y018
X023Y0185
X0225Y019
Y018
X022Y0185
X0215Y019
Y018
X021Y0185
X0205Y019
Y018
X0195
X0185
X017
X-0013Y01905
Y0187
X-00165Y01905
Y0187
X-0030868Y0189
Y0183
X-0035Y019
X-0045Y0185
T03
X00825Y0139
R07X0005
Y0144
R07X-0005
T04
X00275Y0107
Y0127
X0048457
Y0107
T05
X0055Y0
R07X001
X0145Y0
R05X001
X0221125Y0025
X0231125
Y0035
X0221125
Y0045
X0231125
Y0055
X0221125
Y0065
X0231125
Y0075
X0221125
Y0085
X0231125
Y0095
X0221125
Y0105
X0231125
Y0115
X0221125
Y0125
X0231125
Y0135
X0221125
Y0145
X0231125
Y0155
X0221125
Y0165
X0231125
X0195Y019
R07X-001
X0109
R09X-001
T06
X0Y0
X0005Y019
X0205Y013
Y002
M30
