M48
INCH,LZ
T01C.004
T02C.01
T03C.028
T04C.035
T05C.045
T06C.125
;LEADER: 12 
;HEADER: 08_066534b 
;CODE  : ASCII 
;FILE  : ncdrill-1-2.drl for board 08_066534b.brd ... layers TOP and L2_GND
;T01 Holesize 1. = 4.000000 Tolerance = +0.000000/-0.000000 PLATED MILS Quantity = 23
%
G90
T01
X009537Y0090276
X0096945
X009537Y0091851
X0096945
X009537Y0093426
X0096945
X009537Y0096574
X0096945
X009537Y0098149
X0096945
X009537Y0099724
X0096945
X0100094
X0103244Y0098149
Y0096574
X0101669
X0103244Y0093426
X0100094
X0103244Y0091851
X0100094
X0103244Y0090276
R02X-0001575
M30
