G04 ================== begin FILE IDENTIFICATION RECORD ==================*
G04 Layout Name:  C:/tmp/20_066534b/worklib/02_066534b_top/physical/08_066534b.brd*
G04 Film Name:    silk_sec*
G04 File Format:  Gerber RS274X*
G04 File Origin:  Cadence Allegro 17.4-S032*
G04 Origin Date:  Tue Feb 21 15:03:36 2023*
G04 *
G04 Layer:  PACKAGE GEOMETRY/SILKSCREEN_BOTTOM*
G04 Layer:  BOARD GEOMETRY/TOOLING_CORNERS*
G04 Layer:  BOARD GEOMETRY/SILKSCREEN_BOTTOM*
G04 Layer:  BOARD GEOMETRY/ROOT_NUMBER*
G04 Layer:  REF DES/SILKSCREEN_BOTTOM*
G04 Layer:  MANUFACTURING/SILK_DETAIL_BOTTOM*
G04 *
G04 Offset:    (0.00 0.00)*
G04 Mirror:    No*
G04 Mode:      Positive*
G04 Rotation:  0*
G04 FullContactRelief:  No*
G04 UndefLineWidth:     8.00*
G04 ================== end FILE IDENTIFICATION RECORD ====================*
%FSLAX25Y25*MOIN*%
%IR0*IPPOS*OFA0.00000B0.00000*MIA0B0*SFA1.00000B1.00000*%
%ADD10C,.05*%
%ADD11C,.06*%
%ADD12C,.004*%
%ADD13C,.008*%
%ADD14C,.006*%
%ADD15C,.02236*%
G75*
%LPD*%
G75*
G36*
G01X-26050Y116735D02*
X-21550D01*
X-11550Y104735D01*
X-10300Y106735D01*
X-6550D01*
X-9800Y98735D01*
X-13300D01*
X-26050Y116735D01*
G37*
G36*
G01X-30500Y151000D02*
X-33500D01*
X-27800Y156200D01*
X-27700Y156300D01*
X-22000Y151000D01*
X-25000D01*
G03X-2500Y147300I11544J-62D01*
G01X700Y144000D01*
X2700Y146200D01*
G02X-30500Y151000I-16260J4750D01*
G37*
G36*
G01X3500D02*
X6500D01*
X800Y145800D01*
X700Y145700D01*
X-5000Y151000D01*
X-2000D01*
G03X-24500Y154700I-11544J62D01*
G01X-27700Y158000D01*
X-29700Y155800D01*
G02X3500Y151000I16260J-4749D01*
G37*
G36*
G01X-15450Y45500D02*
G03I-2550J0D01*
G37*
G36*
G01X-4000Y43250D02*
X-5000D01*
Y45000D01*
X-4000D01*
Y43250D01*
G37*
G36*
G01X-17197Y68500D02*
G03I-1803J0D01*
G37*
G36*
G01X-5000D02*
Y72500D01*
X-6500D01*
Y68500D01*
X-5000D01*
G37*
G36*
G01X-7500Y62000D02*
Y60000D01*
X-14500D01*
Y62000D01*
X-7500D01*
G37*
G36*
G01X-9000Y149700D02*
X-21200D01*
G02X-20412Y147394I7696J1342D01*
G01X-20310Y147492D01*
G03X-9000Y149700I5038J4265D01*
G37*
G36*
G01X87810Y56650D02*
X87880Y56870D01*
X87950Y57110D01*
X87990Y57360D01*
X88010Y57620D01*
Y57890D01*
X86300D01*
X86310Y57700D01*
X86300Y57520D01*
X86270Y57360D01*
X86220Y57200D01*
X86140Y57060D01*
X86060Y56930D01*
X85950Y56820D01*
X85810Y56720D01*
X85650Y56620D01*
X85480Y56550D01*
X85270Y56470D01*
X85040Y56420D01*
X84800Y56390D01*
X84540Y56360D01*
X84310D01*
X84170Y56370D01*
X84020Y56390D01*
X83860Y56420D01*
X83690Y56460D01*
X83350Y56560D01*
X83030Y56720D01*
X82890Y56830D01*
X82770Y56950D01*
X82680Y57050D01*
X82620Y57180D01*
X82560Y57300D01*
X82530Y57440D01*
X82520Y57600D01*
X82530Y57770D01*
X82570Y57930D01*
X82620Y58070D01*
X82690Y58190D01*
X82780Y58300D01*
X83000Y58490D01*
X83140Y58570D01*
X83280Y58620D01*
X83430Y58680D01*
X83690Y58750D01*
X83970Y58820D01*
X84540Y58930D01*
X84810Y58980D01*
X85060Y59050D01*
X85290Y59100D01*
X85530Y59170D01*
X85800Y59240D01*
X86060Y59340D01*
X86330Y59440D01*
X86590Y59560D01*
X86860Y59700D01*
X87030Y59820D01*
X87190Y59940D01*
X87340Y60070D01*
X87480Y60220D01*
X87600Y60390D01*
X87690Y60540D01*
X87770Y60700D01*
X87830Y60870D01*
X87870Y61060D01*
X87900Y61260D01*
X87910Y61460D01*
X87900Y61700D01*
X87820Y62160D01*
X87750Y62370D01*
X87660Y62590D01*
X87540Y62800D01*
X87420Y62980D01*
X87280Y63150D01*
X87120Y63310D01*
X86950Y63470D01*
X86550Y63750D01*
X86320Y63870D01*
X86080Y63970D01*
X85810Y64070D01*
X85530Y64140D01*
X85240Y64210D01*
X84940Y64240D01*
X84610Y64270D01*
X84270Y64280D01*
X83950Y64270D01*
X83640Y64240D01*
X83370Y64200D01*
X83110Y64140D01*
X82870Y64070D01*
X82660Y63990D01*
X82460Y63900D01*
X82280Y63790D01*
X82110Y63680D01*
X81940Y63550D01*
X81780Y63400D01*
X81650Y63250D01*
X81430Y62930D01*
X81350Y62780D01*
X81270Y62590D01*
X81210Y62410D01*
X81160Y62240D01*
X81120Y62080D01*
X81110Y61950D01*
X81100Y61830D01*
X81080Y61720D01*
Y61660D01*
X81070Y61630D01*
X82710D01*
X82740Y61730D01*
X82770Y61840D01*
X82810Y61960D01*
X82860Y62090D01*
X82930Y62230D01*
X83010Y62360D01*
X83130Y62490D01*
X83230Y62580D01*
X83360Y62670D01*
X83500Y62740D01*
X83670Y62810D01*
X83820Y62840D01*
X83980Y62880D01*
X84160Y62900D01*
X84360Y62910D01*
X84550D01*
X84730Y62890D01*
X84930Y62860D01*
X85140Y62830D01*
X85330Y62770D01*
X85510Y62690D01*
X85650Y62630D01*
X85760Y62550D01*
X85860Y62460D01*
X85960Y62360D01*
X86030Y62250D01*
X86090Y62130D01*
X86120Y62000D01*
X86130Y61850D01*
X86120Y61700D01*
X86100Y61560D01*
X86060Y61430D01*
X86000Y61320D01*
X85896Y61172D01*
X85690Y61000D01*
X85540Y60910D01*
X85380Y60830D01*
X85180Y60760D01*
X84950Y60690D01*
X84710Y60630D01*
X84470Y60590D01*
X84210Y60540D01*
X83940Y60500D01*
X83680Y60460D01*
X83330Y60390D01*
X83000Y60310D01*
X82690Y60220D01*
X82400Y60130D01*
X82140Y60020D01*
X81890Y59910D01*
X81680Y59780D01*
X81480Y59640D01*
X81300Y59480D01*
X81180Y59340D01*
X81080Y59190D01*
X80980Y59030D01*
X80910Y58850D01*
X80840Y58660D01*
X80800Y58450D01*
X80770Y58250D01*
X80750Y58010D01*
Y57770D01*
X80770Y57530D01*
X80800Y57300D01*
X80870Y57070D01*
X80950Y56850D01*
X81050Y56640D01*
X81160Y56430D01*
X81330Y56210D01*
X81520Y56000D01*
X81740Y55800D01*
X81970Y55620D01*
X82200Y55480D01*
X82450Y55360D01*
X82710Y55250D01*
X82990Y55150D01*
X83610Y55030D01*
X83930Y54990D01*
X84660D01*
X85030Y55020D01*
X85360Y55060D01*
X85690Y55120D01*
X85990Y55180D01*
X86280Y55280D01*
X86520Y55370D01*
X86750Y55480D01*
X86950Y55610D01*
X87140Y55750D01*
X87310Y55900D01*
X87470Y56070D01*
X87600Y56250D01*
X87710Y56440D01*
X87810Y56650D01*
G37*
G36*
G01X80690Y49000D02*
X83150D01*
Y44950D01*
X80690D01*
Y45470D01*
X82530D01*
Y46700D01*
X81180D01*
Y47230D01*
X82530D01*
Y48470D01*
X80690D01*
Y49000D01*
G37*
G36*
G01X85220Y45470D02*
Y49000D01*
X85840D01*
Y44950D01*
X83640D01*
Y45470D01*
X85220D01*
G37*
G36*
G01X76840Y47050D02*
Y49000D01*
X77170D01*
X77710Y47860D01*
X78260Y49000D01*
X78590D01*
Y47050D01*
X78300D01*
Y48460D01*
X77840Y47490D01*
X77600D01*
X77120Y48480D01*
Y47050D01*
X76840D01*
G37*
G36*
G01X78810Y49000D02*
X80110D01*
Y48740D01*
X79610D01*
Y47050D01*
X79310D01*
Y48740D01*
X78810D01*
Y49000D01*
G37*
G36*
G01X82120Y73890D02*
X82250Y74030D01*
X82400Y74180D01*
X82580Y74330D01*
X82770Y74470D01*
X82980Y74610D01*
X83180Y74740D01*
X83410Y74870D01*
X83650Y74970D01*
X83900Y75060D01*
X84160Y75140D01*
X84430Y75200D01*
X84710Y75220D01*
X85010Y75240D01*
X85610Y75200D01*
X85900Y75150D01*
X86170Y75080D01*
X86440Y75000D01*
X86690Y74900D01*
X86990Y74770D01*
X87280Y74600D01*
X87540Y74420D01*
X87800Y74230D01*
X88020Y74010D01*
X88240Y73780D01*
X88420Y73540D01*
X88580Y73300D01*
X88730Y73040D01*
X88860Y72780D01*
X88980Y72510D01*
X89100Y72150D01*
X89200Y71780D01*
X89270Y71410D01*
X89320Y71030D01*
X89340Y70650D01*
X89330Y70270D01*
X89290Y69900D01*
X89240Y69530D01*
X89150Y69170D01*
X89060Y68870D01*
X88950Y68580D01*
X88820Y68300D01*
X88680Y68020D01*
X88510Y67760D01*
X88330Y67520D01*
X88150Y67290D01*
X87940Y67080D01*
X87720Y66900D01*
X87490Y66720D01*
X87230Y66560D01*
X86990Y66430D01*
X86740Y66320D01*
X86460Y66230D01*
X86180Y66150D01*
X85890Y66090D01*
X85580Y66050D01*
X85260Y66030D01*
X85010Y66040D01*
X84760Y66060D01*
X84530Y66100D01*
X84310Y66140D01*
X84100Y66210D01*
X83920Y66280D01*
X83740Y66370D01*
X83570Y66460D01*
X83350Y66600D01*
X83150Y66740D01*
X82930Y66930D01*
X82610Y67250D01*
Y66400D01*
X81200D01*
Y70930D01*
X84870D01*
Y69540D01*
X82740D01*
Y69060D01*
X82750Y69030D01*
X82790Y68970D01*
X82830Y68900D01*
X82890Y68790D01*
X82980Y68670D01*
X83080Y68530D01*
X83190Y68390D01*
X83330Y68240D01*
X83480Y68090D01*
X83660Y67950D01*
X83850Y67820D01*
X84020Y67710D01*
X84210Y67630D01*
X84410Y67550D01*
X84620Y67510D01*
X84850Y67470D01*
X85240D01*
X85530Y67510D01*
X85740Y67550D01*
X86120Y67690D01*
X86330Y67820D01*
X86540Y67960D01*
X86720Y68120D01*
X86890Y68300D01*
X87040Y68480D01*
X87170Y68690D01*
X87290Y68910D01*
X87380Y69130D01*
X87470Y69380D01*
X87550Y69690D01*
X87610Y70010D01*
X87640Y70340D01*
X87650Y70660D01*
X87630Y70970D01*
X87600Y71260D01*
X87540Y71540D01*
X87470Y71820D01*
X87380Y72090D01*
X87260Y72360D01*
X87120Y72600D01*
X86970Y72830D01*
X86820Y73010D01*
X86650Y73180D01*
X86470Y73330D01*
X86280Y73470D01*
X86110Y73560D01*
X85920Y73640D01*
X85720Y73710D01*
X85510Y73760D01*
X85300Y73790D01*
X85060D01*
X84840Y73780D01*
X84620Y73750D01*
X84420Y73700D01*
X84240Y73640D01*
X84080Y73550D01*
X83930Y73460D01*
X83770Y73350D01*
X83620Y73210D01*
X83460Y73060D01*
X83330Y72900D01*
X83110Y72580D01*
X83010Y72430D01*
X82930Y72290D01*
X81420D01*
Y72410D01*
X81440Y72500D01*
X81460Y72600D01*
X81490Y72720D01*
X81540Y72860D01*
X81590Y73010D01*
X81670Y73180D01*
X81760Y73360D01*
X81880Y73550D01*
X82010Y73750D01*
X82120Y73890D01*
G37*
G36*
G01X87710Y49000D02*
X89360D01*
Y44950D01*
X87540D01*
X87350Y44970D01*
X87230Y45010D01*
X87160Y45040D01*
X86960Y45140D01*
X86910Y45180D01*
X86820Y45260D01*
X86750Y45340D01*
X86680Y45440D01*
X86610Y45560D01*
X86560Y45700D01*
X86530Y45810D01*
X86500Y45940D01*
X86490Y46040D01*
Y46130D01*
X86500Y46250D01*
X86520Y46380D01*
X86570Y46530D01*
X86630Y46660D01*
X86700Y46760D01*
X86780Y46850D01*
X86910Y46940D01*
X86990Y46990D01*
X87050Y47020D01*
X87000Y47050D01*
X86940Y47090D01*
X86900Y47130D01*
X86800Y47220D01*
X86730Y47320D01*
X86650Y47460D01*
X86600Y47560D01*
X86570Y47700D01*
X86560Y47800D01*
X86550Y47930D01*
X86560Y48070D01*
X86580Y48150D01*
X86610Y48280D01*
X86660Y48390D01*
X86740Y48540D01*
X86830Y48660D01*
X86900Y48730D01*
X86940Y48760D01*
X87120Y48880D01*
X87240Y48920D01*
X87350Y48950D01*
X87440Y48980D01*
X87570Y48990D01*
X87710Y49000D01*
G37*
G36*
G01X102220Y48590D02*
X102230Y48600D01*
X102250Y48630D01*
X102260Y48650D01*
X102330Y48730D01*
X102380Y48760D01*
X102420Y48790D01*
X102470Y48830D01*
X102520Y48860D01*
X102560Y48880D01*
X102800Y48960D01*
X103060Y49000D01*
X104690D01*
Y44950D01*
X104060D01*
Y46380D01*
X103080D01*
X102970Y46390D01*
X102910Y46400D01*
X102790Y46430D01*
X102710Y46460D01*
X102660Y46480D01*
X102530Y46540D01*
X102450Y46590D01*
X102380Y46650D01*
X102360Y46670D01*
X102270Y46740D01*
X102230Y46800D01*
X102170Y46870D01*
X102150Y46900D01*
X102100Y46980D01*
X102040Y47110D01*
X102020Y47160D01*
X101990Y47260D01*
X101960Y47380D01*
X101950Y47530D01*
X101940Y47690D01*
Y47820D01*
X101950Y47940D01*
X101970Y48100D01*
X102020Y48230D01*
X102040Y48280D01*
X102100Y48420D01*
X102140Y48490D01*
X102150Y48500D01*
X102190Y48560D01*
X102220Y48590D01*
G37*
G36*
G01X98400Y45860D02*
X98360Y46060D01*
X98350Y46200D01*
X98330Y46350D01*
Y46470D01*
X98320Y46600D01*
Y47440D01*
X98330Y47590D01*
X98360Y47820D01*
X98370Y47940D01*
X98400Y48070D01*
Y48100D01*
X98430Y48260D01*
X98490Y48410D01*
X98510Y48420D01*
X98560Y48520D01*
X98600Y48580D01*
X98610Y48590D01*
X98640Y48630D01*
X98660Y48650D01*
Y48660D01*
X98750Y48730D01*
X98860Y48810D01*
X98950Y48870D01*
X99100Y48930D01*
X99120Y48940D01*
X99240Y48970D01*
X99380Y49000D01*
X99800Y49030D01*
X99920D01*
X100300Y49000D01*
X100460Y48970D01*
X100630Y48930D01*
X100750Y48880D01*
X100880Y48810D01*
X100960Y48750D01*
X101070Y48660D01*
X101130Y48580D01*
X101190Y48490D01*
X101240Y48400D01*
X101300Y48200D01*
X101330Y48080D01*
X101370Y47880D01*
X101390Y47740D01*
X101400Y47590D01*
X101410Y47474D01*
X101412Y46539D01*
X101400Y46350D01*
X101380Y46120D01*
X101360Y45990D01*
X101330Y45840D01*
X101300Y45730D01*
X101237Y45531D01*
X101220Y45510D01*
X101170Y45420D01*
X101070Y45280D01*
X100990Y45210D01*
X100880Y45120D01*
X100780Y45070D01*
X100630Y45010D01*
X100610Y45000D01*
X100510Y44970D01*
X100370Y44950D01*
X100310Y44940D01*
X100300D01*
X100230Y44930D01*
X100120Y44920D01*
X99970Y44910D01*
X99720D01*
X99520Y44930D01*
X99430Y44940D01*
X99400D01*
X99360Y44950D01*
X99210Y44970D01*
X98990Y45050D01*
X98860Y45120D01*
X98760Y45190D01*
X98660Y45280D01*
X98590Y45360D01*
X98540Y45440D01*
X98500Y45520D01*
X98450Y45640D01*
X98420Y45760D01*
X98400Y45860D01*
G37*
G36*
G01X93600Y45770D02*
X93540Y45700D01*
Y45680D01*
X93530Y45660D01*
X93470Y45600D01*
X93390Y45550D01*
X93300Y45500D01*
X93170Y45460D01*
X92910Y45440D01*
X92750D01*
X92590Y45470D01*
X92470Y45520D01*
X92310Y45620D01*
X92270Y45670D01*
X92220Y45740D01*
X92190Y45780D01*
X92150Y45860D01*
X92120Y45950D01*
X92100Y46130D01*
Y46290D01*
X92120Y46380D01*
X92130Y46440D01*
X92160Y46500D01*
X92180Y46530D01*
X92280Y46630D01*
X92310Y46650D01*
X92420Y46690D01*
X92550Y46740D01*
X92670Y46770D01*
X92900Y46820D01*
X93140Y46850D01*
X93390Y46890D01*
X93580Y46930D01*
X93660Y46950D01*
X93850Y47020D01*
X93950Y47080D01*
X94050Y47160D01*
X94090Y47200D01*
X94160Y47280D01*
X94220Y47380D01*
X94280Y47490D01*
X94320Y47700D01*
Y47970D01*
X94290Y48150D01*
X94260Y48260D01*
X94190Y48410D01*
X94120Y48530D01*
X94000Y48670D01*
X93870Y48780D01*
X93750Y48860D01*
X93580Y48920D01*
X93490Y48960D01*
X93350Y48990D01*
X93200Y49020D01*
X93060Y49030D01*
X92730D01*
X92440Y49010D01*
X92180Y48940D01*
X92040Y48880D01*
X91950Y48830D01*
X91840Y48730D01*
X91780Y48660D01*
X91690Y48550D01*
X91650Y48490D01*
X91630Y48430D01*
X91600Y48370D01*
X91580Y48320D01*
X91560Y48260D01*
X91540Y48150D01*
X91530Y48060D01*
Y48000D01*
X92140D01*
X92150Y48100D01*
X92170Y48170D01*
X92210Y48260D01*
X92270Y48330D01*
X92310Y48370D01*
X92380Y48410D01*
X92490Y48450D01*
X92580Y48470D01*
X92680Y48490D01*
X92780Y48500D01*
X93030D01*
X93160Y48480D01*
X93270Y48450D01*
X93390Y48410D01*
X93490Y48370D01*
X93560Y48310D01*
X93620Y48240D01*
X93660Y48160D01*
X93690Y48060D01*
X93700Y47930D01*
X93690Y47850D01*
X93680Y47780D01*
X93660Y47730D01*
X93560Y47600D01*
X93280Y47490D01*
X93140Y47470D01*
X92950Y47450D01*
X92790Y47430D01*
X92630Y47400D01*
X92490Y47380D01*
X92320Y47340D01*
X92190Y47320D01*
X92030Y47250D01*
X91900Y47190D01*
X91730Y47060D01*
X91650Y46970D01*
X91570Y46830D01*
X91510Y46690D01*
X91490Y46570D01*
X91470Y46430D01*
X91450Y46240D01*
X91460Y46060D01*
X91490Y45910D01*
X91510Y45780D01*
X91550Y45650D01*
X91620Y45530D01*
X91660Y45440D01*
X91770Y45310D01*
X91840Y45250D01*
X91960Y45160D01*
X92080Y45090D01*
X92300Y44990D01*
X92460Y44960D01*
X92630Y44930D01*
X92760Y44920D01*
X92910Y44910D01*
X93210Y44930D01*
X93480Y44980D01*
X93630Y45050D01*
X93740Y45110D01*
X93820Y45150D01*
X93960Y45270D01*
X94010Y45320D01*
X94080Y45400D01*
X94130Y45470D01*
X94270Y45790D01*
X94310Y45940D01*
X94350Y46190D01*
X93710D01*
X93690Y46050D01*
X93680Y45920D01*
X93670Y45910D01*
X93630Y45820D01*
X93600Y45770D01*
G37*
G36*
G01X96980D02*
X96920Y45700D01*
Y45680D01*
X96910Y45660D01*
X96850Y45600D01*
X96770Y45550D01*
X96680Y45500D01*
X96550Y45460D01*
X96290Y45440D01*
X96130D01*
X95970Y45470D01*
X95850Y45520D01*
X95690Y45620D01*
X95650Y45670D01*
X95600Y45740D01*
X95570Y45780D01*
X95530Y45860D01*
X95500Y45950D01*
X95480Y46130D01*
Y46290D01*
X95500Y46380D01*
X95510Y46440D01*
X95540Y46500D01*
X95560Y46530D01*
X95660Y46630D01*
X95690Y46650D01*
X95800Y46690D01*
X95930Y46740D01*
X96050Y46770D01*
X96280Y46820D01*
X96520Y46850D01*
X96770Y46890D01*
X96960Y46930D01*
X97040Y46950D01*
X97230Y47020D01*
X97330Y47080D01*
X97430Y47160D01*
X97470Y47200D01*
X97540Y47280D01*
X97600Y47380D01*
X97660Y47490D01*
X97700Y47700D01*
Y47970D01*
X97670Y48150D01*
X97640Y48260D01*
X97570Y48410D01*
X97500Y48530D01*
X97380Y48670D01*
X97250Y48780D01*
X97130Y48860D01*
X96960Y48920D01*
X96870Y48960D01*
X96730Y48990D01*
X96580Y49020D01*
X96440Y49030D01*
X96110D01*
X95820Y49010D01*
X95560Y48940D01*
X95420Y48880D01*
X95330Y48830D01*
X95220Y48730D01*
X95160Y48660D01*
X95070Y48550D01*
X95030Y48490D01*
X95010Y48430D01*
X94980Y48370D01*
X94960Y48320D01*
X94940Y48260D01*
X94920Y48150D01*
X94910Y48060D01*
Y48000D01*
X95520D01*
X95530Y48100D01*
X95550Y48170D01*
X95590Y48260D01*
X95650Y48330D01*
X95690Y48370D01*
X95760Y48410D01*
X95870Y48450D01*
X95960Y48470D01*
X96060Y48490D01*
X96160Y48500D01*
X96410D01*
X96540Y48480D01*
X96650Y48450D01*
X96770Y48410D01*
X96870Y48370D01*
X96940Y48310D01*
X97000Y48240D01*
X97040Y48160D01*
X97070Y48060D01*
X97080Y47930D01*
X97070Y47850D01*
X97060Y47780D01*
X97040Y47730D01*
X96940Y47600D01*
X96660Y47490D01*
X96520Y47470D01*
X96330Y47450D01*
X96170Y47430D01*
X96010Y47400D01*
X95870Y47380D01*
X95700Y47340D01*
X95570Y47320D01*
X95410Y47250D01*
X95280Y47190D01*
X95110Y47060D01*
X95030Y46970D01*
X94950Y46830D01*
X94890Y46690D01*
X94870Y46570D01*
X94850Y46430D01*
X94830Y46240D01*
X94840Y46060D01*
X94870Y45910D01*
X94890Y45780D01*
X94930Y45650D01*
X95000Y45530D01*
X95040Y45440D01*
X95150Y45310D01*
X95220Y45250D01*
X95340Y45160D01*
X95460Y45090D01*
X95680Y44990D01*
X95840Y44960D01*
X96010Y44930D01*
X96140Y44920D01*
X96290Y44910D01*
X96590Y44930D01*
X96860Y44980D01*
X97010Y45050D01*
X97120Y45110D01*
X97200Y45150D01*
X97340Y45270D01*
X97390Y45320D01*
X97460Y45400D01*
X97510Y45470D01*
X97650Y45790D01*
X97690Y45940D01*
X97730Y46190D01*
X97090D01*
X97070Y46050D01*
X97060Y45920D01*
X97050Y45910D01*
X97010Y45820D01*
X96980Y45770D01*
G37*
G36*
G01X108910D02*
X108850Y45700D01*
Y45680D01*
X108840Y45660D01*
X108780Y45600D01*
X108700Y45550D01*
X108610Y45500D01*
X108480Y45460D01*
X108220Y45440D01*
X108060D01*
X107900Y45470D01*
X107780Y45520D01*
X107620Y45620D01*
X107580Y45670D01*
X107530Y45740D01*
X107500Y45780D01*
X107460Y45860D01*
X107430Y45950D01*
X107410Y46130D01*
Y46290D01*
X107430Y46380D01*
X107440Y46440D01*
X107470Y46500D01*
X107490Y46530D01*
X107590Y46630D01*
X107620Y46650D01*
X107730Y46690D01*
X107860Y46740D01*
X107980Y46770D01*
X108210Y46820D01*
X108450Y46850D01*
X108700Y46890D01*
X108890Y46930D01*
X108970Y46950D01*
X109160Y47020D01*
X109260Y47080D01*
X109360Y47160D01*
X109400Y47200D01*
X109470Y47280D01*
X109530Y47380D01*
X109590Y47490D01*
X109630Y47700D01*
Y47970D01*
X109600Y48150D01*
X109570Y48260D01*
X109500Y48410D01*
X109430Y48530D01*
X109310Y48670D01*
X109180Y48780D01*
X109060Y48860D01*
X108890Y48920D01*
X108800Y48960D01*
X108660Y48990D01*
X108510Y49020D01*
X108370Y49030D01*
X108040D01*
X107750Y49010D01*
X107490Y48940D01*
X107350Y48880D01*
X107260Y48830D01*
X107150Y48730D01*
X107090Y48660D01*
X107000Y48550D01*
X106960Y48490D01*
X106940Y48430D01*
X106910Y48370D01*
X106890Y48320D01*
X106870Y48260D01*
X106850Y48150D01*
X106840Y48060D01*
Y48000D01*
X107450D01*
X107460Y48100D01*
X107480Y48170D01*
X107520Y48260D01*
X107580Y48330D01*
X107620Y48370D01*
X107690Y48410D01*
X107800Y48450D01*
X107890Y48470D01*
X107990Y48490D01*
X108090Y48500D01*
X108340D01*
X108470Y48480D01*
X108580Y48450D01*
X108700Y48410D01*
X108800Y48370D01*
X108870Y48310D01*
X108930Y48240D01*
X108970Y48160D01*
X109000Y48060D01*
X109010Y47930D01*
X109000Y47850D01*
X108990Y47780D01*
X108970Y47730D01*
X108870Y47600D01*
X108590Y47490D01*
X108450Y47470D01*
X108260Y47450D01*
X108100Y47430D01*
X107940Y47400D01*
X107800Y47380D01*
X107630Y47340D01*
X107500Y47320D01*
X107340Y47250D01*
X107210Y47190D01*
X107040Y47060D01*
X106960Y46970D01*
X106880Y46830D01*
X106820Y46690D01*
X106800Y46570D01*
X106780Y46430D01*
X106760Y46240D01*
X106770Y46060D01*
X106800Y45910D01*
X106820Y45780D01*
X106860Y45650D01*
X106930Y45530D01*
X106970Y45440D01*
X107080Y45310D01*
X107150Y45250D01*
X107270Y45160D01*
X107390Y45090D01*
X107610Y44990D01*
X107770Y44960D01*
X107940Y44930D01*
X108070Y44920D01*
X108220Y44910D01*
X108520Y44930D01*
X108790Y44980D01*
X108940Y45050D01*
X109050Y45110D01*
X109130Y45150D01*
X109270Y45270D01*
X109320Y45320D01*
X109390Y45400D01*
X109440Y45470D01*
X109580Y45790D01*
X109620Y45940D01*
X109660Y46190D01*
X109020D01*
X109000Y46050D01*
X108990Y45920D01*
X108980Y45910D01*
X108940Y45820D01*
X108910Y45770D01*
G37*
G36*
G01X96750Y58020D02*
X96770Y57960D01*
X96790Y57880D01*
X96840Y57760D01*
X96900Y57630D01*
X96970Y57500D01*
X97060Y57340D01*
X97160Y57190D01*
X97270Y57050D01*
X97400Y56910D01*
X97560Y56780D01*
X97690Y56700D01*
X97820Y56610D01*
X97970Y56550D01*
X98120Y56500D01*
X98300Y56450D01*
X98480Y56430D01*
X98670Y56420D01*
X98880Y56430D01*
X99070Y56460D01*
X99260Y56500D01*
X99440Y56560D01*
X99600Y56650D01*
X99800Y56760D01*
X99990Y56910D01*
X100160Y57070D01*
X100310Y57260D01*
X100450Y57460D01*
X100590Y57700D01*
X100710Y57970D01*
X100820Y58240D01*
X100900Y58530D01*
X100960Y58820D01*
X101010Y59120D01*
X101030Y59430D01*
X101040Y59730D01*
X101030Y60100D01*
X101000Y60460D01*
X100930Y60800D01*
X100860Y61060D01*
X100780Y61300D01*
X100690Y61540D01*
X100580Y61760D01*
X100450Y61970D01*
X100330Y62140D01*
X100200Y62300D01*
X100050Y62440D01*
X99890Y62570D01*
X99710Y62670D01*
X99530Y62760D01*
X99330Y62830D01*
X99130Y62870D01*
X98910Y62900D01*
X98670Y62890D01*
X98500Y62870D01*
X98340Y62830D01*
X98190Y62760D01*
X98030Y62670D01*
X97880Y62580D01*
X97750Y62480D01*
X97610Y62360D01*
X97450Y62200D01*
X97300Y62020D01*
X97170Y61850D01*
X97050Y61670D01*
X96940Y61510D01*
X96850Y61350D01*
X96780Y61210D01*
X95000D01*
X95020Y61260D01*
X95040Y61340D01*
X95060Y61430D01*
X95100Y61540D01*
X95140Y61660D01*
X95200Y61830D01*
X95280Y62020D01*
X95370Y62210D01*
X95480Y62420D01*
X95610Y62640D01*
X95730Y62820D01*
X95860Y62990D01*
X96020Y63160D01*
X96190Y63330D01*
X96380Y63490D01*
X96590Y63640D01*
X96780Y63770D01*
X96980Y63880D01*
X97200Y63970D01*
X97430Y64060D01*
X97690Y64140D01*
X97960Y64200D01*
X98250Y64240D01*
X98560Y64270D01*
X98890Y64280D01*
X99200Y64270D01*
X99500Y64250D01*
X99780Y64210D01*
X100060Y64150D01*
X100310Y64080D01*
X100550Y63980D01*
X100810Y63870D01*
X101040Y63740D01*
X101270Y63590D01*
X101480Y63420D01*
X101670Y63240D01*
X101850Y63050D01*
X102010Y62840D01*
X102180Y62610D01*
X102320Y62360D01*
X102450Y62100D01*
X102570Y61830D01*
X102660Y61550D01*
X102760Y61180D01*
X102840Y60790D01*
X102890Y60410D01*
X102900Y60020D01*
X102890Y59630D01*
X102870Y59240D01*
X102810Y58860D01*
X102730Y58480D01*
X102640Y58120D01*
X102540Y57810D01*
X102420Y57500D01*
X102280Y57210D01*
X102130Y56940D01*
X101960Y56680D01*
X101780Y56420D01*
X101600Y56200D01*
X101400Y55990D01*
X101180Y55800D01*
X100960Y55630D01*
X100720Y55470D01*
X100490Y55350D01*
X100010Y55150D01*
X99750Y55090D01*
X99470Y55040D01*
X99200Y55010D01*
X98910D01*
X98560Y55020D01*
X98230Y55050D01*
X97920Y55100D01*
X97640Y55160D01*
X97370Y55240D01*
X97120Y55320D01*
X96870Y55440D01*
X96630Y55560D01*
X96430Y55690D01*
X96230Y55830D01*
X96060Y55980D01*
X95900Y56130D01*
X95760Y56290D01*
X95580Y56520D01*
X95440Y56740D01*
X95320Y56970D01*
X95220Y57190D01*
X95140Y57380D01*
X95080Y57560D01*
X95050Y57710D01*
X95000Y57950D01*
X94990Y58020D01*
X94980Y58080D01*
Y58110D01*
X96710D01*
X96730Y58080D01*
X96750Y58020D01*
G37*
G36*
G01X88850Y59090D02*
Y60690D01*
X92950D01*
Y62530D01*
X88320D01*
Y64150D01*
X94660D01*
Y55220D01*
X88100D01*
Y56740D01*
X92930D01*
Y59090D01*
X88850D01*
G37*
G36*
G01X90680Y67700D02*
X90850Y67470D01*
X91060Y67230D01*
X91280Y67020D01*
X91520Y66820D01*
X91770Y66640D01*
X92060Y66480D01*
X92350Y66340D01*
X92860Y66170D01*
X93120Y66120D01*
X93400Y66070D01*
X93690Y66040D01*
X93990Y66030D01*
X94330Y66050D01*
X94660Y66080D01*
X94970Y66130D01*
X95260Y66200D01*
X95540Y66290D01*
X95810Y66410D01*
X96060Y66530D01*
X96320Y66690D01*
X96570Y66860D01*
X96790Y67060D01*
X97000Y67260D01*
X97200Y67480D01*
X97390Y67730D01*
X97560Y68000D01*
X97700Y68280D01*
X97830Y68560D01*
X97940Y68860D01*
X98030Y69160D01*
X98120Y69530D01*
X98180Y69900D01*
X98210Y70280D01*
X98220Y70660D01*
X98200Y70970D01*
X98190Y71050D01*
X98160Y71440D01*
X98080Y71820D01*
X97980Y72190D01*
X97860Y72550D01*
X97740Y72840D01*
X97600Y73100D01*
X97460Y73350D01*
X97290Y73610D01*
X97110Y73840D01*
X96900Y74080D01*
X96670Y74290D01*
X96430Y74490D01*
X96160Y74670D01*
X95880Y74830D01*
X95580Y74960D01*
X95340Y75050D01*
X95070Y75130D01*
X94810Y75190D01*
X94530Y75230D01*
X94240Y75250D01*
X93940Y75260D01*
X93620Y75250D01*
X93310Y75210D01*
X93020Y75160D01*
X92730Y75080D01*
X92470Y75000D01*
X92220Y74890D01*
X91970Y74750D01*
X91720Y74600D01*
X91480Y74420D01*
X91270Y74230D01*
X91060Y74020D01*
X90870Y73800D01*
X90680Y73550D01*
X90520Y73290D01*
X90370Y73010D01*
X90240Y72720D01*
X90130Y72430D01*
X90040Y72130D01*
X89950Y71760D01*
X89880Y71390D01*
X89860Y71142D01*
X89830Y70640D01*
X89840Y70240D01*
X89880Y69870D01*
X89940Y69480D01*
X90030Y69110D01*
X90150Y68750D01*
X90250Y68470D01*
X90380Y68210D01*
X90520Y67950D01*
X90680Y67700D01*
G37*
G36*
G01X112470Y66180D02*
X110680D01*
X110090Y68170D01*
X106790D01*
X106110Y66180D01*
X104270D01*
X107650Y75130D01*
X109470D01*
X112470Y66180D01*
G37*
G36*
G01X98120D02*
Y67700D01*
X102110D01*
Y75130D01*
X103890D01*
Y66180D01*
X98120D01*
G37*
G36*
G01X108950Y55250D02*
X106090Y63660D01*
Y64130D01*
X107840D01*
X109800Y57620D01*
X111820Y64150D01*
X113610D01*
Y63680D01*
X110660Y55250D01*
X108950D01*
G37*
G36*
G01X110070Y49000D02*
X110620D01*
Y48410D01*
X110370D01*
Y48210D01*
X110390Y48070D01*
X110410Y48020D01*
X110450Y47980D01*
X110510Y47950D01*
X110660Y47930D01*
X110571Y47682D01*
X110543Y47689D01*
X110525Y47694D01*
X110514Y47697D01*
X110494Y47703D01*
X110481Y47707D01*
X110450Y47717D01*
X110439Y47721D01*
X110425Y47726D01*
X110393Y47738D01*
X110368Y47748D01*
X110349Y47756D01*
X110342Y47759D01*
X110260Y47801D01*
X110238Y47816D01*
X110218Y47833D01*
X110208Y47843D01*
X110187Y47861D01*
X110171Y47877D01*
X110152Y47904D01*
X110129Y47950D01*
X110108Y48006D01*
X110099Y48033D01*
X110090Y48069D01*
X110085Y48096D01*
X110078Y48128D01*
X110075Y48150D01*
X110072Y48164D01*
X110068Y48198D01*
Y48216D01*
X110069Y48232D01*
X110070Y48239D01*
X110069Y48276D01*
X110070Y48340D01*
Y49000D01*
G37*
G36*
G01X122090Y56840D02*
X122270Y56590D01*
X122460Y56370D01*
X122680Y56150D01*
X122930Y55960D01*
X123180Y55790D01*
X123460Y55640D01*
X123750Y55520D01*
X124070Y55410D01*
X124340Y55340D01*
X124900Y55260D01*
X125200Y55230D01*
X125520Y55220D01*
X128960D01*
Y64150D01*
X125500D01*
X125160Y64140D01*
X124830Y64100D01*
X124520Y64050D01*
X124220Y63960D01*
X123930Y63870D01*
X123660Y63750D01*
X123400Y63610D01*
X123130Y63430D01*
X122890Y63220D01*
X122650Y63000D01*
X122440Y62760D01*
X122250Y62510D01*
X122070Y62220D01*
X121910Y61930D01*
X121780Y61630D01*
X121660Y61300D01*
X121560Y60960D01*
X121490Y60630D01*
X121440Y60280D01*
X121400Y59910D01*
X121390Y59540D01*
X121400Y59140D01*
X121440Y58750D01*
X121500Y58390D01*
X121570Y58040D01*
X121680Y57700D01*
X121800Y57380D01*
X121940Y57100D01*
X122090Y56840D01*
G37*
G36*
G01X128970Y44950D02*
Y46700D01*
X127620D01*
Y47230D01*
X128970D01*
Y48470D01*
X127140D01*
Y49000D01*
X129590D01*
Y44950D01*
X128970D01*
G37*
G36*
G01X112050D02*
Y48470D01*
X111020D01*
Y49000D01*
X113700D01*
Y48470D01*
X112670D01*
Y44950D01*
X112050D01*
G37*
G36*
G01X120130Y49000D02*
Y44950D01*
X119510D01*
Y46700D01*
X117860D01*
Y44950D01*
X117240D01*
Y49000D01*
X117860D01*
Y47230D01*
X119510D01*
Y49000D01*
X120130D01*
G37*
G36*
G01X121250D02*
X120590D01*
X121700Y44950D01*
X122360D01*
X123060Y47330D01*
X123780Y44950D01*
X124460D01*
X125500Y49000D01*
X124840D01*
X124110Y45800D01*
X123340Y48250D01*
X122740D01*
X122030Y45840D01*
X121250Y49000D01*
G37*
G36*
G01X114760D02*
X113460Y44950D01*
X114140D01*
X114430Y45910D01*
X115830D01*
X116140Y44950D01*
X116810D01*
X115430Y49000D01*
X114760D01*
G37*
G36*
G01X114180Y64150D02*
X120750D01*
Y55220D01*
X114030D01*
Y56740D01*
X118940D01*
Y59130D01*
X114730D01*
Y60760D01*
X118960D01*
Y62660D01*
X114180D01*
Y64150D01*
G37*
G36*
G01X128830Y66180D02*
X127040D01*
X126450Y68170D01*
X123150D01*
X122470Y66180D01*
X120630D01*
X124010Y75130D01*
X125830D01*
X128830Y66180D01*
G37*
G36*
G01X112880D02*
Y75130D01*
X114660D01*
Y69170D01*
X118450Y75130D01*
X120280D01*
Y66180D01*
X118490D01*
Y72230D01*
X114560Y66180D01*
X112880D01*
G37*
G36*
G01X135720Y45520D02*
X135770Y45430D01*
X135840Y45310D01*
X135880Y45280D01*
X135980Y45200D01*
X136070Y45140D01*
X136180Y45080D01*
X136270Y45030D01*
X136410Y44990D01*
X136540Y44970D01*
X136700Y44950D01*
X138450D01*
Y49000D01*
X136720D01*
X136540Y48970D01*
X136390Y48940D01*
X136270Y48900D01*
X136150Y48850D01*
X136070Y48800D01*
X135960Y48730D01*
X135890Y48660D01*
X135830Y48590D01*
X135800Y48560D01*
X135720Y48410D01*
X135710Y48390D01*
X135680Y48320D01*
X135640Y48200D01*
X135620Y48110D01*
X135600Y47950D01*
X135580Y47820D01*
X135560Y47580D01*
X135540Y47270D01*
Y46780D01*
X135550Y46600D01*
Y46470D01*
X135560Y46350D01*
X135570Y46200D01*
X135590Y46060D01*
X135620Y45860D01*
X135640Y45730D01*
X135660Y45660D01*
X135690Y45580D01*
X135710Y45530D01*
X135720Y45520D01*
G37*
G36*
G01X130420Y45860D02*
X130380Y46060D01*
X130370Y46200D01*
X130350Y46350D01*
Y46470D01*
X130340Y46600D01*
Y47440D01*
X130350Y47590D01*
X130380Y47820D01*
X130390Y47940D01*
X130420Y48070D01*
Y48100D01*
X130450Y48260D01*
X130510Y48410D01*
X130530Y48420D01*
X130580Y48520D01*
X130620Y48580D01*
X130630Y48590D01*
X130660Y48630D01*
X130680Y48650D01*
Y48660D01*
X130770Y48730D01*
X130880Y48810D01*
X130970Y48870D01*
X131120Y48930D01*
X131140Y48940D01*
X131260Y48970D01*
X131400Y49000D01*
X131820Y49030D01*
X131940D01*
X132320Y49000D01*
X132480Y48970D01*
X132650Y48930D01*
X132770Y48880D01*
X132900Y48810D01*
X132980Y48750D01*
X133090Y48660D01*
X133150Y48580D01*
X133210Y48490D01*
X133260Y48400D01*
X133320Y48200D01*
X133350Y48080D01*
X133390Y47880D01*
X133410Y47740D01*
X133420Y47590D01*
X133430Y47474D01*
X133432Y46539D01*
X133420Y46350D01*
X133400Y46120D01*
X133380Y45990D01*
X133350Y45840D01*
X133320Y45730D01*
X133257Y45531D01*
X133240Y45510D01*
X133190Y45420D01*
X133090Y45280D01*
X133010Y45210D01*
X132900Y45120D01*
X132800Y45070D01*
X132650Y45010D01*
X132630Y45000D01*
X132530Y44970D01*
X132390Y44950D01*
X132330Y44940D01*
X132320D01*
X132250Y44930D01*
X132140Y44920D01*
X131990Y44910D01*
X131740D01*
X131540Y44930D01*
X131450Y44940D01*
X131420D01*
X131380Y44950D01*
X131230Y44970D01*
X131010Y45050D01*
X130880Y45120D01*
X130780Y45190D01*
X130680Y45280D01*
X130610Y45360D01*
X130560Y45440D01*
X130520Y45520D01*
X130470Y45640D01*
X130440Y45760D01*
X130420Y45860D01*
G37*
G36*
G01X140180Y49000D02*
X138880Y44950D01*
X139560D01*
X139850Y45910D01*
X141250D01*
X141560Y44950D01*
X142230D01*
X140850Y49000D01*
X140180D01*
G37*
G36*
G01X150330D02*
X149030Y44950D01*
X149710D01*
X150000Y45910D01*
X151400D01*
X151710Y44950D01*
X152380D01*
X151000Y49000D01*
X150330D01*
G37*
G36*
G01X148610D02*
Y44950D01*
X147980D01*
Y46700D01*
X146330D01*
Y44950D01*
X145700D01*
Y49000D01*
X146330D01*
Y47230D01*
X147980D01*
Y49000D01*
X148610D01*
G37*
G36*
G01X142450D02*
X144910D01*
Y44950D01*
X142450D01*
Y45470D01*
X144290D01*
Y46700D01*
X142940D01*
Y47230D01*
X144290D01*
Y48470D01*
X142450D01*
Y49000D01*
G37*
G36*
G01X152160Y55010D02*
X132220D01*
Y75050D01*
X152160D01*
Y55010D01*
G37*
%LPC*%
G75*
G36*
G01X-18000Y152200D02*
X-9000D01*
G03X-18000I-4500J-1011D01*
G37*
G36*
G01X87690Y45470D02*
X88740D01*
Y46700D01*
X87690D01*
X87590Y46690D01*
X87470Y46660D01*
X87380Y46620D01*
X87290Y46540D01*
X87230Y46470D01*
X87180Y46350D01*
X87160Y46290D01*
X87140Y46210D01*
X87130Y46120D01*
Y46100D01*
X87140Y46010D01*
X87170Y45880D01*
X87220Y45780D01*
X87280Y45680D01*
X87330Y45620D01*
X87400Y45570D01*
X87450Y45540D01*
X87560Y45490D01*
X87690Y45470D01*
G37*
G36*
G01X87770Y47230D02*
X88740D01*
Y48470D01*
X87920D01*
X87770Y48460D01*
X87540Y48410D01*
X87460Y48370D01*
X87380Y48320D01*
X87310Y48250D01*
X87250Y48150D01*
X87220Y48060D01*
X87200Y47950D01*
Y47834D01*
X87206Y47765D01*
X87211Y47711D01*
X87220Y47640D01*
X87226Y47629D01*
X87270Y47550D01*
X87340Y47460D01*
X87460Y47340D01*
X87521Y47308D01*
X87550Y47290D01*
X87660Y47250D01*
X87770Y47230D01*
G37*
G36*
G01X102580Y47860D02*
X102570Y47690D01*
Y47600D01*
X102610Y47410D01*
X102655Y47310D01*
X102670Y47280D01*
X102720Y47200D01*
X102750Y47160D01*
X102840Y47070D01*
X102920Y47010D01*
X103070Y46960D01*
X103079Y46958D01*
X103200Y46930D01*
X103340Y46910D01*
X104060D01*
Y48470D01*
X103190D01*
X103110Y48460D01*
X103060Y48450D01*
X102954Y48414D01*
X102942Y48410D01*
X102930Y48400D01*
X102830Y48320D01*
X102730Y48230D01*
X102720Y48210D01*
X102680Y48140D01*
X102640Y48060D01*
X102580Y47860D01*
G37*
G36*
G01X99630Y48490D02*
X99341Y48415D01*
X99318Y48409D01*
X99197Y48306D01*
X99190Y48300D01*
X99130Y48240D01*
X99090Y48190D01*
X99019Y47975D01*
X98990Y47830D01*
Y47749D01*
X98984Y47684D01*
X98980Y47639D01*
X98970Y47530D01*
Y47419D01*
X98963Y47342D01*
X98960Y47310D01*
Y46690D01*
X98970Y46468D01*
Y46458D01*
X98972Y46424D01*
X98980Y46320D01*
Y46230D01*
X98995Y46100D01*
X99010Y45980D01*
X99030Y45910D01*
X99050Y45852D01*
X99060Y45830D01*
X99082Y45764D01*
X99130Y45700D01*
X99170Y45640D01*
X99220Y45590D01*
X99390Y45500D01*
X99570Y45460D01*
X99710Y45440D01*
X100000D01*
X100110Y45450D01*
X100230Y45470D01*
X100330Y45500D01*
X100410Y45540D01*
X100540Y45630D01*
X100608Y45698D01*
X100619Y45721D01*
X100633Y45750D01*
X100680Y45830D01*
X100710Y45950D01*
X100740Y46120D01*
X100770Y46410D01*
Y47530D01*
X100730Y47890D01*
X100700Y48020D01*
X100610Y48240D01*
X100560Y48290D01*
X100437Y48394D01*
X100431Y48399D01*
X100347Y48425D01*
X100330Y48431D01*
X100260Y48460D01*
X100160Y48480D01*
X100076Y48492D01*
X100028Y48499D01*
X100020Y48500D01*
X99740D01*
X99630Y48490D01*
G37*
G36*
G01X93390Y73661D02*
X93210Y73601D01*
X93040Y73521D01*
X92839Y73411D01*
X92649Y73271D01*
X92469Y73121D01*
X92319Y72941D01*
X92169Y72751D01*
X92029Y72530D01*
X91909Y72280D01*
X91799Y72030D01*
X91719Y71760D01*
X91649Y71470D01*
X91609Y71190D01*
X91589Y70970D01*
X91579Y70900D01*
X91569Y70620D01*
X91579Y70330D01*
X91609Y70030D01*
X91659Y69750D01*
X91729Y69470D01*
X91809Y69210D01*
X91919Y68950D01*
X92049Y68709D01*
X92199Y68479D01*
X92339Y68309D01*
X92499Y68139D01*
X92679Y67989D01*
X92859Y67849D01*
X93030Y67759D01*
X93220Y67679D01*
X93410Y67609D01*
X93620Y67559D01*
X93830Y67529D01*
X94270D01*
X94470Y67559D01*
X94660Y67609D01*
X94850Y67669D01*
X95020Y67739D01*
X95221Y67849D01*
X95411Y67999D01*
X95581Y68149D01*
X95741Y68319D01*
X95881Y68509D01*
X96021Y68740D01*
X96151Y68980D01*
X96251Y69250D01*
X96321Y69510D01*
X96391Y69790D01*
X96441Y70070D01*
X96461Y70360D01*
Y70660D01*
X96451Y70970D01*
X96421Y71240D01*
X96361Y71520D01*
X96301Y71790D01*
X96211Y72070D01*
X96101Y72320D01*
X95971Y72560D01*
X95831Y72791D01*
X95681Y72971D01*
X95521Y73141D01*
X95361Y73291D01*
X95171Y73421D01*
X95000Y73521D01*
X94820Y73601D01*
X94630Y73661D01*
X94430Y73711D01*
X94220Y73741D01*
X93990Y73751D01*
X93790Y73741D01*
X93390Y73661D01*
G37*
G36*
G01X107426Y70007D02*
X107419Y69984D01*
X107416Y69974D01*
X107413Y69963D01*
X107408Y69943D01*
X107405Y69929D01*
X107403Y69919D01*
X107400Y69903D01*
X107397Y69884D01*
X107394Y69860D01*
X107393Y69849D01*
X107392Y69839D01*
X107391Y69823D01*
X107390Y69796D01*
Y69430D01*
X109620D01*
X109550Y69990D01*
X108540Y73250D01*
X107428Y70013D01*
X107426Y70007D01*
G37*
G36*
G01X125560Y56609D02*
X127081D01*
Y62641D01*
X125670D01*
X125440Y62631D01*
X125220Y62601D01*
X125020Y62551D01*
X124830Y62491D01*
X124660Y62401D01*
X124499Y62311D01*
X124319Y62181D01*
X124149Y62041D01*
X124009Y61881D01*
X123869Y61701D01*
X123759Y61520D01*
X123629Y61270D01*
X123529Y61030D01*
X123439Y60780D01*
X123329Y60290D01*
X123299Y60050D01*
X123279Y59830D01*
X123269Y59620D01*
Y59330D01*
X123289Y59040D01*
X123319Y58730D01*
X123359Y58500D01*
X123409Y58270D01*
X123479Y58050D01*
X123559Y57830D01*
X123659Y57630D01*
X123759Y57459D01*
X123879Y57299D01*
X124029Y57149D01*
X124179Y57019D01*
X124349Y56899D01*
X124510Y56819D01*
X124690Y56739D01*
X124890Y56689D01*
X125100Y56649D01*
X125320Y56619D01*
X125560Y56609D01*
G37*
G36*
G01X114580Y46440D02*
X115650D01*
X115090Y48170D01*
X114580Y46440D01*
G37*
G36*
G01X123786Y70007D02*
X123779Y69984D01*
X123776Y69974D01*
X123773Y69963D01*
X123768Y69943D01*
X123765Y69929D01*
X123763Y69919D01*
X123760Y69903D01*
X123757Y69884D01*
X123754Y69860D01*
X123753Y69849D01*
X123752Y69839D01*
X123751Y69823D01*
X123750Y69796D01*
Y69430D01*
X125980D01*
X125910Y69990D01*
X124900Y73250D01*
X123788Y70013D01*
X123786Y70007D01*
G37*
G36*
G01X136730Y45469D02*
X137831D01*
Y48471D01*
X136830D01*
X136680Y48451D01*
X136590Y48441D01*
X136560Y48431D01*
X136500Y48401D01*
X136449Y48371D01*
X136409Y48341D01*
X136359Y48281D01*
X136329Y48251D01*
X136249Y48120D01*
X136209Y47840D01*
Y47790D01*
X136189Y47540D01*
Y46390D01*
X136199Y46300D01*
Y46220D01*
X136209Y46110D01*
X136239Y45890D01*
X136259Y45810D01*
X136289Y45749D01*
X136339Y45679D01*
X136369Y45629D01*
X136409Y45589D01*
X136490Y45539D01*
X136530Y45519D01*
X136640Y45479D01*
X136730Y45469D01*
G37*
G36*
G01X131650Y48490D02*
X131361Y48415D01*
X131338Y48409D01*
X131217Y48306D01*
X131210Y48300D01*
X131150Y48240D01*
X131110Y48190D01*
X131039Y47975D01*
X131010Y47830D01*
Y47749D01*
X131004Y47684D01*
X131000Y47639D01*
X130990Y47530D01*
Y47419D01*
X130983Y47342D01*
X130980Y47310D01*
Y46690D01*
X130990Y46468D01*
Y46458D01*
X130992Y46424D01*
X131000Y46320D01*
Y46230D01*
X131015Y46100D01*
X131030Y45980D01*
X131050Y45910D01*
X131070Y45852D01*
X131080Y45830D01*
X131102Y45764D01*
X131150Y45700D01*
X131190Y45640D01*
X131240Y45590D01*
X131410Y45500D01*
X131590Y45460D01*
X131730Y45440D01*
X132020D01*
X132130Y45450D01*
X132250Y45470D01*
X132350Y45500D01*
X132430Y45540D01*
X132560Y45630D01*
X132628Y45698D01*
X132639Y45721D01*
X132653Y45750D01*
X132700Y45830D01*
X132730Y45950D01*
X132760Y46120D01*
X132790Y46410D01*
Y47530D01*
X132750Y47890D01*
X132720Y48020D01*
X132630Y48240D01*
X132580Y48290D01*
X132457Y48394D01*
X132451Y48399D01*
X132367Y48425D01*
X132350Y48431D01*
X132280Y48460D01*
X132180Y48480D01*
X132096Y48492D01*
X132048Y48499D01*
X132040Y48500D01*
X131760D01*
X131650Y48490D01*
G37*
G36*
G01X140000Y46440D02*
X141070D01*
X140510Y48170D01*
X140000Y46440D01*
G37*
G36*
G01X150150D02*
X151220D01*
X150660Y48170D01*
X150150Y46440D01*
G37*
G36*
G01X135560Y64900D02*
X148050Y57550D01*
Y71930D01*
X135560Y64900D01*
G37*
G54D15*
X-18000Y45500D03*
%LPD*%
G75*
G36*
G01X90790Y44950D02*
X90170D01*
Y49000D01*
X90790D01*
Y44950D01*
G37*
G36*
G01X105540Y55250D02*
X103630D01*
Y64130D01*
X105540D01*
Y55250D01*
G37*
G54D10*
G01X-67500Y-12500D02*
X-32500D01*
G01X-67500Y202500D02*
X-32500D01*
G01X-57500Y-22500D02*
Y12500D01*
G01Y212500D02*
Y177500D01*
G01X262500Y-12500D02*
X227500D01*
G01X262500Y202500D02*
X227500D01*
G01X252500Y-22500D02*
Y12500D01*
G01Y212500D02*
Y177500D01*
G54D11*
G01X1000Y27500D02*
X-23000D01*
G54D12*
G01X-20251Y98039D02*
X-19880Y97999D01*
X-19604Y97831D01*
X-19486Y97529D01*
X-19551Y97125D01*
X-19784Y96679D01*
X-20091Y96321D01*
X-20526Y95956D01*
X-20932Y95716D01*
X-21372Y95597D01*
X-21678Y95640D01*
X-21930Y95779D01*
X-22048Y96081D01*
X-22037Y96390D01*
X-21898Y96707D01*
X-21631Y97031D01*
X-21304Y97205D01*
X-20904Y97290D01*
X-20598Y97247D01*
X-20386Y97075D01*
X-20268Y96773D01*
X-20318Y96431D01*
X-20526Y95956D01*
G01X-20459Y99009D02*
X-23911Y98505D01*
G01X-24342Y100918D02*
X-24555Y100596D01*
X-24609Y100291D01*
X-24552Y99985D01*
X-24324Y99660D01*
X-23990Y99496D01*
X-23672Y99530D01*
X-23394Y99672D01*
X-23204Y99905D01*
X-22980Y100802D01*
X-22759Y101250D01*
X-22352Y101643D01*
X-21941Y101874D01*
X-21390Y100361D01*
G01X2000Y104500D02*
G03I-14500J0D01*
G01X4500D02*
G03I-17000J0D01*
G01X-25195Y102798D02*
X-25174Y103121D01*
X-24984Y103410D01*
X-24725Y103638D01*
X-24355Y103856D01*
X-23916Y104014D01*
X-23457Y104097D01*
X-23028Y104093D01*
X-22689Y104025D01*
X-22380Y103870D01*
X-22200Y103600D01*
X-22221Y103277D01*
X-22411Y102988D01*
X-22670Y102760D01*
X-23040Y102542D01*
X-23479Y102384D01*
X-23938Y102301D01*
X-24367Y102305D01*
X-24706Y102373D01*
X-25016Y102528D01*
X-25195Y102798D01*
G01X-25253Y106139D02*
X-25098Y106423D01*
X-24803Y106604D01*
X-24471Y106702D01*
X-24044Y106743D01*
X-23580Y106700D01*
X-23128Y106582D01*
X-22741Y106397D01*
X-22463Y106192D01*
X-22248Y105920D01*
X-22200Y105601D01*
X-22355Y105316D01*
X-22649Y105135D01*
X-22981Y105038D01*
X-23408Y104996D01*
X-23873Y105039D01*
X-24324Y105158D01*
X-24711Y105343D01*
X-24990Y105547D01*
X-25204Y105819D01*
X-25253Y106139D01*
G01X-23879Y109268D02*
X-24249Y109158D01*
X-24486Y108959D01*
X-24640Y108689D01*
X-24674Y108293D01*
X-24523Y107952D01*
X-24258Y107774D01*
X-23953Y107704D01*
X-23658Y107760D01*
X-22910Y108304D01*
X-22452Y108504D01*
X-21888Y108544D01*
X-21425Y108457D01*
X-21976Y106944D01*
G01X-4423Y98929D02*
X-2550Y98056D01*
G01X-3065Y98296D02*
X-2782Y98291D01*
X-2514Y98377D01*
X-2307Y98577D01*
X-2287Y98864D01*
X-2394Y99125D01*
X-2579Y99338D01*
X-3937Y99971D01*
G01X-2579Y99338D02*
X-2296Y99333D01*
X-2028Y99419D01*
X-1821Y99619D01*
X-1801Y99906D01*
X-1907Y100167D01*
X-2140Y100402D01*
X-3451Y101014D01*
G01X-5647Y97527D02*
X-5737Y97309D01*
X-5700Y97002D01*
X-5491Y96669D01*
X-5197Y96369D01*
X-4814Y96195D01*
X-4430Y96113D01*
X-4129Y96183D01*
X-3955Y96342D01*
X-3865Y96560D01*
X-3902Y96867D01*
X-4111Y97200D01*
X-4427Y97468D01*
X-4788Y97674D01*
X-5172Y97756D01*
X-5473Y97686D01*
X-5647Y97527D01*
G01X-4924Y94650D02*
X-4977Y94378D01*
X-5094Y94115D01*
X-5311Y93898D01*
X-5664Y93764D01*
X-6037Y93757D01*
X-6391Y93841D01*
X-6865Y94097D01*
X-7221Y94399D01*
X-7496Y94782D01*
X-7634Y95083D01*
X-7690Y95465D01*
X-7646Y95800D01*
X-7530Y96063D01*
X-7340Y96253D01*
X-7077Y96370D01*
X-6805Y96423D01*
X-6523Y96412D01*
G01X-9300Y93297D02*
X-9223Y93348D01*
Y93452D01*
X-9300Y93503D01*
X-9377Y93452D01*
Y93348D01*
X-9300Y93297D01*
G01X-11457Y91926D02*
X-11687Y91771D01*
X-11955Y91668D01*
X-12262D01*
X-12607Y91823D01*
X-12875Y92081D01*
X-13067Y92391D01*
X-13220Y92908D01*
X-13258Y93373D01*
X-13182Y93838D01*
X-13067Y94148D01*
X-12837Y94458D01*
X-12568Y94665D01*
X-12300Y94768D01*
X-12032D01*
X-11763Y94665D01*
X-11533Y94510D01*
X-11342Y94303D01*
G01X-13566Y94819D02*
X-15077Y95085D01*
X-15615Y92033D01*
X-14105Y91766D01*
G01X-14449Y93348D02*
X-15355Y93508D01*
G01X-15900Y95311D02*
X-18815Y93396D01*
G01X-18741Y96605D02*
X-18396Y96625D01*
X-18096Y96545D01*
X-17816Y96338D01*
X-17645Y96021D01*
X-17601Y95685D01*
X-17722Y95294D01*
X-17987Y94974D01*
X-18333Y94736D01*
X-18651Y94689D01*
X-18987Y94733D01*
X-19213Y94886D01*
X-19367Y95112D01*
X-19465Y95502D01*
X-20333Y94471D01*
X-19601Y93739D01*
G01X-4700Y104500D02*
G03I-7800J0D01*
G01X-7100Y112797D02*
X-7023Y112848D01*
Y112952D01*
X-7100Y113003D01*
X-7177Y112952D01*
Y112848D01*
X-7100Y112797D01*
G01X-3639Y113795D02*
X-5831Y111603D01*
G01X-3990Y112685D02*
X-4749Y113444D01*
G01X-4169Y109452D02*
X-2379Y110485D01*
G01X-2827Y110227D02*
X-2680Y110489D01*
X-2616Y110791D01*
X-2724Y111082D01*
X-2903Y111289D01*
X-3197Y111385D01*
X-3568Y111304D01*
X-4821Y110580D01*
G01X-3507Y108228D02*
X-1565Y108935D01*
G01X-1905Y108811D02*
X-1659Y108738D01*
X-1483Y108557D01*
X-1342Y108323D01*
X-1348Y108035D01*
X-1463Y107748D01*
X-1702Y107498D01*
X-2064Y107285D01*
X-2479Y107215D01*
X-2823Y107253D01*
X-3096Y107399D01*
X-3284Y107616D01*
X-3328Y107885D01*
X-3261Y108155D01*
X-3119Y108369D01*
G01X-881Y106212D02*
X-2917Y105853D01*
G01X-67Y106356D02*
X-3Y106289D01*
X99Y106307D01*
X136Y106392D01*
X72Y106458D01*
X-30Y106440D01*
X-67Y106356D01*
G01X-2833Y104533D02*
X267D01*
G01X-4056Y102413D02*
X-1003Y101875D01*
G01X-1461Y101956D02*
X-1173Y102100D01*
X-987Y102262D01*
X-883Y102555D01*
X-887Y102828D01*
X-1095Y103137D01*
X-1431Y103313D01*
X-1781Y103414D01*
X-2144Y103439D01*
X-2520Y103388D01*
X-2763Y103198D01*
X-2918Y102913D01*
X-2914Y102640D01*
X-2808Y102349D01*
X-2631Y102162D01*
G01X-15362Y114141D02*
X-15574Y113801D01*
X-15854Y113547D01*
X-16146Y113452D01*
X-16485Y113505D01*
X-16784Y113679D01*
X-17005Y113988D01*
X-17044Y114356D01*
X-16957Y114710D01*
X-16693Y115013D01*
X-16287Y115253D01*
X-16096Y115533D01*
X-16098Y115912D01*
X-16283Y116232D01*
X-16545Y116419D01*
X-16848Y116483D01*
X-17103Y116401D01*
X-17327Y116219D01*
X-17466Y115903D01*
G01X-12905Y114226D02*
X-13390Y117288D01*
G01X-14980Y117036D02*
X-14495Y113974D01*
G01X-14737Y115505D02*
X-13147Y115757D01*
G01X-11599Y114200D02*
X-11364Y114211D01*
X-11102Y114374D01*
X-10888Y114704D01*
X-10741Y115097D01*
X-10744Y115518D01*
X-10832Y115901D01*
X-11023Y116144D01*
X-11241Y116235D01*
X-11476Y116224D01*
X-11739Y116060D01*
X-11952Y115731D01*
X-12062Y115330D01*
X-12096Y114917D01*
X-12008Y114534D01*
X-11817Y114291D01*
X-11599Y114200D01*
G01X-8779Y113438D02*
X-7719Y116351D01*
X-8619Y116679D01*
X-8961Y116638D01*
X-9212Y116510D01*
X-9425Y116147D01*
X-9494Y115733D01*
X-9366Y115411D01*
X-9167Y115174D01*
X-8267Y114846D01*
G01X-9167Y115174D02*
X-10220Y113963D01*
G54D13*
G01X13375Y280333D02*
X14375Y279500D01*
X15500Y279000D01*
X16500D01*
X17500Y279500D01*
X18250Y280333D01*
X18625Y281500D01*
X18375Y282666D01*
X17750Y283667D01*
X16625Y284333D01*
X15125Y284667D01*
X14250Y285333D01*
X13875Y286500D01*
X14125Y287667D01*
X14750Y288500D01*
X15625Y289000D01*
X16500D01*
X17375Y288667D01*
X18125Y287833D01*
G01X24500Y289000D02*
X27500D01*
G01X26000D02*
Y279000D01*
G01X24500D02*
X27500D01*
G01X33500Y289000D02*
Y279000D01*
X38500D01*
G01X43250D02*
Y289000D01*
G01X48000D02*
X43250Y282833D01*
G01X48750Y279000D02*
X45375Y285666D01*
G01X53375Y280333D02*
X54375Y279500D01*
X55500Y279000D01*
X56500D01*
X57500Y279500D01*
X58250Y280333D01*
X58625Y281500D01*
X58375Y282666D01*
X57750Y283667D01*
X56625Y284333D01*
X55125Y284667D01*
X54250Y285333D01*
X53875Y286500D01*
X54125Y287667D01*
X54750Y288500D01*
X55625Y289000D01*
X56500D01*
X57375Y288667D01*
X58125Y287833D01*
G01X68750Y288167D02*
X68000Y288667D01*
X67125Y289000D01*
X66125D01*
X65000Y288500D01*
X64125Y287667D01*
X63500Y286667D01*
X63000Y285000D01*
X62875Y283500D01*
X63125Y282000D01*
X63500Y281000D01*
X64250Y280000D01*
X65125Y279333D01*
X66000Y279000D01*
X66875D01*
X67750Y279333D01*
X68500Y279833D01*
X69125Y280500D01*
G01X73500Y279000D02*
Y289000D01*
X76625D01*
X77625Y288500D01*
X78250Y287833D01*
X78500Y286500D01*
X78250Y285167D01*
X77500Y284333D01*
X76625Y283833D01*
X73500D01*
G01X76625D02*
X78500Y279000D01*
G01X88500D02*
X83500D01*
Y289000D01*
X88500D01*
G01X86500Y284167D02*
X83500D01*
G01X98500Y279000D02*
X93500D01*
Y289000D01*
X98500D01*
G01X96500Y284167D02*
X93500D01*
G01X103125Y279000D02*
Y289000D01*
X108875Y279000D01*
Y289000D01*
G01X123375Y280333D02*
X124375Y279500D01*
X125500Y279000D01*
X126500D01*
X127500Y279500D01*
X128250Y280333D01*
X128625Y281500D01*
X128375Y282666D01*
X127750Y283667D01*
X126625Y284333D01*
X125125Y284667D01*
X124250Y285333D01*
X123875Y286500D01*
X124125Y287667D01*
X124750Y288500D01*
X125625Y289000D01*
X126500D01*
X127375Y288667D01*
X128125Y287833D01*
G01X138500Y279000D02*
X133500D01*
Y289000D01*
X138500D01*
G01X136500Y284167D02*
X133500D01*
G01X148750Y288167D02*
X148000Y288667D01*
X147125Y289000D01*
X146125D01*
X145000Y288500D01*
X144125Y287667D01*
X143500Y286667D01*
X143000Y285000D01*
X142875Y283500D01*
X143125Y282000D01*
X143500Y281000D01*
X144250Y280000D01*
X145125Y279333D01*
X146000Y279000D01*
X146875D01*
X147750Y279333D01*
X148500Y279833D01*
X149125Y280500D01*
G01X156000Y279000D02*
X155000Y279167D01*
X154125Y279833D01*
X153375Y280833D01*
X152875Y282000D01*
X152625Y283333D01*
Y284667D01*
X152875Y286000D01*
X153375Y287167D01*
X154125Y288167D01*
X155000Y288833D01*
X156000Y289000D01*
X157000Y288833D01*
X157875Y288167D01*
X158625Y287167D01*
X159125Y286000D01*
X159375Y284667D01*
Y283333D01*
X159125Y282000D01*
X158625Y280833D01*
X157875Y279833D01*
X157000Y279167D01*
X156000Y279000D01*
G01X163125D02*
Y289000D01*
X168875Y279000D01*
Y289000D01*
G01X173250Y279000D02*
Y289000D01*
X175750D01*
X176750Y288500D01*
X177500Y287833D01*
X178125Y286833D01*
X178625Y285666D01*
X178750Y284000D01*
X178625Y282333D01*
X178125Y281167D01*
X177500Y280166D01*
X176750Y279500D01*
X175750Y279000D01*
X173250D01*
G01X182875D02*
X186000Y289000D01*
X189125Y279000D01*
G01X188000Y282500D02*
X184000D01*
G01X193500Y279000D02*
Y289000D01*
X196625D01*
X197625Y288500D01*
X198250Y287833D01*
X198500Y286500D01*
X198250Y285167D01*
X197500Y284333D01*
X196625Y283833D01*
X193500D01*
G01X196625D02*
X198500Y279000D01*
G01X206000D02*
Y283500D01*
X203500Y289000D01*
G01X208500D02*
X206000Y283500D01*
G01X56000Y269000D02*
X55000Y268667D01*
X54250Y267833D01*
X53750Y266833D01*
X53375Y265500D01*
X53250Y264000D01*
X53375Y262500D01*
X53750Y261167D01*
X54250Y260166D01*
X55000Y259333D01*
X56000Y259000D01*
X57000Y259333D01*
X57750Y260166D01*
X58250Y261167D01*
X58625Y262500D01*
X58750Y264000D01*
X58625Y265500D01*
X58250Y266833D01*
X57750Y267833D01*
X57000Y268667D01*
X56000Y269000D01*
G01X66000Y259000D02*
X66875Y259167D01*
X67875Y259667D01*
X68500Y260500D01*
X68750Y261667D01*
X68500Y262833D01*
X67750Y263833D01*
X66625Y264333D01*
X65375D01*
X64625Y264667D01*
X64000Y265500D01*
X63750Y266667D01*
X64125Y267833D01*
X65000Y268667D01*
X66000Y269000D01*
X67000Y268667D01*
X67875Y267833D01*
X68250Y266667D01*
X68000Y265500D01*
X67375Y264667D01*
X66625Y264333D01*
X65375D01*
X64250Y263833D01*
X63500Y262833D01*
X63250Y261667D01*
X63500Y260500D01*
X64125Y259667D01*
X65125Y259167D01*
X66000Y259000D01*
G01X74375Y262333D02*
X77625D01*
G01X144375D02*
X147625D01*
G01X156000Y269000D02*
X155000Y268667D01*
X154250Y267833D01*
X153750Y266833D01*
X153375Y265500D01*
X153250Y264000D01*
X153375Y262500D01*
X153750Y261167D01*
X154250Y260166D01*
X155000Y259333D01*
X156000Y259000D01*
X157000Y259333D01*
X157750Y260166D01*
X158250Y261167D01*
X158625Y262500D01*
X158750Y264000D01*
X158625Y265500D01*
X158250Y266833D01*
X157750Y267833D01*
X157000Y268667D01*
X156000Y269000D01*
G01X163250Y260500D02*
X164000Y259667D01*
X164875Y259167D01*
X166000Y259000D01*
X167125Y259333D01*
X168000Y260000D01*
X168625Y261167D01*
X168750Y262500D01*
X168500Y263833D01*
X167875Y264667D01*
X167000Y265333D01*
X166125Y265500D01*
X165250Y265333D01*
X164125Y264667D01*
X164500Y269000D01*
X167875D01*
G01X86000D02*
X85000Y268667D01*
X84250Y267833D01*
X83750Y266833D01*
X83375Y265500D01*
X83250Y264000D01*
X83375Y262500D01*
X83750Y261167D01*
X84250Y260166D01*
X85000Y259333D01*
X86000Y259000D01*
X87000Y259333D01*
X87750Y260166D01*
X88250Y261167D01*
X88625Y262500D01*
X88750Y264000D01*
X88625Y265500D01*
X88250Y266833D01*
X87750Y267833D01*
X87000Y268667D01*
X86000Y269000D01*
G01X93625Y263166D02*
X94500Y264333D01*
X95250Y265000D01*
X96250Y265333D01*
X97125Y265000D01*
X97750Y264333D01*
X98250Y263333D01*
X98375Y262167D01*
X98250Y261167D01*
X97750Y260166D01*
X97000Y259333D01*
X96125Y259000D01*
X95125Y259333D01*
X94250Y260333D01*
X93750Y261833D01*
X93625Y263500D01*
X93875Y265666D01*
X94250Y266833D01*
X94875Y268000D01*
X95750Y268833D01*
X96625Y269000D01*
X97500Y268667D01*
X98125Y267833D01*
G01X103625Y263166D02*
X104500Y264333D01*
X105250Y265000D01*
X106250Y265333D01*
X107125Y265000D01*
X107750Y264333D01*
X108250Y263333D01*
X108375Y262167D01*
X108250Y261167D01*
X107750Y260166D01*
X107000Y259333D01*
X106125Y259000D01*
X105125Y259333D01*
X104250Y260333D01*
X103750Y261833D01*
X103625Y263500D01*
X103875Y265666D01*
X104250Y266833D01*
X104875Y268000D01*
X105750Y268833D01*
X106625Y269000D01*
X107500Y268667D01*
X108125Y267833D01*
G01X113250Y260500D02*
X114000Y259667D01*
X114875Y259167D01*
X116000Y259000D01*
X117125Y259333D01*
X118000Y260000D01*
X118625Y261167D01*
X118750Y262500D01*
X118500Y263833D01*
X117875Y264667D01*
X117000Y265333D01*
X116125Y265500D01*
X115250Y265333D01*
X114125Y264667D01*
X114500Y269000D01*
X117875D01*
G01X123250Y261000D02*
X124000Y259833D01*
X125000Y259167D01*
X126125Y259000D01*
X127125Y259167D01*
X128125Y260000D01*
X128750Y261000D01*
X128875Y262000D01*
X128625Y263166D01*
X127750Y264000D01*
X126875Y264333D01*
X125750D01*
G01X126875D02*
X127625Y264833D01*
X128250Y265666D01*
X128500Y266667D01*
X128250Y267667D01*
X127625Y268500D01*
X126500Y269000D01*
X125375Y268833D01*
X124250Y268167D01*
G01X137500Y259000D02*
Y269000D01*
X132875Y261833D01*
X139125D01*
G01X88500Y239000D02*
Y249000D01*
X91625D01*
X92625Y248500D01*
X93250Y247833D01*
X93500Y246500D01*
X93250Y245167D01*
X92500Y244333D01*
X91625Y243833D01*
X88500D01*
G01X91625D02*
X93500Y239000D01*
G01X103500D02*
X98500D01*
Y249000D01*
X103500D01*
G01X101500Y244167D02*
X98500D01*
G01X107875Y249000D02*
X111000Y239000D01*
X114125Y249000D01*
G01X132000Y244333D02*
X132500Y244833D01*
X132875Y245666D01*
X133125Y246833D01*
X132875Y247833D01*
X132375Y248500D01*
X131500Y249000D01*
X128125D01*
Y239000D01*
X132250D01*
X133125Y239667D01*
X133625Y240667D01*
X133875Y241833D01*
X133625Y243000D01*
X132875Y244000D01*
X132000Y244333D01*
X128125D01*
G01X-25500Y40000D02*
X3500Y76500D01*
G01X-18500Y65000D02*
Y61000D01*
X-21500D01*
Y65000D01*
X-18500D01*
Y64000D01*
G01X3500Y40000D02*
X-25500Y76500D01*
G01X-16000Y45000D02*
X-3500D01*
X-3000Y68500D01*
G03X-19000I-8000J-5055D01*
G01X-18500Y47000D01*
G01X-8000Y73000D02*
X-14000D01*
Y70500D01*
X-8000D01*
Y73000D01*
X-9000D01*
G01X-1000Y68500D02*
X-21000D01*
G54D14*
G01X140300Y29100D02*
X140607Y28997D01*
X140837Y28738D01*
X140990Y28428D01*
X141105Y28015D01*
X141143Y27550D01*
X141105Y27085D01*
X140990Y26672D01*
X140837Y26362D01*
X140607Y26103D01*
X140300Y26000D01*
X139993Y26103D01*
X139763Y26362D01*
X139610Y26672D01*
X139495Y27085D01*
X139457Y27550D01*
X139495Y28015D01*
X139610Y28428D01*
X139763Y28738D01*
X139993Y28997D01*
X140300Y29100D01*
G01X137200Y26000D02*
X136932Y26052D01*
X136625Y26207D01*
X136433Y26465D01*
X136357Y26827D01*
X136433Y27188D01*
X136663Y27498D01*
X137008Y27653D01*
X137392D01*
X137622Y27757D01*
X137813Y28015D01*
X137890Y28377D01*
X137775Y28738D01*
X137507Y28997D01*
X137200Y29100D01*
X136893Y28997D01*
X136625Y28738D01*
X136510Y28377D01*
X136587Y28015D01*
X136778Y27757D01*
X137008Y27653D01*
X137392D01*
X137737Y27498D01*
X137967Y27188D01*
X138043Y26827D01*
X137967Y26465D01*
X137775Y26207D01*
X137468Y26052D01*
X137200Y26000D01*
G01X134598Y27033D02*
X133602D01*
G01X131000Y29100D02*
X131307Y28997D01*
X131537Y28738D01*
X131690Y28428D01*
X131805Y28015D01*
X131843Y27550D01*
X131805Y27085D01*
X131690Y26672D01*
X131537Y26362D01*
X131307Y26103D01*
X131000Y26000D01*
X130693Y26103D01*
X130463Y26362D01*
X130310Y26672D01*
X130195Y27085D01*
X130157Y27550D01*
X130195Y28015D01*
X130310Y28428D01*
X130463Y28738D01*
X130693Y28997D01*
X131000Y29100D01*
G01X128628Y27292D02*
X128360Y27653D01*
X128130Y27860D01*
X127823Y27963D01*
X127555Y27860D01*
X127363Y27653D01*
X127210Y27343D01*
X127172Y26982D01*
X127210Y26672D01*
X127363Y26362D01*
X127593Y26103D01*
X127862Y26000D01*
X128168Y26103D01*
X128437Y26413D01*
X128590Y26878D01*
X128628Y27395D01*
X128552Y28067D01*
X128437Y28428D01*
X128245Y28790D01*
X127977Y29048D01*
X127708Y29100D01*
X127440Y28997D01*
X127248Y28738D01*
G01X125528Y27292D02*
X125260Y27653D01*
X125030Y27860D01*
X124723Y27963D01*
X124455Y27860D01*
X124263Y27653D01*
X124110Y27343D01*
X124072Y26982D01*
X124110Y26672D01*
X124263Y26362D01*
X124493Y26103D01*
X124762Y26000D01*
X125068Y26103D01*
X125337Y26413D01*
X125490Y26878D01*
X125528Y27395D01*
X125452Y28067D01*
X125337Y28428D01*
X125145Y28790D01*
X124877Y29048D01*
X124608Y29100D01*
X124340Y28997D01*
X124148Y28738D01*
G01X122543Y26465D02*
X122313Y26207D01*
X122045Y26052D01*
X121700Y26000D01*
X121355Y26103D01*
X121087Y26310D01*
X120895Y26672D01*
X120857Y27085D01*
X120933Y27498D01*
X121125Y27757D01*
X121393Y27963D01*
X121662Y28015D01*
X121930Y27963D01*
X122275Y27757D01*
X122160Y29100D01*
X121125D01*
G01X119443Y26620D02*
X119213Y26258D01*
X118907Y26052D01*
X118562Y26000D01*
X118255Y26052D01*
X117948Y26310D01*
X117757Y26620D01*
X117718Y26930D01*
X117795Y27292D01*
X118063Y27550D01*
X118332Y27653D01*
X118677D01*
G01X118332D02*
X118102Y27808D01*
X117910Y28067D01*
X117833Y28377D01*
X117910Y28687D01*
X118102Y28945D01*
X118447Y29100D01*
X118792Y29048D01*
X119137Y28842D01*
G01X115040Y26000D02*
Y29100D01*
X116458Y26878D01*
X114542D01*
G01X110067Y26000D02*
Y29100D01*
X109108D01*
X108802Y28945D01*
X108610Y28738D01*
X108533Y28325D01*
X108610Y27912D01*
X108840Y27653D01*
X109108Y27498D01*
X110067D01*
G01X109108D02*
X108533Y26000D01*
G01X105433D02*
X106967D01*
Y29100D01*
X105433D01*
G01X106047Y27602D02*
X106967D01*
G01X104058Y29100D02*
X103100Y26000D01*
X102142Y29100D01*
G01X96593Y27653D02*
X96440Y27808D01*
X96325Y28067D01*
X96248Y28428D01*
X96325Y28738D01*
X96478Y28945D01*
X96747Y29100D01*
X97782D01*
Y26000D01*
X96517D01*
X96248Y26207D01*
X96095Y26517D01*
X96018Y26878D01*
X96095Y27240D01*
X96325Y27550D01*
X96593Y27653D01*
X97782D01*
G01X91428Y29100D02*
X89972D01*
X91428Y26000D01*
X89972D01*
G01X135455Y32413D02*
X135148Y32155D01*
X134803Y32000D01*
X134497D01*
X134190Y32155D01*
X133960Y32413D01*
X133845Y32775D01*
X133922Y33137D01*
X134113Y33447D01*
X134458Y33653D01*
X134918Y33757D01*
X135187Y33963D01*
X135302Y34325D01*
X135225Y34687D01*
X135033Y34945D01*
X134765Y35100D01*
X134497D01*
X134228Y34997D01*
X133998Y34738D01*
G01X130783Y32000D02*
X132317D01*
Y35100D01*
X130783D01*
G01X131397Y33602D02*
X132317D01*
G01X127607Y34842D02*
X127837Y34997D01*
X128105Y35100D01*
X128412D01*
X128757Y34945D01*
X129025Y34687D01*
X129217Y34377D01*
X129370Y33860D01*
X129408Y33395D01*
X129332Y32930D01*
X129217Y32620D01*
X128987Y32310D01*
X128718Y32103D01*
X128450Y32000D01*
X128182D01*
X127913Y32103D01*
X127683Y32258D01*
X127492Y32465D01*
G01X125350Y32000D02*
X125657Y32052D01*
X125925Y32258D01*
X126155Y32568D01*
X126308Y32930D01*
X126385Y33343D01*
Y33757D01*
X126308Y34170D01*
X126155Y34532D01*
X125925Y34842D01*
X125657Y35048D01*
X125350Y35100D01*
X125043Y35048D01*
X124775Y34842D01*
X124545Y34532D01*
X124392Y34170D01*
X124315Y33757D01*
Y33343D01*
X124392Y32930D01*
X124545Y32568D01*
X124775Y32258D01*
X125043Y32052D01*
X125350Y32000D01*
G01X123132D02*
Y35100D01*
X121368Y32000D01*
Y35100D01*
G01X119993Y32000D02*
Y35100D01*
X119227D01*
X118920Y34945D01*
X118690Y34738D01*
X118498Y34428D01*
X118345Y34067D01*
X118307Y33550D01*
X118345Y33033D01*
X118498Y32672D01*
X118690Y32362D01*
X118920Y32155D01*
X119227Y32000D01*
X119993D01*
G01X117008D02*
X116050Y35100D01*
X115092Y32000D01*
G01X115437Y33085D02*
X116663D01*
G01X113717Y32000D02*
Y35100D01*
X112758D01*
X112452Y34945D01*
X112260Y34738D01*
X112183Y34325D01*
X112260Y33912D01*
X112490Y33653D01*
X112758Y33498D01*
X113717D01*
G01X112758D02*
X112183Y32000D01*
G01X109850D02*
Y33395D01*
X110617Y35100D01*
G01X109083D02*
X109850Y33395D01*
G01X104455Y32413D02*
X104148Y32155D01*
X103803Y32000D01*
X103497D01*
X103190Y32155D01*
X102960Y32413D01*
X102845Y32775D01*
X102922Y33137D01*
X103113Y33447D01*
X103458Y33653D01*
X103918Y33757D01*
X104187Y33963D01*
X104302Y34325D01*
X104225Y34687D01*
X104033Y34945D01*
X103765Y35100D01*
X103497D01*
X103228Y34997D01*
X102998Y34738D01*
G01X101010Y35100D02*
X100090D01*
G01X100550D02*
Y32000D01*
G01X101010D02*
X100090D01*
G01X98293D02*
Y35100D01*
X97527D01*
X97220Y34945D01*
X96990Y34738D01*
X96798Y34428D01*
X96645Y34067D01*
X96607Y33550D01*
X96645Y33033D01*
X96798Y32672D01*
X96990Y32362D01*
X97220Y32155D01*
X97527Y32000D01*
X98293D01*
G01X93583D02*
X95117D01*
Y35100D01*
X93583D01*
G01X94197Y33602D02*
X95117D01*
M02*
