G04 ================== begin FILE IDENTIFICATION RECORD ==================*
G04 Layout Name:  C:/tmp/20_074522b/worklib/02_074522b_top/physical/08_074522b.brd*
G04 Film Name:    fab1*
G04 File Format:  Gerber RS274X*
G04 File Origin:  Cadence Allegro 17.4-S036*
G04 Origin Date:  Wed Jul 12 13:23:58 2023*
G04 *
G04 Layer:  DRAWING FORMAT/DSIZE*
G04 Layer:  BOARD GEOMETRY/DESIGN_OUTLINE*
G04 Layer:  DRAWING FORMAT/OUTLINE*
G04 Layer:  MANUFACTURING/NCLEGEND-1-2*
G04 Layer:  BOARD GEOMETRY/OUTLINE*
G04 Layer:  BOARD GEOMETRY/DIMENSION*
G04 Layer:  BOARD GEOMETRY/FAB_NOTES*
G04 *
G04 Offset:    (0.00 0.00)*
G04 Mirror:    No*
G04 Mode:      Positive*
G04 Rotation:  0*
G04 FullContactRelief:  No*
G04 UndefLineWidth:     8.00*
G04 ================== end FILE IDENTIFICATION RECORD ====================*
%FSLAX25Y25*MOIN*%
%IR0*IPPOS*OFA0.00000B0.00000*MIA0B0*SFA1.00000B1.00000*%
%AMMACRO12*
1,1,.008,.025,0.0*
20,1,.008,.025,0.0,-.025,0.0,0.0*
1,1,.008,-.025,0.0*
1,1,.008,0.0,.025*
20,1,.008,0.0,.025,0.0,-.025,0.0*
1,1,.008,0.0,-.025*
%
%ADD12MACRO12*%
%AMMACRO11*
1,1,.008,.0325,.0325*
20,1,.008,.0325,.0325,.0325,-.0325,0.0*
1,1,.008,.0325,-.0325*
20,1,.008,.0325,-.0325,-.0325,-.0325,0.0*
1,1,.008,-.0325,-.0325*
20,1,.008,-.0325,-.0325,-.0325,.0325,0.0*
1,1,.008,-.0325,.0325*
20,1,.008,-.0325,.0325,.0325,.0325,0.0*
1,1,.008,.0325,.0325*
%
%ADD11MACRO11*%
%AMMACRO10*
1,1,.008,.02961,0.0*
20,1,.008,.02961,0.0,-.02961,0.0,0.0*
1,1,.008,-.02961,0.0*
1,1,.008,0.0,.02961*
20,1,.008,0.0,.02961,0.0,-.02961,0.0*
1,1,.008,0.0,-.02961*
%
%ADD10MACRO10*%
%ADD13C,.008*%
G75*
%LPD*%
G75*
G36*
G01X6501Y212502D02*
X-8499Y210002D01*
X6501Y207502D01*
Y212502D01*
G37*
G36*
G01X151499Y207502D02*
X166499Y210002D01*
X151499Y212502D01*
Y207502D01*
G37*
G36*
G01X219001Y-2498D02*
X221501Y-17498D01*
X224001Y-2498D01*
X219001D01*
G37*
G36*
G01X224001Y142500D02*
X221501Y157500D01*
X219001Y142500D01*
X224001D01*
G37*
G36*
G01X1205001Y-287712D02*
X1255029D01*
Y-237684D01*
X1205001D01*
Y-287712D01*
G37*
G36*
G01X1273600Y-265351D02*
G02Y-287712I-2326J-11180D01*
G01X1263746D01*
Y-265351D01*
X1273600D01*
G37*
G36*
G01X1267915Y-260045D02*
X1269418Y-255497D01*
X1277022D01*
X1278527Y-260045D01*
X1282696D01*
X1275305Y-237684D01*
X1271136D01*
X1263746Y-260045D01*
X1267915D01*
G37*
G36*
G01X1284212Y-265351D02*
Y-287712D01*
X1300888D01*
Y-284680D01*
X1288381D01*
Y-278048D01*
X1299751D01*
Y-275016D01*
X1288381D01*
Y-268383D01*
X1300888D01*
Y-265351D01*
X1284212D01*
G37*
G36*
G01X1284970Y-260045D02*
X1289139D01*
Y-244264D01*
X1299137Y-260045D01*
X1303306D01*
Y-237684D01*
X1299137D01*
Y-253466D01*
X1289139Y-237684D01*
X1284970D01*
Y-260045D01*
G37*
G36*
G01X1302025Y-265351D02*
Y-267246D01*
X1309036Y-287712D01*
X1313205D01*
X1320217Y-267246D01*
Y-265351D01*
X1316048D01*
X1311121Y-279731D01*
X1306194Y-265351D01*
X1302025D01*
G37*
G36*
G01X1309749Y-260045D02*
X1311252Y-255497D01*
X1318856D01*
X1320361Y-260045D01*
X1324530D01*
X1317139Y-237684D01*
X1312970D01*
X1305580Y-260045D01*
X1309749D01*
G37*
G36*
G01X1326804Y-237684D02*
Y-260045D01*
X1341964D01*
Y-255876D01*
X1330973D01*
Y-237684D01*
X1326804D01*
G37*
G36*
G01X1343870Y-272037D02*
X1348411D01*
G03X1329881Y-274826I-9055J-2789D01*
G01Y-278237D01*
G03X1348411Y-281027I9475J0D01*
G01X1343869D01*
G02X1334050Y-278238I-4513J2790D01*
G01Y-274824D01*
G02X1343870Y-272037I5306J-2D01*
G37*
G36*
G01X1349703Y-265351D02*
Y-287712D01*
X1366000D01*
Y-284680D01*
X1353872D01*
Y-278048D01*
X1364863D01*
Y-275016D01*
X1353872D01*
Y-268383D01*
X1366000D01*
Y-265351D01*
X1349703D01*
G37*
G36*
G01X1342233Y-250570D02*
G03X1361183I9475J0D01*
G01Y-247159D01*
G03X1342233I-9475J0D01*
G01Y-250570D01*
G37*
G36*
G01X1379860Y-271901D02*
X1383904D01*
G03X1366461Y-272999I-8607J-2361D01*
G03X1370938Y-277858I5048J159D01*
G01X1378397Y-278689D01*
G02X1379749Y-281345I-355J-1853D01*
G02X1370734Y-281148I-4454J2566D01*
G01X1366690D01*
G03X1384132Y-280050I8607J2361D01*
G03X1379655Y-275190I-5047J-157D01*
G01X1372197Y-274360D01*
G02X1370845Y-271704I356J1853D01*
G02X1379860Y-271901I4454J-2565D01*
G37*
G36*
G01X1377709Y-245904D02*
G03X1367247Y-247154I-5156J-1255D01*
G01Y-250570D01*
G03X1377859Y-252086I5414J-2D01*
G01Y-251707D01*
X1373311D01*
Y-248675D01*
X1382028D01*
Y-260045D01*
X1377859D01*
Y-258420D01*
G02X1363078Y-250570I-5306J7850D01*
G01Y-247159D01*
G02X1381945Y-245905I9475J0D01*
G01X1377709D01*
Y-245904D01*
G37*
%LPC*%
G75*
G36*
G01X1245554Y-262698D02*
X1214476Y-244885D01*
Y-280511D01*
X1245554Y-262698D01*
G37*
G36*
G01X1272697Y-269141D02*
G02Y-283922I-1295J-7391D01*
G01X1267915D01*
Y-269141D01*
X1272697D01*
G37*
G36*
G01X1273221Y-243991D02*
X1275684Y-251446D01*
Y-252844D01*
X1270757D01*
Y-251446D01*
X1273221Y-243991D01*
G37*
G36*
G01X1315055D02*
X1317518Y-251446D01*
Y-252844D01*
X1312591D01*
Y-251446D01*
X1315055Y-243991D01*
G37*
G36*
G01X1346402Y-250571D02*
G03X1357014Y-250570I5306J1D01*
G01Y-247159D01*
G03X1346402I-5306J0D01*
G01Y-250571D01*
G37*
%LPD*%
G75*
G36*
G01X1322301Y-287712D02*
Y-265351D01*
X1326470D01*
Y-287712D01*
X1322301D01*
G37*
G54D10*
X-8499Y-17498D03*
G54D11*
X0Y0D03*
Y20000D03*
Y10000D03*
Y40000D03*
Y30000D03*
Y60000D03*
Y50000D03*
Y80000D03*
Y70000D03*
Y100000D03*
Y90000D03*
Y120000D03*
Y110000D03*
Y140000D03*
Y130000D03*
X10000Y0D03*
Y20000D03*
Y10000D03*
Y40000D03*
Y30000D03*
Y60000D03*
Y50000D03*
Y80000D03*
Y70000D03*
Y100000D03*
Y90000D03*
Y120000D03*
Y110000D03*
Y140000D03*
Y130000D03*
X541450Y20000D03*
G54D12*
X1500Y-10499D03*
X-1000Y151000D03*
X21501Y-10498D03*
X11500Y-10499D03*
X9000Y151000D03*
X19001Y151002D03*
X41501Y-10498D03*
X32500Y-10500D03*
X29001Y151002D03*
X39001D03*
X51501Y-10498D03*
X61501D03*
X52500Y30000D03*
X60000D03*
X52500Y55000D03*
Y45000D03*
Y75000D03*
Y65000D03*
Y105000D03*
X62500D03*
X52500Y95000D03*
Y85000D03*
X49001Y151002D03*
X59001D03*
X71501Y-10498D03*
X81501D03*
X70000Y30000D03*
X77500D03*
X87500D03*
X72500Y105000D03*
X82500D03*
X78501Y151002D03*
X68501D03*
X91500Y-10499D03*
X101500D03*
X95000Y30000D03*
X105000D03*
X92500Y105000D03*
X102500D03*
X108501Y151002D03*
X98500Y151001D03*
X88500D03*
X111501Y-10498D03*
X121501D03*
X124000Y-2000D03*
X115000Y30000D03*
X122500D03*
X127500D03*
Y45000D03*
Y55000D03*
Y65000D03*
Y75000D03*
X112500Y105000D03*
X125000D03*
X127500Y85000D03*
Y95000D03*
X128501Y151002D03*
X118501D03*
X141501Y-10498D03*
X131501D03*
X131000Y6500D03*
X142500Y15000D03*
X143000Y2500D03*
X142500Y27500D03*
X149001Y140002D03*
X142500Y145000D03*
X138501Y151002D03*
X149001D03*
X151501Y-10498D03*
X159001D03*
X156501Y2502D03*
X157500Y15000D03*
Y27500D03*
X159001Y140002D03*
X159000Y132500D03*
X159001Y151002D03*
X541450Y45000D03*
G54D13*
G01X-486374Y-374998D02*
X-478499Y-349998D01*
X-470624Y-374998D01*
G01X-473459Y-366248D02*
X-483539D01*
G01X-458499Y-149998D02*
X-488499D01*
G01X-475979Y63336D02*
X-474719Y64585D01*
X-473774Y66668D01*
X-473144Y69586D01*
X-473774Y72085D01*
X-475034Y73752D01*
X-477239Y75002D01*
X-485744D01*
Y50002D01*
X-475349D01*
X-473144Y51668D01*
X-471884Y54169D01*
X-471254Y57085D01*
X-471884Y60001D01*
X-473774Y62502D01*
X-475979Y63336D01*
X-485744D01*
G01X-497499Y272502D02*
Y277502D01*
X-477499D01*
Y284502D01*
X-459999Y275002D01*
X-477499Y265502D01*
Y272502D01*
X-497499D01*
G01X-498499Y271502D02*
Y278502D01*
X-478499D01*
Y286002D01*
X-458499Y275002D01*
X-478499Y264002D01*
Y271502D01*
X-498499D01*
G01X-495499Y274502D02*
Y275502D01*
X-475499D01*
Y281502D01*
X-462999Y275002D01*
X-475499Y268502D01*
Y274502D01*
X-495499D01*
G01X-496499Y273502D02*
Y276502D01*
X-476499D01*
Y283002D01*
X-461499Y275002D01*
X-476499Y267002D01*
Y273502D01*
X-496499D01*
G01X-471569Y497918D02*
X-473459Y499169D01*
X-475664Y500002D01*
X-478184D01*
X-481019Y498752D01*
X-483224Y496669D01*
X-484799Y494168D01*
X-486059Y490002D01*
X-486374Y486252D01*
X-485744Y482502D01*
X-484799Y480002D01*
X-482909Y477501D01*
X-480704Y475835D01*
X-478499Y475002D01*
X-476294D01*
X-474089Y475835D01*
X-472199Y477085D01*
X-470624Y478751D01*
G01X-488499Y700002D02*
X-458499D01*
G01X-485429Y900002D02*
Y925002D01*
X-479129D01*
X-476609Y923752D01*
X-474719Y922085D01*
X-473144Y919586D01*
X-471884Y916668D01*
X-471569Y912502D01*
X-471884Y908335D01*
X-473144Y905418D01*
X-474719Y902918D01*
X-476609Y901252D01*
X-479129Y900002D01*
X-485429D01*
G01X-473499Y271502D02*
Y278502D01*
X-465999Y275002D01*
X-473499Y271502D01*
G01X-474499Y270002D02*
Y280002D01*
X-464499Y275002D01*
X-474499Y270002D01*
G01X-470999Y275002D02*
X-469999D01*
G01X-471499Y274002D02*
Y276002D01*
X-468999Y275002D01*
X-471499Y274002D01*
G01X-472499Y273002D02*
Y277002D01*
X-467499Y275002D01*
X-472499Y273002D01*
G01X-458499Y1075002D02*
Y-524998D01*
X796501D01*
G01Y1075002D02*
X-458499D01*
G01X-229719Y-559998D02*
Y-534998D01*
X-241374Y-552915D01*
X-225624D01*
G01X-229719Y1085002D02*
Y1110002D01*
X-241374Y1092085D01*
X-225624D01*
G01X-158534Y-14798D02*
X-153464D01*
G01X-142099Y-24165D02*
X-142409Y-23956D01*
Y-23540D01*
X-142099Y-23331D01*
X-141789Y-23540D01*
Y-23956D01*
X-142099Y-24165D01*
G01X-129699Y-23748D02*
Y-11248D01*
X-131559Y-13748D01*
G01Y-23748D02*
X-127839D01*
G01X-117609D02*
X-117299Y-21040D01*
X-116834Y-18748D01*
X-116214Y-16665D01*
X-115439Y-14373D01*
X-114199Y-11248D01*
X-120399D01*
G01X-108309Y-21873D02*
X-107379Y-22915D01*
X-106294Y-23540D01*
X-104899Y-23748D01*
X-103504Y-23331D01*
X-102419Y-22498D01*
X-101644Y-21040D01*
X-101489Y-19373D01*
X-101799Y-17706D01*
X-102574Y-16665D01*
X-103659Y-15831D01*
X-104744Y-15623D01*
X-105829Y-15831D01*
X-107224Y-16665D01*
X-106759Y-11248D01*
X-102574D01*
G01X-153299Y148752D02*
Y161252D01*
X-155159Y158752D01*
G01Y148752D02*
X-151439D01*
G01X-140899Y148335D02*
X-141209Y148544D01*
Y148960D01*
X-140899Y149169D01*
X-140589Y148960D01*
Y148544D01*
X-140899Y148335D01*
G01X-131909Y150627D02*
X-130979Y149585D01*
X-129894Y148960D01*
X-128499Y148752D01*
X-127104Y149169D01*
X-126019Y150002D01*
X-125244Y151460D01*
X-125089Y153127D01*
X-125399Y154794D01*
X-126174Y155835D01*
X-127259Y156669D01*
X-128344Y156877D01*
X-129429Y156669D01*
X-130824Y155835D01*
X-130359Y161252D01*
X-126174D01*
G01X-116409Y148752D02*
X-116099Y151460D01*
X-115634Y153752D01*
X-115014Y155835D01*
X-114239Y158127D01*
X-112999Y161252D01*
X-119199D01*
G01X-107109Y150627D02*
X-106179Y149585D01*
X-105094Y148960D01*
X-103699Y148752D01*
X-102304Y149169D01*
X-101219Y150002D01*
X-100444Y151460D01*
X-100289Y153127D01*
X-100599Y154794D01*
X-101374Y155835D01*
X-102459Y156669D01*
X-103544Y156877D01*
X-104629Y156669D01*
X-106024Y155835D01*
X-105559Y161252D01*
X-101374D01*
G01X-88154Y9722D02*
X-87179Y13102D01*
G01X-84644D02*
X-85619Y9722D01*
G01X-52354D02*
X-51379Y13102D01*
G01X-48844D02*
X-49819Y9722D01*
G01X-13499Y-17498D02*
X-90874D01*
G01X-13499Y157500D02*
X-83499D01*
X-89674Y157157D01*
G01X-68499Y6252D02*
X-69739Y5835D01*
X-70669Y4794D01*
X-71289Y3544D01*
X-71754Y1877D01*
X-71909Y2D01*
X-71754Y-1873D01*
X-71289Y-3540D01*
X-70669Y-4790D01*
X-69739Y-5831D01*
X-68499Y-6248D01*
X-67259Y-5831D01*
X-66329Y-4790D01*
X-65709Y-3540D01*
X-65244Y-1873D01*
X-65089Y2D01*
X-65244Y1877D01*
X-65709Y3544D01*
X-66329Y4794D01*
X-67259Y5835D01*
X-68499Y6252D01*
G01X-5000Y0D02*
X-53499D01*
X-54474D01*
G01X-5799Y-162463D02*
Y-167533D01*
G01X-1832Y-146098D02*
X-2041Y-146408D01*
X-2457D01*
X-2666Y-146098D01*
X-2457Y-145788D01*
X-2041D01*
X-1832Y-146098D01*
G01X-14749Y-133698D02*
X-14332Y-134938D01*
X-13291Y-135868D01*
X-12041Y-136488D01*
X-10374Y-136953D01*
X-8499Y-137108D01*
X-6624Y-136953D01*
X-4957Y-136488D01*
X-3707Y-135868D01*
X-2666Y-134938D01*
X-2249Y-133698D01*
X-2666Y-132458D01*
X-3707Y-131528D01*
X-4957Y-130908D01*
X-6624Y-130443D01*
X-8499Y-130288D01*
X-10374Y-130443D01*
X-12041Y-130908D01*
X-13291Y-131528D01*
X-14332Y-132458D01*
X-14749Y-133698D01*
G01X-2249Y-121298D02*
X-2457Y-120213D01*
X-3082Y-118973D01*
X-4124Y-118198D01*
X-5582Y-117888D01*
X-7040Y-118198D01*
X-8291Y-119128D01*
X-8916Y-120523D01*
Y-122073D01*
X-9332Y-123003D01*
X-10374Y-123778D01*
X-11832Y-124088D01*
X-13291Y-123623D01*
X-14332Y-122538D01*
X-14749Y-121298D01*
X-14332Y-120058D01*
X-13291Y-118973D01*
X-11832Y-118508D01*
X-10374Y-118818D01*
X-9332Y-119593D01*
X-8916Y-120523D01*
Y-122073D01*
X-8291Y-123468D01*
X-7040Y-124398D01*
X-5582Y-124708D01*
X-4124Y-124398D01*
X-3082Y-123623D01*
X-2457Y-122383D01*
X-2249Y-121298D01*
G01X-4124Y-112308D02*
X-3082Y-111378D01*
X-2457Y-110293D01*
X-2249Y-108898D01*
X-2666Y-107503D01*
X-3499Y-106418D01*
X-4957Y-105643D01*
X-6624Y-105488D01*
X-8291Y-105798D01*
X-9332Y-106573D01*
X-10166Y-107658D01*
X-10374Y-108743D01*
X-10166Y-109828D01*
X-9332Y-111223D01*
X-14749Y-110758D01*
Y-106573D01*
G01X-8499Y-22498D02*
Y-94873D01*
G01X0Y-5000D02*
Y-54998D01*
X1073Y-55973D01*
G01X-8499Y-17498D02*
Y157500D01*
X166499D01*
Y-17498D01*
X-8499D01*
G01Y162500D02*
Y215002D01*
G01X32676Y210002D02*
X-8499D01*
G01X9281Y-89653D02*
X5901Y-88678D01*
G01Y-86143D02*
X9281Y-87118D01*
G01Y-53853D02*
X5901Y-52878D01*
G01Y-50343D02*
X9281Y-51318D01*
G01X10251Y-69998D02*
X10668Y-71238D01*
X11709Y-72168D01*
X12959Y-72788D01*
X14626Y-73253D01*
X16501Y-73408D01*
X18376Y-73253D01*
X20043Y-72788D01*
X21293Y-72168D01*
X22334Y-71238D01*
X22751Y-69998D01*
X22334Y-68758D01*
X21293Y-67828D01*
X20043Y-67208D01*
X18376Y-66743D01*
X16501Y-66588D01*
X14626Y-66743D01*
X12959Y-67208D01*
X11709Y-67828D01*
X10668Y-68758D01*
X10251Y-69998D01*
G01X41501Y-524998D02*
Y-554998D01*
G01X45926Y180835D02*
X44376Y182919D01*
X43601Y185002D01*
Y193335D01*
X44376Y195419D01*
X45926Y197502D01*
G01X56001Y185002D02*
Y197502D01*
X59876D01*
X61116Y196877D01*
X61891Y196044D01*
X62201Y194377D01*
X61891Y192710D01*
X60961Y191669D01*
X59876Y191044D01*
X56001D01*
G01X59876D02*
X62201Y185002D01*
G01X74601D02*
X68401D01*
Y197502D01*
X74601D01*
G01X72121Y191460D02*
X68401D01*
G01X80956Y185002D02*
Y197502D01*
X86846D01*
G01X84676Y191460D02*
X80956D01*
G01X97076Y180835D02*
X98626Y182919D01*
X99401Y185002D01*
Y193335D01*
X98626Y195419D01*
X97076Y197502D01*
G01X46701Y203752D02*
Y216252D01*
X44841Y213752D01*
G01Y203752D02*
X48561D01*
G01X59101Y203335D02*
X58791Y203544D01*
Y203960D01*
X59101Y204169D01*
X59411Y203960D01*
Y203544D01*
X59101Y203335D01*
G01X71191Y203752D02*
X71501Y206460D01*
X71966Y208752D01*
X72586Y210835D01*
X73361Y213127D01*
X74601Y216252D01*
X68401D01*
G01X80491Y205627D02*
X81421Y204585D01*
X82506Y203960D01*
X83901Y203752D01*
X85296Y204169D01*
X86381Y205002D01*
X87156Y206460D01*
X87311Y208127D01*
X87001Y209794D01*
X86226Y210835D01*
X85141Y211669D01*
X84056Y211877D01*
X82971Y211669D01*
X81576Y210835D01*
X82041Y216252D01*
X86226D01*
G01X96301D02*
X95061Y215835D01*
X94131Y214794D01*
X93511Y213544D01*
X93046Y211877D01*
X92891Y210002D01*
X93046Y208127D01*
X93511Y206460D01*
X94131Y205210D01*
X95061Y204169D01*
X96301Y203752D01*
X97541Y204169D01*
X98471Y205210D01*
X99091Y206460D01*
X99556Y208127D01*
X99711Y210002D01*
X99556Y211877D01*
X99091Y213544D01*
X98471Y214794D01*
X97541Y215835D01*
X96301Y216252D01*
G01X41501Y1075002D02*
Y1105002D01*
G01X110326Y210002D02*
X166499D01*
G01X172749Y-154798D02*
X160249D01*
X162749Y-156658D01*
G01X172749D02*
Y-152938D01*
G01X173166Y-142398D02*
X172957Y-142708D01*
X172541D01*
X172332Y-142398D01*
X172541Y-142088D01*
X172957D01*
X173166Y-142398D01*
G01X167541Y-132943D02*
X166082Y-131858D01*
X165249Y-130928D01*
X164832Y-129688D01*
X165249Y-128603D01*
X166082Y-127828D01*
X167332Y-127208D01*
X168791Y-127053D01*
X170041Y-127208D01*
X171291Y-127828D01*
X172332Y-128758D01*
X172749Y-129843D01*
X172332Y-131083D01*
X171083Y-132168D01*
X169207Y-132788D01*
X167124Y-132943D01*
X164416Y-132633D01*
X162957Y-132168D01*
X161499Y-131393D01*
X160457Y-130308D01*
X160249Y-129223D01*
X160666Y-128138D01*
X161707Y-127363D01*
G01X167541Y-120543D02*
X166082Y-119458D01*
X165249Y-118528D01*
X164832Y-117288D01*
X165249Y-116203D01*
X166082Y-115428D01*
X167332Y-114808D01*
X168791Y-114653D01*
X170041Y-114808D01*
X171291Y-115428D01*
X172332Y-116358D01*
X172749Y-117443D01*
X172332Y-118683D01*
X171083Y-119768D01*
X169207Y-120388D01*
X167124Y-120543D01*
X164416Y-120233D01*
X162957Y-119768D01*
X161499Y-118993D01*
X160457Y-117908D01*
X160249Y-116823D01*
X160666Y-115738D01*
X161707Y-114963D01*
G01X170874Y-108608D02*
X171916Y-107678D01*
X172541Y-106593D01*
X172749Y-105198D01*
X172332Y-103803D01*
X171499Y-102718D01*
X170041Y-101943D01*
X168374Y-101788D01*
X166707Y-102098D01*
X165666Y-102873D01*
X164832Y-103958D01*
X164624Y-105043D01*
X164832Y-106128D01*
X165666Y-107523D01*
X160249Y-107058D01*
Y-102873D01*
G01X166499Y-22498D02*
Y-91173D01*
G01Y162500D02*
Y215002D01*
G01X171499Y-17498D02*
X226501D01*
G01X171499Y157500D02*
X226501D01*
G01X221501Y31177D02*
Y-17498D01*
G01X227751Y45202D02*
X215251D01*
X217751Y43342D01*
G01X227751D02*
Y47062D01*
G01X228168Y57602D02*
X227959Y57292D01*
X227543D01*
X227334Y57602D01*
X227543Y57912D01*
X227959D01*
X228168Y57602D01*
G01X227751Y69692D02*
X225043Y70002D01*
X222751Y70467D01*
X220668Y71087D01*
X218376Y71862D01*
X215251Y73102D01*
Y66902D01*
G01X225876Y78992D02*
X226918Y79922D01*
X227543Y81007D01*
X227751Y82402D01*
X227334Y83797D01*
X226501Y84882D01*
X225043Y85657D01*
X223376Y85812D01*
X221709Y85502D01*
X220668Y84727D01*
X219834Y83642D01*
X219626Y82557D01*
X219834Y81472D01*
X220668Y80077D01*
X215251Y80542D01*
Y84727D01*
G01Y94802D02*
X215668Y93562D01*
X216709Y92632D01*
X217959Y92012D01*
X219626Y91547D01*
X221501Y91392D01*
X223376Y91547D01*
X225043Y92012D01*
X226293Y92632D01*
X227334Y93562D01*
X227751Y94802D01*
X227334Y96042D01*
X226293Y96972D01*
X225043Y97592D01*
X223376Y98057D01*
X221501Y98212D01*
X219626Y98057D01*
X217959Y97592D01*
X216709Y96972D01*
X215668Y96042D01*
X215251Y94802D01*
G01X221501Y108827D02*
Y157500D01*
G01X253168Y46927D02*
X251084Y45377D01*
X249001Y44602D01*
X240668D01*
X238584Y45377D01*
X236501Y46927D01*
G01X249001Y57002D02*
X236501D01*
Y60877D01*
X237126Y62117D01*
X237959Y62892D01*
X239626Y63202D01*
X241293Y62892D01*
X242334Y61962D01*
X242959Y60877D01*
Y57002D01*
G01Y60877D02*
X249001Y63202D01*
G01Y75602D02*
Y69402D01*
X236501D01*
Y75602D01*
G01X242543Y73122D02*
Y69402D01*
G01X249001Y81957D02*
X236501D01*
Y87847D01*
G01X242543Y85677D02*
Y81957D01*
G01X253168Y98077D02*
X251084Y99627D01*
X249001Y100402D01*
X240668D01*
X238584Y99627D01*
X236501Y98077D01*
G01X309571Y-554998D02*
X311461Y-557915D01*
X313981Y-559581D01*
X316816Y-559998D01*
X319336Y-559581D01*
X321856Y-557499D01*
X323431Y-554998D01*
X323746Y-552498D01*
X323116Y-549582D01*
X320911Y-547498D01*
X318706Y-546664D01*
X315871D01*
G01X318706D02*
X320596Y-545415D01*
X322171Y-543332D01*
X322801Y-540832D01*
X322171Y-538331D01*
X320596Y-536248D01*
X317761Y-534998D01*
X314926Y-535415D01*
X312091Y-537082D01*
G01X309571Y1090002D02*
X311461Y1087085D01*
X313981Y1085419D01*
X316816Y1085002D01*
X319336Y1085419D01*
X321856Y1087501D01*
X323431Y1090002D01*
X323746Y1092502D01*
X323116Y1095418D01*
X320911Y1097502D01*
X318706Y1098336D01*
X315871D01*
G01X318706D02*
X320596Y1099585D01*
X322171Y1101668D01*
X322801Y1104168D01*
X322171Y1106669D01*
X320596Y1108752D01*
X317761Y1110002D01*
X314926Y1109585D01*
X312091Y1107918D01*
G01X496500Y7500D02*
Y132500D01*
X1070000D01*
Y7500D01*
X496500D01*
G01Y32500D02*
X1070000D01*
G01X507505Y63750D02*
Y76250D01*
X513395D01*
G01X511225Y70208D02*
X507505D01*
G01X520990Y76250D02*
X524710D01*
G01X522850D02*
Y63750D01*
G01X520990D02*
X524710D01*
G01X536180Y70000D02*
X539280D01*
Y66250D01*
X538350Y65000D01*
X537265Y64167D01*
X535715Y63750D01*
X534165Y64167D01*
X533080Y65000D01*
X532150Y66250D01*
X531530Y67708D01*
X531220Y69375D01*
Y70833D01*
X531530Y72083D01*
X532150Y73542D01*
X533080Y74792D01*
X534010Y75625D01*
X535250Y76250D01*
X536335D01*
X537575Y75833D01*
X538505Y75000D01*
G01X544240Y76250D02*
Y67292D01*
X544860Y65416D01*
X546100Y64167D01*
X547650Y63750D01*
X549200Y64167D01*
X550440Y65416D01*
X551060Y67292D01*
Y76250D01*
G01X556950Y63750D02*
Y76250D01*
X560825D01*
X562065Y75625D01*
X562840Y74792D01*
X563150Y73125D01*
X562840Y71458D01*
X561910Y70417D01*
X560825Y69792D01*
X556950D01*
G01X560825D02*
X563150Y63750D01*
G01X575550D02*
X569350D01*
Y76250D01*
X575550D01*
G01X573070Y70208D02*
X569350D01*
G01X496500Y57500D02*
X1070000D01*
G01X496500Y82500D02*
X1070000D01*
G01X496500Y107500D02*
X1070000D01*
G01X496501Y122502D02*
Y132502D01*
X506501D01*
G01X595001Y-564998D02*
X588001D01*
Y-544998D01*
X580501D01*
X591501Y-524998D01*
X602501Y-544998D01*
X595001D01*
Y-564998D01*
G01X594001Y-563998D02*
X589001D01*
Y-543998D01*
X582001D01*
X591501Y-526498D01*
X601001Y-543998D01*
X594001D01*
Y-563998D01*
G01X593001Y-562998D02*
X590001D01*
Y-542998D01*
X583501D01*
X591501Y-527998D01*
X599501Y-542998D01*
X593001D01*
Y-562998D01*
G01X592001Y-561998D02*
X591001D01*
Y-541998D01*
X585001D01*
X591501Y-529498D01*
X598001Y-541998D01*
X592001D01*
Y-561998D01*
G01X591501Y-537498D02*
Y-536498D01*
G01X596501Y-540998D02*
X586501D01*
X591501Y-530998D01*
X596501Y-540998D01*
G01X595001Y-539998D02*
X588001D01*
X591501Y-532498D01*
X595001Y-539998D01*
G01X593501Y-538998D02*
X589501D01*
X591501Y-533998D01*
X593501Y-538998D01*
G01X592501Y-537998D02*
X590501D01*
X591501Y-535498D01*
X592501Y-537998D01*
G01X586400Y82500D02*
Y7500D01*
G01X591501Y1087502D02*
Y1086502D01*
G01X590501Y1088002D02*
X592501D01*
X591501Y1085502D01*
X590501Y1088002D01*
G01X589501Y1089002D02*
X593501D01*
X591501Y1084002D01*
X589501Y1089002D01*
G01X588001Y1090002D02*
X595001D01*
X591501Y1082502D01*
X588001Y1090002D01*
G01X586501Y1091002D02*
X596501D01*
X591501Y1081002D01*
X586501Y1091002D01*
G01X591001Y1112002D02*
X592001D01*
Y1092002D01*
X598001D01*
X591501Y1079502D01*
X585001Y1092002D01*
X591001D01*
Y1112002D01*
G01X590001Y1113002D02*
X593001D01*
Y1093002D01*
X599501D01*
X591501Y1078002D01*
X583501Y1093002D01*
X590001D01*
Y1113002D01*
G01X589001Y1114002D02*
X594001D01*
Y1094002D01*
X601001D01*
X591501Y1076502D01*
X582001Y1094002D01*
X589001D01*
Y1114002D01*
G01X588001Y1115002D02*
X595001D01*
Y1095002D01*
X602501D01*
X591501Y1075002D01*
X580501Y1095002D01*
X588001D01*
Y1115002D01*
G01X608410Y13750D02*
Y26250D01*
X602675Y17292D01*
X610425D01*
G01X615540Y15625D02*
X616470Y14583D01*
X617555Y13958D01*
X618950Y13750D01*
X620345Y14167D01*
X621430Y15000D01*
X622205Y16458D01*
X622360Y18125D01*
X622050Y19792D01*
X621275Y20833D01*
X620190Y21667D01*
X619105Y21875D01*
X618020Y21667D01*
X616625Y20833D01*
X617090Y26250D01*
X621275D01*
G01X631350Y13333D02*
X631040Y13542D01*
Y13958D01*
X631350Y14167D01*
X631660Y13958D01*
Y13542D01*
X631350Y13333D01*
G01X643750Y26250D02*
X642510Y25833D01*
X641580Y24792D01*
X640960Y23542D01*
X640495Y21875D01*
X640340Y20000D01*
X640495Y18125D01*
X640960Y16458D01*
X641580Y15208D01*
X642510Y14167D01*
X643750Y13750D01*
X644990Y14167D01*
X645920Y15208D01*
X646540Y16458D01*
X647005Y18125D01*
X647160Y20000D01*
X647005Y21875D01*
X646540Y23542D01*
X645920Y24792D01*
X644990Y25833D01*
X643750Y26250D01*
G01X606550Y38750D02*
Y51250D01*
X604690Y48750D01*
G01Y38750D02*
X608410D01*
G01X618950Y51250D02*
X617710Y50833D01*
X616780Y49792D01*
X616160Y48542D01*
X615695Y46875D01*
X615540Y45000D01*
X615695Y43125D01*
X616160Y41458D01*
X616780Y40208D01*
X617710Y39167D01*
X618950Y38750D01*
X620190Y39167D01*
X621120Y40208D01*
X621740Y41458D01*
X622205Y43125D01*
X622360Y45000D01*
X622205Y46875D01*
X621740Y48542D01*
X621120Y49792D01*
X620190Y50833D01*
X618950Y51250D01*
G01X631350Y38333D02*
X631040Y38542D01*
Y38958D01*
X631350Y39167D01*
X631660Y38958D01*
Y38542D01*
X631350Y38333D01*
G01X643750Y51250D02*
X642510Y50833D01*
X641580Y49792D01*
X640960Y48542D01*
X640495Y46875D01*
X640340Y45000D01*
X640495Y43125D01*
X640960Y41458D01*
X641580Y40208D01*
X642510Y39167D01*
X643750Y38750D01*
X644990Y39167D01*
X645920Y40208D01*
X646540Y41458D01*
X647005Y43125D01*
X647160Y45000D01*
X647005Y46875D01*
X646540Y48542D01*
X645920Y49792D01*
X644990Y50833D01*
X643750Y51250D01*
G01X603295Y65416D02*
X604535Y64375D01*
X605930Y63750D01*
X607170D01*
X608410Y64375D01*
X609340Y65416D01*
X609805Y66875D01*
X609495Y68333D01*
X608720Y69583D01*
X607325Y70417D01*
X605465Y70833D01*
X604380Y71667D01*
X603915Y73125D01*
X604225Y74583D01*
X605000Y75625D01*
X606085Y76250D01*
X607170D01*
X608255Y75833D01*
X609185Y74792D01*
G01X617090Y76250D02*
X620810D01*
G01X618950D02*
Y63750D01*
G01X617090D02*
X620810D01*
G01X628405Y76250D02*
X634295D01*
X628405Y63750D01*
X634295D01*
G01X646850D02*
X640650D01*
Y76250D01*
X646850D01*
G01X644370Y70208D02*
X640650D01*
G01X655375Y88750D02*
X659250Y101250D01*
X663125Y88750D01*
G01X661730Y93125D02*
X656770D01*
G01X668550Y101250D02*
Y88750D01*
X674750D01*
G01X680950Y101250D02*
Y88750D01*
X687150D01*
G01X705440Y101250D02*
Y92292D01*
X706060Y90416D01*
X707300Y89167D01*
X708850Y88750D01*
X710400Y89167D01*
X711640Y90416D01*
X712260Y92292D01*
Y101250D01*
G01X717685Y88750D02*
Y101250D01*
X724815Y88750D01*
Y101250D01*
G01X731790D02*
X735510D01*
G01X733650D02*
Y88750D01*
G01X731790D02*
X735510D01*
G01X746050Y101250D02*
Y88750D01*
G01X742485Y101250D02*
X749615D01*
G01X755195Y90416D02*
X756435Y89375D01*
X757830Y88750D01*
X759070D01*
X760310Y89375D01*
X761240Y90416D01*
X761705Y91875D01*
X761395Y93333D01*
X760620Y94583D01*
X759225Y95417D01*
X757365Y95833D01*
X756280Y96667D01*
X755815Y98125D01*
X756125Y99583D01*
X756900Y100625D01*
X757985Y101250D01*
X759070D01*
X760155Y100833D01*
X761085Y99792D01*
G01X779375Y88750D02*
X783250Y101250D01*
X787125Y88750D01*
G01X785730Y93125D02*
X780770D01*
G01X792550Y88750D02*
Y101250D01*
X796425D01*
X797665Y100625D01*
X798440Y99792D01*
X798750Y98125D01*
X798440Y96458D01*
X797510Y95417D01*
X796425Y94792D01*
X792550D01*
G01X796425D02*
X798750Y88750D01*
G01X811150D02*
X804950D01*
Y101250D01*
X811150D01*
G01X808670Y95208D02*
X804950D01*
G01X830990Y101250D02*
X834710D01*
G01X832850D02*
Y88750D01*
G01X830990D02*
X834710D01*
G01X841685D02*
Y101250D01*
X848815Y88750D01*
Y101250D01*
G01X866020Y88750D02*
Y101250D01*
X870050Y90833D01*
X874080Y101250D01*
Y88750D01*
G01X880590Y101250D02*
X884310D01*
G01X882450D02*
Y88750D01*
G01X880590D02*
X884310D01*
G01X891750Y101250D02*
Y88750D01*
X897950D01*
G01X903995Y90416D02*
X905235Y89375D01*
X906630Y88750D01*
X907870D01*
X909110Y89375D01*
X910040Y90416D01*
X910505Y91875D01*
X910195Y93333D01*
X909420Y94583D01*
X908025Y95417D01*
X906165Y95833D01*
X905080Y96667D01*
X904615Y98125D01*
X904925Y99583D01*
X905700Y100625D01*
X906785Y101250D01*
X907870D01*
X908955Y100833D01*
X909885Y99792D01*
G01X650105Y113750D02*
Y126250D01*
X655995D01*
G01X653825Y120208D02*
X650105D01*
G01X663590Y126250D02*
X667310D01*
G01X665450D02*
Y113750D01*
G01X663590D02*
X667310D01*
G01X674285D02*
Y126250D01*
X681415Y113750D01*
Y126250D01*
G01X688390D02*
X692110D01*
G01X690250D02*
Y113750D01*
G01X688390D02*
X692110D01*
G01X699395Y115416D02*
X700635Y114375D01*
X702030Y113750D01*
X703270D01*
X704510Y114375D01*
X705440Y115416D01*
X705905Y116875D01*
X705595Y118333D01*
X704820Y119583D01*
X703425Y120417D01*
X701565Y120833D01*
X700480Y121667D01*
X700015Y123125D01*
X700325Y124583D01*
X701100Y125625D01*
X702185Y126250D01*
X703270D01*
X704355Y125833D01*
X705285Y124792D01*
G01X711795Y113750D02*
Y126250D01*
G01X718305D02*
Y113750D01*
G01Y120000D02*
X711795D01*
G01X730550Y113750D02*
X724350D01*
Y126250D01*
X730550D01*
G01X728070Y120208D02*
X724350D01*
G01X736440Y113750D02*
Y126250D01*
X739540D01*
X740780Y125625D01*
X741710Y124792D01*
X742485Y123542D01*
X743105Y122083D01*
X743260Y120000D01*
X743105Y117917D01*
X742485Y116458D01*
X741710Y115208D01*
X740780Y114375D01*
X739540Y113750D01*
X736440D01*
G01X761395D02*
Y126250D01*
G01X767905D02*
Y113750D01*
G01Y120000D02*
X761395D01*
G01X777050Y113750D02*
X775810Y113958D01*
X774725Y114791D01*
X773795Y116042D01*
X773175Y117500D01*
X772865Y119167D01*
Y120833D01*
X773175Y122500D01*
X773795Y123958D01*
X774725Y125208D01*
X775810Y126042D01*
X777050Y126250D01*
X778290Y126042D01*
X779375Y125208D01*
X780305Y123958D01*
X780925Y122500D01*
X781235Y120833D01*
Y119167D01*
X780925Y117500D01*
X780305Y116042D01*
X779375Y114791D01*
X778290Y113958D01*
X777050Y113750D01*
G01X786350Y126250D02*
Y113750D01*
X792550D01*
G01X804950D02*
X798750D01*
Y126250D01*
X804950D01*
G01X802470Y120208D02*
X798750D01*
G01X810995Y115416D02*
X812235Y114375D01*
X813630Y113750D01*
X814870D01*
X816110Y114375D01*
X817040Y115416D01*
X817505Y116875D01*
X817195Y118333D01*
X816420Y119583D01*
X815025Y120417D01*
X813165Y120833D01*
X812080Y121667D01*
X811615Y123125D01*
X811925Y124583D01*
X812700Y125625D01*
X813785Y126250D01*
X814870D01*
X815955Y125833D01*
X816885Y124792D01*
G01X837190Y126250D02*
X840910D01*
G01X839050D02*
Y113750D01*
G01X837190D02*
X840910D01*
G01X847885D02*
Y126250D01*
X855015Y113750D01*
Y126250D01*
G01X872220Y113750D02*
Y126250D01*
X876250Y115833D01*
X880280Y126250D01*
Y113750D01*
G01X886790Y126250D02*
X890510D01*
G01X888650D02*
Y113750D01*
G01X886790D02*
X890510D01*
G01X897950Y126250D02*
Y113750D01*
X904150D01*
G01X910195Y115416D02*
X911435Y114375D01*
X912830Y113750D01*
X914070D01*
X915310Y114375D01*
X916240Y115416D01*
X916705Y116875D01*
X916395Y118333D01*
X915620Y119583D01*
X914225Y120417D01*
X912365Y120833D01*
X911280Y121667D01*
X910815Y123125D01*
X911125Y124583D01*
X911900Y125625D01*
X912985Y126250D01*
X914070D01*
X915155Y125833D01*
X916085Y124792D01*
G01X645136Y152502D02*
Y165002D01*
X652266Y152502D01*
Y165002D01*
G01X661101Y152502D02*
X659861Y152710D01*
X658776Y153543D01*
X657846Y154794D01*
X657226Y156252D01*
X656916Y157919D01*
Y159585D01*
X657226Y161252D01*
X657846Y162710D01*
X658776Y163960D01*
X659861Y164794D01*
X661101Y165002D01*
X662341Y164794D01*
X663426Y163960D01*
X664356Y162710D01*
X664976Y161252D01*
X665286Y159585D01*
Y157919D01*
X664976Y156252D01*
X664356Y154794D01*
X663426Y153543D01*
X662341Y152710D01*
X661101Y152502D01*
G01X669936D02*
Y165002D01*
X677066Y152502D01*
Y165002D01*
G01X695201Y152502D02*
Y165002D01*
X698921D01*
X700161Y164377D01*
X701091Y162919D01*
X701401Y161252D01*
X701091Y159585D01*
X700316Y158335D01*
X698921Y157710D01*
X695201D01*
G01X707601Y165002D02*
Y152502D01*
X713801D01*
G01X719226D02*
X723101Y165002D01*
X726976Y152502D01*
G01X725581Y156877D02*
X720621D01*
G01X735501Y165002D02*
Y152502D01*
G01X731936Y165002D02*
X739066D01*
G01X751001Y152502D02*
X744801D01*
Y165002D01*
X751001D01*
G01X748521Y158960D02*
X744801D01*
G01X756891Y152502D02*
Y165002D01*
X759991D01*
X761231Y164377D01*
X762161Y163544D01*
X762936Y162294D01*
X763556Y160835D01*
X763711Y158752D01*
X763556Y156669D01*
X762936Y155210D01*
X762161Y153960D01*
X761231Y153127D01*
X759991Y152502D01*
X756891D01*
G01X772701Y152085D02*
X772391Y152294D01*
Y152710D01*
X772701Y152919D01*
X773011Y152710D01*
Y152294D01*
X772701Y152085D01*
G01Y157710D02*
X772391Y157919D01*
Y158335D01*
X772701Y158544D01*
X773011Y158335D01*
Y157919D01*
X772701Y157710D01*
G01X795796Y156669D02*
X799516D01*
G01X797501Y159377D02*
Y153960D01*
G01X807111Y152085D02*
X812691Y165002D01*
G01X820286Y156669D02*
X824316D01*
G01X831756Y162919D02*
X832686Y164168D01*
X833771Y164794D01*
X835011Y165002D01*
X836561Y164585D01*
X837646Y163544D01*
X837956Y162294D01*
X837801Y161043D01*
X837181Y160002D01*
X834081Y157919D01*
X832686Y156460D01*
X831756Y154377D01*
X831446Y152502D01*
X837956D01*
G01X843071D02*
Y165002D01*
X847101Y154585D01*
X851131Y165002D01*
Y152502D01*
G01X857641Y165002D02*
X861361D01*
G01X859501D02*
Y152502D01*
G01X857641D02*
X861361D01*
G01X868801Y165002D02*
Y152502D01*
X875001D01*
G01X881046Y154168D02*
X882286Y153127D01*
X883681Y152502D01*
X884921D01*
X886161Y153127D01*
X887091Y154168D01*
X887556Y155627D01*
X887246Y157085D01*
X886471Y158335D01*
X885076Y159169D01*
X883216Y159585D01*
X882131Y160419D01*
X881666Y161877D01*
X881976Y163335D01*
X882751Y164377D01*
X883836Y165002D01*
X884921D01*
X886006Y164585D01*
X886936Y163544D01*
G01X663900Y82500D02*
Y7500D01*
G01X670401Y172502D02*
Y185002D01*
X674121D01*
X675361Y184377D01*
X676291Y182919D01*
X676601Y181252D01*
X676291Y179585D01*
X675516Y178335D01*
X674121Y177710D01*
X670401D01*
G01X682801Y185002D02*
Y172502D01*
X689001D01*
G01X694426D02*
X698301Y185002D01*
X702176Y172502D01*
G01X700781Y176877D02*
X695821D01*
G01X710701Y185002D02*
Y172502D01*
G01X707136Y185002D02*
X714266D01*
G01X726201Y172502D02*
X720001D01*
Y185002D01*
X726201D01*
G01X723721Y178960D02*
X720001D01*
G01X732091Y172502D02*
Y185002D01*
X735191D01*
X736431Y184377D01*
X737361Y183544D01*
X738136Y182294D01*
X738756Y180835D01*
X738911Y178752D01*
X738756Y176669D01*
X738136Y175210D01*
X737361Y173960D01*
X736431Y173127D01*
X735191Y172502D01*
X732091D01*
G01X747901Y172085D02*
X747591Y172294D01*
Y172710D01*
X747901Y172919D01*
X748211Y172710D01*
Y172294D01*
X747901Y172085D01*
G01Y177710D02*
X747591Y177919D01*
Y178335D01*
X747901Y178544D01*
X748211Y178335D01*
Y177919D01*
X747901Y177710D01*
G01X770996Y176669D02*
X774716D01*
G01X772701Y179377D02*
Y173960D01*
G01X782311Y172085D02*
X787891Y185002D01*
G01X795486Y176669D02*
X799516D01*
G01X806491Y175002D02*
X807421Y173543D01*
X808661Y172710D01*
X810056Y172502D01*
X811296Y172710D01*
X812536Y173752D01*
X813311Y175002D01*
X813466Y176252D01*
X813156Y177710D01*
X812071Y178752D01*
X810986Y179169D01*
X809591D01*
G01X810986D02*
X811916Y179794D01*
X812691Y180835D01*
X813001Y182085D01*
X812691Y183335D01*
X811916Y184377D01*
X810521Y185002D01*
X809126Y184794D01*
X807731Y183960D01*
G01X818271Y172502D02*
Y185002D01*
X822301Y174585D01*
X826331Y185002D01*
Y172502D01*
G01X832841Y185002D02*
X836561D01*
G01X834701D02*
Y172502D01*
G01X832841D02*
X836561D01*
G01X844001Y185002D02*
Y172502D01*
X850201D01*
G01X856246Y174168D02*
X857486Y173127D01*
X858881Y172502D01*
X860121D01*
X861361Y173127D01*
X862291Y174168D01*
X862756Y175627D01*
X862446Y177085D01*
X861671Y178335D01*
X860276Y179169D01*
X858416Y179585D01*
X857331Y180419D01*
X856866Y181877D01*
X857176Y183335D01*
X857951Y184377D01*
X859036Y185002D01*
X860121D01*
X861206Y184585D01*
X862136Y183544D01*
G01X670091Y205002D02*
Y196044D01*
X670711Y194168D01*
X671951Y192919D01*
X673501Y192502D01*
X675051Y192919D01*
X676291Y194168D01*
X676911Y196044D01*
Y205002D01*
G01X682336Y192502D02*
Y205002D01*
X689466Y192502D01*
Y205002D01*
G01X695201D02*
Y192502D01*
X701401D01*
G01X713801D02*
X707601D01*
Y205002D01*
X713801D01*
G01X711321Y198960D02*
X707601D01*
G01X719846Y194168D02*
X721086Y193127D01*
X722481Y192502D01*
X723721D01*
X724961Y193127D01*
X725891Y194168D01*
X726356Y195627D01*
X726046Y197085D01*
X725271Y198335D01*
X723876Y199169D01*
X722016Y199585D01*
X720931Y200419D01*
X720466Y201877D01*
X720776Y203335D01*
X721551Y204377D01*
X722636Y205002D01*
X723721D01*
X724806Y204585D01*
X725736Y203544D01*
G01X732246Y194168D02*
X733486Y193127D01*
X734881Y192502D01*
X736121D01*
X737361Y193127D01*
X738291Y194168D01*
X738756Y195627D01*
X738446Y197085D01*
X737671Y198335D01*
X736276Y199169D01*
X734416Y199585D01*
X733331Y200419D01*
X732866Y201877D01*
X733176Y203335D01*
X733951Y204377D01*
X735036Y205002D01*
X736121D01*
X737206Y204585D01*
X738136Y203544D01*
G01X757046Y194168D02*
X758286Y193127D01*
X759681Y192502D01*
X760921D01*
X762161Y193127D01*
X763091Y194168D01*
X763556Y195627D01*
X763246Y197085D01*
X762471Y198335D01*
X761076Y199169D01*
X759216Y199585D01*
X758131Y200419D01*
X757666Y201877D01*
X757976Y203335D01*
X758751Y204377D01*
X759836Y205002D01*
X760921D01*
X762006Y204585D01*
X762936Y203544D01*
G01X769601Y192502D02*
Y205002D01*
X773321D01*
X774561Y204377D01*
X775491Y202919D01*
X775801Y201252D01*
X775491Y199585D01*
X774716Y198335D01*
X773321Y197710D01*
X769601D01*
G01X788201Y192502D02*
X782001D01*
Y205002D01*
X788201D01*
G01X785721Y198960D02*
X782001D01*
G01X800911Y203960D02*
X799981Y204585D01*
X798896Y205002D01*
X797656D01*
X796261Y204377D01*
X795176Y203335D01*
X794401Y202085D01*
X793781Y200002D01*
X793626Y198127D01*
X793936Y196252D01*
X794401Y195002D01*
X795331Y193752D01*
X796416Y192919D01*
X797501Y192502D01*
X798586D01*
X799671Y192919D01*
X800601Y193543D01*
X801376Y194377D01*
G01X808041Y205002D02*
X811761D01*
G01X809901D02*
Y192502D01*
G01X808041D02*
X811761D01*
G01X819356D02*
Y205002D01*
X825246D01*
G01X823076Y198960D02*
X819356D01*
G01X832841Y205002D02*
X836561D01*
G01X834701D02*
Y192502D01*
G01X832841D02*
X836561D01*
G01X850201D02*
X844001D01*
Y205002D01*
X850201D01*
G01X847721Y198960D02*
X844001D01*
G01X856091Y192502D02*
Y205002D01*
X859191D01*
X860431Y204377D01*
X861361Y203544D01*
X862136Y202294D01*
X862756Y200835D01*
X862911Y198752D01*
X862756Y196669D01*
X862136Y195210D01*
X861361Y193960D01*
X860431Y193127D01*
X859191Y192502D01*
X856091D01*
G01X693350Y13750D02*
Y26250D01*
X697070D01*
X698310Y25625D01*
X699240Y24167D01*
X699550Y22500D01*
X699240Y20833D01*
X698465Y19583D01*
X697070Y18958D01*
X693350D01*
G01X705750Y26250D02*
Y13750D01*
X711950D01*
G01X717375D02*
X721250Y26250D01*
X725125Y13750D01*
G01X723730Y18125D02*
X718770D01*
G01X733650Y26250D02*
Y13750D01*
G01X730085Y26250D02*
X737215D01*
G01X749150Y13750D02*
X742950D01*
Y26250D01*
X749150D01*
G01X746670Y20208D02*
X742950D01*
G01X755040Y13750D02*
Y26250D01*
X758140D01*
X759380Y25625D01*
X760310Y24792D01*
X761085Y23542D01*
X761705Y22083D01*
X761860Y20000D01*
X761705Y17917D01*
X761085Y16458D01*
X760310Y15208D01*
X759380Y14375D01*
X758140Y13750D01*
X755040D01*
G01X693350Y38750D02*
Y51250D01*
X697070D01*
X698310Y50625D01*
X699240Y49167D01*
X699550Y47500D01*
X699240Y45833D01*
X698465Y44583D01*
X697070Y43958D01*
X693350D01*
G01X705750Y51250D02*
Y38750D01*
X711950D01*
G01X717375D02*
X721250Y51250D01*
X725125Y38750D01*
G01X723730Y43125D02*
X718770D01*
G01X733650Y51250D02*
Y38750D01*
G01X730085Y51250D02*
X737215D01*
G01X749150Y38750D02*
X742950D01*
Y51250D01*
X749150D01*
G01X746670Y45208D02*
X742950D01*
G01X755040Y38750D02*
Y51250D01*
X758140D01*
X759380Y50625D01*
X760310Y49792D01*
X761085Y48542D01*
X761705Y47083D01*
X761860Y45000D01*
X761705Y42917D01*
X761085Y41458D01*
X760310Y40208D01*
X759380Y39375D01*
X758140Y38750D01*
X755040D01*
G01X693350Y63750D02*
Y76250D01*
X697070D01*
X698310Y75625D01*
X699240Y74167D01*
X699550Y72500D01*
X699240Y70833D01*
X698465Y69583D01*
X697070Y68958D01*
X693350D01*
G01X705750Y76250D02*
Y63750D01*
X711950D01*
G01X717375D02*
X721250Y76250D01*
X725125Y63750D01*
G01X723730Y68125D02*
X718770D01*
G01X733650Y76250D02*
Y63750D01*
G01X730085Y76250D02*
X737215D01*
G01X749150Y63750D02*
X742950D01*
Y76250D01*
X749150D01*
G01X746670Y70208D02*
X742950D01*
G01X755040Y63750D02*
Y76250D01*
X758140D01*
X759380Y75625D01*
X760310Y74792D01*
X761085Y73542D01*
X761705Y72083D01*
X761860Y70000D01*
X761705Y67917D01*
X761085Y66458D01*
X760310Y65208D01*
X759380Y64375D01*
X758140Y63750D01*
X755040D01*
G01X682646Y232502D02*
Y245002D01*
G01X689156D02*
Y232502D01*
G01Y238752D02*
X682646D01*
G01X698301Y232502D02*
X697061Y232710D01*
X695976Y233543D01*
X695046Y234794D01*
X694426Y236252D01*
X694116Y237919D01*
Y239585D01*
X694426Y241252D01*
X695046Y242710D01*
X695976Y243960D01*
X697061Y244794D01*
X698301Y245002D01*
X699541Y244794D01*
X700626Y243960D01*
X701556Y242710D01*
X702176Y241252D01*
X702486Y239585D01*
Y237919D01*
X702176Y236252D01*
X701556Y234794D01*
X700626Y233543D01*
X699541Y232710D01*
X698301Y232502D01*
G01X707601Y245002D02*
Y232502D01*
X713801D01*
G01X726201D02*
X720001D01*
Y245002D01*
X726201D01*
G01X723721Y238960D02*
X720001D01*
G01X747901Y245002D02*
Y232502D01*
G01X744336Y245002D02*
X751466D01*
G01X760301Y232502D02*
X759061Y232710D01*
X757976Y233543D01*
X757046Y234794D01*
X756426Y236252D01*
X756116Y237919D01*
Y239585D01*
X756426Y241252D01*
X757046Y242710D01*
X757976Y243960D01*
X759061Y244794D01*
X760301Y245002D01*
X761541Y244794D01*
X762626Y243960D01*
X763556Y242710D01*
X764176Y241252D01*
X764486Y239585D01*
Y237919D01*
X764176Y236252D01*
X763556Y234794D01*
X762626Y233543D01*
X761541Y232710D01*
X760301Y232502D01*
G01X769601Y245002D02*
Y232502D01*
X775801D01*
G01X788201D02*
X782001D01*
Y245002D01*
X788201D01*
G01X785721Y238960D02*
X782001D01*
G01X794401Y232502D02*
Y245002D01*
X798276D01*
X799516Y244377D01*
X800291Y243544D01*
X800601Y241877D01*
X800291Y240210D01*
X799361Y239169D01*
X798276Y238544D01*
X794401D01*
G01X798276D02*
X800601Y232502D01*
G01X806026D02*
X809901Y245002D01*
X813776Y232502D01*
G01X812381Y236877D02*
X807421D01*
G01X818736Y232502D02*
Y245002D01*
X825866Y232502D01*
Y245002D01*
G01X838111Y243960D02*
X837181Y244585D01*
X836096Y245002D01*
X834856D01*
X833461Y244377D01*
X832376Y243335D01*
X831601Y242085D01*
X830981Y240002D01*
X830826Y238127D01*
X831136Y236252D01*
X831601Y235002D01*
X832531Y233752D01*
X833616Y232919D01*
X834701Y232502D01*
X835786D01*
X836871Y232919D01*
X837801Y233543D01*
X838576Y234377D01*
G01X850201Y232502D02*
X844001D01*
Y245002D01*
X850201D01*
G01X847721Y238960D02*
X844001D01*
G01X676501Y224502D02*
X856501D01*
G01X676501Y222502D02*
X856501D01*
G01X796501Y-524998D02*
X1641501D01*
Y-199998D01*
G01X791000Y82500D02*
Y7500D01*
G01X1641501Y1000002D02*
Y1075002D01*
X796501D01*
G01X821501Y-524998D02*
Y-224998D01*
X1641501D01*
G01X821501Y-499998D02*
X1641501D01*
G01X821501Y-424998D02*
X1641501D01*
G01X1191501Y-324998D02*
X821501D01*
G01Y-217498D02*
Y-197498D01*
X827501D01*
X829501Y-198498D01*
X831001Y-200831D01*
X831501Y-203498D01*
X831001Y-206165D01*
X829751Y-208165D01*
X827501Y-209165D01*
X821501D01*
G01X841501Y-217498D02*
Y-197498D01*
X847751D01*
X849751Y-198498D01*
X851001Y-199831D01*
X851501Y-202498D01*
X851001Y-205165D01*
X849501Y-206831D01*
X847751Y-207832D01*
X841501D01*
G01X847751D02*
X851501Y-217498D01*
G01X863501Y-197498D02*
X869501D01*
G01X866501D02*
Y-217498D01*
G01X863501D02*
X869501D01*
G01X880001D02*
Y-197498D01*
X886501Y-214165D01*
X893001Y-197498D01*
Y-217498D01*
G01X900251D02*
X906501Y-197498D01*
X912751Y-217498D01*
G01X910501Y-210498D02*
X902501D01*
G01X921501Y-217498D02*
Y-197498D01*
X927751D01*
X929751Y-198498D01*
X931001Y-199831D01*
X931501Y-202498D01*
X931001Y-205165D01*
X929501Y-206831D01*
X927751Y-207832D01*
X921501D01*
G01X927751D02*
X931501Y-217498D01*
G01X946501D02*
Y-208498D01*
X941501Y-197498D01*
G01X951501D02*
X946501Y-208498D01*
G01X981251Y-214832D02*
X983251Y-216498D01*
X985501Y-217498D01*
X987501D01*
X989501Y-216498D01*
X991001Y-214832D01*
X991751Y-212498D01*
X991251Y-210165D01*
X990001Y-208165D01*
X987751Y-206831D01*
X984751Y-206165D01*
X983001Y-204832D01*
X982251Y-202498D01*
X982751Y-200165D01*
X984001Y-198498D01*
X985751Y-197498D01*
X987501D01*
X989251Y-198165D01*
X990751Y-199831D01*
G01X1003501Y-197498D02*
X1009501D01*
G01X1006501D02*
Y-217498D01*
G01X1003501D02*
X1009501D01*
G01X1021001D02*
Y-197498D01*
X1026001D01*
X1028001Y-198498D01*
X1029501Y-199831D01*
X1030751Y-201831D01*
X1031751Y-204165D01*
X1032001Y-207498D01*
X1031751Y-210832D01*
X1030751Y-213165D01*
X1029501Y-215165D01*
X1028001Y-216498D01*
X1026001Y-217498D01*
X1021001D01*
G01X1051501D02*
X1041501D01*
Y-197498D01*
X1051501D01*
G01X1047501Y-207164D02*
X1041501D01*
G01X820140Y16250D02*
X821070Y14791D01*
X822310Y13958D01*
X823705Y13750D01*
X824945Y13958D01*
X826185Y15000D01*
X826960Y16250D01*
X827115Y17500D01*
X826805Y18958D01*
X825720Y20000D01*
X824635Y20417D01*
X823240D01*
G01X824635D02*
X825565Y21042D01*
X826340Y22083D01*
X826650Y23333D01*
X826340Y24583D01*
X825565Y25625D01*
X824170Y26250D01*
X822775Y26042D01*
X821380Y25208D01*
G01X835950Y26250D02*
X834710Y25833D01*
X833780Y24792D01*
X833160Y23542D01*
X832695Y21875D01*
X832540Y20000D01*
X832695Y18125D01*
X833160Y16458D01*
X833780Y15208D01*
X834710Y14167D01*
X835950Y13750D01*
X837190Y14167D01*
X838120Y15208D01*
X838740Y16458D01*
X839205Y18125D01*
X839360Y20000D01*
X839205Y21875D01*
X838740Y23542D01*
X838120Y24792D01*
X837190Y25833D01*
X835950Y26250D01*
G01X823240Y38750D02*
X823550Y41458D01*
X824015Y43750D01*
X824635Y45833D01*
X825410Y48125D01*
X826650Y51250D01*
X820450D01*
G01X833005Y43958D02*
X834090Y45417D01*
X835020Y46250D01*
X836260Y46667D01*
X837345Y46250D01*
X838120Y45417D01*
X838740Y44167D01*
X838895Y42708D01*
X838740Y41458D01*
X838120Y40208D01*
X837190Y39167D01*
X836105Y38750D01*
X834865Y39167D01*
X833780Y40416D01*
X833160Y42292D01*
X833005Y44375D01*
X833315Y47083D01*
X833780Y48542D01*
X834555Y50000D01*
X835640Y51042D01*
X836725Y51250D01*
X837810Y50833D01*
X838585Y49792D01*
G01X817350Y63750D02*
X816110Y63958D01*
X815025Y64791D01*
X814095Y66042D01*
X813475Y67500D01*
X813165Y69167D01*
Y70833D01*
X813475Y72500D01*
X814095Y73958D01*
X815025Y75208D01*
X816110Y76042D01*
X817350Y76250D01*
X818590Y76042D01*
X819675Y75208D01*
X820605Y73958D01*
X821225Y72500D01*
X821535Y70833D01*
Y69167D01*
X821225Y67500D01*
X820605Y66042D01*
X819675Y64791D01*
X818590Y63958D01*
X817350Y63750D01*
G01X818590Y67083D02*
X820450Y63750D01*
G01X829750Y76250D02*
Y63750D01*
G01X826185Y76250D02*
X833315D01*
G01X842150Y63750D02*
Y69375D01*
X839050Y76250D01*
G01X845250D02*
X842150Y69375D01*
G01X1641501Y981002D02*
X821501D01*
G01Y1056002D02*
Y981002D01*
G01X1641501Y1000002D02*
X821501D01*
G01Y1075002D02*
Y1000002D01*
G01X1641501Y1025002D02*
X821501D01*
G01X1641501Y1050002D02*
X821501D01*
G01X839801Y-517498D02*
Y-509498D01*
X841801D01*
X842601Y-509898D01*
X843201Y-510431D01*
X843701Y-511231D01*
X844101Y-512165D01*
X844201Y-513498D01*
X844101Y-514831D01*
X843701Y-515765D01*
X843201Y-516565D01*
X842601Y-517098D01*
X841801Y-517498D01*
X839801D01*
G01X850001D02*
X849201Y-517365D01*
X848501Y-516831D01*
X847901Y-516031D01*
X847501Y-515098D01*
X847301Y-514031D01*
Y-512965D01*
X847501Y-511898D01*
X847901Y-510965D01*
X848501Y-510165D01*
X849201Y-509631D01*
X850001Y-509498D01*
X850801Y-509631D01*
X851501Y-510165D01*
X852101Y-510965D01*
X852501Y-511898D01*
X852701Y-512965D01*
Y-514031D01*
X852501Y-515098D01*
X852101Y-516031D01*
X851501Y-516831D01*
X850801Y-517365D01*
X850001Y-517498D01*
G01X863701D02*
Y-509498D01*
X868301Y-517498D01*
Y-509498D01*
G01X874001Y-517498D02*
X873201Y-517365D01*
X872501Y-516831D01*
X871901Y-516031D01*
X871501Y-515098D01*
X871301Y-514031D01*
Y-512965D01*
X871501Y-511898D01*
X871901Y-510965D01*
X872501Y-510165D01*
X873201Y-509631D01*
X874001Y-509498D01*
X874801Y-509631D01*
X875501Y-510165D01*
X876101Y-510965D01*
X876501Y-511898D01*
X876701Y-512965D01*
Y-514031D01*
X876501Y-515098D01*
X876101Y-516031D01*
X875501Y-516831D01*
X874801Y-517365D01*
X874001Y-517498D01*
G01X882001Y-509498D02*
Y-517498D01*
G01X879701Y-509498D02*
X884301D01*
G01X895901Y-516432D02*
X896701Y-517098D01*
X897601Y-517498D01*
X898401D01*
X899201Y-517098D01*
X899801Y-516432D01*
X900101Y-515498D01*
X899901Y-514565D01*
X899401Y-513765D01*
X898501Y-513231D01*
X897301Y-512965D01*
X896601Y-512431D01*
X896301Y-511498D01*
X896501Y-510565D01*
X897001Y-509898D01*
X897701Y-509498D01*
X898401D01*
X899101Y-509765D01*
X899701Y-510431D01*
G01X908201Y-510165D02*
X907601Y-509765D01*
X906901Y-509498D01*
X906101D01*
X905201Y-509898D01*
X904501Y-510565D01*
X904001Y-511365D01*
X903601Y-512698D01*
X903501Y-513898D01*
X903701Y-515098D01*
X904001Y-515898D01*
X904601Y-516698D01*
X905301Y-517231D01*
X906001Y-517498D01*
X906701D01*
X907401Y-517231D01*
X908001Y-516831D01*
X908501Y-516298D01*
G01X911501Y-517498D02*
X914001Y-509498D01*
X916501Y-517498D01*
G01X915601Y-514698D02*
X912401D01*
G01X920001Y-509498D02*
Y-517498D01*
X924001D01*
G01X932001D02*
X928001D01*
Y-509498D01*
X932001D01*
G01X930401Y-513365D02*
X928001D01*
G01X943801Y-517498D02*
Y-509498D01*
X945801D01*
X946601Y-509898D01*
X947201Y-510431D01*
X947701Y-511231D01*
X948101Y-512165D01*
X948201Y-513498D01*
X948101Y-514831D01*
X947701Y-515765D01*
X947201Y-516565D01*
X946601Y-517098D01*
X945801Y-517498D01*
X943801D01*
G01X951001Y-509498D02*
X952401Y-517498D01*
X954001Y-509498D01*
X955601Y-517498D01*
X957001Y-509498D01*
G01X962601Y-513498D02*
X964601D01*
Y-515898D01*
X964001Y-516698D01*
X963301Y-517231D01*
X962301Y-517498D01*
X961301Y-517231D01*
X960601Y-516698D01*
X960001Y-515898D01*
X959601Y-514965D01*
X959401Y-513898D01*
Y-512965D01*
X959601Y-512165D01*
X960001Y-511231D01*
X960601Y-510431D01*
X961201Y-509898D01*
X962001Y-509498D01*
X962701D01*
X963501Y-509765D01*
X964101Y-510298D01*
G01X830101Y-439998D02*
Y-431998D01*
X833901D01*
G01X832501Y-435865D02*
X830101D01*
G01X838801Y-431998D02*
X841201D01*
G01X840001D02*
Y-439998D01*
G01X838801D02*
X841201D01*
G01X845701D02*
Y-431998D01*
X850301Y-439998D01*
Y-431998D01*
G01X854801D02*
X857201D01*
G01X856001D02*
Y-439998D01*
G01X854801D02*
X857201D01*
G01X861901Y-438932D02*
X862701Y-439598D01*
X863601Y-439998D01*
X864401D01*
X865201Y-439598D01*
X865801Y-438932D01*
X866101Y-437998D01*
X865901Y-437065D01*
X865401Y-436265D01*
X864501Y-435731D01*
X863301Y-435465D01*
X862601Y-434931D01*
X862301Y-433998D01*
X862501Y-433065D01*
X863001Y-432398D01*
X863701Y-431998D01*
X864401D01*
X865101Y-432265D01*
X865701Y-432931D01*
G01X869901Y-439998D02*
Y-431998D01*
G01X874101D02*
Y-439998D01*
G01Y-435998D02*
X869901D01*
G01X829401Y-339998D02*
Y-331998D01*
X832001Y-338665D01*
X834601Y-331998D01*
Y-339998D01*
G01X837501D02*
X840001Y-331998D01*
X842501Y-339998D01*
G01X841601Y-337198D02*
X838401D01*
G01X848001Y-331998D02*
Y-339998D01*
G01X845701Y-331998D02*
X850301D01*
G01X858001Y-339998D02*
X854001D01*
Y-331998D01*
X858001D01*
G01X856401Y-335865D02*
X854001D01*
G01X862001Y-339998D02*
Y-331998D01*
X864501D01*
X865301Y-332398D01*
X865801Y-332931D01*
X866001Y-333998D01*
X865801Y-335065D01*
X865201Y-335731D01*
X864501Y-336131D01*
X862001D01*
G01X864501D02*
X866001Y-339998D01*
G01X870801Y-331998D02*
X873201D01*
G01X872001D02*
Y-339998D01*
G01X870801D02*
X873201D01*
G01X877501D02*
X880001Y-331998D01*
X882501Y-339998D01*
G01X881601Y-337198D02*
X878401D01*
G01X886001Y-331998D02*
Y-339998D01*
X890001D01*
G01X833401Y-317665D02*
X833274Y-317581D01*
Y-317415D01*
X833401Y-317331D01*
X833528Y-317415D01*
Y-317581D01*
X833401Y-317665D01*
G01X837171Y-317498D02*
X839831Y-312498D01*
G01X837171D02*
X839831Y-317498D01*
G01X842271D02*
X844931Y-312498D01*
G01X842271D02*
X844931Y-317498D01*
G01X847371D02*
X850031Y-312498D01*
G01X847371D02*
X850031Y-317498D01*
G01X852471D02*
X855131Y-312498D01*
G01X852471D02*
X855131Y-317498D01*
G01X863304Y-315831D02*
X864824D01*
G01X864001Y-314748D02*
Y-316915D01*
G01X868278Y-315831D02*
X869924D01*
G01X874201Y-317665D02*
X874074Y-317581D01*
Y-317415D01*
X874201Y-317331D01*
X874328Y-317415D01*
Y-317581D01*
X874201Y-317665D01*
G01X879301Y-312498D02*
X878794Y-312665D01*
X878414Y-313081D01*
X878161Y-313581D01*
X877971Y-314248D01*
X877908Y-314998D01*
X877971Y-315748D01*
X878161Y-316415D01*
X878414Y-316915D01*
X878794Y-317331D01*
X879301Y-317498D01*
X879808Y-317331D01*
X880188Y-316915D01*
X880441Y-316415D01*
X880631Y-315748D01*
X880694Y-314998D01*
X880631Y-314248D01*
X880441Y-313581D01*
X880188Y-313081D01*
X879808Y-312665D01*
X879301Y-312498D01*
G01X884401D02*
X883894Y-312665D01*
X883514Y-313081D01*
X883261Y-313581D01*
X883071Y-314248D01*
X883008Y-314998D01*
X883071Y-315748D01*
X883261Y-316415D01*
X883514Y-316915D01*
X883894Y-317331D01*
X884401Y-317498D01*
X884908Y-317331D01*
X885288Y-316915D01*
X885541Y-316415D01*
X885731Y-315748D01*
X885794Y-314998D01*
X885731Y-314248D01*
X885541Y-313581D01*
X885288Y-313081D01*
X884908Y-312665D01*
X884401Y-312498D01*
G01X888108Y-316748D02*
X888488Y-317165D01*
X888931Y-317415D01*
X889501Y-317498D01*
X890071Y-317331D01*
X890514Y-316998D01*
X890831Y-316415D01*
X890894Y-315748D01*
X890768Y-315081D01*
X890451Y-314665D01*
X890008Y-314331D01*
X889564Y-314248D01*
X889121Y-314331D01*
X888551Y-314665D01*
X888741Y-312498D01*
X890451D01*
G01X894601D02*
X894094Y-312665D01*
X893714Y-313081D01*
X893461Y-313581D01*
X893271Y-314248D01*
X893208Y-314998D01*
X893271Y-315748D01*
X893461Y-316415D01*
X893714Y-316915D01*
X894094Y-317331D01*
X894601Y-317498D01*
X895108Y-317331D01*
X895488Y-316915D01*
X895741Y-316415D01*
X895931Y-315748D01*
X895994Y-314998D01*
X895931Y-314248D01*
X895741Y-313581D01*
X895488Y-313081D01*
X895108Y-312665D01*
X894601Y-312498D01*
G01X833401Y-297665D02*
X833274Y-297581D01*
Y-297415D01*
X833401Y-297331D01*
X833528Y-297415D01*
Y-297581D01*
X833401Y-297665D01*
G01X837171Y-297498D02*
X839831Y-292498D01*
G01X837171D02*
X839831Y-297498D01*
G01X842271D02*
X844931Y-292498D01*
G01X842271D02*
X844931Y-297498D01*
G01X853104Y-295831D02*
X854624D01*
G01X853801Y-294748D02*
Y-296915D01*
G01X858078Y-295831D02*
X859724D01*
G01X864001Y-297665D02*
X863874Y-297581D01*
Y-297415D01*
X864001Y-297331D01*
X864128Y-297415D01*
Y-297581D01*
X864001Y-297665D01*
G01X869101Y-292498D02*
X868594Y-292665D01*
X868214Y-293081D01*
X867961Y-293581D01*
X867771Y-294248D01*
X867708Y-294998D01*
X867771Y-295748D01*
X867961Y-296415D01*
X868214Y-296915D01*
X868594Y-297331D01*
X869101Y-297498D01*
X869608Y-297331D01*
X869988Y-296915D01*
X870241Y-296415D01*
X870431Y-295748D01*
X870494Y-294998D01*
X870431Y-294248D01*
X870241Y-293581D01*
X869988Y-293081D01*
X869608Y-292665D01*
X869101Y-292498D01*
G01X874201Y-297498D02*
Y-292498D01*
X873441Y-293498D01*
G01Y-297498D02*
X874961D01*
G01X879301Y-292498D02*
X878794Y-292665D01*
X878414Y-293081D01*
X878161Y-293581D01*
X877971Y-294248D01*
X877908Y-294998D01*
X877971Y-295748D01*
X878161Y-296415D01*
X878414Y-296915D01*
X878794Y-297331D01*
X879301Y-297498D01*
X879808Y-297331D01*
X880188Y-296915D01*
X880441Y-296415D01*
X880631Y-295748D01*
X880694Y-294998D01*
X880631Y-294248D01*
X880441Y-293581D01*
X880188Y-293081D01*
X879808Y-292665D01*
X879301Y-292498D01*
G01X833401Y-307665D02*
X833274Y-307581D01*
Y-307415D01*
X833401Y-307331D01*
X833528Y-307415D01*
Y-307581D01*
X833401Y-307665D01*
G01X837171Y-307498D02*
X839831Y-302498D01*
G01X837171D02*
X839831Y-307498D01*
G01X842271D02*
X844931Y-302498D01*
G01X842271D02*
X844931Y-307498D01*
G01X847371D02*
X850031Y-302498D01*
G01X847371D02*
X850031Y-307498D01*
G01X858204Y-305831D02*
X859724D01*
G01X858901Y-304748D02*
Y-306915D01*
G01X863178Y-305831D02*
X864824D01*
G01X869101Y-307665D02*
X868974Y-307581D01*
Y-307415D01*
X869101Y-307331D01*
X869228Y-307415D01*
Y-307581D01*
X869101Y-307665D01*
G01X874201Y-302498D02*
X873694Y-302665D01*
X873314Y-303081D01*
X873061Y-303581D01*
X872871Y-304248D01*
X872808Y-304998D01*
X872871Y-305748D01*
X873061Y-306415D01*
X873314Y-306915D01*
X873694Y-307331D01*
X874201Y-307498D01*
X874708Y-307331D01*
X875088Y-306915D01*
X875341Y-306415D01*
X875531Y-305748D01*
X875594Y-304998D01*
X875531Y-304248D01*
X875341Y-303581D01*
X875088Y-303081D01*
X874708Y-302665D01*
X874201Y-302498D01*
G01X879301D02*
X878794Y-302665D01*
X878414Y-303081D01*
X878161Y-303581D01*
X877971Y-304248D01*
X877908Y-304998D01*
X877971Y-305748D01*
X878161Y-306415D01*
X878414Y-306915D01*
X878794Y-307331D01*
X879301Y-307498D01*
X879808Y-307331D01*
X880188Y-306915D01*
X880441Y-306415D01*
X880631Y-305748D01*
X880694Y-304998D01*
X880631Y-304248D01*
X880441Y-303581D01*
X880188Y-303081D01*
X879808Y-302665D01*
X879301Y-302498D01*
G01X883008Y-306748D02*
X883388Y-307165D01*
X883831Y-307415D01*
X884401Y-307498D01*
X884971Y-307331D01*
X885414Y-306998D01*
X885731Y-306415D01*
X885794Y-305748D01*
X885668Y-305081D01*
X885351Y-304665D01*
X884908Y-304331D01*
X884464Y-304248D01*
X884021Y-304331D01*
X883451Y-304665D01*
X883641Y-302498D01*
X885351D01*
G01X832008Y-284998D02*
Y-279998D01*
X833274D01*
X833781Y-280248D01*
X834161Y-280581D01*
X834478Y-281081D01*
X834731Y-281665D01*
X834794Y-282498D01*
X834731Y-283331D01*
X834478Y-283915D01*
X834161Y-284415D01*
X833781Y-284748D01*
X833274Y-284998D01*
X832008D01*
G01X839768D02*
X837234D01*
Y-279998D01*
X839768D01*
G01X838754Y-282415D02*
X837234D01*
G01X844994Y-280415D02*
X844614Y-280165D01*
X844171Y-279998D01*
X843664D01*
X843094Y-280248D01*
X842651Y-280665D01*
X842334Y-281165D01*
X842081Y-281998D01*
X842018Y-282748D01*
X842144Y-283498D01*
X842334Y-283998D01*
X842714Y-284498D01*
X843158Y-284831D01*
X843601Y-284998D01*
X844044D01*
X844488Y-284831D01*
X844868Y-284581D01*
X845184Y-284248D01*
G01X847941Y-279998D02*
X849461D01*
G01X848701D02*
Y-284998D01*
G01X847941D02*
X849461D01*
G01X852154D02*
Y-279998D01*
X853801Y-284165D01*
X855448Y-279998D01*
Y-284998D01*
G01X857318D02*
X858901Y-279998D01*
X860484Y-284998D01*
G01X859914Y-283248D02*
X857888D01*
G01X862734Y-279998D02*
Y-284998D01*
X865268D01*
G01X867771Y-284331D02*
X868278Y-284748D01*
X868848Y-284998D01*
X869354D01*
X869861Y-284748D01*
X870241Y-284331D01*
X870431Y-283748D01*
X870304Y-283165D01*
X869988Y-282665D01*
X869418Y-282331D01*
X868658Y-282165D01*
X868214Y-281831D01*
X868024Y-281248D01*
X868151Y-280665D01*
X868468Y-280248D01*
X868911Y-279998D01*
X869354D01*
X869798Y-280165D01*
X870178Y-280581D01*
G01X834628Y-254998D02*
Y-248698D01*
X836194D01*
X836821Y-249013D01*
X837291Y-249433D01*
X837683Y-250063D01*
X837996Y-250798D01*
X838074Y-251848D01*
X837996Y-252898D01*
X837683Y-253633D01*
X837291Y-254263D01*
X836821Y-254683D01*
X836194Y-254998D01*
X834628D01*
G01X841711Y-248698D02*
X843591D01*
G01X842651D02*
Y-254998D01*
G01X841711D02*
X843591D01*
G01X846914D02*
Y-248698D01*
X848951Y-253948D01*
X850988Y-248698D01*
Y-254998D01*
G01X856818D02*
X853684D01*
Y-248698D01*
X856818D01*
G01X855564Y-251743D02*
X853684D01*
G01X859749Y-254998D02*
Y-248698D01*
X863353Y-254998D01*
Y-248698D01*
G01X866206Y-254158D02*
X866833Y-254683D01*
X867538Y-254998D01*
X868164D01*
X868791Y-254683D01*
X869261Y-254158D01*
X869496Y-253423D01*
X869339Y-252688D01*
X868948Y-252058D01*
X868243Y-251638D01*
X867303Y-251428D01*
X866754Y-251008D01*
X866519Y-250273D01*
X866676Y-249538D01*
X867068Y-249013D01*
X867616Y-248698D01*
X868164D01*
X868713Y-248908D01*
X869183Y-249433D01*
G01X873211Y-248698D02*
X875091D01*
G01X874151D02*
Y-254998D01*
G01X873211D02*
X875091D01*
G01X880451D02*
X879824Y-254893D01*
X879276Y-254473D01*
X878806Y-253843D01*
X878493Y-253108D01*
X878336Y-252268D01*
Y-251428D01*
X878493Y-250588D01*
X878806Y-249853D01*
X879276Y-249223D01*
X879824Y-248803D01*
X880451Y-248698D01*
X881078Y-248803D01*
X881626Y-249223D01*
X882096Y-249853D01*
X882409Y-250588D01*
X882566Y-251428D01*
Y-252268D01*
X882409Y-253108D01*
X882096Y-253843D01*
X881626Y-254473D01*
X881078Y-254893D01*
X880451Y-254998D01*
G01X884949D02*
Y-248698D01*
X888553Y-254998D01*
Y-248698D01*
G01X891406Y-254158D02*
X892033Y-254683D01*
X892738Y-254998D01*
X893364D01*
X893991Y-254683D01*
X894461Y-254158D01*
X894696Y-253423D01*
X894539Y-252688D01*
X894148Y-252058D01*
X893443Y-251638D01*
X892503Y-251428D01*
X891954Y-251008D01*
X891719Y-250273D01*
X891876Y-249538D01*
X892268Y-249013D01*
X892816Y-248698D01*
X893364D01*
X893913Y-248908D01*
X894383Y-249433D01*
G01X903693Y-254998D02*
X905651Y-248698D01*
X907609Y-254998D01*
G01X906904Y-252793D02*
X904398D01*
G01X910384Y-254998D02*
Y-248698D01*
X912343D01*
X912969Y-249013D01*
X913361Y-249433D01*
X913518Y-250273D01*
X913361Y-251113D01*
X912891Y-251638D01*
X912343Y-251953D01*
X910384D01*
G01X912343D02*
X913518Y-254998D01*
G01X919818D02*
X916684D01*
Y-248698D01*
X919818D01*
G01X918564Y-251743D02*
X916684D01*
G01X929911Y-248698D02*
X931791D01*
G01X930851D02*
Y-254998D01*
G01X929911D02*
X931791D01*
G01X935349D02*
Y-248698D01*
X938953Y-254998D01*
Y-248698D01*
G01X948811D02*
X950691D01*
G01X949751D02*
Y-254998D01*
G01X948811D02*
X950691D01*
G01X954249D02*
Y-248698D01*
X957853Y-254998D01*
Y-248698D01*
G01X964074Y-249223D02*
X963604Y-248908D01*
X963056Y-248698D01*
X962429D01*
X961724Y-249013D01*
X961176Y-249538D01*
X960784Y-250168D01*
X960471Y-251218D01*
X960393Y-252163D01*
X960549Y-253108D01*
X960784Y-253738D01*
X961254Y-254368D01*
X961803Y-254788D01*
X962351Y-254998D01*
X962899D01*
X963448Y-254788D01*
X963918Y-254473D01*
X964309Y-254053D01*
G01X967006Y-254998D02*
Y-248698D01*
G01X970296D02*
Y-254998D01*
G01Y-251848D02*
X967006D01*
G01X976518Y-254998D02*
X973384D01*
Y-248698D01*
X976518D01*
G01X975264Y-251743D02*
X973384D01*
G01X979606Y-254158D02*
X980233Y-254683D01*
X980938Y-254998D01*
X981564D01*
X982191Y-254683D01*
X982661Y-254158D01*
X982896Y-253423D01*
X982739Y-252688D01*
X982348Y-252058D01*
X981643Y-251638D01*
X980703Y-251428D01*
X980154Y-251008D01*
X979919Y-250273D01*
X980076Y-249538D01*
X980468Y-249013D01*
X981016Y-248698D01*
X981564D01*
X982113Y-248908D01*
X982583Y-249433D01*
G01X827128Y-236198D02*
Y-240713D01*
X827441Y-241658D01*
X828068Y-242288D01*
X828851Y-242498D01*
X829634Y-242288D01*
X830261Y-241658D01*
X830574Y-240713D01*
Y-236198D01*
G01X833349Y-242498D02*
Y-236198D01*
X836953Y-242498D01*
Y-236198D01*
G01X839884D02*
Y-242498D01*
X843018D01*
G01X849318D02*
X846184D01*
Y-236198D01*
X849318D01*
G01X848064Y-239243D02*
X846184D01*
G01X852406Y-241658D02*
X853033Y-242183D01*
X853738Y-242498D01*
X854364D01*
X854991Y-242183D01*
X855461Y-241658D01*
X855696Y-240923D01*
X855539Y-240188D01*
X855148Y-239558D01*
X854443Y-239138D01*
X853503Y-238928D01*
X852954Y-238508D01*
X852719Y-237773D01*
X852876Y-237038D01*
X853268Y-236513D01*
X853816Y-236198D01*
X854364D01*
X854913Y-236408D01*
X855383Y-236933D01*
G01X858706Y-241658D02*
X859333Y-242183D01*
X860038Y-242498D01*
X860664D01*
X861291Y-242183D01*
X861761Y-241658D01*
X861996Y-240923D01*
X861839Y-240188D01*
X861448Y-239558D01*
X860743Y-239138D01*
X859803Y-238928D01*
X859254Y-238508D01*
X859019Y-237773D01*
X859176Y-237038D01*
X859568Y-236513D01*
X860116Y-236198D01*
X860664D01*
X861213Y-236408D01*
X861683Y-236933D01*
G01X872951Y-242498D02*
X872324Y-242393D01*
X871776Y-241973D01*
X871306Y-241343D01*
X870993Y-240608D01*
X870836Y-239768D01*
Y-238928D01*
X870993Y-238088D01*
X871306Y-237353D01*
X871776Y-236723D01*
X872324Y-236303D01*
X872951Y-236198D01*
X873578Y-236303D01*
X874126Y-236723D01*
X874596Y-237353D01*
X874909Y-238088D01*
X875066Y-238928D01*
Y-239768D01*
X874909Y-240608D01*
X874596Y-241343D01*
X874126Y-241973D01*
X873578Y-242393D01*
X872951Y-242498D01*
G01X879251Y-236198D02*
Y-242498D01*
G01X877449Y-236198D02*
X881053D01*
G01X883906Y-242498D02*
Y-236198D01*
G01X887196D02*
Y-242498D01*
G01Y-239348D02*
X883906D01*
G01X893418Y-242498D02*
X890284D01*
Y-236198D01*
X893418D01*
G01X892164Y-239243D02*
X890284D01*
G01X896584Y-242498D02*
Y-236198D01*
X898543D01*
X899169Y-236513D01*
X899561Y-236933D01*
X899718Y-237773D01*
X899561Y-238613D01*
X899091Y-239138D01*
X898543Y-239453D01*
X896584D01*
G01X898543D02*
X899718Y-242498D01*
G01X902101Y-236198D02*
X903198Y-242498D01*
X904451Y-236198D01*
X905704Y-242498D01*
X906801Y-236198D01*
G01X909811D02*
X911691D01*
G01X910751D02*
Y-242498D01*
G01X909811D02*
X911691D01*
G01X915406Y-241658D02*
X916033Y-242183D01*
X916738Y-242498D01*
X917364D01*
X917991Y-242183D01*
X918461Y-241658D01*
X918696Y-240923D01*
X918539Y-240188D01*
X918148Y-239558D01*
X917443Y-239138D01*
X916503Y-238928D01*
X915954Y-238508D01*
X915719Y-237773D01*
X915876Y-237038D01*
X916268Y-236513D01*
X916816Y-236198D01*
X917364D01*
X917913Y-236408D01*
X918383Y-236933D01*
G01X924918Y-242498D02*
X921784D01*
Y-236198D01*
X924918D01*
G01X923664Y-239243D02*
X921784D01*
G01X934306Y-241658D02*
X934933Y-242183D01*
X935638Y-242498D01*
X936264D01*
X936891Y-242183D01*
X937361Y-241658D01*
X937596Y-240923D01*
X937439Y-240188D01*
X937048Y-239558D01*
X936343Y-239138D01*
X935403Y-238928D01*
X934854Y-238508D01*
X934619Y-237773D01*
X934776Y-237038D01*
X935168Y-236513D01*
X935716Y-236198D01*
X936264D01*
X936813Y-236408D01*
X937283Y-236933D01*
G01X940684Y-242498D02*
Y-236198D01*
X942564D01*
X943191Y-236513D01*
X943661Y-237248D01*
X943818Y-238088D01*
X943661Y-238928D01*
X943269Y-239558D01*
X942564Y-239873D01*
X940684D01*
G01X950118Y-242498D02*
X946984D01*
Y-236198D01*
X950118D01*
G01X948864Y-239243D02*
X946984D01*
G01X956574Y-236723D02*
X956104Y-236408D01*
X955556Y-236198D01*
X954929D01*
X954224Y-236513D01*
X953676Y-237038D01*
X953284Y-237668D01*
X952971Y-238718D01*
X952893Y-239663D01*
X953049Y-240608D01*
X953284Y-241238D01*
X953754Y-241868D01*
X954303Y-242288D01*
X954851Y-242498D01*
X955399D01*
X955948Y-242288D01*
X956418Y-241973D01*
X956809Y-241553D01*
G01X960211Y-236198D02*
X962091D01*
G01X961151D02*
Y-242498D01*
G01X960211D02*
X962091D01*
G01X965963D02*
Y-236198D01*
X968939D01*
G01X967843Y-239243D02*
X965963D01*
G01X972811Y-236198D02*
X974691D01*
G01X973751D02*
Y-242498D01*
G01X972811D02*
X974691D01*
G01X981618D02*
X978484D01*
Y-236198D01*
X981618D01*
G01X980364Y-239243D02*
X978484D01*
G01X984628Y-242498D02*
Y-236198D01*
X986194D01*
X986821Y-236513D01*
X987291Y-236933D01*
X987683Y-237563D01*
X987996Y-238298D01*
X988074Y-239348D01*
X987996Y-240398D01*
X987683Y-241133D01*
X987291Y-241763D01*
X986821Y-242183D01*
X986194Y-242498D01*
X984628D01*
G01X847501Y993835D02*
X848001Y994335D01*
X848376Y995168D01*
X848626Y996335D01*
X848376Y997335D01*
X847876Y998002D01*
X847001Y998502D01*
X843626D01*
Y988502D01*
X847751D01*
X848626Y989169D01*
X849126Y990169D01*
X849376Y991335D01*
X849126Y992502D01*
X848376Y993502D01*
X847501Y993835D01*
X843626D01*
G01X843376Y1007502D02*
X846501Y1017502D01*
X849626Y1007502D01*
G01X848501Y1011002D02*
X844501D01*
G01X834201Y1032502D02*
Y1042502D01*
X837326D01*
X838326Y1042002D01*
X838951Y1041335D01*
X839201Y1040002D01*
X838951Y1038669D01*
X838201Y1037835D01*
X837326Y1037335D01*
X834201D01*
G01X837326D02*
X839201Y1032502D01*
G01X849001D02*
X844001D01*
Y1042502D01*
X849001D01*
G01X847001Y1037669D02*
X844001D01*
G01X853176Y1042502D02*
X856301Y1032502D01*
X859426Y1042502D01*
G01X860516Y-539165D02*
X862406Y-536665D01*
X864611Y-535415D01*
X867131Y-534998D01*
X870281Y-535831D01*
X872486Y-537915D01*
X873116Y-540414D01*
X872801Y-542915D01*
X871541Y-544998D01*
X865241Y-549165D01*
X862406Y-552081D01*
X860516Y-556249D01*
X859886Y-559998D01*
X873116D01*
G01X860516Y1105835D02*
X862406Y1108335D01*
X864611Y1109585D01*
X867131Y1110002D01*
X870281Y1109169D01*
X872486Y1107085D01*
X873116Y1104586D01*
X872801Y1102085D01*
X871541Y1100002D01*
X865241Y1095835D01*
X862406Y1092919D01*
X860516Y1088751D01*
X859886Y1085002D01*
X873116D01*
G01X883401Y-264998D02*
Y-269998D01*
G01X881944Y-264998D02*
X884858D01*
G01X888501Y-269998D02*
X887994Y-269915D01*
X887551Y-269581D01*
X887171Y-269081D01*
X886918Y-268498D01*
X886791Y-267831D01*
Y-267165D01*
X886918Y-266498D01*
X887171Y-265915D01*
X887551Y-265415D01*
X887994Y-265081D01*
X888501Y-264998D01*
X889008Y-265081D01*
X889451Y-265415D01*
X889831Y-265915D01*
X890084Y-266498D01*
X890211Y-267165D01*
Y-267831D01*
X890084Y-268498D01*
X889831Y-269081D01*
X889451Y-269581D01*
X889008Y-269915D01*
X888501Y-269998D01*
G01X892334Y-264998D02*
Y-269998D01*
X894868D01*
G01X899968D02*
X897434D01*
Y-264998D01*
X899968D01*
G01X898954Y-267415D02*
X897434D01*
G01X902534Y-269998D02*
Y-264998D01*
X904118D01*
X904624Y-265248D01*
X904941Y-265581D01*
X905068Y-266248D01*
X904941Y-266915D01*
X904561Y-267331D01*
X904118Y-267581D01*
X902534D01*
G01X904118D02*
X905068Y-269998D01*
G01X907318D02*
X908901Y-264998D01*
X910484Y-269998D01*
G01X909914Y-268248D02*
X907888D01*
G01X912544Y-269998D02*
Y-264998D01*
X915458Y-269998D01*
Y-264998D01*
G01X920494Y-265415D02*
X920114Y-265165D01*
X919671Y-264998D01*
X919164D01*
X918594Y-265248D01*
X918151Y-265665D01*
X917834Y-266165D01*
X917581Y-266998D01*
X917518Y-267748D01*
X917644Y-268498D01*
X917834Y-268998D01*
X918214Y-269498D01*
X918658Y-269831D01*
X919101Y-269998D01*
X919544D01*
X919988Y-269831D01*
X920368Y-269581D01*
X920684Y-269248D01*
G01X925468Y-269998D02*
X922934D01*
Y-264998D01*
X925468D01*
G01X924454Y-267415D02*
X922934D01*
G01X927971Y-269331D02*
X928478Y-269748D01*
X929048Y-269998D01*
X929554D01*
X930061Y-269748D01*
X930441Y-269331D01*
X930631Y-268748D01*
X930504Y-268165D01*
X930188Y-267665D01*
X929618Y-267331D01*
X928858Y-267165D01*
X928414Y-266831D01*
X928224Y-266248D01*
X928351Y-265665D01*
X928668Y-265248D01*
X929111Y-264998D01*
X929554D01*
X929998Y-265165D01*
X930378Y-265581D01*
G01X868500Y82500D02*
Y7500D01*
G01X883051Y39169D02*
Y49169D01*
X885551D01*
X886551Y48669D01*
X887301Y48002D01*
X887926Y47002D01*
X888426Y45835D01*
X888551Y44169D01*
X888426Y42502D01*
X887926Y41336D01*
X887301Y40335D01*
X886551Y39669D01*
X885551Y39169D01*
X883051D01*
G01X894101Y49169D02*
X897101D01*
G01X895601D02*
Y39169D01*
G01X894101D02*
X897101D01*
G01X902276D02*
X905401Y49169D01*
X908526Y39169D01*
G01X907401Y42669D02*
X903401D01*
G01X921751Y39169D02*
Y49169D01*
X925001Y40836D01*
X928251Y49169D01*
Y39169D01*
G01X931676D02*
X934801Y49169D01*
X937926Y39169D01*
G01X936801Y42669D02*
X932801D01*
G01X941976Y39169D02*
X947226Y49169D01*
G01X941976D02*
X947226Y39169D01*
G01X952151Y38836D02*
X956651Y49169D01*
G01X961576Y40502D02*
X962576Y39669D01*
X963701Y39169D01*
X964701D01*
X965701Y39669D01*
X966451Y40502D01*
X966826Y41669D01*
X966576Y42835D01*
X965951Y43836D01*
X964826Y44502D01*
X963326Y44836D01*
X962451Y45502D01*
X962076Y46669D01*
X962326Y47836D01*
X962951Y48669D01*
X963826Y49169D01*
X964701D01*
X965576Y48836D01*
X966326Y48002D01*
G01X976501Y39169D02*
X971501D01*
Y49169D01*
X976501D01*
G01X974501Y44336D02*
X971501D01*
G01X986301Y39169D02*
X981301D01*
Y49169D01*
X986301D01*
G01X984301Y44336D02*
X981301D01*
G01X1000526Y39169D02*
Y49169D01*
X1006276Y39169D01*
Y49169D01*
G01X1013201Y39169D02*
X1012201Y39336D01*
X1011326Y40002D01*
X1010576Y41002D01*
X1010076Y42169D01*
X1009826Y43502D01*
Y44836D01*
X1010076Y46169D01*
X1010576Y47336D01*
X1011326Y48336D01*
X1012201Y49002D01*
X1013201Y49169D01*
X1014201Y49002D01*
X1015076Y48336D01*
X1015826Y47336D01*
X1016326Y46169D01*
X1016576Y44836D01*
Y43502D01*
X1016326Y42169D01*
X1015826Y41002D01*
X1015076Y40002D01*
X1014201Y39336D01*
X1013201Y39169D01*
G01X1023001Y49169D02*
Y39169D01*
G01X1020126Y49169D02*
X1025876D01*
G01X1035301Y39169D02*
X1030301D01*
Y49169D01*
X1035301D01*
G01X1033301Y44336D02*
X1030301D01*
G01X1050026Y47502D02*
X1050776Y48502D01*
X1051651Y49002D01*
X1052651Y49169D01*
X1053901Y48836D01*
X1054776Y48002D01*
X1055026Y47002D01*
X1054901Y46002D01*
X1054401Y45169D01*
X1051901Y43502D01*
X1050776Y42336D01*
X1050026Y40669D01*
X1049776Y39169D01*
X1055026D01*
G01X1062201Y49169D02*
X1061201Y48836D01*
X1060451Y48002D01*
X1059951Y47002D01*
X1059576Y45669D01*
X1059451Y44169D01*
X1059576Y42669D01*
X1059951Y41336D01*
X1060451Y40335D01*
X1061201Y39502D01*
X1062201Y39169D01*
X1063201Y39502D01*
X1063951Y40335D01*
X1064451Y41336D01*
X1064826Y42669D01*
X1064951Y44169D01*
X1064826Y45669D01*
X1064451Y47002D01*
X1063951Y48002D01*
X1063201Y48836D01*
X1062201Y49169D01*
G01X882450Y76250D02*
Y63750D01*
G01X878885Y76250D02*
X886015D01*
G01X894850Y63750D02*
X893610Y63958D01*
X892525Y64791D01*
X891595Y66042D01*
X890975Y67500D01*
X890665Y69167D01*
Y70833D01*
X890975Y72500D01*
X891595Y73958D01*
X892525Y75208D01*
X893610Y76042D01*
X894850Y76250D01*
X896090Y76042D01*
X897175Y75208D01*
X898105Y73958D01*
X898725Y72500D01*
X899035Y70833D01*
Y69167D01*
X898725Y67500D01*
X898105Y66042D01*
X897175Y64791D01*
X896090Y63958D01*
X894850Y63750D01*
G01X904150Y76250D02*
Y63750D01*
X910350D01*
G01X922750D02*
X916550D01*
Y76250D01*
X922750D01*
G01X920270Y70208D02*
X916550D01*
G01X928950Y63750D02*
Y76250D01*
X932825D01*
X934065Y75625D01*
X934840Y74792D01*
X935150Y73125D01*
X934840Y71458D01*
X933910Y70417D01*
X932825Y69792D01*
X928950D01*
G01X932825D02*
X935150Y63750D01*
G01X940575D02*
X944450Y76250D01*
X948325Y63750D01*
G01X946930Y68125D02*
X941970D01*
G01X953285Y63750D02*
Y76250D01*
X960415Y63750D01*
Y76250D01*
G01X972660Y75208D02*
X971730Y75833D01*
X970645Y76250D01*
X969405D01*
X968010Y75625D01*
X966925Y74583D01*
X966150Y73333D01*
X965530Y71250D01*
X965375Y69375D01*
X965685Y67500D01*
X966150Y66250D01*
X967080Y65000D01*
X968165Y64167D01*
X969250Y63750D01*
X970335D01*
X971420Y64167D01*
X972350Y64791D01*
X973125Y65625D01*
G01X984750Y63750D02*
X978550D01*
Y76250D01*
X984750D01*
G01X982270Y70208D02*
X978550D01*
G01X991260Y63333D02*
X996840Y76250D01*
G01X1002885Y63750D02*
Y76250D01*
X1010015Y63750D01*
Y76250D01*
G01X1018850Y63750D02*
X1017610Y63958D01*
X1016525Y64791D01*
X1015595Y66042D01*
X1014975Y67500D01*
X1014665Y69167D01*
Y70833D01*
X1014975Y72500D01*
X1015595Y73958D01*
X1016525Y75208D01*
X1017610Y76042D01*
X1018850Y76250D01*
X1020090Y76042D01*
X1021175Y75208D01*
X1022105Y73958D01*
X1022725Y72500D01*
X1023035Y70833D01*
Y69167D01*
X1022725Y67500D01*
X1022105Y66042D01*
X1021175Y64791D01*
X1020090Y63958D01*
X1018850Y63750D01*
G01X1031250Y76250D02*
Y63750D01*
G01X1027685Y76250D02*
X1034815D01*
G01X1046750Y63750D02*
X1040550D01*
Y76250D01*
X1046750D01*
G01X1044270Y70208D02*
X1040550D01*
G01X1052795Y65416D02*
X1054035Y64375D01*
X1055430Y63750D01*
X1056670D01*
X1057910Y64375D01*
X1058840Y65416D01*
X1059305Y66875D01*
X1058995Y68333D01*
X1058220Y69583D01*
X1056825Y70417D01*
X1054965Y70833D01*
X1053880Y71667D01*
X1053415Y73125D01*
X1053725Y74583D01*
X1054500Y75625D01*
X1055585Y76250D01*
X1056670D01*
X1057755Y75833D01*
X1058685Y74792D01*
G01X871501Y1031002D02*
Y981002D01*
G01Y1050002D02*
Y1000002D01*
G01X902704Y-295831D02*
X904224D01*
G01X903401Y-294748D02*
Y-296915D01*
G01X907678Y-295831D02*
X909324D01*
G01X913601Y-297498D02*
Y-292498D01*
X912841Y-293498D01*
G01Y-297498D02*
X914361D01*
G01X917561Y-297665D02*
X919841Y-292498D01*
G01X922408Y-296498D02*
X922788Y-297081D01*
X923294Y-297415D01*
X923864Y-297498D01*
X924371Y-297415D01*
X924878Y-296998D01*
X925194Y-296498D01*
X925258Y-295998D01*
X925131Y-295415D01*
X924688Y-294998D01*
X924244Y-294831D01*
X923674D01*
G01X924244D02*
X924624Y-294581D01*
X924941Y-294165D01*
X925068Y-293665D01*
X924941Y-293165D01*
X924624Y-292748D01*
X924054Y-292498D01*
X923484Y-292581D01*
X922914Y-292915D01*
G01X927698Y-293331D02*
X928078Y-292831D01*
X928521Y-292581D01*
X929028Y-292498D01*
X929661Y-292665D01*
X930104Y-293081D01*
X930231Y-293581D01*
X930168Y-294081D01*
X929914Y-294498D01*
X928648Y-295331D01*
X928078Y-295915D01*
X927698Y-296748D01*
X927571Y-297498D01*
X930231D01*
G01X892198Y-284998D02*
Y-279998D01*
X894604D01*
G01X893718Y-282415D02*
X892198D01*
G01X897234Y-284998D02*
Y-279998D01*
X898818D01*
X899324Y-280248D01*
X899641Y-280581D01*
X899768Y-281248D01*
X899641Y-281915D01*
X899261Y-282331D01*
X898818Y-282581D01*
X897234D01*
G01X898818D02*
X899768Y-284998D01*
G01X902018D02*
X903601Y-279998D01*
X905184Y-284998D01*
G01X904614Y-283248D02*
X902588D01*
G01X910094Y-280415D02*
X909714Y-280165D01*
X909271Y-279998D01*
X908764D01*
X908194Y-280248D01*
X907751Y-280665D01*
X907434Y-281165D01*
X907181Y-281998D01*
X907118Y-282748D01*
X907244Y-283498D01*
X907434Y-283998D01*
X907814Y-284498D01*
X908258Y-284831D01*
X908701Y-284998D01*
X909144D01*
X909588Y-284831D01*
X909968Y-284581D01*
X910284Y-284248D01*
G01X913801Y-279998D02*
Y-284998D01*
G01X912344Y-279998D02*
X915258D01*
G01X918141D02*
X919661D01*
G01X918901D02*
Y-284998D01*
G01X918141D02*
X919661D01*
G01X924001D02*
X923494Y-284915D01*
X923051Y-284581D01*
X922671Y-284081D01*
X922418Y-283498D01*
X922291Y-282831D01*
Y-282165D01*
X922418Y-281498D01*
X922671Y-280915D01*
X923051Y-280415D01*
X923494Y-280081D01*
X924001Y-279998D01*
X924508Y-280081D01*
X924951Y-280415D01*
X925331Y-280915D01*
X925584Y-281498D01*
X925711Y-282165D01*
Y-282831D01*
X925584Y-283498D01*
X925331Y-284081D01*
X924951Y-284581D01*
X924508Y-284915D01*
X924001Y-284998D01*
G01X927644D02*
Y-279998D01*
X930558Y-284998D01*
Y-279998D01*
G01X932871Y-284331D02*
X933378Y-284748D01*
X933948Y-284998D01*
X934454D01*
X934961Y-284748D01*
X935341Y-284331D01*
X935531Y-283748D01*
X935404Y-283165D01*
X935088Y-282665D01*
X934518Y-282331D01*
X933758Y-282165D01*
X933314Y-281831D01*
X933124Y-281248D01*
X933251Y-280665D01*
X933568Y-280248D01*
X934011Y-279998D01*
X934454D01*
X934898Y-280165D01*
X935278Y-280581D01*
G01X955204Y-295831D02*
X956724D01*
G01X955901Y-294748D02*
Y-296915D01*
G01X960178Y-295831D02*
X961824D01*
G01X969698Y-293331D02*
X970078Y-292831D01*
X970521Y-292581D01*
X971028Y-292498D01*
X971661Y-292665D01*
X972104Y-293081D01*
X972231Y-293581D01*
X972168Y-294081D01*
X971914Y-294498D01*
X970648Y-295331D01*
X970078Y-295915D01*
X969698Y-296748D01*
X969571Y-297498D01*
X972231D01*
G01X954318Y-284998D02*
X955901Y-279998D01*
X957484Y-284998D01*
G01X956914Y-283248D02*
X954888D01*
G01X959544Y-284998D02*
Y-279998D01*
X962458Y-284998D01*
Y-279998D01*
G01X966481Y-282498D02*
X967748D01*
Y-283998D01*
X967368Y-284498D01*
X966924Y-284831D01*
X966291Y-284998D01*
X965658Y-284831D01*
X965214Y-284498D01*
X964834Y-283998D01*
X964581Y-283415D01*
X964454Y-282748D01*
Y-282165D01*
X964581Y-281665D01*
X964834Y-281081D01*
X965214Y-280581D01*
X965594Y-280248D01*
X966101Y-279998D01*
X966544D01*
X967051Y-280165D01*
X967431Y-280498D01*
G01X969934Y-279998D02*
Y-284998D01*
X972468D01*
G01X977568D02*
X975034D01*
Y-279998D01*
X977568D01*
G01X976554Y-282415D02*
X975034D01*
G01X980071Y-284331D02*
X980578Y-284748D01*
X981148Y-284998D01*
X981654D01*
X982161Y-284748D01*
X982541Y-284331D01*
X982731Y-283748D01*
X982604Y-283165D01*
X982288Y-282665D01*
X981718Y-282331D01*
X980958Y-282165D01*
X980514Y-281831D01*
X980324Y-281248D01*
X980451Y-280665D01*
X980768Y-280248D01*
X981211Y-279998D01*
X981654D01*
X982098Y-280165D01*
X982478Y-280581D01*
G01X996501Y-524998D02*
Y-224998D01*
G01X1004794Y-479415D02*
X1004414Y-479165D01*
X1003971Y-478998D01*
X1003464D01*
X1002894Y-479248D01*
X1002451Y-479665D01*
X1002134Y-480165D01*
X1001881Y-480998D01*
X1001818Y-481748D01*
X1001944Y-482498D01*
X1002134Y-482998D01*
X1002514Y-483498D01*
X1002958Y-483831D01*
X1003401Y-483998D01*
X1003844D01*
X1004288Y-483831D01*
X1004668Y-483581D01*
X1004984Y-483248D01*
G01X1007171Y-483998D02*
Y-478998D01*
G01X1009831D02*
Y-483998D01*
G01Y-481498D02*
X1007171D01*
G01X1014868Y-483998D02*
X1012334D01*
Y-478998D01*
X1014868D01*
G01X1013854Y-481415D02*
X1012334D01*
G01X1020094Y-479415D02*
X1019714Y-479165D01*
X1019271Y-478998D01*
X1018764D01*
X1018194Y-479248D01*
X1017751Y-479665D01*
X1017434Y-480165D01*
X1017181Y-480998D01*
X1017118Y-481748D01*
X1017244Y-482498D01*
X1017434Y-482998D01*
X1017814Y-483498D01*
X1018258Y-483831D01*
X1018701Y-483998D01*
X1019144D01*
X1019588Y-483831D01*
X1019968Y-483581D01*
X1020284Y-483248D01*
G01X1022408Y-483998D02*
Y-478998D01*
G01X1024814D02*
X1022408Y-482081D01*
G01X1025194Y-483998D02*
X1023484Y-480665D01*
G01X1030168Y-483998D02*
X1027634D01*
Y-478998D01*
X1030168D01*
G01X1029154Y-481415D02*
X1027634D01*
G01X1032734Y-483998D02*
Y-478998D01*
X1034318D01*
X1034824Y-479248D01*
X1035141Y-479581D01*
X1035268Y-480248D01*
X1035141Y-480915D01*
X1034761Y-481331D01*
X1034318Y-481581D01*
X1032734D01*
G01X1034318D02*
X1035268Y-483998D01*
G01X1002201Y-495998D02*
Y-487998D01*
X1006801Y-495998D01*
Y-487998D01*
G01X1010701Y-496265D02*
X1014301Y-487998D01*
G01X1018001Y-495998D02*
X1020501Y-487998D01*
X1023001Y-495998D01*
G01X1022101Y-493198D02*
X1018901D01*
G01X1001901Y-470998D02*
Y-462998D01*
X1004501Y-469665D01*
X1007101Y-462998D01*
Y-470998D01*
G01X1012501Y-471265D02*
X1012301Y-471131D01*
Y-470865D01*
X1012501Y-470731D01*
X1012701Y-470865D01*
Y-471131D01*
X1012501Y-471265D01*
G01X1026401Y-469932D02*
X1027201Y-470598D01*
X1028101Y-470998D01*
X1028901D01*
X1029701Y-470598D01*
X1030301Y-469932D01*
X1030601Y-468998D01*
X1030401Y-468065D01*
X1029901Y-467265D01*
X1029001Y-466731D01*
X1027801Y-466465D01*
X1027101Y-465931D01*
X1026801Y-464998D01*
X1027001Y-464065D01*
X1027501Y-463398D01*
X1028201Y-462998D01*
X1028901D01*
X1029601Y-463265D01*
X1030201Y-463931D01*
G01X1036501Y-470998D02*
X1035701Y-470865D01*
X1035001Y-470331D01*
X1034401Y-469531D01*
X1034001Y-468598D01*
X1033801Y-467531D01*
Y-466465D01*
X1034001Y-465398D01*
X1034401Y-464465D01*
X1035001Y-463665D01*
X1035701Y-463131D01*
X1036501Y-462998D01*
X1037301Y-463131D01*
X1038001Y-463665D01*
X1038601Y-464465D01*
X1039001Y-465398D01*
X1039201Y-466465D01*
Y-467531D01*
X1039001Y-468598D01*
X1038601Y-469531D01*
X1038001Y-470331D01*
X1037301Y-470865D01*
X1036501Y-470998D01*
G01X996501Y-474998D02*
X1191501D01*
G01X1006501Y-445998D02*
X1002501D01*
Y-437998D01*
X1006501D01*
G01X1004901Y-441865D02*
X1002501D01*
G01X1012501Y-446265D02*
X1012301Y-446131D01*
Y-445865D01*
X1012501Y-445731D01*
X1012701Y-445865D01*
Y-446131D01*
X1012501Y-446265D01*
G01X1030701Y-438665D02*
X1030101Y-438265D01*
X1029401Y-437998D01*
X1028601D01*
X1027701Y-438398D01*
X1027001Y-439065D01*
X1026501Y-439865D01*
X1026101Y-441198D01*
X1026001Y-442398D01*
X1026201Y-443598D01*
X1026501Y-444398D01*
X1027101Y-445198D01*
X1027801Y-445731D01*
X1028501Y-445998D01*
X1029201D01*
X1029901Y-445731D01*
X1030501Y-445331D01*
X1031001Y-444798D01*
G01X1034401Y-445998D02*
Y-437998D01*
G01X1038601D02*
Y-445998D01*
G01Y-441998D02*
X1034401D01*
G01X1042001Y-445998D02*
X1044501Y-437998D01*
X1047001Y-445998D01*
G01X1046101Y-443198D02*
X1042901D01*
G01X1050201Y-445998D02*
Y-437998D01*
X1054801Y-445998D01*
Y-437998D01*
G01X1002134Y-458998D02*
Y-453998D01*
X1003654D01*
X1004161Y-454248D01*
X1004541Y-454831D01*
X1004668Y-455498D01*
X1004541Y-456165D01*
X1004224Y-456665D01*
X1003654Y-456915D01*
X1002134D01*
G01X1008501Y-453998D02*
Y-458998D01*
G01X1007044Y-453998D02*
X1009958D01*
G01X1012208Y-458998D02*
Y-453998D01*
X1013474D01*
X1013981Y-454248D01*
X1014361Y-454581D01*
X1014678Y-455081D01*
X1014931Y-455665D01*
X1014994Y-456498D01*
X1014931Y-457331D01*
X1014678Y-457915D01*
X1014361Y-458415D01*
X1013981Y-458748D01*
X1013474Y-458998D01*
X1012208D01*
G01X1025068D02*
X1022534D01*
Y-453998D01*
X1025068D01*
G01X1024054Y-456415D02*
X1022534D01*
G01X1027444Y-458998D02*
Y-453998D01*
X1030358Y-458998D01*
Y-453998D01*
G01X1034381Y-456498D02*
X1035648D01*
Y-457998D01*
X1035268Y-458498D01*
X1034824Y-458831D01*
X1034191Y-458998D01*
X1033558Y-458831D01*
X1033114Y-458498D01*
X1032734Y-457998D01*
X1032481Y-457415D01*
X1032354Y-456748D01*
Y-456165D01*
X1032481Y-455665D01*
X1032734Y-455081D01*
X1033114Y-454581D01*
X1033494Y-454248D01*
X1034001Y-453998D01*
X1034444D01*
X1034951Y-454165D01*
X1035331Y-454498D01*
G01X1038341Y-453998D02*
X1039861D01*
G01X1039101D02*
Y-458998D01*
G01X1038341D02*
X1039861D01*
G01X1042744D02*
Y-453998D01*
X1045658Y-458998D01*
Y-453998D01*
G01X1050568Y-458998D02*
X1048034D01*
Y-453998D01*
X1050568D01*
G01X1049554Y-456415D02*
X1048034D01*
G01X1055668Y-458998D02*
X1053134D01*
Y-453998D01*
X1055668D01*
G01X1054654Y-456415D02*
X1053134D01*
G01X1058234Y-458998D02*
Y-453998D01*
X1059818D01*
X1060324Y-454248D01*
X1060641Y-454581D01*
X1060768Y-455248D01*
X1060641Y-455915D01*
X1060261Y-456331D01*
X1059818Y-456581D01*
X1058234D01*
G01X1059818D02*
X1060768Y-458998D01*
G01X1191501Y-449998D02*
X996501D01*
G01X1002301Y-420998D02*
Y-412998D01*
G01X1006101D02*
X1002301Y-417932D01*
G01X1006701Y-420998D02*
X1004001Y-415665D01*
G01X1012501Y-421265D02*
X1012301Y-421131D01*
Y-420865D01*
X1012501Y-420731D01*
X1012701Y-420865D01*
Y-421131D01*
X1012501Y-421265D01*
G01X1026501Y-419398D02*
X1027001Y-420198D01*
X1027601Y-420731D01*
X1028301Y-420998D01*
X1029101Y-420731D01*
X1029701Y-420198D01*
X1030301Y-419398D01*
X1030501Y-418331D01*
Y-412998D01*
G01X1034001Y-420998D02*
X1036501Y-412998D01*
X1039001Y-420998D01*
G01X1038101Y-418198D02*
X1034901D01*
G01X1045301Y-416731D02*
X1045701Y-416331D01*
X1046001Y-415665D01*
X1046201Y-414731D01*
X1046001Y-413931D01*
X1045601Y-413398D01*
X1044901Y-412998D01*
X1042201D01*
Y-420998D01*
X1045501D01*
X1046201Y-420465D01*
X1046601Y-419665D01*
X1046801Y-418731D01*
X1046601Y-417798D01*
X1046001Y-416998D01*
X1045301Y-416731D01*
X1042201D01*
G01X1050001Y-420998D02*
X1052501Y-412998D01*
X1055001Y-420998D01*
G01X1054101Y-418198D02*
X1050901D01*
G01X1060501Y-412998D02*
Y-420998D01*
G01X1058201Y-412998D02*
X1062801D01*
G01X1066001Y-420998D02*
X1068501Y-412998D01*
X1071001Y-420998D01*
G01X1070101Y-418198D02*
X1066901D01*
G01X1074201Y-420998D02*
Y-412998D01*
X1078801Y-420998D01*
Y-412998D01*
G01X1002008Y-433998D02*
Y-428998D01*
X1003274D01*
X1003781Y-429248D01*
X1004161Y-429581D01*
X1004478Y-430081D01*
X1004731Y-430665D01*
X1004794Y-431498D01*
X1004731Y-432331D01*
X1004478Y-432915D01*
X1004161Y-433415D01*
X1003781Y-433748D01*
X1003274Y-433998D01*
X1002008D01*
G01X1009768D02*
X1007234D01*
Y-428998D01*
X1009768D01*
G01X1008754Y-431415D02*
X1007234D01*
G01X1012271Y-433331D02*
X1012778Y-433748D01*
X1013348Y-433998D01*
X1013854D01*
X1014361Y-433748D01*
X1014741Y-433331D01*
X1014931Y-432748D01*
X1014804Y-432165D01*
X1014488Y-431665D01*
X1013918Y-431331D01*
X1013158Y-431165D01*
X1012714Y-430831D01*
X1012524Y-430248D01*
X1012651Y-429665D01*
X1012968Y-429248D01*
X1013411Y-428998D01*
X1013854D01*
X1014298Y-429165D01*
X1014678Y-429581D01*
G01X1017941Y-428998D02*
X1019461D01*
G01X1018701D02*
Y-433998D01*
G01X1017941D02*
X1019461D01*
G01X1024181Y-431498D02*
X1025448D01*
Y-432998D01*
X1025068Y-433498D01*
X1024624Y-433831D01*
X1023991Y-433998D01*
X1023358Y-433831D01*
X1022914Y-433498D01*
X1022534Y-432998D01*
X1022281Y-432415D01*
X1022154Y-431748D01*
Y-431165D01*
X1022281Y-430665D01*
X1022534Y-430081D01*
X1022914Y-429581D01*
X1023294Y-429248D01*
X1023801Y-428998D01*
X1024244D01*
X1024751Y-429165D01*
X1025131Y-429498D01*
G01X1027444Y-433998D02*
Y-428998D01*
X1030358Y-433998D01*
Y-428998D01*
G01X1035268Y-433998D02*
X1032734D01*
Y-428998D01*
X1035268D01*
G01X1034254Y-431415D02*
X1032734D01*
G01X1037834Y-433998D02*
Y-428998D01*
X1039418D01*
X1039924Y-429248D01*
X1040241Y-429581D01*
X1040368Y-430248D01*
X1040241Y-430915D01*
X1039861Y-431331D01*
X1039418Y-431581D01*
X1037834D01*
G01X1039418D02*
X1040368Y-433998D01*
G01X1002071Y-408998D02*
Y-403998D01*
G01X1004731D02*
Y-408998D01*
G01Y-406498D02*
X1002071D01*
G01X1006918Y-408998D02*
X1008501Y-403998D01*
X1010084Y-408998D01*
G01X1009514Y-407248D02*
X1007488D01*
G01X1012334Y-408998D02*
Y-403998D01*
X1013918D01*
X1014424Y-404248D01*
X1014741Y-404581D01*
X1014868Y-405248D01*
X1014741Y-405915D01*
X1014361Y-406331D01*
X1013918Y-406581D01*
X1012334D01*
G01X1013918D02*
X1014868Y-408998D01*
G01X1017308D02*
Y-403998D01*
X1018574D01*
X1019081Y-404248D01*
X1019461Y-404581D01*
X1019778Y-405081D01*
X1020031Y-405665D01*
X1020094Y-406498D01*
X1020031Y-407331D01*
X1019778Y-407915D01*
X1019461Y-408415D01*
X1019081Y-408748D01*
X1018574Y-408998D01*
X1017308D01*
G01X1021901Y-403998D02*
X1022788Y-408998D01*
X1023801Y-403998D01*
X1024814Y-408998D01*
X1025701Y-403998D01*
G01X1027318Y-408998D02*
X1028901Y-403998D01*
X1030484Y-408998D01*
G01X1029914Y-407248D02*
X1027888D01*
G01X1032734Y-408998D02*
Y-403998D01*
X1034318D01*
X1034824Y-404248D01*
X1035141Y-404581D01*
X1035268Y-405248D01*
X1035141Y-405915D01*
X1034761Y-406331D01*
X1034318Y-406581D01*
X1032734D01*
G01X1034318D02*
X1035268Y-408998D01*
G01X1040368D02*
X1037834D01*
Y-403998D01*
X1040368D01*
G01X1039354Y-406415D02*
X1037834D01*
G01X1048034Y-408998D02*
Y-403998D01*
X1049618D01*
X1050124Y-404248D01*
X1050441Y-404581D01*
X1050568Y-405248D01*
X1050441Y-405915D01*
X1050061Y-406331D01*
X1049618Y-406581D01*
X1048034D01*
G01X1049618D02*
X1050568Y-408998D01*
G01X1055668D02*
X1053134D01*
Y-403998D01*
X1055668D01*
G01X1054654Y-406415D02*
X1053134D01*
G01X1058234Y-403998D02*
Y-408998D01*
X1060768D01*
G01X1065868D02*
X1063334D01*
Y-403998D01*
X1065868D01*
G01X1064854Y-406415D02*
X1063334D01*
G01X1068118Y-408998D02*
X1069701Y-403998D01*
X1071284Y-408998D01*
G01X1070714Y-407248D02*
X1068688D01*
G01X1073471Y-408331D02*
X1073978Y-408748D01*
X1074548Y-408998D01*
X1075054D01*
X1075561Y-408748D01*
X1075941Y-408331D01*
X1076131Y-407748D01*
X1076004Y-407165D01*
X1075688Y-406665D01*
X1075118Y-406331D01*
X1074358Y-406165D01*
X1073914Y-405831D01*
X1073724Y-405248D01*
X1073851Y-404665D01*
X1074168Y-404248D01*
X1074611Y-403998D01*
X1075054D01*
X1075498Y-404165D01*
X1075878Y-404581D01*
G01X1081168Y-408998D02*
X1078634D01*
Y-403998D01*
X1081168D01*
G01X1080154Y-406415D02*
X1078634D01*
G01X1002201Y-395998D02*
Y-387998D01*
X1006801Y-395998D01*
Y-387998D01*
G01X1010701Y-396265D02*
X1014301Y-387998D01*
G01X1018001Y-395998D02*
X1020501Y-387998D01*
X1023001Y-395998D01*
G01X1022101Y-393198D02*
X1018901D01*
G01X1003401Y-378998D02*
Y-383998D01*
G01X1001944Y-378998D02*
X1004858D01*
G01X1009768Y-383998D02*
X1007234D01*
Y-378998D01*
X1009768D01*
G01X1008754Y-381415D02*
X1007234D01*
G01X1012271Y-383331D02*
X1012778Y-383748D01*
X1013348Y-383998D01*
X1013854D01*
X1014361Y-383748D01*
X1014741Y-383331D01*
X1014931Y-382748D01*
X1014804Y-382165D01*
X1014488Y-381665D01*
X1013918Y-381331D01*
X1013158Y-381165D01*
X1012714Y-380831D01*
X1012524Y-380248D01*
X1012651Y-379665D01*
X1012968Y-379248D01*
X1013411Y-378998D01*
X1013854D01*
X1014298Y-379165D01*
X1014678Y-379581D01*
G01X1018701Y-378998D02*
Y-383998D01*
G01X1017244Y-378998D02*
X1020158D01*
G01X1027634Y-383998D02*
Y-378998D01*
X1029154D01*
X1029661Y-379248D01*
X1030041Y-379831D01*
X1030168Y-380498D01*
X1030041Y-381165D01*
X1029724Y-381665D01*
X1029154Y-381915D01*
X1027634D01*
G01X1032734Y-383998D02*
Y-378998D01*
X1034318D01*
X1034824Y-379248D01*
X1035141Y-379581D01*
X1035268Y-380248D01*
X1035141Y-380915D01*
X1034761Y-381331D01*
X1034318Y-381581D01*
X1032734D01*
G01X1034318D02*
X1035268Y-383998D01*
G01X1039101D02*
X1038594Y-383915D01*
X1038151Y-383581D01*
X1037771Y-383081D01*
X1037518Y-382498D01*
X1037391Y-381831D01*
Y-381165D01*
X1037518Y-380498D01*
X1037771Y-379915D01*
X1038151Y-379415D01*
X1038594Y-379081D01*
X1039101Y-378998D01*
X1039608Y-379081D01*
X1040051Y-379415D01*
X1040431Y-379915D01*
X1040684Y-380498D01*
X1040811Y-381165D01*
Y-381831D01*
X1040684Y-382498D01*
X1040431Y-383081D01*
X1040051Y-383581D01*
X1039608Y-383915D01*
X1039101Y-383998D01*
G01X1045594Y-379415D02*
X1045214Y-379165D01*
X1044771Y-378998D01*
X1044264D01*
X1043694Y-379248D01*
X1043251Y-379665D01*
X1042934Y-380165D01*
X1042681Y-380998D01*
X1042618Y-381748D01*
X1042744Y-382498D01*
X1042934Y-382998D01*
X1043314Y-383498D01*
X1043758Y-383831D01*
X1044201Y-383998D01*
X1044644D01*
X1045088Y-383831D01*
X1045468Y-383581D01*
X1045784Y-383248D01*
G01X1050568Y-383998D02*
X1048034D01*
Y-378998D01*
X1050568D01*
G01X1049554Y-381415D02*
X1048034D01*
G01X1053071Y-383331D02*
X1053578Y-383748D01*
X1054148Y-383998D01*
X1054654D01*
X1055161Y-383748D01*
X1055541Y-383331D01*
X1055731Y-382748D01*
X1055604Y-382165D01*
X1055288Y-381665D01*
X1054718Y-381331D01*
X1053958Y-381165D01*
X1053514Y-380831D01*
X1053324Y-380248D01*
X1053451Y-379665D01*
X1053768Y-379248D01*
X1054211Y-378998D01*
X1054654D01*
X1055098Y-379165D01*
X1055478Y-379581D01*
G01X1058171Y-383331D02*
X1058678Y-383748D01*
X1059248Y-383998D01*
X1059754D01*
X1060261Y-383748D01*
X1060641Y-383331D01*
X1060831Y-382748D01*
X1060704Y-382165D01*
X1060388Y-381665D01*
X1059818Y-381331D01*
X1059058Y-381165D01*
X1058614Y-380831D01*
X1058424Y-380248D01*
X1058551Y-379665D01*
X1058868Y-379248D01*
X1059311Y-378998D01*
X1059754D01*
X1060198Y-379165D01*
X1060578Y-379581D01*
G01X996501Y-399998D02*
X1191501D01*
G01X1001901Y-370998D02*
Y-362998D01*
X1004501Y-369665D01*
X1007101Y-362998D01*
Y-370998D01*
G01X1012501Y-371265D02*
X1012301Y-371131D01*
Y-370865D01*
X1012501Y-370731D01*
X1012701Y-370865D01*
Y-371131D01*
X1012501Y-371265D01*
G01X1028501Y-370998D02*
Y-367398D01*
X1026501Y-362998D01*
G01X1030501D02*
X1028501Y-367398D01*
G01X1034001Y-370998D02*
X1036501Y-362998D01*
X1039001Y-370998D01*
G01X1038101Y-368198D02*
X1034901D01*
G01X1042201Y-370998D02*
Y-362998D01*
X1046801Y-370998D01*
Y-362998D01*
G01X1004794Y-354415D02*
X1004414Y-354165D01*
X1003971Y-353998D01*
X1003464D01*
X1002894Y-354248D01*
X1002451Y-354665D01*
X1002134Y-355165D01*
X1001881Y-355998D01*
X1001818Y-356748D01*
X1001944Y-357498D01*
X1002134Y-357998D01*
X1002514Y-358498D01*
X1002958Y-358831D01*
X1003401Y-358998D01*
X1003844D01*
X1004288Y-358831D01*
X1004668Y-358581D01*
X1004984Y-358248D01*
G01X1008501Y-358998D02*
X1007994Y-358915D01*
X1007551Y-358581D01*
X1007171Y-358081D01*
X1006918Y-357498D01*
X1006791Y-356831D01*
Y-356165D01*
X1006918Y-355498D01*
X1007171Y-354915D01*
X1007551Y-354415D01*
X1007994Y-354081D01*
X1008501Y-353998D01*
X1009008Y-354081D01*
X1009451Y-354415D01*
X1009831Y-354915D01*
X1010084Y-355498D01*
X1010211Y-356165D01*
Y-356831D01*
X1010084Y-357498D01*
X1009831Y-358081D01*
X1009451Y-358581D01*
X1009008Y-358915D01*
X1008501Y-358998D01*
G01X1011954D02*
Y-353998D01*
X1013601Y-358165D01*
X1015248Y-353998D01*
Y-358998D01*
G01X1017434D02*
Y-353998D01*
X1018954D01*
X1019461Y-354248D01*
X1019841Y-354831D01*
X1019968Y-355498D01*
X1019841Y-356165D01*
X1019524Y-356665D01*
X1018954Y-356915D01*
X1017434D01*
G01X1023801Y-358998D02*
X1023294Y-358915D01*
X1022851Y-358581D01*
X1022471Y-358081D01*
X1022218Y-357498D01*
X1022091Y-356831D01*
Y-356165D01*
X1022218Y-355498D01*
X1022471Y-354915D01*
X1022851Y-354415D01*
X1023294Y-354081D01*
X1023801Y-353998D01*
X1024308Y-354081D01*
X1024751Y-354415D01*
X1025131Y-354915D01*
X1025384Y-355498D01*
X1025511Y-356165D01*
Y-356831D01*
X1025384Y-357498D01*
X1025131Y-358081D01*
X1024751Y-358581D01*
X1024308Y-358915D01*
X1023801Y-358998D01*
G01X1027444D02*
Y-353998D01*
X1030358Y-358998D01*
Y-353998D01*
G01X1035268Y-358998D02*
X1032734D01*
Y-353998D01*
X1035268D01*
G01X1034254Y-356415D02*
X1032734D01*
G01X1037644Y-358998D02*
Y-353998D01*
X1040558Y-358998D01*
Y-353998D01*
G01X1044201D02*
Y-358998D01*
G01X1042744Y-353998D02*
X1045658D01*
G01X1055668Y-358998D02*
X1053134D01*
Y-353998D01*
X1055668D01*
G01X1054654Y-356415D02*
X1053134D01*
G01X1058044Y-358998D02*
Y-353998D01*
X1060958Y-358998D01*
Y-353998D01*
G01X1064981Y-356498D02*
X1066248D01*
Y-357998D01*
X1065868Y-358498D01*
X1065424Y-358831D01*
X1064791Y-358998D01*
X1064158Y-358831D01*
X1063714Y-358498D01*
X1063334Y-357998D01*
X1063081Y-357415D01*
X1062954Y-356748D01*
Y-356165D01*
X1063081Y-355665D01*
X1063334Y-355081D01*
X1063714Y-354581D01*
X1064094Y-354248D01*
X1064601Y-353998D01*
X1065044D01*
X1065551Y-354165D01*
X1065931Y-354498D01*
G01X1068941Y-353998D02*
X1070461D01*
G01X1069701D02*
Y-358998D01*
G01X1068941D02*
X1070461D01*
G01X1073344D02*
Y-353998D01*
X1076258Y-358998D01*
Y-353998D01*
G01X1081168Y-358998D02*
X1078634D01*
Y-353998D01*
X1081168D01*
G01X1080154Y-356415D02*
X1078634D01*
G01X1086268Y-358998D02*
X1083734D01*
Y-353998D01*
X1086268D01*
G01X1085254Y-356415D02*
X1083734D01*
G01X1088834Y-358998D02*
Y-353998D01*
X1090418D01*
X1090924Y-354248D01*
X1091241Y-354581D01*
X1091368Y-355248D01*
X1091241Y-355915D01*
X1090861Y-356331D01*
X1090418Y-356581D01*
X1088834D01*
G01X1090418D02*
X1091368Y-358998D01*
G01X996501Y-374998D02*
X1191501D01*
G01X1002201Y-345998D02*
Y-337998D01*
X1006801Y-345998D01*
Y-337998D01*
G01X1010701Y-346265D02*
X1014301Y-337998D01*
G01X1018001Y-345998D02*
X1020501Y-337998D01*
X1023001Y-345998D01*
G01X1022101Y-343198D02*
X1018901D01*
G01X996501Y-349998D02*
X1191501D01*
G01X1002201Y-320998D02*
Y-312998D01*
X1006801Y-320998D01*
Y-312998D01*
G01X1010701Y-321265D02*
X1014301Y-312998D01*
G01X1018001Y-320998D02*
X1020501Y-312998D01*
X1023001Y-320998D01*
G01X1022101Y-318198D02*
X1018901D01*
G01X1003401Y-328998D02*
Y-333998D01*
G01X1001944Y-328998D02*
X1004858D01*
G01X1009768Y-333998D02*
X1007234D01*
Y-328998D01*
X1009768D01*
G01X1008754Y-331415D02*
X1007234D01*
G01X1012271Y-333331D02*
X1012778Y-333748D01*
X1013348Y-333998D01*
X1013854D01*
X1014361Y-333748D01*
X1014741Y-333331D01*
X1014931Y-332748D01*
X1014804Y-332165D01*
X1014488Y-331665D01*
X1013918Y-331331D01*
X1013158Y-331165D01*
X1012714Y-330831D01*
X1012524Y-330248D01*
X1012651Y-329665D01*
X1012968Y-329248D01*
X1013411Y-328998D01*
X1013854D01*
X1014298Y-329165D01*
X1014678Y-329581D01*
G01X1018701Y-328998D02*
Y-333998D01*
G01X1017244Y-328998D02*
X1020158D01*
G01X1030168Y-333998D02*
X1027634D01*
Y-328998D01*
X1030168D01*
G01X1029154Y-331415D02*
X1027634D01*
G01X1032544Y-333998D02*
Y-328998D01*
X1035458Y-333998D01*
Y-328998D01*
G01X1039481Y-331498D02*
X1040748D01*
Y-332998D01*
X1040368Y-333498D01*
X1039924Y-333831D01*
X1039291Y-333998D01*
X1038658Y-333831D01*
X1038214Y-333498D01*
X1037834Y-332998D01*
X1037581Y-332415D01*
X1037454Y-331748D01*
Y-331165D01*
X1037581Y-330665D01*
X1037834Y-330081D01*
X1038214Y-329581D01*
X1038594Y-329248D01*
X1039101Y-328998D01*
X1039544D01*
X1040051Y-329165D01*
X1040431Y-329498D01*
G01X1043441Y-328998D02*
X1044961D01*
G01X1044201D02*
Y-333998D01*
G01X1043441D02*
X1044961D01*
G01X1047844D02*
Y-328998D01*
X1050758Y-333998D01*
Y-328998D01*
G01X1055668Y-333998D02*
X1053134D01*
Y-328998D01*
X1055668D01*
G01X1054654Y-331415D02*
X1053134D01*
G01X1060768Y-333998D02*
X1058234D01*
Y-328998D01*
X1060768D01*
G01X1059754Y-331415D02*
X1058234D01*
G01X1063334Y-333998D02*
Y-328998D01*
X1064918D01*
X1065424Y-329248D01*
X1065741Y-329581D01*
X1065868Y-330248D01*
X1065741Y-330915D01*
X1065361Y-331331D01*
X1064918Y-331581D01*
X1063334D01*
G01X1064918D02*
X1065868Y-333998D01*
G01X1001901Y-295998D02*
Y-287998D01*
X1004501Y-294665D01*
X1007101Y-287998D01*
Y-295998D01*
G01X1012501Y-296265D02*
X1012301Y-296131D01*
Y-295865D01*
X1012501Y-295731D01*
X1012701Y-295865D01*
Y-296131D01*
X1012501Y-296265D01*
G01X1026001Y-287998D02*
X1028501Y-295998D01*
X1031001Y-287998D01*
G01X1034001Y-295998D02*
X1036501Y-287998D01*
X1039001Y-295998D01*
G01X1038101Y-293198D02*
X1034901D01*
G01X1042501Y-287998D02*
Y-295998D01*
X1046501D01*
G01X1054501D02*
X1050501D01*
Y-287998D01*
X1054501D01*
G01X1052901Y-291865D02*
X1050501D01*
G01X1002071Y-308998D02*
Y-303998D01*
G01X1004731D02*
Y-308998D01*
G01Y-306498D02*
X1002071D01*
G01X1006918Y-308998D02*
X1008501Y-303998D01*
X1010084Y-308998D01*
G01X1009514Y-307248D02*
X1007488D01*
G01X1012334Y-308998D02*
Y-303998D01*
X1013918D01*
X1014424Y-304248D01*
X1014741Y-304581D01*
X1014868Y-305248D01*
X1014741Y-305915D01*
X1014361Y-306331D01*
X1013918Y-306581D01*
X1012334D01*
G01X1013918D02*
X1014868Y-308998D01*
G01X1017308D02*
Y-303998D01*
X1018574D01*
X1019081Y-304248D01*
X1019461Y-304581D01*
X1019778Y-305081D01*
X1020031Y-305665D01*
X1020094Y-306498D01*
X1020031Y-307331D01*
X1019778Y-307915D01*
X1019461Y-308415D01*
X1019081Y-308748D01*
X1018574Y-308998D01*
X1017308D01*
G01X1021901Y-303998D02*
X1022788Y-308998D01*
X1023801Y-303998D01*
X1024814Y-308998D01*
X1025701Y-303998D01*
G01X1027318Y-308998D02*
X1028901Y-303998D01*
X1030484Y-308998D01*
G01X1029914Y-307248D02*
X1027888D01*
G01X1032734Y-308998D02*
Y-303998D01*
X1034318D01*
X1034824Y-304248D01*
X1035141Y-304581D01*
X1035268Y-305248D01*
X1035141Y-305915D01*
X1034761Y-306331D01*
X1034318Y-306581D01*
X1032734D01*
G01X1034318D02*
X1035268Y-308998D01*
G01X1040368D02*
X1037834D01*
Y-303998D01*
X1040368D01*
G01X1039354Y-306415D02*
X1037834D01*
G01X1047971Y-308331D02*
X1048478Y-308748D01*
X1049048Y-308998D01*
X1049554D01*
X1050061Y-308748D01*
X1050441Y-308331D01*
X1050631Y-307748D01*
X1050504Y-307165D01*
X1050188Y-306665D01*
X1049618Y-306331D01*
X1048858Y-306165D01*
X1048414Y-305831D01*
X1048224Y-305248D01*
X1048351Y-304665D01*
X1048668Y-304248D01*
X1049111Y-303998D01*
X1049554D01*
X1049998Y-304165D01*
X1050378Y-304581D01*
G01X1054401Y-308998D02*
Y-306748D01*
X1053134Y-303998D01*
G01X1055668D02*
X1054401Y-306748D01*
G01X1058171Y-308331D02*
X1058678Y-308748D01*
X1059248Y-308998D01*
X1059754D01*
X1060261Y-308748D01*
X1060641Y-308331D01*
X1060831Y-307748D01*
X1060704Y-307165D01*
X1060388Y-306665D01*
X1059818Y-306331D01*
X1059058Y-306165D01*
X1058614Y-305831D01*
X1058424Y-305248D01*
X1058551Y-304665D01*
X1058868Y-304248D01*
X1059311Y-303998D01*
X1059754D01*
X1060198Y-304165D01*
X1060578Y-304581D01*
G01X1064601Y-303998D02*
Y-308998D01*
G01X1063144Y-303998D02*
X1066058D01*
G01X1070968Y-308998D02*
X1068434D01*
Y-303998D01*
X1070968D01*
G01X1069954Y-306415D02*
X1068434D01*
G01X1073154Y-308998D02*
Y-303998D01*
X1074801Y-308165D01*
X1076448Y-303998D01*
Y-308998D01*
G01X1078571Y-308331D02*
X1079078Y-308748D01*
X1079648Y-308998D01*
X1080154D01*
X1080661Y-308748D01*
X1081041Y-308331D01*
X1081231Y-307748D01*
X1081104Y-307165D01*
X1080788Y-306665D01*
X1080218Y-306331D01*
X1079458Y-306165D01*
X1079014Y-305831D01*
X1078824Y-305248D01*
X1078951Y-304665D01*
X1079268Y-304248D01*
X1079711Y-303998D01*
X1080154D01*
X1080598Y-304165D01*
X1080978Y-304581D01*
G01X996501Y-299998D02*
X1641501D01*
G01X1002071Y-283998D02*
Y-278998D01*
G01X1004731D02*
Y-283998D01*
G01Y-281498D02*
X1002071D01*
G01X1006918Y-283998D02*
X1008501Y-278998D01*
X1010084Y-283998D01*
G01X1009514Y-282248D02*
X1007488D01*
G01X1012334Y-283998D02*
Y-278998D01*
X1013918D01*
X1014424Y-279248D01*
X1014741Y-279581D01*
X1014868Y-280248D01*
X1014741Y-280915D01*
X1014361Y-281331D01*
X1013918Y-281581D01*
X1012334D01*
G01X1013918D02*
X1014868Y-283998D01*
G01X1017308D02*
Y-278998D01*
X1018574D01*
X1019081Y-279248D01*
X1019461Y-279581D01*
X1019778Y-280081D01*
X1020031Y-280665D01*
X1020094Y-281498D01*
X1020031Y-282331D01*
X1019778Y-282915D01*
X1019461Y-283415D01*
X1019081Y-283748D01*
X1018574Y-283998D01*
X1017308D01*
G01X1021901Y-278998D02*
X1022788Y-283998D01*
X1023801Y-278998D01*
X1024814Y-283998D01*
X1025701Y-278998D01*
G01X1027318Y-283998D02*
X1028901Y-278998D01*
X1030484Y-283998D01*
G01X1029914Y-282248D02*
X1027888D01*
G01X1032734Y-283998D02*
Y-278998D01*
X1034318D01*
X1034824Y-279248D01*
X1035141Y-279581D01*
X1035268Y-280248D01*
X1035141Y-280915D01*
X1034761Y-281331D01*
X1034318Y-281581D01*
X1032734D01*
G01X1034318D02*
X1035268Y-283998D01*
G01X1040368D02*
X1037834D01*
Y-278998D01*
X1040368D01*
G01X1039354Y-281415D02*
X1037834D01*
G01X1047971Y-283331D02*
X1048478Y-283748D01*
X1049048Y-283998D01*
X1049554D01*
X1050061Y-283748D01*
X1050441Y-283331D01*
X1050631Y-282748D01*
X1050504Y-282165D01*
X1050188Y-281665D01*
X1049618Y-281331D01*
X1048858Y-281165D01*
X1048414Y-280831D01*
X1048224Y-280248D01*
X1048351Y-279665D01*
X1048668Y-279248D01*
X1049111Y-278998D01*
X1049554D01*
X1049998Y-279165D01*
X1050378Y-279581D01*
G01X1055668Y-283998D02*
X1053134D01*
Y-278998D01*
X1055668D01*
G01X1054654Y-281415D02*
X1053134D01*
G01X1058234Y-283998D02*
Y-278998D01*
X1059818D01*
X1060324Y-279248D01*
X1060641Y-279581D01*
X1060768Y-280248D01*
X1060641Y-280915D01*
X1060261Y-281331D01*
X1059818Y-281581D01*
X1058234D01*
G01X1059818D02*
X1060768Y-283998D01*
G01X1063018Y-278998D02*
X1064601Y-283998D01*
X1066184Y-278998D01*
G01X1068941D02*
X1070461D01*
G01X1069701D02*
Y-283998D01*
G01X1068941D02*
X1070461D01*
G01X1076194Y-279415D02*
X1075814Y-279165D01*
X1075371Y-278998D01*
X1074864D01*
X1074294Y-279248D01*
X1073851Y-279665D01*
X1073534Y-280165D01*
X1073281Y-280998D01*
X1073218Y-281748D01*
X1073344Y-282498D01*
X1073534Y-282998D01*
X1073914Y-283498D01*
X1074358Y-283831D01*
X1074801Y-283998D01*
X1075244D01*
X1075688Y-283831D01*
X1076068Y-283581D01*
X1076384Y-283248D01*
G01X1081168Y-283998D02*
X1078634D01*
Y-278998D01*
X1081168D01*
G01X1080154Y-281415D02*
X1078634D01*
G01X1083671Y-283331D02*
X1084178Y-283748D01*
X1084748Y-283998D01*
X1085254D01*
X1085761Y-283748D01*
X1086141Y-283331D01*
X1086331Y-282748D01*
X1086204Y-282165D01*
X1085888Y-281665D01*
X1085318Y-281331D01*
X1084558Y-281165D01*
X1084114Y-280831D01*
X1083924Y-280248D01*
X1084051Y-279665D01*
X1084368Y-279248D01*
X1084811Y-278998D01*
X1085254D01*
X1085698Y-279165D01*
X1086078Y-279581D01*
G01X996501Y-274998D02*
X1191501D01*
G01X1002201Y-270998D02*
Y-262998D01*
X1006801Y-270998D01*
Y-262998D01*
G01X1010701Y-271265D02*
X1014301Y-262998D01*
G01X1018001Y-270998D02*
X1020501Y-262998D01*
X1023001Y-270998D01*
G01X1022101Y-268198D02*
X1018901D01*
G01X1003401Y-253998D02*
Y-258998D01*
G01X1001944Y-253998D02*
X1004858D01*
G01X1009768Y-258998D02*
X1007234D01*
Y-253998D01*
X1009768D01*
G01X1008754Y-256415D02*
X1007234D01*
G01X1011954Y-258998D02*
Y-253998D01*
X1013601Y-258165D01*
X1015248Y-253998D01*
Y-258998D01*
G01X1017434D02*
Y-253998D01*
X1018954D01*
X1019461Y-254248D01*
X1019841Y-254831D01*
X1019968Y-255498D01*
X1019841Y-256165D01*
X1019524Y-256665D01*
X1018954Y-256915D01*
X1017434D01*
G01X1022534Y-253998D02*
Y-258998D01*
X1025068D01*
G01X1027318D02*
X1028901Y-253998D01*
X1030484Y-258998D01*
G01X1029914Y-257248D02*
X1027888D01*
G01X1034001Y-253998D02*
Y-258998D01*
G01X1032544Y-253998D02*
X1035458D01*
G01X1040368Y-258998D02*
X1037834D01*
Y-253998D01*
X1040368D01*
G01X1039354Y-256415D02*
X1037834D01*
G01X1050568Y-258998D02*
X1048034D01*
Y-253998D01*
X1050568D01*
G01X1049554Y-256415D02*
X1048034D01*
G01X1052944Y-258998D02*
Y-253998D01*
X1055858Y-258998D01*
Y-253998D01*
G01X1059881Y-256498D02*
X1061148D01*
Y-257998D01*
X1060768Y-258498D01*
X1060324Y-258831D01*
X1059691Y-258998D01*
X1059058Y-258831D01*
X1058614Y-258498D01*
X1058234Y-257998D01*
X1057981Y-257415D01*
X1057854Y-256748D01*
Y-256165D01*
X1057981Y-255665D01*
X1058234Y-255081D01*
X1058614Y-254581D01*
X1058994Y-254248D01*
X1059501Y-253998D01*
X1059944D01*
X1060451Y-254165D01*
X1060831Y-254498D01*
G01X1063841Y-253998D02*
X1065361D01*
G01X1064601D02*
Y-258998D01*
G01X1063841D02*
X1065361D01*
G01X1068244D02*
Y-253998D01*
X1071158Y-258998D01*
Y-253998D01*
G01X1076068Y-258998D02*
X1073534D01*
Y-253998D01*
X1076068D01*
G01X1075054Y-256415D02*
X1073534D01*
G01X1081168Y-258998D02*
X1078634D01*
Y-253998D01*
X1081168D01*
G01X1080154Y-256415D02*
X1078634D01*
G01X1083734Y-258998D02*
Y-253998D01*
X1085318D01*
X1085824Y-254248D01*
X1086141Y-254581D01*
X1086268Y-255248D01*
X1086141Y-255915D01*
X1085761Y-256331D01*
X1085318Y-256581D01*
X1083734D01*
G01X1085318D02*
X1086268Y-258998D01*
G01X996501Y-249998D02*
X1191501D01*
G01X1034501Y-242498D02*
X1037001Y-234498D01*
X1039501Y-242498D01*
G01X1038601Y-239698D02*
X1035401D01*
G01X1043001Y-242498D02*
Y-234498D01*
X1045401D01*
X1046201Y-234898D01*
X1046801Y-235831D01*
X1047001Y-236898D01*
X1046801Y-237965D01*
X1046301Y-238765D01*
X1045401Y-239165D01*
X1043001D01*
G01X1051001Y-242498D02*
Y-234498D01*
X1053401D01*
X1054201Y-234898D01*
X1054801Y-235831D01*
X1055001Y-236898D01*
X1054801Y-237965D01*
X1054301Y-238765D01*
X1053401Y-239165D01*
X1051001D01*
G01X1059001Y-242498D02*
Y-234498D01*
X1061501D01*
X1062301Y-234898D01*
X1062801Y-235431D01*
X1063001Y-236498D01*
X1062801Y-237565D01*
X1062201Y-238231D01*
X1061501Y-238631D01*
X1059001D01*
G01X1061501D02*
X1063001Y-242498D01*
G01X1069001D02*
X1068201Y-242365D01*
X1067501Y-241831D01*
X1066901Y-241031D01*
X1066501Y-240098D01*
X1066301Y-239031D01*
Y-237965D01*
X1066501Y-236898D01*
X1066901Y-235965D01*
X1067501Y-235165D01*
X1068201Y-234631D01*
X1069001Y-234498D01*
X1069801Y-234631D01*
X1070501Y-235165D01*
X1071101Y-235965D01*
X1071501Y-236898D01*
X1071701Y-237965D01*
Y-239031D01*
X1071501Y-240098D01*
X1071101Y-241031D01*
X1070501Y-241831D01*
X1069801Y-242365D01*
X1069001Y-242498D01*
G01X1074501Y-234498D02*
X1077001Y-242498D01*
X1079501Y-234498D01*
G01X1082501Y-242498D02*
X1085001Y-234498D01*
X1087501Y-242498D01*
G01X1086601Y-239698D02*
X1083401D01*
G01X1091001Y-234498D02*
Y-242498D01*
X1095001D01*
G01X1061401Y1017502D02*
X1064401D01*
G01X1062901D02*
Y1007502D01*
G01X1061401D02*
X1064401D01*
G01X1069826D02*
Y1017502D01*
X1075576Y1007502D01*
Y1017502D01*
G01X1081001D02*
X1084001D01*
G01X1082501D02*
Y1007502D01*
G01X1081001D02*
X1084001D01*
G01X1092301Y1017502D02*
Y1007502D01*
G01X1089426Y1017502D02*
X1095176D01*
G01X1100601D02*
X1103601D01*
G01X1102101D02*
Y1007502D01*
G01X1100601D02*
X1103601D01*
G01X1108776D02*
X1111901Y1017502D01*
X1115026Y1007502D01*
G01X1113901Y1011002D02*
X1109901D01*
G01X1119201Y1017502D02*
Y1007502D01*
X1124201D01*
G01X1138801D02*
Y1017502D01*
X1141926D01*
X1142926Y1017002D01*
X1143551Y1016335D01*
X1143801Y1015002D01*
X1143551Y1013669D01*
X1142801Y1012835D01*
X1141926Y1012335D01*
X1138801D01*
G01X1141926D02*
X1143801Y1007502D01*
G01X1153601D02*
X1148601D01*
Y1017502D01*
X1153601D01*
G01X1151601Y1012669D02*
X1148601D01*
G01X1158401Y1017502D02*
Y1007502D01*
X1163401D01*
G01X1173201D02*
X1168201D01*
Y1017502D01*
X1173201D01*
G01X1171201Y1012669D02*
X1168201D01*
G01X1177376Y1007502D02*
X1180501Y1017502D01*
X1183626Y1007502D01*
G01X1182501Y1011002D02*
X1178501D01*
G01X1187676Y1008835D02*
X1188676Y1008002D01*
X1189801Y1007502D01*
X1190801D01*
X1191801Y1008002D01*
X1192551Y1008835D01*
X1192926Y1010002D01*
X1192676Y1011168D01*
X1192051Y1012169D01*
X1190926Y1012835D01*
X1189426Y1013169D01*
X1188551Y1013835D01*
X1188176Y1015002D01*
X1188426Y1016169D01*
X1189051Y1017002D01*
X1189926Y1017502D01*
X1190801D01*
X1191676Y1017169D01*
X1192426Y1016335D01*
G01X1202601Y1007502D02*
X1197601D01*
Y1017502D01*
X1202601D01*
G01X1200601Y1012669D02*
X1197601D01*
G01X1089901Y988502D02*
X1084901D01*
Y998502D01*
X1089901D01*
G01X1087901Y993669D02*
X1084901D01*
G01X1099951Y997669D02*
X1099201Y998169D01*
X1098326Y998502D01*
X1097326D01*
X1096201Y998002D01*
X1095326Y997169D01*
X1094701Y996169D01*
X1094201Y994502D01*
X1094076Y993002D01*
X1094326Y991502D01*
X1094701Y990502D01*
X1095451Y989502D01*
X1096326Y988835D01*
X1097201Y988502D01*
X1098076D01*
X1098951Y988835D01*
X1099701Y989335D01*
X1100326Y990002D01*
G01X1104501Y988502D02*
Y998502D01*
X1107626D01*
X1108626Y998002D01*
X1109251Y997335D01*
X1109501Y996002D01*
X1109251Y994669D01*
X1108501Y993835D01*
X1107626Y993335D01*
X1104501D01*
G01X1107626D02*
X1109501Y988502D01*
G01X1115176Y991835D02*
X1118426D01*
G01X1126601Y988502D02*
Y998502D01*
X1125101Y996502D01*
G01Y988502D02*
X1128101D01*
G01X1136401D02*
Y998502D01*
X1134901Y996502D01*
G01Y988502D02*
X1137901D01*
G01X1143451Y990002D02*
X1144201Y989169D01*
X1145076Y988669D01*
X1146201Y988502D01*
X1147326Y988835D01*
X1148201Y989502D01*
X1148826Y990669D01*
X1148951Y992002D01*
X1148701Y993335D01*
X1148076Y994169D01*
X1147201Y994835D01*
X1146326Y995002D01*
X1145451Y994835D01*
X1144326Y994169D01*
X1144701Y998502D01*
X1148076D01*
G01X1156001D02*
X1155001Y998169D01*
X1154251Y997335D01*
X1153751Y996335D01*
X1153376Y995002D01*
X1153251Y993502D01*
X1153376Y992002D01*
X1153751Y990669D01*
X1154251Y989668D01*
X1155001Y988835D01*
X1156001Y988502D01*
X1157001Y988835D01*
X1157751Y989668D01*
X1158251Y990669D01*
X1158626Y992002D01*
X1158751Y993502D01*
X1158626Y995002D01*
X1158251Y996335D01*
X1157751Y997335D01*
X1157001Y998169D01*
X1156001Y998502D01*
G01X1165801Y988502D02*
X1166676Y988669D01*
X1167676Y989169D01*
X1168301Y990002D01*
X1168551Y991169D01*
X1168301Y992335D01*
X1167551Y993335D01*
X1166426Y993835D01*
X1165176D01*
X1164426Y994169D01*
X1163801Y995002D01*
X1163551Y996169D01*
X1163926Y997335D01*
X1164801Y998169D01*
X1165801Y998502D01*
X1166801Y998169D01*
X1167676Y997335D01*
X1168051Y996169D01*
X1167801Y995002D01*
X1167176Y994169D01*
X1166426Y993835D01*
X1165176D01*
X1164051Y993335D01*
X1163301Y992335D01*
X1163051Y991169D01*
X1163301Y990002D01*
X1163926Y989169D01*
X1164926Y988669D01*
X1165801Y988502D01*
G01X1173476Y989668D02*
X1174351Y988835D01*
X1175351Y988502D01*
X1176351Y988835D01*
X1177226Y989835D01*
X1177851Y991335D01*
X1178101Y992835D01*
Y994669D01*
X1177851Y996169D01*
X1177226Y997502D01*
X1176476Y998169D01*
X1175601Y998502D01*
X1174601Y998169D01*
X1173851Y997502D01*
X1173351Y996502D01*
X1173101Y995168D01*
X1173351Y994002D01*
X1173976Y992835D01*
X1174726Y992168D01*
X1175601Y992002D01*
X1176601Y992335D01*
X1177351Y993169D01*
X1178101Y994669D01*
G01X1079751Y1032502D02*
Y1042502D01*
X1082251D01*
X1083251Y1042002D01*
X1084001Y1041335D01*
X1084626Y1040335D01*
X1085126Y1039168D01*
X1085251Y1037502D01*
X1085126Y1035835D01*
X1084626Y1034669D01*
X1084001Y1033668D01*
X1083251Y1033002D01*
X1082251Y1032502D01*
X1079751D01*
G01X1094801D02*
X1089801D01*
Y1042502D01*
X1094801D01*
G01X1092801Y1037669D02*
X1089801D01*
G01X1099476Y1033835D02*
X1100476Y1033002D01*
X1101601Y1032502D01*
X1102601D01*
X1103601Y1033002D01*
X1104351Y1033835D01*
X1104726Y1035002D01*
X1104476Y1036168D01*
X1103851Y1037169D01*
X1102726Y1037835D01*
X1101226Y1038169D01*
X1100351Y1038835D01*
X1099976Y1040002D01*
X1100226Y1041169D01*
X1100851Y1042002D01*
X1101726Y1042502D01*
X1102601D01*
X1103476Y1042169D01*
X1104226Y1041335D01*
G01X1114651Y1041669D02*
X1113901Y1042169D01*
X1113026Y1042502D01*
X1112026D01*
X1110901Y1042002D01*
X1110026Y1041169D01*
X1109401Y1040169D01*
X1108901Y1038502D01*
X1108776Y1037002D01*
X1109026Y1035502D01*
X1109401Y1034502D01*
X1110151Y1033502D01*
X1111026Y1032835D01*
X1111901Y1032502D01*
X1112776D01*
X1113651Y1032835D01*
X1114401Y1033335D01*
X1115026Y1034002D01*
G01X1119201Y1032502D02*
Y1042502D01*
X1122326D01*
X1123326Y1042002D01*
X1123951Y1041335D01*
X1124201Y1040002D01*
X1123951Y1038669D01*
X1123201Y1037835D01*
X1122326Y1037335D01*
X1119201D01*
G01X1122326D02*
X1124201Y1032502D01*
G01X1130001Y1042502D02*
X1133001D01*
G01X1131501D02*
Y1032502D01*
G01X1130001D02*
X1133001D01*
G01X1138801D02*
Y1042502D01*
X1141801D01*
X1142801Y1042002D01*
X1143551Y1040835D01*
X1143801Y1039502D01*
X1143551Y1038169D01*
X1142926Y1037169D01*
X1141801Y1036668D01*
X1138801D01*
G01X1151101Y1042502D02*
Y1032502D01*
G01X1148226Y1042502D02*
X1153976D01*
G01X1159401D02*
X1162401D01*
G01X1160901D02*
Y1032502D01*
G01X1159401D02*
X1162401D01*
G01X1170701D02*
X1169701Y1032669D01*
X1168826Y1033335D01*
X1168076Y1034335D01*
X1167576Y1035502D01*
X1167326Y1036835D01*
Y1038169D01*
X1167576Y1039502D01*
X1168076Y1040669D01*
X1168826Y1041669D01*
X1169701Y1042335D01*
X1170701Y1042502D01*
X1171701Y1042335D01*
X1172576Y1041669D01*
X1173326Y1040669D01*
X1173826Y1039502D01*
X1174076Y1038169D01*
Y1036835D01*
X1173826Y1035502D01*
X1173326Y1034335D01*
X1172576Y1033335D01*
X1171701Y1032669D01*
X1170701Y1032502D01*
G01X1177626D02*
Y1042502D01*
X1183376Y1032502D01*
Y1042502D01*
G01X1089801Y1057502D02*
Y1067502D01*
X1092926D01*
X1093926Y1067002D01*
X1094551Y1066335D01*
X1094801Y1065002D01*
X1094551Y1063669D01*
X1093801Y1062835D01*
X1092926Y1062335D01*
X1089801D01*
G01X1092926D02*
X1094801Y1057502D01*
G01X1104601D02*
X1099601D01*
Y1067502D01*
X1104601D01*
G01X1102601Y1062669D02*
X1099601D01*
G01X1108776Y1067502D02*
X1111901Y1057502D01*
X1115026Y1067502D01*
G01X1120201D02*
X1123201D01*
G01X1121701D02*
Y1057502D01*
G01X1120201D02*
X1123201D01*
G01X1128876Y1058835D02*
X1129876Y1058002D01*
X1131001Y1057502D01*
X1132001D01*
X1133001Y1058002D01*
X1133751Y1058835D01*
X1134126Y1060002D01*
X1133876Y1061168D01*
X1133251Y1062169D01*
X1132126Y1062835D01*
X1130626Y1063169D01*
X1129751Y1063835D01*
X1129376Y1065002D01*
X1129626Y1066169D01*
X1130251Y1067002D01*
X1131126Y1067502D01*
X1132001D01*
X1132876Y1067169D01*
X1133626Y1066335D01*
G01X1139801Y1067502D02*
X1142801D01*
G01X1141301D02*
Y1057502D01*
G01X1139801D02*
X1142801D01*
G01X1151101D02*
X1150101Y1057669D01*
X1149226Y1058335D01*
X1148476Y1059335D01*
X1147976Y1060502D01*
X1147726Y1061835D01*
Y1063169D01*
X1147976Y1064502D01*
X1148476Y1065669D01*
X1149226Y1066669D01*
X1150101Y1067335D01*
X1151101Y1067502D01*
X1152101Y1067335D01*
X1152976Y1066669D01*
X1153726Y1065669D01*
X1154226Y1064502D01*
X1154476Y1063169D01*
Y1061835D01*
X1154226Y1060502D01*
X1153726Y1059335D01*
X1152976Y1058335D01*
X1152101Y1057669D01*
X1151101Y1057502D01*
G01X1158026D02*
Y1067502D01*
X1163776Y1057502D01*
Y1067502D01*
G01X1168076Y1058835D02*
X1169076Y1058002D01*
X1170201Y1057502D01*
X1171201D01*
X1172201Y1058002D01*
X1172951Y1058835D01*
X1173326Y1060002D01*
X1173076Y1061168D01*
X1172451Y1062169D01*
X1171326Y1062835D01*
X1169826Y1063169D01*
X1168951Y1063835D01*
X1168576Y1065002D01*
X1168826Y1066169D01*
X1169451Y1067002D01*
X1170326Y1067502D01*
X1171201D01*
X1172076Y1067169D01*
X1172826Y1066335D01*
G01X1126501Y-224998D02*
Y-524998D01*
G01X1131201Y-495998D02*
Y-487998D01*
X1135801Y-495998D01*
Y-487998D01*
G01X1139701Y-496265D02*
X1143301Y-487998D01*
G01X1147001Y-495998D02*
X1149501Y-487998D01*
X1152001Y-495998D01*
G01X1151101Y-493198D02*
X1147901D01*
G01X1133501Y-462998D02*
X1132701Y-463265D01*
X1132101Y-463931D01*
X1131701Y-464731D01*
X1131401Y-465798D01*
X1131301Y-466998D01*
X1131401Y-468198D01*
X1131701Y-469265D01*
X1132101Y-470065D01*
X1132701Y-470731D01*
X1133501Y-470998D01*
X1134301Y-470731D01*
X1134901Y-470065D01*
X1135301Y-469265D01*
X1135601Y-468198D01*
X1135701Y-466998D01*
X1135601Y-465798D01*
X1135301Y-464731D01*
X1134901Y-463931D01*
X1134301Y-463265D01*
X1133501Y-462998D01*
G01X1139601Y-467665D02*
X1140301Y-466731D01*
X1140901Y-466198D01*
X1141701Y-465931D01*
X1142401Y-466198D01*
X1142901Y-466731D01*
X1143301Y-467531D01*
X1143401Y-468465D01*
X1143301Y-469265D01*
X1142901Y-470065D01*
X1142301Y-470731D01*
X1141601Y-470998D01*
X1140801Y-470731D01*
X1140101Y-469932D01*
X1139701Y-468731D01*
X1139601Y-467398D01*
X1139801Y-465665D01*
X1140101Y-464731D01*
X1140601Y-463798D01*
X1141301Y-463131D01*
X1142001Y-462998D01*
X1142701Y-463265D01*
X1143201Y-463931D01*
G01X1146901Y-470998D02*
Y-462998D01*
X1149501Y-469665D01*
X1152101Y-462998D01*
Y-470998D01*
G01X1155001D02*
X1157501Y-462998D01*
X1160001Y-470998D01*
G01X1159101Y-468198D02*
X1155901D01*
G01X1163501Y-470998D02*
Y-462998D01*
X1166001D01*
X1166801Y-463398D01*
X1167301Y-463931D01*
X1167501Y-464998D01*
X1167301Y-466065D01*
X1166701Y-466731D01*
X1166001Y-467131D01*
X1163501D01*
G01X1166001D02*
X1167501Y-470998D01*
G01X1171601Y-464331D02*
X1172201Y-463531D01*
X1172901Y-463131D01*
X1173701Y-462998D01*
X1174701Y-463265D01*
X1175401Y-463931D01*
X1175601Y-464731D01*
X1175501Y-465532D01*
X1175101Y-466198D01*
X1173101Y-467531D01*
X1172201Y-468465D01*
X1171601Y-469798D01*
X1171401Y-470998D01*
X1175601D01*
G01X1179301Y-469398D02*
X1179901Y-470331D01*
X1180701Y-470865D01*
X1181601Y-470998D01*
X1182401Y-470865D01*
X1183201Y-470198D01*
X1183701Y-469398D01*
X1183801Y-468598D01*
X1183601Y-467665D01*
X1182901Y-466998D01*
X1182201Y-466731D01*
X1181301D01*
G01X1182201D02*
X1182801Y-466331D01*
X1183301Y-465665D01*
X1183501Y-464865D01*
X1183301Y-464065D01*
X1182801Y-463398D01*
X1181901Y-462998D01*
X1181001Y-463131D01*
X1180101Y-463665D01*
G01X1133501Y-437998D02*
X1132701Y-438265D01*
X1132101Y-438931D01*
X1131701Y-439731D01*
X1131401Y-440798D01*
X1131301Y-441998D01*
X1131401Y-443198D01*
X1131701Y-444265D01*
X1132101Y-445065D01*
X1132701Y-445731D01*
X1133501Y-445998D01*
X1134301Y-445731D01*
X1134901Y-445065D01*
X1135301Y-444265D01*
X1135601Y-443198D01*
X1135701Y-441998D01*
X1135601Y-440798D01*
X1135301Y-439731D01*
X1134901Y-438931D01*
X1134301Y-438265D01*
X1133501Y-437998D01*
G01X1139601Y-442665D02*
X1140301Y-441731D01*
X1140901Y-441198D01*
X1141701Y-440931D01*
X1142401Y-441198D01*
X1142901Y-441731D01*
X1143301Y-442531D01*
X1143401Y-443465D01*
X1143301Y-444265D01*
X1142901Y-445065D01*
X1142301Y-445731D01*
X1141601Y-445998D01*
X1140801Y-445731D01*
X1140101Y-444932D01*
X1139701Y-443731D01*
X1139601Y-442398D01*
X1139801Y-440665D01*
X1140101Y-439731D01*
X1140601Y-438798D01*
X1141301Y-438131D01*
X1142001Y-437998D01*
X1142701Y-438265D01*
X1143201Y-438931D01*
G01X1146901Y-445998D02*
Y-437998D01*
X1149501Y-444665D01*
X1152101Y-437998D01*
Y-445998D01*
G01X1155001D02*
X1157501Y-437998D01*
X1160001Y-445998D01*
G01X1159101Y-443198D02*
X1155901D01*
G01X1163501Y-445998D02*
Y-437998D01*
X1166001D01*
X1166801Y-438398D01*
X1167301Y-438931D01*
X1167501Y-439998D01*
X1167301Y-441065D01*
X1166701Y-441731D01*
X1166001Y-442131D01*
X1163501D01*
G01X1166001D02*
X1167501Y-445998D01*
G01X1171601Y-439331D02*
X1172201Y-438531D01*
X1172901Y-438131D01*
X1173701Y-437998D01*
X1174701Y-438265D01*
X1175401Y-438931D01*
X1175601Y-439731D01*
X1175501Y-440532D01*
X1175101Y-441198D01*
X1173101Y-442531D01*
X1172201Y-443465D01*
X1171601Y-444798D01*
X1171401Y-445998D01*
X1175601D01*
G01X1179301Y-444398D02*
X1179901Y-445331D01*
X1180701Y-445865D01*
X1181601Y-445998D01*
X1182401Y-445865D01*
X1183201Y-445198D01*
X1183701Y-444398D01*
X1183801Y-443598D01*
X1183601Y-442665D01*
X1182901Y-441998D01*
X1182201Y-441731D01*
X1181301D01*
G01X1182201D02*
X1182801Y-441331D01*
X1183301Y-440665D01*
X1183501Y-439865D01*
X1183301Y-439065D01*
X1182801Y-438398D01*
X1181901Y-437998D01*
X1181001Y-438131D01*
X1180101Y-438665D01*
G01X1133501Y-412998D02*
X1132701Y-413265D01*
X1132101Y-413931D01*
X1131701Y-414731D01*
X1131401Y-415798D01*
X1131301Y-416998D01*
X1131401Y-418198D01*
X1131701Y-419265D01*
X1132101Y-420065D01*
X1132701Y-420731D01*
X1133501Y-420998D01*
X1134301Y-420731D01*
X1134901Y-420065D01*
X1135301Y-419265D01*
X1135601Y-418198D01*
X1135701Y-416998D01*
X1135601Y-415798D01*
X1135301Y-414731D01*
X1134901Y-413931D01*
X1134301Y-413265D01*
X1133501Y-412998D01*
G01X1139601Y-417665D02*
X1140301Y-416731D01*
X1140901Y-416198D01*
X1141701Y-415931D01*
X1142401Y-416198D01*
X1142901Y-416731D01*
X1143301Y-417531D01*
X1143401Y-418465D01*
X1143301Y-419265D01*
X1142901Y-420065D01*
X1142301Y-420731D01*
X1141601Y-420998D01*
X1140801Y-420731D01*
X1140101Y-419932D01*
X1139701Y-418731D01*
X1139601Y-417398D01*
X1139801Y-415665D01*
X1140101Y-414731D01*
X1140601Y-413798D01*
X1141301Y-413131D01*
X1142001Y-412998D01*
X1142701Y-413265D01*
X1143201Y-413931D01*
G01X1146901Y-420998D02*
Y-412998D01*
X1149501Y-419665D01*
X1152101Y-412998D01*
Y-420998D01*
G01X1155001D02*
X1157501Y-412998D01*
X1160001Y-420998D01*
G01X1159101Y-418198D02*
X1155901D01*
G01X1163501Y-420998D02*
Y-412998D01*
X1166001D01*
X1166801Y-413398D01*
X1167301Y-413931D01*
X1167501Y-414998D01*
X1167301Y-416065D01*
X1166701Y-416731D01*
X1166001Y-417131D01*
X1163501D01*
G01X1166001D02*
X1167501Y-420998D01*
G01X1171601Y-414331D02*
X1172201Y-413531D01*
X1172901Y-413131D01*
X1173701Y-412998D01*
X1174701Y-413265D01*
X1175401Y-413931D01*
X1175601Y-414731D01*
X1175501Y-415532D01*
X1175101Y-416198D01*
X1173101Y-417531D01*
X1172201Y-418465D01*
X1171601Y-419798D01*
X1171401Y-420998D01*
X1175601D01*
G01X1179301Y-419398D02*
X1179901Y-420331D01*
X1180701Y-420865D01*
X1181601Y-420998D01*
X1182401Y-420865D01*
X1183201Y-420198D01*
X1183701Y-419398D01*
X1183801Y-418598D01*
X1183601Y-417665D01*
X1182901Y-416998D01*
X1182201Y-416731D01*
X1181301D01*
G01X1182201D02*
X1182801Y-416331D01*
X1183301Y-415665D01*
X1183501Y-414865D01*
X1183301Y-414065D01*
X1182801Y-413398D01*
X1181901Y-412998D01*
X1181001Y-413131D01*
X1180101Y-413665D01*
G01X1131201Y-395998D02*
Y-387998D01*
X1135801Y-395998D01*
Y-387998D01*
G01X1139701Y-396265D02*
X1143301Y-387998D01*
G01X1147001Y-395998D02*
X1149501Y-387998D01*
X1152001Y-395998D01*
G01X1151101Y-393198D02*
X1147901D01*
G01X1133501Y-362998D02*
X1132701Y-363265D01*
X1132101Y-363931D01*
X1131701Y-364731D01*
X1131401Y-365798D01*
X1131301Y-366998D01*
X1131401Y-368198D01*
X1131701Y-369265D01*
X1132101Y-370065D01*
X1132701Y-370731D01*
X1133501Y-370998D01*
X1134301Y-370731D01*
X1134901Y-370065D01*
X1135301Y-369265D01*
X1135601Y-368198D01*
X1135701Y-366998D01*
X1135601Y-365798D01*
X1135301Y-364731D01*
X1134901Y-363931D01*
X1134301Y-363265D01*
X1133501Y-362998D01*
G01X1139601Y-367665D02*
X1140301Y-366731D01*
X1140901Y-366198D01*
X1141701Y-365931D01*
X1142401Y-366198D01*
X1142901Y-366731D01*
X1143301Y-367531D01*
X1143401Y-368465D01*
X1143301Y-369265D01*
X1142901Y-370065D01*
X1142301Y-370731D01*
X1141601Y-370998D01*
X1140801Y-370731D01*
X1140101Y-369932D01*
X1139701Y-368731D01*
X1139601Y-367398D01*
X1139801Y-365665D01*
X1140101Y-364731D01*
X1140601Y-363798D01*
X1141301Y-363131D01*
X1142001Y-362998D01*
X1142701Y-363265D01*
X1143201Y-363931D01*
G01X1146901Y-370998D02*
Y-362998D01*
X1149501Y-369665D01*
X1152101Y-362998D01*
Y-370998D01*
G01X1155001D02*
X1157501Y-362998D01*
X1160001Y-370998D01*
G01X1159101Y-368198D02*
X1155901D01*
G01X1163501Y-370998D02*
Y-362998D01*
X1166001D01*
X1166801Y-363398D01*
X1167301Y-363931D01*
X1167501Y-364998D01*
X1167301Y-366065D01*
X1166701Y-366731D01*
X1166001Y-367131D01*
X1163501D01*
G01X1166001D02*
X1167501Y-370998D01*
G01X1171601Y-364331D02*
X1172201Y-363531D01*
X1172901Y-363131D01*
X1173701Y-362998D01*
X1174701Y-363265D01*
X1175401Y-363931D01*
X1175601Y-364731D01*
X1175501Y-365532D01*
X1175101Y-366198D01*
X1173101Y-367531D01*
X1172201Y-368465D01*
X1171601Y-369798D01*
X1171401Y-370998D01*
X1175601D01*
G01X1179301Y-369398D02*
X1179901Y-370331D01*
X1180701Y-370865D01*
X1181601Y-370998D01*
X1182401Y-370865D01*
X1183201Y-370198D01*
X1183701Y-369398D01*
X1183801Y-368598D01*
X1183601Y-367665D01*
X1182901Y-366998D01*
X1182201Y-366731D01*
X1181301D01*
G01X1182201D02*
X1182801Y-366331D01*
X1183301Y-365665D01*
X1183501Y-364865D01*
X1183301Y-364065D01*
X1182801Y-363398D01*
X1181901Y-362998D01*
X1181001Y-363131D01*
X1180101Y-363665D01*
G01X1131201Y-345998D02*
Y-337998D01*
X1135801Y-345998D01*
Y-337998D01*
G01X1139701Y-346265D02*
X1143301Y-337998D01*
G01X1147001Y-345998D02*
X1149501Y-337998D01*
X1152001Y-345998D01*
G01X1151101Y-343198D02*
X1147901D01*
G01X1131201Y-320998D02*
Y-312998D01*
X1135801Y-320998D01*
Y-312998D01*
G01X1139701Y-321265D02*
X1143301Y-312998D01*
G01X1147001Y-320998D02*
X1149501Y-312998D01*
X1152001Y-320998D01*
G01X1151101Y-318198D02*
X1147901D01*
G01X1133501Y-287998D02*
X1132701Y-288265D01*
X1132101Y-288931D01*
X1131701Y-289731D01*
X1131401Y-290798D01*
X1131301Y-291998D01*
X1131401Y-293198D01*
X1131701Y-294265D01*
X1132101Y-295065D01*
X1132701Y-295731D01*
X1133501Y-295998D01*
X1134301Y-295731D01*
X1134901Y-295065D01*
X1135301Y-294265D01*
X1135601Y-293198D01*
X1135701Y-291998D01*
X1135601Y-290798D01*
X1135301Y-289731D01*
X1134901Y-288931D01*
X1134301Y-288265D01*
X1133501Y-287998D01*
G01X1139601Y-292665D02*
X1140301Y-291731D01*
X1140901Y-291198D01*
X1141701Y-290931D01*
X1142401Y-291198D01*
X1142901Y-291731D01*
X1143301Y-292531D01*
X1143401Y-293465D01*
X1143301Y-294265D01*
X1142901Y-295065D01*
X1142301Y-295731D01*
X1141601Y-295998D01*
X1140801Y-295731D01*
X1140101Y-294932D01*
X1139701Y-293731D01*
X1139601Y-292398D01*
X1139801Y-290665D01*
X1140101Y-289731D01*
X1140601Y-288798D01*
X1141301Y-288131D01*
X1142001Y-287998D01*
X1142701Y-288265D01*
X1143201Y-288931D01*
G01X1146901Y-295998D02*
Y-287998D01*
X1149501Y-294665D01*
X1152101Y-287998D01*
Y-295998D01*
G01X1155001D02*
X1157501Y-287998D01*
X1160001Y-295998D01*
G01X1159101Y-293198D02*
X1155901D01*
G01X1163501Y-295998D02*
Y-287998D01*
X1166001D01*
X1166801Y-288398D01*
X1167301Y-288931D01*
X1167501Y-289998D01*
X1167301Y-291065D01*
X1166701Y-291731D01*
X1166001Y-292131D01*
X1163501D01*
G01X1166001D02*
X1167501Y-295998D01*
G01X1171601Y-289331D02*
X1172201Y-288531D01*
X1172901Y-288131D01*
X1173701Y-287998D01*
X1174701Y-288265D01*
X1175401Y-288931D01*
X1175601Y-289731D01*
X1175501Y-290532D01*
X1175101Y-291198D01*
X1173101Y-292531D01*
X1172201Y-293465D01*
X1171601Y-294798D01*
X1171401Y-295998D01*
X1175601D01*
G01X1179301Y-294398D02*
X1179901Y-295331D01*
X1180701Y-295865D01*
X1181601Y-295998D01*
X1182401Y-295865D01*
X1183201Y-295198D01*
X1183701Y-294398D01*
X1183801Y-293598D01*
X1183601Y-292665D01*
X1182901Y-291998D01*
X1182201Y-291731D01*
X1181301D01*
G01X1182201D02*
X1182801Y-291331D01*
X1183301Y-290665D01*
X1183501Y-289865D01*
X1183301Y-289065D01*
X1182801Y-288398D01*
X1181901Y-287998D01*
X1181001Y-288131D01*
X1180101Y-288665D01*
G01X1131201Y-270998D02*
Y-262998D01*
X1135801Y-270998D01*
Y-262998D01*
G01X1139701Y-271265D02*
X1143301Y-262998D01*
G01X1147001Y-270998D02*
X1149501Y-262998D01*
X1152001Y-270998D01*
G01X1151101Y-268198D02*
X1147901D01*
G01X1141501Y-524998D02*
Y-554998D01*
G01X1147301Y-242498D02*
Y-234498D01*
X1149301D01*
X1150101Y-234898D01*
X1150701Y-235431D01*
X1151201Y-236231D01*
X1151601Y-237165D01*
X1151701Y-238498D01*
X1151601Y-239831D01*
X1151201Y-240765D01*
X1150701Y-241565D01*
X1150101Y-242098D01*
X1149301Y-242498D01*
X1147301D01*
G01X1155001D02*
X1157501Y-234498D01*
X1160001Y-242498D01*
G01X1159101Y-239698D02*
X1155901D01*
G01X1165501Y-234498D02*
Y-242498D01*
G01X1163201Y-234498D02*
X1167801D01*
G01X1175501Y-242498D02*
X1171501D01*
Y-234498D01*
X1175501D01*
G01X1173901Y-238365D02*
X1171501D01*
G01X1141501Y1075002D02*
Y1105002D01*
G01X1202401Y-516432D02*
X1203201Y-517098D01*
X1204101Y-517498D01*
X1204901D01*
X1205701Y-517098D01*
X1206301Y-516432D01*
X1206601Y-515498D01*
X1206401Y-514565D01*
X1205901Y-513765D01*
X1205001Y-513231D01*
X1203801Y-512965D01*
X1203101Y-512431D01*
X1202801Y-511498D01*
X1203001Y-510565D01*
X1203501Y-509898D01*
X1204201Y-509498D01*
X1204901D01*
X1205601Y-509765D01*
X1206201Y-510431D01*
G01X1214701Y-510165D02*
X1214101Y-509765D01*
X1213401Y-509498D01*
X1212601D01*
X1211701Y-509898D01*
X1211001Y-510565D01*
X1210501Y-511365D01*
X1210101Y-512698D01*
X1210001Y-513898D01*
X1210201Y-515098D01*
X1210501Y-515898D01*
X1211101Y-516698D01*
X1211801Y-517231D01*
X1212501Y-517498D01*
X1213201D01*
X1213901Y-517231D01*
X1214501Y-516831D01*
X1215001Y-516298D01*
G01X1218001Y-517498D02*
X1220501Y-509498D01*
X1223001Y-517498D01*
G01X1222101Y-514698D02*
X1218901D01*
G01X1226501Y-509498D02*
Y-517498D01*
X1230501D01*
G01X1238501D02*
X1234501D01*
Y-509498D01*
X1238501D01*
G01X1236901Y-513365D02*
X1234501D01*
G01X1191501Y-524998D02*
Y-224998D01*
G01X1202401Y-443932D02*
X1203201Y-444598D01*
X1204101Y-444998D01*
X1204901D01*
X1205701Y-444598D01*
X1206301Y-443932D01*
X1206601Y-442998D01*
X1206401Y-442065D01*
X1205901Y-441265D01*
X1205001Y-440731D01*
X1203801Y-440465D01*
X1203101Y-439931D01*
X1202801Y-438998D01*
X1203001Y-438065D01*
X1203501Y-437398D01*
X1204201Y-436998D01*
X1204901D01*
X1205601Y-437265D01*
X1206201Y-437931D01*
G01X1211301Y-436998D02*
X1213701D01*
G01X1212501D02*
Y-444998D01*
G01X1211301D02*
X1213701D01*
G01X1218601Y-436998D02*
X1222401D01*
X1218601Y-444998D01*
X1222401D01*
G01X1230501D02*
X1226501D01*
Y-436998D01*
X1230501D01*
G01X1228901Y-440865D02*
X1226501D01*
G01X1204501Y-312998D02*
Y-320998D01*
G01X1202201Y-312998D02*
X1206801D01*
G01X1211301D02*
X1213701D01*
G01X1212501D02*
Y-320998D01*
G01X1211301D02*
X1213701D01*
G01X1220501Y-312998D02*
Y-320998D01*
G01X1218201Y-312998D02*
X1222801D01*
G01X1226501D02*
Y-320998D01*
X1230501D01*
G01X1238501D02*
X1234501D01*
Y-312998D01*
X1238501D01*
G01X1236901Y-316865D02*
X1234501D01*
G01X1222001Y-466665D02*
X1220501Y-465665D01*
X1218751Y-464998D01*
X1216751D01*
X1214501Y-465998D01*
X1212751Y-467665D01*
X1211501Y-469665D01*
X1210501Y-472998D01*
X1210251Y-475998D01*
X1210751Y-478998D01*
X1211501Y-480998D01*
X1213001Y-482998D01*
X1214751Y-484331D01*
X1216501Y-484998D01*
X1218251D01*
X1220001Y-484331D01*
X1221501Y-483332D01*
X1222751Y-481999D01*
G01X1246751Y-468331D02*
X1248251Y-466332D01*
X1250001Y-465331D01*
X1252001Y-464998D01*
X1254501Y-465665D01*
X1256251Y-467331D01*
X1256751Y-469331D01*
X1256501Y-471332D01*
X1255501Y-472998D01*
X1250501Y-476331D01*
X1248251Y-478665D01*
X1246751Y-481999D01*
X1246251Y-484998D01*
X1256751D01*
G01X1274501D02*
Y-464998D01*
X1265251Y-479331D01*
X1277751D01*
G01X1286001Y-480998D02*
X1287501Y-483332D01*
X1289501Y-484665D01*
X1291751Y-484998D01*
X1293751Y-484665D01*
X1295751Y-482998D01*
X1297001Y-480998D01*
X1297251Y-478998D01*
X1296751Y-476665D01*
X1295001Y-474998D01*
X1293251Y-474331D01*
X1291001D01*
G01X1293251D02*
X1294751Y-473331D01*
X1296001Y-471665D01*
X1296501Y-469665D01*
X1296001Y-467665D01*
X1294751Y-465998D01*
X1292501Y-464998D01*
X1290251Y-465331D01*
X1288001Y-466665D01*
G01X1306001Y-481999D02*
X1307501Y-483665D01*
X1309251Y-484665D01*
X1311501Y-484998D01*
X1313751Y-484331D01*
X1315501Y-482998D01*
X1316751Y-480665D01*
X1317001Y-477998D01*
X1316501Y-475332D01*
X1315251Y-473665D01*
X1313501Y-472332D01*
X1311751Y-471998D01*
X1310001Y-472332D01*
X1307751Y-473665D01*
X1308501Y-464998D01*
X1315251D01*
G01X1326001Y-481999D02*
X1327501Y-483665D01*
X1329251Y-484665D01*
X1331501Y-484998D01*
X1333751Y-484331D01*
X1335501Y-482998D01*
X1336751Y-480665D01*
X1337001Y-477998D01*
X1336501Y-475332D01*
X1335251Y-473665D01*
X1333501Y-472332D01*
X1331751Y-471998D01*
X1330001Y-472332D01*
X1327751Y-473665D01*
X1328501Y-464998D01*
X1335251D01*
G01X1241501Y-499998D02*
Y-424998D01*
G01X1257601Y-444998D02*
Y-436998D01*
X1261401D01*
G01X1260001Y-440865D02*
X1257601D01*
G01X1265401Y-443932D02*
X1266201Y-444598D01*
X1267101Y-444998D01*
X1267901D01*
X1268701Y-444598D01*
X1269301Y-443932D01*
X1269601Y-442998D01*
X1269401Y-442065D01*
X1268901Y-441265D01*
X1268001Y-440731D01*
X1266801Y-440465D01*
X1266101Y-439931D01*
X1265801Y-438998D01*
X1266001Y-438065D01*
X1266501Y-437398D01*
X1267201Y-436998D01*
X1267901D01*
X1268601Y-437265D01*
X1269201Y-437931D01*
G01X1277701Y-437665D02*
X1277101Y-437265D01*
X1276401Y-436998D01*
X1275601D01*
X1274701Y-437398D01*
X1274001Y-438065D01*
X1273501Y-438865D01*
X1273101Y-440198D01*
X1273001Y-441398D01*
X1273201Y-442598D01*
X1273501Y-443398D01*
X1274101Y-444198D01*
X1274801Y-444731D01*
X1275501Y-444998D01*
X1276201D01*
X1276901Y-444731D01*
X1277501Y-444331D01*
X1278001Y-443798D01*
G01X1280901Y-444998D02*
Y-436998D01*
X1283501Y-443665D01*
X1286101Y-436998D01*
Y-444998D01*
G01X1297201D02*
Y-436998D01*
X1301801Y-444998D01*
Y-436998D01*
G01X1307501Y-444998D02*
X1306701Y-444865D01*
X1306001Y-444331D01*
X1305401Y-443531D01*
X1305001Y-442598D01*
X1304801Y-441531D01*
Y-440465D01*
X1305001Y-439398D01*
X1305401Y-438465D01*
X1306001Y-437665D01*
X1306701Y-437131D01*
X1307501Y-436998D01*
X1308301Y-437131D01*
X1309001Y-437665D01*
X1309601Y-438465D01*
X1310001Y-439398D01*
X1310201Y-440465D01*
Y-441531D01*
X1310001Y-442598D01*
X1309601Y-443531D01*
X1309001Y-444331D01*
X1308301Y-444865D01*
X1307501Y-444998D01*
G01X1280251Y-517498D02*
Y-507498D01*
X1278751Y-509498D01*
G01Y-517498D02*
X1281751D01*
G01X1287801Y-517831D02*
X1292301Y-507498D01*
G01X1299851Y-517498D02*
Y-507498D01*
X1298351Y-509498D01*
G01Y-517498D02*
X1301351D01*
G01X1280201Y-374998D02*
X1270801D01*
Y-356198D01*
X1280201D01*
G01X1276441Y-365284D02*
X1270801D01*
G01X1288426Y-356198D02*
X1294301Y-374998D01*
X1300176Y-356198D01*
G01X1307226Y-374998D02*
X1313101Y-356198D01*
X1318976Y-374998D01*
G01X1316861Y-368418D02*
X1309341D01*
G01X1327201Y-356198D02*
Y-374998D01*
X1336601D01*
G01X1347646Y-368732D02*
X1353756D01*
G01X1374671Y-357765D02*
X1373261Y-356825D01*
X1371616Y-356198D01*
X1369736D01*
X1367621Y-357138D01*
X1365976Y-358705D01*
X1364801Y-360585D01*
X1363861Y-363718D01*
X1363626Y-366538D01*
X1364096Y-369358D01*
X1364801Y-371238D01*
X1366211Y-373118D01*
X1367856Y-374371D01*
X1369501Y-374998D01*
X1371146D01*
X1372791Y-374371D01*
X1374201Y-373432D01*
X1375376Y-372179D01*
G01X1382896Y-374998D02*
Y-356198D01*
X1393706Y-374998D01*
Y-356198D01*
G01X1407101D02*
X1405221Y-356825D01*
X1403811Y-358391D01*
X1402871Y-360271D01*
X1402166Y-362778D01*
X1401931Y-365598D01*
X1402166Y-368418D01*
X1402871Y-370925D01*
X1403811Y-372805D01*
X1405221Y-374371D01*
X1407101Y-374998D01*
X1408981Y-374371D01*
X1410391Y-372805D01*
X1411331Y-370925D01*
X1412036Y-368418D01*
X1412271Y-365598D01*
X1412036Y-362778D01*
X1411331Y-360271D01*
X1410391Y-358391D01*
X1408981Y-356825D01*
X1407101Y-356198D01*
G01X1420731Y-372179D02*
X1422141Y-373745D01*
X1423786Y-374685D01*
X1425901Y-374998D01*
X1428016Y-374371D01*
X1429661Y-373118D01*
X1430836Y-370925D01*
X1431071Y-368418D01*
X1430601Y-365912D01*
X1429426Y-364345D01*
X1427781Y-363092D01*
X1426136Y-362778D01*
X1424491Y-363092D01*
X1422376Y-364345D01*
X1423081Y-356198D01*
X1429426D01*
G01X1440236Y-367165D02*
X1441881Y-364971D01*
X1443291Y-363718D01*
X1445171Y-363092D01*
X1446816Y-363718D01*
X1447991Y-364971D01*
X1448931Y-366851D01*
X1449166Y-369045D01*
X1448931Y-370925D01*
X1447991Y-372805D01*
X1446581Y-374371D01*
X1444936Y-374998D01*
X1443056Y-374371D01*
X1441411Y-372492D01*
X1440471Y-369671D01*
X1440236Y-366538D01*
X1440706Y-362465D01*
X1441411Y-360271D01*
X1442586Y-358078D01*
X1444231Y-356511D01*
X1445876Y-356198D01*
X1447521Y-356825D01*
X1448696Y-358391D01*
G01X1458331Y-372179D02*
X1459741Y-373745D01*
X1461386Y-374685D01*
X1463501Y-374998D01*
X1465616Y-374371D01*
X1467261Y-373118D01*
X1468436Y-370925D01*
X1468671Y-368418D01*
X1468201Y-365912D01*
X1467026Y-364345D01*
X1465381Y-363092D01*
X1463736Y-362778D01*
X1462091Y-363092D01*
X1459976Y-364345D01*
X1460681Y-356198D01*
X1467026D01*
G01X1479246Y-368732D02*
X1485356D01*
G01X1495226Y-374998D02*
X1501101Y-356198D01*
X1506976Y-374998D01*
G01X1504861Y-368418D02*
X1497341D01*
G01X1515201Y-374998D02*
Y-356198D01*
X1521076D01*
X1522956Y-357138D01*
X1524131Y-358391D01*
X1524601Y-360898D01*
X1524131Y-363405D01*
X1522721Y-364971D01*
X1521076Y-365912D01*
X1515201D01*
G01X1521076D02*
X1524601Y-374998D01*
G01X1533531D02*
Y-356198D01*
X1538231D01*
X1540111Y-357138D01*
X1541521Y-358391D01*
X1542696Y-360271D01*
X1543636Y-362465D01*
X1543871Y-365598D01*
X1543636Y-368732D01*
X1542696Y-370925D01*
X1541521Y-372805D01*
X1540111Y-374058D01*
X1538231Y-374998D01*
X1533531D01*
G01X1553036Y-356198D02*
X1561966D01*
X1553036Y-374998D01*
X1561966D01*
G01X1318036Y-342498D02*
Y-323698D01*
X1326966D01*
G01X1323676Y-332784D02*
X1318036D01*
G01X1335426Y-342498D02*
X1341301Y-323698D01*
X1347176Y-342498D01*
G01X1345061Y-335918D02*
X1337541D01*
G01X1361981Y-332471D02*
X1362921Y-331531D01*
X1363626Y-329965D01*
X1364096Y-327771D01*
X1363626Y-325891D01*
X1362686Y-324638D01*
X1361041Y-323698D01*
X1354696D01*
Y-342498D01*
X1362451D01*
X1364096Y-341245D01*
X1365036Y-339365D01*
X1365506Y-337171D01*
X1365036Y-334978D01*
X1363626Y-333098D01*
X1361981Y-332471D01*
X1354696D01*
G01X1374201Y-342498D02*
Y-323698D01*
X1380076D01*
X1381956Y-324638D01*
X1383131Y-325891D01*
X1383601Y-328398D01*
X1383131Y-330905D01*
X1381721Y-332471D01*
X1380076Y-333412D01*
X1374201D01*
G01X1380076D02*
X1383601Y-342498D01*
G01X1394881Y-323698D02*
X1400521D01*
G01X1397701D02*
Y-342498D01*
G01X1394881D02*
X1400521D01*
G01X1421671Y-325265D02*
X1420261Y-324325D01*
X1418616Y-323698D01*
X1416736D01*
X1414621Y-324638D01*
X1412976Y-326205D01*
X1411801Y-328085D01*
X1410861Y-331218D01*
X1410626Y-334038D01*
X1411096Y-336858D01*
X1411801Y-338738D01*
X1413211Y-340618D01*
X1414856Y-341871D01*
X1416501Y-342498D01*
X1418146D01*
X1419791Y-341871D01*
X1421201Y-340932D01*
X1422376Y-339679D01*
G01X1429426Y-342498D02*
X1435301Y-323698D01*
X1441176Y-342498D01*
G01X1439061Y-335918D02*
X1431541D01*
G01X1454101Y-323698D02*
Y-342498D01*
G01X1448696Y-323698D02*
X1459506D01*
G01X1470081D02*
X1475721D01*
G01X1472901D02*
Y-342498D01*
G01X1470081D02*
X1475721D01*
G01X1491701D02*
X1489821Y-342185D01*
X1488176Y-340932D01*
X1486766Y-339051D01*
X1485826Y-336858D01*
X1485356Y-334351D01*
Y-331845D01*
X1485826Y-329338D01*
X1486766Y-327145D01*
X1488176Y-325265D01*
X1489821Y-324011D01*
X1491701Y-323698D01*
X1493581Y-324011D01*
X1495226Y-325265D01*
X1496636Y-327145D01*
X1497576Y-329338D01*
X1498046Y-331845D01*
Y-334351D01*
X1497576Y-336858D01*
X1496636Y-339051D01*
X1495226Y-340932D01*
X1493581Y-342185D01*
X1491701Y-342498D01*
G01X1505096D02*
Y-323698D01*
X1515906Y-342498D01*
Y-323698D01*
G01X1341501Y-524998D02*
Y-424998D01*
G01X1347301Y-444998D02*
Y-436998D01*
X1349301D01*
X1350101Y-437398D01*
X1350701Y-437931D01*
X1351201Y-438731D01*
X1351601Y-439665D01*
X1351701Y-440998D01*
X1351601Y-442331D01*
X1351201Y-443265D01*
X1350701Y-444065D01*
X1350101Y-444598D01*
X1349301Y-444998D01*
X1347301D01*
G01X1355501D02*
Y-436998D01*
X1358001D01*
X1358801Y-437398D01*
X1359301Y-437931D01*
X1359501Y-438998D01*
X1359301Y-440065D01*
X1358701Y-440731D01*
X1358001Y-441131D01*
X1355501D01*
G01X1358001D02*
X1359501Y-444998D01*
G01X1363001D02*
X1365501Y-436998D01*
X1368001Y-444998D01*
G01X1367101Y-442198D02*
X1363901D01*
G01X1370501Y-436998D02*
X1371901Y-444998D01*
X1373501Y-436998D01*
X1375101Y-444998D01*
X1376501Y-436998D01*
G01X1380301D02*
X1382701D01*
G01X1381501D02*
Y-444998D01*
G01X1380301D02*
X1382701D01*
G01X1387201D02*
Y-436998D01*
X1391801Y-444998D01*
Y-436998D01*
G01X1398101Y-440998D02*
X1400101D01*
Y-443398D01*
X1399501Y-444198D01*
X1398801Y-444731D01*
X1397801Y-444998D01*
X1396801Y-444731D01*
X1396101Y-444198D01*
X1395501Y-443398D01*
X1395101Y-442465D01*
X1394901Y-441398D01*
Y-440465D01*
X1395101Y-439665D01*
X1395501Y-438731D01*
X1396101Y-437931D01*
X1396701Y-437398D01*
X1397501Y-436998D01*
X1398201D01*
X1399001Y-437265D01*
X1399601Y-437798D01*
G01X1411201Y-444998D02*
Y-436998D01*
X1415801Y-444998D01*
Y-436998D01*
G01X1419301D02*
Y-442731D01*
X1419701Y-443932D01*
X1420501Y-444731D01*
X1421501Y-444998D01*
X1422501Y-444731D01*
X1423301Y-443932D01*
X1423701Y-442731D01*
Y-436998D01*
G01X1426901Y-444998D02*
Y-436998D01*
X1429501Y-443665D01*
X1432101Y-436998D01*
Y-444998D01*
G01X1438301Y-440731D02*
X1438701Y-440331D01*
X1439001Y-439665D01*
X1439201Y-438731D01*
X1439001Y-437931D01*
X1438601Y-437398D01*
X1437901Y-436998D01*
X1435201D01*
Y-444998D01*
X1438501D01*
X1439201Y-444465D01*
X1439601Y-443665D01*
X1439801Y-442731D01*
X1439601Y-441798D01*
X1439001Y-440998D01*
X1438301Y-440731D01*
X1435201D01*
G01X1447501Y-444998D02*
X1443501D01*
Y-436998D01*
X1447501D01*
G01X1445901Y-440865D02*
X1443501D01*
G01X1451501Y-444998D02*
Y-436998D01*
X1454001D01*
X1454801Y-437398D01*
X1455301Y-437931D01*
X1455501Y-438998D01*
X1455301Y-440065D01*
X1454701Y-440731D01*
X1454001Y-441131D01*
X1451501D01*
G01X1454001D02*
X1455501Y-444998D01*
G01X1359001Y-464998D02*
X1357001Y-465665D01*
X1355501Y-467331D01*
X1354501Y-469331D01*
X1353751Y-471998D01*
X1353501Y-474998D01*
X1353751Y-477998D01*
X1354501Y-480665D01*
X1355501Y-482665D01*
X1357001Y-484331D01*
X1359001Y-484998D01*
X1361001Y-484331D01*
X1362501Y-482665D01*
X1363501Y-480665D01*
X1364251Y-477998D01*
X1364501Y-474998D01*
X1364251Y-471998D01*
X1363501Y-469331D01*
X1362501Y-467331D01*
X1361001Y-465665D01*
X1359001Y-464998D01*
G01X1374751Y-482665D02*
X1376501Y-484331D01*
X1378501Y-484998D01*
X1380501Y-484331D01*
X1382251Y-482332D01*
X1383501Y-479331D01*
X1384001Y-476331D01*
Y-472665D01*
X1383501Y-469665D01*
X1382251Y-466998D01*
X1380751Y-465665D01*
X1379001Y-464998D01*
X1377001Y-465665D01*
X1375501Y-466998D01*
X1374501Y-468998D01*
X1374001Y-471665D01*
X1374501Y-473998D01*
X1375751Y-476331D01*
X1377251Y-477665D01*
X1379001Y-477998D01*
X1381001Y-477332D01*
X1382501Y-475665D01*
X1384001Y-472665D01*
G01X1395751Y-478332D02*
X1402251D01*
G01X1419001Y-464998D02*
X1417001Y-465665D01*
X1415501Y-467331D01*
X1414501Y-469331D01*
X1413751Y-471998D01*
X1413501Y-474998D01*
X1413751Y-477998D01*
X1414501Y-480665D01*
X1415501Y-482665D01*
X1417001Y-484331D01*
X1419001Y-484998D01*
X1421001Y-484331D01*
X1422501Y-482665D01*
X1423501Y-480665D01*
X1424251Y-477998D01*
X1424501Y-474998D01*
X1424251Y-471998D01*
X1423501Y-469331D01*
X1422501Y-467331D01*
X1421001Y-465665D01*
X1419001Y-464998D01*
G01X1438501Y-484998D02*
X1439001Y-480665D01*
X1439751Y-476998D01*
X1440751Y-473665D01*
X1442001Y-469998D01*
X1444001Y-464998D01*
X1434001D01*
G01X1462001Y-484998D02*
Y-464998D01*
X1452751Y-479331D01*
X1465251D01*
G01X1473501Y-481999D02*
X1475001Y-483665D01*
X1476751Y-484665D01*
X1479001Y-484998D01*
X1481251Y-484331D01*
X1483001Y-482998D01*
X1484251Y-480665D01*
X1484501Y-477998D01*
X1484001Y-475332D01*
X1482751Y-473665D01*
X1481001Y-472332D01*
X1479251Y-471998D01*
X1477501Y-472332D01*
X1475251Y-473665D01*
X1476001Y-464998D01*
X1482751D01*
G01X1494251Y-468331D02*
X1495751Y-466332D01*
X1497501Y-465331D01*
X1499501Y-464998D01*
X1502001Y-465665D01*
X1503751Y-467331D01*
X1504251Y-469331D01*
X1504001Y-471332D01*
X1503001Y-472998D01*
X1498001Y-476331D01*
X1495751Y-478665D01*
X1494251Y-481999D01*
X1493751Y-484998D01*
X1504251D01*
G01X1514251Y-468331D02*
X1515751Y-466332D01*
X1517501Y-465331D01*
X1519501Y-464998D01*
X1522001Y-465665D01*
X1523751Y-467331D01*
X1524251Y-469331D01*
X1524001Y-471332D01*
X1523001Y-472998D01*
X1518001Y-476331D01*
X1515751Y-478665D01*
X1514251Y-481999D01*
X1513751Y-484998D01*
X1524251D01*
G01X1391501Y1031002D02*
Y981002D01*
G01Y1050002D02*
Y1000002D01*
G01X1416501Y-559998D02*
Y-534998D01*
X1412721Y-539998D01*
G01Y-559998D02*
X1420280D01*
G01X1412101Y988502D02*
Y998502D01*
X1410601Y996502D01*
G01Y988502D02*
X1413601D01*
G01X1421901D02*
Y998502D01*
X1420401Y996502D01*
G01Y988502D02*
X1423401D01*
G01X1429201Y990502D02*
X1429826Y989502D01*
X1430576Y988835D01*
X1431451Y988502D01*
X1432451Y988835D01*
X1433201Y989502D01*
X1433951Y990502D01*
X1434201Y991835D01*
Y998502D01*
G01X1438751D02*
Y991335D01*
X1439251Y989835D01*
X1440251Y988835D01*
X1441501Y988502D01*
X1442751Y988835D01*
X1443751Y989835D01*
X1444251Y991335D01*
Y998502D01*
G01X1448801D02*
Y988502D01*
X1453801D01*
G01X1458726Y996835D02*
X1459476Y997835D01*
X1460351Y998335D01*
X1461351Y998502D01*
X1462601Y998169D01*
X1463476Y997335D01*
X1463726Y996335D01*
X1463601Y995335D01*
X1463101Y994502D01*
X1460601Y992835D01*
X1459476Y991669D01*
X1458726Y990002D01*
X1458476Y988502D01*
X1463726D01*
G01X1468151Y990502D02*
X1468901Y989335D01*
X1469901Y988669D01*
X1471026Y988502D01*
X1472026Y988669D01*
X1473026Y989502D01*
X1473651Y990502D01*
X1473776Y991502D01*
X1473526Y992668D01*
X1472651Y993502D01*
X1471776Y993835D01*
X1470651D01*
G01X1471776D02*
X1472526Y994335D01*
X1473151Y995168D01*
X1473401Y996169D01*
X1473151Y997169D01*
X1472526Y998002D01*
X1471401Y998502D01*
X1470276Y998335D01*
X1469151Y997669D01*
G01X1412101Y1017502D02*
X1411101Y1017169D01*
X1410351Y1016335D01*
X1409851Y1015335D01*
X1409476Y1014002D01*
X1409351Y1012502D01*
X1409476Y1011002D01*
X1409851Y1009669D01*
X1410351Y1008668D01*
X1411101Y1007835D01*
X1412101Y1007502D01*
X1413101Y1007835D01*
X1413851Y1008668D01*
X1414351Y1009669D01*
X1414726Y1011002D01*
X1414851Y1012502D01*
X1414726Y1014002D01*
X1414351Y1015335D01*
X1413851Y1016335D01*
X1413101Y1017169D01*
X1412101Y1017502D01*
G01X1419526Y1011668D02*
X1420401Y1012835D01*
X1421151Y1013502D01*
X1422151Y1013835D01*
X1423026Y1013502D01*
X1423651Y1012835D01*
X1424151Y1011835D01*
X1424276Y1010669D01*
X1424151Y1009669D01*
X1423651Y1008668D01*
X1422901Y1007835D01*
X1422026Y1007502D01*
X1421026Y1007835D01*
X1420151Y1008835D01*
X1419651Y1010335D01*
X1419526Y1012002D01*
X1419776Y1014168D01*
X1420151Y1015335D01*
X1420776Y1016502D01*
X1421651Y1017335D01*
X1422526Y1017502D01*
X1423401Y1017169D01*
X1424026Y1016335D01*
G01X1428451Y1007502D02*
Y1017502D01*
X1431701Y1009169D01*
X1434951Y1017502D01*
Y1007502D01*
G01X1438376D02*
X1441501Y1017502D01*
X1444626Y1007502D01*
G01X1443501Y1011002D02*
X1439501D01*
G01X1448801Y1007502D02*
Y1017502D01*
X1451926D01*
X1452926Y1017002D01*
X1453551Y1016335D01*
X1453801Y1015002D01*
X1453551Y1013669D01*
X1452801Y1012835D01*
X1451926Y1012335D01*
X1448801D01*
G01X1451926D02*
X1453801Y1007502D01*
G01X1458726Y1015835D02*
X1459476Y1016835D01*
X1460351Y1017335D01*
X1461351Y1017502D01*
X1462601Y1017169D01*
X1463476Y1016335D01*
X1463726Y1015335D01*
X1463601Y1014335D01*
X1463101Y1013502D01*
X1460601Y1011835D01*
X1459476Y1010669D01*
X1458726Y1009002D01*
X1458476Y1007502D01*
X1463726D01*
G01X1468151Y1009502D02*
X1468901Y1008335D01*
X1469901Y1007669D01*
X1471026Y1007502D01*
X1472026Y1007669D01*
X1473026Y1008502D01*
X1473651Y1009502D01*
X1473776Y1010502D01*
X1473526Y1011668D01*
X1472651Y1012502D01*
X1471776Y1012835D01*
X1470651D01*
G01X1471776D02*
X1472526Y1013335D01*
X1473151Y1014168D01*
X1473401Y1015169D01*
X1473151Y1016169D01*
X1472526Y1017002D01*
X1471401Y1017502D01*
X1470276Y1017335D01*
X1469151Y1016669D01*
G01X1416501Y1085002D02*
Y1110002D01*
X1412721Y1105002D01*
G01Y1085002D02*
X1420280D01*
G01X1427501Y-281998D02*
X1428901Y-289998D01*
X1430501Y-281998D01*
X1432101Y-289998D01*
X1433501Y-281998D01*
G01X1437301D02*
X1439701D01*
G01X1438501D02*
Y-289998D01*
G01X1437301D02*
X1439701D01*
G01X1444501Y-281998D02*
Y-289998D01*
X1448501D01*
G01X1451901D02*
Y-281998D01*
X1454501Y-288665D01*
X1457101Y-281998D01*
Y-289998D01*
G01X1461301Y-281998D02*
X1463701D01*
G01X1462501D02*
Y-289998D01*
G01X1461301D02*
X1463701D01*
G01X1468201D02*
Y-281998D01*
X1472801Y-289998D01*
Y-281998D01*
G01X1479101Y-285998D02*
X1481101D01*
Y-288398D01*
X1480501Y-289198D01*
X1479801Y-289731D01*
X1478801Y-289998D01*
X1477801Y-289731D01*
X1477101Y-289198D01*
X1476501Y-288398D01*
X1476101Y-287465D01*
X1475901Y-286398D01*
Y-285465D01*
X1476101Y-284665D01*
X1476501Y-283731D01*
X1477101Y-282931D01*
X1477701Y-282398D01*
X1478501Y-281998D01*
X1479201D01*
X1480001Y-282265D01*
X1480601Y-282798D01*
G01X1486501Y-281998D02*
Y-289998D01*
G01X1484201Y-281998D02*
X1488801D01*
G01X1494501Y-289998D02*
X1493701Y-289865D01*
X1493001Y-289331D01*
X1492401Y-288531D01*
X1492001Y-287598D01*
X1491801Y-286531D01*
Y-285465D01*
X1492001Y-284398D01*
X1492401Y-283465D01*
X1493001Y-282665D01*
X1493701Y-282131D01*
X1494501Y-281998D01*
X1495301Y-282131D01*
X1496001Y-282665D01*
X1496601Y-283465D01*
X1497001Y-284398D01*
X1497201Y-285465D01*
Y-286531D01*
X1497001Y-287598D01*
X1496601Y-288531D01*
X1496001Y-289331D01*
X1495301Y-289865D01*
X1494501Y-289998D01*
G01X1500201D02*
Y-281998D01*
X1504801Y-289998D01*
Y-281998D01*
G01X1510301Y-291465D02*
X1510701Y-289731D01*
G01X1523901Y-289998D02*
Y-281998D01*
X1526501Y-288665D01*
X1529101Y-281998D01*
Y-289998D01*
G01X1532001D02*
X1534501Y-281998D01*
X1537001Y-289998D01*
G01X1536101Y-287198D02*
X1532901D01*
G01X1550501Y-281998D02*
X1549701Y-282265D01*
X1549101Y-282931D01*
X1548701Y-283731D01*
X1548401Y-284798D01*
X1548301Y-285998D01*
X1548401Y-287198D01*
X1548701Y-288265D01*
X1549101Y-289065D01*
X1549701Y-289731D01*
X1550501Y-289998D01*
X1551301Y-289731D01*
X1551901Y-289065D01*
X1552301Y-288265D01*
X1552601Y-287198D01*
X1552701Y-285998D01*
X1552601Y-284798D01*
X1552301Y-283731D01*
X1551901Y-282931D01*
X1551301Y-282265D01*
X1550501Y-281998D01*
G01X1558501Y-289998D02*
Y-281998D01*
X1557301Y-283598D01*
G01Y-289998D02*
X1559701D01*
G01X1566501D02*
X1567201Y-289865D01*
X1568001Y-289465D01*
X1568501Y-288798D01*
X1568701Y-287865D01*
X1568501Y-286932D01*
X1567901Y-286131D01*
X1567001Y-285731D01*
X1566001D01*
X1565401Y-285465D01*
X1564901Y-284798D01*
X1564701Y-283865D01*
X1565001Y-282931D01*
X1565701Y-282265D01*
X1566501Y-281998D01*
X1567301Y-282265D01*
X1568001Y-282931D01*
X1568301Y-283865D01*
X1568101Y-284798D01*
X1567601Y-285465D01*
X1567001Y-285731D01*
X1566001D01*
X1565101Y-286131D01*
X1564501Y-286932D01*
X1564301Y-287865D01*
X1564501Y-288798D01*
X1565001Y-289465D01*
X1565801Y-289865D01*
X1566501Y-289998D01*
G01X1574501D02*
X1575201Y-289865D01*
X1576001Y-289465D01*
X1576501Y-288798D01*
X1576701Y-287865D01*
X1576501Y-286932D01*
X1575901Y-286131D01*
X1575001Y-285731D01*
X1574001D01*
X1573401Y-285465D01*
X1572901Y-284798D01*
X1572701Y-283865D01*
X1573001Y-282931D01*
X1573701Y-282265D01*
X1574501Y-281998D01*
X1575301Y-282265D01*
X1576001Y-282931D01*
X1576301Y-283865D01*
X1576101Y-284798D01*
X1575601Y-285465D01*
X1575001Y-285731D01*
X1574001D01*
X1573101Y-286131D01*
X1572501Y-286932D01*
X1572301Y-287865D01*
X1572501Y-288798D01*
X1573001Y-289465D01*
X1573801Y-289865D01*
X1574501Y-289998D01*
G01X1582301D02*
X1582501Y-288265D01*
X1582801Y-286798D01*
X1583201Y-285465D01*
X1583701Y-283998D01*
X1584501Y-281998D01*
X1580501D01*
G01X1424051Y1032502D02*
Y1042502D01*
X1426551D01*
X1427551Y1042002D01*
X1428301Y1041335D01*
X1428926Y1040335D01*
X1429426Y1039168D01*
X1429551Y1037502D01*
X1429426Y1035835D01*
X1428926Y1034669D01*
X1428301Y1033668D01*
X1427551Y1033002D01*
X1426551Y1032502D01*
X1424051D01*
G01X1433476D02*
X1436601Y1042502D01*
X1439726Y1032502D01*
G01X1438601Y1036002D02*
X1434601D01*
G01X1446401Y1042502D02*
Y1032502D01*
G01X1443526Y1042502D02*
X1449276D01*
G01X1458701Y1032502D02*
X1453701D01*
Y1042502D01*
X1458701D01*
G01X1456701Y1037669D02*
X1453701D01*
G01X1442501Y-274998D02*
X1443201Y-274865D01*
X1444001Y-274465D01*
X1444501Y-273798D01*
X1444701Y-272865D01*
X1444501Y-271932D01*
X1443901Y-271131D01*
X1443001Y-270731D01*
X1442001D01*
X1441401Y-270465D01*
X1440901Y-269798D01*
X1440701Y-268865D01*
X1441001Y-267931D01*
X1441701Y-267265D01*
X1442501Y-266998D01*
X1443301Y-267265D01*
X1444001Y-267931D01*
X1444301Y-268865D01*
X1444101Y-269798D01*
X1443601Y-270465D01*
X1443001Y-270731D01*
X1442001D01*
X1441101Y-271131D01*
X1440501Y-271932D01*
X1440301Y-272865D01*
X1440501Y-273798D01*
X1441001Y-274465D01*
X1441801Y-274865D01*
X1442501Y-274998D01*
G01X1450501Y-266998D02*
X1449701Y-267265D01*
X1449101Y-267931D01*
X1448701Y-268731D01*
X1448401Y-269798D01*
X1448301Y-270998D01*
X1448401Y-272198D01*
X1448701Y-273265D01*
X1449101Y-274065D01*
X1449701Y-274731D01*
X1450501Y-274998D01*
X1451301Y-274731D01*
X1451901Y-274065D01*
X1452301Y-273265D01*
X1452601Y-272198D01*
X1452701Y-270998D01*
X1452601Y-269798D01*
X1452301Y-268731D01*
X1451901Y-267931D01*
X1451301Y-267265D01*
X1450501Y-266998D01*
G01X1459701Y-274998D02*
Y-266998D01*
X1456001Y-272731D01*
X1461001D01*
G01X1471501Y-266998D02*
X1472901Y-274998D01*
X1474501Y-266998D01*
X1476101Y-274998D01*
X1477501Y-266998D01*
G01X1482501Y-274998D02*
X1481701Y-274865D01*
X1481001Y-274331D01*
X1480401Y-273531D01*
X1480001Y-272598D01*
X1479801Y-271531D01*
Y-270465D01*
X1480001Y-269398D01*
X1480401Y-268465D01*
X1481001Y-267665D01*
X1481701Y-267131D01*
X1482501Y-266998D01*
X1483301Y-267131D01*
X1484001Y-267665D01*
X1484601Y-268465D01*
X1485001Y-269398D01*
X1485201Y-270465D01*
Y-271531D01*
X1485001Y-272598D01*
X1484601Y-273531D01*
X1484001Y-274331D01*
X1483301Y-274865D01*
X1482501Y-274998D01*
G01X1491301Y-270731D02*
X1491701Y-270331D01*
X1492001Y-269665D01*
X1492201Y-268731D01*
X1492001Y-267931D01*
X1491601Y-267398D01*
X1490901Y-266998D01*
X1488201D01*
Y-274998D01*
X1491501D01*
X1492201Y-274465D01*
X1492601Y-273665D01*
X1492801Y-272731D01*
X1492601Y-271798D01*
X1492001Y-270998D01*
X1491301Y-270731D01*
X1488201D01*
G01X1496301Y-266998D02*
Y-272731D01*
X1496701Y-273932D01*
X1497501Y-274731D01*
X1498501Y-274998D01*
X1499501Y-274731D01*
X1500301Y-273932D01*
X1500701Y-272731D01*
Y-266998D01*
G01X1504501Y-274998D02*
Y-266998D01*
X1507001D01*
X1507801Y-267398D01*
X1508301Y-267931D01*
X1508501Y-268998D01*
X1508301Y-270065D01*
X1507701Y-270731D01*
X1507001Y-271131D01*
X1504501D01*
G01X1507001D02*
X1508501Y-274998D01*
G01X1512201D02*
Y-266998D01*
X1516801Y-274998D01*
Y-266998D01*
G01X1528401Y-273932D02*
X1529201Y-274598D01*
X1530101Y-274998D01*
X1530901D01*
X1531701Y-274598D01*
X1532301Y-273932D01*
X1532601Y-272998D01*
X1532401Y-272065D01*
X1531901Y-271265D01*
X1531001Y-270731D01*
X1529801Y-270465D01*
X1529101Y-269931D01*
X1528801Y-268998D01*
X1529001Y-268065D01*
X1529501Y-267398D01*
X1530201Y-266998D01*
X1530901D01*
X1531601Y-267265D01*
X1532201Y-267931D01*
G01X1538501Y-266998D02*
Y-274998D01*
G01X1536201Y-266998D02*
X1540801D01*
G01X1544501Y-274998D02*
Y-266998D01*
X1547001D01*
X1547801Y-267398D01*
X1548301Y-267931D01*
X1548501Y-268998D01*
X1548301Y-270065D01*
X1547701Y-270731D01*
X1547001Y-271131D01*
X1544501D01*
G01X1547001D02*
X1548501Y-274998D01*
G01X1556501D02*
X1552501D01*
Y-266998D01*
X1556501D01*
G01X1554901Y-270865D02*
X1552501D01*
G01X1564501Y-274998D02*
X1560501D01*
Y-266998D01*
X1564501D01*
G01X1562901Y-270865D02*
X1560501D01*
G01X1570501Y-266998D02*
Y-274998D01*
G01X1568201Y-266998D02*
X1572801D01*
G01X1469451Y-259998D02*
Y-249998D01*
X1471951D01*
X1472951Y-250498D01*
X1473701Y-251165D01*
X1474326Y-252165D01*
X1474826Y-253332D01*
X1474951Y-254998D01*
X1474826Y-256665D01*
X1474326Y-257831D01*
X1473701Y-258832D01*
X1472951Y-259498D01*
X1471951Y-259998D01*
X1469451D01*
G01X1480501Y-249998D02*
X1483501D01*
G01X1482001D02*
Y-259998D01*
G01X1480501D02*
X1483501D01*
G01X1488676Y-249998D02*
X1491801Y-259998D01*
X1494926Y-249998D01*
G01X1500101D02*
X1503101D01*
G01X1501601D02*
Y-259998D01*
G01X1500101D02*
X1503101D01*
G01X1508776Y-258665D02*
X1509776Y-259498D01*
X1510901Y-259998D01*
X1511901D01*
X1512901Y-259498D01*
X1513651Y-258665D01*
X1514026Y-257498D01*
X1513776Y-256332D01*
X1513151Y-255331D01*
X1512026Y-254665D01*
X1510526Y-254331D01*
X1509651Y-253665D01*
X1509276Y-252498D01*
X1509526Y-251331D01*
X1510151Y-250498D01*
X1511026Y-249998D01*
X1511901D01*
X1512776Y-250331D01*
X1513526Y-251165D01*
G01X1519701Y-249998D02*
X1522701D01*
G01X1521201D02*
Y-259998D01*
G01X1519701D02*
X1522701D01*
G01X1531001D02*
X1530001Y-259831D01*
X1529126Y-259165D01*
X1528376Y-258165D01*
X1527876Y-256998D01*
X1527626Y-255665D01*
Y-254331D01*
X1527876Y-252998D01*
X1528376Y-251831D01*
X1529126Y-250831D01*
X1530001Y-250165D01*
X1531001Y-249998D01*
X1532001Y-250165D01*
X1532876Y-250831D01*
X1533626Y-251831D01*
X1534126Y-252998D01*
X1534376Y-254331D01*
Y-255665D01*
X1534126Y-256998D01*
X1533626Y-258165D01*
X1532876Y-259165D01*
X1532001Y-259831D01*
X1531001Y-259998D01*
G01X1537926D02*
Y-249998D01*
X1543676Y-259998D01*
Y-249998D01*
G01X1497401Y-516432D02*
X1498201Y-517098D01*
X1499101Y-517498D01*
X1499901D01*
X1500701Y-517098D01*
X1501301Y-516432D01*
X1501601Y-515498D01*
X1501401Y-514565D01*
X1500901Y-513765D01*
X1500001Y-513231D01*
X1498801Y-512965D01*
X1498101Y-512431D01*
X1497801Y-511498D01*
X1498001Y-510565D01*
X1498501Y-509898D01*
X1499201Y-509498D01*
X1499901D01*
X1500601Y-509765D01*
X1501201Y-510431D01*
G01X1505401Y-517498D02*
Y-509498D01*
G01X1509601D02*
Y-517498D01*
G01Y-513498D02*
X1505401D01*
G01X1517501Y-517498D02*
X1513501D01*
Y-509498D01*
X1517501D01*
G01X1515901Y-513365D02*
X1513501D01*
G01X1525501Y-517498D02*
X1521501D01*
Y-509498D01*
X1525501D01*
G01X1523901Y-513365D02*
X1521501D01*
G01X1531501Y-509498D02*
Y-517498D01*
G01X1529201Y-509498D02*
X1533801D01*
G01X1491501Y-499998D02*
Y-524998D01*
G01X1492951Y-234998D02*
X1494701Y-244998D01*
X1496701Y-234998D01*
X1498701Y-244998D01*
X1500451Y-234998D01*
G01X1502751D02*
X1504501Y-244998D01*
X1506501Y-234998D01*
X1508501Y-244998D01*
X1510251Y-234998D01*
G01X1513051Y-244998D02*
Y-234998D01*
X1516301Y-243331D01*
X1519551Y-234998D01*
Y-244998D01*
G01X1491501Y1031002D02*
Y981002D01*
G01Y1050002D02*
Y1000002D01*
G01X1529076Y1032502D02*
X1532201Y1042502D01*
X1535326Y1032502D01*
G01X1534201Y1036002D02*
X1530201D01*
G01X1539501Y1032502D02*
Y1042502D01*
X1542501D01*
X1543501Y1042002D01*
X1544251Y1040835D01*
X1544501Y1039502D01*
X1544251Y1038169D01*
X1543626Y1037169D01*
X1542501Y1036668D01*
X1539501D01*
G01X1549301Y1032502D02*
Y1042502D01*
X1552301D01*
X1553301Y1042002D01*
X1554051Y1040835D01*
X1554301Y1039502D01*
X1554051Y1038169D01*
X1553426Y1037169D01*
X1552301Y1036668D01*
X1549301D01*
G01X1559101Y1032502D02*
Y1042502D01*
X1562226D01*
X1563226Y1042002D01*
X1563851Y1041335D01*
X1564101Y1040002D01*
X1563851Y1038669D01*
X1563101Y1037835D01*
X1562226Y1037335D01*
X1559101D01*
G01X1562226D02*
X1564101Y1032502D01*
G01X1571401D02*
X1570401Y1032669D01*
X1569526Y1033335D01*
X1568776Y1034335D01*
X1568276Y1035502D01*
X1568026Y1036835D01*
Y1038169D01*
X1568276Y1039502D01*
X1568776Y1040669D01*
X1569526Y1041669D01*
X1570401Y1042335D01*
X1571401Y1042502D01*
X1572401Y1042335D01*
X1573276Y1041669D01*
X1574026Y1040669D01*
X1574526Y1039502D01*
X1574776Y1038169D01*
Y1036835D01*
X1574526Y1035502D01*
X1574026Y1034335D01*
X1573276Y1033335D01*
X1572401Y1032669D01*
X1571401Y1032502D01*
G01X1578076Y1042502D02*
X1581201Y1032502D01*
X1584326Y1042502D01*
G01X1593501Y1032502D02*
X1588501D01*
Y1042502D01*
X1593501D01*
G01X1591501Y1037669D02*
X1588501D01*
G01X1598051Y1032502D02*
Y1042502D01*
X1600551D01*
X1601551Y1042002D01*
X1602301Y1041335D01*
X1602926Y1040335D01*
X1603426Y1039168D01*
X1603551Y1037502D01*
X1603426Y1035835D01*
X1602926Y1034669D01*
X1602301Y1033668D01*
X1601551Y1033002D01*
X1600551Y1032502D01*
X1598051D01*
G01X1557751Y-517498D02*
Y-507498D01*
X1556251Y-509498D01*
G01Y-517498D02*
X1559251D01*
G01X1543651Y988502D02*
Y998502D01*
X1546901Y990169D01*
X1550151Y998502D01*
Y988502D01*
G01X1556701Y988169D02*
X1556451Y988335D01*
Y988669D01*
X1556701Y988835D01*
X1556951Y988669D01*
Y988335D01*
X1556701Y988169D01*
G01X1573676Y989835D02*
X1574676Y989002D01*
X1575801Y988502D01*
X1576801D01*
X1577801Y989002D01*
X1578551Y989835D01*
X1578926Y991002D01*
X1578676Y992168D01*
X1578051Y993169D01*
X1576926Y993835D01*
X1575426Y994169D01*
X1574551Y994835D01*
X1574176Y996002D01*
X1574426Y997169D01*
X1575051Y998002D01*
X1575926Y998502D01*
X1576801D01*
X1577676Y998169D01*
X1578426Y997335D01*
G01X1586101Y988502D02*
X1585101Y988669D01*
X1584226Y989335D01*
X1583476Y990335D01*
X1582976Y991502D01*
X1582726Y992835D01*
Y994169D01*
X1582976Y995502D01*
X1583476Y996669D01*
X1584226Y997669D01*
X1585101Y998335D01*
X1586101Y998502D01*
X1587101Y998335D01*
X1587976Y997669D01*
X1588726Y996669D01*
X1589226Y995502D01*
X1589476Y994169D01*
Y992835D01*
X1589226Y991502D01*
X1588726Y990335D01*
X1587976Y989335D01*
X1587101Y988669D01*
X1586101Y988502D01*
G01X1543651Y1007502D02*
Y1017502D01*
X1546901Y1009169D01*
X1550151Y1017502D01*
Y1007502D01*
G01X1556701Y1007169D02*
X1556451Y1007335D01*
Y1007669D01*
X1556701Y1007835D01*
X1556951Y1007669D01*
Y1007335D01*
X1556701Y1007169D01*
G01X1573676Y1008835D02*
X1574676Y1008002D01*
X1575801Y1007502D01*
X1576801D01*
X1577801Y1008002D01*
X1578551Y1008835D01*
X1578926Y1010002D01*
X1578676Y1011168D01*
X1578051Y1012169D01*
X1576926Y1012835D01*
X1575426Y1013169D01*
X1574551Y1013835D01*
X1574176Y1015002D01*
X1574426Y1016169D01*
X1575051Y1017002D01*
X1575926Y1017502D01*
X1576801D01*
X1577676Y1017169D01*
X1578426Y1016335D01*
G01X1586101Y1007502D02*
X1585101Y1007669D01*
X1584226Y1008335D01*
X1583476Y1009335D01*
X1582976Y1010502D01*
X1582726Y1011835D01*
Y1013169D01*
X1582976Y1014502D01*
X1583476Y1015669D01*
X1584226Y1016669D01*
X1585101Y1017335D01*
X1586101Y1017502D01*
X1587101Y1017335D01*
X1587976Y1016669D01*
X1588726Y1015669D01*
X1589226Y1014502D01*
X1589476Y1013169D01*
Y1011835D01*
X1589226Y1010502D01*
X1588726Y1009335D01*
X1587976Y1008335D01*
X1587101Y1007669D01*
X1586101Y1007502D01*
G01X1574501Y-517498D02*
X1573701Y-517365D01*
X1573001Y-516831D01*
X1572401Y-516031D01*
X1572001Y-515098D01*
X1571801Y-514031D01*
Y-512965D01*
X1572001Y-511898D01*
X1572401Y-510965D01*
X1573001Y-510165D01*
X1573701Y-509631D01*
X1574501Y-509498D01*
X1575301Y-509631D01*
X1576001Y-510165D01*
X1576601Y-510965D01*
X1577001Y-511898D01*
X1577201Y-512965D01*
Y-514031D01*
X1577001Y-515098D01*
X1576601Y-516031D01*
X1576001Y-516831D01*
X1575301Y-517365D01*
X1574501Y-517498D01*
G01X1580601D02*
Y-509498D01*
X1584401D01*
G01X1583001Y-513365D02*
X1580601D01*
G01X1595376Y-509165D02*
X1596126Y-508165D01*
X1597001Y-507665D01*
X1598001Y-507498D01*
X1599251Y-507831D01*
X1600126Y-508665D01*
X1600376Y-509665D01*
X1600251Y-510665D01*
X1599751Y-511498D01*
X1597251Y-513165D01*
X1596126Y-514331D01*
X1595376Y-515998D01*
X1595126Y-517498D01*
X1600376D01*
G01X1591501Y-499998D02*
Y-424998D01*
G01X1618501Y-474331D02*
X1619501Y-473331D01*
X1620251Y-471665D01*
X1620751Y-469331D01*
X1620251Y-467331D01*
X1619251Y-465998D01*
X1617501Y-464998D01*
X1610751D01*
Y-484998D01*
X1619001D01*
X1620751Y-483665D01*
X1621751Y-481665D01*
X1622251Y-479331D01*
X1621751Y-476998D01*
X1620251Y-474998D01*
X1618501Y-474331D01*
X1610751D01*
G01X1605001Y-444998D02*
Y-436998D01*
X1607501D01*
X1608301Y-437398D01*
X1608801Y-437931D01*
X1609001Y-438998D01*
X1608801Y-440065D01*
X1608201Y-440731D01*
X1607501Y-441131D01*
X1605001D01*
G01X1607501D02*
X1609001Y-444998D01*
G01X1617001D02*
X1613001D01*
Y-436998D01*
X1617001D01*
G01X1615401Y-440865D02*
X1613001D01*
G01X1620501Y-436998D02*
X1623001Y-444998D01*
X1625501Y-436998D01*
G01X1641501Y-199998D02*
Y1000002D01*
G01X1671501Y-149998D02*
X1641501D01*
G01X1679501Y276502D02*
Y273502D01*
X1659501D01*
Y267002D01*
X1644501Y275002D01*
X1659501Y283002D01*
Y276502D01*
X1679501D01*
G01X1680501Y277502D02*
Y272502D01*
X1660501D01*
Y265502D01*
X1643001Y275002D01*
X1660501Y284502D01*
Y277502D01*
X1680501D01*
G01X1681501Y278502D02*
Y271502D01*
X1661501D01*
Y264002D01*
X1641501Y275002D01*
X1661501Y286002D01*
Y278502D01*
X1681501D01*
G01X1671501Y700002D02*
X1641501D01*
G01X1653626Y-374998D02*
X1661501Y-349998D01*
X1669376Y-374998D01*
G01X1666541Y-366248D02*
X1656461D01*
G01X1664021Y63336D02*
X1665281Y64585D01*
X1666226Y66668D01*
X1666856Y69586D01*
X1666226Y72085D01*
X1664966Y73752D01*
X1662761Y75002D01*
X1654256D01*
Y50002D01*
X1664651D01*
X1666856Y51668D01*
X1668116Y54169D01*
X1668746Y57085D01*
X1668116Y60001D01*
X1666226Y62502D01*
X1664021Y63336D01*
X1654256D01*
G01X1656501Y278502D02*
Y271502D01*
X1649001Y275002D01*
X1656501Y278502D01*
G01X1657501Y280002D02*
Y270002D01*
X1647501Y275002D01*
X1657501Y280002D01*
G01X1678501Y275502D02*
Y274502D01*
X1658501D01*
Y268502D01*
X1646001Y275002D01*
X1658501Y281502D01*
Y275502D01*
X1678501D01*
G01X1654001Y275002D02*
X1653001D01*
G01X1654501Y276002D02*
Y274002D01*
X1652001Y275002D01*
X1654501Y276002D01*
G01X1655501Y277002D02*
Y273002D01*
X1650501Y275002D01*
X1655501Y277002D01*
G01X1668431Y497918D02*
X1666541Y499169D01*
X1664336Y500002D01*
X1661816D01*
X1658981Y498752D01*
X1656776Y496669D01*
X1655201Y494168D01*
X1653941Y490002D01*
X1653626Y486252D01*
X1654256Y482502D01*
X1655201Y480002D01*
X1657091Y477501D01*
X1659296Y475835D01*
X1661501Y475002D01*
X1663706D01*
X1665911Y475835D01*
X1667801Y477085D01*
X1669376Y478751D01*
G01X1654571Y900002D02*
Y925002D01*
X1660871D01*
X1663391Y923752D01*
X1665281Y922085D01*
X1666856Y919586D01*
X1668116Y916668D01*
X1668431Y912502D01*
X1668116Y908335D01*
X1666856Y905418D01*
X1665281Y902918D01*
X1663391Y901252D01*
X1660871Y900002D01*
X1654571D01*
M02*
