G04 ================== begin FILE IDENTIFICATION RECORD ==================*
G04 Layout Name:  C:/tmp/20_074522b/worklib/02_074522b_top/physical/08_074522b.brd*
G04 Film Name:    l2_secondary*
G04 File Format:  Gerber RS274X*
G04 File Origin:  Cadence Allegro 17.4-S036*
G04 Origin Date:  Wed Jul 12 13:23:58 2023*
G04 *
G04 Layer:  VIA CLASS/BOTTOM*
G04 Layer:  PIN/BOTTOM*
G04 Layer:  ETCH/BOTTOM*
G04 Layer:  PACKAGE GEOMETRY/ETCH_BOTTOM*
G04 Layer:  BOARD GEOMETRY/LYR_BOTTOM*
G04 Layer:  BOARD GEOMETRY/TOOLING_CORNERS*
G04 Layer:  BOARD GEOMETRY/ROOT_NUMBER*
G04 *
G04 Offset:    (0.00 0.00)*
G04 Mirror:    No*
G04 Mode:      Positive*
G04 Rotation:  0*
G04 FullContactRelief:  No*
G04 UndefLineWidth:     8.00*
G04 ================== end FILE IDENTIFICATION RECORD ====================*
%FSLAX25Y25*MOIN*%
%IR0*IPPOS*OFA0.00000B0.00000*MIA0B0*SFA1.00000B1.00000*%
%ADD11C,.02*%
%ADD12C,.065*%
%ADD10R,.065X.065*%
%ADD13C,.05*%
%ADD14C,.018*%
%ADD15C,.008*%
%ADD16C,.08904*%
G75*
%LPD*%
G75*
G36*
G01X49202Y152500D02*
X161499D01*
Y-12497D01*
X-3498D01*
Y-4452D01*
X3250D01*
G03X4452Y-3250I0J1202D01*
G01Y3250D01*
G03X3250Y4452I-1202J0D01*
G01X-3498D01*
Y5494D01*
G02X-2287Y6180I800J0D01*
G03X0Y5548I2286J3820D01*
G03X4452Y10000I0J4452D01*
G03X4418Y10551I-4452J2D01*
G01X4415Y10575D01*
Y11000D01*
X4500D01*
Y64000D01*
X1955D01*
G03X0Y64452I-1955J-4000D01*
G03X-1876Y64037I1J-4452D01*
G01X-1957Y64000D01*
X-3498D01*
Y65494D01*
G02X-2287Y66180I800J0D01*
G03X0Y65548I2286J3820D01*
G03Y74452I0J4452D01*
G03X-2287Y73820I-1J-4452D01*
G02X-3498Y74506I-411J686D01*
G01Y75494D01*
G02X-2287Y76180I800J0D01*
G03X0Y75548I2286J3820D01*
G03X4452Y80000I0J4452D01*
G03X4000Y81955I-4452J0D01*
G01Y88045D01*
G03X4452Y90000I-4000J1955D01*
G03X4000Y91955I-4452J0D01*
G01Y98045D01*
G03X4452Y100000I-4000J1955D01*
G03X4000Y101955I-4452J0D01*
G01Y108045D01*
G03X4452Y110000I-4000J1955D01*
G03X4000Y111955I-4452J0D01*
G01Y118045D01*
G03X4452Y120000I-4000J1955D01*
G03X4000Y121955I-4452J0D01*
G01Y128045D01*
G03X4452Y130000I-4000J1955D01*
G03X4037Y131876I-4452J-1D01*
G01X4000Y131957D01*
Y133500D01*
X2755D01*
X2649Y133578D01*
G03X0Y134452I-2649J-3577D01*
G03X-2649Y133578I0J-4451D01*
G01X-2755Y133500D01*
X-3498D01*
Y135494D01*
G02X-2287Y136180I800J0D01*
G03X0Y135548I2286J3820D01*
G03Y144452I0J4452D01*
G03X-2287Y143820I-1J-4452D01*
G02X-3498Y144506I-411J686D01*
G01Y152499D01*
X49001D01*
X49202Y152500D01*
G37*
%LPC*%
G75*
G54D16*
X10000Y0D03*
Y20000D03*
Y10000D03*
Y40000D03*
Y30000D03*
Y60000D03*
Y50000D03*
Y80000D03*
Y70000D03*
Y100000D03*
Y90000D03*
Y120000D03*
Y110000D03*
Y140000D03*
Y130000D03*
%LPD*%
G75*
G54D10*
X0Y0D03*
G54D11*
X1500Y-10499D03*
X-1000Y151000D03*
X21501Y-10498D03*
X11500Y-10499D03*
X9000Y151000D03*
X19001Y151002D03*
X41501Y-10498D03*
X32500Y-10500D03*
X29001Y151002D03*
X39001D03*
X51501Y-10498D03*
X61501D03*
X52500Y30000D03*
X60000D03*
X52500Y55000D03*
Y45000D03*
Y75000D03*
Y65000D03*
Y105000D03*
X62500D03*
X52500Y95000D03*
Y85000D03*
X49001Y151002D03*
X59001D03*
X71501Y-10498D03*
X81501D03*
X70000Y30000D03*
X77500D03*
X87500D03*
X72500Y105000D03*
X82500D03*
X78501Y151002D03*
X68501D03*
X91500Y-10499D03*
X101500D03*
X95000Y30000D03*
X105000D03*
X92500Y105000D03*
X102500D03*
X108501Y151002D03*
X98500Y151001D03*
X88500D03*
X111501Y-10498D03*
X121501D03*
X124000Y-2000D03*
X115000Y30000D03*
X122500D03*
X127500D03*
Y45000D03*
Y55000D03*
Y65000D03*
Y75000D03*
X112500Y105000D03*
X125000D03*
X127500Y85000D03*
Y95000D03*
X128501Y151002D03*
X118501D03*
X141501Y-10498D03*
X131501D03*
X131000Y6500D03*
X142500Y15000D03*
X143000Y2500D03*
X142500Y27500D03*
X149001Y140002D03*
X142500Y145000D03*
X138501Y151002D03*
X149001D03*
X151501Y-10498D03*
X159001D03*
X156501Y2502D03*
X157500Y15000D03*
Y27500D03*
X159001Y140002D03*
X159000Y132500D03*
X159001Y151002D03*
G54D12*
X0Y20000D03*
Y10000D03*
Y40000D03*
Y30000D03*
Y60000D03*
Y50000D03*
Y80000D03*
Y70000D03*
Y100000D03*
Y90000D03*
Y120000D03*
Y110000D03*
Y140000D03*
Y130000D03*
X10000Y0D03*
Y20000D03*
Y10000D03*
Y40000D03*
Y30000D03*
Y60000D03*
Y50000D03*
Y80000D03*
Y70000D03*
Y100000D03*
Y90000D03*
Y120000D03*
Y110000D03*
Y140000D03*
Y130000D03*
G54D13*
G01X-20999Y-19998D02*
X14001D01*
G01X-20999Y160000D02*
X14001D01*
G01X-10999Y-29998D02*
Y5002D01*
G01Y170000D02*
Y135000D01*
G01X178999Y-19998D02*
X143999D01*
G01X178999Y160000D02*
X143999D01*
G01X168999Y-29998D02*
Y5002D01*
G01Y170000D02*
Y135000D01*
G54D14*
G01X0Y-4852D02*
Y0D01*
G01D02*
Y4852D01*
G01Y0D02*
X4852D01*
G01X0Y65148D02*
Y70000D01*
G01D02*
Y74852D01*
G01Y70000D02*
X4852D01*
G01X0Y135148D02*
Y140000D01*
G01D02*
Y144852D01*
G01Y140000D02*
X4852D01*
G01X10000Y-4852D02*
Y0D01*
G01D02*
Y4852D01*
G01Y0D02*
X14852D01*
G01X10000Y65148D02*
Y70000D01*
G01D02*
Y74852D01*
G01Y70000D02*
X14852D01*
G01X10000Y135148D02*
Y140000D01*
G01D02*
Y144852D01*
G01Y140000D02*
X14852D01*
G54D15*
G01X20101Y212502D02*
X19101Y212169D01*
X18351Y211335D01*
X17851Y210335D01*
X17476Y209002D01*
X17351Y207502D01*
X17476Y206002D01*
X17851Y204669D01*
X18351Y203668D01*
X19101Y202835D01*
X20101Y202502D01*
X21101Y202835D01*
X21851Y203668D01*
X22351Y204669D01*
X22726Y206002D01*
X22851Y207502D01*
X22726Y209002D01*
X22351Y210335D01*
X21851Y211335D01*
X21101Y212169D01*
X20101Y212502D01*
G01X29901Y202502D02*
X30776Y202669D01*
X31776Y203169D01*
X32401Y204002D01*
X32651Y205169D01*
X32401Y206335D01*
X31651Y207335D01*
X30526Y207835D01*
X29276D01*
X28526Y208169D01*
X27901Y209002D01*
X27651Y210169D01*
X28026Y211335D01*
X28901Y212169D01*
X29901Y212502D01*
X30901Y212169D01*
X31776Y211335D01*
X32151Y210169D01*
X31901Y209002D01*
X31276Y208169D01*
X30526Y207835D01*
X29276D01*
X28151Y207335D01*
X27401Y206335D01*
X27151Y205169D01*
X27401Y204002D01*
X28026Y203169D01*
X29026Y202669D01*
X29901Y202502D01*
G01X38076Y205835D02*
X41326D01*
G01X106676D02*
X109926D01*
G01X118101Y212502D02*
X117101Y212169D01*
X116351Y211335D01*
X115851Y210335D01*
X115476Y209002D01*
X115351Y207502D01*
X115476Y206002D01*
X115851Y204669D01*
X116351Y203668D01*
X117101Y202835D01*
X118101Y202502D01*
X119101Y202835D01*
X119851Y203668D01*
X120351Y204669D01*
X120726Y206002D01*
X120851Y207502D01*
X120726Y209002D01*
X120351Y210335D01*
X119851Y211335D01*
X119101Y212169D01*
X118101Y212502D01*
G01X125526Y210835D02*
X126276Y211835D01*
X127151Y212335D01*
X128151Y212502D01*
X129401Y212169D01*
X130276Y211335D01*
X130526Y210335D01*
X130401Y209335D01*
X129901Y208502D01*
X127401Y206835D01*
X126276Y205669D01*
X125526Y204002D01*
X125276Y202502D01*
X130526D01*
G01X17601Y232502D02*
Y222502D01*
X22601D01*
G01X27526Y230835D02*
X28276Y231835D01*
X29151Y232335D01*
X30151Y232502D01*
X31401Y232169D01*
X32276Y231335D01*
X32526Y230335D01*
X32401Y229335D01*
X31901Y228502D01*
X29401Y226835D01*
X28276Y225669D01*
X27526Y224002D01*
X27276Y222502D01*
X32526D01*
G01X46876Y223835D02*
X47876Y223002D01*
X49001Y222502D01*
X50001D01*
X51001Y223002D01*
X51751Y223835D01*
X52126Y225002D01*
X51876Y226168D01*
X51251Y227169D01*
X50126Y227835D01*
X48626Y228169D01*
X47751Y228835D01*
X47376Y230002D01*
X47626Y231169D01*
X48251Y232002D01*
X49126Y232502D01*
X50001D01*
X50876Y232169D01*
X51626Y231335D01*
G01X61801Y222502D02*
X56801D01*
Y232502D01*
X61801D01*
G01X59801Y227669D02*
X56801D01*
G01X71851Y231669D02*
X71101Y232169D01*
X70226Y232502D01*
X69226D01*
X68101Y232002D01*
X67226Y231169D01*
X66601Y230169D01*
X66101Y228502D01*
X65976Y227002D01*
X66226Y225502D01*
X66601Y224502D01*
X67351Y223502D01*
X68226Y222835D01*
X69101Y222502D01*
X69976D01*
X70851Y222835D01*
X71601Y223335D01*
X72226Y224002D01*
G01X78901Y222502D02*
X77901Y222669D01*
X77026Y223335D01*
X76276Y224335D01*
X75776Y225502D01*
X75526Y226835D01*
Y228169D01*
X75776Y229502D01*
X76276Y230669D01*
X77026Y231669D01*
X77901Y232335D01*
X78901Y232502D01*
X79901Y232335D01*
X80776Y231669D01*
X81526Y230669D01*
X82026Y229502D01*
X82276Y228169D01*
Y226835D01*
X82026Y225502D01*
X81526Y224335D01*
X80776Y223335D01*
X79901Y222669D01*
X78901Y222502D01*
G01X85826D02*
Y232502D01*
X91576Y222502D01*
Y232502D01*
G01X95751Y222502D02*
Y232502D01*
X98251D01*
X99251Y232002D01*
X100001Y231335D01*
X100626Y230335D01*
X101126Y229168D01*
X101251Y227502D01*
X101126Y225835D01*
X100626Y224669D01*
X100001Y223668D01*
X99251Y223002D01*
X98251Y222502D01*
X95751D01*
G01X105176D02*
X108301Y232502D01*
X111426Y222502D01*
G01X110301Y226002D02*
X106301D01*
G01X115601Y222502D02*
Y232502D01*
X118726D01*
X119726Y232002D01*
X120351Y231335D01*
X120601Y230002D01*
X120351Y228669D01*
X119601Y227835D01*
X118726Y227335D01*
X115601D01*
G01X118726D02*
X120601Y222502D01*
G01X127901D02*
Y227002D01*
X125401Y232502D01*
G01X130401D02*
X127901Y227002D01*
G01X51901Y180002D02*
Y190002D01*
X55026D01*
X56026Y189502D01*
X56651Y188835D01*
X56901Y187502D01*
X56651Y186169D01*
X55901Y185335D01*
X55026Y184835D01*
X51901D01*
G01X55026D02*
X56901Y180002D01*
G01X66701D02*
X61701D01*
Y190002D01*
X66701D01*
G01X64701Y185169D02*
X61701D01*
G01X70876Y190002D02*
X74001Y180002D01*
X77126Y190002D01*
G01X94601Y185335D02*
X95101Y185835D01*
X95476Y186668D01*
X95726Y187835D01*
X95476Y188835D01*
X94976Y189502D01*
X94101Y190002D01*
X90726D01*
Y180002D01*
X94851D01*
X95726Y180669D01*
X96226Y181669D01*
X96476Y182835D01*
X96226Y184002D01*
X95476Y185002D01*
X94601Y185335D01*
X90726D01*
G01X52001Y212502D02*
X51001Y212169D01*
X50251Y211335D01*
X49751Y210335D01*
X49376Y209002D01*
X49251Y207502D01*
X49376Y206002D01*
X49751Y204669D01*
X50251Y203668D01*
X51001Y202835D01*
X52001Y202502D01*
X53001Y202835D01*
X53751Y203668D01*
X54251Y204669D01*
X54626Y206002D01*
X54751Y207502D01*
X54626Y209002D01*
X54251Y210335D01*
X53751Y211335D01*
X53001Y212169D01*
X52001Y212502D01*
G01X61551Y202502D02*
X61801Y204669D01*
X62176Y206502D01*
X62676Y208169D01*
X63301Y210002D01*
X64301Y212502D01*
X59301D01*
G01X73101Y202502D02*
Y212502D01*
X68476Y205335D01*
X74726D01*
G01X78651Y204002D02*
X79401Y203169D01*
X80276Y202669D01*
X81401Y202502D01*
X82526Y202835D01*
X83401Y203502D01*
X84026Y204669D01*
X84151Y206002D01*
X83901Y207335D01*
X83276Y208169D01*
X82401Y208835D01*
X81526Y209002D01*
X80651Y208835D01*
X79526Y208169D01*
X79901Y212502D01*
X83276D01*
G01X88826Y210835D02*
X89576Y211835D01*
X90451Y212335D01*
X91451Y212502D01*
X92701Y212169D01*
X93576Y211335D01*
X93826Y210335D01*
X93701Y209335D01*
X93201Y208502D01*
X90701Y206835D01*
X89576Y205669D01*
X88826Y204002D01*
X88576Y202502D01*
X93826D01*
G01X98626Y210835D02*
X99376Y211835D01*
X100251Y212335D01*
X101251Y212502D01*
X102501Y212169D01*
X103376Y211335D01*
X103626Y210335D01*
X103501Y209335D01*
X103001Y208502D01*
X100501Y206835D01*
X99376Y205669D01*
X98626Y204002D01*
X98376Y202502D01*
X103626D01*
M02*
