G04 ================== begin FILE IDENTIFICATION RECORD ==================*
G04 Layout Name:  C:/tmp/20_074522b/worklib/02_074522b_top/physical/08_074522b.brd*
G04 Film Name:    mask_prm*
G04 File Format:  Gerber RS274X*
G04 File Origin:  Cadence Allegro 17.4-S036*
G04 Origin Date:  Wed Jul 12 13:23:58 2023*
G04 *
G04 Layer:  VIA CLASS/SOLDERMASK_TOP*
G04 Layer:  PIN/SOLDERMASK_TOP*
G04 Layer:  PACKAGE GEOMETRY/SOLDERMASK_TOP*
G04 Layer:  BOARD GEOMETRY/TOOLING_CORNERS*
G04 Layer:  BOARD GEOMETRY/SOLDERMASK_TOP*
G04 Layer:  BOARD GEOMETRY/ROOT_NUMBER*
G04 *
G04 Offset:    (0.00 0.00)*
G04 Mirror:    No*
G04 Mode:      Positive*
G04 Rotation:  0*
G04 FullContactRelief:  No*
G04 UndefLineWidth:     8.00*
G04 ================== end FILE IDENTIFICATION RECORD ====================*
%FSLAX25Y25*MOIN*%
%IR0*IPPOS*OFA0.00000B0.00000*MIA0B0*SFA1.00000B1.00000*%
%ADD11C,.07*%
%ADD12C,.08*%
%ADD10R,.07X.07*%
%ADD13R,.044X.042*%
%ADD15R,.042X.044*%
%ADD16R,.044X.036*%
%ADD14R,.036X.044*%
%ADD17C,.05*%
%ADD18C,.008*%
G75*
%LPD*%
G75*
G54D10*
X0Y0D03*
G54D11*
Y20000D03*
Y10000D03*
Y40000D03*
Y30000D03*
Y60000D03*
Y50000D03*
Y80000D03*
Y70000D03*
Y100000D03*
Y90000D03*
Y120000D03*
Y110000D03*
Y140000D03*
Y130000D03*
X10000Y0D03*
Y20000D03*
Y10000D03*
Y40000D03*
Y30000D03*
Y60000D03*
Y50000D03*
Y80000D03*
Y70000D03*
Y100000D03*
Y90000D03*
Y120000D03*
Y110000D03*
Y140000D03*
Y130000D03*
G54D12*
X24749Y-4498D03*
X153499D03*
Y144500D03*
G54D13*
X35000Y40850D03*
Y26850D03*
Y33150D03*
Y47150D03*
Y54850D03*
Y61150D03*
Y68850D03*
Y75150D03*
Y82850D03*
Y103150D03*
Y96850D03*
Y89150D03*
Y117850D03*
Y124150D03*
X138000Y11850D03*
Y18150D03*
X145000Y32850D03*
Y39150D03*
Y60850D03*
Y46850D03*
Y53150D03*
Y67150D03*
Y74850D03*
Y81150D03*
Y88850D03*
Y95150D03*
Y102850D03*
Y109150D03*
G54D14*
X41654Y33000D03*
Y61000D03*
Y47000D03*
Y75000D03*
Y89000D03*
Y103000D03*
X48346Y33000D03*
Y61000D03*
Y47000D03*
Y75000D03*
Y89000D03*
Y103000D03*
X138346Y33000D03*
X131654D03*
X138346Y47000D03*
X131654D03*
X138346Y61000D03*
X131654D03*
X138346Y75000D03*
X131654D03*
X138346Y89000D03*
X131654D03*
X138346Y103000D03*
X131654D03*
G54D15*
X62850Y12000D03*
X61150Y124000D03*
X54850D03*
X83150Y12000D03*
X76850D03*
X69150D03*
X82850Y124000D03*
X75150D03*
X68850D03*
X90850Y12000D03*
X97150D03*
X104850D03*
X89150Y124000D03*
X103150D03*
X96850D03*
X118850Y12000D03*
X125150D03*
X111150D03*
X110850Y124000D03*
X117150D03*
G54D16*
X55000Y18654D03*
Y25346D03*
Y117346D03*
Y110654D03*
X69000Y18654D03*
X83000D03*
X69000Y25346D03*
X83000D03*
X69000Y117346D03*
Y110654D03*
X83000Y117346D03*
Y110654D03*
X97000Y18654D03*
Y25346D03*
Y117346D03*
Y110654D03*
X125000Y18654D03*
X111000D03*
X125000Y25346D03*
X111000D03*
X125000Y117346D03*
Y110654D03*
X111000Y117346D03*
Y110654D03*
G54D17*
G01X-20999Y-19998D02*
X14001D01*
G01X-20999Y160000D02*
X14001D01*
G01X-10999Y-29998D02*
Y5002D01*
G01Y170000D02*
Y135000D01*
G01X178999Y-19998D02*
X143999D01*
G01X178999Y160000D02*
X143999D01*
G01X168999Y-29998D02*
Y5002D01*
G01Y170000D02*
Y135000D01*
G54D18*
G01X-9424Y223835D02*
X-8424Y223002D01*
X-7299Y222502D01*
X-6299D01*
X-5299Y223002D01*
X-4549Y223835D01*
X-4174Y225002D01*
X-4424Y226168D01*
X-5049Y227169D01*
X-6174Y227835D01*
X-7674Y228169D01*
X-8549Y228835D01*
X-8924Y230002D01*
X-8674Y231169D01*
X-8049Y232002D01*
X-7174Y232502D01*
X-6299D01*
X-5424Y232169D01*
X-4674Y231335D01*
G01X3001Y222502D02*
X2001Y222669D01*
X1126Y223335D01*
X376Y224335D01*
X-124Y225502D01*
X-374Y226835D01*
Y228169D01*
X-124Y229502D01*
X376Y230669D01*
X1126Y231669D01*
X2001Y232335D01*
X3001Y232502D01*
X4001Y232335D01*
X4876Y231669D01*
X5626Y230669D01*
X6126Y229502D01*
X6376Y228169D01*
Y226835D01*
X6126Y225502D01*
X5626Y224335D01*
X4876Y223335D01*
X4001Y222669D01*
X3001Y222502D01*
G01X10301Y232502D02*
Y222502D01*
X15301D01*
G01X19851D02*
Y232502D01*
X22351D01*
X23351Y232002D01*
X24101Y231335D01*
X24726Y230335D01*
X25226Y229168D01*
X25351Y227502D01*
X25226Y225835D01*
X24726Y224669D01*
X24101Y223668D01*
X23351Y223002D01*
X22351Y222502D01*
X19851D01*
G01X34901D02*
X29901D01*
Y232502D01*
X34901D01*
G01X32901Y227669D02*
X29901D01*
G01X39701Y222502D02*
Y232502D01*
X42826D01*
X43826Y232002D01*
X44451Y231335D01*
X44701Y230002D01*
X44451Y228669D01*
X43701Y227835D01*
X42826Y227335D01*
X39701D01*
G01X42826D02*
X44701Y222502D01*
G01X48751D02*
Y232502D01*
X52001Y224169D01*
X55251Y232502D01*
Y222502D01*
G01X58676D02*
X61801Y232502D01*
X64926Y222502D01*
G01X63801Y226002D02*
X59801D01*
G01X68976Y223835D02*
X69976Y223002D01*
X71101Y222502D01*
X72101D01*
X73101Y223002D01*
X73851Y223835D01*
X74226Y225002D01*
X73976Y226168D01*
X73351Y227169D01*
X72226Y227835D01*
X70726Y228169D01*
X69851Y228835D01*
X69476Y230002D01*
X69726Y231169D01*
X70351Y232002D01*
X71226Y232502D01*
X72101D01*
X72976Y232169D01*
X73726Y231335D01*
G01X78651Y222502D02*
Y232502D01*
G01X83401D02*
X78651Y226335D01*
G01X84151Y222502D02*
X80776Y229168D01*
G01X98501Y222502D02*
Y232502D01*
X101501D01*
X102501Y232002D01*
X103251Y230835D01*
X103501Y229502D01*
X103251Y228169D01*
X102626Y227169D01*
X101501Y226668D01*
X98501D01*
G01X108301Y222502D02*
Y232502D01*
X111426D01*
X112426Y232002D01*
X113051Y231335D01*
X113301Y230002D01*
X113051Y228669D01*
X112301Y227835D01*
X111426Y227335D01*
X108301D01*
G01X111426D02*
X113301Y222502D01*
G01X119101Y232502D02*
X122101D01*
G01X120601D02*
Y222502D01*
G01X119101D02*
X122101D01*
G01X127151D02*
Y232502D01*
X130401Y224169D01*
X133651Y232502D01*
Y222502D01*
G01X137076D02*
X140201Y232502D01*
X143326Y222502D01*
G01X142201Y226002D02*
X138201D01*
G01X147501Y222502D02*
Y232502D01*
X150626D01*
X151626Y232002D01*
X152251Y231335D01*
X152501Y230002D01*
X152251Y228669D01*
X151501Y227835D01*
X150626Y227335D01*
X147501D01*
G01X150626D02*
X152501Y222502D01*
G01X159801D02*
Y227002D01*
X157301Y232502D01*
G01X162301D02*
X159801Y227002D01*
G01X22601Y212502D02*
X21601Y212169D01*
X20851Y211335D01*
X20351Y210335D01*
X19976Y209002D01*
X19851Y207502D01*
X19976Y206002D01*
X20351Y204669D01*
X20851Y203668D01*
X21601Y202835D01*
X22601Y202502D01*
X23601Y202835D01*
X24351Y203668D01*
X24851Y204669D01*
X25226Y206002D01*
X25351Y207502D01*
X25226Y209002D01*
X24851Y210335D01*
X24351Y211335D01*
X23601Y212169D01*
X22601Y212502D01*
G01X32401Y202502D02*
X33276Y202669D01*
X34276Y203169D01*
X34901Y204002D01*
X35151Y205169D01*
X34901Y206335D01*
X34151Y207335D01*
X33026Y207835D01*
X31776D01*
X31026Y208169D01*
X30401Y209002D01*
X30151Y210169D01*
X30526Y211335D01*
X31401Y212169D01*
X32401Y212502D01*
X33401Y212169D01*
X34276Y211335D01*
X34651Y210169D01*
X34401Y209002D01*
X33776Y208169D01*
X33026Y207835D01*
X31776D01*
X30651Y207335D01*
X29901Y206335D01*
X29651Y205169D01*
X29901Y204002D01*
X30526Y203169D01*
X31526Y202669D01*
X32401Y202502D01*
G01X40576Y205835D02*
X43826D01*
G01X109176D02*
X112426D01*
G01X120601Y212502D02*
X119601Y212169D01*
X118851Y211335D01*
X118351Y210335D01*
X117976Y209002D01*
X117851Y207502D01*
X117976Y206002D01*
X118351Y204669D01*
X118851Y203668D01*
X119601Y202835D01*
X120601Y202502D01*
X121601Y202835D01*
X122351Y203668D01*
X122851Y204669D01*
X123226Y206002D01*
X123351Y207502D01*
X123226Y209002D01*
X122851Y210335D01*
X122351Y211335D01*
X121601Y212169D01*
X120601Y212502D01*
G01X131901Y202502D02*
Y212502D01*
X127276Y205335D01*
X133526D01*
G01X51901Y180002D02*
Y190002D01*
X55026D01*
X56026Y189502D01*
X56651Y188835D01*
X56901Y187502D01*
X56651Y186169D01*
X55901Y185335D01*
X55026Y184835D01*
X51901D01*
G01X55026D02*
X56901Y180002D01*
G01X66701D02*
X61701D01*
Y190002D01*
X66701D01*
G01X64701Y185169D02*
X61701D01*
G01X70876Y190002D02*
X74001Y180002D01*
X77126Y190002D01*
G01X94601Y185335D02*
X95101Y185835D01*
X95476Y186668D01*
X95726Y187835D01*
X95476Y188835D01*
X94976Y189502D01*
X94101Y190002D01*
X90726D01*
Y180002D01*
X94851D01*
X95726Y180669D01*
X96226Y181669D01*
X96476Y182835D01*
X96226Y184002D01*
X95476Y185002D01*
X94601Y185335D01*
X90726D01*
G01X52001Y212502D02*
X51001Y212169D01*
X50251Y211335D01*
X49751Y210335D01*
X49376Y209002D01*
X49251Y207502D01*
X49376Y206002D01*
X49751Y204669D01*
X50251Y203668D01*
X51001Y202835D01*
X52001Y202502D01*
X53001Y202835D01*
X53751Y203668D01*
X54251Y204669D01*
X54626Y206002D01*
X54751Y207502D01*
X54626Y209002D01*
X54251Y210335D01*
X53751Y211335D01*
X53001Y212169D01*
X52001Y212502D01*
G01X61551Y202502D02*
X61801Y204669D01*
X62176Y206502D01*
X62676Y208169D01*
X63301Y210002D01*
X64301Y212502D01*
X59301D01*
G01X73101Y202502D02*
Y212502D01*
X68476Y205335D01*
X74726D01*
G01X78651Y204002D02*
X79401Y203169D01*
X80276Y202669D01*
X81401Y202502D01*
X82526Y202835D01*
X83401Y203502D01*
X84026Y204669D01*
X84151Y206002D01*
X83901Y207335D01*
X83276Y208169D01*
X82401Y208835D01*
X81526Y209002D01*
X80651Y208835D01*
X79526Y208169D01*
X79901Y212502D01*
X83276D01*
G01X88826Y210835D02*
X89576Y211835D01*
X90451Y212335D01*
X91451Y212502D01*
X92701Y212169D01*
X93576Y211335D01*
X93826Y210335D01*
X93701Y209335D01*
X93201Y208502D01*
X90701Y206835D01*
X89576Y205669D01*
X88826Y204002D01*
X88576Y202502D01*
X93826D01*
G01X98626Y210835D02*
X99376Y211835D01*
X100251Y212335D01*
X101251Y212502D01*
X102501Y212169D01*
X103376Y211335D01*
X103626Y210335D01*
X103501Y209335D01*
X103001Y208502D01*
X100501Y206835D01*
X99376Y205669D01*
X98626Y204002D01*
X98376Y202502D01*
X103626D01*
M02*
