G04 ================== begin FILE IDENTIFICATION RECORD ==================*
G04 Layout Name:  C:/tmp/20_074522b/worklib/02_074522b_top/physical/08_074522b.brd*
G04 Film Name:    mask_sec*
G04 File Format:  Gerber RS274X*
G04 File Origin:  Cadence Allegro 17.4-S036*
G04 Origin Date:  Wed Jul 12 13:23:58 2023*
G04 *
G04 Layer:  VIA CLASS/SOLDERMASK_BOTTOM*
G04 Layer:  PIN/SOLDERMASK_BOTTOM*
G04 Layer:  PACKAGE GEOMETRY/SOLDERMASK_BOTTOM*
G04 Layer:  BOARD GEOMETRY/TOOLING_CORNERS*
G04 Layer:  BOARD GEOMETRY/SOLDERMASK_BOTTOM*
G04 Layer:  BOARD GEOMETRY/ROOT_NUMBER*
G04 *
G04 Offset:    (0.00 0.00)*
G04 Mirror:    No*
G04 Mode:      Positive*
G04 Rotation:  0*
G04 FullContactRelief:  No*
G04 UndefLineWidth:     8.00*
G04 ================== end FILE IDENTIFICATION RECORD ====================*
%FSLAX25Y25*MOIN*%
%IR0*IPPOS*OFA0.00000B0.00000*MIA0B0*SFA1.00000B1.00000*%
%ADD11C,.07*%
%ADD10R,.07X.07*%
%ADD12C,.05*%
%ADD13C,.008*%
G75*
%LPD*%
G75*
G54D10*
X0Y0D03*
G54D11*
Y20000D03*
Y10000D03*
Y40000D03*
Y30000D03*
Y60000D03*
Y50000D03*
Y80000D03*
Y70000D03*
Y100000D03*
Y90000D03*
Y120000D03*
Y110000D03*
Y140000D03*
Y130000D03*
X10000Y0D03*
Y20000D03*
Y10000D03*
Y40000D03*
Y30000D03*
Y60000D03*
Y50000D03*
Y80000D03*
Y70000D03*
Y100000D03*
Y90000D03*
Y120000D03*
Y110000D03*
Y140000D03*
Y130000D03*
G54D12*
G01X-20999Y-19998D02*
X14001D01*
G01X-20999Y160000D02*
X14001D01*
G01X-10999Y-29998D02*
Y5002D01*
G01Y170000D02*
Y135000D01*
G01X178999Y-19998D02*
X143999D01*
G01X178999Y160000D02*
X143999D01*
G01X168999Y-29998D02*
Y5002D01*
G01Y170000D02*
Y135000D01*
G54D13*
G01X-19224Y223835D02*
X-18224Y223002D01*
X-17099Y222502D01*
X-16099D01*
X-15099Y223002D01*
X-14349Y223835D01*
X-13974Y225002D01*
X-14224Y226168D01*
X-14849Y227169D01*
X-15974Y227835D01*
X-17474Y228169D01*
X-18349Y228835D01*
X-18724Y230002D01*
X-18474Y231169D01*
X-17849Y232002D01*
X-16974Y232502D01*
X-16099D01*
X-15224Y232169D01*
X-14474Y231335D01*
G01X-6799Y222502D02*
X-7799Y222669D01*
X-8674Y223335D01*
X-9424Y224335D01*
X-9924Y225502D01*
X-10174Y226835D01*
Y228169D01*
X-9924Y229502D01*
X-9424Y230669D01*
X-8674Y231669D01*
X-7799Y232335D01*
X-6799Y232502D01*
X-5799Y232335D01*
X-4924Y231669D01*
X-4174Y230669D01*
X-3674Y229502D01*
X-3424Y228169D01*
Y226835D01*
X-3674Y225502D01*
X-4174Y224335D01*
X-4924Y223335D01*
X-5799Y222669D01*
X-6799Y222502D01*
G01X501Y232502D02*
Y222502D01*
X5501D01*
G01X10051D02*
Y232502D01*
X12551D01*
X13551Y232002D01*
X14301Y231335D01*
X14926Y230335D01*
X15426Y229168D01*
X15551Y227502D01*
X15426Y225835D01*
X14926Y224669D01*
X14301Y223668D01*
X13551Y223002D01*
X12551Y222502D01*
X10051D01*
G01X25101D02*
X20101D01*
Y232502D01*
X25101D01*
G01X23101Y227669D02*
X20101D01*
G01X29901Y222502D02*
Y232502D01*
X33026D01*
X34026Y232002D01*
X34651Y231335D01*
X34901Y230002D01*
X34651Y228669D01*
X33901Y227835D01*
X33026Y227335D01*
X29901D01*
G01X33026D02*
X34901Y222502D01*
G01X38951D02*
Y232502D01*
X42201Y224169D01*
X45451Y232502D01*
Y222502D01*
G01X48876D02*
X52001Y232502D01*
X55126Y222502D01*
G01X54001Y226002D02*
X50001D01*
G01X59176Y223835D02*
X60176Y223002D01*
X61301Y222502D01*
X62301D01*
X63301Y223002D01*
X64051Y223835D01*
X64426Y225002D01*
X64176Y226168D01*
X63551Y227169D01*
X62426Y227835D01*
X60926Y228169D01*
X60051Y228835D01*
X59676Y230002D01*
X59926Y231169D01*
X60551Y232002D01*
X61426Y232502D01*
X62301D01*
X63176Y232169D01*
X63926Y231335D01*
G01X68851Y222502D02*
Y232502D01*
G01X73601D02*
X68851Y226335D01*
G01X74351Y222502D02*
X70976Y229168D01*
G01X88576Y223835D02*
X89576Y223002D01*
X90701Y222502D01*
X91701D01*
X92701Y223002D01*
X93451Y223835D01*
X93826Y225002D01*
X93576Y226168D01*
X92951Y227169D01*
X91826Y227835D01*
X90326Y228169D01*
X89451Y228835D01*
X89076Y230002D01*
X89326Y231169D01*
X89951Y232002D01*
X90826Y232502D01*
X91701D01*
X92576Y232169D01*
X93326Y231335D01*
G01X103501Y222502D02*
X98501D01*
Y232502D01*
X103501D01*
G01X101501Y227669D02*
X98501D01*
G01X113551Y231669D02*
X112801Y232169D01*
X111926Y232502D01*
X110926D01*
X109801Y232002D01*
X108926Y231169D01*
X108301Y230169D01*
X107801Y228502D01*
X107676Y227002D01*
X107926Y225502D01*
X108301Y224502D01*
X109051Y223502D01*
X109926Y222835D01*
X110801Y222502D01*
X111676D01*
X112551Y222835D01*
X113301Y223335D01*
X113926Y224002D01*
G01X120601Y222502D02*
X119601Y222669D01*
X118726Y223335D01*
X117976Y224335D01*
X117476Y225502D01*
X117226Y226835D01*
Y228169D01*
X117476Y229502D01*
X117976Y230669D01*
X118726Y231669D01*
X119601Y232335D01*
X120601Y232502D01*
X121601Y232335D01*
X122476Y231669D01*
X123226Y230669D01*
X123726Y229502D01*
X123976Y228169D01*
Y226835D01*
X123726Y225502D01*
X123226Y224335D01*
X122476Y223335D01*
X121601Y222669D01*
X120601Y222502D01*
G01X127526D02*
Y232502D01*
X133276Y222502D01*
Y232502D01*
G01X137451Y222502D02*
Y232502D01*
X139951D01*
X140951Y232002D01*
X141701Y231335D01*
X142326Y230335D01*
X142826Y229168D01*
X142951Y227502D01*
X142826Y225835D01*
X142326Y224669D01*
X141701Y223668D01*
X140951Y223002D01*
X139951Y222502D01*
X137451D01*
G01X146876D02*
X150001Y232502D01*
X153126Y222502D01*
G01X152001Y226002D02*
X148001D01*
G01X157301Y222502D02*
Y232502D01*
X160426D01*
X161426Y232002D01*
X162051Y231335D01*
X162301Y230002D01*
X162051Y228669D01*
X161301Y227835D01*
X160426Y227335D01*
X157301D01*
G01X160426D02*
X162301Y222502D01*
G01X169601D02*
Y227002D01*
X167101Y232502D01*
G01X172101D02*
X169601Y227002D01*
G01X22601Y212502D02*
X21601Y212169D01*
X20851Y211335D01*
X20351Y210335D01*
X19976Y209002D01*
X19851Y207502D01*
X19976Y206002D01*
X20351Y204669D01*
X20851Y203668D01*
X21601Y202835D01*
X22601Y202502D01*
X23601Y202835D01*
X24351Y203668D01*
X24851Y204669D01*
X25226Y206002D01*
X25351Y207502D01*
X25226Y209002D01*
X24851Y210335D01*
X24351Y211335D01*
X23601Y212169D01*
X22601Y212502D01*
G01X32401Y202502D02*
X33276Y202669D01*
X34276Y203169D01*
X34901Y204002D01*
X35151Y205169D01*
X34901Y206335D01*
X34151Y207335D01*
X33026Y207835D01*
X31776D01*
X31026Y208169D01*
X30401Y209002D01*
X30151Y210169D01*
X30526Y211335D01*
X31401Y212169D01*
X32401Y212502D01*
X33401Y212169D01*
X34276Y211335D01*
X34651Y210169D01*
X34401Y209002D01*
X33776Y208169D01*
X33026Y207835D01*
X31776D01*
X30651Y207335D01*
X29901Y206335D01*
X29651Y205169D01*
X29901Y204002D01*
X30526Y203169D01*
X31526Y202669D01*
X32401Y202502D01*
G01X40576Y205835D02*
X43826D01*
G01X109176D02*
X112426D01*
G01X120601Y212502D02*
X119601Y212169D01*
X118851Y211335D01*
X118351Y210335D01*
X117976Y209002D01*
X117851Y207502D01*
X117976Y206002D01*
X118351Y204669D01*
X118851Y203668D01*
X119601Y202835D01*
X120601Y202502D01*
X121601Y202835D01*
X122351Y203668D01*
X122851Y204669D01*
X123226Y206002D01*
X123351Y207502D01*
X123226Y209002D01*
X122851Y210335D01*
X122351Y211335D01*
X121601Y212169D01*
X120601Y212502D01*
G01X128026Y206668D02*
X128901Y207835D01*
X129651Y208502D01*
X130651Y208835D01*
X131526Y208502D01*
X132151Y207835D01*
X132651Y206835D01*
X132776Y205669D01*
X132651Y204669D01*
X132151Y203668D01*
X131401Y202835D01*
X130526Y202502D01*
X129526Y202835D01*
X128651Y203835D01*
X128151Y205335D01*
X128026Y207002D01*
X128276Y209168D01*
X128651Y210335D01*
X129276Y211502D01*
X130151Y212335D01*
X131026Y212502D01*
X131901Y212169D01*
X132526Y211335D01*
G01X51901Y180002D02*
Y190002D01*
X55026D01*
X56026Y189502D01*
X56651Y188835D01*
X56901Y187502D01*
X56651Y186169D01*
X55901Y185335D01*
X55026Y184835D01*
X51901D01*
G01X55026D02*
X56901Y180002D01*
G01X66701D02*
X61701D01*
Y190002D01*
X66701D01*
G01X64701Y185169D02*
X61701D01*
G01X70876Y190002D02*
X74001Y180002D01*
X77126Y190002D01*
G01X94601Y185335D02*
X95101Y185835D01*
X95476Y186668D01*
X95726Y187835D01*
X95476Y188835D01*
X94976Y189502D01*
X94101Y190002D01*
X90726D01*
Y180002D01*
X94851D01*
X95726Y180669D01*
X96226Y181669D01*
X96476Y182835D01*
X96226Y184002D01*
X95476Y185002D01*
X94601Y185335D01*
X90726D01*
G01X52001Y212502D02*
X51001Y212169D01*
X50251Y211335D01*
X49751Y210335D01*
X49376Y209002D01*
X49251Y207502D01*
X49376Y206002D01*
X49751Y204669D01*
X50251Y203668D01*
X51001Y202835D01*
X52001Y202502D01*
X53001Y202835D01*
X53751Y203668D01*
X54251Y204669D01*
X54626Y206002D01*
X54751Y207502D01*
X54626Y209002D01*
X54251Y210335D01*
X53751Y211335D01*
X53001Y212169D01*
X52001Y212502D01*
G01X61551Y202502D02*
X61801Y204669D01*
X62176Y206502D01*
X62676Y208169D01*
X63301Y210002D01*
X64301Y212502D01*
X59301D01*
G01X73101Y202502D02*
Y212502D01*
X68476Y205335D01*
X74726D01*
G01X78651Y204002D02*
X79401Y203169D01*
X80276Y202669D01*
X81401Y202502D01*
X82526Y202835D01*
X83401Y203502D01*
X84026Y204669D01*
X84151Y206002D01*
X83901Y207335D01*
X83276Y208169D01*
X82401Y208835D01*
X81526Y209002D01*
X80651Y208835D01*
X79526Y208169D01*
X79901Y212502D01*
X83276D01*
G01X88826Y210835D02*
X89576Y211835D01*
X90451Y212335D01*
X91451Y212502D01*
X92701Y212169D01*
X93576Y211335D01*
X93826Y210335D01*
X93701Y209335D01*
X93201Y208502D01*
X90701Y206835D01*
X89576Y205669D01*
X88826Y204002D01*
X88576Y202502D01*
X93826D01*
G01X98626Y210835D02*
X99376Y211835D01*
X100251Y212335D01*
X101251Y212502D01*
X102501Y212169D01*
X103376Y211335D01*
X103626Y210335D01*
X103501Y209335D01*
X103001Y208502D01*
X100501Y206835D01*
X99376Y205669D01*
X98626Y204002D01*
X98376Y202502D01*
X103626D01*
M02*
